<svg xmlns="http://www.w3.org/2000/svg" width="1035" height="535" viewBox="0 0 1035 535">
<rect x="0" y="0" width="1035" height="535" fill="#ffffff" stroke="none" stroke-width="0"/>
<g transform="translate(25, 510) scale(2.7397260, -0.0057870370)">
<path fill="#80c0ff" stroke="none" stroke-width="0" d="M0,0L0,19840L1,19840L1,23988L2,23988L2,27540L3,27540L3,30436L4,30436L4,32776L5,32776L5,34713L6,34713L6,36389L7,36389L7,37917L8,37917L8,39392L9,39392L9,40894L10,40894L10,42503L11,42503L11,44300L12,44300L12,46370L13,46370L13,48795L14,48795L14,51627L15,51627L15,54860L16,54860L16,58413L17,58413L17,62157L18,62157L18,65969L19,65969L19,69771L20,69771L20,73546L21,73546L21,77324L22,77324L22,81164L23,81164L23,85133L24,85133L24,86400L38,86400L38,85610L37,85610L37,82053L36,82053L36,78490L35,78490L35,74873L34,74873L34,71138L33,71138L33,67217L32,67217L32,63070L31,63070L31,58723L30,58723L30,54320L29,54320L29,50123L28,50123L28,46400L27,46400L27,43282L26,43282L26,40728L25,40728L25,38609L24,38609L24,36786L23,36786L23,35135L22,35135L22,33554L21,33554L21,31952L20,31952L20,30245L19,30245L19,28347L18,28347L18,26178L17,26178L17,23669L16,23669L16,20798L15,20798L15,17601L14,17601L14,14180L13,14180L13,10653L12,10653L12,7113L11,7113L11,3606L10,3606L10,123L9,123L9,0L1,0Z"/>
<path fill="#80c0ff" stroke="none" stroke-width="0" d="M0,54501L0,86400L8,86400L8,83023L7,83023L7,79439L6,79439L6,75692L5,75692L5,71711L4,71711L4,67464L3,67464L3,63019L2,63019L2,58591L1,58591L1,54501Z"/>
<path fill="#80c0ff" stroke="none" stroke-width="0" d="M25,0L25,2881L26,2881L26,7195L27,7195L27,11556L28,11556L28,15726L29,15726L29,19444L30,19444L30,22572L31,22572L31,25134L32,25134L32,27250L33,27250L33,29056L34,29056L34,30671L35,30671L35,32193L36,32193L36,33708L37,33708L37,35293L38,35293L38,37028L39,37028L39,38995L40,38995L40,41277L41,41277L41,43942L42,43942L42,47012L43,47012L43,50446L44,50446L44,54139L45,54139L45,57967L46,57967L46,61833L47,61833L47,65693L48,65693L48,69553L49,69553L49,73454L50,73454L50,77451L51,77451L51,81589L52,81589L52,85863L53,85863L53,86400L66,86400L66,81180L65,81180L65,77569L64,77569L64,73965L63,73965L63,70345L62,70345L62,66664L61,66664L61,62864L60,62864L60,58895L59,58895L59,54744L58,54744L58,50473L57,50473L57,46250L56,46250L56,42317L55,42317L55,38875L54,38875L54,35989L53,35989L53,33595L52,33595L52,31569L51,31569L51,29787L50,29787L50,28136L49,28136L49,26523L48,26523L48,24859L47,24859L47,23062L46,23062L46,21048L45,21048L45,18743L44,18743L44,16094L43,16094L43,13097L42,13097L42,9810L41,9810L41,6336L40,6336L40,2778L39,2778L39,0L26,0Z"/>
<path fill="#80c0ff" stroke="none" stroke-width="0" d="M54,0L54,3784L55,3784L55,7954L56,7954L56,11738L57,11738L57,14980L58,14980L58,17667L59,17667L59,19892L60,19892L60,21781L61,21781L61,23452L62,23452L62,25004L63,25004L63,26524L64,26524L64,28086L65,28086L65,29769L66,29769L66,35249L67,35249L67,37406L68,37406L68,39910L69,39910L69,42800L70,42800L70,46060L71,46060L71,49616L72,49616L72,53359L73,53359L73,57194L74,57194L74,61062L75,61062L75,64957L76,64957L76,68908L77,68908L77,72964L78,72964L78,77169L79,77169L79,81527L80,81527L80,85957L81,85957L81,86400L95,86400L95,84019L94,84019L94,80438L93,80438L93,76814L92,76814L92,73201L91,73201L91,69606L90,69606L90,66002L89,66002L89,62339L88,62339L88,58562L87,58562L87,54624L86,54624L86,50520L85,50520L85,46322L84,46322L84,42205L83,42205L83,38402L82,38402L82,35091L81,35091L81,32312L80,32312L80,29990L79,29990L79,28004L78,28004L78,26231L77,26231L77,24565L76,24565L76,22911L75,22911L75,21185L74,21185L74,19303L73,19303L73,17184L72,17184L72,14758L71,14758L71,11987L70,11987L70,8883L69,8883L69,5514L68,5514L68,1981L67,1981L67,0L55,0Z"/>
<path fill="#80c0ff" stroke="none" stroke-width="0" d="M82,0L82,3867L83,3867L83,7809L84,7809L84,11203L85,11203L85,14014L86,14014L86,16328L87,16328L87,18273L88,18273L88,19975L89,19975L89,21535L90,21535L90,23042L91,23042L91,24572L92,24572L92,26200L93,26200L93,28002L94,28002L94,30052L95,30052L95,32422L96,32422L96,35157L97,35157L97,38254L98,38254L98,41656L99,41656L99,45267L100,45267L100,48992L101,48992L101,52770L102,52770L102,56587L103,56587L103,60470L104,60470L104,64473L105,64473L105,68655L106,68655L106,73045L107,73045L107,77595L108,77595L108,82131L109,82131L109,86371L110,86371L110,86400L125,86400L125,86023L124,86023L124,83035L123,83035L123,79740L122,79740L122,76239L121,76239L121,72645L120,72645L120,69045L119,69045L119,65475L118,65475L118,61930L117,61930L117,58369L116,58369L116,54733L115,54733L115,50957L114,50957L114,46990L113,46990L113,42833L112,42833L112,38579L111,38579L111,34442L110,34442L110,30680L109,30680L109,27460L108,27460L108,24788L107,24788L107,22560L106,22560L106,20642L105,20642L105,18910L104,18910L104,17257L103,17257L103,15592L102,15592L102,13829L101,13829L101,11885L100,11885L100,9681L99,9681L99,7152L98,7152L98,4272L97,4272L97,1066L96,1066L96,0L83,0Z"/>
<path fill="#80c0ff" stroke="none" stroke-width="0" d="M111,0L111,3662L112,3662L112,6712L113,6712L113,9191L114,9191L114,11239L115,11239L115,12994L116,12994L116,14574L117,14574L117,16074L118,16074L118,17574L119,17574L119,19150L120,19150L120,20878L121,20878L121,22832L122,22832L122,25088L123,25088L123,27695L124,27695L124,30666L125,30666L125,33950L126,33950L126,37454L127,37454L127,41078L128,41078L128,44748L129,44748L129,48442L130,48442L130,52180L131,52180L131,56018L132,56018L132,60027L133,60027L133,64272L134,64272L134,68765L135,68765L135,73404L136,73404L136,77930L137,77930L137,82015L138,82015L138,85446L139,85446L139,86400L155,86400L155,85765L154,85765L154,83702L153,83702L153,81322L152,81322L152,78582L151,78582L151,75494L150,75494L150,72131L149,72131L149,68607L148,68607L148,65031L147,65031L147,61469L146,61469L146,57940L145,57940L145,54416L144,54416L144,50843L143,50843L143,47147L142,47147L142,43256L141,43256L141,39124L140,39124L140,34781L139,34781L139,30388L138,30388L138,26233L137,26233L137,22591L136,22591L136,19569L135,19569L135,17098L134,17098L134,15035L133,15035L133,13238L132,13238L132,11585L131,11585L131,9975L130,9975L130,8320L129,8320L129,6536L128,6536L128,4539L127,4539L127,2254L126,2254L126,0L112,0Z"/>
<path fill="#80c0ff" stroke="none" stroke-width="0" d="M140,0L140,1821L141,1821L141,4070L142,4070L142,5951L143,5951L143,7601L144,7601L144,9129L145,9129L145,10625L146,10625L146,12168L147,12168L147,13836L148,13836L148,15707L149,15707L149,17858L150,17858L150,20352L151,20352L151,23215L152,23215L152,26412L153,26412L153,29854L154,29854L154,33430L155,33430L155,37048L156,37048L156,40665L157,40665L157,44288L158,44288L158,47964L159,47964L159,51761L160,51761L160,55760L161,55760L161,60018L162,60018L162,64519L163,64519L163,69106L164,69106L164,73472L165,73472L165,77302L166,77302L166,80460L167,80460L167,83007L168,83007L168,85095L169,85095L169,86400L186,86400L186,85333L185,85333L185,83801L184,83801L184,82233L183,82233L183,80548L182,80548L182,78667L181,78667L181,76512L180,76512L180,74021L179,74021L179,71168L178,71168L178,67989L177,67989L177,64574L176,64574L176,61037L175,61037L175,57468L174,57468L174,53911L173,53911L173,50362L172,50362L172,46778L171,46778L171,43089L170,43089L170,39218L169,39218L169,35096L168,35096L168,30711L167,30711L167,26172L166,26172L166,21748L165,21748L165,17769L164,17769L164,14434L163,14434L163,11730L162,11730L162,9521L161,9521L161,7651L160,7651L160,5984L159,5984L159,4410L158,4410L158,2837L157,2837L157,1183L156,1183L156,0L141,0Z"/>
<path fill="#80c0ff" stroke="none" stroke-width="0" d="M170,0L170,479L171,479L171,2085L172,2085L172,3616L173,3616L173,5158L174,5158L174,6793L175,6793L175,8599L176,8599L176,10658L177,10658L177,13042L178,13042L178,15794L179,15794L179,18905L180,18905L180,22300L181,22300L181,25864L182,25864L182,29488L183,29488L183,33106L184,33106L184,36701L185,36701L185,40303L186,40303L186,43970L187,43970L187,47776L188,47776L188,51790L189,51790L189,56043L190,56043L190,60471L191,60471L191,64866L192,64866L192,68924L193,68924L193,72406L194,72406L194,75263L195,75263L195,77596L196,77596L196,79555L197,79555L197,81277L198,81277L198,82877L199,82877L199,84448L200,84448L200,86075L201,86075L201,86400L217,86400L217,85604L216,85604L216,83437L215,83437L215,81592L214,81592L214,79947L213,79947L213,78398L212,78398L212,76860L211,76860L211,75255L210,75255L210,73505L209,73505L209,71531L208,71531L208,69263L207,69263L207,66648L206,66648L206,63681L205,63681L205,60413L204,60413L204,56941L203,56941L203,53368L202,53368L202,49763L201,49763L201,46149L200,46149L200,42507L199,42507L199,38783L198,38783L198,34906L197,34906L197,30805L196,30805L196,26446L195,26446L195,21892L194,21892L194,17352L193,17352L193,13150L192,13150L192,9545L191,9545L191,6600L190,6600L190,4215L189,4215L189,2233L188,2233L188,512L187,512L187,0L171,0Z"/>
<path fill="#80c0ff" stroke="none" stroke-width="0" d="M202,0L202,1438L203,1438L203,3421L204,3421L204,5699L205,5699L205,8333L206,8333L206,11335L207,11335L207,14657L208,14657L208,18199L209,18199L209,21844L210,21844L210,25504L211,25504L211,29142L212,29142L212,32765L213,32765L213,36413L214,36413L214,40150L215,40150L215,44038L216,44038L216,48119L217,48119L217,52369L218,52369L218,56660L219,56660L219,60749L220,60749L220,64390L221,64390L221,67461L222,67461L222,69996L223,69996L223,72115L224,72115L224,73952L225,73952L225,75626L226,75626L226,77236L227,77236L227,78867L228,78867L228,80602L229,80602L229,82522L230,82522L230,84705L231,84705L231,86400L246,86400L246,83896L245,83896L245,80924L244,80924L244,78468L243,78468L243,76409L242,76409L242,74620L241,74620L241,72990L240,72990L240,71427L239,71427L239,69850L238,69850L238,68181L237,68181L237,66343L236,66343L236,64261L235,64261L235,61868L234,61868L234,59123L233,59123L233,56036L232,56036L232,52669L231,52669L231,49118L230,49118L230,45473L229,45473L229,41791L228,41791L228,38083L227,38083L227,34321L226,34321L226,30452L225,30452L225,26413L224,26413L224,22161L223,22161L223,17715L222,17715L222,13209L221,13209L221,8898L220,8898L220,5058L219,5058L219,1836L218,1836L218,0L203,0Z"/>
<path fill="#80c0ff" stroke="none" stroke-width="0" d="M232,0L232,817L233,817L233,3690L234,3690L234,6903L235,6903L235,10375L236,10375L236,14001L237,14001L237,17684L238,17684L238,21370L239,21370L239,25047L240,25047L240,28743L241,28743L241,32506L242,32506L242,36391L243,36391L243,40437L244,40437L244,44631L245,44631L245,48873L246,48873L246,52963L247,52963L247,56673L248,56673L248,59856L249,59856L249,62512L250,62512L250,64735L251,64735L251,66649L252,66649L252,68371L253,68371L253,70002L254,70002L254,71630L255,71630L255,73334L256,73334L256,75195L257,75195L257,77290L258,77290L258,79688L259,79688L259,82430L260,82430L260,85512L261,85512L261,86400L275,86400L275,83802L274,83802L274,79916L273,79916L273,76521L272,76521L272,73673L271,73673L271,71304L270,71304L270,69296L269,69296L269,67528L268,67528L268,65896L267,65896L267,64308L266,64308L266,62686L265,62686L265,60951L264,60951L264,59026L263,59026L263,56834L262,56834L262,54314L261,54314L261,51434L260,51434L260,48218L259,48218L259,44738L258,44738L258,41094L257,41094L257,37373L256,37373L256,33624L255,33624L255,29851L254,29851L254,26025L253,26025L253,22097L252,22097L252,18017L251,18017L251,13768L250,13768L250,9403L249,9403L249,5081L248,5081L248,1041L247,1041L247,0L233,0Z"/>
<path fill="#80c0ff" stroke="none" stroke-width="0" d="M262,0L262,2475L263,2475L263,6026L264,6026L264,9670L265,9670L265,13345L266,13345L266,17033L267,17033L267,20750L268,20750L268,24540L269,24540L269,28457L270,28457L270,32540L271,32540L271,36786L272,36786L272,41106L273,41106L273,45305L274,45305L274,49145L275,49145L275,52460L276,52460L276,55224L277,55224L277,57525L278,57525L278,59487L279,59487L279,61231L280,61231L280,62860L281,62860L281,64464L282,64464L282,66123L283,66123L283,67917L284,67917L284,69922L285,69922L285,72209L286,72209L286,74828L287,74828L287,77786L288,77786L288,81037L289,81037L289,84492L290,84492L290,86400L305,86400L305,85197L304,85197L304,84586L303,84586L303,80280L302,80280L302,76076L301,76076L301,72232L300,72232L300,68928L299,68928L299,66186L298,66186L298,63913L297,63913L297,61977L296,61977L296,60256L295,60256L295,58645L294,58645L294,57056L293,57056L293,55408L292,55408L292,53621L291,53621L291,51616L290,51616L290,49317L289,49317L289,46667L288,46667L288,43648L287,43648L287,40303L286,40303L286,36723L285,36723L285,33016L284,33016L284,29269L283,29269L283,25521L282,25521L282,21767L281,21767L281,17971L280,17971L280,14081L279,14081L279,10050L278,10050L278,5867L277,5867L277,1596L276,1596L276,0L263,0Z"/>
<path fill="#80c0ff" stroke="none" stroke-width="0" d="M291,0L291,1656L292,1656L292,5262L293,5262L293,8884L294,8884L294,12536L295,12536L295,16264L296,16264L296,20127L297,20127L297,24183L298,24183L298,28454L299,28454L299,32883L300,32883L300,37287L301,37287L301,41393L302,41393L302,44970L303,44970L303,47944L304,47944L304,46785L305,46785L305,48830L306,48830L306,50612L307,50612L307,52246L308,52246L308,53826L309,53826L309,55436L310,55436L310,57157L311,57157L311,59067L312,59067L312,61242L313,61242L313,63740L314,63740L314,66583L315,66583L315,69737L316,69737L316,73116L317,73116L317,76616L318,76616L318,80155L319,80155L319,83692L320,83692L320,86400L334,86400L334,85507L333,85507L333,81542L332,81542L332,77349L331,77349L331,72947L330,72947L330,68485L329,68485L329,64243L328,64243L328,60504L327,60504L327,57395L326,57395L326,54861L325,54861L325,52764L324,52764L324,50962L323,50962L323,49331L322,49331L322,47774L321,47774L321,46205L320,46205L320,44544L319,44544L319,42711L318,42711L318,40625L317,40625L317,38214L316,38214L316,35431L315,35431L315,32283L314,32283L314,28839L313,28839L313,25211L312,25211L312,21510L311,21510L311,17806L310,17806L310,14122L309,14122L309,10434L308,10434L308,6691L307,6691L307,2829L306,2829L306,0L292,0Z"/>
<path fill="#80c0ff" stroke="none" stroke-width="0" d="M321,0L321,835L322,835L322,4423L323,4423L323,8123L324,8123L324,12008L325,12008L325,16138L326,16138L326,20516L327,20516L327,25031L328,25031L328,29424L329,29424L329,33383L330,33383L330,36719L331,36719L331,39440L332,39440L332,41672L333,41672L333,43567L334,43567L334,45258L335,45258L335,46853L336,46853L336,48443L337,48443L337,50111L338,50111L338,51939L339,51939L339,54006L340,54006L340,56382L341,56382L341,59106L342,59106L342,62165L343,62165L343,65485L344,65485L344,68956L345,68956L345,72474L346,72474L346,75978L347,75978L347,79455L348,79455L348,82931L349,82931L349,86400L363,86400L363,85315L362,85315L362,81502L361,81502L361,77517L360,77517L360,73293L359,73293L359,68815L358,68815L358,64190L357,64190L357,59680L356,59680L356,55618L355,55618L355,52210L354,52210L354,49452L353,49452L353,47212L352,47212L352,45333L351,45333L351,43680L350,43680L350,42144L349,42144L349,40636L348,40636L348,39078L347,39078L347,37391L346,37391L346,35496L345,35496L345,33316L344,33316L344,30787L343,30787L343,27884L342,27884L342,24640L341,24640L341,21149L340,21149L340,17527L339,17527L339,13869L338,13869L338,10220L337,10220L337,6576L336,6576L336,2894L335,2894L335,0L322,0Z"/>
<path fill="#80c0ff" stroke="none" stroke-width="0" d="M350,0L350,64L351,64L351,3729L352,3729L352,7601L353,7601L353,11733L354,11733L354,16103L355,16103L355,20555L356,20555L356,24797L357,24797L357,28534L358,28534L358,31641L359,31641L359,34175L360,34175L360,36283L361,36283L361,38112L362,38112L362,39786L363,39786L363,41410L364,41410L364,43072L365,43072L365,2630L364,2630L364,0L351,0Z"/>
<line x1="2.5" y1="0" x2="2.5" y2="27540" stroke="#0000ff" stroke-width="1" vector-effect="non-scaling-stroke"/>
<line x1="2.5" y1="63019" x2="2.5" y2="86400" stroke="#0000ff" stroke-width="1" vector-effect="non-scaling-stroke"/>
<line x1="17.5" y1="26178" x2="17.5" y2="62157" stroke="#ff0000" stroke-width="1" vector-effect="non-scaling-stroke"/>
<line x1="31.5" y1="0" x2="31.5" y2="25134" stroke="#0000ff" stroke-width="1" vector-effect="non-scaling-stroke"/>
<line x1="31.5" y1="63070" x2="31.5" y2="86400" stroke="#0000ff" stroke-width="1" vector-effect="non-scaling-stroke"/>
<line x1="47.5" y1="24859" x2="47.5" y2="65693" stroke="#ff0000" stroke-width="1" vector-effect="non-scaling-stroke"/>
<line x1="61.5" y1="0" x2="61.5" y2="23452" stroke="#0000ff" stroke-width="1" vector-effect="non-scaling-stroke"/>
<line x1="61.5" y1="66664" x2="61.5" y2="86400" stroke="#0000ff" stroke-width="1" vector-effect="non-scaling-stroke"/>
<line x1="76.5" y1="24565" x2="76.5" y2="68908" stroke="#ff0000" stroke-width="1" vector-effect="non-scaling-stroke"/>
<line x1="90.5" y1="0" x2="90.5" y2="23042" stroke="#0000ff" stroke-width="1" vector-effect="non-scaling-stroke"/>
<line x1="90.5" y1="69606" x2="90.5" y2="86400" stroke="#0000ff" stroke-width="1" vector-effect="non-scaling-stroke"/>
<line x1="106.5" y1="22560" x2="106.5" y2="73045" stroke="#ff0000" stroke-width="1" vector-effect="non-scaling-stroke"/>
<line x1="120.5" y1="0" x2="120.5" y2="20878" stroke="#0000ff" stroke-width="1" vector-effect="non-scaling-stroke"/>
<line x1="120.5" y1="72645" x2="120.5" y2="86400" stroke="#0000ff" stroke-width="1" vector-effect="non-scaling-stroke"/>
<line x1="135.5" y1="19569" x2="135.5" y2="73404" stroke="#ff0000" stroke-width="1" vector-effect="non-scaling-stroke"/>
<line x1="150.5" y1="0" x2="150.5" y2="20352" stroke="#0000ff" stroke-width="1" vector-effect="non-scaling-stroke"/>
<line x1="150.5" y1="75494" x2="150.5" y2="86400" stroke="#0000ff" stroke-width="1" vector-effect="non-scaling-stroke"/>
<line x1="164.5" y1="17769" x2="164.5" y2="73472" stroke="#ff0000" stroke-width="1" vector-effect="non-scaling-stroke"/>
<line x1="179.5" y1="0" x2="179.5" y2="18905" stroke="#0000ff" stroke-width="1" vector-effect="non-scaling-stroke"/>
<line x1="179.5" y1="74021" x2="179.5" y2="86400" stroke="#0000ff" stroke-width="1" vector-effect="non-scaling-stroke"/>
<line x1="194.5" y1="21892" x2="194.5" y2="75263" stroke="#ff0000" stroke-width="1" vector-effect="non-scaling-stroke"/>
<line x1="209.5" y1="0" x2="209.5" y2="21844" stroke="#0000ff" stroke-width="1" vector-effect="non-scaling-stroke"/>
<line x1="209.5" y1="73505" x2="209.5" y2="86400" stroke="#0000ff" stroke-width="1" vector-effect="non-scaling-stroke"/>
<line x1="223.5" y1="22161" x2="223.5" y2="72115" stroke="#ff0000" stroke-width="1" vector-effect="non-scaling-stroke"/>
<line x1="238.5" y1="0" x2="238.5" y2="21370" stroke="#0000ff" stroke-width="1" vector-effect="non-scaling-stroke"/>
<line x1="238.5" y1="69850" x2="238.5" y2="86400" stroke="#0000ff" stroke-width="1" vector-effect="non-scaling-stroke"/>
<line x1="252.5" y1="22097" x2="252.5" y2="68371" stroke="#ff0000" stroke-width="1" vector-effect="non-scaling-stroke"/>
<line x1="268.5" y1="0" x2="268.5" y2="24540" stroke="#0000ff" stroke-width="1" vector-effect="non-scaling-stroke"/>
<line x1="268.5" y1="67528" x2="268.5" y2="86400" stroke="#0000ff" stroke-width="1" vector-effect="non-scaling-stroke"/>
<line x1="282.5" y1="25521" x2="282.5" y2="66123" stroke="#ff0000" stroke-width="1" vector-effect="non-scaling-stroke"/>
<line x1="297.5" y1="0" x2="297.5" y2="24183" stroke="#0000ff" stroke-width="1" vector-effect="non-scaling-stroke"/>
<line x1="297.5" y1="63913" x2="297.5" y2="86400" stroke="#0000ff" stroke-width="1" vector-effect="non-scaling-stroke"/>
<line x1="311.5" y1="21510" x2="311.5" y2="59067" stroke="#ff0000" stroke-width="1" vector-effect="non-scaling-stroke"/>
<line x1="327.5" y1="0" x2="327.5" y2="25031" stroke="#0000ff" stroke-width="1" vector-effect="non-scaling-stroke"/>
<line x1="327.5" y1="60504" x2="327.5" y2="86400" stroke="#0000ff" stroke-width="1" vector-effect="non-scaling-stroke"/>
<line x1="341.5" y1="24640" x2="341.5" y2="59106" stroke="#ff0000" stroke-width="1" vector-effect="non-scaling-stroke"/>
<line x1="356.5" y1="0" x2="356.5" y2="24797" stroke="#0000ff" stroke-width="1" vector-effect="non-scaling-stroke"/>
<line x1="356.5" y1="59680" x2="356.5" y2="86400" stroke="#0000ff" stroke-width="1" vector-effect="non-scaling-stroke"/>
<path fill="rgba(0, 0, 0, 0.5)" stroke="none" stroke-width="0" d="M0,0L0,23890L1,23890L1,23902L2,23902L2,23912L3,23912L3,23920L4,23920L4,23926L5,23926L5,23931L6,23931L6,23934L7,23934L7,23935L9,23935L9,23932L10,23932L10,23928L11,23928L11,23922L12,23922L12,23915L13,23915L13,23905L14,23905L14,23894L15,23894L15,23881L16,23881L16,23866L17,23866L17,23849L18,23849L18,23831L19,23831L19,23811L20,23811L20,23789L21,23789L21,23765L22,23765L22,23740L23,23740L23,23712L24,23712L24,23684L25,23684L25,23653L26,23653L26,23621L27,23621L27,23587L28,23587L28,23551L29,23551L29,23514L30,23514L30,23475L31,23475L31,23435L32,23435L32,23393L33,23393L33,23350L34,23350L34,23305L35,23305L35,23258L36,23258L36,23210L37,23210L37,23161L38,23161L38,23111L39,23111L39,23059L40,23059L40,23005L41,23005L41,22951L42,22951L42,22895L43,22895L43,22838L44,22838L44,22779L45,22779L45,22720L46,22720L46,22659L47,22659L47,22597L48,22597L48,22534L49,22534L49,22470L50,22470L50,22405L51,22405L51,22338L52,22338L52,22271L53,22271L53,22203L54,22203L54,22134L55,22134L55,22063L56,22063L56,21992L57,21992L57,21920L58,21920L58,21848L59,21848L59,21774L60,21774L60,21700L61,21700L61,21625L62,21625L62,21549L63,21549L63,21473L64,21473L64,21395L65,21395L65,21318L66,21318L66,24839L67,24839L67,24761L68,24761L68,24681L69,24681L69,24601L70,24601L70,24521L71,24521L71,24440L72,24440L72,24359L73,24359L73,24277L74,24277L74,24196L75,24196L75,24113L76,24113L76,24031L77,24031L77,23948L78,23948L78,23865L79,23865L79,23782L80,23782L80,23698L81,23698L81,23615L82,23615L82,23531L83,23531L83,23447L84,23447L84,23363L85,23363L85,23279L86,23279L86,23195L87,23195L87,23111L88,23111L88,23028L89,23028L89,22944L90,22944L90,22860L91,22860L91,22776L92,22776L92,22693L93,22693L93,22610L94,22610L94,22527L95,22527L95,22444L96,22444L96,22362L97,22362L97,22280L98,22280L98,22198L99,22198L99,22117L100,22117L100,22036L101,22036L101,21955L102,21955L102,21875L103,21875L103,21796L104,21796L104,21717L105,21717L105,21639L106,21639L106,21561L107,21561L107,21484L108,21484L108,21407L109,21407L109,21331L110,21331L110,21256L111,21256L111,21182L112,21182L112,21108L113,21108L113,21036L114,21036L114,20964L115,20964L115,20892L116,20892L116,20822L117,20822L117,20753L118,20753L118,20684L119,20684L119,20617L120,20617L120,20551L121,20551L121,20485L122,20485L122,20421L123,20421L123,20358L124,20358L124,20296L125,20296L125,20235L126,20235L126,20175L127,20175L127,20117L128,20117L128,20060L129,20060L129,20004L130,20004L130,19950L131,19950L131,19897L132,19897L132,19845L133,19845L133,19794L134,19794L134,19746L135,19746L135,19698L136,19698L136,19652L137,19652L137,19607L138,19607L138,19564L139,19564L139,19523L140,19523L140,19483L141,19483L141,19445L142,19445L142,19408L143,19408L143,19373L144,19373L144,19339L145,19339L145,19307L146,19307L146,19277L147,19277L147,19248L148,19248L148,19221L149,19221L149,19196L150,19196L150,19173L151,19173L151,19151L152,19151L152,19131L153,19131L153,19112L154,19112L154,19096L155,19096L155,19081L156,19081L156,19068L157,19068L157,19057L158,19057L158,19048L159,19048L159,19040L160,19040L160,19034L161,19034L161,19030L162,19030L162,19028L163,19028L163,19027L164,19027L164,19028L165,19028L165,19031L166,19031L166,19035L167,19035L167,19041L168,19041L168,19049L169,19049L169,19059L170,19059L170,19070L171,19070L171,19082L172,19082L172,19096L173,19096L173,19112L174,19112L174,19129L175,19129L175,19148L176,19148L176,19168L177,19168L177,19189L178,19189L178,19212L179,19212L179,19236L180,19236L180,19262L181,19262L181,19289L182,19289L182,19317L183,19317L183,19346L184,19346L184,19377L185,19377L185,19409L186,19409L186,19441L187,19441L187,19475L188,19475L188,19510L189,19510L189,19546L190,19546L190,19583L191,19583L191,19621L192,19621L192,19660L193,19660L193,19700L194,19700L194,19740L195,19740L195,19781L196,19781L196,19823L197,19823L197,19866L198,19866L198,19909L199,19909L199,19953L200,19953L200,19997L201,19997L201,20042L202,20042L202,20087L203,20087L203,20132L204,20132L204,20179L205,20179L205,20225L206,20225L206,20272L207,20272L207,20319L208,20319L208,20366L209,20366L209,20413L210,20413L210,20461L211,20461L211,20509L212,20509L212,20557L213,20557L213,20605L214,20605L214,20653L215,20653L215,20702L216,20702L216,20750L217,20750L217,20799L218,20799L218,20848L219,20848L219,20896L220,20896L220,20945L221,20945L221,20993L222,20993L222,21042L223,21042L223,21090L224,21090L224,21139L225,21139L225,21187L226,21187L226,21235L227,21235L227,21283L228,21283L228,21331L229,21331L229,21379L230,21379L230,21426L231,21426L231,21474L232,21474L232,21521L233,21521L233,21568L234,21568L234,21614L235,21614L235,21661L236,21661L236,21707L237,21707L237,21754L238,21754L238,21800L239,21800L239,21845L240,21845L240,21891L241,21891L241,21937L242,21937L242,21982L243,21982L243,22027L244,22027L244,22072L245,22072L245,22117L246,22117L246,22162L247,22162L247,22206L248,22206L248,22251L249,22251L249,22295L250,22295L250,22339L251,22339L251,22383L252,22383L252,22428L253,22428L253,22471L254,22471L254,22515L255,22515L255,22559L256,22559L256,22603L257,22603L257,22646L258,22646L258,22690L259,22690L259,22733L260,22733L260,22777L261,22777L261,22820L262,22820L262,22864L263,22864L263,22907L264,22907L264,22950L265,22950L265,22994L266,22994L266,23037L267,23037L267,23081L268,23081L268,23124L269,23124L269,23168L270,23168L270,23211L271,23211L271,23255L272,23255L272,23299L273,23299L273,23343L274,23343L274,23387L275,23387L275,23432L276,23432L276,23476L277,23476L277,23521L278,23521L278,23566L279,23566L279,23611L280,23611L280,23657L281,23657L281,23702L282,23702L282,23748L283,23748L283,23794L284,23794L284,23841L285,23841L285,23887L286,23887L286,23934L287,23934L287,23981L288,23981L288,24029L289,24029L289,24076L290,24076L290,24124L291,24124L291,24172L292,24172L292,24221L293,24221L293,24269L294,24269L294,24318L295,24318L295,24367L296,24367L296,24417L297,24417L297,24467L298,24467L298,24517L299,24517L299,24567L300,24567L300,24618L301,24618L301,24669L302,24669L302,24720L303,24720L303,24772L304,24772L304,21223L305,21223L305,21276L306,21276L306,21328L307,21328L307,21381L308,21381L308,21434L309,21434L309,21487L310,21487L310,21540L311,21540L311,21593L312,21593L312,21647L313,21647L313,21701L314,21701L314,21755L315,21755L315,21809L316,21809L316,21863L317,21863L317,21917L318,21917L318,21971L319,21971L319,22025L320,22025L320,22080L321,22080L321,22134L322,22134L322,22187L323,22187L323,22241L324,22241L324,22295L325,22295L325,22348L326,22348L326,22402L327,22402L327,22454L328,22454L328,22507L329,22507L329,22559L330,22559L330,22611L331,22611L331,22663L332,22663L332,22714L333,22714L333,22765L334,22765L334,22815L335,22815L335,22865L336,22865L336,22914L337,22914L337,22963L338,22963L338,23011L339,23011L339,23058L340,23058L340,23104L341,23104L341,23150L342,23150L342,23194L343,23194L343,23238L344,23238L344,23281L345,23281L345,23323L346,23323L346,23363L347,23363L347,23403L348,23403L348,23441L349,23441L349,23479L350,23479L350,23515L351,23515L351,23550L352,23550L352,23583L353,23583L353,23615L354,23615L354,23646L355,23646L355,23676L356,23676L356,23704L357,23704L357,23730L358,23730L358,23755L359,23755L359,23779L360,23779L360,23800L361,23800L361,23821L362,23821L362,23840L363,23840L363,23857L364,23857L364,23872L365,23872L365,0L1,0Z"/>
<path fill="rgba(0, 0, 0, 0.5)" stroke="none" stroke-width="0" d="M0,62890L0,86400L365,86400L365,62836L364,62836L364,62793L363,62793L363,62752L362,62752L362,62712L361,62712L361,62673L360,62673L360,62636L359,62636L359,62599L358,62599L358,62564L357,62564L357,62531L356,62531L356,62499L355,62499L355,62468L354,62468L354,62439L353,62439L353,62411L352,62411L352,62385L351,62385L351,62360L350,62360L350,62337L349,62337L349,62315L348,62315L348,62295L347,62295L347,62277L346,62277L346,62260L345,62260L345,62245L344,62245L344,62232L343,62232L343,62221L342,62221L342,62211L341,62211L341,62203L340,62203L340,62197L339,62197L339,62193L338,62193L338,62191L337,62191L337,62190L336,62190L336,62191L335,62191L335,62195L334,62195L334,62200L333,62200L333,62206L332,62206L332,62215L331,62215L331,62226L330,62226L330,62238L329,62238L329,62252L328,62252L328,62268L327,62268L327,62286L326,62286L326,62306L325,62306L325,62327L324,62327L324,62351L323,62351L323,62376L322,62376L322,62402L321,62402L321,62431L320,62431L320,62461L319,62461L319,62493L318,62493L318,62526L317,62526L317,62561L316,62561L316,62598L315,62598L315,62637L314,62637L314,62677L313,62677L313,62718L312,62718L312,62762L311,62762L311,62806L310,62806L310,62852L309,62852L309,62900L308,62900L308,62949L307,62949L307,63000L306,63000L306,63052L305,63052L305,63106L304,63106L304,66760L303,66760L303,66817L302,66817L302,66874L301,66874L301,66933L300,66933L300,66993L299,66993L299,67054L298,67054L298,67117L297,67117L297,67180L296,67180L296,67245L295,67245L295,67311L294,67311L294,67378L293,67378L293,67446L292,67446L292,67515L291,67515L291,67585L290,67585L290,67656L289,67656L289,67728L288,67728L288,67800L287,67800L287,67874L286,67874L286,67948L285,67948L285,68023L284,68023L284,68099L283,68099L283,68176L282,68176L282,68254L281,68254L281,68332L280,68332L280,68411L279,68411L279,68490L278,68490L278,68570L277,68570L277,68651L276,68651L276,68732L275,68732L275,68814L274,68814L274,68896L273,68896L273,68979L272,68979L272,69062L271,69062L271,69146L270,69146L270,69230L269,69230L269,69314L268,69314L268,69399L267,69399L267,69484L266,69484L266,69569L265,69569L265,69654L264,69654L264,69740L263,69740L263,69826L262,69826L262,69912L261,69912L261,69998L260,69998L260,70084L259,70084L259,70170L258,70170L258,70257L257,70257L257,70343L256,70343L256,70429L255,70429L255,70515L254,70515L254,70601L253,70601L253,70687L252,70687L252,70773L251,70773L251,70858L250,70858L250,70944L249,70944L249,71029L248,71029L248,71114L247,71114L247,71199L246,71199L246,71283L245,71283L245,71367L244,71367L244,71451L243,71451L243,71534L242,71534L242,71617L241,71617L241,71700L240,71700L240,71782L239,71782L239,71863L238,71863L238,71944L237,71944L237,72024L236,72024L236,72104L235,72104L235,72183L234,72183L234,72261L233,72261L233,72339L232,72339L232,72416L231,72416L231,72492L230,72492L230,72568L229,72568L229,72642L228,72642L228,72716L227,72716L227,72788L226,72788L226,72860L225,72860L225,72931L224,72931L224,73001L223,73001L223,73070L222,73070L222,73138L221,73138L221,73205L220,73205L220,73270L219,73270L219,73335L218,73335L218,73399L217,73399L217,73461L216,73461L216,73522L215,73522L215,73582L214,73582L214,73640L213,73640L213,73698L212,73698L212,73754L211,73754L211,73808L210,73808L210,73862L209,73862L209,73914L208,73914L208,73964L207,73964L207,74013L206,74013L206,74061L205,74061L205,74107L204,74107L204,74151L203,74151L203,74194L202,74194L202,74235L201,74235L201,74275L200,74275L200,74313L199,74313L199,74349L198,74349L198,74384L197,74384L197,74417L196,74417L196,74448L195,74448L195,74478L194,74478L194,74505L193,74505L193,74532L192,74532L192,74556L191,74556L191,74578L190,74578L190,74599L189,74599L189,74618L188,74618L188,74636L187,74636L187,74651L186,74651L186,74665L185,74665L185,74677L184,74677L184,74687L183,74687L183,74695L182,74695L182,74702L181,74702L181,74707L180,74707L180,74710L179,74710L179,74711L178,74711L178,74710L177,74710L177,74708L176,74708L176,74704L175,74704L175,74698L174,74698L174,74691L173,74691L173,74682L172,74682L172,74671L171,74671L171,74658L170,74658L170,74644L169,74644L169,74628L168,74628L168,74610L167,74610L167,74591L166,74591L166,74571L165,74571L165,74549L164,74549L164,74525L163,74525L163,74500L162,74500L162,74474L161,74474L161,74446L160,74446L160,74417L159,74417L159,74386L158,74386L158,74355L157,74355L157,74322L156,74322L156,74288L155,74288L155,74253L154,74253L154,74217L153,74217L153,74180L152,74180L152,74141L151,74141L151,74102L150,74102L150,74062L149,74062L149,74021L148,74021L148,73979L147,73979L147,73936L146,73936L146,73893L145,73893L145,73849L144,73849L144,73804L143,73804L143,73758L142,73758L142,73712L141,73712L141,73665L140,73665L140,73617L139,73617L139,73569L138,73569L138,73521L137,73521L137,73472L136,73472L136,73422L135,73422L135,73373L134,73373L134,73323L133,73323L133,73272L132,73272L132,73222L131,73222L131,73171L130,73171L130,73120L129,73120L129,73068L128,73068L128,73017L127,73017L127,72966L126,72966L126,72914L125,72914L125,72863L124,72863L124,72811L123,72811L123,72759L122,72759L122,72708L121,72708L121,72656L120,72656L120,72604L119,72604L119,72553L118,72553L118,72501L117,72501L117,72450L116,72450L116,72398L115,72398L115,72347L114,72347L114,72295L113,72295L113,72244L112,72244L112,72193L111,72193L111,72142L110,72142L110,72091L109,72091L109,72040L108,72040L108,71990L107,71990L107,71939L106,71939L106,71889L105,71889L105,71838L104,71838L104,71788L103,71788L103,71738L102,71738L102,71689L101,71689L101,71639L100,71639L100,71590L99,71590L99,71540L98,71540L98,71491L97,71491L97,71442L96,71442L96,71394L95,71394L95,71345L94,71345L94,71296L93,71296L93,71248L92,71248L92,71200L91,71200L91,71152L90,71152L90,71104L89,71104L89,71056L88,71056L88,71008L87,71008L87,70960L86,70960L86,70912L85,70912L85,70864L84,70864L84,70817L83,70817L83,70769L82,70769L82,70721L81,70721L81,70673L80,70673L80,70625L79,70625L79,70578L78,70578L78,70530L77,70530L77,70482L76,70482L76,70434L75,70434L75,70386L74,70386L74,70338L73,70338L73,70289L72,70289L72,70241L71,70241L71,70193L70,70193L70,70144L69,70144L69,70096L68,70096L68,70047L67,70047L67,69998L66,69998L66,66349L65,66349L65,66300L64,66300L64,66251L63,66251L63,66201L62,66201L62,66151L61,66151L61,66101L60,66101L60,66051L59,66051L59,66001L58,66001L58,65950L57,65950L57,65899L56,65899L56,65848L55,65848L55,65797L54,65797L54,65745L53,65745L53,65693L52,65693L52,65641L51,65641L51,65589L50,65589L50,65536L49,65536L49,65483L48,65483L48,65429L47,65429L47,65376L46,65376L46,65322L45,65322L45,65268L44,65268L44,65213L43,65213L43,65159L42,65159L42,65104L41,65104L41,65049L40,65049L40,64994L39,64994L39,64938L38,64938L38,64882L37,64882L37,64827L36,64827L36,64771L35,64771L35,64715L34,64715L34,64658L33,64658L33,64602L32,64602L32,64545L31,64545L31,64489L30,64489L30,64432L29,64432L29,64376L28,64376L28,64319L27,64319L27,64262L26,64262L26,64205L25,64205L25,64148L24,64148L24,64092L23,64092L23,64035L22,64035L22,63979L21,63979L21,63922L20,63922L20,63866L19,63866L19,63810L18,63810L18,63755L17,63755L17,63699L16,63699L16,63644L15,63644L15,63590L14,63590L14,63535L13,63535L13,63482L12,63482L12,63428L11,63428L11,63376L10,63376L10,63324L9,63324L9,63273L8,63273L8,63222L7,63222L7,63172L6,63172L6,63123L5,63123L5,63075L4,63075L4,63027L3,63027L3,62981L2,62981L2,62935L1,62935L1,62890Z"/>
<path fill="rgba(0, 0, 0, 0.25)" stroke="none" stroke-width="0" d="M0,23890L0,25559L1,25559L1,25569L2,25569L2,25577L3,25577L3,25583L4,25583L4,25588L5,25588L5,25590L6,25590L6,25591L7,25591L7,25590L8,25590L8,25587L9,25587L9,25583L10,25583L10,25576L11,25576L11,25567L12,25567L12,25557L13,25557L13,25545L14,25545L14,25531L15,25531L15,25515L16,25515L16,25497L17,25497L17,25477L18,25477L18,25456L19,25456L19,25432L20,25432L20,25407L21,25407L21,25380L22,25380L22,25352L23,25352L23,25321L24,25321L24,25289L25,25289L25,25255L26,25255L26,25220L27,25220L27,25183L28,25183L28,25144L29,25144L29,25103L30,25103L30,25061L31,25061L31,25018L32,25018L32,24973L33,24973L33,24926L34,24926L34,24878L35,24878L35,24828L36,24828L36,24777L37,24777L37,24725L38,24725L38,24671L39,24671L39,24616L40,24616L40,24560L41,24560L41,24503L42,24503L42,24444L43,24444L43,24384L44,24384L44,24323L45,24323L45,24261L46,24261L46,24197L47,24197L47,24133L48,24133L48,24068L49,24068L49,24001L50,24001L50,23934L51,23934L51,23865L52,23865L52,23796L53,23796L53,23726L54,23726L54,23654L55,23654L55,23582L56,23582L56,23510L57,23510L57,23436L58,23436L58,23362L59,23362L59,23287L60,23287L60,23211L61,23211L61,23134L62,23134L62,23058L63,23058L63,22980L64,22980L64,22902L65,22902L65,22823L66,22823L66,21318L65,21318L65,21395L64,21395L64,21473L63,21473L63,21549L62,21549L62,21625L61,21625L61,21700L60,21700L60,21774L59,21774L59,21848L58,21848L58,21920L57,21920L57,21992L56,21992L56,22063L55,22063L55,22134L54,22134L54,22203L53,22203L53,22271L52,22271L52,22338L51,22338L51,22405L50,22405L50,22470L49,22470L49,22534L48,22534L48,22597L47,22597L47,22659L46,22659L46,22720L45,22720L45,22779L44,22779L44,22838L43,22838L43,22895L42,22895L42,22951L41,22951L41,23005L40,23005L40,23059L39,23059L39,23111L38,23111L38,23161L37,23161L37,23210L36,23210L36,23258L35,23258L35,23305L34,23305L34,23350L33,23350L33,23393L32,23393L32,23435L31,23435L31,23475L30,23475L30,23514L29,23514L29,23551L28,23551L28,23587L27,23587L27,23621L26,23621L26,23653L25,23653L25,23684L24,23684L24,23712L23,23712L23,23740L22,23740L22,23765L21,23765L21,23789L20,23789L20,23811L19,23811L19,23831L18,23831L18,23849L17,23849L17,23866L16,23866L16,23881L15,23881L15,23894L14,23894L14,23905L13,23905L13,23915L12,23915L12,23922L11,23922L11,23928L10,23928L10,23932L9,23932L9,23935L7,23935L7,23934L6,23934L6,23931L5,23931L5,23926L4,23926L4,23920L3,23920L3,23912L2,23912L2,23902L1,23902L1,23890Z"/>
<path fill="rgba(0, 0, 0, 0.25)" stroke="none" stroke-width="0" d="M0,61222L0,62890L1,62890L1,62935L2,62935L2,62981L3,62981L3,63027L4,63027L4,63075L5,63075L5,63123L6,63123L6,63172L7,63172L7,63222L8,63222L8,63273L9,63273L9,63324L10,63324L10,63376L11,63376L11,63428L12,63428L12,63482L13,63482L13,63535L14,63535L14,63590L15,63590L15,63644L16,63644L16,63699L17,63699L17,63755L18,63755L18,63810L19,63810L19,63866L20,63866L20,63922L21,63922L21,63979L22,63979L22,64035L23,64035L23,64092L24,64092L24,64148L25,64148L25,64205L26,64205L26,64262L27,64262L27,64319L28,64319L28,64376L29,64376L29,64432L30,64432L30,64489L31,64489L31,64545L32,64545L32,64602L33,64602L33,64658L34,64658L34,64715L35,64715L35,64771L36,64771L36,64827L37,64827L37,64882L38,64882L38,64938L39,64938L39,64994L40,64994L40,65049L41,65049L41,65104L42,65104L42,65159L43,65159L43,65213L44,65213L44,65268L45,65268L45,65322L46,65322L46,65376L47,65376L47,65429L48,65429L48,65483L49,65483L49,65536L50,65536L50,65589L51,65589L51,65641L52,65641L52,65693L53,65693L53,65745L54,65745L54,65797L55,65797L55,65848L56,65848L56,65899L57,65899L57,65950L58,65950L58,66001L59,66001L59,66051L60,66051L60,66101L61,66101L61,66151L62,66151L62,66201L63,66201L63,66251L64,66251L64,66300L65,66300L65,66349L66,66349L66,64842L65,64842L65,64792L64,64792L64,64741L63,64741L63,64691L62,64691L62,64640L61,64640L61,64589L60,64589L60,64537L59,64537L59,64486L58,64486L58,64433L57,64433L57,64381L56,64381L56,64328L55,64328L55,64275L54,64275L54,64221L53,64221L53,64167L52,64167L52,64113L51,64113L51,64058L50,64058L50,64003L49,64003L49,63948L48,63948L48,63892L47,63892L47,63836L46,63836L46,63780L45,63780L45,63723L44,63723L44,63666L43,63666L43,63609L42,63609L42,63551L41,63551L41,63493L40,63493L40,63435L39,63435L39,63377L38,63377L38,63318L37,63318L37,63259L36,63259L36,63200L35,63200L35,63141L34,63141L34,63082L33,63082L33,63022L32,63022L32,62962L31,62962L31,62903L30,62903L30,62843L29,62843L29,62783L28,62783L28,62723L27,62723L27,62663L26,62663L26,62603L25,62603L25,62543L24,62543L24,62483L23,62483L23,62423L22,62423L22,62363L21,62363L21,62304L20,62304L20,62244L19,62244L19,62185L18,62185L18,62127L17,62127L17,62068L16,62068L16,62010L15,62010L15,61953L14,61953L14,61896L13,61896L13,61839L12,61839L12,61783L11,61783L11,61728L10,61728L10,61674L9,61674L9,61620L8,61620L8,61567L7,61567L7,61515L6,61515L6,61464L5,61464L5,61413L4,61413L4,61364L3,61364L3,61315L2,61315L2,61268L1,61268L1,61222Z"/>
<path fill="rgba(0, 0, 0, 0.25)" stroke="none" stroke-width="0" d="M66,24839L66,26344L67,26344L67,26265L68,26265L68,26185L69,26185L69,26104L70,26104L70,26023L71,26023L71,25942L72,25942L72,25861L73,25861L73,25779L74,25779L74,25698L75,25698L75,25616L76,25616L76,25533L77,25533L77,25451L78,25451L78,25368L79,25368L79,25286L80,25286L80,25203L81,25203L81,25120L82,25120L82,25037L83,25037L83,24954L84,24954L84,24871L85,24871L85,24789L86,24789L86,24706L87,24706L87,24624L88,24624L88,24541L89,24541L89,24459L90,24459L90,24377L91,24377L91,24295L92,24295L92,24214L93,24214L93,24132L94,24132L94,24052L95,24052L95,23971L96,23971L96,23891L97,23891L97,23811L98,23811L98,23732L99,23732L99,23653L100,23653L100,23575L101,23575L101,23498L102,23498L102,23421L103,23421L103,23344L104,23344L104,23268L105,23268L105,23193L106,23193L106,23118L107,23118L107,23045L108,23045L108,22971L109,22971L109,22899L110,22899L110,22828L111,22828L111,22757L112,22757L112,22687L113,22687L113,22618L114,22618L114,22550L115,22550L115,22482L116,22482L116,22416L117,22416L117,22350L118,22350L118,22286L119,22286L119,22223L120,22223L120,22160L121,22160L121,22099L122,22099L122,22039L123,22039L123,21980L124,21980L124,21922L125,21922L125,21866L126,21866L126,21810L127,21810L127,21756L128,21756L128,21704L129,21704L129,21652L130,21652L130,21602L131,21602L131,21553L132,21553L132,21506L133,21506L133,21460L134,21460L134,21415L135,21415L135,21372L136,21372L136,21330L137,21330L137,21289L138,21289L138,21251L139,21251L139,21213L140,21213L140,21177L141,21177L141,21143L142,21143L142,21110L143,21110L143,21079L144,21079L144,21049L145,21049L145,21021L146,21021L146,20994L147,20994L147,20969L148,20969L148,20945L149,20945L149,20923L150,20923L150,20903L151,20903L151,20885L152,20885L152,20867L153,20867L153,20852L154,20852L154,20838L155,20838L155,20826L156,20826L156,20816L157,20816L157,20807L158,20807L158,20800L159,20800L159,20794L160,20794L160,20790L161,20790L161,20788L162,20788L162,20787L163,20787L163,20788L164,20788L164,20790L165,20790L165,20794L166,20794L166,20799L167,20799L167,20806L168,20806L168,20815L169,20815L169,20824L170,20824L170,20836L171,20836L171,20848L172,20848L172,20862L173,20862L173,20878L174,20878L174,20895L175,20895L175,20913L176,20913L176,20932L177,20932L177,20952L178,20952L178,20974L179,20974L179,20997L180,20997L180,21021L181,21021L181,21047L182,21047L182,21073L183,21073L183,21100L184,21100L184,21129L185,21129L185,21158L186,21158L186,21189L187,21189L187,21220L188,21220L188,21253L189,21253L189,21286L190,21286L190,21320L191,21320L191,21355L192,21355L192,21391L193,21391L193,21427L194,21427L194,21464L195,21464L195,21502L196,21502L196,21541L197,21541L197,21580L198,21580L198,21619L199,21619L199,21659L200,21659L200,21700L201,21700L201,21740L202,21740L202,21782L203,21782L203,21823L204,21823L204,21865L205,21865L205,21908L206,21908L206,21950L207,21950L207,21993L208,21993L208,22036L209,22036L209,22079L210,22079L210,22123L211,22123L211,22167L212,22167L212,22210L213,22210L213,22254L214,22254L214,22298L215,22298L215,22343L216,22343L216,22387L217,22387L217,22431L218,22431L218,22476L219,22476L219,22520L220,22520L220,22565L221,22565L221,22609L222,22609L222,22653L223,22653L223,22698L224,22698L224,22742L225,22742L225,22787L226,22787L226,22831L227,22831L227,22875L228,22875L228,22919L229,22919L229,22963L230,22963L230,23007L231,23007L231,23051L232,23051L232,23094L233,23094L233,23138L234,23138L234,23181L235,23181L235,23224L236,23224L236,23267L237,23267L237,23310L238,23310L238,23353L239,23353L239,23396L240,23396L240,23439L241,23439L241,23482L242,23482L242,23524L243,23524L243,23567L244,23567L244,23609L245,23609L245,23651L246,23651L246,23694L247,23694L247,23736L248,23736L248,23778L249,23778L249,23821L250,23821L250,23863L251,23863L251,23905L252,23905L252,23947L253,23947L253,23989L254,23989L254,24032L255,24032L255,24074L256,24074L256,24116L257,24116L257,24159L258,24159L258,24201L259,24201L259,24243L260,24243L260,24286L261,24286L261,24328L262,24328L262,24371L263,24371L263,24413L264,24413L264,24456L265,24456L265,24499L266,24499L266,24542L267,24542L267,24585L268,24585L268,24628L269,24628L269,24672L270,24672L270,24716L271,24716L271,24759L272,24759L272,24804L273,24804L273,24848L274,24848L274,24893L275,24893L275,24937L276,24937L276,24983L277,24983L277,25028L278,25028L278,25074L279,25074L279,25120L280,25120L280,25167L281,25167L281,25213L282,25213L282,25260L283,25260L283,25308L284,25308L284,25356L285,25356L285,25404L286,25404L286,25452L287,25452L287,25501L288,25501L288,25550L289,25550L289,25599L290,25599L290,25649L291,25649L291,25699L292,25699L292,25750L293,25750L293,25801L294,25801L294,25852L295,25852L295,25903L296,25903L296,25955L297,25955L297,26008L298,26008L298,26060L299,26060L299,26113L300,26113L300,26166L301,26166L301,26220L302,26220L302,26274L303,26274L303,26329L304,26329L304,24772L303,24772L303,24720L302,24720L302,24669L301,24669L301,24618L300,24618L300,24567L299,24567L299,24517L298,24517L298,24467L297,24467L297,24417L296,24417L296,24367L295,24367L295,24318L294,24318L294,24269L293,24269L293,24221L292,24221L292,24172L291,24172L291,24124L290,24124L290,24076L289,24076L289,24029L288,24029L288,23981L287,23981L287,23934L286,23934L286,23887L285,23887L285,23841L284,23841L284,23794L283,23794L283,23748L282,23748L282,23702L281,23702L281,23657L280,23657L280,23611L279,23611L279,23566L278,23566L278,23521L277,23521L277,23476L276,23476L276,23432L275,23432L275,23387L274,23387L274,23343L273,23343L273,23299L272,23299L272,23255L271,23255L271,23211L270,23211L270,23168L269,23168L269,23124L268,23124L268,23081L267,23081L267,23037L266,23037L266,22994L265,22994L265,22950L264,22950L264,22907L263,22907L263,22864L262,22864L262,22820L261,22820L261,22777L260,22777L260,22733L259,22733L259,22690L258,22690L258,22646L257,22646L257,22603L256,22603L256,22559L255,22559L255,22515L254,22515L254,22471L253,22471L253,22428L252,22428L252,22383L251,22383L251,22339L250,22339L250,22295L249,22295L249,22251L248,22251L248,22206L247,22206L247,22162L246,22162L246,22117L245,22117L245,22072L244,22072L244,22027L243,22027L243,21982L242,21982L242,21937L241,21937L241,21891L240,21891L240,21845L239,21845L239,21800L238,21800L238,21754L237,21754L237,21707L236,21707L236,21661L235,21661L235,21614L234,21614L234,21568L233,21568L233,21521L232,21521L232,21474L231,21474L231,21426L230,21426L230,21379L229,21379L229,21331L228,21331L228,21283L227,21283L227,21235L226,21235L226,21187L225,21187L225,21139L224,21139L224,21090L223,21090L223,21042L222,21042L222,20993L221,20993L221,20945L220,20945L220,20896L219,20896L219,20848L218,20848L218,20799L217,20799L217,20750L216,20750L216,20702L215,20702L215,20653L214,20653L214,20605L213,20605L213,20557L212,20557L212,20509L211,20509L211,20461L210,20461L210,20413L209,20413L209,20366L208,20366L208,20319L207,20319L207,20272L206,20272L206,20225L205,20225L205,20179L204,20179L204,20132L203,20132L203,20087L202,20087L202,20042L201,20042L201,19997L200,19997L200,19953L199,19953L199,19909L198,19909L198,19866L197,19866L197,19823L196,19823L196,19781L195,19781L195,19740L194,19740L194,19700L193,19700L193,19660L192,19660L192,19621L191,19621L191,19583L190,19583L190,19546L189,19546L189,19510L188,19510L188,19475L187,19475L187,19441L186,19441L186,19409L185,19409L185,19377L184,19377L184,19346L183,19346L183,19317L182,19317L182,19289L181,19289L181,19262L180,19262L180,19236L179,19236L179,19212L178,19212L178,19189L177,19189L177,19168L176,19168L176,19148L175,19148L175,19129L174,19129L174,19112L173,19112L173,19096L172,19096L172,19082L171,19082L171,19070L170,19070L170,19059L169,19059L169,19049L168,19049L168,19041L167,19041L167,19035L166,19035L166,19031L165,19031L165,19028L164,19028L164,19027L163,19027L163,19028L162,19028L162,19030L161,19030L161,19034L160,19034L160,19040L159,19040L159,19048L158,19048L158,19057L157,19057L157,19068L156,19068L156,19081L155,19081L155,19096L154,19096L154,19112L153,19112L153,19131L152,19131L152,19151L151,19151L151,19173L150,19173L150,19196L149,19196L149,19221L148,19221L148,19248L147,19248L147,19277L146,19277L146,19307L145,19307L145,19339L144,19339L144,19373L143,19373L143,19408L142,19408L142,19445L141,19445L141,19483L140,19483L140,19523L139,19523L139,19564L138,19564L138,19607L137,19607L137,19652L136,19652L136,19698L135,19698L135,19746L134,19746L134,19794L133,19794L133,19845L132,19845L132,19897L131,19897L131,19950L130,19950L130,20004L129,20004L129,20060L128,20060L128,20117L127,20117L127,20175L126,20175L126,20235L125,20235L125,20296L124,20296L124,20358L123,20358L123,20421L122,20421L122,20485L121,20485L121,20551L120,20551L120,20617L119,20617L119,20684L118,20684L118,20753L117,20753L117,20822L116,20822L116,20892L115,20892L115,20964L114,20964L114,21036L113,21036L113,21108L112,21108L112,21182L111,21182L111,21256L110,21256L110,21331L109,21331L109,21407L108,21407L108,21484L107,21484L107,21561L106,21561L106,21639L105,21639L105,21717L104,21717L104,21796L103,21796L103,21875L102,21875L102,21955L101,21955L101,22036L100,22036L100,22117L99,22117L99,22198L98,22198L98,22280L97,22280L97,22362L96,22362L96,22444L95,22444L95,22527L94,22527L94,22610L93,22610L93,22693L92,22693L92,22776L91,22776L91,22860L90,22860L90,22944L89,22944L89,23028L88,23028L88,23111L87,23111L87,23195L86,23195L86,23279L85,23279L85,23363L84,23363L84,23447L83,23447L83,23531L82,23531L82,23615L81,23615L81,23698L80,23698L80,23782L79,23782L79,23865L78,23865L78,23948L77,23948L77,24031L76,24031L76,24113L75,24113L75,24196L74,24196L74,24277L73,24277L73,24359L72,24359L72,24440L71,24440L71,24521L70,24521L70,24601L69,24601L69,24681L68,24681L68,24761L67,24761L67,24839Z"/>
<path fill="rgba(0, 0, 0, 0.25)" stroke="none" stroke-width="0" d="M66,68491L66,69998L67,69998L67,70047L68,70047L68,70096L69,70096L69,70144L70,70144L70,70193L71,70193L71,70241L72,70241L72,70289L73,70289L73,70338L74,70338L74,70386L75,70386L75,70434L76,70434L76,70482L77,70482L77,70530L78,70530L78,70578L79,70578L79,70625L80,70625L80,70673L81,70673L81,70721L82,70721L82,70769L83,70769L83,70817L84,70817L84,70864L85,70864L85,70912L86,70912L86,70960L87,70960L87,71008L88,71008L88,71056L89,71056L89,71104L90,71104L90,71152L91,71152L91,71200L92,71200L92,71248L93,71248L93,71296L94,71296L94,71345L95,71345L95,71394L96,71394L96,71442L97,71442L97,71491L98,71491L98,71540L99,71540L99,71590L100,71590L100,71639L101,71639L101,71689L102,71689L102,71738L103,71738L103,71788L104,71788L104,71838L105,71838L105,71889L106,71889L106,71939L107,71939L107,71990L108,71990L108,72040L109,72040L109,72091L110,72091L110,72142L111,72142L111,72193L112,72193L112,72244L113,72244L113,72295L114,72295L114,72347L115,72347L115,72398L116,72398L116,72450L117,72450L117,72501L118,72501L118,72553L119,72553L119,72604L120,72604L120,72656L121,72656L121,72708L122,72708L122,72759L123,72759L123,72811L124,72811L124,72863L125,72863L125,72914L126,72914L126,72966L127,72966L127,73017L128,73017L128,73068L129,73068L129,73120L130,73120L130,73171L131,73171L131,73222L132,73222L132,73272L133,73272L133,73323L134,73323L134,73373L135,73373L135,73422L136,73422L136,73472L137,73472L137,73521L138,73521L138,73569L139,73569L139,73617L140,73617L140,73665L141,73665L141,73712L142,73712L142,73758L143,73758L143,73804L144,73804L144,73849L145,73849L145,73893L146,73893L146,73936L147,73936L147,73979L148,73979L148,74021L149,74021L149,74062L150,74062L150,74102L151,74102L151,74141L152,74141L152,74180L153,74180L153,74217L154,74217L154,74253L155,74253L155,74288L156,74288L156,74322L157,74322L157,74355L158,74355L158,74386L159,74386L159,74417L160,74417L160,74446L161,74446L161,74474L162,74474L162,74500L163,74500L163,74525L164,74525L164,74549L165,74549L165,74571L166,74571L166,74591L167,74591L167,74610L168,74610L168,74628L169,74628L169,74644L170,74644L170,74658L171,74658L171,74671L172,74671L172,74682L173,74682L173,74691L174,74691L174,74698L175,74698L175,74704L176,74704L176,74708L177,74708L177,74710L178,74710L178,74711L179,74711L179,74710L180,74710L180,74707L181,74707L181,74702L182,74702L182,74695L183,74695L183,74687L184,74687L184,74677L185,74677L185,74665L186,74665L186,74651L187,74651L187,74636L188,74636L188,74618L189,74618L189,74599L190,74599L190,74578L191,74578L191,74556L192,74556L192,74532L193,74532L193,74505L194,74505L194,74478L195,74478L195,74448L196,74448L196,74417L197,74417L197,74384L198,74384L198,74349L199,74349L199,74313L200,74313L200,74275L201,74275L201,74235L202,74235L202,74194L203,74194L203,74151L204,74151L204,74107L205,74107L205,74061L206,74061L206,74013L207,74013L207,73964L208,73964L208,73914L209,73914L209,73862L210,73862L210,73808L211,73808L211,73754L212,73754L212,73698L213,73698L213,73640L214,73640L214,73582L215,73582L215,73522L216,73522L216,73461L217,73461L217,73399L218,73399L218,73335L219,73335L219,73270L220,73270L220,73205L221,73205L221,73138L222,73138L222,73070L223,73070L223,73001L224,73001L224,72931L225,72931L225,72860L226,72860L226,72788L227,72788L227,72716L228,72716L228,72642L229,72642L229,72568L230,72568L230,72492L231,72492L231,72416L232,72416L232,72339L233,72339L233,72261L234,72261L234,72183L235,72183L235,72104L236,72104L236,72024L237,72024L237,71944L238,71944L238,71863L239,71863L239,71782L240,71782L240,71700L241,71700L241,71617L242,71617L242,71534L243,71534L243,71451L244,71451L244,71367L245,71367L245,71283L246,71283L246,71199L247,71199L247,71114L248,71114L248,71029L249,71029L249,70944L250,70944L250,70858L251,70858L251,70773L252,70773L252,70687L253,70687L253,70601L254,70601L254,70515L255,70515L255,70429L256,70429L256,70343L257,70343L257,70257L258,70257L258,70170L259,70170L259,70084L260,70084L260,69998L261,69998L261,69912L262,69912L262,69826L263,69826L263,69740L264,69740L264,69654L265,69654L265,69569L266,69569L266,69484L267,69484L267,69399L268,69399L268,69314L269,69314L269,69230L270,69230L270,69146L271,69146L271,69062L272,69062L272,68979L273,68979L273,68896L274,68896L274,68814L275,68814L275,68732L276,68732L276,68651L277,68651L277,68570L278,68570L278,68490L279,68490L279,68411L280,68411L280,68332L281,68332L281,68254L282,68254L282,68176L283,68176L283,68099L284,68099L284,68023L285,68023L285,67948L286,67948L286,67874L287,67874L287,67800L288,67800L288,67728L289,67728L289,67656L290,67656L290,67585L291,67585L291,67515L292,67515L292,67446L293,67446L293,67378L294,67378L294,67311L295,67311L295,67245L296,67245L296,67180L297,67180L297,67117L298,67117L298,67054L299,67054L299,66993L300,66993L300,66933L301,66933L301,66874L302,66874L302,66817L303,66817L303,66760L304,66760L304,65204L303,65204L303,65263L302,65263L302,65323L301,65323L301,65385L300,65385L300,65448L299,65448L299,65512L298,65512L298,65577L297,65577L297,65643L296,65643L296,65710L295,65710L295,65778L294,65778L294,65848L293,65848L293,65918L292,65918L292,65989L291,65989L291,66061L290,66061L290,66134L289,66134L289,66207L288,66207L288,66282L287,66282L287,66357L286,66357L286,66433L285,66433L285,66510L284,66510L284,66587L283,66587L283,66665L282,66665L282,66744L281,66744L281,66823L280,66823L280,66903L279,66903L279,66984L278,66984L278,67065L277,67065L277,67146L276,67146L276,67228L275,67228L275,67311L274,67311L274,67393L273,67393L273,67476L272,67476L272,67560L271,67560L271,67644L270,67644L270,67728L269,67728L269,67812L268,67812L268,67897L267,67897L267,67981L266,67981L266,68066L265,68066L265,68151L264,68151L264,68236L263,68236L263,68322L262,68322L262,68407L261,68407L261,68492L260,68492L260,68577L259,68577L259,68662L258,68662L258,68747L257,68747L257,68832L256,68832L256,68917L255,68917L255,69002L254,69002L254,69086L253,69086L253,69171L252,69171L252,69255L251,69255L251,69338L250,69338L250,69422L249,69422L249,69505L248,69505L248,69588L247,69588L247,69670L246,69670L246,69752L245,69752L245,69834L244,69834L244,69915L243,69915L243,69996L242,69996L242,70076L241,70076L241,70156L240,70156L240,70235L239,70235L239,70313L238,70313L238,70391L237,70391L237,70468L236,70468L236,70545L235,70545L235,70621L234,70621L234,70696L233,70696L233,70770L232,70770L232,70843L231,70843L231,70916L230,70916L230,70988L229,70988L229,71058L228,71058L228,71128L227,71128L227,71197L226,71197L226,71265L225,71265L225,71332L224,71332L224,71398L223,71398L223,71463L222,71463L222,71527L221,71527L221,71589L220,71589L220,71651L219,71651L219,71711L218,71711L218,71771L217,71771L217,71829L216,71829L216,71886L215,71886L215,71941L214,71941L214,71996L213,71996L213,72049L212,72049L212,72101L211,72101L211,72151L210,72151L210,72200L209,72200L209,72248L208,72248L208,72294L207,72294L207,72339L206,72339L206,72382L205,72382L205,72424L204,72424L204,72464L203,72464L203,72503L202,72503L202,72540L201,72540L201,72576L200,72576L200,72610L199,72610L199,72643L198,72643L198,72674L197,72674L197,72703L196,72703L196,72731L195,72731L195,72757L194,72757L194,72781L193,72781L193,72804L192,72804L192,72825L191,72825L191,72845L190,72845L190,72862L189,72862L189,72879L188,72879L188,72893L187,72893L187,72906L186,72906L186,72917L185,72917L185,72927L184,72927L184,72935L183,72935L183,72941L182,72941L182,72946L181,72946L181,72949L180,72949L180,72950L178,72950L178,72948L177,72948L177,72945L176,72945L176,72940L175,72940L175,72933L174,72933L174,72925L173,72925L173,72916L172,72916L172,72905L171,72905L171,72892L170,72892L170,72878L169,72878L169,72862L168,72862L168,72845L167,72845L167,72826L166,72826L166,72807L165,72807L165,72785L164,72785L164,72763L163,72763L163,72739L162,72739L162,72714L161,72714L161,72688L160,72688L160,72661L159,72661L159,72632L158,72632L158,72603L157,72603L157,72572L156,72572L156,72541L155,72541L155,72508L154,72508L154,72475L153,72475L153,72440L152,72440L152,72405L151,72405L151,72369L150,72369L150,72332L149,72332L149,72294L148,72294L148,72255L147,72255L147,72216L146,72216L146,72176L145,72176L145,72135L144,72135L144,72094L143,72094L143,72052L142,72052L142,72009L141,72009L141,71966L140,71966L140,71923L139,71923L139,71879L138,71879L138,71835L137,71835L137,71790L136,71790L136,71744L135,71744L135,71699L134,71699L134,71653L133,71653L133,71607L132,71607L132,71561L131,71561L131,71514L130,71514L130,71467L129,71467L129,71420L128,71420L128,71373L127,71373L127,71326L126,71326L126,71279L125,71279L125,71231L124,71231L124,71184L123,71184L123,71137L122,71137L122,71089L121,71089L121,71042L120,71042L120,70994L119,70994L119,70947L118,70947L118,70899L117,70899L117,70851L116,70851L116,70804L115,70804L115,70756L114,70756L114,70709L113,70709L113,70661L112,70661L112,70614L111,70614L111,70566L110,70566L110,70519L109,70519L109,70472L108,70472L108,70425L107,70425L107,70377L106,70377L106,70330L105,70330L105,70283L104,70283L104,70236L103,70236L103,70189L102,70189L102,70142L101,70142L101,70096L100,70096L100,70049L99,70049L99,70002L98,70002L98,69956L97,69956L97,69909L96,69909L96,69863L95,69863L95,69817L94,69817L94,69770L93,69770L93,69724L92,69724L92,69678L91,69678L91,69631L90,69631L90,69585L89,69585L89,69539L88,69539L88,69493L87,69493L87,69446L86,69446L86,69400L85,69400L85,69353L84,69353L84,69307L83,69307L83,69260L82,69260L82,69213L81,69213L81,69166L80,69166L80,69119L79,69119L79,69072L78,69072L78,69024L77,69024L77,68977L76,68977L76,68929L75,68929L75,68881L74,68881L74,68833L73,68833L73,68785L72,68785L72,68737L71,68737L71,68688L70,68688L70,68639L69,68639L69,68590L68,68590L68,68541L67,68541L67,68491Z"/>
<path fill="rgba(0, 0, 0, 0.25)" stroke="none" stroke-width="0" d="M304,21223L304,22783L305,22783L305,22838L306,22838L306,22894L307,22894L307,22949L308,22949L308,23005L309,23005L309,23062L310,23062L310,23118L311,23118L311,23175L312,23175L312,23232L313,23232L313,23289L314,23289L314,23346L315,23346L315,23403L316,23403L316,23460L317,23460L317,23518L318,23518L318,23575L319,23575L319,23632L320,23632L320,23690L321,23690L321,23747L322,23747L322,23804L323,23804L323,23861L324,23861L324,23918L325,23918L325,23974L326,23974L326,24030L327,24030L327,24086L328,24086L328,24142L329,24142L329,24197L330,24197L330,24252L331,24252L331,24306L332,24306L332,24360L333,24360L333,24413L334,24413L334,24466L335,24466L335,24518L336,24518L336,24570L337,24570L337,24620L338,24620L338,24670L339,24670L339,24719L340,24719L340,24768L341,24768L341,24815L342,24815L342,24861L343,24861L343,24907L344,24907L344,24951L345,24951L345,24994L346,24994L346,25036L347,25036L347,25077L348,25077L348,25116L349,25116L349,25154L350,25154L350,25191L351,25191L351,25226L352,25226L352,25260L353,25260L353,25292L354,25292L354,25323L355,25323L355,25353L356,25353L356,25380L357,25380L357,25407L358,25407L358,25431L359,25431L359,25454L360,25454L360,25475L361,25475L361,25495L362,25495L362,25512L363,25512L363,25528L364,25528L364,25543L365,25543L365,23872L364,23872L364,23857L363,23857L363,23840L362,23840L362,23821L361,23821L361,23800L360,23800L360,23779L359,23779L359,23755L358,23755L358,23730L357,23730L357,23704L356,23704L356,23676L355,23676L355,23646L354,23646L354,23615L353,23615L353,23583L352,23583L352,23550L351,23550L351,23515L350,23515L350,23479L349,23479L349,23441L348,23441L348,23403L347,23403L347,23363L346,23363L346,23323L345,23323L345,23281L344,23281L344,23238L343,23238L343,23194L342,23194L342,23150L341,23150L341,23104L340,23104L340,23058L339,23058L339,23011L338,23011L338,22963L337,22963L337,22914L336,22914L336,22865L335,22865L335,22815L334,22815L334,22765L333,22765L333,22714L332,22714L332,22663L331,22663L331,22611L330,22611L330,22559L329,22559L329,22507L328,22507L328,22454L327,22454L327,22402L326,22402L326,22348L325,22348L325,22295L324,22295L324,22241L323,22241L323,22187L322,22187L322,22134L321,22134L321,22080L320,22080L320,22025L319,22025L319,21971L318,21971L318,21917L317,21917L317,21863L316,21863L316,21809L315,21809L315,21755L314,21755L314,21701L313,21701L313,21647L312,21647L312,21593L311,21593L311,21540L310,21540L310,21487L309,21487L309,21434L308,21434L308,21381L307,21381L307,21328L306,21328L306,21276L305,21276L305,21223Z"/>
<path fill="rgba(0, 0, 0, 0.25)" stroke="none" stroke-width="0" d="M304,61546L304,63106L305,63106L305,63052L306,63052L306,63000L307,63000L307,62949L308,62949L308,62900L309,62900L309,62852L310,62852L310,62806L311,62806L311,62762L312,62762L312,62718L313,62718L313,62677L314,62677L314,62637L315,62637L315,62598L316,62598L316,62561L317,62561L317,62526L318,62526L318,62493L319,62493L319,62461L320,62461L320,62431L321,62431L321,62402L322,62402L322,62376L323,62376L323,62351L324,62351L324,62327L325,62327L325,62306L326,62306L326,62286L327,62286L327,62268L328,62268L328,62252L329,62252L329,62238L330,62238L330,62226L331,62226L331,62215L332,62215L332,62206L333,62206L333,62200L334,62200L334,62195L335,62195L335,62191L336,62191L336,62190L337,62190L337,62191L338,62191L338,62193L339,62193L339,62197L340,62197L340,62203L341,62203L341,62211L342,62211L342,62221L343,62221L343,62232L344,62232L344,62245L345,62245L345,62260L346,62260L346,62277L347,62277L347,62295L348,62295L348,62315L349,62315L349,62337L350,62337L350,62360L351,62360L351,62385L352,62385L352,62411L353,62411L353,62439L354,62439L354,62468L355,62468L355,62499L356,62499L356,62531L357,62531L357,62564L358,62564L358,62599L359,62599L359,62636L360,62636L360,62673L361,62673L361,62712L362,62712L362,62752L363,62752L363,62793L364,62793L364,62836L365,62836L365,61165L364,61165L364,61122L363,61122L363,61079L362,61079L362,61038L361,61038L361,60999L360,60999L360,60960L359,60960L359,60923L358,60923L358,60888L357,60888L357,60854L356,60854L356,60822L355,60822L355,60791L354,60791L354,60762L353,60762L353,60734L352,60734L352,60708L351,60708L351,60684L350,60684L350,60661L349,60661L349,60641L348,60641L348,60622L347,60622L347,60604L346,60604L346,60589L345,60589L345,60575L344,60575L344,60564L343,60564L343,60554L342,60554L342,60546L341,60546L341,60540L340,60540L340,60536L339,60536L339,60533L337,60533L337,60535L336,60535L336,60538L335,60538L335,60544L334,60544L334,60551L333,60551L333,60561L332,60561L332,60572L331,60572L331,60585L330,60585L330,60601L329,60601L329,60618L328,60618L328,60637L327,60637L327,60658L326,60658L326,60680L325,60680L325,60705L324,60705L324,60731L323,60731L323,60759L322,60759L322,60789L321,60789L321,60821L320,60821L320,60854L319,60854L319,60889L318,60889L318,60926L317,60926L317,60964L316,60964L316,61005L315,61005L315,61046L314,61046L314,61089L313,61089L313,61134L312,61134L312,61181L311,61181L311,61229L310,61229L310,61278L309,61278L309,61329L308,61329L308,61381L307,61381L307,61435L306,61435L306,61490L305,61490L305,61546Z"/>
</g>
<text x="20" y="510" font-family="Arial" font-size="11pt" text-anchor="end" alignment-baseline="middle" fill="#000000">0</text>
<line x1="25" y1="510" x2="1025" y2="510" stroke="#000000" stroke-width="0.5"/>
<text x="20" y="468.33" font-family="Arial" font-size="11pt" text-anchor="end" alignment-baseline="middle" fill="#000000">2</text>
<line x1="25" y1="468.33" x2="1025" y2="468.33" stroke="#000000" stroke-width="0.5"/>
<text x="20" y="426.67" font-family="Arial" font-size="11pt" text-anchor="end" alignment-baseline="middle" fill="#000000">4</text>
<line x1="25" y1="426.67" x2="1025" y2="426.67" stroke="#000000" stroke-width="0.5"/>
<text x="20" y="385" font-family="Arial" font-size="11pt" text-anchor="end" alignment-baseline="middle" fill="#000000">6</text>
<line x1="25" y1="385" x2="1025" y2="385" stroke="#000000" stroke-width="0.5"/>
<text x="20" y="343.33" font-family="Arial" font-size="11pt" text-anchor="end" alignment-baseline="middle" fill="#000000">8</text>
<line x1="25" y1="343.33" x2="1025" y2="343.33" stroke="#000000" stroke-width="0.5"/>
<text x="20" y="301.67" font-family="Arial" font-size="11pt" text-anchor="end" alignment-baseline="middle" fill="#000000">10</text>
<line x1="25" y1="301.67" x2="1025" y2="301.67" stroke="#000000" stroke-width="0.5"/>
<text x="20" y="260" font-family="Arial" font-size="11pt" text-anchor="end" alignment-baseline="middle" fill="#000000">12</text>
<line x1="25" y1="260" x2="1025" y2="260" stroke="#000000" stroke-width="0.5"/>
<text x="20" y="218.33" font-family="Arial" font-size="11pt" text-anchor="end" alignment-baseline="middle" fill="#000000">14</text>
<line x1="25" y1="218.33" x2="1025" y2="218.33" stroke="#000000" stroke-width="0.5"/>
<text x="20" y="176.67" font-family="Arial" font-size="11pt" text-anchor="end" alignment-baseline="middle" fill="#000000">16</text>
<line x1="25" y1="176.67" x2="1025" y2="176.67" stroke="#000000" stroke-width="0.5"/>
<text x="20" y="135" font-family="Arial" font-size="11pt" text-anchor="end" alignment-baseline="middle" fill="#000000">18</text>
<line x1="25" y1="135" x2="1025" y2="135" stroke="#000000" stroke-width="0.5"/>
<text x="20" y="93.33" font-family="Arial" font-size="11pt" text-anchor="end" alignment-baseline="middle" fill="#000000">20</text>
<line x1="25" y1="93.33" x2="1025" y2="93.33" stroke="#000000" stroke-width="0.5"/>
<text x="20" y="51.67" font-family="Arial" font-size="11pt" text-anchor="end" alignment-baseline="middle" fill="#000000">22</text>
<line x1="25" y1="51.67" x2="1025" y2="51.67" stroke="#000000" stroke-width="0.5"/>
<text x="20" y="10" font-family="Arial" font-size="11pt" text-anchor="end" alignment-baseline="middle" fill="#000000">24</text>
<line x1="25" y1="10" x2="1025" y2="10" stroke="#000000" stroke-width="0.5"/>
<text x="67.47" y="522" font-family="Arial" font-size="11pt" text-anchor="middle" alignment-baseline="middle" fill="#000000">Jan</text>
<line x1="25" y1="10" x2="25" y2="510" stroke="#000000" stroke-width="0.5"/>
<text x="148.29" y="522" font-family="Arial" font-size="11pt" text-anchor="middle" alignment-baseline="middle" fill="#000000">Feb</text>
<line x1="109.93" y1="10" x2="109.93" y2="510" stroke="#000000" stroke-width="0.5"/>
<text x="229.11" y="522" font-family="Arial" font-size="11pt" text-anchor="middle" alignment-baseline="middle" fill="#000000">Mar</text>
<line x1="186.64" y1="10" x2="186.64" y2="510" stroke="#000000" stroke-width="0.5"/>
<text x="312.67" y="522" font-family="Arial" font-size="11pt" text-anchor="middle" alignment-baseline="middle" fill="#000000">Apr</text>
<line x1="271.58" y1="10" x2="271.58" y2="510" stroke="#000000" stroke-width="0.5"/>
<text x="396.23" y="522" font-family="Arial" font-size="11pt" text-anchor="middle" alignment-baseline="middle" fill="#000000">May</text>
<line x1="353.77" y1="10" x2="353.77" y2="510" stroke="#000000" stroke-width="0.5"/>
<text x="479.79" y="522" font-family="Arial" font-size="11pt" text-anchor="middle" alignment-baseline="middle" fill="#000000">Jun</text>
<line x1="438.7" y1="10" x2="438.7" y2="510" stroke="#000000" stroke-width="0.5"/>
<text x="563.36" y="522" font-family="Arial" font-size="11pt" text-anchor="middle" alignment-baseline="middle" fill="#000000">Jul</text>
<line x1="520.89" y1="10" x2="520.89" y2="510" stroke="#000000" stroke-width="0.5"/>
<text x="648.29" y="522" font-family="Arial" font-size="11pt" text-anchor="middle" alignment-baseline="middle" fill="#000000">Aug</text>
<line x1="605.82" y1="10" x2="605.82" y2="510" stroke="#000000" stroke-width="0.5"/>
<text x="731.85" y="522" font-family="Arial" font-size="11pt" text-anchor="middle" alignment-baseline="middle" fill="#000000">Sep</text>
<line x1="690.75" y1="10" x2="690.75" y2="510" stroke="#000000" stroke-width="0.5"/>
<text x="815.41" y="522" font-family="Arial" font-size="11pt" text-anchor="middle" alignment-baseline="middle" fill="#000000">Oct</text>
<line x1="772.95" y1="10" x2="772.95" y2="510" stroke="#000000" stroke-width="0.5"/>
<text x="898.97" y="522" font-family="Arial" font-size="11pt" text-anchor="middle" alignment-baseline="middle" fill="#000000">Nov</text>
<line x1="857.88" y1="10" x2="857.88" y2="510" stroke="#000000" stroke-width="0.5"/>
<text x="982.53" y="522" font-family="Arial" font-size="11pt" text-anchor="middle" alignment-baseline="middle" fill="#000000">Dec</text>
<line x1="940.07" y1="10" x2="940.07" y2="510" stroke="#000000" stroke-width="0.5"/>
<line x1="1025" y1="10" x2="1025" y2="510" stroke="#000000" stroke-width="0.5"/>
</svg>