<svg xmlns="http://www.w3.org/2000/svg" width="1035" height="535" viewBox="0 0 1035 535">
<rect x="0" y="0" width="1035" height="535" fill="#ffffff" stroke="none" stroke-width="0"/>
<polygon points="25,325.92 25,114.88 27.74,114.88 27.74,90.85 30.48,90.85 30.48,67.16 33.22,67.16 33.22,43.85 35.96,43.85 35.96,20.62 38.7,20.62 38.7,10 77.05,10 77.05,28.6 74.32,28.6 74.32,47.99 71.58,47.99 71.58,67.64 68.84,67.64 68.84,87.97 66.1,87.97 66.1,109.31 63.36,109.31 63.36,131.79 60.62,131.79 60.62,155.12 57.88,155.12 57.88,178.41 55.14,178.41 55.14,200.34 52.4,200.34 52.4,219.73 49.66,219.73 49.66,236.14 46.92,236.14 46.92,249.85 44.18,249.85 44.18,261.53 41.44,261.53 41.44,271.9 38.7,271.9 38.7,281.62 35.96,281.62 35.96,291.29 33.22,291.29 33.22,301.5 30.48,301.5 30.48,312.84 27.74,312.84 27.74,325.92" fill="#80c0ff" stroke="none" stroke-width="0"/>
<polygon points="41.44,510 41.44,497.07 44.18,497.07 44.18,472.88 46.92,472.88 46.92,448.03 49.66,448.03 49.66,423.03 52.4,423.03 52.4,399.02 55.14,399.02 55.14,377.36 57.88,377.36 57.88,358.94 60.62,358.94 60.62,343.79 63.36,343.79 63.36,331.36 66.1,331.36 66.1,320.95 68.84,320.95 68.84,311.88 71.58,311.88 71.58,303.59 74.32,303.59 74.32,295.62 77.05,295.62 77.05,287.54 79.79,287.54 79.79,278.91 82.53,278.91 82.53,269.25 85.27,269.25 85.27,257.99 88.01,257.99 88.01,244.51 90.75,244.51 90.75,228.21 93.49,228.21 93.49,208.84 96.23,208.84 96.23,186.71 98.97,186.71 98.97,162.76 101.71,162.76 101.71,138.1 104.45,138.1 104.45,113.54 107.19,113.54 107.19,89.37 109.93,89.37 109.93,65.48 112.67,65.48 112.67,41.56 115.41,41.56 115.41,17.31 118.15,17.31 118.15,10 159.25,10 159.25,14.34 156.51,14.34 156.51,34.64 153.77,34.64 153.77,54.43 151.03,54.43 151.03,73.96 148.29,73.96 148.29,93.54 145.55,93.54 145.55,113.53 142.81,113.53 142.81,134.27 140.07,134.27 140.07,155.99 137.33,155.99 137.33,178.62 134.59,178.62 134.59,201.66 131.85,201.66 131.85,224.13 129.11,224.13 129.11,244.81 126.37,244.81 126.37,262.87 123.63,262.87 123.63,278.16 120.89,278.16 120.89,291.11 118.15,291.11 118.15,302.37 115.41,302.37 115.41,312.61 112.67,312.61 112.67,322.47 109.93,322.47 109.93,332.52 107.19,332.52 107.19,343.37 104.45,343.37 104.45,355.61 101.71,355.61 101.71,369.83 98.97,369.83 98.97,386.4 96.23,386.4 96.23,405.28 93.49,405.28 93.49,425.86 90.75,425.86 90.75,447.2 88.01,447.2 88.01,468.43 85.27,468.43 85.27,489.08 82.53,489.08 82.53,509.08 79.79,509.08 79.79,510 44.18,510" fill="#80c0ff" stroke="none" stroke-width="0"/>
<polygon points="120.89,510 120.89,492.63 123.63,492.63 123.63,467.84 126.37,467.84 126.37,443.84 129.11,443.84 129.11,421.82 131.85,421.82 131.85,402.72 134.59,402.72 134.59,386.77 137.33,386.77 137.33,373.63 140.07,373.63 140.07,362.64 142.81,362.64 142.81,353.16 145.55,353.16 145.55,344.63 148.29,344.63 148.29,336.57 151.03,336.57 151.03,328.57 153.77,328.57 153.77,320.21 156.51,320.21 156.51,311.06 159.25,311.06 159.25,300.63 161.99,300.63 161.99,288.33 164.73,288.33 164.73,273.58 167.47,273.58 167.47,255.93 170.21,255.93 170.21,235.35 172.95,235.35 172.95,212.39 175.68,212.39 175.68,188.01 178.42,188.01 178.42,163.14 181.16,163.14 181.16,138.29 183.9,138.29 183.9,113.6 186.64,113.6 186.64,88.86 189.38,88.86 189.38,63.83 192.12,63.83 192.12,38.41 194.86,38.41 194.86,12.9 197.6,12.9 197.6,10 235.96,10 235.96,17.96 233.22,17.96 233.22,38.52 230.48,38.52 230.48,58.62 227.74,58.62 227.74,78.33 225,78.33 225,97.84 222.26,97.84 222.26,117.48 219.52,117.48 219.52,137.56 216.78,137.56 216.78,158.38 214.04,158.38 214.04,180.1 211.3,180.1 211.3,202.59 208.56,202.59 208.56,246.11 205.82,246.11 205.82,267.99 203.08,267.99 203.08,287.98 200.34,287.98 200.34,305.37 197.6,305.37 197.6,320.17 194.86,320.17 194.86,332.84 192.12,332.84 192.12,344.02 189.38,344.02 189.38,354.4 186.64,354.4 186.64,364.58 183.9,364.58 183.9,375.16 181.16,375.16 181.16,386.73 178.42,386.73 178.42,399.87 175.68,399.87 175.68,415.06 172.95,415.06 172.95,432.48 170.21,432.48 170.21,451.87 167.47,451.87 167.47,472.5 164.73,472.5 164.73,493.54 161.99,493.54 161.99,510 123.63,510" fill="#80c0ff" stroke="none" stroke-width="0"/>
<polygon points="200.34,510 200.34,488.12 203.08,488.12 203.08,465.26 205.82,465.26 205.82,445.33 208.56,445.33 208.56,407.83 211.3,407.83 211.3,394.1 214.04,394.1 214.04,382.7 216.78,382.7 216.78,372.93 219.52,372.93 219.52,364.24 222.26,364.24 222.26,356.13 225,356.13 225,348.18 227.74,348.18 227.74,340.01 230.48,340.01 230.48,331.21 233.22,331.21 233.22,321.34 235.96,321.34 235.96,309.88 238.7,309.88 238.7,296.31 241.44,296.31 241.44,280.16 244.18,280.16 244.18,261.25 246.92,261.25 246.92,239.86 249.66,239.86 249.66,216.69 252.4,216.69 252.4,192.56 255.14,192.56 255.14,168.05 257.88,168.05 257.88,143.4 260.62,143.4 260.62,118.48 263.36,118.48 263.36,93.08 266.1,93.08 266.1,67 268.84,67 268.84,40.45 271.58,40.45 271.58,14.22 274.32,14.22 274.32,10 315.41,10 315.41,20.99 312.67,20.99 312.67,41.59 309.93,41.59 309.93,62.34 307.19,62.34 307.19,82.77 304.45,82.77 304.45,102.72 301.71,102.72 301.71,122.28 298.97,122.28 298.97,141.68 296.23,141.68 296.23,161.26 293.49,161.26 293.49,181.35 290.75,181.35 290.75,202.27 288.01,202.27 288.01,224.17 285.27,224.17 285.27,246.88 282.53,246.88 282.53,269.74 279.79,269.74 279.79,291.6 277.05,291.6 277.05,311.33 274.32,311.33 274.32,328.33 271.58,328.33 271.58,342.71 268.84,342.71 268.84,355.07 266.1,355.07 266.1,366.09 263.36,366.09 263.36,376.47 260.62,376.47 260.62,386.82 257.88,386.82 257.88,397.73 255.14,397.73 255.14,409.78 252.4,409.78 252.4,423.49 249.66,423.49 249.66,439.23 246.92,439.23 246.92,457.07 244.18,457.07 244.18,476.61 241.44,476.61 241.44,497.15 238.7,497.15 238.7,510 203.08,510" fill="#80c0ff" stroke="none" stroke-width="0"/>
<polygon points="277.05,510 277.05,489.66 279.79,489.66 279.79,468.06 282.53,468.06 282.53,450.04 285.27,450.04 285.27,435.35 288.01,435.35 288.01,423.3 290.75,423.3 290.75,413.16 293.49,413.16 293.49,404.26 296.23,404.26 296.23,396.08 298.97,396.08 298.97,388.17 301.71,388.17 301.71,380.14 304.45,380.14 304.45,371.59 307.19,371.59 307.19,362.1 309.93,362.1 309.93,351.21 312.67,351.21 312.67,338.4 315.41,338.4 315.41,323.24 318.15,323.24 318.15,305.51 320.89,305.51 320.89,285.38 323.63,285.38 323.63,263.43 326.37,263.43 326.37,240.4 329.11,240.4 329.11,216.87 331.85,216.87 331.85,193.1 334.59,193.1 334.59,169 337.33,169 337.33,144.29 340.07,144.29 340.07,118.65 342.81,118.65 342.81,92.01 345.55,92.01 345.55,64.87 348.29,64.87 348.29,38.51 351.03,38.51 351.03,14.62 353.77,14.62 353.77,10 394.86,10 394.86,26.11 392.12,26.11 392.12,44.79 389.38,44.79 389.38,64.91 386.64,64.91 386.64,85.68 383.9,85.68 383.9,106.39 381.16,106.39 381.16,126.66 378.42,126.66 378.42,146.42 375.68,146.42 375.68,165.82 372.95,165.82 372.95,185.17 370.21,185.17 370.21,204.86 367.47,204.86 367.47,225.26 364.73,225.26 364.73,246.74 361.99,246.74 361.99,269.39 359.25,269.39 359.25,292.9 356.51,292.9 356.51,316.3 353.77,316.3 353.77,338.17 351.03,338.17 351.03,357.35 348.29,357.35 348.29,373.5 345.55,373.5 345.55,387.04 342.81,387.04 342.81,398.71 340.07,398.71 340.07,409.26 337.33,409.26 337.33,419.36 334.59,419.36 334.59,429.63 331.85,429.63 331.85,440.62 329.11,440.62 329.11,452.9 326.37,452.9 326.37,466.95 323.63,466.95 323.63,483.07 320.89,483.07 320.89,501.24 318.15,501.24 318.15,510 279.79,510" fill="#80c0ff" stroke="none" stroke-width="0"/>
<polygon points="356.51,510 356.51,494.4 359.25,494.4 359.25,477.99 361.99,477.99 361.99,464.76 364.73,464.76 364.73,453.85 367.47,453.85 367.47,444.51 370.21,444.51 370.21,436.1 372.95,436.1 372.95,428.13 375.68,428.13 375.68,420.17 378.42,420.17 378.42,411.81 381.16,411.81 381.16,402.64 383.9,402.64 383.9,392.18 386.64,392.18 386.64,379.94 389.38,379.94 389.38,365.46 392.12,365.46 392.12,348.45 394.86,348.45 394.86,329.05 397.6,329.05 397.6,307.78 400.34,307.78 400.34,285.42 403.08,285.42 403.08,262.62 405.82,262.62 405.82,239.7 408.56,239.7 408.56,216.64 411.3,216.64 411.3,193.14 414.04,193.14 414.04,168.79 416.78,168.79 416.78,143.27 419.52,143.27 419.52,116.64 422.26,116.64 422.26,89.71 425,89.71 425,64.1 427.74,64.1 427.74,41.53 430.48,41.53 430.48,22.87 433.22,22.87 433.22,10 479.79,10 479.79,12.28 477.05,12.28 477.05,23.66 474.32,23.66 474.32,36.73 471.58,36.73 471.58,51.92 468.84,51.92 468.84,69.35 466.1,69.35 466.1,88.69 463.36,88.69 463.36,109.2 460.62,109.2 460.62,130.05 457.88,130.05 457.88,150.65 455.14,150.65 455.14,170.73 452.4,170.73 452.4,190.34 449.66,190.34 449.66,209.74 446.92,209.74 446.92,229.32 444.18,229.32 444.18,249.5 441.44,249.5 441.44,270.72 438.7,270.72 438.7,293.26 435.96,293.26 435.96,317.07 433.22,317.07 433.22,341.43 430.48,341.43 430.48,364.9 427.74,364.9 427.74,385.95 425,385.95 425,403.73 422.26,403.73 422.26,418.43 419.52,418.43 419.52,430.76 416.78,430.76 416.78,441.53 414.04,441.53 414.04,451.48 411.3,451.48 411.3,461.23 408.56,461.23 408.56,471.37 405.82,471.37 405.82,482.43 403.08,482.43 403.08,494.97 400.34,494.97 400.34,509.45 397.6,509.45 397.6,510 359.25,510" fill="#80c0ff" stroke="none" stroke-width="0"/>
<polygon points="435.96,510 435.96,507.89 438.7,507.89 438.7,495.76 441.44,495.76 441.44,485.62 444.18,485.62 444.18,476.73 446.92,476.73 446.92,468.53 449.66,468.53 449.66,460.53 452.4,460.53 452.4,452.29 455.14,452.29 455.14,443.4 457.88,443.4 457.88,433.38 460.62,433.38 460.62,421.7 463.36,421.7 463.36,407.87 466.1,407.87 466.1,391.52 468.84,391.52 468.84,372.61 471.58,372.61 471.58,351.63 474.32,351.63 474.32,329.39 477.05,329.39 477.05,306.68 479.79,306.68 479.79,283.99 482.53,283.99 482.53,261.4 485.27,261.4 485.27,238.68 488.01,238.68 488.01,215.45 490.75,215.45 490.75,191.29 493.49,191.29 493.49,165.97 496.23,165.97 496.23,139.81 498.97,139.81 498.97,113.9 501.71,113.9 501.71,89.94 504.45,89.94 504.45,69.35 507.19,69.35 507.19,52.51 509.93,52.51 509.93,38.92 512.67,38.92 512.67,27.74 515.41,27.74 515.41,18.18 518.15,18.18 518.15,10 564.73,10 564.73,13.75 561.99,13.75 561.99,23.44 559.25,23.44 559.25,32.89 556.51,32.89 556.51,42.65 553.77,42.65 553.77,53.26 551.03,53.26 551.03,65.27 548.29,65.27 548.29,79.18 545.55,79.18 545.55,95.31 542.81,95.31 542.81,113.59 540.07,113.59 540.07,133.51 537.33,133.51 537.33,154.24 534.59,154.24 534.59,175.04 531.85,175.04 531.85,195.45 529.11,195.45 529.11,215.4 526.37,215.4 526.37,235.04 523.63,235.04 523.63,254.72 520.89,254.72 520.89,274.85 518.15,274.85 518.15,295.88 515.41,295.88 515.41,318.18 512.67,318.18 512.67,341.86 509.93,341.86 509.93,366.48 507.19,366.48 507.19,390.83 504.45,390.83 504.45,413.26 501.71,413.26 501.71,432.55 498.97,432.55 498.97,448.5 496.23,448.5 496.23,461.68 493.49,461.68 493.49,472.9 490.75,472.9 490.75,482.94 488.01,482.94 488.01,492.47 485.27,492.47 485.27,502.07 482.53,502.07 482.53,510 438.7,510" fill="#80c0ff" stroke="none" stroke-width="0"/>
<polygon points="520.89,510 520.89,509.57 523.63,509.57 523.63,501.4 526.37,501.4 526.37,493.2 529.11,493.2 529.11,484.54 531.85,484.54 531.85,474.94 534.59,474.94 534.59,463.91 537.33,463.91 537.33,450.88 540.07,450.88 540.07,435.37 542.81,435.37 542.81,417.19 545.55,417.19 545.55,396.59 548.29,396.59 548.29,374.34 551.03,374.34 551.03,351.33 553.77,351.33 553.77,328.26 556.51,328.26 556.51,305.41 559.25,305.41 559.25,282.69 561.99,282.69 561.99,259.79 564.73,259.79 564.73,236.3 567.47,236.3 567.47,211.93 570.21,211.93 570.21,186.73 572.95,186.73 572.95,161.34 575.68,161.34 575.68,137.12 578.42,137.12 578.42,115.52 581.16,115.52 581.16,97.35 583.9,97.35 583.9,82.52 586.64,82.52 586.64,70.36 589.38,70.36 589.38,60.08 592.12,60.08 592.12,51.02 594.86,51.02 594.86,42.6 597.6,42.6 597.6,34.37 600.34,34.37 600.34,25.87 603.08,25.87 603.08,16.66 605.82,16.66 605.82,10 646.92,10 646.92,18.9 644.18,18.9 644.18,32.44 641.44,32.44 641.44,44.01 638.7,44.01 638.7,54.33 635.96,54.33 635.96,64.04 633.22,64.04 633.22,73.73 630.48,73.73 630.48,83.93 627.74,83.93 627.74,95.19 625,95.19 625,108.04 622.26,108.04 622.26,122.9 619.52,122.9 619.52,139.95 616.78,139.95 616.78,158.92 614.04,158.92 614.04,179.17 611.3,179.17 611.3,199.91 608.56,199.91 608.56,220.55 605.82,220.55 605.82,240.83 603.08,240.83 603.08,260.78 600.34,260.78 600.34,280.64 597.6,280.64 597.6,300.76 594.86,300.76 594.86,321.55 592.12,321.55 592.12,343.4 589.38,343.4 589.38,366.52 586.64,366.52 586.64,390.73 583.9,390.73 583.9,415.2 581.16,415.2 581.16,438.51 578.42,438.51 578.42,459.22 575.68,459.22 575.68,476.68 572.95,476.68 572.95,491.1 570.21,491.1 570.21,503.2 567.47,503.2 567.47,510 523.63,510" fill="#80c0ff" stroke="none" stroke-width="0"/>
<polygon points="608.56,510 608.56,506.25 611.3,506.25 611.3,494.1 614.04,494.1 614.04,479.69 616.78,479.69 616.78,462.63 619.52,462.63 619.52,442.93 622.26,442.93 622.26,421.1 625,421.1 625,398 627.74,398 627.74,374.48 630.48,374.48 630.48,351.02 633.22,351.02 633.22,327.74 635.96,327.74 635.96,304.43 638.7,304.43 638.7,280.77 641.44,280.77 641.44,256.49 644.18,256.49 644.18,231.53 646.92,231.53 646.92,206.38 649.66,206.38 649.66,182.09 652.4,182.09 652.4,160.02 655.14,160.02 655.14,141.1 657.88,141.1 657.88,125.45 660.62,125.45 660.62,112.58 663.36,112.58 663.36,101.76 666.1,101.76 666.1,92.33 668.84,92.33 668.84,83.71 671.58,83.71 671.58,75.42 674.32,75.42 674.32,67.03 677.05,67.03 677.05,58.13 679.79,58.13 679.79,48.25 682.53,48.25 682.53,36.91 685.27,36.91 685.27,23.58 688.01,23.58 688.01,10 726.37,10 726.37,26.85 723.63,26.85 723.63,45.31 720.89,45.31 720.89,60.87 718.15,60.87 718.15,73.99 715.41,73.99 715.41,85.37 712.67,85.37 712.67,95.7 709.93,95.7 709.93,105.61 707.19,105.61 707.19,115.65 704.45,115.65 704.45,126.38 701.71,126.38 701.71,138.32 698.97,138.32 698.97,151.96 696.23,151.96 696.23,167.63 693.49,167.63 693.49,185.33 690.75,185.33 690.75,204.69 688.01,204.69 688.01,225.03 685.27,225.03 685.27,245.69 682.53,245.69 682.53,266.21 679.79,266.21 679.79,286.44 677.05,286.44 677.05,306.47 674.32,306.47 674.32,326.55 671.58,326.55 671.58,347.01 668.84,347.01 668.84,368.22 666.1,368.22 666.1,390.46 663.36,390.46 663.36,413.77 660.62,413.77 660.62,437.76 657.88,437.76 657.88,461.44 655.14,461.44 655.14,483.44 652.4,483.44 652.4,502.7 649.66,502.7 649.66,510 611.3,510" fill="#80c0ff" stroke="none" stroke-width="0"/>
<polygon points="690.75,510 690.75,507.82 693.49,507.82 693.49,489.45 696.23,489.45 696.23,468.71 698.97,468.71 698.97,446.24 701.71,446.24 701.71,422.85 704.45,422.85 704.45,399.16 707.19,399.16 707.19,375.41 709.93,375.41 709.93,351.57 712.67,351.57 712.67,327.38 715.41,327.38 715.41,302.59 718.15,302.59 718.15,277.13 720.89,277.13 720.89,251.41 723.63,251.41 723.63,226.43 726.37,226.43 726.37,203.54 729.11,203.54 729.11,183.79 731.85,183.79 731.85,167.41 734.59,167.41 734.59,153.97 737.33,153.97 737.33,142.76 740.07,142.76 740.07,133.07 742.81,133.07 742.81,124.32 745.55,124.32 745.55,116.02 748.29,116.02 748.29,107.74 751.03,107.74 751.03,99.07 753.77,99.07 753.77,89.6 756.51,89.6 756.51,78.87 759.25,78.87 759.25,66.41 761.99,66.41 761.99,51.78 764.73,51.78 764.73,34.72 767.47,34.72 767.47,15.31 770.21,15.31 770.21,10 805.82,10 805.82,27.08 803.08,27.08 803.08,50.11 800.34,50.11 800.34,71.02 797.6,71.02 797.6,89.02 794.86,89.02 794.86,104.09 792.12,104.09 792.12,116.83 789.38,116.83 789.38,127.97 786.64,127.97 786.64,138.22 783.9,138.22 783.9,148.2 781.16,148.2 781.16,158.47 778.42,158.47 778.42,169.57 775.68,169.57 775.68,182 772.95,182 772.95,196.19 770.21,196.19 770.21,212.39 767.47,212.39 767.47,230.5 764.73,230.5 764.73,250.07 761.99,250.07 761.99,270.47 759.25,270.47 759.25,291.07 756.51,291.07 756.51,311.51 753.77,311.51 753.77,331.68 751.03,331.68 751.03,351.7 748.29,351.7 748.29,371.81 745.55,371.81 745.55,392.33 742.81,392.33 742.81,413.59 740.07,413.59 740.07,435.82 737.33,435.82 737.33,458.99 734.59,458.99 734.59,482.61 731.85,482.61 731.85,505.65 729.11,505.65 729.11,510 693.49,510" fill="#80c0ff" stroke="none" stroke-width="0"/>
<polygon points="772.95,510 772.95,494.01 775.68,494.01 775.68,471.49 778.42,471.49 778.42,448.35 781.16,448.35 781.16,424.91 783.9,424.91 783.9,401.18 786.64,401.18 786.64,376.96 789.38,376.96 789.38,351.94 792.12,351.94 792.12,325.98 794.86,325.98 794.86,299.35 797.6,299.35 797.6,273.01 800.34,273.01 800.34,248.48 803.08,248.48 803.08,227.13 805.82,227.13 805.82,209.48 808.56,209.48 808.56,195.15 811.3,195.15 811.3,183.37 814.04,183.37 814.04,173.36 816.78,173.36 816.78,164.46 819.52,164.46 819.52,156.14 822.26,156.14 822.26,147.96 825,147.96 825,139.49 827.74,139.49 827.74,130.34 830.48,130.34 830.48,120.07 833.22,120.07 833.22,108.23 835.96,108.23 835.96,94.4 838.7,94.4 838.7,78.29 841.44,78.29 841.44,59.93 844.18,59.93 844.18,39.69 846.92,39.69 846.92,18.18 849.66,18.18 849.66,10 888.01,10 888.01,22.72 885.27,22.72 885.27,45.86 882.53,45.86 882.53,70.14 879.79,70.14 879.79,94.65 877.05,94.65 877.05,117.84 874.32,117.84 874.32,138.27 871.58,138.27 871.58,155.36 868.84,155.36 868.84,169.49 866.1,169.49 866.1,181.44 863.36,181.44 863.36,192.02 860.62,192.02 860.62,181.08 857.88,181.08 857.88,190.9 855.14,190.9 855.14,201.18 852.4,201.18 852.4,212.44 849.66,212.44 849.66,225.17 846.92,225.17 846.92,239.77 844.18,239.77 844.18,256.39 841.44,256.39 841.44,274.88 838.7,274.88 838.7,294.7 835.96,294.7 835.96,315.18 833.22,315.18 833.22,335.73 830.48,335.73 830.48,356.04 827.74,356.04 827.74,376.04 825,376.04 825,395.89 822.26,395.89 822.26,415.87 819.52,415.87 819.52,436.32 816.78,436.32 816.78,457.61 814.04,457.61 814.04,479.96 811.3,479.96 811.3,503.31 808.56,503.31 808.56,510 775.68,510" fill="#80c0ff" stroke="none" stroke-width="0"/>
<polygon points="852.4,510 852.4,495.99 855.14,495.99 855.14,473.45 857.88,473.45 857.88,450.62 860.62,450.62 860.62,448.11 863.36,448.11 863.36,423.89 866.1,423.89 866.1,398.46 868.84,398.46 868.84,371.78 871.58,371.78 871.58,344.47 874.32,344.47 874.32,318.01 877.05,318.01 877.05,294.26 879.79,294.26 879.79,274.4 882.53,274.4 882.53,258.4 885.27,258.4 885.27,245.5 888.01,245.5 888.01,234.8 890.75,234.8 890.75,225.51 893.49,225.51 893.49,217.03 896.23,217.03 896.23,208.84 898.97,208.84 898.97,200.51 901.71,200.51 901.71,191.63 904.45,191.63 904.45,181.75 907.19,181.75 907.19,170.41 909.93,170.41 909.93,157.17 912.67,157.17 912.67,141.72 915.41,141.72 915.41,124 918.15,124 918.15,104.36 920.89,104.36 920.89,83.42 923.63,83.42 923.63,61.83 926.37,61.83 926.37,40.03 929.11,40.03 929.11,18.12 931.85,18.12 931.85,10 967.47,10 967.47,24.79 964.73,24.79 964.73,46.44 961.99,46.44 961.99,69.54 959.25,69.54 959.25,94.14 956.51,94.14 956.51,119.63 953.77,119.63 953.77,144.48 951.03,144.48 951.03,166.88 948.29,166.88 948.29,185.74 945.55,185.74 945.55,201.12 942.81,201.12 942.81,213.8 940.07,213.8 940.07,224.67 937.33,224.67 937.33,234.49 934.59,234.49 934.59,243.92 931.85,243.92 931.85,253.5 929.11,253.5 929.11,263.76 926.37,263.76 926.37,275.2 923.63,275.2 923.63,288.29 920.89,288.29 920.89,303.38 918.15,303.38 918.15,320.56 915.41,320.56 915.41,339.51 912.67,339.51 912.67,359.61 909.93,359.61 909.93,380.15 907.19,380.15 907.19,400.58 904.45,400.58 904.45,420.67 901.71,420.67 901.71,440.45 898.97,440.45 898.97,460.17 896.23,460.17 896.23,480.18 893.49,480.18 893.49,500.9 890.75,500.9 890.75,510 855.14,510" fill="#80c0ff" stroke="none" stroke-width="0"/>
<polygon points="934.59,510 934.59,495.94 937.33,495.94 937.33,473.11 940.07,473.11 940.07,449.19 942.81,449.19 942.81,423.83 945.55,423.83 945.55,397.13 948.29,397.13 948.29,370.01 951.03,370.01 951.03,344.29 953.77,344.29 953.77,321.81 956.51,321.81 956.51,303.4 959.25,303.4 959.25,288.67 961.99,288.67 961.99,276.72 964.73,276.72 964.73,266.64 967.47,266.64 967.47,257.69 970.21,257.69 970.21,249.29 972.95,249.29 972.95,240.95 975.68,240.95 975.68,232.23 978.42,232.23 978.42,222.69 981.16,222.69 981.16,211.84 983.9,211.84 983.9,199.21 986.64,199.21 986.64,184.39 989.38,184.39 989.38,167.23 992.12,167.23 992.12,147.95 994.86,147.95 994.86,127.16 997.6,127.16 997.6,105.61 1000.34,105.61 1000.34,83.88 1003.08,83.88 1003.08,62.24 1005.82,62.24 1005.82,40.62 1008.56,40.62 1008.56,18.72 1011.3,18.72 1011.3,10 1025,10 1025,214.87 1022.26,214.87 1022.26,231.46 1019.52,231.46 1019.52,244.97 1016.78,244.97 1016.78,256.3 1014.04,256.3 1014.04,266.26 1011.3,266.26 1011.3,275.54 1008.56,275.54 1008.56,284.71 1005.82,284.71 1005.82,294.28 1003.08,294.28 1003.08,304.74 1000.34,304.74 1000.34,316.6 997.6,316.6 997.6,330.3 994.86,330.3 994.86,346.11 992.12,346.11 992.12,363.97 989.38,363.97 989.38,383.4 986.64,383.4 986.64,403.7 983.9,403.7 983.9,424.19 981.16,424.19 981.16,444.47 978.42,444.47 978.42,464.43 975.68,464.43 975.68,484.23 972.95,484.23 972.95,504.21 970.21,504.21 970.21,510 937.33,510" fill="#80c0ff" stroke="none" stroke-width="0"/>
<polygon points="1014.04,510 1014.04,496.12 1016.78,496.12 1016.78,472.38 1019.52,472.38 1019.52,447.29 1022.26,447.29 1022.26,421.16 1025,421.16 1025,510 1016.78,510" fill="#80c0ff" stroke="none" stroke-width="0"/>
<polygon points="25,510 25,371.73 27.74,371.73 27.74,371.66 30.48,371.66 30.48,371.6 33.22,371.6 33.22,371.56 35.96,371.56 35.96,371.52 38.7,371.52 38.7,371.5 41.44,371.5 41.44,371.48 44.18,371.48 44.18,371.48 46.92,371.48 46.92,371.48 49.66,371.48 49.66,371.5 52.4,371.5 52.4,371.53 55.14,371.53 55.14,371.56 57.88,371.56 57.88,371.61 60.62,371.61 60.62,371.67 63.36,371.67 63.36,371.74 66.1,371.74 66.1,371.82 68.84,371.82 68.84,371.91 71.58,371.91 71.58,372.01 74.32,372.01 74.32,372.12 77.05,372.12 77.05,372.23 79.79,372.23 79.79,372.36 82.53,372.36 82.53,372.5 85.27,372.5 85.27,372.65 88.01,372.65 88.01,372.81 90.75,372.81 90.75,372.98 93.49,372.98 93.49,373.16 96.23,373.16 96.23,373.35 98.97,373.35 98.97,373.55 101.71,373.55 101.71,373.76 104.45,373.76 104.45,373.97 107.19,373.97 107.19,374.2 109.93,374.2 109.93,374.43 112.67,374.43 112.67,374.68 115.41,374.68 115.41,374.93 118.15,374.93 118.15,375.19 120.89,375.19 120.89,375.46 123.63,375.46 123.63,375.74 126.37,375.74 126.37,376.03 129.11,376.03 129.11,376.32 131.85,376.32 131.85,376.63 134.59,376.63 134.59,376.94 137.33,376.94 137.33,377.25 140.07,377.25 140.07,377.58 142.81,377.58 142.81,377.91 145.55,377.91 145.55,378.25 148.29,378.25 148.29,378.6 151.03,378.6 151.03,378.95 153.77,378.95 153.77,379.32 156.51,379.32 156.51,379.68 159.25,379.68 159.25,380.06 161.99,380.06 161.99,380.43 164.73,380.43 164.73,380.82 167.47,380.82 167.47,381.21 170.21,381.21 170.21,381.61 172.95,381.61 172.95,382.01 175.68,382.01 175.68,382.41 178.42,382.41 178.42,382.83 181.16,382.83 181.16,383.24 183.9,383.24 183.9,383.66 186.64,383.66 186.64,384.09 189.38,384.09 189.38,384.52 192.12,384.52 192.12,384.96 194.86,384.96 194.86,385.4 197.6,385.4 197.6,385.84 200.34,385.84 200.34,386.29 203.08,386.29 203.08,386.74 205.82,386.74 205.82,387.19 208.56,387.19 208.56,366.81 211.3,366.81 211.3,367.27 214.04,367.27 214.04,367.74 216.78,367.74 216.78,368.2 219.52,368.2 219.52,368.67 222.26,368.67 222.26,369.14 225,369.14 225,369.62 227.74,369.62 227.74,370.09 230.48,370.09 230.48,370.57 233.22,370.57 233.22,371.05 235.96,371.05 235.96,371.53 238.7,371.53 238.7,372.01 241.44,372.01 241.44,372.49 244.18,372.49 244.18,372.97 246.92,372.97 246.92,373.46 249.66,373.46 249.66,373.94 252.4,373.94 252.4,374.43 255.14,374.43 255.14,374.91 257.88,374.91 257.88,375.4 260.62,375.4 260.62,375.88 263.36,375.88 263.36,376.37 266.1,376.37 266.1,376.85 268.84,376.85 268.84,377.34 271.58,377.34 271.58,377.82 274.32,377.82 274.32,378.3 277.05,378.3 277.05,378.79 279.79,378.79 279.79,379.27 282.53,379.27 282.53,379.75 285.27,379.75 285.27,380.22 288.01,380.22 288.01,380.7 290.75,380.7 290.75,381.18 293.49,381.18 293.49,381.65 296.23,381.65 296.23,382.12 298.97,382.12 298.97,382.59 301.71,382.59 301.71,383.05 304.45,383.05 304.45,383.51 307.19,383.51 307.19,383.97 309.93,383.97 309.93,384.43 312.67,384.43 312.67,384.88 315.41,384.88 315.41,385.33 318.15,385.33 318.15,385.78 320.89,385.78 320.89,386.22 323.63,386.22 323.63,386.66 326.37,386.66 326.37,387.09 329.11,387.09 329.11,387.52 331.85,387.52 331.85,387.95 334.59,387.95 334.59,388.37 337.33,388.37 337.33,388.78 340.07,388.78 340.07,389.19 342.81,389.19 342.81,389.6 345.55,389.6 345.55,390 348.29,390 348.29,390.39 351.03,390.39 351.03,390.78 353.77,390.78 353.77,391.16 356.51,391.16 356.51,391.54 359.25,391.54 359.25,391.91 361.99,391.91 361.99,392.27 364.73,392.27 364.73,392.63 367.47,392.63 367.47,392.98 370.21,392.98 370.21,393.32 372.95,393.32 372.95,393.66 375.68,393.66 375.68,393.99 378.42,393.99 378.42,394.31 381.16,394.31 381.16,394.62 383.9,394.62 383.9,394.93 386.64,394.93 386.64,395.23 389.38,395.23 389.38,395.52 392.12,395.52 392.12,395.8 394.86,395.8 394.86,396.07 397.6,396.07 397.6,396.34 400.34,396.34 400.34,396.59 403.08,396.59 403.08,396.84 405.82,396.84 405.82,397.08 408.56,397.08 408.56,397.31 411.3,397.31 411.3,397.53 414.04,397.53 414.04,397.74 416.78,397.74 416.78,397.94 419.52,397.94 419.52,398.13 422.26,398.13 422.26,398.31 425,398.31 425,398.48 427.74,398.48 427.74,398.65 430.48,398.65 430.48,398.8 433.22,398.8 433.22,398.94 435.96,398.94 435.96,399.07 438.7,399.07 438.7,399.2 441.44,399.2 441.44,399.31 444.18,399.31 444.18,399.41 446.92,399.41 446.92,399.51 449.66,399.51 449.66,399.59 452.4,399.59 452.4,399.66 455.14,399.66 455.14,399.72 457.88,399.72 457.88,399.78 460.62,399.78 460.62,399.82 463.36,399.82 463.36,399.85 466.1,399.85 466.1,399.87 468.84,399.87 468.84,399.89 471.58,399.89 471.58,399.89 474.32,399.89 474.32,399.88 477.05,399.88 477.05,399.86 479.79,399.86 479.79,399.84 482.53,399.84 482.53,399.8 485.27,399.8 485.27,399.75 488.01,399.75 488.01,399.69 490.75,399.69 490.75,399.63 493.49,399.63 493.49,399.55 496.23,399.55 496.23,399.47 498.97,399.47 498.97,399.38 501.71,399.38 501.71,399.27 504.45,399.27 504.45,399.16 507.19,399.16 507.19,399.04 509.93,399.04 509.93,398.92 512.67,398.92 512.67,398.78 515.41,398.78 515.41,398.64 518.15,398.64 518.15,398.49 520.89,398.49 520.89,398.33 523.63,398.33 523.63,398.16 526.37,398.16 526.37,397.99 529.11,397.99 529.11,397.81 531.85,397.81 531.85,397.63 534.59,397.63 534.59,397.44 537.33,397.44 537.33,397.24 540.07,397.24 540.07,397.04 542.81,397.04 542.81,396.83 545.55,396.83 545.55,396.61 548.29,396.61 548.29,396.39 551.03,396.39 551.03,396.17 553.77,396.17 553.77,395.94 556.51,395.94 556.51,395.7 559.25,395.7 559.25,395.47 561.99,395.47 561.99,395.22 564.73,395.22 564.73,394.98 567.47,394.98 567.47,394.73 570.21,394.73 570.21,394.47 572.95,394.47 572.95,394.22 575.68,394.22 575.68,393.96 578.42,393.96 578.42,393.69 581.16,393.69 581.16,393.43 583.9,393.43 583.9,393.16 586.64,393.16 586.64,392.89 589.38,392.89 589.38,392.62 592.12,392.62 592.12,392.35 594.86,392.35 594.86,392.07 597.6,392.07 597.6,391.79 600.34,391.79 600.34,391.52 603.08,391.52 603.08,391.24 605.82,391.24 605.82,390.96 608.56,390.96 608.56,390.68 611.3,390.68 611.3,390.4 614.04,390.4 614.04,390.12 616.78,390.12 616.78,389.84 619.52,389.84 619.52,389.56 622.26,389.56 622.26,389.28 625,389.28 625,389 627.74,389 627.74,388.72 630.48,388.72 630.48,388.44 633.22,388.44 633.22,388.16 635.96,388.16 635.96,387.88 638.7,387.88 638.7,387.6 641.44,387.6 641.44,387.32 644.18,387.32 644.18,387.05 646.92,387.05 646.92,386.77 649.66,386.77 649.66,386.49 652.4,386.49 652.4,386.22 655.14,386.22 655.14,385.94 657.88,385.94 657.88,385.67 660.62,385.67 660.62,385.39 663.36,385.39 663.36,385.12 666.1,385.12 666.1,384.85 668.84,384.85 668.84,384.58 671.58,384.58 671.58,384.31 674.32,384.31 674.32,384.04 677.05,384.04 677.05,383.78 679.79,383.78 679.79,383.51 682.53,383.51 682.53,383.24 685.27,383.24 685.27,382.98 688.01,382.98 688.01,382.72 690.75,382.72 690.75,382.46 693.49,382.46 693.49,382.2 696.23,382.2 696.23,381.94 698.97,381.94 698.97,381.68 701.71,381.68 701.71,381.42 704.45,381.42 704.45,381.17 707.19,381.17 707.19,380.91 709.93,380.91 709.93,380.66 712.67,380.66 712.67,380.4 715.41,380.4 715.41,380.15 718.15,380.15 718.15,379.89 720.89,379.89 720.89,379.64 723.63,379.64 723.63,379.39 726.37,379.39 726.37,379.14 729.11,379.14 729.11,378.89 731.85,378.89 731.85,378.63 734.59,378.63 734.59,378.38 737.33,378.38 737.33,378.13 740.07,378.13 740.07,377.88 742.81,377.88 742.81,377.63 745.55,377.63 745.55,377.38 748.29,377.38 748.29,377.12 751.03,377.12 751.03,376.87 753.77,376.87 753.77,376.62 756.51,376.62 756.51,376.37 759.25,376.37 759.25,376.11 761.99,376.11 761.99,375.86 764.73,375.86 764.73,375.61 767.47,375.61 767.47,375.35 770.21,375.35 770.21,375.1 772.95,375.1 772.95,374.84 775.68,374.84 775.68,374.59 778.42,374.59 778.42,374.33 781.16,374.33 781.16,374.07 783.9,374.07 783.9,373.81 786.64,373.81 786.64,373.55 789.38,373.55 789.38,373.29 792.12,373.29 792.12,373.03 794.86,373.03 794.86,372.77 797.6,372.77 797.6,372.5 800.34,372.5 800.34,372.24 803.08,372.24 803.08,371.97 805.82,371.97 805.82,371.7 808.56,371.7 808.56,371.43 811.3,371.43 811.3,371.16 814.04,371.16 814.04,370.88 816.78,370.88 816.78,370.61 819.52,370.61 819.52,370.33 822.26,370.33 822.26,370.05 825,370.05 825,369.77 827.74,369.77 827.74,369.48 830.48,369.48 830.48,369.2 833.22,369.2 833.22,368.91 835.96,368.91 835.96,368.62 838.7,368.62 838.7,368.33 841.44,368.33 841.44,368.04 844.18,368.04 844.18,367.75 846.92,367.75 846.92,367.46 849.66,367.46 849.66,367.16 852.4,367.16 852.4,366.86 855.14,366.86 855.14,366.56 857.88,366.56 857.88,366.26 860.62,366.26 860.62,386.8 863.36,386.8 863.36,386.49 866.1,386.49 866.1,386.19 868.84,386.19 868.84,385.88 871.58,385.88 871.58,385.58 874.32,385.58 874.32,385.27 877.05,385.27 877.05,384.96 879.79,384.96 879.79,384.65 882.53,384.65 882.53,384.34 885.27,384.34 885.27,384.03 888.01,384.03 888.01,383.72 890.75,383.72 890.75,383.4 893.49,383.4 893.49,383.09 896.23,383.09 896.23,382.78 898.97,382.78 898.97,382.46 901.71,382.46 901.71,382.15 904.45,382.15 904.45,381.84 907.19,381.84 907.19,381.52 909.93,381.52 909.93,381.21 912.67,381.21 912.67,380.9 915.41,380.9 915.41,380.59 918.15,380.59 918.15,380.28 920.89,380.28 920.89,379.97 923.63,379.97 923.63,379.67 926.37,379.67 926.37,379.37 929.11,379.37 929.11,379.06 931.85,379.06 931.85,378.77 934.59,378.77 934.59,378.47 937.33,378.47 937.33,378.18 940.07,378.18 940.07,377.89 942.81,377.89 942.81,377.6 945.55,377.6 945.55,377.32 948.29,377.32 948.29,377.04 951.03,377.04 951.03,376.77 953.77,376.77 953.77,376.49 956.51,376.49 956.51,376.23 959.25,376.23 959.25,375.97 961.99,375.97 961.99,375.71 964.73,375.71 964.73,375.46 967.47,375.46 967.47,375.21 970.21,375.21 970.21,374.97 972.95,374.97 972.95,374.74 975.68,374.74 975.68,374.51 978.42,374.51 978.42,374.29 981.16,374.29 981.16,374.08 983.9,374.08 983.9,373.87 986.64,373.87 986.64,373.67 989.38,373.67 989.38,373.48 992.12,373.48 992.12,373.29 994.86,373.29 994.86,373.11 997.6,373.11 997.6,372.94 1000.34,372.94 1000.34,372.78 1003.08,372.78 1003.08,372.63 1005.82,372.63 1005.82,372.49 1008.56,372.49 1008.56,372.35 1011.3,372.35 1011.3,372.23 1014.04,372.23 1014.04,372.11 1016.78,372.11 1016.78,372.01 1019.52,372.01 1019.52,371.91 1022.26,371.91 1022.26,371.82 1025,371.82 1025,510 27.74,510" fill="rgba(0, 0, 0, 0.5)" stroke="none" stroke-width="0"/>
<polygon points="25,145.99 25,10 1025,10 1025,146.3 1022.26,146.3 1022.26,146.55 1019.52,146.55 1019.52,146.79 1016.78,146.79 1016.78,147.02 1014.04,147.02 1014.04,147.25 1011.3,147.25 1011.3,147.47 1008.56,147.47 1008.56,147.68 1005.82,147.68 1005.82,147.88 1003.08,147.88 1003.08,148.08 1000.34,148.08 1000.34,148.27 997.6,148.27 997.6,148.45 994.86,148.45 994.86,148.62 992.12,148.62 992.12,148.79 989.38,148.79 989.38,148.94 986.64,148.94 986.64,149.09 983.9,149.09 983.9,149.22 981.16,149.22 981.16,149.35 978.42,149.35 978.42,149.47 975.68,149.47 975.68,149.58 972.95,149.58 972.95,149.68 970.21,149.68 970.21,149.76 967.47,149.76 967.47,149.84 964.73,149.84 964.73,149.91 961.99,149.91 961.99,149.97 959.25,149.97 959.25,150.01 956.51,150.01 956.51,150.05 953.77,150.05 953.77,150.08 951.03,150.08 951.03,150.09 948.29,150.09 948.29,150.1 945.55,150.1 945.55,150.09 942.81,150.09 942.81,150.08 940.07,150.08 940.07,150.05 937.33,150.05 937.33,150.01 934.59,150.01 934.59,149.96 931.85,149.96 931.85,149.91 929.11,149.91 929.11,149.84 926.37,149.84 926.37,149.76 923.63,149.76 923.63,149.67 920.89,149.67 920.89,149.57 918.15,149.57 918.15,149.46 915.41,149.46 915.41,149.34 912.67,149.34 912.67,149.21 909.93,149.21 909.93,149.06 907.19,149.06 907.19,148.91 904.45,148.91 904.45,148.75 901.71,148.75 901.71,148.58 898.97,148.58 898.97,148.4 896.23,148.4 896.23,148.21 893.49,148.21 893.49,148.01 890.75,148.01 890.75,147.79 888.01,147.79 888.01,147.57 885.27,147.57 885.27,147.34 882.53,147.34 882.53,147.1 879.79,147.1 879.79,146.86 877.05,146.86 877.05,146.6 874.32,146.6 874.32,146.33 871.58,146.33 871.58,146.06 868.84,146.06 868.84,145.77 866.1,145.77 866.1,145.48 863.36,145.48 863.36,145.18 860.62,145.18 860.62,124.04 857.88,124.04 857.88,123.73 855.14,123.73 855.14,123.4 852.4,123.4 852.4,123.07 849.66,123.07 849.66,122.73 846.92,122.73 846.92,122.39 844.18,122.39 844.18,122.04 841.44,122.04 841.44,121.68 838.7,121.68 838.7,121.31 835.96,121.31 835.96,120.94 833.22,120.94 833.22,120.56 830.48,120.56 830.48,120.17 827.74,120.17 827.74,119.78 825,119.78 825,119.38 822.26,119.38 822.26,118.98 819.52,118.98 819.52,118.57 816.78,118.57 816.78,118.16 814.04,118.16 814.04,117.74 811.3,117.74 811.3,117.31 808.56,117.31 808.56,116.89 805.82,116.89 805.82,116.45 803.08,116.45 803.08,116.01 800.34,116.01 800.34,115.57 797.6,115.57 797.6,115.12 794.86,115.12 794.86,114.67 792.12,114.67 792.12,114.21 789.38,114.21 789.38,113.75 786.64,113.75 786.64,113.29 783.9,113.29 783.9,112.82 781.16,112.82 781.16,112.35 778.42,112.35 778.42,111.88 775.68,111.88 775.68,111.4 772.95,111.4 772.95,110.93 770.21,110.93 770.21,110.45 767.47,110.45 767.47,109.96 764.73,109.96 764.73,109.48 761.99,109.48 761.99,108.99 759.25,108.99 759.25,108.5 756.51,108.5 756.51,108.01 753.77,108.01 753.77,107.52 751.03,107.52 751.03,107.02 748.29,107.02 748.29,106.53 745.55,106.53 745.55,106.03 742.81,106.03 742.81,105.54 740.07,105.54 740.07,105.04 737.33,105.04 737.33,104.54 734.59,104.54 734.59,104.04 731.85,104.04 731.85,103.54 729.11,103.54 729.11,103.04 726.37,103.04 726.37,102.54 723.63,102.54 723.63,102.05 720.89,102.05 720.89,101.55 718.15,101.55 718.15,101.05 715.41,101.05 715.41,100.55 712.67,100.55 712.67,100.05 709.93,100.05 709.93,99.56 707.19,99.56 707.19,99.07 704.45,99.07 704.45,98.57 701.71,98.57 701.71,98.08 698.97,98.08 698.97,97.59 696.23,97.59 696.23,97.11 693.49,97.11 693.49,96.62 690.75,96.62 690.75,96.14 688.01,96.14 688.01,95.66 685.27,95.66 685.27,95.18 682.53,95.18 682.53,94.71 679.79,94.71 679.79,94.23 677.05,94.23 677.05,93.77 674.32,93.77 674.32,93.3 671.58,93.3 671.58,92.84 668.84,92.84 668.84,92.38 666.1,92.38 666.1,91.93 663.36,91.93 663.36,91.48 660.62,91.48 660.62,91.03 657.88,91.03 657.88,90.59 655.14,90.59 655.14,90.15 652.4,90.15 652.4,89.72 649.66,89.72 649.66,89.29 646.92,89.29 646.92,88.87 644.18,88.87 644.18,88.45 641.44,88.45 641.44,88.04 638.7,88.04 638.7,87.63 635.96,87.63 635.96,87.23 633.22,87.23 633.22,86.84 630.48,86.84 630.48,86.45 627.74,86.45 627.74,86.07 625,86.07 625,85.69 622.26,85.69 622.26,85.32 619.52,85.32 619.52,84.96 616.78,84.96 616.78,84.6 614.04,84.6 614.04,84.25 611.3,84.25 611.3,83.91 608.56,83.91 608.56,83.58 605.82,83.58 605.82,83.25 603.08,83.25 603.08,82.94 600.34,82.94 600.34,82.63 597.6,82.63 597.6,82.32 594.86,82.32 594.86,82.03 592.12,82.03 592.12,81.75 589.38,81.75 589.38,81.47 586.64,81.47 586.64,81.2 583.9,81.2 583.9,80.94 581.16,80.94 581.16,80.69 578.42,80.69 578.42,80.45 575.68,80.45 575.68,80.22 572.95,80.22 572.95,80 570.21,80 570.21,79.79 567.47,79.79 567.47,79.58 564.73,79.58 564.73,79.39 561.99,79.39 561.99,79.21 559.25,79.21 559.25,79.03 556.51,79.03 556.51,78.87 553.77,78.87 553.77,78.71 551.03,78.71 551.03,78.57 548.29,78.57 548.29,78.44 545.55,78.44 545.55,78.31 542.81,78.31 542.81,78.2 540.07,78.2 540.07,78.1 537.33,78.1 537.33,78 534.59,78 534.59,77.92 531.85,77.92 531.85,77.85 529.11,77.85 529.11,77.79 526.37,77.79 526.37,77.74 523.63,77.74 523.63,77.7 520.89,77.7 520.89,77.67 518.15,77.67 518.15,77.65 515.41,77.65 515.41,77.64 512.67,77.64 512.67,77.64 509.93,77.64 509.93,77.65 507.19,77.65 507.19,77.68 504.45,77.68 504.45,77.71 501.71,77.71 501.71,77.75 498.97,77.75 498.97,77.8 496.23,77.8 496.23,77.86 493.49,77.86 493.49,77.93 490.75,77.93 490.75,78.01 488.01,78.01 488.01,78.1 485.27,78.1 485.27,78.2 482.53,78.2 482.53,78.31 479.79,78.31 479.79,78.43 477.05,78.43 477.05,78.55 474.32,78.55 474.32,78.68 471.58,78.68 471.58,78.83 468.84,78.83 468.84,78.98 466.1,78.98 466.1,79.13 463.36,79.13 463.36,79.3 460.62,79.3 460.62,79.47 457.88,79.47 457.88,79.65 455.14,79.65 455.14,79.84 452.4,79.84 452.4,80.04 449.66,80.04 449.66,80.24 446.92,80.24 446.92,80.44 444.18,80.44 444.18,80.66 441.44,80.66 441.44,80.88 438.7,80.88 438.7,81.11 435.96,81.11 435.96,81.34 433.22,81.34 433.22,81.57 430.48,81.57 430.48,81.82 427.74,81.82 427.74,82.06 425,82.06 425,82.32 422.26,82.32 422.26,82.57 419.52,82.57 419.52,82.83 416.78,82.83 416.78,83.1 414.04,83.1 414.04,83.36 411.3,83.36 411.3,83.64 408.56,83.64 408.56,83.91 405.82,83.91 405.82,84.19 403.08,84.19 403.08,84.47 400.34,84.47 400.34,84.75 397.6,84.75 397.6,85.03 394.86,85.03 394.86,85.32 392.12,85.32 392.12,85.61 389.38,85.61 389.38,85.9 386.64,85.9 386.64,86.19 383.9,86.19 383.9,86.48 381.16,86.48 381.16,86.78 378.42,86.78 378.42,87.07 375.68,87.07 375.68,87.37 372.95,87.37 372.95,87.66 370.21,87.66 370.21,87.96 367.47,87.96 367.47,88.26 364.73,88.26 364.73,88.56 361.99,88.56 361.99,88.86 359.25,88.86 359.25,89.16 356.51,89.16 356.51,89.46 353.77,89.46 353.77,89.76 351.03,89.76 351.03,90.06 348.29,90.06 348.29,90.36 345.55,90.36 345.55,90.66 342.81,90.66 342.81,90.96 340.07,90.96 340.07,91.26 337.33,91.26 337.33,91.55 334.59,91.55 334.59,91.85 331.85,91.85 331.85,92.15 329.11,92.15 329.11,92.44 326.37,92.44 326.37,92.74 323.63,92.74 323.63,93.03 320.89,93.03 320.89,93.32 318.15,93.32 318.15,93.62 315.41,93.62 315.41,93.91 312.67,93.91 312.67,94.2 309.93,94.2 309.93,94.49 307.19,94.49 307.19,94.77 304.45,94.77 304.45,95.06 301.71,95.06 301.71,95.35 298.97,95.35 298.97,95.63 296.23,95.63 296.23,95.92 293.49,95.92 293.49,96.2 290.75,96.2 290.75,96.48 288.01,96.48 288.01,96.77 285.27,96.77 285.27,97.05 282.53,97.05 282.53,97.33 279.79,97.33 279.79,97.61 277.05,97.61 277.05,97.89 274.32,97.89 274.32,98.17 271.58,98.17 271.58,98.45 268.84,98.45 268.84,98.73 266.1,98.73 266.1,99.01 263.36,99.01 263.36,99.28 260.62,99.28 260.62,99.56 257.88,99.56 257.88,99.84 255.14,99.84 255.14,100.12 252.4,100.12 252.4,100.39 249.66,100.39 249.66,100.67 246.92,100.67 246.92,100.95 244.18,100.95 244.18,101.22 241.44,101.22 241.44,101.5 238.7,101.5 238.7,101.78 235.96,101.78 235.96,102.05 233.22,102.05 233.22,102.33 230.48,102.33 230.48,102.61 227.74,102.61 227.74,102.88 225,102.88 225,103.16 222.26,103.16 222.26,103.44 219.52,103.44 219.52,103.72 216.78,103.72 216.78,104 214.04,104 214.04,104.28 211.3,104.28 211.3,104.56 208.56,104.56 208.56,125.67 205.82,125.67 205.82,125.96 203.08,125.96 203.08,126.24 200.34,126.24 200.34,126.53 197.6,126.53 197.6,126.81 194.86,126.81 194.86,127.1 192.12,127.1 192.12,127.39 189.38,127.39 189.38,127.68 186.64,127.68 186.64,127.98 183.9,127.98 183.9,128.27 181.16,128.27 181.16,128.56 178.42,128.56 178.42,128.86 175.68,128.86 175.68,129.16 172.95,129.16 172.95,129.46 170.21,129.46 170.21,129.76 167.47,129.76 167.47,130.06 164.73,130.06 164.73,130.36 161.99,130.36 161.99,130.67 159.25,130.67 159.25,130.97 156.51,130.97 156.51,131.28 153.77,131.28 153.77,131.59 151.03,131.59 151.03,131.9 148.29,131.9 148.29,132.21 145.55,132.21 145.55,132.53 142.81,132.53 142.81,132.84 140.07,132.84 140.07,133.16 137.33,133.16 137.33,133.47 134.59,133.47 134.59,133.79 131.85,133.79 131.85,134.11 129.11,134.11 129.11,134.43 126.37,134.43 126.37,134.76 123.63,134.76 123.63,135.08 120.89,135.08 120.89,135.41 118.15,135.41 118.15,135.73 115.41,135.73 115.41,136.06 112.67,136.06 112.67,136.39 109.93,136.39 109.93,136.72 107.19,136.72 107.19,137.04 104.45,137.04 104.45,137.37 101.71,137.37 101.71,137.7 98.97,137.7 98.97,138.03 96.23,138.03 96.23,138.36 93.49,138.36 93.49,138.69 90.75,138.69 90.75,139.02 88.01,139.02 88.01,139.35 85.27,139.35 85.27,139.68 82.53,139.68 82.53,140 79.79,140 79.79,140.33 77.05,140.33 77.05,140.65 74.32,140.65 74.32,140.97 71.58,140.97 71.58,141.29 68.84,141.29 68.84,141.61 66.1,141.61 66.1,141.92 63.36,141.92 63.36,142.24 60.62,142.24 60.62,142.55 57.88,142.55 57.88,142.86 55.14,142.86 55.14,143.16 52.4,143.16 52.4,143.46 49.66,143.46 49.66,143.76 46.92,143.76 46.92,144.05 44.18,144.05 44.18,144.34 41.44,144.34 41.44,144.63 38.7,144.63 38.7,144.91 35.96,144.91 35.96,145.19 33.22,145.19 33.22,145.46 30.48,145.46 30.48,145.73 27.74,145.73 27.74,145.99" fill="rgba(0, 0, 0, 0.5)" stroke="none" stroke-width="0"/>
<polygon points="25,371.73 25,362.07 27.74,362.07 27.74,362.02 30.48,362.02 30.48,361.97 33.22,361.97 33.22,361.93 35.96,361.93 35.96,361.91 38.7,361.91 38.7,361.9 41.44,361.9 41.44,361.89 44.18,361.89 44.18,361.9 46.92,361.9 46.92,361.92 49.66,361.92 49.66,361.95 52.4,361.95 52.4,361.99 55.14,361.99 55.14,362.05 57.88,362.05 57.88,362.11 60.62,362.11 60.62,362.19 63.36,362.19 63.36,362.27 66.1,362.27 66.1,362.37 68.84,362.37 68.84,362.47 71.58,362.47 71.58,362.59 74.32,362.59 74.32,362.72 77.05,362.72 77.05,362.85 79.79,362.85 79.79,363 82.53,363 82.53,363.16 85.27,363.16 85.27,363.33 88.01,363.33 88.01,363.51 90.75,363.51 90.75,363.7 93.49,363.7 93.49,363.89 96.23,363.89 96.23,364.1 98.97,364.1 98.97,364.32 101.71,364.32 101.71,364.54 104.45,364.54 104.45,364.78 107.19,364.78 107.19,365.02 109.93,365.02 109.93,365.28 112.67,365.28 112.67,365.54 115.41,365.54 115.41,365.81 118.15,365.81 118.15,366.09 120.89,366.09 120.89,366.38 123.63,366.38 123.63,366.68 126.37,366.68 126.37,366.98 129.11,366.98 129.11,367.29 131.85,367.29 131.85,367.61 134.59,367.61 134.59,367.94 137.33,367.94 137.33,368.28 140.07,368.28 140.07,368.62 142.81,368.62 142.81,368.97 145.55,368.97 145.55,369.32 148.29,369.32 148.29,369.69 151.03,369.69 151.03,370.05 153.77,370.05 153.77,370.43 156.51,370.43 156.51,370.81 159.25,370.81 159.25,371.2 161.99,371.2 161.99,371.59 164.73,371.59 164.73,371.99 167.47,371.99 167.47,372.39 170.21,372.39 170.21,372.8 172.95,372.8 172.95,373.21 175.68,373.21 175.68,373.63 178.42,373.63 178.42,374.05 181.16,374.05 181.16,374.48 183.9,374.48 183.9,374.91 186.64,374.91 186.64,375.34 189.38,375.34 189.38,375.78 192.12,375.78 192.12,376.22 194.86,376.22 194.86,376.67 197.6,376.67 197.6,377.12 200.34,377.12 200.34,377.57 203.08,377.57 203.08,378.02 205.82,378.02 205.82,378.48 208.56,378.48 208.56,387.19 205.82,387.19 205.82,386.74 203.08,386.74 203.08,386.29 200.34,386.29 200.34,385.84 197.6,385.84 197.6,385.4 194.86,385.4 194.86,384.96 192.12,384.96 192.12,384.52 189.38,384.52 189.38,384.09 186.64,384.09 186.64,383.66 183.9,383.66 183.9,383.24 181.16,383.24 181.16,382.83 178.42,382.83 178.42,382.41 175.68,382.41 175.68,382.01 172.95,382.01 172.95,381.61 170.21,381.61 170.21,381.21 167.47,381.21 167.47,380.82 164.73,380.82 164.73,380.43 161.99,380.43 161.99,380.06 159.25,380.06 159.25,379.68 156.51,379.68 156.51,379.32 153.77,379.32 153.77,378.95 151.03,378.95 151.03,378.6 148.29,378.6 148.29,378.25 145.55,378.25 145.55,377.91 142.81,377.91 142.81,377.58 140.07,377.58 140.07,377.25 137.33,377.25 137.33,376.94 134.59,376.94 134.59,376.63 131.85,376.63 131.85,376.32 129.11,376.32 129.11,376.03 126.37,376.03 126.37,375.74 123.63,375.74 123.63,375.46 120.89,375.46 120.89,375.19 118.15,375.19 118.15,374.93 115.41,374.93 115.41,374.68 112.67,374.68 112.67,374.43 109.93,374.43 109.93,374.2 107.19,374.2 107.19,373.97 104.45,373.97 104.45,373.76 101.71,373.76 101.71,373.55 98.97,373.55 98.97,373.35 96.23,373.35 96.23,373.16 93.49,373.16 93.49,372.98 90.75,372.98 90.75,372.81 88.01,372.81 88.01,372.65 85.27,372.65 85.27,372.5 82.53,372.5 82.53,372.36 79.79,372.36 79.79,372.23 77.05,372.23 77.05,372.12 74.32,372.12 74.32,372.01 71.58,372.01 71.58,371.91 68.84,371.91 68.84,371.82 66.1,371.82 66.1,371.74 63.36,371.74 63.36,371.67 60.62,371.67 60.62,371.61 57.88,371.61 57.88,371.56 55.14,371.56 55.14,371.53 52.4,371.53 52.4,371.5 49.66,371.5 49.66,371.48 46.92,371.48 46.92,371.48 44.18,371.48 44.18,371.48 41.44,371.48 41.44,371.5 38.7,371.5 38.7,371.52 35.96,371.52 35.96,371.56 33.22,371.56 33.22,371.6 30.48,371.6 30.48,371.66 27.74,371.66 27.74,371.73" fill="rgba(0, 0, 0, 0.25)" stroke="none" stroke-width="0"/>
<polygon points="25,155.64 25,145.99 27.74,145.99 27.74,145.73 30.48,145.73 30.48,145.46 33.22,145.46 33.22,145.19 35.96,145.19 35.96,144.91 38.7,144.91 38.7,144.63 41.44,144.63 41.44,144.34 44.18,144.34 44.18,144.05 46.92,144.05 46.92,143.76 49.66,143.76 49.66,143.46 52.4,143.46 52.4,143.16 55.14,143.16 55.14,142.86 57.88,142.86 57.88,142.55 60.62,142.55 60.62,142.24 63.36,142.24 63.36,141.92 66.1,141.92 66.1,141.61 68.84,141.61 68.84,141.29 71.58,141.29 71.58,140.97 74.32,140.97 74.32,140.65 77.05,140.65 77.05,140.33 79.79,140.33 79.79,140 82.53,140 82.53,139.68 85.27,139.68 85.27,139.35 88.01,139.35 88.01,139.02 90.75,139.02 90.75,138.69 93.49,138.69 93.49,138.36 96.23,138.36 96.23,138.03 98.97,138.03 98.97,137.7 101.71,137.7 101.71,137.37 104.45,137.37 104.45,137.04 107.19,137.04 107.19,136.72 109.93,136.72 109.93,136.39 112.67,136.39 112.67,136.06 115.41,136.06 115.41,135.73 118.15,135.73 118.15,135.41 120.89,135.41 120.89,135.08 123.63,135.08 123.63,134.76 126.37,134.76 126.37,134.43 129.11,134.43 129.11,134.11 131.85,134.11 131.85,133.79 134.59,133.79 134.59,133.47 137.33,133.47 137.33,133.16 140.07,133.16 140.07,132.84 142.81,132.84 142.81,132.53 145.55,132.53 145.55,132.21 148.29,132.21 148.29,131.9 151.03,131.9 151.03,131.59 153.77,131.59 153.77,131.28 156.51,131.28 156.51,130.97 159.25,130.97 159.25,130.67 161.99,130.67 161.99,130.36 164.73,130.36 164.73,130.06 167.47,130.06 167.47,129.76 170.21,129.76 170.21,129.46 172.95,129.46 172.95,129.16 175.68,129.16 175.68,128.86 178.42,128.86 178.42,128.56 181.16,128.56 181.16,128.27 183.9,128.27 183.9,127.98 186.64,127.98 186.64,127.68 189.38,127.68 189.38,127.39 192.12,127.39 192.12,127.1 194.86,127.1 194.86,126.81 197.6,126.81 197.6,126.53 200.34,126.53 200.34,126.24 203.08,126.24 203.08,125.96 205.82,125.96 205.82,125.67 208.56,125.67 208.56,134.39 205.82,134.39 205.82,134.68 203.08,134.68 203.08,134.97 200.34,134.97 200.34,135.26 197.6,135.26 197.6,135.55 194.86,135.55 194.86,135.85 192.12,135.85 192.12,136.14 189.38,136.14 189.38,136.44 186.64,136.44 186.64,136.74 183.9,136.74 183.9,137.05 181.16,137.05 181.16,137.35 178.42,137.35 178.42,137.66 175.68,137.66 175.68,137.96 172.95,137.96 172.95,138.27 170.21,138.27 170.21,138.59 167.47,138.59 167.47,138.9 164.73,138.9 164.73,139.22 161.99,139.22 161.99,139.53 159.25,139.53 159.25,139.85 156.51,139.85 156.51,140.17 153.77,140.17 153.77,140.5 151.03,140.5 151.03,140.82 148.29,140.82 148.29,141.15 145.55,141.15 145.55,141.48 142.81,141.48 142.81,141.81 140.07,141.81 140.07,142.14 137.33,142.14 137.33,142.47 134.59,142.47 134.59,142.81 131.85,142.81 131.85,143.15 129.11,143.15 129.11,143.48 126.37,143.48 126.37,143.82 123.63,143.82 123.63,144.17 120.89,144.17 120.89,144.51 118.15,144.51 118.15,144.85 115.41,144.85 115.41,145.2 112.67,145.2 112.67,145.54 109.93,145.54 109.93,145.89 107.19,145.89 107.19,146.24 104.45,146.24 104.45,146.59 101.71,146.59 101.71,146.94 98.97,146.94 98.97,147.28 96.23,147.28 96.23,147.63 93.49,147.63 93.49,147.98 90.75,147.98 90.75,148.33 88.01,148.33 88.01,148.67 85.27,148.67 85.27,149.02 82.53,149.02 82.53,149.36 79.79,149.36 79.79,149.71 77.05,149.71 77.05,150.05 74.32,150.05 74.32,150.39 71.58,150.39 71.58,150.73 68.84,150.73 68.84,151.06 66.1,151.06 66.1,151.39 63.36,151.39 63.36,151.72 60.62,151.72 60.62,152.05 57.88,152.05 57.88,152.37 55.14,152.37 55.14,152.69 52.4,152.69 52.4,153.01 49.66,153.01 49.66,153.32 46.92,153.32 46.92,153.63 44.18,153.63 44.18,153.93 41.44,153.93 41.44,154.23 38.7,154.23 38.7,154.52 35.96,154.52 35.96,154.81 33.22,154.81 33.22,155.09 30.48,155.09 30.48,155.37 27.74,155.37 27.74,155.64" fill="rgba(0, 0, 0, 0.25)" stroke="none" stroke-width="0"/>
<polygon points="208.56,366.81 208.56,358.11 211.3,358.11 211.3,358.57 214.04,358.57 214.04,359.04 216.78,359.04 216.78,359.51 219.52,359.51 219.52,359.98 222.26,359.98 222.26,360.45 225,360.45 225,360.92 227.74,360.92 227.74,361.4 230.48,361.4 230.48,361.87 233.22,361.87 233.22,362.35 235.96,362.35 235.96,362.83 238.7,362.83 238.7,363.31 241.44,363.31 241.44,363.79 244.18,363.79 244.18,364.27 246.92,364.27 246.92,364.74 249.66,364.74 249.66,365.22 252.4,365.22 252.4,365.7 255.14,365.7 255.14,366.18 257.88,366.18 257.88,366.66 260.62,366.66 260.62,367.14 263.36,367.14 263.36,367.62 266.1,367.62 266.1,368.09 268.84,368.09 268.84,368.57 271.58,368.57 271.58,369.04 274.32,369.04 274.32,369.51 277.05,369.51 277.05,369.98 279.79,369.98 279.79,370.45 282.53,370.45 282.53,370.92 285.27,370.92 285.27,371.38 288.01,371.38 288.01,371.85 290.75,371.85 290.75,372.31 293.49,372.31 293.49,372.77 296.23,372.77 296.23,373.22 298.97,373.22 298.97,373.67 301.71,373.67 301.71,374.12 304.45,374.12 304.45,374.57 307.19,374.57 307.19,375.01 309.93,375.01 309.93,375.45 312.67,375.45 312.67,375.88 315.41,375.88 315.41,376.32 318.15,376.32 318.15,376.74 320.89,376.74 320.89,377.16 323.63,377.16 323.63,377.58 326.37,377.58 326.37,378 329.11,378 329.11,378.4 331.85,378.4 331.85,378.81 334.59,378.81 334.59,379.21 337.33,379.21 337.33,379.6 340.07,379.6 340.07,379.99 342.81,379.99 342.81,380.37 345.55,380.37 345.55,380.75 348.29,380.75 348.29,381.12 351.03,381.12 351.03,381.48 353.77,381.48 353.77,381.84 356.51,381.84 356.51,382.19 359.25,382.19 359.25,382.54 361.99,382.54 361.99,382.88 364.73,382.88 364.73,383.21 367.47,383.21 367.47,383.53 370.21,383.53 370.21,383.85 372.95,383.85 372.95,384.16 375.68,384.16 375.68,384.47 378.42,384.47 378.42,384.76 381.16,384.76 381.16,385.05 383.9,385.05 383.9,385.33 386.64,385.33 386.64,385.61 389.38,385.61 389.38,385.87 392.12,385.87 392.12,386.13 394.86,386.13 394.86,386.38 397.6,386.38 397.6,386.62 400.34,386.62 400.34,386.85 403.08,386.85 403.08,387.08 405.82,387.08 405.82,387.29 408.56,387.29 408.56,387.5 411.3,387.5 411.3,387.69 414.04,387.69 414.04,387.88 416.78,387.88 416.78,388.06 419.52,388.06 419.52,388.23 422.26,388.23 422.26,388.39 425,388.39 425,388.54 427.74,388.54 427.74,388.68 430.48,388.68 430.48,388.82 433.22,388.82 433.22,388.94 435.96,388.94 435.96,389.05 438.7,389.05 438.7,389.16 441.44,389.16 441.44,389.26 444.18,389.26 444.18,389.34 446.92,389.34 446.92,389.42 449.66,389.42 449.66,389.49 452.4,389.49 452.4,389.54 455.14,389.54 455.14,389.59 457.88,389.59 457.88,389.63 460.62,389.63 460.62,389.66 463.36,389.66 463.36,389.69 466.1,389.69 466.1,389.7 468.84,389.7 468.84,389.7 471.58,389.7 471.58,389.7 474.32,389.7 474.32,389.68 477.05,389.68 477.05,389.66 479.79,389.66 479.79,389.63 482.53,389.63 482.53,389.58 485.27,389.58 485.27,389.53 488.01,389.53 488.01,389.47 490.75,389.47 490.75,389.41 493.49,389.41 493.49,389.33 496.23,389.33 496.23,389.25 498.97,389.25 498.97,389.16 501.71,389.16 501.71,389.06 504.45,389.06 504.45,388.95 507.19,388.95 507.19,388.84 509.93,388.84 509.93,388.71 512.67,388.71 512.67,388.59 515.41,388.59 515.41,388.45 518.15,388.45 518.15,388.31 520.89,388.31 520.89,388.16 523.63,388.16 523.63,388 526.37,388 526.37,387.84 529.11,387.84 529.11,387.68 531.85,387.68 531.85,387.5 534.59,387.5 534.59,387.33 537.33,387.33 537.33,387.14 540.07,387.14 540.07,386.96 542.81,386.96 542.81,386.76 545.55,386.76 545.55,386.56 548.29,386.56 548.29,386.36 551.03,386.36 551.03,386.16 553.77,386.16 553.77,385.95 556.51,385.95 556.51,385.73 559.25,385.73 559.25,385.51 561.99,385.51 561.99,385.29 564.73,385.29 564.73,385.06 567.47,385.06 567.47,384.84 570.21,384.84 570.21,384.6 572.95,384.6 572.95,384.37 575.68,384.37 575.68,384.13 578.42,384.13 578.42,383.89 581.16,383.89 581.16,383.65 583.9,383.65 583.9,383.4 586.64,383.4 586.64,383.16 589.38,383.16 589.38,382.91 592.12,382.91 592.12,382.66 594.86,382.66 594.86,382.41 597.6,382.41 597.6,382.16 600.34,382.16 600.34,381.91 603.08,381.91 603.08,381.65 605.82,381.65 605.82,381.4 608.56,381.4 608.56,381.14 611.3,381.14 611.3,380.89 614.04,380.89 614.04,380.63 616.78,380.63 616.78,380.38 619.52,380.38 619.52,380.12 622.26,380.12 622.26,379.86 625,379.86 625,379.61 627.74,379.61 627.74,379.35 630.48,379.35 630.48,379.09 633.22,379.09 633.22,378.84 635.96,378.84 635.96,378.58 638.7,378.58 638.7,378.33 641.44,378.33 641.44,378.07 644.18,378.07 644.18,377.82 646.92,377.82 646.92,377.56 649.66,377.56 649.66,377.31 652.4,377.31 652.4,377.05 655.14,377.05 655.14,376.8 657.88,376.8 657.88,376.55 660.62,376.55 660.62,376.29 663.36,376.29 663.36,376.04 666.1,376.04 666.1,375.79 668.84,375.79 668.84,375.54 671.58,375.54 671.58,375.29 674.32,375.29 674.32,375.04 677.05,375.04 677.05,374.79 679.79,374.79 679.79,374.54 682.53,374.54 682.53,374.29 685.27,374.29 685.27,374.04 688.01,374.04 688.01,373.8 690.75,373.8 690.75,373.55 693.49,373.55 693.49,373.31 696.23,373.31 696.23,373.06 698.97,373.06 698.97,372.82 701.71,372.82 701.71,372.57 704.45,372.57 704.45,372.33 707.19,372.33 707.19,372.09 709.93,372.09 709.93,371.84 712.67,371.84 712.67,371.6 715.41,371.6 715.41,371.36 718.15,371.36 718.15,371.11 720.89,371.11 720.89,370.87 723.63,370.87 723.63,370.63 726.37,370.63 726.37,370.38 729.11,370.38 729.11,370.14 731.85,370.14 731.85,369.89 734.59,369.89 734.59,369.65 737.33,369.65 737.33,369.4 740.07,369.4 740.07,369.15 742.81,369.15 742.81,368.91 745.55,368.91 745.55,368.66 748.29,368.66 748.29,368.41 751.03,368.41 751.03,368.16 753.77,368.16 753.77,367.91 756.51,367.91 756.51,367.66 759.25,367.66 759.25,367.41 761.99,367.41 761.99,367.16 764.73,367.16 764.73,366.9 767.47,366.9 767.47,366.65 770.21,366.65 770.21,366.39 772.95,366.39 772.95,366.13 775.68,366.13 775.68,365.87 778.42,365.87 778.42,365.61 781.16,365.61 781.16,365.35 783.9,365.35 783.9,365.09 786.64,365.09 786.64,364.83 789.38,364.83 789.38,364.56 792.12,364.56 792.12,364.29 794.86,364.29 794.86,364.02 797.6,364.02 797.6,363.75 800.34,363.75 800.34,363.48 803.08,363.48 803.08,363.2 805.82,363.2 805.82,362.92 808.56,362.92 808.56,362.64 811.3,362.64 811.3,362.36 814.04,362.36 814.04,362.07 816.78,362.07 816.78,361.79 819.52,361.79 819.52,361.5 822.26,361.5 822.26,361.21 825,361.21 825,360.91 827.74,360.91 827.74,360.62 830.48,360.62 830.48,360.32 833.22,360.32 833.22,360.02 835.96,360.02 835.96,359.72 838.7,359.72 838.7,359.41 841.44,359.41 841.44,359.11 844.18,359.11 844.18,358.8 846.92,358.8 846.92,358.49 849.66,358.49 849.66,358.18 852.4,358.18 852.4,357.87 855.14,357.87 855.14,357.55 857.88,357.55 857.88,357.23 860.62,357.23 860.62,366.26 857.88,366.26 857.88,366.56 855.14,366.56 855.14,366.86 852.4,366.86 852.4,367.16 849.66,367.16 849.66,367.46 846.92,367.46 846.92,367.75 844.18,367.75 844.18,368.04 841.44,368.04 841.44,368.33 838.7,368.33 838.7,368.62 835.96,368.62 835.96,368.91 833.22,368.91 833.22,369.2 830.48,369.2 830.48,369.48 827.74,369.48 827.74,369.77 825,369.77 825,370.05 822.26,370.05 822.26,370.33 819.52,370.33 819.52,370.61 816.78,370.61 816.78,370.88 814.04,370.88 814.04,371.16 811.3,371.16 811.3,371.43 808.56,371.43 808.56,371.7 805.82,371.7 805.82,371.97 803.08,371.97 803.08,372.24 800.34,372.24 800.34,372.5 797.6,372.5 797.6,372.77 794.86,372.77 794.86,373.03 792.12,373.03 792.12,373.29 789.38,373.29 789.38,373.55 786.64,373.55 786.64,373.81 783.9,373.81 783.9,374.07 781.16,374.07 781.16,374.33 778.42,374.33 778.42,374.59 775.68,374.59 775.68,374.84 772.95,374.84 772.95,375.1 770.21,375.1 770.21,375.35 767.47,375.35 767.47,375.61 764.73,375.61 764.73,375.86 761.99,375.86 761.99,376.11 759.25,376.11 759.25,376.37 756.51,376.37 756.51,376.62 753.77,376.62 753.77,376.87 751.03,376.87 751.03,377.12 748.29,377.12 748.29,377.38 745.55,377.38 745.55,377.63 742.81,377.63 742.81,377.88 740.07,377.88 740.07,378.13 737.33,378.13 737.33,378.38 734.59,378.38 734.59,378.63 731.85,378.63 731.85,378.89 729.11,378.89 729.11,379.14 726.37,379.14 726.37,379.39 723.63,379.39 723.63,379.64 720.89,379.64 720.89,379.89 718.15,379.89 718.15,380.15 715.41,380.15 715.41,380.4 712.67,380.4 712.67,380.66 709.93,380.66 709.93,380.91 707.19,380.91 707.19,381.17 704.45,381.17 704.45,381.42 701.71,381.42 701.71,381.68 698.97,381.68 698.97,381.94 696.23,381.94 696.23,382.2 693.49,382.2 693.49,382.46 690.75,382.46 690.75,382.72 688.01,382.72 688.01,382.98 685.27,382.98 685.27,383.24 682.53,383.24 682.53,383.51 679.79,383.51 679.79,383.78 677.05,383.78 677.05,384.04 674.32,384.04 674.32,384.31 671.58,384.31 671.58,384.58 668.84,384.58 668.84,384.85 666.1,384.85 666.1,385.12 663.36,385.12 663.36,385.39 660.62,385.39 660.62,385.67 657.88,385.67 657.88,385.94 655.14,385.94 655.14,386.22 652.4,386.22 652.4,386.49 649.66,386.49 649.66,386.77 646.92,386.77 646.92,387.05 644.18,387.05 644.18,387.32 641.44,387.32 641.44,387.6 638.7,387.6 638.7,387.88 635.96,387.88 635.96,388.16 633.22,388.16 633.22,388.44 630.48,388.44 630.48,388.72 627.74,388.72 627.74,389 625,389 625,389.28 622.26,389.28 622.26,389.56 619.52,389.56 619.52,389.84 616.78,389.84 616.78,390.12 614.04,390.12 614.04,390.4 611.3,390.4 611.3,390.68 608.56,390.68 608.56,390.96 605.82,390.96 605.82,391.24 603.08,391.24 603.08,391.52 600.34,391.52 600.34,391.79 597.6,391.79 597.6,392.07 594.86,392.07 594.86,392.35 592.12,392.35 592.12,392.62 589.38,392.62 589.38,392.89 586.64,392.89 586.64,393.16 583.9,393.16 583.9,393.43 581.16,393.43 581.16,393.69 578.42,393.69 578.42,393.96 575.68,393.96 575.68,394.22 572.95,394.22 572.95,394.47 570.21,394.47 570.21,394.73 567.47,394.73 567.47,394.98 564.73,394.98 564.73,395.22 561.99,395.22 561.99,395.47 559.25,395.47 559.25,395.7 556.51,395.7 556.51,395.94 553.77,395.94 553.77,396.17 551.03,396.17 551.03,396.39 548.29,396.39 548.29,396.61 545.55,396.61 545.55,396.83 542.81,396.83 542.81,397.04 540.07,397.04 540.07,397.24 537.33,397.24 537.33,397.44 534.59,397.44 534.59,397.63 531.85,397.63 531.85,397.81 529.11,397.81 529.11,397.99 526.37,397.99 526.37,398.16 523.63,398.16 523.63,398.33 520.89,398.33 520.89,398.49 518.15,398.49 518.15,398.64 515.41,398.64 515.41,398.78 512.67,398.78 512.67,398.92 509.93,398.92 509.93,399.04 507.19,399.04 507.19,399.16 504.45,399.16 504.45,399.27 501.71,399.27 501.71,399.38 498.97,399.38 498.97,399.47 496.23,399.47 496.23,399.55 493.49,399.55 493.49,399.63 490.75,399.63 490.75,399.69 488.01,399.69 488.01,399.75 485.27,399.75 485.27,399.8 482.53,399.8 482.53,399.84 479.79,399.84 479.79,399.86 477.05,399.86 477.05,399.88 474.32,399.88 474.32,399.89 471.58,399.89 471.58,399.89 468.84,399.89 468.84,399.87 466.1,399.87 466.1,399.85 463.36,399.85 463.36,399.82 460.62,399.82 460.62,399.78 457.88,399.78 457.88,399.72 455.14,399.72 455.14,399.66 452.4,399.66 452.4,399.59 449.66,399.59 449.66,399.51 446.92,399.51 446.92,399.41 444.18,399.41 444.18,399.31 441.44,399.31 441.44,399.2 438.7,399.2 438.7,399.07 435.96,399.07 435.96,398.94 433.22,398.94 433.22,398.8 430.48,398.8 430.48,398.65 427.74,398.65 427.74,398.48 425,398.48 425,398.31 422.26,398.31 422.26,398.13 419.52,398.13 419.52,397.94 416.78,397.94 416.78,397.74 414.04,397.74 414.04,397.53 411.3,397.53 411.3,397.31 408.56,397.31 408.56,397.08 405.82,397.08 405.82,396.84 403.08,396.84 403.08,396.59 400.34,396.59 400.34,396.34 397.6,396.34 397.6,396.07 394.86,396.07 394.86,395.8 392.12,395.8 392.12,395.52 389.38,395.52 389.38,395.23 386.64,395.23 386.64,394.93 383.9,394.93 383.9,394.62 381.16,394.62 381.16,394.31 378.42,394.31 378.42,393.99 375.68,393.99 375.68,393.66 372.95,393.66 372.95,393.32 370.21,393.32 370.21,392.98 367.47,392.98 367.47,392.63 364.73,392.63 364.73,392.27 361.99,392.27 361.99,391.91 359.25,391.91 359.25,391.54 356.51,391.54 356.51,391.16 353.77,391.16 353.77,390.78 351.03,390.78 351.03,390.39 348.29,390.39 348.29,390 345.55,390 345.55,389.6 342.81,389.6 342.81,389.19 340.07,389.19 340.07,388.78 337.33,388.78 337.33,388.37 334.59,388.37 334.59,387.95 331.85,387.95 331.85,387.52 329.11,387.52 329.11,387.09 326.37,387.09 326.37,386.66 323.63,386.66 323.63,386.22 320.89,386.22 320.89,385.78 318.15,385.78 318.15,385.33 315.41,385.33 315.41,384.88 312.67,384.88 312.67,384.43 309.93,384.43 309.93,383.97 307.19,383.97 307.19,383.51 304.45,383.51 304.45,383.05 301.71,383.05 301.71,382.59 298.97,382.59 298.97,382.12 296.23,382.12 296.23,381.65 293.49,381.65 293.49,381.18 290.75,381.18 290.75,380.7 288.01,380.7 288.01,380.22 285.27,380.22 285.27,379.75 282.53,379.75 282.53,379.27 279.79,379.27 279.79,378.79 277.05,378.79 277.05,378.3 274.32,378.3 274.32,377.82 271.58,377.82 271.58,377.34 268.84,377.34 268.84,376.85 266.1,376.85 266.1,376.37 263.36,376.37 263.36,375.88 260.62,375.88 260.62,375.4 257.88,375.4 257.88,374.91 255.14,374.91 255.14,374.43 252.4,374.43 252.4,373.94 249.66,373.94 249.66,373.46 246.92,373.46 246.92,372.97 244.18,372.97 244.18,372.49 241.44,372.49 241.44,372.01 238.7,372.01 238.7,371.53 235.96,371.53 235.96,371.05 233.22,371.05 233.22,370.57 230.48,370.57 230.48,370.09 227.74,370.09 227.74,369.62 225,369.62 225,369.14 222.26,369.14 222.26,368.67 219.52,368.67 219.52,368.2 216.78,368.2 216.78,367.74 214.04,367.74 214.04,367.27 211.3,367.27 211.3,366.81" fill="rgba(0, 0, 0, 0.25)" stroke="none" stroke-width="0"/>
<polygon points="208.56,113.27 208.56,104.56 211.3,104.56 211.3,104.28 214.04,104.28 214.04,104 216.78,104 216.78,103.72 219.52,103.72 219.52,103.44 222.26,103.44 222.26,103.16 225,103.16 225,102.88 227.74,102.88 227.74,102.61 230.48,102.61 230.48,102.33 233.22,102.33 233.22,102.05 235.96,102.05 235.96,101.78 238.7,101.78 238.7,101.5 241.44,101.5 241.44,101.22 244.18,101.22 244.18,100.95 246.92,100.95 246.92,100.67 249.66,100.67 249.66,100.39 252.4,100.39 252.4,100.12 255.14,100.12 255.14,99.84 257.88,99.84 257.88,99.56 260.62,99.56 260.62,99.28 263.36,99.28 263.36,99.01 266.1,99.01 266.1,98.73 268.84,98.73 268.84,98.45 271.58,98.45 271.58,98.17 274.32,98.17 274.32,97.89 277.05,97.89 277.05,97.61 279.79,97.61 279.79,97.33 282.53,97.33 282.53,97.05 285.27,97.05 285.27,96.77 288.01,96.77 288.01,96.48 290.75,96.48 290.75,96.2 293.49,96.2 293.49,95.92 296.23,95.92 296.23,95.63 298.97,95.63 298.97,95.35 301.71,95.35 301.71,95.06 304.45,95.06 304.45,94.77 307.19,94.77 307.19,94.49 309.93,94.49 309.93,94.2 312.67,94.2 312.67,93.91 315.41,93.91 315.41,93.62 318.15,93.62 318.15,93.32 320.89,93.32 320.89,93.03 323.63,93.03 323.63,92.74 326.37,92.74 326.37,92.44 329.11,92.44 329.11,92.15 331.85,92.15 331.85,91.85 334.59,91.85 334.59,91.55 337.33,91.55 337.33,91.26 340.07,91.26 340.07,90.96 342.81,90.96 342.81,90.66 345.55,90.66 345.55,90.36 348.29,90.36 348.29,90.06 351.03,90.06 351.03,89.76 353.77,89.76 353.77,89.46 356.51,89.46 356.51,89.16 359.25,89.16 359.25,88.86 361.99,88.86 361.99,88.56 364.73,88.56 364.73,88.26 367.47,88.26 367.47,87.96 370.21,87.96 370.21,87.66 372.95,87.66 372.95,87.37 375.68,87.37 375.68,87.07 378.42,87.07 378.42,86.78 381.16,86.78 381.16,86.48 383.9,86.48 383.9,86.19 386.64,86.19 386.64,85.9 389.38,85.9 389.38,85.61 392.12,85.61 392.12,85.32 394.86,85.32 394.86,85.03 397.6,85.03 397.6,84.75 400.34,84.75 400.34,84.47 403.08,84.47 403.08,84.19 405.82,84.19 405.82,83.91 408.56,83.91 408.56,83.64 411.3,83.64 411.3,83.36 414.04,83.36 414.04,83.1 416.78,83.1 416.78,82.83 419.52,82.83 419.52,82.57 422.26,82.57 422.26,82.32 425,82.32 425,82.06 427.74,82.06 427.74,81.82 430.48,81.82 430.48,81.57 433.22,81.57 433.22,81.34 435.96,81.34 435.96,81.11 438.7,81.11 438.7,80.88 441.44,80.88 441.44,80.66 444.18,80.66 444.18,80.44 446.92,80.44 446.92,80.24 449.66,80.24 449.66,80.04 452.4,80.04 452.4,79.84 455.14,79.84 455.14,79.65 457.88,79.65 457.88,79.47 460.62,79.47 460.62,79.3 463.36,79.3 463.36,79.13 466.1,79.13 466.1,78.98 468.84,78.98 468.84,78.83 471.58,78.83 471.58,78.68 474.32,78.68 474.32,78.55 477.05,78.55 477.05,78.43 479.79,78.43 479.79,78.31 482.53,78.31 482.53,78.2 485.27,78.2 485.27,78.1 488.01,78.1 488.01,78.01 490.75,78.01 490.75,77.93 493.49,77.93 493.49,77.86 496.23,77.86 496.23,77.8 498.97,77.8 498.97,77.75 501.71,77.75 501.71,77.71 504.45,77.71 504.45,77.68 507.19,77.68 507.19,77.65 509.93,77.65 509.93,77.64 512.67,77.64 512.67,77.64 515.41,77.64 515.41,77.65 518.15,77.65 518.15,77.67 520.89,77.67 520.89,77.7 523.63,77.7 523.63,77.74 526.37,77.74 526.37,77.79 529.11,77.79 529.11,77.85 531.85,77.85 531.85,77.92 534.59,77.92 534.59,78 537.33,78 537.33,78.1 540.07,78.1 540.07,78.2 542.81,78.2 542.81,78.31 545.55,78.31 545.55,78.44 548.29,78.44 548.29,78.57 551.03,78.57 551.03,78.71 553.77,78.71 553.77,78.87 556.51,78.87 556.51,79.03 559.25,79.03 559.25,79.21 561.99,79.21 561.99,79.39 564.73,79.39 564.73,79.58 567.47,79.58 567.47,79.79 570.21,79.79 570.21,80 572.95,80 572.95,80.22 575.68,80.22 575.68,80.45 578.42,80.45 578.42,80.69 581.16,80.69 581.16,80.94 583.9,80.94 583.9,81.2 586.64,81.2 586.64,81.47 589.38,81.47 589.38,81.75 592.12,81.75 592.12,82.03 594.86,82.03 594.86,82.32 597.6,82.32 597.6,82.63 600.34,82.63 600.34,82.94 603.08,82.94 603.08,83.25 605.82,83.25 605.82,83.58 608.56,83.58 608.56,83.91 611.3,83.91 611.3,84.25 614.04,84.25 614.04,84.6 616.78,84.6 616.78,84.96 619.52,84.96 619.52,85.32 622.26,85.32 622.26,85.69 625,85.69 625,86.07 627.74,86.07 627.74,86.45 630.48,86.45 630.48,86.84 633.22,86.84 633.22,87.23 635.96,87.23 635.96,87.63 638.7,87.63 638.7,88.04 641.44,88.04 641.44,88.45 644.18,88.45 644.18,88.87 646.92,88.87 646.92,89.29 649.66,89.29 649.66,89.72 652.4,89.72 652.4,90.15 655.14,90.15 655.14,90.59 657.88,90.59 657.88,91.03 660.62,91.03 660.62,91.48 663.36,91.48 663.36,91.93 666.1,91.93 666.1,92.38 668.84,92.38 668.84,92.84 671.58,92.84 671.58,93.3 674.32,93.3 674.32,93.77 677.05,93.77 677.05,94.23 679.79,94.23 679.79,94.71 682.53,94.71 682.53,95.18 685.27,95.18 685.27,95.66 688.01,95.66 688.01,96.14 690.75,96.14 690.75,96.62 693.49,96.62 693.49,97.11 696.23,97.11 696.23,97.59 698.97,97.59 698.97,98.08 701.71,98.08 701.71,98.57 704.45,98.57 704.45,99.07 707.19,99.07 707.19,99.56 709.93,99.56 709.93,100.05 712.67,100.05 712.67,100.55 715.41,100.55 715.41,101.05 718.15,101.05 718.15,101.55 720.89,101.55 720.89,102.05 723.63,102.05 723.63,102.54 726.37,102.54 726.37,103.04 729.11,103.04 729.11,103.54 731.85,103.54 731.85,104.04 734.59,104.04 734.59,104.54 737.33,104.54 737.33,105.04 740.07,105.04 740.07,105.54 742.81,105.54 742.81,106.03 745.55,106.03 745.55,106.53 748.29,106.53 748.29,107.02 751.03,107.02 751.03,107.52 753.77,107.52 753.77,108.01 756.51,108.01 756.51,108.5 759.25,108.5 759.25,108.99 761.99,108.99 761.99,109.48 764.73,109.48 764.73,109.96 767.47,109.96 767.47,110.45 770.21,110.45 770.21,110.93 772.95,110.93 772.95,111.4 775.68,111.4 775.68,111.88 778.42,111.88 778.42,112.35 781.16,112.35 781.16,112.82 783.9,112.82 783.9,113.29 786.64,113.29 786.64,113.75 789.38,113.75 789.38,114.21 792.12,114.21 792.12,114.67 794.86,114.67 794.86,115.12 797.6,115.12 797.6,115.57 800.34,115.57 800.34,116.01 803.08,116.01 803.08,116.45 805.82,116.45 805.82,116.89 808.56,116.89 808.56,117.31 811.3,117.31 811.3,117.74 814.04,117.74 814.04,118.16 816.78,118.16 816.78,118.57 819.52,118.57 819.52,118.98 822.26,118.98 822.26,119.38 825,119.38 825,119.78 827.74,119.78 827.74,120.17 830.48,120.17 830.48,120.56 833.22,120.56 833.22,120.94 835.96,120.94 835.96,121.31 838.7,121.31 838.7,121.68 841.44,121.68 841.44,122.04 844.18,122.04 844.18,122.39 846.92,122.39 846.92,122.73 849.66,122.73 849.66,123.07 852.4,123.07 852.4,123.4 855.14,123.4 855.14,123.73 857.88,123.73 857.88,124.04 860.62,124.04 860.62,133.07 857.88,133.07 857.88,132.74 855.14,132.74 855.14,132.4 852.4,132.4 852.4,132.05 849.66,132.05 849.66,131.69 846.92,131.69 846.92,131.33 844.18,131.33 844.18,130.97 841.44,130.97 841.44,130.59 838.7,130.59 838.7,130.21 835.96,130.21 835.96,129.82 833.22,129.82 833.22,129.43 830.48,129.43 830.48,129.03 827.74,129.03 827.74,128.63 825,128.63 825,128.22 822.26,128.22 822.26,127.8 819.52,127.8 819.52,127.38 816.78,127.38 816.78,126.96 814.04,126.96 814.04,126.53 811.3,126.53 811.3,126.09 808.56,126.09 808.56,125.65 805.82,125.65 805.82,125.21 803.08,125.21 803.08,124.76 800.34,124.76 800.34,124.31 797.6,124.31 797.6,123.86 794.86,123.86 794.86,123.4 792.12,123.4 792.12,122.94 789.38,122.94 789.38,122.47 786.64,122.47 786.64,122 783.9,122 783.9,121.53 781.16,121.53 781.16,121.06 778.42,121.06 778.42,120.58 775.68,120.58 775.68,120.1 772.95,120.1 772.95,119.62 770.21,119.62 770.21,119.14 767.47,119.14 767.47,118.65 764.73,118.65 764.73,118.17 761.99,118.17 761.99,117.68 759.25,117.68 759.25,117.19 756.51,117.19 756.51,116.7 753.77,116.7 753.77,116.21 751.03,116.21 751.03,115.72 748.29,115.72 748.29,115.23 745.55,115.23 745.55,114.74 742.81,114.74 742.81,114.25 740.07,114.25 740.07,113.75 737.33,113.75 737.33,113.26 734.59,113.26 734.59,112.77 731.85,112.77 731.85,112.27 729.11,112.27 729.11,111.78 726.37,111.78 726.37,111.29 723.63,111.29 723.63,110.8 720.89,110.8 720.89,110.31 718.15,110.31 718.15,109.82 715.41,109.82 715.41,109.34 712.67,109.34 712.67,108.85 709.93,108.85 709.93,108.37 707.19,108.37 707.19,107.88 704.45,107.88 704.45,107.4 701.71,107.4 701.71,106.92 698.97,106.92 698.97,106.45 696.23,106.45 696.23,105.98 693.49,105.98 693.49,105.51 690.75,105.51 690.75,105.04 688.01,105.04 688.01,104.57 685.27,104.57 685.27,104.11 682.53,104.11 682.53,103.65 679.79,103.65 679.79,103.2 677.05,103.2 677.05,102.75 674.32,102.75 674.32,102.3 671.58,102.3 671.58,101.86 668.84,101.86 668.84,101.42 666.1,101.42 666.1,100.98 663.36,100.98 663.36,100.55 660.62,100.55 660.62,100.13 657.88,100.13 657.88,99.71 655.14,99.71 655.14,99.29 652.4,99.29 652.4,98.88 649.66,98.88 649.66,98.47 646.92,98.47 646.92,98.07 644.18,98.07 644.18,97.68 641.44,97.68 641.44,97.29 638.7,97.29 638.7,96.91 635.96,96.91 635.96,96.53 633.22,96.53 633.22,96.16 630.48,96.16 630.48,95.79 627.74,95.79 627.74,95.43 625,95.43 625,95.08 622.26,95.08 622.26,94.74 619.52,94.74 619.52,94.4 616.78,94.4 616.78,94.07 614.04,94.07 614.04,93.74 611.3,93.74 611.3,93.43 608.56,93.43 608.56,93.12 605.82,93.12 605.82,92.82 603.08,92.82 603.08,92.52 600.34,92.52 600.34,92.24 597.6,92.24 597.6,91.96 594.86,91.96 594.86,91.69 592.12,91.69 592.12,91.43 589.38,91.43 589.38,91.18 586.64,91.18 586.64,90.94 583.9,90.94 583.9,90.7 581.16,90.7 581.16,90.47 578.42,90.47 578.42,90.26 575.68,90.26 575.68,90.05 572.95,90.05 572.95,89.85 570.21,89.85 570.21,89.66 567.47,89.66 567.47,89.48 564.73,89.48 564.73,89.3 561.99,89.3 561.99,89.14 559.25,89.14 559.25,88.99 556.51,88.99 556.51,88.84 553.77,88.84 553.77,88.71 551.03,88.71 551.03,88.58 548.29,88.58 548.29,88.47 545.55,88.47 545.55,88.36 542.81,88.36 542.81,88.26 540.07,88.26 540.07,88.18 537.33,88.18 537.33,88.1 534.59,88.1 534.59,88.03 531.85,88.03 531.85,87.97 529.11,87.97 529.11,87.92 526.37,87.92 526.37,87.89 523.63,87.89 523.63,87.86 520.89,87.86 520.89,87.84 518.15,87.84 518.15,87.83 515.41,87.83 515.41,87.83 512.67,87.83 512.67,87.84 509.93,87.84 509.93,87.86 507.19,87.86 507.19,87.88 504.45,87.88 504.45,87.92 501.71,87.92 501.71,87.97 498.97,87.97 498.97,88.02 496.23,88.02 496.23,88.08 493.49,88.08 493.49,88.15 490.75,88.15 490.75,88.23 488.01,88.23 488.01,88.32 485.27,88.32 485.27,88.42 482.53,88.42 482.53,88.52 479.79,88.52 479.79,88.64 477.05,88.64 477.05,88.76 474.32,88.76 474.32,88.88 471.58,88.88 471.58,89.02 468.84,89.02 468.84,89.16 466.1,89.16 466.1,89.31 463.36,89.31 463.36,89.46 460.62,89.46 460.62,89.63 457.88,89.63 457.88,89.79 455.14,89.79 455.14,89.97 452.4,89.97 452.4,90.15 449.66,90.15 449.66,90.34 446.92,90.34 446.92,90.53 444.18,90.53 444.18,90.73 441.44,90.73 441.44,90.93 438.7,90.93 438.7,91.14 435.96,91.14 435.96,91.36 433.22,91.36 433.22,91.58 430.48,91.58 430.48,91.8 427.74,91.8 427.74,92.03 425,92.03 425,92.26 422.26,92.26 422.26,92.49 419.52,92.49 419.52,92.73 416.78,92.73 416.78,92.98 414.04,92.98 414.04,93.22 411.3,93.22 411.3,93.47 408.56,93.47 408.56,93.72 405.82,93.72 405.82,93.97 403.08,93.97 403.08,94.23 400.34,94.23 400.34,94.49 397.6,94.49 397.6,94.75 394.86,94.75 394.86,95.01 392.12,95.01 392.12,95.27 389.38,95.27 389.38,95.54 386.64,95.54 386.64,95.81 383.9,95.81 383.9,96.08 381.16,96.08 381.16,96.34 378.42,96.34 378.42,96.62 375.68,96.62 375.68,96.89 372.95,96.89 372.95,97.16 370.21,97.16 370.21,97.43 367.47,97.43 367.47,97.71 364.73,97.71 364.73,97.98 361.99,97.98 361.99,98.26 359.25,98.26 359.25,98.53 356.51,98.53 356.51,98.81 353.77,98.81 353.77,99.08 351.03,99.08 351.03,99.36 348.29,99.36 348.29,99.64 345.55,99.64 345.55,99.91 342.81,99.91 342.81,100.19 340.07,100.19 340.07,100.47 337.33,100.47 337.33,100.74 334.59,100.74 334.59,101.02 331.85,101.02 331.85,101.29 329.11,101.29 329.11,101.57 326.37,101.57 326.37,101.84 323.63,101.84 323.63,102.11 320.89,102.11 320.89,102.39 318.15,102.39 318.15,102.66 315.41,102.66 315.41,102.93 312.67,102.93 312.67,103.2 309.93,103.2 309.93,103.47 307.19,103.47 307.19,103.74 304.45,103.74 304.45,104.01 301.71,104.01 301.71,104.28 298.97,104.28 298.97,104.55 296.23,104.55 296.23,104.82 293.49,104.82 293.49,105.09 290.75,105.09 290.75,105.36 288.01,105.36 288.01,105.63 285.27,105.63 285.27,105.9 282.53,105.9 282.53,106.16 279.79,106.16 279.79,106.43 277.05,106.43 277.05,106.7 274.32,106.7 274.32,106.97 271.58,106.97 271.58,107.24 268.84,107.24 268.84,107.51 266.1,107.51 266.1,107.78 263.36,107.78 263.36,108.05 260.62,108.05 260.62,108.32 257.88,108.32 257.88,108.59 255.14,108.59 255.14,108.86 252.4,108.86 252.4,109.13 249.66,109.13 249.66,109.4 246.92,109.4 246.92,109.67 244.18,109.67 244.18,109.94 241.44,109.94 241.44,110.21 238.7,110.21 238.7,110.49 235.96,110.49 235.96,110.76 233.22,110.76 233.22,111.04 230.48,111.04 230.48,111.31 227.74,111.31 227.74,111.59 225,111.59 225,111.87 222.26,111.87 222.26,112.14 219.52,112.14 219.52,112.42 216.78,112.42 216.78,112.71 214.04,112.71 214.04,112.99 211.3,112.99 211.3,113.27" fill="rgba(0, 0, 0, 0.25)" stroke="none" stroke-width="0"/>
<polygon points="860.62,386.8 860.62,377.75 863.36,377.75 863.36,377.43 866.1,377.43 866.1,377.11 868.84,377.11 868.84,376.78 871.58,376.78 871.58,376.46 874.32,376.46 874.32,376.13 877.05,376.13 877.05,375.81 879.79,375.81 879.79,375.48 882.53,375.48 882.53,375.15 885.27,375.15 885.27,374.82 888.01,374.82 888.01,374.49 890.75,374.49 890.75,374.16 893.49,374.16 893.49,373.82 896.23,373.82 896.23,373.49 898.97,373.49 898.97,373.16 901.71,373.16 901.71,372.83 904.45,372.83 904.45,372.5 907.19,372.5 907.19,372.17 909.93,372.17 909.93,371.84 912.67,371.84 912.67,371.51 915.41,371.51 915.41,371.18 918.15,371.18 918.15,370.85 920.89,370.85 920.89,370.53 923.63,370.53 923.63,370.21 926.37,370.21 926.37,369.89 929.11,369.89 929.11,369.57 931.85,369.57 931.85,369.25 934.59,369.25 934.59,368.94 937.33,368.94 937.33,368.64 940.07,368.64 940.07,368.33 942.81,368.33 942.81,368.03 945.55,368.03 945.55,367.74 948.29,367.74 948.29,367.44 951.03,367.44 951.03,367.16 953.77,367.16 953.77,366.88 956.51,366.88 956.51,366.6 959.25,366.6 959.25,366.33 961.99,366.33 961.99,366.06 964.73,366.06 964.73,365.8 967.47,365.8 967.47,365.55 970.21,365.55 970.21,365.3 972.95,365.3 972.95,365.06 975.68,365.06 975.68,364.83 978.42,364.83 978.42,364.6 981.16,364.6 981.16,364.38 983.9,364.38 983.9,364.17 986.64,364.17 986.64,363.97 989.38,363.97 989.38,363.77 992.12,363.77 992.12,363.59 994.86,363.59 994.86,363.41 997.6,363.41 997.6,363.24 1000.34,363.24 1000.34,363.08 1003.08,363.08 1003.08,362.93 1005.82,362.93 1005.82,362.79 1008.56,362.79 1008.56,362.66 1011.3,362.66 1011.3,362.54 1014.04,362.54 1014.04,362.43 1016.78,362.43 1016.78,362.33 1019.52,362.33 1019.52,362.24 1022.26,362.24 1022.26,362.16 1025,362.16 1025,371.82 1022.26,371.82 1022.26,371.91 1019.52,371.91 1019.52,372.01 1016.78,372.01 1016.78,372.11 1014.04,372.11 1014.04,372.23 1011.3,372.23 1011.3,372.35 1008.56,372.35 1008.56,372.49 1005.82,372.49 1005.82,372.63 1003.08,372.63 1003.08,372.78 1000.34,372.78 1000.34,372.94 997.6,372.94 997.6,373.11 994.86,373.11 994.86,373.29 992.12,373.29 992.12,373.48 989.38,373.48 989.38,373.67 986.64,373.67 986.64,373.87 983.9,373.87 983.9,374.08 981.16,374.08 981.16,374.29 978.42,374.29 978.42,374.51 975.68,374.51 975.68,374.74 972.95,374.74 972.95,374.97 970.21,374.97 970.21,375.21 967.47,375.21 967.47,375.46 964.73,375.46 964.73,375.71 961.99,375.71 961.99,375.97 959.25,375.97 959.25,376.23 956.51,376.23 956.51,376.49 953.77,376.49 953.77,376.77 951.03,376.77 951.03,377.04 948.29,377.04 948.29,377.32 945.55,377.32 945.55,377.6 942.81,377.6 942.81,377.89 940.07,377.89 940.07,378.18 937.33,378.18 937.33,378.47 934.59,378.47 934.59,378.77 931.85,378.77 931.85,379.06 929.11,379.06 929.11,379.37 926.37,379.37 926.37,379.67 923.63,379.67 923.63,379.97 920.89,379.97 920.89,380.28 918.15,380.28 918.15,380.59 915.41,380.59 915.41,380.9 912.67,380.9 912.67,381.21 909.93,381.21 909.93,381.52 907.19,381.52 907.19,381.84 904.45,381.84 904.45,382.15 901.71,382.15 901.71,382.46 898.97,382.46 898.97,382.78 896.23,382.78 896.23,383.09 893.49,383.09 893.49,383.4 890.75,383.4 890.75,383.72 888.01,383.72 888.01,384.03 885.27,384.03 885.27,384.34 882.53,384.34 882.53,384.65 879.79,384.65 879.79,384.96 877.05,384.96 877.05,385.27 874.32,385.27 874.32,385.58 871.58,385.58 871.58,385.88 868.84,385.88 868.84,386.19 866.1,386.19 866.1,386.49 863.36,386.49 863.36,386.8" fill="rgba(0, 0, 0, 0.25)" stroke="none" stroke-width="0"/>
<polygon points="860.62,154.23 860.62,145.18 863.36,145.18 863.36,145.48 866.1,145.48 866.1,145.77 868.84,145.77 868.84,146.06 871.58,146.06 871.58,146.33 874.32,146.33 874.32,146.6 877.05,146.6 877.05,146.86 879.79,146.86 879.79,147.1 882.53,147.1 882.53,147.34 885.27,147.34 885.27,147.57 888.01,147.57 888.01,147.79 890.75,147.79 890.75,148.01 893.49,148.01 893.49,148.21 896.23,148.21 896.23,148.4 898.97,148.4 898.97,148.58 901.71,148.58 901.71,148.75 904.45,148.75 904.45,148.91 907.19,148.91 907.19,149.06 909.93,149.06 909.93,149.21 912.67,149.21 912.67,149.34 915.41,149.34 915.41,149.46 918.15,149.46 918.15,149.57 920.89,149.57 920.89,149.67 923.63,149.67 923.63,149.76 926.37,149.76 926.37,149.84 929.11,149.84 929.11,149.91 931.85,149.91 931.85,149.96 934.59,149.96 934.59,150.01 937.33,150.01 937.33,150.05 940.07,150.05 940.07,150.08 942.81,150.08 942.81,150.09 945.55,150.09 945.55,150.1 948.29,150.1 948.29,150.09 951.03,150.09 951.03,150.08 953.77,150.08 953.77,150.05 956.51,150.05 956.51,150.01 959.25,150.01 959.25,149.97 961.99,149.97 961.99,149.91 964.73,149.91 964.73,149.84 967.47,149.84 967.47,149.76 970.21,149.76 970.21,149.68 972.95,149.68 972.95,149.58 975.68,149.58 975.68,149.47 978.42,149.47 978.42,149.35 981.16,149.35 981.16,149.22 983.9,149.22 983.9,149.09 986.64,149.09 986.64,148.94 989.38,148.94 989.38,148.79 992.12,148.79 992.12,148.62 994.86,148.62 994.86,148.45 997.6,148.45 997.6,148.27 1000.34,148.27 1000.34,148.08 1003.08,148.08 1003.08,147.88 1005.82,147.88 1005.82,147.68 1008.56,147.68 1008.56,147.47 1011.3,147.47 1011.3,147.25 1014.04,147.25 1014.04,147.02 1016.78,147.02 1016.78,146.79 1019.52,146.79 1019.52,146.55 1022.26,146.55 1022.26,146.3 1025,146.3 1025,155.96 1022.26,155.96 1022.26,156.22 1019.52,156.22 1019.52,156.47 1016.78,156.47 1016.78,156.7 1014.04,156.7 1014.04,156.94 1011.3,156.94 1011.3,157.16 1008.56,157.16 1008.56,157.38 1005.82,157.38 1005.82,157.59 1003.08,157.59 1003.08,157.78 1000.34,157.78 1000.34,157.97 997.6,157.97 997.6,158.16 994.86,158.16 994.86,158.33 992.12,158.33 992.12,158.49 989.38,158.49 989.38,158.64 986.64,158.64 986.64,158.79 983.9,158.79 983.9,158.92 981.16,158.92 981.16,159.04 978.42,159.04 978.42,159.16 975.68,159.16 975.68,159.26 972.95,159.26 972.95,159.35 970.21,159.35 970.21,159.43 967.47,159.43 967.47,159.5 964.73,159.5 964.73,159.56 961.99,159.56 961.99,159.61 959.25,159.61 959.25,159.64 956.51,159.64 956.51,159.67 953.77,159.67 953.77,159.68 951.03,159.68 951.03,159.69 948.29,159.69 948.29,159.68 945.55,159.68 945.55,159.66 942.81,159.66 942.81,159.63 940.07,159.63 940.07,159.59 937.33,159.59 937.33,159.54 934.59,159.54 934.59,159.48 931.85,159.48 931.85,159.4 929.11,159.4 929.11,159.32 926.37,159.32 926.37,159.22 923.63,159.22 923.63,159.11 920.89,159.11 920.89,159 918.15,159 918.15,158.87 915.41,158.87 915.41,158.73 912.67,158.73 912.67,158.58 909.93,158.58 909.93,158.42 907.19,158.42 907.19,158.25 904.45,158.25 904.45,158.07 901.71,158.07 901.71,157.88 898.97,157.88 898.97,157.68 896.23,157.68 896.23,157.47 893.49,157.47 893.49,157.25 890.75,157.25 890.75,157.02 888.01,157.02 888.01,156.78 885.27,156.78 885.27,156.53 882.53,156.53 882.53,156.28 879.79,156.28 879.79,156.01 877.05,156.01 877.05,155.73 874.32,155.73 874.32,155.45 871.58,155.45 871.58,155.16 868.84,155.16 868.84,154.85 866.1,154.85 866.1,154.54 863.36,154.54 863.36,154.23" fill="rgba(0, 0, 0, 0.25)" stroke="none" stroke-width="0"/>
<line x1="103.08" y1="355.61" x2="103.08" y2="138.1" stroke="#ff0000" stroke-width="1"/>
<line x1="182.53" y1="375.16" x2="182.53" y2="138.29" stroke="#ff0000" stroke-width="1"/>
<line x1="264.73" y1="366.09" x2="264.73" y2="93.08" stroke="#ff0000" stroke-width="1"/>
<line x1="344.18" y1="387.04" x2="344.18" y2="92.01" stroke="#ff0000" stroke-width="1"/>
<line x1="423.63" y1="403.73" x2="423.63" y2="89.71" stroke="#ff0000" stroke-width="1"/>
<line x1="505.82" y1="390.83" x2="505.82" y2="69.35" stroke="#ff0000" stroke-width="1"/>
<line x1="585.27" y1="390.73" x2="585.27" y2="82.52" stroke="#ff0000" stroke-width="1"/>
<line x1="664.73" y1="390.46" x2="664.73" y2="101.76" stroke="#ff0000" stroke-width="1"/>
<line x1="746.92" y1="371.81" x2="746.92" y2="116.02" stroke="#ff0000" stroke-width="1"/>
<line x1="829.11" y1="356.04" x2="829.11" y2="130.34" stroke="#ff0000" stroke-width="1"/>
<line x1="908.56" y1="380.15" x2="908.56" y2="170.41" stroke="#ff0000" stroke-width="1"/>
<line x1="990.75" y1="363.97" x2="990.75" y2="167.23" stroke="#ff0000" stroke-width="1"/>
<line x1="59.25" y1="510" x2="59.25" y2="358.94" stroke="#000080" stroke-width="1"/>
<line x1="59.25" y1="155.12" x2="59.25" y2="10" stroke="#000080" stroke-width="1"/>
<line x1="141.44" y1="510" x2="141.44" y2="362.64" stroke="#000080" stroke-width="1"/>
<line x1="141.44" y1="134.27" x2="141.44" y2="10" stroke="#000080" stroke-width="1"/>
<line x1="220.89" y1="510" x2="220.89" y2="364.24" stroke="#000080" stroke-width="1"/>
<line x1="220.89" y1="117.48" x2="220.89" y2="10" stroke="#000080" stroke-width="1"/>
<line x1="303.08" y1="510" x2="303.08" y2="380.14" stroke="#000080" stroke-width="1"/>
<line x1="303.08" y1="102.72" x2="303.08" y2="10" stroke="#000080" stroke-width="1"/>
<line x1="385.27" y1="510" x2="385.27" y2="392.18" stroke="#000080" stroke-width="1"/>
<line x1="385.27" y1="85.68" x2="385.27" y2="10" stroke="#000080" stroke-width="1"/>
<line x1="467.47" y1="510" x2="467.47" y2="391.52" stroke="#000080" stroke-width="1"/>
<line x1="467.47" y1="69.35" x2="467.47" y2="10" stroke="#000080" stroke-width="1"/>
<line x1="546.92" y1="510" x2="546.92" y2="396.59" stroke="#000080" stroke-width="1"/>
<line x1="546.92" y1="79.18" x2="546.92" y2="10" stroke="#000080" stroke-width="1"/>
<line x1="629.11" y1="510" x2="629.11" y2="374.48" stroke="#000080" stroke-width="1"/>
<line x1="629.11" y1="83.93" x2="629.11" y2="10" stroke="#000080" stroke-width="1"/>
<line x1="708.56" y1="510" x2="708.56" y2="375.41" stroke="#000080" stroke-width="1"/>
<line x1="708.56" y1="105.61" x2="708.56" y2="10" stroke="#000080" stroke-width="1"/>
<line x1="788.01" y1="510" x2="788.01" y2="376.96" stroke="#000080" stroke-width="1"/>
<line x1="788.01" y1="127.97" x2="788.01" y2="10" stroke="#000080" stroke-width="1"/>
<line x1="870.21" y1="510" x2="870.21" y2="371.78" stroke="#000080" stroke-width="1"/>
<line x1="870.21" y1="155.36" x2="870.21" y2="10" stroke="#000080" stroke-width="1"/>
<line x1="949.66" y1="510" x2="949.66" y2="370.01" stroke="#000080" stroke-width="1"/>
<line x1="949.66" y1="166.88" x2="949.66" y2="10" stroke="#000080" stroke-width="1"/>
<text x="20" y="510" font-family="Arial" font-size="11pt" text-anchor="end" alignment-baseline="middle" fill="#000000">0</text>
<line x1="25" y1="510" x2="1025" y2="510" stroke="#000000" stroke-width="0.5"/>
<text x="20" y="468.33" font-family="Arial" font-size="11pt" text-anchor="end" alignment-baseline="middle" fill="#000000">2</text>
<line x1="25" y1="468.33" x2="1025" y2="468.33" stroke="#000000" stroke-width="0.5"/>
<text x="20" y="426.67" font-family="Arial" font-size="11pt" text-anchor="end" alignment-baseline="middle" fill="#000000">4</text>
<line x1="25" y1="426.67" x2="1025" y2="426.67" stroke="#000000" stroke-width="0.5"/>
<text x="20" y="385" font-family="Arial" font-size="11pt" text-anchor="end" alignment-baseline="middle" fill="#000000">6</text>
<line x1="25" y1="385" x2="1025" y2="385" stroke="#000000" stroke-width="0.5"/>
<text x="20" y="343.33" font-family="Arial" font-size="11pt" text-anchor="end" alignment-baseline="middle" fill="#000000">8</text>
<line x1="25" y1="343.33" x2="1025" y2="343.33" stroke="#000000" stroke-width="0.5"/>
<text x="20" y="301.67" font-family="Arial" font-size="11pt" text-anchor="end" alignment-baseline="middle" fill="#000000">10</text>
<line x1="25" y1="301.67" x2="1025" y2="301.67" stroke="#000000" stroke-width="0.5"/>
<text x="20" y="260" font-family="Arial" font-size="11pt" text-anchor="end" alignment-baseline="middle" fill="#000000">12</text>
<line x1="25" y1="260" x2="1025" y2="260" stroke="#000000" stroke-width="0.5"/>
<text x="20" y="218.33" font-family="Arial" font-size="11pt" text-anchor="end" alignment-baseline="middle" fill="#000000">14</text>
<line x1="25" y1="218.33" x2="1025" y2="218.33" stroke="#000000" stroke-width="0.5"/>
<text x="20" y="176.67" font-family="Arial" font-size="11pt" text-anchor="end" alignment-baseline="middle" fill="#000000">16</text>
<line x1="25" y1="176.67" x2="1025" y2="176.67" stroke="#000000" stroke-width="0.5"/>
<text x="20" y="135" font-family="Arial" font-size="11pt" text-anchor="end" alignment-baseline="middle" fill="#000000">18</text>
<line x1="25" y1="135" x2="1025" y2="135" stroke="#000000" stroke-width="0.5"/>
<text x="20" y="93.33" font-family="Arial" font-size="11pt" text-anchor="end" alignment-baseline="middle" fill="#000000">20</text>
<line x1="25" y1="93.33" x2="1025" y2="93.33" stroke="#000000" stroke-width="0.5"/>
<text x="20" y="51.67" font-family="Arial" font-size="11pt" text-anchor="end" alignment-baseline="middle" fill="#000000">22</text>
<line x1="25" y1="51.67" x2="1025" y2="51.67" stroke="#000000" stroke-width="0.5"/>
<text x="20" y="10" font-family="Arial" font-size="11pt" text-anchor="end" alignment-baseline="middle" fill="#000000">24</text>
<line x1="25" y1="10" x2="1025" y2="10" stroke="#000000" stroke-width="0.5"/>
<text x="67.47" y="522" font-family="Arial" font-size="11pt" text-anchor="middle" alignment-baseline="middle" fill="#000000">Jan</text>
<line x1="25" y1="10" x2="25" y2="510" stroke="#000000" stroke-width="0.5"/>
<text x="148.29" y="522" font-family="Arial" font-size="11pt" text-anchor="middle" alignment-baseline="middle" fill="#000000">Feb</text>
<line x1="109.93" y1="10" x2="109.93" y2="510" stroke="#000000" stroke-width="0.5"/>
<text x="229.11" y="522" font-family="Arial" font-size="11pt" text-anchor="middle" alignment-baseline="middle" fill="#000000">Mar</text>
<line x1="186.64" y1="10" x2="186.64" y2="510" stroke="#000000" stroke-width="0.5"/>
<text x="312.67" y="522" font-family="Arial" font-size="11pt" text-anchor="middle" alignment-baseline="middle" fill="#000000">Apr</text>
<line x1="271.58" y1="10" x2="271.58" y2="510" stroke="#000000" stroke-width="0.5"/>
<text x="396.23" y="522" font-family="Arial" font-size="11pt" text-anchor="middle" alignment-baseline="middle" fill="#000000">May</text>
<line x1="353.77" y1="10" x2="353.77" y2="510" stroke="#000000" stroke-width="0.5"/>
<text x="479.79" y="522" font-family="Arial" font-size="11pt" text-anchor="middle" alignment-baseline="middle" fill="#000000">Jun</text>
<line x1="438.7" y1="10" x2="438.7" y2="510" stroke="#000000" stroke-width="0.5"/>
<text x="563.36" y="522" font-family="Arial" font-size="11pt" text-anchor="middle" alignment-baseline="middle" fill="#000000">Jul</text>
<line x1="520.89" y1="10" x2="520.89" y2="510" stroke="#000000" stroke-width="0.5"/>
<text x="648.29" y="522" font-family="Arial" font-size="11pt" text-anchor="middle" alignment-baseline="middle" fill="#000000">Aug</text>
<line x1="605.82" y1="10" x2="605.82" y2="510" stroke="#000000" stroke-width="0.5"/>
<text x="731.85" y="522" font-family="Arial" font-size="11pt" text-anchor="middle" alignment-baseline="middle" fill="#000000">Sep</text>
<line x1="690.75" y1="10" x2="690.75" y2="510" stroke="#000000" stroke-width="0.5"/>
<text x="815.41" y="522" font-family="Arial" font-size="11pt" text-anchor="middle" alignment-baseline="middle" fill="#000000">Oct</text>
<line x1="772.95" y1="10" x2="772.95" y2="510" stroke="#000000" stroke-width="0.5"/>
<text x="898.97" y="522" font-family="Arial" font-size="11pt" text-anchor="middle" alignment-baseline="middle" fill="#000000">Nov</text>
<line x1="857.88" y1="10" x2="857.88" y2="510" stroke="#000000" stroke-width="0.5"/>
<text x="982.53" y="522" font-family="Arial" font-size="11pt" text-anchor="middle" alignment-baseline="middle" fill="#000000">Dec</text>
<line x1="940.07" y1="10" x2="940.07" y2="510" stroke="#000000" stroke-width="0.5"/>
<line x1="1025" y1="10" x2="1025" y2="510" stroke="#000000" stroke-width="0.5"/>
</svg>