<svg xmlns="http://www.w3.org/2000/svg" width="1135" height="585" viewBox="0 0 1135 585">
<rect x="0" y="0" width="1135" height="585" fill="#ffffff" stroke="none" stroke-width="0"/>
<polygon points="25,357.51 25,125.37 28.01,125.37 28.01,98.93 31.03,98.93 31.03,72.88 34.04,72.88 34.04,47.23 37.05,47.23 37.05,21.68 40.07,21.68 40.07,10 82.26,10 82.26,30.46 79.25,30.46 79.25,51.78 76.23,51.78 76.23,73.4 73.22,73.4 73.22,95.76 70.21,95.76 70.21,119.24 67.19,119.24 67.19,143.97 64.18,143.97 64.18,169.63 61.16,169.63 61.16,195.26 58.15,195.26 58.15,219.38 55.14,219.38 55.14,240.71 52.12,240.71 52.12,258.75 49.11,258.75 49.11,273.83 46.1,273.83 46.1,286.68 43.08,286.68 43.08,298.09 40.07,298.09 40.07,308.78 37.05,308.78 37.05,319.42 34.04,319.42 34.04,330.65 31.03,330.65 31.03,343.12 28.01,343.12 28.01,357.51" fill="#80c0ff" stroke="none" stroke-width="0"/>
<polygon points="43.08,560 43.08,545.78 46.1,545.78 46.1,519.17 49.11,519.17 49.11,491.83 52.12,491.83 52.12,464.33 55.14,464.33 55.14,437.92 58.15,437.92 58.15,414.1 61.16,414.1 61.16,393.83 64.18,393.83 64.18,377.16 67.19,377.16 67.19,363.5 70.21,363.5 70.21,352.04 73.22,352.04 73.22,342.06 76.23,342.06 76.23,332.95 79.25,332.95 79.25,324.19 82.26,324.19 82.26,315.3 85.27,315.3 85.27,305.81 88.29,305.81 88.29,295.18 91.3,295.18 91.3,282.79 94.32,282.79 94.32,267.96 97.33,267.96 97.33,250.04 100.34,250.04 100.34,228.72 103.36,228.72 103.36,204.38 106.37,204.38 106.37,178.03 109.38,178.03 109.38,150.91 112.4,150.91 112.4,123.89 115.41,123.89 115.41,97.3 118.42,97.3 118.42,71.03 121.44,71.03 121.44,44.72 124.45,44.72 124.45,18.04 127.47,18.04 127.47,10 172.67,10 172.67,14.78 169.66,14.78 169.66,37.1 166.64,37.1 166.64,58.88 163.63,58.88 163.63,80.36 160.62,80.36 160.62,101.89 157.6,101.89 157.6,123.88 154.59,123.88 154.59,146.7 151.58,146.7 151.58,170.59 148.56,170.59 148.56,195.48 145.55,195.48 145.55,220.83 142.53,220.83 142.53,245.54 139.52,245.54 139.52,268.29 136.51,268.29 136.51,288.15 133.49,288.15 133.49,304.98 130.48,304.98 130.48,319.22 127.47,319.22 127.47,331.6 124.45,331.6 124.45,342.87 121.44,342.87 121.44,353.72 118.42,353.72 118.42,364.78 115.41,364.78 115.41,376.71 112.4,376.71 112.4,390.17 109.38,390.17 109.38,405.81 106.37,405.81 106.37,424.04 103.36,424.04 103.36,444.81 100.34,444.81 100.34,467.45 97.33,467.45 97.33,490.91 94.32,490.91 94.32,514.27 91.3,514.27 91.3,536.99 88.29,536.99 88.29,558.99 85.27,558.99 85.27,560 46.1,560" fill="#80c0ff" stroke="none" stroke-width="0"/>
<polygon points="130.48,560 130.48,540.89 133.49,540.89 133.49,513.63 136.51,513.63 136.51,487.22 139.52,487.22 139.52,463 142.53,463 142.53,441.99 145.55,441.99 145.55,424.45 148.56,424.45 148.56,409.99 151.58,409.99 151.58,397.9 154.59,397.9 154.59,387.48 157.6,387.48 157.6,378.09 160.62,378.09 160.62,369.23 163.63,369.23 163.63,360.42 166.64,360.42 166.64,351.23 169.66,351.23 169.66,341.17 172.67,341.17 172.67,329.69 175.68,329.69 175.68,316.16 178.7,316.16 178.7,299.93 181.71,299.93 181.71,280.52 184.73,280.52 184.73,257.88 187.74,257.88 187.74,232.63 190.75,232.63 190.75,205.82 193.77,205.82 193.77,178.45 196.78,178.45 196.78,151.12 199.79,151.12 199.79,123.96 202.81,123.96 202.81,96.75 205.82,96.75 205.82,69.21 208.84,69.21 208.84,41.26 211.85,41.26 211.85,13.19 214.86,13.19 214.86,10 257.05,10 257.05,18.76 254.04,18.76 254.04,41.37 251.03,41.37 251.03,63.49 248.01,63.49 248.01,85.16 245,85.16 245,106.63 241.99,106.63 241.99,128.22 238.97,128.22 238.97,150.31 235.96,150.31 235.96,173.22 232.95,173.22 232.95,197.11 229.93,197.11 229.93,221.84 226.92,221.84 226.92,269.72 223.9,269.72 223.9,293.79 220.89,293.79 220.89,315.77 217.88,315.77 217.88,334.91 214.86,334.91 214.86,351.19 211.85,351.19 211.85,365.12 208.84,365.12 208.84,377.43 205.82,377.43 205.82,388.84 202.81,388.84 202.81,400.04 199.79,400.04 199.79,411.68 196.78,411.68 196.78,424.41 193.77,424.41 193.77,438.86 190.75,438.86 190.75,455.57 187.74,455.57 187.74,474.73 184.73,474.73 184.73,496.06 181.71,496.06 181.71,518.75 178.7,518.75 178.7,541.89 175.68,541.89 175.68,560 133.49,560" fill="#80c0ff" stroke="none" stroke-width="0"/>
<polygon points="217.88,560 217.88,535.93 220.89,535.93 220.89,510.79 223.9,510.79 223.9,488.86 226.92,488.86 226.92,447.61 229.93,447.61 229.93,432.51 232.95,432.51 232.95,419.96 235.96,419.96 235.96,409.23 238.97,409.23 238.97,399.66 241.99,399.66 241.99,390.74 245,390.74 245,382 248.01,382 248.01,373.01 251.03,373.01 251.03,363.33 254.04,363.33 254.04,352.47 257.05,352.47 257.05,339.87 260.07,339.87 260.07,324.94 263.08,324.94 263.08,307.18 266.1,307.18 266.1,286.38 269.11,286.38 269.11,262.85 272.12,262.85 272.12,237.36 275.14,237.36 275.14,210.82 278.15,210.82 278.15,183.86 281.16,183.86 281.16,156.74 284.18,156.74 284.18,129.33 287.19,129.33 287.19,101.38 290.21,101.38 290.21,72.7 293.22,72.7 293.22,43.5 296.23,43.5 296.23,14.65 299.25,14.65 299.25,10 344.45,10 344.45,22.09 341.44,22.09 341.44,44.75 338.42,44.75 338.42,67.57 335.41,67.57 335.41,90.04 332.4,90.04 332.4,111.99 329.38,111.99 329.38,133.5 326.37,133.5 326.37,154.85 323.36,154.85 323.36,176.38 320.34,176.38 320.34,198.49 317.33,198.49 317.33,221.5 314.32,221.5 314.32,245.59 311.3,245.59 311.3,270.57 308.29,270.57 308.29,295.71 305.27,295.71 305.27,319.76 302.26,319.76 302.26,341.47 299.25,341.47 299.25,360.16 296.23,360.16 296.23,375.98 293.22,375.98 293.22,389.57 290.21,389.57 290.21,401.7 287.19,401.7 287.19,413.12 284.18,413.12 284.18,424.51 281.16,424.51 281.16,436.51 278.15,436.51 278.15,449.76 275.14,449.76 275.14,464.84 272.12,464.84 272.12,482.16 269.11,482.16 269.11,501.77 266.1,501.77 266.1,523.27 263.08,523.27 263.08,545.87 260.07,545.87 260.07,560 220.89,560" fill="#80c0ff" stroke="none" stroke-width="0"/>
<polygon points="302.26,560 302.26,537.63 305.27,537.63 305.27,513.87 308.29,513.87 308.29,494.04 311.3,494.04 311.3,477.88 314.32,477.88 314.32,464.63 317.33,464.63 317.33,453.47 320.34,453.47 320.34,443.68 323.36,443.68 323.36,434.68 326.37,434.68 326.37,425.98 329.38,425.98 329.38,417.15 332.4,417.15 332.4,407.75 335.41,407.75 335.41,397.31 338.42,397.31 338.42,385.33 341.44,385.33 341.44,371.24 344.45,371.24 344.45,354.56 347.47,354.56 347.47,335.06 350.48,335.06 350.48,312.92 353.49,312.92 353.49,288.77 356.51,288.77 356.51,263.44 359.52,263.44 359.52,237.56 362.53,237.56 362.53,211.41 365.55,211.41 365.55,184.9 368.56,184.9 368.56,157.72 371.58,157.72 371.58,129.51 374.59,129.51 374.59,100.21 377.6,100.21 377.6,70.35 380.62,70.35 380.62,41.36 383.63,41.36 383.63,15.08 386.64,15.08 386.64,10 431.85,10 431.85,27.72 428.84,27.72 428.84,48.27 425.82,48.27 425.82,70.4 422.81,70.4 422.81,93.24 419.79,93.24 419.79,116.03 416.78,116.03 416.78,138.33 413.77,138.33 413.77,160.06 410.75,160.06 410.75,181.4 407.74,181.4 407.74,202.69 404.73,202.69 404.73,224.34 401.71,224.34 401.71,246.79 398.7,246.79 398.7,270.41 395.68,270.41 395.68,295.33 392.67,295.33 392.67,321.19 389.66,321.19 389.66,346.93 386.64,346.93 386.64,370.99 383.63,370.99 383.63,392.09 380.62,392.09 380.62,409.85 377.6,409.85 377.6,424.74 374.59,424.74 374.59,437.58 371.58,437.58 371.58,449.18 368.56,449.18 368.56,460.3 365.55,460.3 365.55,471.59 362.53,471.59 362.53,483.69 359.52,483.69 359.52,497.19 356.51,497.19 356.51,512.64 353.49,512.64 353.49,530.38 350.48,530.38 350.48,550.36 347.47,550.36 347.47,560 305.27,560" fill="#80c0ff" stroke="none" stroke-width="0"/>
<polygon points="389.66,560 389.66,542.84 392.67,542.84 392.67,524.79 395.68,524.79 395.68,510.23 398.7,510.23 398.7,498.24 401.71,498.24 401.71,487.96 404.73,487.96 404.73,478.71 407.74,478.71 407.74,469.94 410.75,469.94 410.75,461.18 413.77,461.18 413.77,451.99 416.78,451.99 416.78,441.9 419.79,441.9 419.79,430.4 422.81,430.4 422.81,416.94 425.82,416.94 425.82,401 428.84,401 428.84,382.3 431.85,382.3 431.85,360.95 434.86,360.95 434.86,337.56 437.88,337.56 437.88,312.96 440.89,312.96 440.89,287.88 443.9,287.88 443.9,262.67 446.92,262.67 446.92,237.3 449.93,237.3 449.93,211.45 452.95,211.45 452.95,184.66 455.96,184.66 455.96,156.59 458.97,156.59 458.97,127.31 461.99,127.31 461.99,97.69 465,97.69 465,69.51 468.01,69.51 468.01,44.68 471.03,44.68 471.03,24.16 474.04,24.16 474.04,10 525.27,10 525.27,12.51 522.26,12.51 522.26,25.02 519.25,25.02 519.25,39.4 516.23,39.4 516.23,56.11 513.22,56.11 513.22,75.29 510.21,75.29 510.21,96.55 507.19,96.55 507.19,119.12 504.18,119.12 504.18,142.06 501.16,142.06 501.16,164.71 498.15,164.71 498.15,186.8 495.14,186.8 495.14,208.37 492.12,208.37 492.12,229.72 489.11,229.72 489.11,251.25 486.1,251.25 486.1,273.45 483.08,273.45 483.08,296.79 480.07,296.79 480.07,321.59 477.05,321.59 477.05,347.78 474.04,347.78 474.04,374.57 471.03,374.57 471.03,400.4 468.01,400.4 468.01,423.54 465,423.54 465,443.11 461.99,443.11 461.99,459.27 458.97,459.27 458.97,472.83 455.96,472.83 455.96,484.68 452.95,484.68 452.95,495.62 449.93,495.62 449.93,506.35 446.92,506.35 446.92,517.5 443.9,517.5 443.9,529.68 440.89,529.68 440.89,543.47 437.88,543.47 437.88,559.4 434.86,559.4 434.86,560 392.67,560" fill="#80c0ff" stroke="none" stroke-width="0"/>
<polygon points="477.05,560 477.05,557.68 480.07,557.68 480.07,544.33 483.08,544.33 483.08,533.18 486.1,533.18 486.1,523.41 489.11,523.41 489.11,514.38 492.12,514.38 492.12,505.58 495.14,505.58 495.14,496.52 498.15,496.52 498.15,486.74 501.16,486.74 501.16,475.71 504.18,475.71 504.18,462.88 507.19,462.88 507.19,447.66 510.21,447.66 510.21,429.67 513.22,429.67 513.22,408.87 516.23,408.87 516.23,385.79 519.25,385.79 519.25,361.33 522.26,361.33 522.26,336.35 525.27,336.35 525.27,311.39 528.29,311.39 528.29,286.54 531.3,286.54 531.3,261.55 534.32,261.55 534.32,236 537.33,236 537.33,209.42 540.34,209.42 540.34,181.57 543.36,181.57 543.36,152.79 546.37,152.79 546.37,124.29 549.38,124.29 549.38,97.93 552.4,97.93 552.4,75.28 555.41,75.28 555.41,56.76 558.42,56.76 558.42,41.82 561.44,41.82 561.44,29.52 564.45,29.52 564.45,18.99 567.47,18.99 567.47,10 618.7,10 618.7,14.12 615.68,14.12 615.68,24.79 612.67,24.79 612.67,35.18 609.66,35.18 609.66,45.92 606.64,45.92 606.64,57.59 603.63,57.59 603.63,70.8 600.62,70.8 600.62,86.1 597.6,86.1 597.6,103.84 594.59,103.84 594.59,123.95 591.58,123.95 591.58,145.86 588.56,145.86 588.56,168.67 585.55,168.67 585.55,191.54 582.53,191.54 582.53,214 579.52,214 579.52,235.94 576.51,235.94 576.51,257.54 573.49,257.54 573.49,279.19 570.48,279.19 570.48,301.33 567.47,301.33 567.47,324.47 564.45,324.47 564.45,349 561.44,349 561.44,375.05 558.42,375.05 558.42,402.13 555.41,402.13 555.41,428.91 552.4,428.91 552.4,453.59 549.38,453.59 549.38,474.81 546.37,474.81 546.37,492.35 543.36,492.35 543.36,506.85 540.34,506.85 540.34,519.19 537.33,519.19 537.33,530.24 534.32,530.24 534.32,540.72 531.3,540.72 531.3,551.27 528.29,551.27 528.29,560 480.07,560" fill="#80c0ff" stroke="none" stroke-width="0"/>
<polygon points="570.48,560 570.48,559.53 573.49,559.53 573.49,550.54 576.51,550.54 576.51,541.52 579.52,541.52 579.52,531.99 582.53,531.99 582.53,521.44 585.55,521.44 585.55,509.3 588.56,509.3 588.56,494.96 591.58,494.96 591.58,477.91 594.59,477.91 594.59,457.91 597.6,457.91 597.6,435.25 600.62,435.25 600.62,410.77 603.63,410.77 603.63,385.46 606.64,385.46 606.64,360.09 609.66,360.09 609.66,334.95 612.67,334.95 612.67,309.96 615.68,309.96 615.68,284.76 618.7,284.76 618.7,258.93 621.71,258.93 621.71,232.12 624.73,232.12 624.73,204.4 627.74,204.4 627.74,176.48 630.75,176.48 630.75,149.83 633.77,149.83 633.77,126.07 636.78,126.07 636.78,106.09 639.79,106.09 639.79,89.77 642.81,89.77 642.81,76.39 645.82,76.39 645.82,65.09 648.84,65.09 648.84,55.12 651.85,55.12 651.85,45.86 654.86,45.86 654.86,36.8 657.88,36.8 657.88,27.45 660.89,27.45 660.89,17.32 663.9,17.32 663.9,10 709.11,10 709.11,19.79 706.1,19.79 706.1,34.68 703.08,34.68 703.08,47.41 700.07,47.41 700.07,58.76 697.05,58.76 697.05,69.45 694.04,69.45 694.04,80.1 691.03,80.1 691.03,91.33 688.01,91.33 688.01,103.71 685,103.71 685,117.84 681.99,117.84 681.99,134.19 678.97,134.19 678.97,152.94 675.96,152.94 675.96,173.81 672.95,173.81 672.95,196.08 669.93,196.08 669.93,218.9 666.92,218.9 666.92,241.6 663.9,241.6 663.9,263.91 660.89,263.91 660.89,285.86 657.88,285.86 657.88,307.7 654.86,307.7 654.86,329.83 651.85,329.83 651.85,352.7 648.84,352.7 648.84,376.74 645.82,376.74 645.82,402.17 642.81,402.17 642.81,428.8 639.79,428.8 639.79,455.72 636.78,455.72 636.78,481.36 633.77,481.36 633.77,504.14 630.75,504.14 630.75,523.34 627.74,523.34 627.74,539.21 624.73,539.21 624.73,552.52 621.71,552.52 621.71,560 573.49,560" fill="#80c0ff" stroke="none" stroke-width="0"/>
<polygon points="666.92,560 666.92,555.87 669.93,555.87 669.93,542.51 672.95,542.51 672.95,526.66 675.96,526.66 675.96,507.89 678.97,507.89 678.97,486.22 681.99,486.22 681.99,462.21 685,462.21 685,436.8 688.01,436.8 688.01,410.93 691.03,410.93 691.03,385.13 694.04,385.13 694.04,359.51 697.05,359.51 697.05,333.87 700.07,333.87 700.07,307.85 703.08,307.85 703.08,281.14 706.1,281.14 706.1,253.69 709.11,253.69 709.11,226.02 712.12,226.02 712.12,199.3 715.14,199.3 715.14,175.02 718.15,175.02 718.15,154.21 721.16,154.21 721.16,137 724.18,137 724.18,122.83 727.19,122.83 727.19,110.94 730.21,110.94 730.21,100.56 733.22,100.56 733.22,91.08 736.23,91.08 736.23,81.96 739.25,81.96 739.25,72.74 742.26,72.74 742.26,62.94 745.27,62.94 745.27,52.07 748.29,52.07 748.29,39.6 751.3,39.6 751.3,24.94 754.32,24.94 754.32,10 796.51,10 796.51,28.54 793.49,28.54 793.49,48.84 790.48,48.84 790.48,65.96 787.47,65.96 787.47,80.39 784.45,80.39 784.45,92.91 781.44,92.91 781.44,104.28 778.42,104.28 778.42,115.17 775.41,115.17 775.41,126.22 772.4,126.22 772.4,138.02 769.38,138.02 769.38,151.16 766.37,151.16 766.37,166.16 763.36,166.16 763.36,183.39 760.34,183.39 760.34,202.87 757.33,202.87 757.33,224.16 754.32,224.16 754.32,246.54 751.3,246.54 751.3,269.26 748.29,269.26 748.29,291.83 745.27,291.83 745.27,314.09 742.26,314.09 742.26,336.12 739.25,336.12 739.25,358.2 736.23,358.2 736.23,380.72 733.22,380.72 733.22,404.05 730.21,404.05 730.21,428.51 727.19,428.51 727.19,454.15 724.18,454.15 724.18,480.54 721.16,480.54 721.16,506.58 718.15,506.58 718.15,530.79 715.14,530.79 715.14,551.97 712.12,551.97 712.12,560 669.93,560" fill="#80c0ff" stroke="none" stroke-width="0"/>
<polygon points="757.33,560 757.33,557.61 760.34,557.61 760.34,537.4 763.36,537.4 763.36,514.58 766.37,514.58 766.37,489.87 769.38,489.87 769.38,464.14 772.4,464.14 772.4,438.07 775.41,438.07 775.41,411.96 778.42,411.96 778.42,385.73 781.44,385.73 781.44,359.12 784.45,359.12 784.45,331.85 787.47,331.85 787.47,303.84 790.48,303.84 790.48,275.55 793.49,275.55 793.49,248.08 796.51,248.08 796.51,222.9 799.52,222.9 799.52,201.17 802.53,201.17 802.53,183.15 805.55,183.15 805.55,168.37 808.56,168.37 808.56,156.03 811.58,156.03 811.58,145.38 814.59,145.38 814.59,135.75 817.6,135.75 817.6,126.62 820.62,126.62 820.62,117.51 823.63,117.51 823.63,107.98 826.64,107.98 826.64,97.56 829.66,97.56 829.66,85.76 832.67,85.76 832.67,72.05 835.68,72.05 835.68,55.96 838.7,55.96 838.7,37.19 841.71,37.19 841.71,15.84 844.73,15.84 844.73,10 883.9,10 883.9,28.79 880.89,28.79 880.89,54.12 877.88,54.12 877.88,77.13 874.86,77.13 874.86,96.92 871.85,96.92 871.85,113.5 868.84,113.5 868.84,127.51 865.82,127.51 865.82,139.76 862.81,139.76 862.81,151.04 859.79,151.04 859.79,162.02 856.78,162.02 856.78,173.32 853.77,173.32 853.77,185.53 850.75,185.53 850.75,199.2 847.74,199.2 847.74,214.81 844.73,214.81 844.73,232.63 841.71,232.63 841.71,252.55 838.7,252.55 838.7,274.08 835.68,274.08 835.68,296.51 832.67,296.51 832.67,319.18 829.66,319.18 829.66,341.66 826.64,341.66 826.64,363.85 823.63,363.85 823.63,385.87 820.62,385.87 820.62,407.99 817.6,407.99 817.6,430.56 814.59,430.56 814.59,453.95 811.58,453.95 811.58,478.41 808.56,478.41 808.56,503.89 805.55,503.89 805.55,529.87 802.53,529.87 802.53,555.22 799.52,555.22 799.52,560 760.34,560" fill="#80c0ff" stroke="none" stroke-width="0"/>
<polygon points="847.74,560 847.74,542.41 850.75,542.41 850.75,517.64 853.77,517.64 853.77,492.19 856.78,492.19 856.78,466.4 859.79,466.4 859.79,440.3 862.81,440.3 862.81,413.65 865.82,413.65 865.82,386.14 868.84,386.14 868.84,357.58 871.85,357.58 871.85,328.29 874.86,328.29 874.86,299.31 877.88,299.31 877.88,272.32 880.89,272.32 880.89,248.84 883.9,248.84 883.9,229.42 886.92,229.42 886.92,213.66 889.93,213.66 889.93,200.71 892.95,200.71 892.95,189.7 895.96,189.7 895.96,179.91 898.97,179.91 898.97,170.76 901.99,170.76 901.99,161.75 905,161.75 905,152.44 908.01,152.44 908.01,142.38 911.03,142.38 911.03,131.08 914.04,131.08 914.04,118.06 917.05,118.06 917.05,102.84 920.07,102.84 920.07,85.12 923.08,85.12 923.08,64.92 926.1,64.92 926.1,42.66 929.11,42.66 929.11,19 932.12,19 932.12,10 974.32,10 974.32,23.99 971.3,23.99 971.3,49.45 968.29,49.45 968.29,76.15 965.27,76.15 965.27,103.11 962.26,103.11 962.26,128.63 959.25,128.63 959.25,151.09 956.23,151.09 956.23,169.9 953.22,169.9 953.22,185.44 950.21,185.44 950.21,198.59 947.19,198.59 947.19,210.22 944.18,210.22 944.18,198.19 941.16,198.19 941.16,208.99 938.15,208.99 938.15,220.3 935.14,220.3 935.14,232.69 932.12,232.69 932.12,246.69 929.11,246.69 929.11,262.74 926.1,262.74 926.1,281.03 923.08,281.03 923.08,301.37 920.07,301.37 920.07,323.17 917.05,323.17 917.05,345.69 914.04,345.69 914.04,368.3 911.03,368.3 911.03,390.64 908.01,390.64 908.01,412.64 905,412.64 905,434.48 901.99,434.48 901.99,456.45 898.97,456.45 898.97,478.95 895.96,478.95 895.96,502.37 892.95,502.37 892.95,526.96 889.93,526.96 889.93,552.64 886.92,552.64 886.92,560 850.75,560" fill="#80c0ff" stroke="none" stroke-width="0"/>
<polygon points="935.14,560 935.14,544.58 938.15,544.58 938.15,519.8 941.16,519.8 941.16,494.68 944.18,494.68 944.18,491.92 947.19,491.92 947.19,465.28 950.21,465.28 950.21,437.31 953.22,437.31 953.22,407.96 956.23,407.96 956.23,377.91 959.25,377.91 959.25,348.81 962.26,348.81 962.26,322.69 965.27,322.69 965.27,300.84 968.29,300.84 968.29,283.24 971.3,283.24 971.3,269.05 974.32,269.05 974.32,257.28 977.33,257.28 977.33,247.07 980.34,247.07 980.34,237.73 983.36,237.73 983.36,228.72 986.37,228.72 986.37,219.56 989.38,219.56 989.38,209.79 992.4,209.79 992.4,198.92 995.41,198.92 995.41,186.45 998.42,186.45 998.42,171.89 1001.44,171.89 1001.44,154.89 1004.45,154.89 1004.45,135.41 1007.47,135.41 1007.47,113.8 1010.48,113.8 1010.48,90.76 1013.49,90.76 1013.49,67.02 1016.51,67.02 1016.51,43.03 1019.52,43.03 1019.52,18.94 1022.53,18.94 1022.53,10 1061.71,10 1061.71,26.27 1058.7,26.27 1058.7,50.08 1055.68,50.08 1055.68,75.49 1052.67,75.49 1052.67,102.56 1049.66,102.56 1049.66,130.59 1046.64,130.59 1046.64,157.93 1043.63,157.93 1043.63,182.57 1040.62,182.57 1040.62,203.31 1037.6,203.31 1037.6,220.23 1034.59,220.23 1034.59,234.18 1031.58,234.18 1031.58,246.13 1028.56,246.13 1028.56,256.94 1025.55,256.94 1025.55,267.31 1022.53,267.31 1022.53,277.85 1019.52,277.85 1019.52,289.14 1016.51,289.14 1016.51,301.72 1013.49,301.72 1013.49,316.12 1010.48,316.12 1010.48,332.72 1007.47,332.72 1007.47,351.62 1004.45,351.62 1004.45,372.47 1001.44,372.47 1001.44,394.58 998.42,394.58 998.42,417.16 995.41,417.16 995.41,439.63 992.4,439.63 992.4,461.73 989.38,461.73 989.38,483.5 986.37,483.5 986.37,505.19 983.36,505.19 983.36,527.2 980.34,527.2 980.34,549.99 977.33,549.99 977.33,560 938.15,560" fill="#80c0ff" stroke="none" stroke-width="0"/>
<polygon points="1025.55,560 1025.55,544.54 1028.56,544.54 1028.56,519.42 1031.58,519.42 1031.58,493.11 1034.59,493.11 1034.59,465.21 1037.6,465.21 1037.6,435.84 1040.62,435.84 1040.62,406.01 1043.63,406.01 1043.63,377.71 1046.64,377.71 1046.64,353 1049.66,353 1049.66,332.74 1052.67,332.74 1052.67,316.54 1055.68,316.54 1055.68,303.39 1058.7,303.39 1058.7,292.3 1061.71,292.3 1061.71,282.46 1064.73,282.46 1064.73,273.21 1067.74,273.21 1067.74,264.04 1070.75,264.04 1070.75,254.46 1073.77,254.46 1073.77,243.95 1076.78,243.95 1076.78,232.02 1079.79,232.02 1079.79,218.13 1082.81,218.13 1082.81,201.83 1085.82,201.83 1085.82,182.95 1088.84,182.95 1088.84,161.75 1091.85,161.75 1091.85,138.87 1094.86,138.87 1094.86,115.17 1097.88,115.17 1097.88,91.27 1100.89,91.27 1100.89,67.46 1103.9,67.46 1103.9,43.68 1106.92,43.68 1106.92,19.59 1109.93,19.59 1109.93,10 1125,10 1125,235.36 1121.99,235.36 1121.99,253.61 1118.97,253.61 1118.97,268.47 1115.96,268.47 1115.96,280.93 1112.95,280.93 1112.95,291.89 1109.93,291.89 1109.93,302.1 1106.92,302.1 1106.92,312.18 1103.9,312.18 1103.9,322.7 1100.89,322.7 1100.89,334.22 1097.88,334.22 1097.88,347.26 1094.86,347.26 1094.86,362.33 1091.85,362.33 1091.85,379.72 1088.84,379.72 1088.84,399.36 1085.82,399.36 1085.82,420.74 1082.81,420.74 1082.81,443.07 1079.79,443.07 1079.79,465.61 1076.78,465.61 1076.78,487.92 1073.77,487.92 1073.77,509.87 1070.75,509.87 1070.75,531.66 1067.74,531.66 1067.74,553.63 1064.73,553.63 1064.73,560 1028.56,560" fill="#80c0ff" stroke="none" stroke-width="0"/>
<polygon points="1112.95,560 1112.95,544.73 1115.96,544.73 1115.96,518.62 1118.97,518.62 1118.97,491.02 1121.99,491.02 1121.99,462.27 1125,462.27 1125,560 1115.96,560" fill="#80c0ff" stroke="none" stroke-width="0"/>
<polygon points="25,560 25,407.9 28.01,407.9 28.01,407.83 31.03,407.83 31.03,407.76 34.04,407.76 34.04,407.71 37.05,407.71 37.05,407.67 40.07,407.67 40.07,407.65 43.08,407.65 43.08,407.63 46.1,407.63 46.1,407.62 49.11,407.62 49.11,407.63 52.12,407.63 52.12,407.65 55.14,407.65 55.14,407.68 58.15,407.68 58.15,407.72 61.16,407.72 61.16,407.77 64.18,407.77 64.18,407.84 67.19,407.84 67.19,407.91 70.21,407.91 70.21,408 73.22,408 73.22,408.1 76.23,408.1 76.23,408.21 79.25,408.21 79.25,408.33 82.26,408.33 82.26,408.46 85.27,408.46 85.27,408.6 88.29,408.6 88.29,408.75 91.3,408.75 91.3,408.92 94.32,408.92 94.32,409.1 97.33,409.1 97.33,409.28 100.34,409.28 100.34,409.48 103.36,409.48 103.36,409.69 106.37,409.69 106.37,409.9 109.38,409.9 109.38,410.13 112.4,410.13 112.4,410.37 115.41,410.37 115.41,410.62 118.42,410.62 118.42,410.88 121.44,410.88 121.44,411.15 124.45,411.15 124.45,411.42 127.47,411.42 127.47,411.71 130.48,411.71 130.48,412.01 133.49,412.01 133.49,412.31 136.51,412.31 136.51,412.63 139.52,412.63 139.52,412.95 142.53,412.95 142.53,413.29 145.55,413.29 145.55,413.63 148.56,413.63 148.56,413.98 151.58,413.98 151.58,414.34 154.59,414.34 154.59,414.71 157.6,414.71 157.6,415.08 160.62,415.08 160.62,415.46 163.63,415.46 163.63,415.85 166.64,415.85 166.64,416.25 169.66,416.25 169.66,416.65 172.67,416.65 172.67,417.06 175.68,417.06 175.68,417.48 178.7,417.48 178.7,417.9 181.71,417.9 181.71,418.33 184.73,418.33 184.73,418.77 187.74,418.77 187.74,419.21 190.75,419.21 190.75,419.66 193.77,419.66 193.77,420.11 196.78,420.11 196.78,420.57 199.79,420.57 199.79,421.03 202.81,421.03 202.81,421.5 205.82,421.5 205.82,421.97 208.84,421.97 208.84,422.45 211.85,422.45 211.85,422.94 214.86,422.94 214.86,423.42 217.88,423.42 217.88,423.91 220.89,423.91 220.89,424.41 223.9,424.41 223.9,424.91 226.92,424.91 226.92,402.49 229.93,402.49 229.93,403 232.95,403 232.95,403.51 235.96,403.51 235.96,404.02 238.97,404.02 238.97,404.54 241.99,404.54 241.99,405.06 245,405.06 245,405.58 248.01,405.58 248.01,406.1 251.03,406.1 251.03,406.62 254.04,406.62 254.04,407.15 257.05,407.15 257.05,407.68 260.07,407.68 260.07,408.21 263.08,408.21 263.08,408.74 266.1,408.74 266.1,409.27 269.11,409.27 269.11,409.8 272.12,409.8 272.12,410.34 275.14,410.34 275.14,410.87 278.15,410.87 278.15,411.4 281.16,411.4 281.16,411.94 284.18,411.94 284.18,412.47 287.19,412.47 287.19,413 290.21,413 290.21,413.54 293.22,413.54 293.22,414.07 296.23,414.07 296.23,414.6 299.25,414.6 299.25,415.13 302.26,415.13 302.26,415.66 305.27,415.66 305.27,416.19 308.29,416.19 308.29,416.72 311.3,416.72 311.3,417.25 314.32,417.25 314.32,417.77 317.33,417.77 317.33,418.29 320.34,418.29 320.34,418.81 323.36,418.81 323.36,419.33 326.37,419.33 326.37,419.84 329.38,419.84 329.38,420.36 332.4,420.36 332.4,420.87 335.41,420.87 335.41,421.37 338.42,421.37 338.42,421.87 341.44,421.87 341.44,422.37 344.45,422.37 344.45,422.87 347.47,422.87 347.47,423.36 350.48,423.36 350.48,423.84 353.49,423.84 353.49,424.33 356.51,424.33 356.51,424.8 359.52,424.8 359.52,425.28 362.53,425.28 362.53,425.74 365.55,425.74 365.55,426.2 368.56,426.2 368.56,426.66 371.58,426.66 371.58,427.11 374.59,427.11 374.59,427.56 377.6,427.56 377.6,428 380.62,428 380.62,428.43 383.63,428.43 383.63,428.86 386.64,428.86 386.64,429.28 389.66,429.28 389.66,429.69 392.67,429.69 392.67,430.1 395.68,430.1 395.68,430.5 398.7,430.5 398.7,430.89 401.71,430.89 401.71,431.27 404.73,431.27 404.73,431.65 407.74,431.65 407.74,432.02 410.75,432.02 410.75,432.38 413.77,432.38 413.77,432.74 416.78,432.74 416.78,433.08 419.79,433.08 419.79,433.42 422.81,433.42 422.81,433.75 425.82,433.75 425.82,434.07 428.84,434.07 428.84,434.38 431.85,434.38 431.85,434.68 434.86,434.68 434.86,434.97 437.88,434.97 437.88,435.25 440.89,435.25 440.89,435.52 443.9,435.52 443.9,435.79 446.92,435.79 446.92,436.04 449.93,436.04 449.93,436.28 452.95,436.28 452.95,436.51 455.96,436.51 455.96,436.73 458.97,436.73 458.97,436.94 461.99,436.94 461.99,437.14 465,437.14 465,437.33 468.01,437.33 468.01,437.51 471.03,437.51 471.03,437.68 474.04,437.68 474.04,437.84 477.05,437.84 477.05,437.98 480.07,437.98 480.07,438.12 483.08,438.12 483.08,438.24 486.1,438.24 486.1,438.35 489.11,438.35 489.11,438.46 492.12,438.46 492.12,438.55 495.14,438.55 495.14,438.63 498.15,438.63 498.15,438.7 501.16,438.7 501.16,438.75 504.18,438.75 504.18,438.8 507.19,438.8 507.19,438.84 510.21,438.84 510.21,438.86 513.22,438.86 513.22,438.87 516.23,438.87 516.23,438.88 519.25,438.88 519.25,438.87 522.26,438.87 522.26,438.85 525.27,438.85 525.27,438.82 528.29,438.82 528.29,438.78 531.3,438.78 531.3,438.73 534.32,438.73 534.32,438.66 537.33,438.66 537.33,438.59 540.34,438.59 540.34,438.51 543.36,438.51 543.36,438.42 546.37,438.42 546.37,438.31 549.38,438.31 549.38,438.2 552.4,438.2 552.4,438.08 555.41,438.08 555.41,437.95 558.42,437.95 558.42,437.81 561.44,437.81 561.44,437.66 564.45,437.66 564.45,437.5 567.47,437.5 567.47,437.34 570.48,437.34 570.48,437.16 573.49,437.16 573.49,436.98 576.51,436.98 576.51,436.79 579.52,436.79 579.52,436.59 582.53,436.59 582.53,436.39 585.55,436.39 585.55,436.18 588.56,436.18 588.56,435.96 591.58,435.96 591.58,435.74 594.59,435.74 594.59,435.51 597.6,435.51 597.6,435.27 600.62,435.27 600.62,435.03 603.63,435.03 603.63,434.78 606.64,434.78 606.64,434.53 609.66,434.53 609.66,434.28 612.67,434.28 612.67,434.01 615.68,434.01 615.68,433.75 618.7,433.75 618.7,433.48 621.71,433.48 621.71,433.2 624.73,433.2 624.73,432.92 627.74,432.92 627.74,432.64 630.75,432.64 630.75,432.35 633.77,432.35 633.77,432.06 636.78,432.06 636.78,431.77 639.79,431.77 639.79,431.48 642.81,431.48 642.81,431.18 645.82,431.18 645.82,430.88 648.84,430.88 648.84,430.58 651.85,430.58 651.85,430.28 654.86,430.28 654.86,429.97 657.88,429.97 657.88,429.67 660.89,429.67 660.89,429.36 663.9,429.36 663.9,429.06 666.92,429.06 666.92,428.75 669.93,428.75 669.93,428.44 672.95,428.44 672.95,428.13 675.96,428.13 675.96,427.82 678.97,427.82 678.97,427.52 681.99,427.52 681.99,427.21 685,427.21 685,426.9 688.01,426.9 688.01,426.59 691.03,426.59 691.03,426.28 694.04,426.28 694.04,425.98 697.05,425.98 697.05,425.67 700.07,425.67 700.07,425.36 703.08,425.36 703.08,425.06 706.1,425.06 706.1,424.75 709.11,424.75 709.11,424.45 712.12,424.45 712.12,424.14 715.14,424.14 715.14,423.84 718.15,423.84 718.15,423.54 721.16,423.54 721.16,423.23 724.18,423.23 724.18,422.93 727.19,422.93 727.19,422.63 730.21,422.63 730.21,422.34 733.22,422.34 733.22,422.04 736.23,422.04 736.23,421.74 739.25,421.74 739.25,421.45 742.26,421.45 742.26,421.15 745.27,421.15 745.27,420.86 748.29,420.86 748.29,420.57 751.3,420.57 751.3,420.28 754.32,420.28 754.32,419.99 757.33,419.99 757.33,419.7 760.34,419.7 760.34,419.42 763.36,419.42 763.36,419.13 766.37,419.13 766.37,418.85 769.38,418.85 769.38,418.56 772.4,418.56 772.4,418.28 775.41,418.28 775.41,418 778.42,418 778.42,417.72 781.44,417.72 781.44,417.44 784.45,417.44 784.45,417.16 787.47,417.16 787.47,416.88 790.48,416.88 790.48,416.61 793.49,416.61 793.49,416.33 796.51,416.33 796.51,416.05 799.52,416.05 799.52,415.77 802.53,415.77 802.53,415.5 805.55,415.5 805.55,415.22 808.56,415.22 808.56,414.94 811.58,414.94 811.58,414.67 814.59,414.67 814.59,414.39 817.6,414.39 817.6,414.11 820.62,414.11 820.62,413.84 823.63,413.84 823.63,413.56 826.64,413.56 826.64,413.28 829.66,413.28 829.66,413 832.67,413 832.67,412.73 835.68,412.73 835.68,412.45 838.7,412.45 838.7,412.17 841.71,412.17 841.71,411.89 844.73,411.89 844.73,411.61 847.74,411.61 847.74,411.33 850.75,411.33 850.75,411.05 853.77,411.05 853.77,410.76 856.78,410.76 856.78,410.48 859.79,410.48 859.79,410.19 862.81,410.19 862.81,409.91 865.82,409.91 865.82,409.62 868.84,409.62 868.84,409.33 871.85,409.33 871.85,409.04 874.86,409.04 874.86,408.75 877.88,408.75 877.88,408.46 880.89,408.46 880.89,408.17 883.9,408.17 883.9,407.87 886.92,407.87 886.92,407.57 889.93,407.57 889.93,407.27 892.95,407.27 892.95,406.97 895.96,406.97 895.96,406.67 898.97,406.67 898.97,406.36 901.99,406.36 901.99,406.05 905,406.05 905,405.74 908.01,405.74 908.01,405.43 911.03,405.43 911.03,405.12 914.04,405.12 914.04,404.8 917.05,404.8 917.05,404.49 920.07,404.49 920.07,404.17 923.08,404.17 923.08,403.85 926.1,403.85 926.1,403.53 929.11,403.53 929.11,403.2 932.12,403.2 932.12,402.88 935.14,402.88 935.14,402.55 938.15,402.55 938.15,402.22 941.16,402.22 941.16,401.89 944.18,401.89 944.18,424.48 947.19,424.48 947.19,424.14 950.21,424.14 950.21,423.81 953.22,423.81 953.22,423.47 956.23,423.47 956.23,423.13 959.25,423.13 959.25,422.8 962.26,422.8 962.26,422.46 965.27,422.46 965.27,422.12 968.29,422.12 968.29,421.77 971.3,421.77 971.3,421.43 974.32,421.43 974.32,421.09 977.33,421.09 977.33,420.74 980.34,420.74 980.34,420.4 983.36,420.4 983.36,420.05 986.37,420.05 986.37,419.71 989.38,419.71 989.38,419.36 992.4,419.36 992.4,419.02 995.41,419.02 995.41,418.68 998.42,418.68 998.42,418.33 1001.44,418.33 1001.44,417.99 1004.45,417.99 1004.45,417.65 1007.47,417.65 1007.47,417.31 1010.48,417.31 1010.48,416.97 1013.49,416.97 1013.49,416.64 1016.51,416.64 1016.51,416.3 1019.52,416.3 1019.52,415.97 1022.53,415.97 1022.53,415.64 1025.55,415.64 1025.55,415.32 1028.56,415.32 1028.56,415 1031.58,415 1031.58,414.68 1034.59,414.68 1034.59,414.36 1037.6,414.36 1037.6,414.05 1040.62,414.05 1040.62,413.74 1043.63,413.74 1043.63,413.44 1046.64,413.44 1046.64,413.14 1049.66,413.14 1049.66,412.85 1052.67,412.85 1052.67,412.56 1055.68,412.56 1055.68,412.28 1058.7,412.28 1058.7,412.01 1061.71,412.01 1061.71,411.74 1064.73,411.74 1064.73,411.47 1067.74,411.47 1067.74,411.21 1070.75,411.21 1070.75,410.96 1073.77,410.96 1073.77,410.72 1076.78,410.72 1076.78,410.48 1079.79,410.48 1079.79,410.26 1082.81,410.26 1082.81,410.04 1085.82,410.04 1085.82,409.82 1088.84,409.82 1088.84,409.62 1091.85,409.62 1091.85,409.42 1094.86,409.42 1094.86,409.24 1097.88,409.24 1097.88,409.06 1100.89,409.06 1100.89,408.89 1103.9,408.89 1103.9,408.74 1106.92,408.74 1106.92,408.59 1109.93,408.59 1109.93,408.45 1112.95,408.45 1112.95,408.32 1115.96,408.32 1115.96,408.21 1118.97,408.21 1118.97,408.1 1121.99,408.1 1121.99,408 1125,408 1125,560 28.01,560" fill="rgba(0, 0, 0, 0.5)" stroke="none" stroke-width="0"/>
<polygon points="25,159.58 25,10 1125,10 1125,159.93 1121.99,159.93 1121.99,160.2 1118.97,160.2 1118.97,160.47 1115.96,160.47 1115.96,160.72 1112.95,160.72 1112.95,160.97 1109.93,160.97 1109.93,161.21 1106.92,161.21 1106.92,161.45 1103.9,161.45 1103.9,161.67 1100.89,161.67 1100.89,161.89 1097.88,161.89 1097.88,162.1 1094.86,162.1 1094.86,162.3 1091.85,162.3 1091.85,162.49 1088.84,162.49 1088.84,162.67 1085.82,162.67 1085.82,162.84 1082.81,162.84 1082.81,163 1079.79,163 1079.79,163.15 1076.78,163.15 1076.78,163.29 1073.77,163.29 1073.77,163.42 1070.75,163.42 1070.75,163.54 1067.74,163.54 1067.74,163.64 1064.73,163.64 1064.73,163.74 1061.71,163.74 1061.71,163.83 1058.7,163.83 1058.7,163.9 1055.68,163.9 1055.68,163.96 1052.67,163.96 1052.67,164.02 1049.66,164.02 1049.66,164.06 1046.64,164.06 1046.64,164.08 1043.63,164.08 1043.63,164.1 1040.62,164.1 1040.62,164.11 1037.6,164.11 1037.6,164.1 1034.59,164.1 1034.59,164.08 1031.58,164.08 1031.58,164.05 1028.56,164.05 1028.56,164.01 1025.55,164.01 1025.55,163.96 1022.53,163.96 1022.53,163.9 1019.52,163.9 1019.52,163.82 1016.51,163.82 1016.51,163.73 1013.49,163.73 1013.49,163.64 1010.48,163.64 1010.48,163.53 1007.47,163.53 1007.47,163.4 1004.45,163.4 1004.45,163.27 1001.44,163.27 1001.44,163.13 998.42,163.13 998.42,162.97 995.41,162.97 995.41,162.8 992.4,162.8 992.4,162.63 989.38,162.63 989.38,162.44 986.37,162.44 986.37,162.24 983.36,162.24 983.36,162.03 980.34,162.03 980.34,161.81 977.33,161.81 977.33,161.57 974.32,161.57 974.32,161.33 971.3,161.33 971.3,161.08 968.29,161.08 968.29,160.81 965.27,160.81 965.27,160.54 962.26,160.54 962.26,160.26 959.25,160.26 959.25,159.97 956.23,159.97 956.23,159.66 953.22,159.66 953.22,159.35 950.21,159.35 950.21,159.03 947.19,159.03 947.19,158.7 944.18,158.7 944.18,135.45 941.16,135.45 941.16,135.1 938.15,135.1 938.15,134.74 935.14,134.74 935.14,134.38 932.12,134.38 932.12,134.01 929.11,134.01 929.11,133.63 926.1,133.63 926.1,133.24 923.08,133.24 923.08,132.84 920.07,132.84 920.07,132.44 917.05,132.44 917.05,132.03 914.04,132.03 914.04,131.61 911.03,131.61 911.03,131.19 908.01,131.19 908.01,130.76 905,130.76 905,130.32 901.99,130.32 901.99,129.88 898.97,129.88 898.97,129.43 895.96,129.43 895.96,128.97 892.95,128.97 892.95,128.51 889.93,128.51 889.93,128.05 886.92,128.05 886.92,127.57 883.9,127.57 883.9,127.1 880.89,127.1 880.89,126.61 877.88,126.61 877.88,126.12 874.86,126.12 874.86,125.63 871.85,125.63 871.85,125.13 868.84,125.13 868.84,124.63 865.82,124.63 865.82,124.13 862.81,124.13 862.81,123.62 859.79,123.62 859.79,123.1 856.78,123.1 856.78,122.59 853.77,122.59 853.77,122.07 850.75,122.07 850.75,121.54 847.74,121.54 847.74,121.02 844.73,121.02 844.73,120.49 841.71,120.49 841.71,119.96 838.7,119.96 838.7,119.42 835.68,119.42 835.68,118.89 832.67,118.89 832.67,118.35 829.66,118.35 829.66,117.81 826.64,117.81 826.64,117.27 823.63,117.27 823.63,116.73 820.62,116.73 820.62,116.18 817.6,116.18 817.6,115.64 814.59,115.64 814.59,115.09 811.58,115.09 811.58,114.54 808.56,114.54 808.56,113.99 805.55,113.99 805.55,113.45 802.53,113.45 802.53,112.9 799.52,112.9 799.52,112.35 796.51,112.35 796.51,111.8 793.49,111.8 793.49,111.25 790.48,111.25 790.48,110.7 787.47,110.7 787.47,110.15 784.45,110.15 784.45,109.61 781.44,109.61 781.44,109.06 778.42,109.06 778.42,108.52 775.41,108.52 775.41,107.97 772.4,107.97 772.4,107.43 769.38,107.43 769.38,106.89 766.37,106.89 766.37,106.35 763.36,106.35 763.36,105.82 760.34,105.82 760.34,105.28 757.33,105.28 757.33,104.75 754.32,104.75 754.32,104.22 751.3,104.22 751.3,103.7 748.29,103.7 748.29,103.18 745.27,103.18 745.27,102.66 742.26,102.66 742.26,102.14 739.25,102.14 739.25,101.63 736.23,101.63 736.23,101.12 733.22,101.12 733.22,100.62 730.21,100.62 730.21,100.12 727.19,100.12 727.19,99.62 724.18,99.62 724.18,99.13 721.16,99.13 721.16,98.65 718.15,98.65 718.15,98.17 715.14,98.17 715.14,97.69 712.12,97.69 712.12,97.22 709.11,97.22 709.11,96.76 706.1,96.76 706.1,96.3 703.08,96.3 703.08,95.84 700.07,95.84 700.07,95.4 697.05,95.4 697.05,94.96 694.04,94.96 694.04,94.52 691.03,94.52 691.03,94.09 688.01,94.09 688.01,93.67 685,93.67 685,93.26 681.99,93.26 681.99,92.85 678.97,92.85 678.97,92.45 675.96,92.45 675.96,92.06 672.95,92.06 672.95,91.68 669.93,91.68 669.93,91.3 666.92,91.3 666.92,90.94 663.9,90.94 663.9,90.58 660.89,90.58 660.89,90.23 657.88,90.23 657.88,89.89 654.86,89.89 654.86,89.56 651.85,89.56 651.85,89.23 648.84,89.23 648.84,88.92 645.82,88.92 645.82,88.62 642.81,88.62 642.81,88.32 639.79,88.32 639.79,88.04 636.78,88.04 636.78,87.76 633.77,87.76 633.77,87.5 630.75,87.5 630.75,87.24 627.74,87.24 627.74,87 624.73,87 624.73,86.77 621.71,86.77 621.71,86.54 618.7,86.54 618.7,86.33 615.68,86.33 615.68,86.13 612.67,86.13 612.67,85.94 609.66,85.94 609.66,85.76 606.64,85.76 606.64,85.59 603.63,85.59 603.63,85.43 600.62,85.43 600.62,85.28 597.6,85.28 597.6,85.14 594.59,85.14 594.59,85.02 591.58,85.02 591.58,84.91 588.56,84.91 588.56,84.8 585.55,84.8 585.55,84.71 582.53,84.71 582.53,84.63 579.52,84.63 579.52,84.57 576.51,84.57 576.51,84.51 573.49,84.51 573.49,84.47 570.48,84.47 570.48,84.43 567.47,84.43 567.47,84.41 564.45,84.41 564.45,84.4 561.44,84.4 561.44,84.41 558.42,84.41 558.42,84.42 555.41,84.42 555.41,84.44 552.4,84.44 552.4,84.48 549.38,84.48 549.38,84.52 546.37,84.52 546.37,84.58 543.36,84.58 543.36,84.65 540.34,84.65 540.34,84.73 537.33,84.73 537.33,84.82 534.32,84.82 534.32,84.91 531.3,84.91 531.3,85.02 528.29,85.02 528.29,85.14 525.27,85.14 525.27,85.27 522.26,85.27 522.26,85.41 519.25,85.41 519.25,85.55 516.23,85.55 516.23,85.71 513.22,85.71 513.22,85.87 510.21,85.87 510.21,86.05 507.19,86.05 507.19,86.23 504.18,86.23 504.18,86.42 501.16,86.42 501.16,86.62 498.15,86.62 498.15,86.82 495.14,86.82 495.14,87.04 492.12,87.04 492.12,87.26 489.11,87.26 489.11,87.49 486.1,87.49 486.1,87.72 483.08,87.72 483.08,87.97 480.07,87.97 480.07,88.22 477.05,88.22 477.05,88.47 474.04,88.47 474.04,88.73 471.03,88.73 471.03,89 468.01,89 468.01,89.27 465,89.27 465,89.55 461.99,89.55 461.99,89.83 458.97,89.83 458.97,90.12 455.96,90.12 455.96,90.41 452.95,90.41 452.95,90.7 449.93,90.7 449.93,91 446.92,91 446.92,91.3 443.9,91.3 443.9,91.61 440.89,91.61 440.89,91.91 437.88,91.91 437.88,92.22 434.86,92.22 434.86,92.54 431.85,92.54 431.85,92.85 428.84,92.85 428.84,93.17 425.82,93.17 425.82,93.49 422.81,93.49 422.81,93.81 419.79,93.81 419.79,94.13 416.78,94.13 416.78,94.45 413.77,94.45 413.77,94.78 410.75,94.78 410.75,95.1 407.74,95.1 407.74,95.43 404.73,95.43 404.73,95.76 401.71,95.76 401.71,96.09 398.7,96.09 398.7,96.42 395.68,96.42 395.68,96.75 392.67,96.75 392.67,97.08 389.66,97.08 389.66,97.41 386.64,97.41 386.64,97.74 383.63,97.74 383.63,98.07 380.62,98.07 380.62,98.4 377.6,98.4 377.6,98.72 374.59,98.72 374.59,99.05 371.58,99.05 371.58,99.38 368.56,99.38 368.56,99.71 365.55,99.71 365.55,100.04 362.53,100.04 362.53,100.36 359.52,100.36 359.52,100.69 356.51,100.69 356.51,101.01 353.49,101.01 353.49,101.34 350.48,101.34 350.48,101.66 347.47,101.66 347.47,101.98 344.45,101.98 344.45,102.3 341.44,102.3 341.44,102.62 338.42,102.62 338.42,102.93 335.41,102.93 335.41,103.25 332.4,103.25 332.4,103.57 329.38,103.57 329.38,103.88 326.37,103.88 326.37,104.2 323.36,104.2 323.36,104.51 320.34,104.51 320.34,104.82 317.33,104.82 317.33,105.13 314.32,105.13 314.32,105.44 311.3,105.44 311.3,105.75 308.29,105.75 308.29,106.06 305.27,106.06 305.27,106.37 302.26,106.37 302.26,106.68 299.25,106.68 299.25,106.99 296.23,106.99 296.23,107.29 293.22,107.29 293.22,107.6 290.21,107.6 290.21,107.91 287.19,107.91 287.19,108.21 284.18,108.21 284.18,108.52 281.16,108.52 281.16,108.82 278.15,108.82 278.15,109.13 275.14,109.13 275.14,109.43 272.12,109.43 272.12,109.74 269.11,109.74 269.11,110.04 266.1,110.04 266.1,110.34 263.08,110.34 263.08,110.65 260.07,110.65 260.07,110.95 257.05,110.95 257.05,111.26 254.04,111.26 254.04,111.56 251.03,111.56 251.03,111.87 248.01,111.87 248.01,112.17 245,112.17 245,112.48 241.99,112.48 241.99,112.78 238.97,112.78 238.97,113.09 235.96,113.09 235.96,113.4 232.95,113.4 232.95,113.71 229.93,113.71 229.93,114.01 226.92,114.01 226.92,137.24 223.9,137.24 223.9,137.55 220.89,137.55 220.89,137.87 217.88,137.87 217.88,138.18 214.86,138.18 214.86,138.5 211.85,138.5 211.85,138.81 208.84,138.81 208.84,139.13 205.82,139.13 205.82,139.45 202.81,139.45 202.81,139.77 199.79,139.77 199.79,140.1 196.78,140.1 196.78,140.42 193.77,140.42 193.77,140.75 190.75,140.75 190.75,141.07 187.74,141.07 187.74,141.4 184.73,141.4 184.73,141.73 181.71,141.73 181.71,142.07 178.7,142.07 178.7,142.4 175.68,142.4 175.68,142.74 172.67,142.74 172.67,143.07 169.66,143.07 169.66,143.41 166.64,143.41 166.64,143.75 163.63,143.75 163.63,144.09 160.62,144.09 160.62,144.43 157.6,144.43 157.6,144.78 154.59,144.78 154.59,145.13 151.58,145.13 151.58,145.47 148.56,145.47 148.56,145.82 145.55,145.82 145.55,146.17 142.53,146.17 142.53,146.52 139.52,146.52 139.52,146.88 136.51,146.88 136.51,147.23 133.49,147.23 133.49,147.59 130.48,147.59 130.48,147.95 127.47,147.95 127.47,148.31 124.45,148.31 124.45,148.67 121.44,148.67 121.44,149.03 118.42,149.03 118.42,149.39 115.41,149.39 115.41,149.75 112.4,149.75 112.4,150.11 109.38,150.11 109.38,150.47 106.37,150.47 106.37,150.84 103.36,150.84 103.36,151.2 100.34,151.2 100.34,151.56 97.33,151.56 97.33,151.92 94.32,151.92 94.32,152.28 91.3,152.28 91.3,152.64 88.29,152.64 88.29,153 85.27,153 85.27,153.36 82.26,153.36 82.26,153.71 79.25,153.71 79.25,154.07 76.23,154.07 76.23,154.42 73.22,154.42 73.22,154.77 70.21,154.77 70.21,155.12 67.19,155.12 67.19,155.46 64.18,155.46 64.18,155.8 61.16,155.8 61.16,156.14 58.15,156.14 58.15,156.48 55.14,156.48 55.14,156.81 52.12,156.81 52.12,157.14 49.11,157.14 49.11,157.46 46.1,157.46 46.1,157.78 43.08,157.78 43.08,158.09 40.07,158.09 40.07,158.4 37.05,158.4 37.05,158.71 34.04,158.71 34.04,159 31.03,159 31.03,159.3 28.01,159.3 28.01,159.58" fill="rgba(0, 0, 0, 0.5)" stroke="none" stroke-width="0"/>
<polygon points="25,407.9 25,397.28 28.01,397.28 28.01,397.22 31.03,397.22 31.03,397.17 34.04,397.17 34.04,397.13 37.05,397.13 37.05,397.1 40.07,397.1 40.07,397.09 43.08,397.09 43.08,397.08 46.1,397.08 46.1,397.09 49.11,397.09 49.11,397.12 52.12,397.12 52.12,397.15 55.14,397.15 55.14,397.19 58.15,397.19 58.15,397.25 61.16,397.25 61.16,397.32 64.18,397.32 64.18,397.4 67.19,397.4 67.19,397.5 70.21,397.5 70.21,397.6 73.22,397.6 73.22,397.72 76.23,397.72 76.23,397.85 79.25,397.85 79.25,397.99 82.26,397.99 82.26,398.14 85.27,398.14 85.27,398.3 88.29,398.3 88.29,398.48 91.3,398.48 91.3,398.66 94.32,398.66 94.32,398.86 97.33,398.86 97.33,399.07 100.34,399.07 100.34,399.28 103.36,399.28 103.36,399.51 106.37,399.51 106.37,399.75 109.38,399.75 109.38,400 112.4,400 112.4,400.26 115.41,400.26 115.41,400.53 118.42,400.53 118.42,400.81 121.44,400.81 121.44,401.09 124.45,401.09 124.45,401.39 127.47,401.39 127.47,401.7 130.48,401.7 130.48,402.02 133.49,402.02 133.49,402.34 136.51,402.34 136.51,402.68 139.52,402.68 139.52,403.02 142.53,403.02 142.53,403.38 145.55,403.38 145.55,403.74 148.56,403.74 148.56,404.1 151.58,404.1 151.58,404.48 154.59,404.48 154.59,404.86 157.6,404.86 157.6,405.26 160.62,405.26 160.62,405.65 163.63,405.65 163.63,406.06 166.64,406.06 166.64,406.47 169.66,406.47 169.66,406.89 172.67,406.89 172.67,407.32 175.68,407.32 175.68,407.75 178.7,407.75 178.7,408.19 181.71,408.19 181.71,408.63 184.73,408.63 184.73,409.08 187.74,409.08 187.74,409.53 190.75,409.53 190.75,409.99 193.77,409.99 193.77,410.45 196.78,410.45 196.78,410.92 199.79,410.92 199.79,411.4 202.81,411.4 202.81,411.87 205.82,411.87 205.82,412.36 208.84,412.36 208.84,412.84 211.85,412.84 211.85,413.33 214.86,413.33 214.86,413.83 217.88,413.83 217.88,414.33 220.89,414.33 220.89,414.83 223.9,414.83 223.9,415.33 226.92,415.33 226.92,424.91 223.9,424.91 223.9,424.41 220.89,424.41 220.89,423.91 217.88,423.91 217.88,423.42 214.86,423.42 214.86,422.94 211.85,422.94 211.85,422.45 208.84,422.45 208.84,421.97 205.82,421.97 205.82,421.5 202.81,421.5 202.81,421.03 199.79,421.03 199.79,420.57 196.78,420.57 196.78,420.11 193.77,420.11 193.77,419.66 190.75,419.66 190.75,419.21 187.74,419.21 187.74,418.77 184.73,418.77 184.73,418.33 181.71,418.33 181.71,417.9 178.7,417.9 178.7,417.48 175.68,417.48 175.68,417.06 172.67,417.06 172.67,416.65 169.66,416.65 169.66,416.25 166.64,416.25 166.64,415.85 163.63,415.85 163.63,415.46 160.62,415.46 160.62,415.08 157.6,415.08 157.6,414.71 154.59,414.71 154.59,414.34 151.58,414.34 151.58,413.98 148.56,413.98 148.56,413.63 145.55,413.63 145.55,413.29 142.53,413.29 142.53,412.95 139.52,412.95 139.52,412.63 136.51,412.63 136.51,412.31 133.49,412.31 133.49,412.01 130.48,412.01 130.48,411.71 127.47,411.71 127.47,411.42 124.45,411.42 124.45,411.15 121.44,411.15 121.44,410.88 118.42,410.88 118.42,410.62 115.41,410.62 115.41,410.37 112.4,410.37 112.4,410.13 109.38,410.13 109.38,409.9 106.37,409.9 106.37,409.69 103.36,409.69 103.36,409.48 100.34,409.48 100.34,409.28 97.33,409.28 97.33,409.1 94.32,409.1 94.32,408.92 91.3,408.92 91.3,408.75 88.29,408.75 88.29,408.6 85.27,408.6 85.27,408.46 82.26,408.46 82.26,408.33 79.25,408.33 79.25,408.21 76.23,408.21 76.23,408.1 73.22,408.1 73.22,408 70.21,408 70.21,407.91 67.19,407.91 67.19,407.84 64.18,407.84 64.18,407.77 61.16,407.77 61.16,407.72 58.15,407.72 58.15,407.68 55.14,407.68 55.14,407.65 52.12,407.65 52.12,407.63 49.11,407.63 49.11,407.62 46.1,407.62 46.1,407.63 43.08,407.63 43.08,407.65 40.07,407.65 40.07,407.67 37.05,407.67 37.05,407.71 34.04,407.71 34.04,407.76 31.03,407.76 31.03,407.83 28.01,407.83 28.01,407.9" fill="rgba(0, 0, 0, 0.25)" stroke="none" stroke-width="0"/>
<polygon points="25,170.2 25,159.58 28.01,159.58 28.01,159.3 31.03,159.3 31.03,159 34.04,159 34.04,158.71 37.05,158.71 37.05,158.4 40.07,158.4 40.07,158.09 43.08,158.09 43.08,157.78 46.1,157.78 46.1,157.46 49.11,157.46 49.11,157.14 52.12,157.14 52.12,156.81 55.14,156.81 55.14,156.48 58.15,156.48 58.15,156.14 61.16,156.14 61.16,155.8 64.18,155.8 64.18,155.46 67.19,155.46 67.19,155.12 70.21,155.12 70.21,154.77 73.22,154.77 73.22,154.42 76.23,154.42 76.23,154.07 79.25,154.07 79.25,153.71 82.26,153.71 82.26,153.36 85.27,153.36 85.27,153 88.29,153 88.29,152.64 91.3,152.64 91.3,152.28 94.32,152.28 94.32,151.92 97.33,151.92 97.33,151.56 100.34,151.56 100.34,151.2 103.36,151.2 103.36,150.84 106.37,150.84 106.37,150.47 109.38,150.47 109.38,150.11 112.4,150.11 112.4,149.75 115.41,149.75 115.41,149.39 118.42,149.39 118.42,149.03 121.44,149.03 121.44,148.67 124.45,148.67 124.45,148.31 127.47,148.31 127.47,147.95 130.48,147.95 130.48,147.59 133.49,147.59 133.49,147.23 136.51,147.23 136.51,146.88 139.52,146.88 139.52,146.52 142.53,146.52 142.53,146.17 145.55,146.17 145.55,145.82 148.56,145.82 148.56,145.47 151.58,145.47 151.58,145.13 154.59,145.13 154.59,144.78 157.6,144.78 157.6,144.43 160.62,144.43 160.62,144.09 163.63,144.09 163.63,143.75 166.64,143.75 166.64,143.41 169.66,143.41 169.66,143.07 172.67,143.07 172.67,142.74 175.68,142.74 175.68,142.4 178.7,142.4 178.7,142.07 181.71,142.07 181.71,141.73 184.73,141.73 184.73,141.4 187.74,141.4 187.74,141.07 190.75,141.07 190.75,140.75 193.77,140.75 193.77,140.42 196.78,140.42 196.78,140.1 199.79,140.1 199.79,139.77 202.81,139.77 202.81,139.45 205.82,139.45 205.82,139.13 208.84,139.13 208.84,138.81 211.85,138.81 211.85,138.5 214.86,138.5 214.86,138.18 217.88,138.18 217.88,137.87 220.89,137.87 220.89,137.55 223.9,137.55 223.9,137.24 226.92,137.24 226.92,146.83 223.9,146.83 223.9,147.15 220.89,147.15 220.89,147.47 217.88,147.47 217.88,147.79 214.86,147.79 214.86,148.11 211.85,148.11 211.85,148.43 208.84,148.43 208.84,148.76 205.82,148.76 205.82,149.09 202.81,149.09 202.81,149.42 199.79,149.42 199.79,149.75 196.78,149.75 196.78,150.08 193.77,150.08 193.77,150.42 190.75,150.42 190.75,150.76 187.74,150.76 187.74,151.1 184.73,151.1 184.73,151.44 181.71,151.44 181.71,151.79 178.7,151.79 178.7,152.14 175.68,152.14 175.68,152.49 172.67,152.49 172.67,152.84 169.66,152.84 169.66,153.19 166.64,153.19 166.64,153.55 163.63,153.55 163.63,153.9 160.62,153.9 160.62,154.26 157.6,154.26 157.6,154.62 154.59,154.62 154.59,154.99 151.58,154.99 151.58,155.35 148.56,155.35 148.56,155.72 145.55,155.72 145.55,156.09 142.53,156.09 142.53,156.46 139.52,156.46 139.52,156.83 136.51,156.83 136.51,157.21 133.49,157.21 133.49,157.58 130.48,157.58 130.48,157.96 127.47,157.96 127.47,158.34 124.45,158.34 124.45,158.72 121.44,158.72 121.44,159.1 118.42,159.1 118.42,159.48 115.41,159.48 115.41,159.86 112.4,159.86 112.4,160.25 109.38,160.25 109.38,160.63 106.37,160.63 106.37,161.01 103.36,161.01 103.36,161.4 100.34,161.4 100.34,161.78 97.33,161.78 97.33,162.16 94.32,162.16 94.32,162.54 91.3,162.54 91.3,162.92 88.29,162.92 88.29,163.3 85.27,163.3 85.27,163.68 82.26,163.68 82.26,164.05 79.25,164.05 79.25,164.43 76.23,164.43 76.23,164.8 73.22,164.8 73.22,165.17 70.21,165.17 70.21,165.53 67.19,165.53 67.19,165.89 64.18,165.89 64.18,166.25 61.16,166.25 61.16,166.61 58.15,166.61 58.15,166.96 55.14,166.96 55.14,167.31 52.12,167.31 52.12,167.65 49.11,167.65 49.11,167.99 46.1,167.99 46.1,168.32 43.08,168.32 43.08,168.65 40.07,168.65 40.07,168.97 37.05,168.97 37.05,169.29 34.04,169.29 34.04,169.6 31.03,169.6 31.03,169.91 28.01,169.91 28.01,170.2" fill="rgba(0, 0, 0, 0.25)" stroke="none" stroke-width="0"/>
<polygon points="226.92,402.49 226.92,392.92 229.93,392.92 229.93,393.43 232.95,393.43 232.95,393.94 235.96,393.94 235.96,394.46 238.97,394.46 238.97,394.98 241.99,394.98 241.99,395.49 245,395.49 245,396.02 248.01,396.02 248.01,396.54 251.03,396.54 251.03,397.06 254.04,397.06 254.04,397.59 257.05,397.59 257.05,398.11 260.07,398.11 260.07,398.64 263.08,398.64 263.08,399.16 266.1,399.16 266.1,399.69 269.11,399.69 269.11,400.22 272.12,400.22 272.12,400.75 275.14,400.75 275.14,401.27 278.15,401.27 278.15,401.8 281.16,401.8 281.16,402.33 284.18,402.33 284.18,402.85 287.19,402.85 287.19,403.38 290.21,403.38 290.21,403.9 293.22,403.9 293.22,404.42 296.23,404.42 296.23,404.94 299.25,404.94 299.25,405.46 302.26,405.46 302.26,405.98 305.27,405.98 305.27,406.5 308.29,406.5 308.29,407.01 311.3,407.01 311.3,407.52 314.32,407.52 314.32,408.03 317.33,408.03 317.33,408.54 320.34,408.54 320.34,409.04 323.36,409.04 323.36,409.54 326.37,409.54 326.37,410.04 329.38,410.04 329.38,410.53 332.4,410.53 332.4,411.02 335.41,411.02 335.41,411.51 338.42,411.51 338.42,411.99 341.44,411.99 341.44,412.47 344.45,412.47 344.45,412.95 347.47,412.95 347.47,413.42 350.48,413.42 350.48,413.88 353.49,413.88 353.49,414.34 356.51,414.34 356.51,414.8 359.52,414.8 359.52,415.24 362.53,415.24 362.53,415.69 365.55,415.69 365.55,416.13 368.56,416.13 368.56,416.56 371.58,416.56 371.58,416.99 374.59,416.99 374.59,417.41 377.6,417.41 377.6,417.82 380.62,417.82 380.62,418.23 383.63,418.23 383.63,418.63 386.64,418.63 386.64,419.02 389.66,419.02 389.66,419.41 392.67,419.41 392.67,419.79 395.68,419.79 395.68,420.16 398.7,420.16 398.7,420.53 401.71,420.53 401.71,420.89 404.73,420.89 404.73,421.24 407.74,421.24 407.74,421.58 410.75,421.58 410.75,421.91 413.77,421.91 413.77,422.24 416.78,422.24 416.78,422.56 419.79,422.56 419.79,422.87 422.81,422.87 422.81,423.17 425.82,423.17 425.82,423.46 428.84,423.46 428.84,423.74 431.85,423.74 431.85,424.02 434.86,424.02 434.86,424.28 437.88,424.28 437.88,424.54 440.89,424.54 440.89,424.78 443.9,424.78 443.9,425.02 446.92,425.02 446.92,425.25 449.93,425.25 449.93,425.46 452.95,425.46 452.95,425.67 455.96,425.67 455.96,425.87 458.97,425.87 458.97,426.05 461.99,426.05 461.99,426.23 465,426.23 465,426.4 468.01,426.4 468.01,426.55 471.03,426.55 471.03,426.7 474.04,426.7 474.04,426.83 477.05,426.83 477.05,426.96 480.07,426.96 480.07,427.08 483.08,427.08 483.08,427.18 486.1,427.18 486.1,427.28 489.11,427.28 489.11,427.36 492.12,427.36 492.12,427.43 495.14,427.43 495.14,427.5 498.15,427.5 498.15,427.55 501.16,427.55 501.16,427.6 504.18,427.6 504.18,427.63 507.19,427.63 507.19,427.66 510.21,427.66 510.21,427.67 513.22,427.67 513.22,427.67 516.23,427.67 516.23,427.67 519.25,427.67 519.25,427.65 522.26,427.65 522.26,427.62 525.27,427.62 525.27,427.59 528.29,427.59 528.29,427.54 531.3,427.54 531.3,427.49 534.32,427.49 534.32,427.42 537.33,427.42 537.33,427.35 540.34,427.35 540.34,427.27 543.36,427.27 543.36,427.17 546.37,427.17 546.37,427.07 549.38,427.07 549.38,426.96 552.4,426.96 552.4,426.85 555.41,426.85 555.41,426.72 558.42,426.72 558.42,426.59 561.44,426.59 561.44,426.44 564.45,426.44 564.45,426.3 567.47,426.3 567.47,426.14 570.48,426.14 570.48,425.98 573.49,425.98 573.49,425.8 576.51,425.8 576.51,425.63 579.52,425.63 579.52,425.44 582.53,425.44 582.53,425.25 585.55,425.25 585.55,425.06 588.56,425.06 588.56,424.86 591.58,424.86 591.58,424.65 594.59,424.65 594.59,424.44 597.6,424.44 597.6,424.22 600.62,424.22 600.62,424 603.63,424 603.63,423.77 606.64,423.77 606.64,423.54 609.66,423.54 609.66,423.3 612.67,423.3 612.67,423.06 615.68,423.06 615.68,422.82 618.7,422.82 618.7,422.57 621.71,422.57 621.71,422.32 624.73,422.32 624.73,422.06 627.74,422.06 627.74,421.81 630.75,421.81 630.75,421.54 633.77,421.54 633.77,421.28 636.78,421.28 636.78,421.01 639.79,421.01 639.79,420.75 642.81,420.75 642.81,420.47 645.82,420.47 645.82,420.2 648.84,420.2 648.84,419.93 651.85,419.93 651.85,419.65 654.86,419.65 654.86,419.37 657.88,419.37 657.88,419.1 660.89,419.1 660.89,418.82 663.9,418.82 663.9,418.54 666.92,418.54 666.92,418.26 669.93,418.26 669.93,417.98 672.95,417.98 672.95,417.7 675.96,417.7 675.96,417.41 678.97,417.41 678.97,417.13 681.99,417.13 681.99,416.85 685,416.85 685,416.57 688.01,416.57 688.01,416.29 691.03,416.29 691.03,416 694.04,416 694.04,415.72 697.05,415.72 697.05,415.44 700.07,415.44 700.07,415.16 703.08,415.16 703.08,414.88 706.1,414.88 706.1,414.6 709.11,414.6 709.11,414.32 712.12,414.32 712.12,414.04 715.14,414.04 715.14,413.76 718.15,413.76 718.15,413.48 721.16,413.48 721.16,413.2 724.18,413.2 724.18,412.92 727.19,412.92 727.19,412.64 730.21,412.64 730.21,412.37 733.22,412.37 733.22,412.09 736.23,412.09 736.23,411.82 739.25,411.82 739.25,411.54 742.26,411.54 742.26,411.27 745.27,411.27 745.27,410.99 748.29,410.99 748.29,410.72 751.3,410.72 751.3,410.45 754.32,410.45 754.32,410.18 757.33,410.18 757.33,409.91 760.34,409.91 760.34,409.64 763.36,409.64 763.36,409.37 766.37,409.37 766.37,409.1 769.38,409.1 769.38,408.83 772.4,408.83 772.4,408.56 775.41,408.56 775.41,408.29 778.42,408.29 778.42,408.03 781.44,408.03 781.44,407.76 784.45,407.76 784.45,407.49 787.47,407.49 787.47,407.22 790.48,407.22 790.48,406.96 793.49,406.96 793.49,406.69 796.51,406.69 796.51,406.42 799.52,406.42 799.52,406.15 802.53,406.15 802.53,405.88 805.55,405.88 805.55,405.61 808.56,405.61 808.56,405.34 811.58,405.34 811.58,405.07 814.59,405.07 814.59,404.8 817.6,404.8 817.6,404.53 820.62,404.53 820.62,404.25 823.63,404.25 823.63,403.98 826.64,403.98 826.64,403.7 829.66,403.7 829.66,403.43 832.67,403.43 832.67,403.15 835.68,403.15 835.68,402.87 838.7,402.87 838.7,402.59 841.71,402.59 841.71,402.31 844.73,402.31 844.73,402.03 847.74,402.03 847.74,401.75 850.75,401.75 850.75,401.46 853.77,401.46 853.77,401.18 856.78,401.18 856.78,400.89 859.79,400.89 859.79,400.6 862.81,400.6 862.81,400.31 865.82,400.31 865.82,400.01 868.84,400.01 868.84,399.72 871.85,399.72 871.85,399.42 874.86,399.42 874.86,399.12 877.88,399.12 877.88,398.82 880.89,398.82 880.89,398.52 883.9,398.52 883.9,398.21 886.92,398.21 886.92,397.91 889.93,397.91 889.93,397.59 892.95,397.59 892.95,397.28 895.96,397.28 895.96,396.97 898.97,396.97 898.97,396.65 901.99,396.65 901.99,396.33 905,396.33 905,396.01 908.01,396.01 908.01,395.68 911.03,395.68 911.03,395.35 914.04,395.35 914.04,395.02 917.05,395.02 917.05,394.69 920.07,394.69 920.07,394.36 923.08,394.36 923.08,394.02 926.1,394.02 926.1,393.68 929.11,393.68 929.11,393.34 932.12,393.34 932.12,393 935.14,393 935.14,392.65 938.15,392.65 938.15,392.3 941.16,392.3 941.16,391.96 944.18,391.96 944.18,401.89 941.16,401.89 941.16,402.22 938.15,402.22 938.15,402.55 935.14,402.55 935.14,402.88 932.12,402.88 932.12,403.2 929.11,403.2 929.11,403.53 926.1,403.53 926.1,403.85 923.08,403.85 923.08,404.17 920.07,404.17 920.07,404.49 917.05,404.49 917.05,404.8 914.04,404.8 914.04,405.12 911.03,405.12 911.03,405.43 908.01,405.43 908.01,405.74 905,405.74 905,406.05 901.99,406.05 901.99,406.36 898.97,406.36 898.97,406.67 895.96,406.67 895.96,406.97 892.95,406.97 892.95,407.27 889.93,407.27 889.93,407.57 886.92,407.57 886.92,407.87 883.9,407.87 883.9,408.17 880.89,408.17 880.89,408.46 877.88,408.46 877.88,408.75 874.86,408.75 874.86,409.04 871.85,409.04 871.85,409.33 868.84,409.33 868.84,409.62 865.82,409.62 865.82,409.91 862.81,409.91 862.81,410.19 859.79,410.19 859.79,410.48 856.78,410.48 856.78,410.76 853.77,410.76 853.77,411.05 850.75,411.05 850.75,411.33 847.74,411.33 847.74,411.61 844.73,411.61 844.73,411.89 841.71,411.89 841.71,412.17 838.7,412.17 838.7,412.45 835.68,412.45 835.68,412.73 832.67,412.73 832.67,413 829.66,413 829.66,413.28 826.64,413.28 826.64,413.56 823.63,413.56 823.63,413.84 820.62,413.84 820.62,414.11 817.6,414.11 817.6,414.39 814.59,414.39 814.59,414.67 811.58,414.67 811.58,414.94 808.56,414.94 808.56,415.22 805.55,415.22 805.55,415.5 802.53,415.5 802.53,415.77 799.52,415.77 799.52,416.05 796.51,416.05 796.51,416.33 793.49,416.33 793.49,416.61 790.48,416.61 790.48,416.88 787.47,416.88 787.47,417.16 784.45,417.16 784.45,417.44 781.44,417.44 781.44,417.72 778.42,417.72 778.42,418 775.41,418 775.41,418.28 772.4,418.28 772.4,418.56 769.38,418.56 769.38,418.85 766.37,418.85 766.37,419.13 763.36,419.13 763.36,419.42 760.34,419.42 760.34,419.7 757.33,419.7 757.33,419.99 754.32,419.99 754.32,420.28 751.3,420.28 751.3,420.57 748.29,420.57 748.29,420.86 745.27,420.86 745.27,421.15 742.26,421.15 742.26,421.45 739.25,421.45 739.25,421.74 736.23,421.74 736.23,422.04 733.22,422.04 733.22,422.34 730.21,422.34 730.21,422.63 727.19,422.63 727.19,422.93 724.18,422.93 724.18,423.23 721.16,423.23 721.16,423.54 718.15,423.54 718.15,423.84 715.14,423.84 715.14,424.14 712.12,424.14 712.12,424.45 709.11,424.45 709.11,424.75 706.1,424.75 706.1,425.06 703.08,425.06 703.08,425.36 700.07,425.36 700.07,425.67 697.05,425.67 697.05,425.98 694.04,425.98 694.04,426.28 691.03,426.28 691.03,426.59 688.01,426.59 688.01,426.9 685,426.9 685,427.21 681.99,427.21 681.99,427.52 678.97,427.52 678.97,427.82 675.96,427.82 675.96,428.13 672.95,428.13 672.95,428.44 669.93,428.44 669.93,428.75 666.92,428.75 666.92,429.06 663.9,429.06 663.9,429.36 660.89,429.36 660.89,429.67 657.88,429.67 657.88,429.97 654.86,429.97 654.86,430.28 651.85,430.28 651.85,430.58 648.84,430.58 648.84,430.88 645.82,430.88 645.82,431.18 642.81,431.18 642.81,431.48 639.79,431.48 639.79,431.77 636.78,431.77 636.78,432.06 633.77,432.06 633.77,432.35 630.75,432.35 630.75,432.64 627.74,432.64 627.74,432.92 624.73,432.92 624.73,433.2 621.71,433.2 621.71,433.48 618.7,433.48 618.7,433.75 615.68,433.75 615.68,434.01 612.67,434.01 612.67,434.28 609.66,434.28 609.66,434.53 606.64,434.53 606.64,434.78 603.63,434.78 603.63,435.03 600.62,435.03 600.62,435.27 597.6,435.27 597.6,435.51 594.59,435.51 594.59,435.74 591.58,435.74 591.58,435.96 588.56,435.96 588.56,436.18 585.55,436.18 585.55,436.39 582.53,436.39 582.53,436.59 579.52,436.59 579.52,436.79 576.51,436.79 576.51,436.98 573.49,436.98 573.49,437.16 570.48,437.16 570.48,437.34 567.47,437.34 567.47,437.5 564.45,437.5 564.45,437.66 561.44,437.66 561.44,437.81 558.42,437.81 558.42,437.95 555.41,437.95 555.41,438.08 552.4,438.08 552.4,438.2 549.38,438.2 549.38,438.31 546.37,438.31 546.37,438.42 543.36,438.42 543.36,438.51 540.34,438.51 540.34,438.59 537.33,438.59 537.33,438.66 534.32,438.66 534.32,438.73 531.3,438.73 531.3,438.78 528.29,438.78 528.29,438.82 525.27,438.82 525.27,438.85 522.26,438.85 522.26,438.87 519.25,438.87 519.25,438.88 516.23,438.88 516.23,438.87 513.22,438.87 513.22,438.86 510.21,438.86 510.21,438.84 507.19,438.84 507.19,438.8 504.18,438.8 504.18,438.75 501.16,438.75 501.16,438.7 498.15,438.7 498.15,438.63 495.14,438.63 495.14,438.55 492.12,438.55 492.12,438.46 489.11,438.46 489.11,438.35 486.1,438.35 486.1,438.24 483.08,438.24 483.08,438.12 480.07,438.12 480.07,437.98 477.05,437.98 477.05,437.84 474.04,437.84 474.04,437.68 471.03,437.68 471.03,437.51 468.01,437.51 468.01,437.33 465,437.33 465,437.14 461.99,437.14 461.99,436.94 458.97,436.94 458.97,436.73 455.96,436.73 455.96,436.51 452.95,436.51 452.95,436.28 449.93,436.28 449.93,436.04 446.92,436.04 446.92,435.79 443.9,435.79 443.9,435.52 440.89,435.52 440.89,435.25 437.88,435.25 437.88,434.97 434.86,434.97 434.86,434.68 431.85,434.68 431.85,434.38 428.84,434.38 428.84,434.07 425.82,434.07 425.82,433.75 422.81,433.75 422.81,433.42 419.79,433.42 419.79,433.08 416.78,433.08 416.78,432.74 413.77,432.74 413.77,432.38 410.75,432.38 410.75,432.02 407.74,432.02 407.74,431.65 404.73,431.65 404.73,431.27 401.71,431.27 401.71,430.89 398.7,430.89 398.7,430.5 395.68,430.5 395.68,430.1 392.67,430.1 392.67,429.69 389.66,429.69 389.66,429.28 386.64,429.28 386.64,428.86 383.63,428.86 383.63,428.43 380.62,428.43 380.62,428 377.6,428 377.6,427.56 374.59,427.56 374.59,427.11 371.58,427.11 371.58,426.66 368.56,426.66 368.56,426.2 365.55,426.2 365.55,425.74 362.53,425.74 362.53,425.28 359.52,425.28 359.52,424.8 356.51,424.8 356.51,424.33 353.49,424.33 353.49,423.84 350.48,423.84 350.48,423.36 347.47,423.36 347.47,422.87 344.45,422.87 344.45,422.37 341.44,422.37 341.44,421.87 338.42,421.87 338.42,421.37 335.41,421.37 335.41,420.87 332.4,420.87 332.4,420.36 329.38,420.36 329.38,419.84 326.37,419.84 326.37,419.33 323.36,419.33 323.36,418.81 320.34,418.81 320.34,418.29 317.33,418.29 317.33,417.77 314.32,417.77 314.32,417.25 311.3,417.25 311.3,416.72 308.29,416.72 308.29,416.19 305.27,416.19 305.27,415.66 302.26,415.66 302.26,415.13 299.25,415.13 299.25,414.6 296.23,414.6 296.23,414.07 293.22,414.07 293.22,413.54 290.21,413.54 290.21,413 287.19,413 287.19,412.47 284.18,412.47 284.18,411.94 281.16,411.94 281.16,411.4 278.15,411.4 278.15,410.87 275.14,410.87 275.14,410.34 272.12,410.34 272.12,409.8 269.11,409.8 269.11,409.27 266.1,409.27 266.1,408.74 263.08,408.74 263.08,408.21 260.07,408.21 260.07,407.68 257.05,407.68 257.05,407.15 254.04,407.15 254.04,406.62 251.03,406.62 251.03,406.1 248.01,406.1 248.01,405.58 245,405.58 245,405.06 241.99,405.06 241.99,404.54 238.97,404.54 238.97,404.02 235.96,404.02 235.96,403.51 232.95,403.51 232.95,403 229.93,403 229.93,402.49" fill="rgba(0, 0, 0, 0.25)" stroke="none" stroke-width="0"/>
<polygon points="226.92,123.6 226.92,114.01 229.93,114.01 229.93,113.71 232.95,113.71 232.95,113.4 235.96,113.4 235.96,113.09 238.97,113.09 238.97,112.78 241.99,112.78 241.99,112.48 245,112.48 245,112.17 248.01,112.17 248.01,111.87 251.03,111.87 251.03,111.56 254.04,111.56 254.04,111.26 257.05,111.26 257.05,110.95 260.07,110.95 260.07,110.65 263.08,110.65 263.08,110.34 266.1,110.34 266.1,110.04 269.11,110.04 269.11,109.74 272.12,109.74 272.12,109.43 275.14,109.43 275.14,109.13 278.15,109.13 278.15,108.82 281.16,108.82 281.16,108.52 284.18,108.52 284.18,108.21 287.19,108.21 287.19,107.91 290.21,107.91 290.21,107.6 293.22,107.6 293.22,107.29 296.23,107.29 296.23,106.99 299.25,106.99 299.25,106.68 302.26,106.68 302.26,106.37 305.27,106.37 305.27,106.06 308.29,106.06 308.29,105.75 311.3,105.75 311.3,105.44 314.32,105.44 314.32,105.13 317.33,105.13 317.33,104.82 320.34,104.82 320.34,104.51 323.36,104.51 323.36,104.2 326.37,104.2 326.37,103.88 329.38,103.88 329.38,103.57 332.4,103.57 332.4,103.25 335.41,103.25 335.41,102.93 338.42,102.93 338.42,102.62 341.44,102.62 341.44,102.3 344.45,102.3 344.45,101.98 347.47,101.98 347.47,101.66 350.48,101.66 350.48,101.34 353.49,101.34 353.49,101.01 356.51,101.01 356.51,100.69 359.52,100.69 359.52,100.36 362.53,100.36 362.53,100.04 365.55,100.04 365.55,99.71 368.56,99.71 368.56,99.38 371.58,99.38 371.58,99.05 374.59,99.05 374.59,98.72 377.6,98.72 377.6,98.4 380.62,98.4 380.62,98.07 383.63,98.07 383.63,97.74 386.64,97.74 386.64,97.41 389.66,97.41 389.66,97.08 392.67,97.08 392.67,96.75 395.68,96.75 395.68,96.42 398.7,96.42 398.7,96.09 401.71,96.09 401.71,95.76 404.73,95.76 404.73,95.43 407.74,95.43 407.74,95.1 410.75,95.1 410.75,94.78 413.77,94.78 413.77,94.45 416.78,94.45 416.78,94.13 419.79,94.13 419.79,93.81 422.81,93.81 422.81,93.49 425.82,93.49 425.82,93.17 428.84,93.17 428.84,92.85 431.85,92.85 431.85,92.54 434.86,92.54 434.86,92.22 437.88,92.22 437.88,91.91 440.89,91.91 440.89,91.61 443.9,91.61 443.9,91.3 446.92,91.3 446.92,91 449.93,91 449.93,90.7 452.95,90.7 452.95,90.41 455.96,90.41 455.96,90.12 458.97,90.12 458.97,89.83 461.99,89.83 461.99,89.55 465,89.55 465,89.27 468.01,89.27 468.01,89 471.03,89 471.03,88.73 474.04,88.73 474.04,88.47 477.05,88.47 477.05,88.22 480.07,88.22 480.07,87.97 483.08,87.97 483.08,87.72 486.1,87.72 486.1,87.49 489.11,87.49 489.11,87.26 492.12,87.26 492.12,87.04 495.14,87.04 495.14,86.82 498.15,86.82 498.15,86.62 501.16,86.62 501.16,86.42 504.18,86.42 504.18,86.23 507.19,86.23 507.19,86.05 510.21,86.05 510.21,85.87 513.22,85.87 513.22,85.71 516.23,85.71 516.23,85.55 519.25,85.55 519.25,85.41 522.26,85.41 522.26,85.27 525.27,85.27 525.27,85.14 528.29,85.14 528.29,85.02 531.3,85.02 531.3,84.91 534.32,84.91 534.32,84.82 537.33,84.82 537.33,84.73 540.34,84.73 540.34,84.65 543.36,84.65 543.36,84.58 546.37,84.58 546.37,84.52 549.38,84.52 549.38,84.48 552.4,84.48 552.4,84.44 555.41,84.44 555.41,84.42 558.42,84.42 558.42,84.41 561.44,84.41 561.44,84.4 564.45,84.4 564.45,84.41 567.47,84.41 567.47,84.43 570.48,84.43 570.48,84.47 573.49,84.47 573.49,84.51 576.51,84.51 576.51,84.57 579.52,84.57 579.52,84.63 582.53,84.63 582.53,84.71 585.55,84.71 585.55,84.8 588.56,84.8 588.56,84.91 591.58,84.91 591.58,85.02 594.59,85.02 594.59,85.14 597.6,85.14 597.6,85.28 600.62,85.28 600.62,85.43 603.63,85.43 603.63,85.59 606.64,85.59 606.64,85.76 609.66,85.76 609.66,85.94 612.67,85.94 612.67,86.13 615.68,86.13 615.68,86.33 618.7,86.33 618.7,86.54 621.71,86.54 621.71,86.77 624.73,86.77 624.73,87 627.74,87 627.74,87.24 630.75,87.24 630.75,87.5 633.77,87.5 633.77,87.76 636.78,87.76 636.78,88.04 639.79,88.04 639.79,88.32 642.81,88.32 642.81,88.62 645.82,88.62 645.82,88.92 648.84,88.92 648.84,89.23 651.85,89.23 651.85,89.56 654.86,89.56 654.86,89.89 657.88,89.89 657.88,90.23 660.89,90.23 660.89,90.58 663.9,90.58 663.9,90.94 666.92,90.94 666.92,91.3 669.93,91.3 669.93,91.68 672.95,91.68 672.95,92.06 675.96,92.06 675.96,92.45 678.97,92.45 678.97,92.85 681.99,92.85 681.99,93.26 685,93.26 685,93.67 688.01,93.67 688.01,94.09 691.03,94.09 691.03,94.52 694.04,94.52 694.04,94.96 697.05,94.96 697.05,95.4 700.07,95.4 700.07,95.84 703.08,95.84 703.08,96.3 706.1,96.3 706.1,96.76 709.11,96.76 709.11,97.22 712.12,97.22 712.12,97.69 715.14,97.69 715.14,98.17 718.15,98.17 718.15,98.65 721.16,98.65 721.16,99.13 724.18,99.13 724.18,99.62 727.19,99.62 727.19,100.12 730.21,100.12 730.21,100.62 733.22,100.62 733.22,101.12 736.23,101.12 736.23,101.63 739.25,101.63 739.25,102.14 742.26,102.14 742.26,102.66 745.27,102.66 745.27,103.18 748.29,103.18 748.29,103.7 751.3,103.7 751.3,104.22 754.32,104.22 754.32,104.75 757.33,104.75 757.33,105.28 760.34,105.28 760.34,105.82 763.36,105.82 763.36,106.35 766.37,106.35 766.37,106.89 769.38,106.89 769.38,107.43 772.4,107.43 772.4,107.97 775.41,107.97 775.41,108.52 778.42,108.52 778.42,109.06 781.44,109.06 781.44,109.61 784.45,109.61 784.45,110.15 787.47,110.15 787.47,110.7 790.48,110.7 790.48,111.25 793.49,111.25 793.49,111.8 796.51,111.8 796.51,112.35 799.52,112.35 799.52,112.9 802.53,112.9 802.53,113.45 805.55,113.45 805.55,113.99 808.56,113.99 808.56,114.54 811.58,114.54 811.58,115.09 814.59,115.09 814.59,115.64 817.6,115.64 817.6,116.18 820.62,116.18 820.62,116.73 823.63,116.73 823.63,117.27 826.64,117.27 826.64,117.81 829.66,117.81 829.66,118.35 832.67,118.35 832.67,118.89 835.68,118.89 835.68,119.42 838.7,119.42 838.7,119.96 841.71,119.96 841.71,120.49 844.73,120.49 844.73,121.02 847.74,121.02 847.74,121.54 850.75,121.54 850.75,122.07 853.77,122.07 853.77,122.59 856.78,122.59 856.78,123.1 859.79,123.1 859.79,123.62 862.81,123.62 862.81,124.13 865.82,124.13 865.82,124.63 868.84,124.63 868.84,125.13 871.85,125.13 871.85,125.63 874.86,125.63 874.86,126.12 877.88,126.12 877.88,126.61 880.89,126.61 880.89,127.1 883.9,127.1 883.9,127.57 886.92,127.57 886.92,128.05 889.93,128.05 889.93,128.51 892.95,128.51 892.95,128.97 895.96,128.97 895.96,129.43 898.97,129.43 898.97,129.88 901.99,129.88 901.99,130.32 905,130.32 905,130.76 908.01,130.76 908.01,131.19 911.03,131.19 911.03,131.61 914.04,131.61 914.04,132.03 917.05,132.03 917.05,132.44 920.07,132.44 920.07,132.84 923.08,132.84 923.08,133.24 926.1,133.24 926.1,133.63 929.11,133.63 929.11,134.01 932.12,134.01 932.12,134.38 935.14,134.38 935.14,134.74 938.15,134.74 938.15,135.1 941.16,135.1 941.16,135.45 944.18,135.45 944.18,145.38 941.16,145.38 941.16,145.01 938.15,145.01 938.15,144.64 935.14,144.64 935.14,144.25 932.12,144.25 932.12,143.86 929.11,143.86 929.11,143.47 926.1,143.47 926.1,143.06 923.08,143.06 923.08,142.65 920.07,142.65 920.07,142.23 917.05,142.23 917.05,141.81 914.04,141.81 914.04,141.37 911.03,141.37 911.03,140.94 908.01,140.94 908.01,140.49 905,140.49 905,140.04 901.99,140.04 901.99,139.58 898.97,139.58 898.97,139.12 895.96,139.12 895.96,138.65 892.95,138.65 892.95,138.18 889.93,138.18 889.93,137.7 886.92,137.7 886.92,137.22 883.9,137.22 883.9,136.73 880.89,136.73 880.89,136.24 877.88,136.24 877.88,135.74 874.86,135.74 874.86,135.24 871.85,135.24 871.85,134.74 868.84,134.74 868.84,134.23 865.82,134.23 865.82,133.72 862.81,133.72 862.81,133.2 859.79,133.2 859.79,132.68 856.78,132.68 856.78,132.16 853.77,132.16 853.77,131.64 850.75,131.64 850.75,131.11 847.74,131.11 847.74,130.58 844.73,130.58 844.73,130.05 841.71,130.05 841.71,129.52 838.7,129.52 838.7,128.99 835.68,128.99 835.68,128.45 832.67,128.45 832.67,127.91 829.66,127.91 829.66,127.37 826.64,127.37 826.64,126.83 823.63,126.83 823.63,126.29 820.62,126.29 820.62,125.75 817.6,125.75 817.6,125.21 814.59,125.21 814.59,124.67 811.58,124.67 811.58,124.13 808.56,124.13 808.56,123.59 805.55,123.59 805.55,123.04 802.53,123.04 802.53,122.5 799.52,122.5 799.52,121.96 796.51,121.96 796.51,121.42 793.49,121.42 793.49,120.88 790.48,120.88 790.48,120.34 787.47,120.34 787.47,119.8 784.45,119.8 784.45,119.27 781.44,119.27 781.44,118.73 778.42,118.73 778.42,118.2 775.41,118.2 775.41,117.67 772.4,117.67 772.4,117.14 769.38,117.14 769.38,116.62 766.37,116.62 766.37,116.09 763.36,116.09 763.36,115.57 760.34,115.57 760.34,115.06 757.33,115.06 757.33,114.54 754.32,114.54 754.32,114.03 751.3,114.03 751.3,113.52 748.29,113.52 748.29,113.02 745.27,113.02 745.27,112.52 742.26,112.52 742.26,112.02 739.25,112.02 739.25,111.53 736.23,111.53 736.23,111.04 733.22,111.04 733.22,110.56 730.21,110.56 730.21,110.08 727.19,110.08 727.19,109.61 724.18,109.61 724.18,109.14 721.16,109.14 721.16,108.68 718.15,108.68 718.15,108.22 715.14,108.22 715.14,107.77 712.12,107.77 712.12,107.32 709.11,107.32 709.11,106.88 706.1,106.88 706.1,106.45 703.08,106.45 703.08,106.02 700.07,106.02 700.07,105.6 697.05,105.6 697.05,105.18 694.04,105.18 694.04,104.77 691.03,104.77 691.03,104.37 688.01,104.37 688.01,103.98 685,103.98 685,103.59 681.99,103.59 681.99,103.21 678.97,103.21 678.97,102.84 675.96,102.84 675.96,102.47 672.95,102.47 672.95,102.12 669.93,102.12 669.93,101.77 666.92,101.77 666.92,101.43 663.9,101.43 663.9,101.1 660.89,101.1 660.89,100.77 657.88,100.77 657.88,100.46 654.86,100.46 654.86,100.16 651.85,100.16 651.85,99.86 648.84,99.86 648.84,99.57 645.82,99.57 645.82,99.3 642.81,99.3 642.81,99.03 639.79,99.03 639.79,98.77 636.78,98.77 636.78,98.52 633.77,98.52 633.77,98.28 630.75,98.28 630.75,98.05 627.74,98.05 627.74,97.83 624.73,97.83 624.73,97.62 621.71,97.62 621.71,97.42 618.7,97.42 618.7,97.23 615.68,97.23 615.68,97.06 612.67,97.06 612.67,96.89 609.66,96.89 609.66,96.73 606.64,96.73 606.64,96.58 603.63,96.58 603.63,96.44 600.62,96.44 600.62,96.31 597.6,96.31 597.6,96.2 594.59,96.2 594.59,96.09 591.58,96.09 591.58,95.99 588.56,95.99 588.56,95.91 585.55,95.91 585.55,95.83 582.53,95.83 582.53,95.77 579.52,95.77 579.52,95.72 576.51,95.72 576.51,95.67 573.49,95.67 573.49,95.64 570.48,95.64 570.48,95.62 567.47,95.62 567.47,95.61 564.45,95.61 564.45,95.61 561.44,95.61 561.44,95.62 558.42,95.62 558.42,95.64 555.41,95.64 555.41,95.67 552.4,95.67 552.4,95.71 549.38,95.71 549.38,95.76 546.37,95.76 546.37,95.82 543.36,95.82 543.36,95.89 540.34,95.89 540.34,95.97 537.33,95.97 537.33,96.06 534.32,96.06 534.32,96.16 531.3,96.16 531.3,96.26 528.29,96.26 528.29,96.38 525.27,96.38 525.27,96.5 522.26,96.5 522.26,96.63 519.25,96.63 519.25,96.77 516.23,96.77 516.23,96.92 513.22,96.92 513.22,97.08 510.21,97.08 510.21,97.24 507.19,97.24 507.19,97.41 504.18,97.41 504.18,97.59 501.16,97.59 501.16,97.77 498.15,97.77 498.15,97.97 495.14,97.97 495.14,98.17 492.12,98.17 492.12,98.37 489.11,98.37 489.11,98.58 486.1,98.58 486.1,98.8 483.08,98.8 483.08,99.03 480.07,99.03 480.07,99.26 477.05,99.26 477.05,99.49 474.04,99.49 474.04,99.73 471.03,99.73 471.03,99.98 468.01,99.98 468.01,100.23 465,100.23 465,100.48 461.99,100.48 461.99,100.74 458.97,100.74 458.97,101.01 455.96,101.01 455.96,101.27 452.95,101.27 452.95,101.54 449.93,101.54 449.93,101.82 446.92,101.82 446.92,102.09 443.9,102.09 443.9,102.37 440.89,102.37 440.89,102.65 437.88,102.65 437.88,102.94 434.86,102.94 434.86,103.22 431.85,103.22 431.85,103.51 428.84,103.51 428.84,103.8 425.82,103.8 425.82,104.09 422.81,104.09 422.81,104.39 419.79,104.39 419.79,104.68 416.78,104.68 416.78,104.98 413.77,104.98 413.77,105.28 410.75,105.28 410.75,105.58 407.74,105.58 407.74,105.88 404.73,105.88 404.73,106.18 401.71,106.18 401.71,106.48 398.7,106.48 398.7,106.78 395.68,106.78 395.68,107.08 392.67,107.08 392.67,107.38 389.66,107.38 389.66,107.69 386.64,107.69 386.64,107.99 383.63,107.99 383.63,108.3 380.62,108.3 380.62,108.6 377.6,108.6 377.6,108.9 374.59,108.9 374.59,109.21 371.58,109.21 371.58,109.51 368.56,109.51 368.56,109.81 365.55,109.81 365.55,110.12 362.53,110.12 362.53,110.42 359.52,110.42 359.52,110.72 356.51,110.72 356.51,111.02 353.49,111.02 353.49,111.32 350.48,111.32 350.48,111.62 347.47,111.62 347.47,111.92 344.45,111.92 344.45,112.22 341.44,112.22 341.44,112.52 338.42,112.52 338.42,112.82 335.41,112.82 335.41,113.12 332.4,113.12 332.4,113.41 329.38,113.41 329.38,113.71 326.37,113.71 326.37,114.01 323.36,114.01 323.36,114.3 320.34,114.3 320.34,114.6 317.33,114.6 317.33,114.89 314.32,114.89 314.32,115.19 311.3,115.19 311.3,115.49 308.29,115.49 308.29,115.78 305.27,115.78 305.27,116.08 302.26,116.08 302.26,116.37 299.25,116.37 299.25,116.67 296.23,116.67 296.23,116.96 293.22,116.96 293.22,117.26 290.21,117.26 290.21,117.55 287.19,117.55 287.19,117.85 284.18,117.85 284.18,118.15 281.16,118.15 281.16,118.44 278.15,118.44 278.15,118.74 275.14,118.74 275.14,119.04 272.12,119.04 272.12,119.34 269.11,119.34 269.11,119.64 266.1,119.64 266.1,119.94 263.08,119.94 263.08,120.23 260.07,120.23 260.07,120.54 257.05,120.54 257.05,120.84 254.04,120.84 254.04,121.14 251.03,121.14 251.03,121.44 248.01,121.44 248.01,121.75 245,121.75 245,122.05 241.99,122.05 241.99,122.36 238.97,122.36 238.97,122.67 235.96,122.67 235.96,122.98 232.95,122.98 232.95,123.29 229.93,123.29 229.93,123.6" fill="rgba(0, 0, 0, 0.25)" stroke="none" stroke-width="0"/>
<polygon points="944.18,424.48 944.18,414.52 947.19,414.52 947.19,414.17 950.21,414.17 950.21,413.82 953.22,413.82 953.22,413.46 956.23,413.46 956.23,413.1 959.25,413.1 959.25,412.75 962.26,412.75 962.26,412.39 965.27,412.39 965.27,412.02 968.29,412.02 968.29,411.66 971.3,411.66 971.3,411.3 974.32,411.3 974.32,410.94 977.33,410.94 977.33,410.57 980.34,410.57 980.34,410.21 983.36,410.21 983.36,409.84 986.37,409.84 986.37,409.48 989.38,409.48 989.38,409.11 992.4,409.11 992.4,408.75 995.41,408.75 995.41,408.38 998.42,408.38 998.42,408.02 1001.44,408.02 1001.44,407.66 1004.45,407.66 1004.45,407.3 1007.47,407.3 1007.47,406.94 1010.48,406.94 1010.48,406.58 1013.49,406.58 1013.49,406.23 1016.51,406.23 1016.51,405.87 1019.52,405.87 1019.52,405.53 1022.53,405.53 1022.53,405.18 1025.55,405.18 1025.55,404.84 1028.56,404.84 1028.56,404.5 1031.58,404.5 1031.58,404.16 1034.59,404.16 1034.59,403.83 1037.6,403.83 1037.6,403.51 1040.62,403.51 1040.62,403.19 1043.63,403.19 1043.63,402.87 1046.64,402.87 1046.64,402.56 1049.66,402.56 1049.66,402.26 1052.67,402.26 1052.67,401.96 1055.68,401.96 1055.68,401.67 1058.7,401.67 1058.7,401.38 1061.71,401.38 1061.71,401.1 1064.73,401.1 1064.73,400.83 1067.74,400.83 1067.74,400.57 1070.75,400.57 1070.75,400.31 1073.77,400.31 1073.77,400.06 1076.78,400.06 1076.78,399.82 1079.79,399.82 1079.79,399.59 1082.81,399.59 1082.81,399.36 1085.82,399.36 1085.82,399.15 1088.84,399.15 1088.84,398.94 1091.85,398.94 1091.85,398.75 1094.86,398.75 1094.86,398.56 1097.88,398.56 1097.88,398.39 1100.89,398.39 1100.89,398.22 1103.9,398.22 1103.9,398.07 1106.92,398.07 1106.92,397.92 1109.93,397.92 1109.93,397.79 1112.95,397.79 1112.95,397.67 1115.96,397.67 1115.96,397.56 1118.97,397.56 1118.97,397.46 1121.99,397.46 1121.99,397.37 1125,397.37 1125,408 1121.99,408 1121.99,408.1 1118.97,408.1 1118.97,408.21 1115.96,408.21 1115.96,408.32 1112.95,408.32 1112.95,408.45 1109.93,408.45 1109.93,408.59 1106.92,408.59 1106.92,408.74 1103.9,408.74 1103.9,408.89 1100.89,408.89 1100.89,409.06 1097.88,409.06 1097.88,409.24 1094.86,409.24 1094.86,409.42 1091.85,409.42 1091.85,409.62 1088.84,409.62 1088.84,409.82 1085.82,409.82 1085.82,410.04 1082.81,410.04 1082.81,410.26 1079.79,410.26 1079.79,410.48 1076.78,410.48 1076.78,410.72 1073.77,410.72 1073.77,410.96 1070.75,410.96 1070.75,411.21 1067.74,411.21 1067.74,411.47 1064.73,411.47 1064.73,411.74 1061.71,411.74 1061.71,412.01 1058.7,412.01 1058.7,412.28 1055.68,412.28 1055.68,412.56 1052.67,412.56 1052.67,412.85 1049.66,412.85 1049.66,413.14 1046.64,413.14 1046.64,413.44 1043.63,413.44 1043.63,413.74 1040.62,413.74 1040.62,414.05 1037.6,414.05 1037.6,414.36 1034.59,414.36 1034.59,414.68 1031.58,414.68 1031.58,415 1028.56,415 1028.56,415.32 1025.55,415.32 1025.55,415.64 1022.53,415.64 1022.53,415.97 1019.52,415.97 1019.52,416.3 1016.51,416.3 1016.51,416.64 1013.49,416.64 1013.49,416.97 1010.48,416.97 1010.48,417.31 1007.47,417.31 1007.47,417.65 1004.45,417.65 1004.45,417.99 1001.44,417.99 1001.44,418.33 998.42,418.33 998.42,418.68 995.41,418.68 995.41,419.02 992.4,419.02 992.4,419.36 989.38,419.36 989.38,419.71 986.37,419.71 986.37,420.05 983.36,420.05 983.36,420.4 980.34,420.4 980.34,420.74 977.33,420.74 977.33,421.09 974.32,421.09 974.32,421.43 971.3,421.43 971.3,421.77 968.29,421.77 968.29,422.12 965.27,422.12 965.27,422.46 962.26,422.46 962.26,422.8 959.25,422.8 959.25,423.13 956.23,423.13 956.23,423.47 953.22,423.47 953.22,423.81 950.21,423.81 950.21,424.14 947.19,424.14 947.19,424.48" fill="rgba(0, 0, 0, 0.25)" stroke="none" stroke-width="0"/>
<polygon points="944.18,168.65 944.18,158.7 947.19,158.7 947.19,159.03 950.21,159.03 950.21,159.35 953.22,159.35 953.22,159.66 956.23,159.66 956.23,159.97 959.25,159.97 959.25,160.26 962.26,160.26 962.26,160.54 965.27,160.54 965.27,160.81 968.29,160.81 968.29,161.08 971.3,161.08 971.3,161.33 974.32,161.33 974.32,161.57 977.33,161.57 977.33,161.81 980.34,161.81 980.34,162.03 983.36,162.03 983.36,162.24 986.37,162.24 986.37,162.44 989.38,162.44 989.38,162.63 992.4,162.63 992.4,162.8 995.41,162.8 995.41,162.97 998.42,162.97 998.42,163.13 1001.44,163.13 1001.44,163.27 1004.45,163.27 1004.45,163.4 1007.47,163.4 1007.47,163.53 1010.48,163.53 1010.48,163.64 1013.49,163.64 1013.49,163.73 1016.51,163.73 1016.51,163.82 1019.52,163.82 1019.52,163.9 1022.53,163.9 1022.53,163.96 1025.55,163.96 1025.55,164.01 1028.56,164.01 1028.56,164.05 1031.58,164.05 1031.58,164.08 1034.59,164.08 1034.59,164.1 1037.6,164.1 1037.6,164.11 1040.62,164.11 1040.62,164.1 1043.63,164.1 1043.63,164.08 1046.64,164.08 1046.64,164.06 1049.66,164.06 1049.66,164.02 1052.67,164.02 1052.67,163.96 1055.68,163.96 1055.68,163.9 1058.7,163.9 1058.7,163.83 1061.71,163.83 1061.71,163.74 1064.73,163.74 1064.73,163.64 1067.74,163.64 1067.74,163.54 1070.75,163.54 1070.75,163.42 1073.77,163.42 1073.77,163.29 1076.78,163.29 1076.78,163.15 1079.79,163.15 1079.79,163 1082.81,163 1082.81,162.84 1085.82,162.84 1085.82,162.67 1088.84,162.67 1088.84,162.49 1091.85,162.49 1091.85,162.3 1094.86,162.3 1094.86,162.1 1097.88,162.1 1097.88,161.89 1100.89,161.89 1100.89,161.67 1103.9,161.67 1103.9,161.45 1106.92,161.45 1106.92,161.21 1109.93,161.21 1109.93,160.97 1112.95,160.97 1112.95,160.72 1115.96,160.72 1115.96,160.47 1118.97,160.47 1118.97,160.2 1121.99,160.2 1121.99,159.93 1125,159.93 1125,170.56 1121.99,170.56 1121.99,170.84 1118.97,170.84 1118.97,171.11 1115.96,171.11 1115.96,171.38 1112.95,171.38 1112.95,171.63 1109.93,171.63 1109.93,171.88 1106.92,171.88 1106.92,172.11 1103.9,172.11 1103.9,172.34 1100.89,172.34 1100.89,172.56 1097.88,172.56 1097.88,172.77 1094.86,172.77 1094.86,172.97 1091.85,172.97 1091.85,173.16 1088.84,173.16 1088.84,173.34 1085.82,173.34 1085.82,173.51 1082.81,173.51 1082.81,173.67 1079.79,173.67 1079.79,173.81 1076.78,173.81 1076.78,173.95 1073.77,173.95 1073.77,174.07 1070.75,174.07 1070.75,174.19 1067.74,174.19 1067.74,174.29 1064.73,174.29 1064.73,174.37 1061.71,174.37 1061.71,174.45 1058.7,174.45 1058.7,174.52 1055.68,174.52 1055.68,174.57 1052.67,174.57 1052.67,174.61 1049.66,174.61 1049.66,174.64 1046.64,174.64 1046.64,174.65 1043.63,174.65 1043.63,174.66 1040.62,174.66 1040.62,174.65 1037.6,174.65 1037.6,174.63 1034.59,174.63 1034.59,174.6 1031.58,174.6 1031.58,174.55 1028.56,174.55 1028.56,174.49 1025.55,174.49 1025.55,174.42 1022.53,174.42 1022.53,174.34 1019.52,174.34 1019.52,174.25 1016.51,174.25 1016.51,174.14 1013.49,174.14 1013.49,174.03 1010.48,174.03 1010.48,173.9 1007.47,173.9 1007.47,173.76 1004.45,173.76 1004.45,173.6 1001.44,173.6 1001.44,173.44 998.42,173.44 998.42,173.26 995.41,173.26 995.41,173.08 992.4,173.08 992.4,172.88 989.38,172.88 989.38,172.67 986.37,172.67 986.37,172.45 983.36,172.45 983.36,172.22 980.34,172.22 980.34,171.98 977.33,171.98 977.33,171.72 974.32,171.72 974.32,171.46 971.3,171.46 971.3,171.19 968.29,171.19 968.29,170.9 965.27,170.9 965.27,170.61 962.26,170.61 962.26,170.31 959.25,170.31 959.25,169.99 956.23,169.99 956.23,169.67 953.22,169.67 953.22,169.34 950.21,169.34 950.21,169 947.19,169 947.19,168.65" fill="rgba(0, 0, 0, 0.25)" stroke="none" stroke-width="0"/>
<line x1="110.89" y1="390.17" x2="110.89" y2="150.91" stroke="#ff0000" stroke-width="1"/>
<line x1="198.29" y1="411.68" x2="198.29" y2="151.12" stroke="#ff0000" stroke-width="1"/>
<line x1="288.7" y1="401.7" x2="288.7" y2="101.38" stroke="#ff0000" stroke-width="1"/>
<line x1="376.1" y1="424.74" x2="376.1" y2="100.21" stroke="#ff0000" stroke-width="1"/>
<line x1="463.49" y1="443.11" x2="463.49" y2="97.69" stroke="#ff0000" stroke-width="1"/>
<line x1="553.9" y1="428.91" x2="553.9" y2="75.28" stroke="#ff0000" stroke-width="1"/>
<line x1="641.3" y1="428.8" x2="641.3" y2="89.77" stroke="#ff0000" stroke-width="1"/>
<line x1="728.7" y1="428.51" x2="728.7" y2="110.94" stroke="#ff0000" stroke-width="1"/>
<line x1="819.11" y1="407.99" x2="819.11" y2="126.62" stroke="#ff0000" stroke-width="1"/>
<line x1="909.52" y1="390.64" x2="909.52" y2="142.38" stroke="#ff0000" stroke-width="1"/>
<line x1="996.92" y1="417.16" x2="996.92" y2="186.45" stroke="#ff0000" stroke-width="1"/>
<line x1="1087.33" y1="399.36" x2="1087.33" y2="182.95" stroke="#ff0000" stroke-width="1"/>
<line x1="62.67" y1="560" x2="62.67" y2="393.83" stroke="#000080" stroke-width="1"/>
<line x1="62.67" y1="169.63" x2="62.67" y2="10" stroke="#000080" stroke-width="1"/>
<line x1="153.08" y1="560" x2="153.08" y2="397.9" stroke="#000080" stroke-width="1"/>
<line x1="153.08" y1="146.7" x2="153.08" y2="10" stroke="#000080" stroke-width="1"/>
<line x1="240.48" y1="560" x2="240.48" y2="399.66" stroke="#000080" stroke-width="1"/>
<line x1="240.48" y1="128.22" x2="240.48" y2="10" stroke="#000080" stroke-width="1"/>
<line x1="330.89" y1="560" x2="330.89" y2="417.15" stroke="#000080" stroke-width="1"/>
<line x1="330.89" y1="111.99" x2="330.89" y2="10" stroke="#000080" stroke-width="1"/>
<line x1="421.3" y1="560" x2="421.3" y2="430.4" stroke="#000080" stroke-width="1"/>
<line x1="421.3" y1="93.24" x2="421.3" y2="10" stroke="#000080" stroke-width="1"/>
<line x1="511.71" y1="560" x2="511.71" y2="429.67" stroke="#000080" stroke-width="1"/>
<line x1="511.71" y1="75.29" x2="511.71" y2="10" stroke="#000080" stroke-width="1"/>
<line x1="599.11" y1="560" x2="599.11" y2="435.25" stroke="#000080" stroke-width="1"/>
<line x1="599.11" y1="86.1" x2="599.11" y2="10" stroke="#000080" stroke-width="1"/>
<line x1="689.52" y1="560" x2="689.52" y2="410.93" stroke="#000080" stroke-width="1"/>
<line x1="689.52" y1="91.33" x2="689.52" y2="10" stroke="#000080" stroke-width="1"/>
<line x1="776.92" y1="560" x2="776.92" y2="411.96" stroke="#000080" stroke-width="1"/>
<line x1="776.92" y1="115.17" x2="776.92" y2="10" stroke="#000080" stroke-width="1"/>
<line x1="864.32" y1="560" x2="864.32" y2="413.65" stroke="#000080" stroke-width="1"/>
<line x1="864.32" y1="139.76" x2="864.32" y2="10" stroke="#000080" stroke-width="1"/>
<line x1="954.73" y1="560" x2="954.73" y2="407.96" stroke="#000080" stroke-width="1"/>
<line x1="954.73" y1="169.9" x2="954.73" y2="10" stroke="#000080" stroke-width="1"/>
<line x1="1042.12" y1="560" x2="1042.12" y2="406.01" stroke="#000080" stroke-width="1"/>
<line x1="1042.12" y1="182.57" x2="1042.12" y2="10" stroke="#000080" stroke-width="1"/>
<text x="20" y="560" font-family="Arial" font-size="11pt" text-anchor="end" alignment-baseline="middle" fill="#000000">0</text>
<line x1="25" y1="560" x2="1125" y2="560" stroke="#000000" stroke-width="0.5"/>
<text x="20" y="514.17" font-family="Arial" font-size="11pt" text-anchor="end" alignment-baseline="middle" fill="#000000">2</text>
<line x1="25" y1="514.17" x2="1125" y2="514.17" stroke="#000000" stroke-width="0.5"/>
<text x="20" y="468.33" font-family="Arial" font-size="11pt" text-anchor="end" alignment-baseline="middle" fill="#000000">4</text>
<line x1="25" y1="468.33" x2="1125" y2="468.33" stroke="#000000" stroke-width="0.5"/>
<text x="20" y="422.5" font-family="Arial" font-size="11pt" text-anchor="end" alignment-baseline="middle" fill="#000000">6</text>
<line x1="25" y1="422.5" x2="1125" y2="422.5" stroke="#000000" stroke-width="0.5"/>
<text x="20" y="376.67" font-family="Arial" font-size="11pt" text-anchor="end" alignment-baseline="middle" fill="#000000">8</text>
<line x1="25" y1="376.67" x2="1125" y2="376.67" stroke="#000000" stroke-width="0.5"/>
<text x="20" y="330.83" font-family="Arial" font-size="11pt" text-anchor="end" alignment-baseline="middle" fill="#000000">10</text>
<line x1="25" y1="330.83" x2="1125" y2="330.83" stroke="#000000" stroke-width="0.5"/>
<text x="20" y="285" font-family="Arial" font-size="11pt" text-anchor="end" alignment-baseline="middle" fill="#000000">12</text>
<line x1="25" y1="285" x2="1125" y2="285" stroke="#000000" stroke-width="0.5"/>
<text x="20" y="239.17" font-family="Arial" font-size="11pt" text-anchor="end" alignment-baseline="middle" fill="#000000">14</text>
<line x1="25" y1="239.17" x2="1125" y2="239.17" stroke="#000000" stroke-width="0.5"/>
<text x="20" y="193.33" font-family="Arial" font-size="11pt" text-anchor="end" alignment-baseline="middle" fill="#000000">16</text>
<line x1="25" y1="193.33" x2="1125" y2="193.33" stroke="#000000" stroke-width="0.5"/>
<text x="20" y="147.5" font-family="Arial" font-size="11pt" text-anchor="end" alignment-baseline="middle" fill="#000000">18</text>
<line x1="25" y1="147.5" x2="1125" y2="147.5" stroke="#000000" stroke-width="0.5"/>
<text x="20" y="101.67" font-family="Arial" font-size="11pt" text-anchor="end" alignment-baseline="middle" fill="#000000">20</text>
<line x1="25" y1="101.67" x2="1125" y2="101.67" stroke="#000000" stroke-width="0.5"/>
<text x="20" y="55.83" font-family="Arial" font-size="11pt" text-anchor="end" alignment-baseline="middle" fill="#000000">22</text>
<line x1="25" y1="55.83" x2="1125" y2="55.83" stroke="#000000" stroke-width="0.5"/>
<text x="20" y="10" font-family="Arial" font-size="11pt" text-anchor="end" alignment-baseline="middle" fill="#000000">24</text>
<line x1="25" y1="10" x2="1125" y2="10" stroke="#000000" stroke-width="0.5"/>
<text x="71.71" y="572" font-family="Arial" font-size="11pt" text-anchor="middle" alignment-baseline="middle" fill="#000000">Jan</text>
<line x1="25" y1="10" x2="25" y2="560" stroke="#000000" stroke-width="0.5"/>
<text x="160.62" y="572" font-family="Arial" font-size="11pt" text-anchor="middle" alignment-baseline="middle" fill="#000000">Feb</text>
<line x1="118.42" y1="10" x2="118.42" y2="560" stroke="#000000" stroke-width="0.5"/>
<text x="249.52" y="572" font-family="Arial" font-size="11pt" text-anchor="middle" alignment-baseline="middle" fill="#000000">Mar</text>
<line x1="202.81" y1="10" x2="202.81" y2="560" stroke="#000000" stroke-width="0.5"/>
<text x="341.44" y="572" font-family="Arial" font-size="11pt" text-anchor="middle" alignment-baseline="middle" fill="#000000">Apr</text>
<line x1="296.23" y1="10" x2="296.23" y2="560" stroke="#000000" stroke-width="0.5"/>
<text x="433.36" y="572" font-family="Arial" font-size="11pt" text-anchor="middle" alignment-baseline="middle" fill="#000000">May</text>
<line x1="386.64" y1="10" x2="386.64" y2="560" stroke="#000000" stroke-width="0.5"/>
<text x="525.27" y="572" font-family="Arial" font-size="11pt" text-anchor="middle" alignment-baseline="middle" fill="#000000">Jun</text>
<line x1="480.07" y1="10" x2="480.07" y2="560" stroke="#000000" stroke-width="0.5"/>
<text x="617.19" y="572" font-family="Arial" font-size="11pt" text-anchor="middle" alignment-baseline="middle" fill="#000000">Jul</text>
<line x1="570.48" y1="10" x2="570.48" y2="560" stroke="#000000" stroke-width="0.5"/>
<text x="710.62" y="572" font-family="Arial" font-size="11pt" text-anchor="middle" alignment-baseline="middle" fill="#000000">Aug</text>
<line x1="663.9" y1="10" x2="663.9" y2="560" stroke="#000000" stroke-width="0.5"/>
<text x="802.53" y="572" font-family="Arial" font-size="11pt" text-anchor="middle" alignment-baseline="middle" fill="#000000">Sep</text>
<line x1="757.33" y1="10" x2="757.33" y2="560" stroke="#000000" stroke-width="0.5"/>
<text x="894.45" y="572" font-family="Arial" font-size="11pt" text-anchor="middle" alignment-baseline="middle" fill="#000000">Oct</text>
<line x1="847.74" y1="10" x2="847.74" y2="560" stroke="#000000" stroke-width="0.5"/>
<text x="986.37" y="572" font-family="Arial" font-size="11pt" text-anchor="middle" alignment-baseline="middle" fill="#000000">Nov</text>
<line x1="941.16" y1="10" x2="941.16" y2="560" stroke="#000000" stroke-width="0.5"/>
<text x="1078.29" y="572" font-family="Arial" font-size="11pt" text-anchor="middle" alignment-baseline="middle" fill="#000000">Dec</text>
<line x1="1031.58" y1="10" x2="1031.58" y2="560" stroke="#000000" stroke-width="0.5"/>
<line x1="1125" y1="10" x2="1125" y2="560" stroke="#000000" stroke-width="0.5"/>
</svg>