<svg xmlns="http://www.w3.org/2000/svg" width="1035" height="535" viewBox="0 0 1035 535">
<rect x="0" y="0" width="1035" height="535" fill="#ffffff" stroke="none" stroke-width="0"/>
<g transform="translate(25, 510) scale(2.7397260, -0.0057870370)">
<rect x="0" y="0" width="365" height="86400" fill="#000000" stroke="none" stroke-width="0"/>
<path fill="#002040" stroke="none" stroke-width="0" d="M0,20175L0,66605L1,66605L1,66647L2,66647L2,66690L3,66690L3,66734L4,66734L4,66778L5,66778L5,66823L6,66823L6,66868L7,66868L7,66915L8,66915L8,66962L9,66962L9,67009L10,67009L10,67057L11,67057L11,67105L12,67105L12,67154L13,67154L13,67203L14,67203L14,67253L15,67253L15,67303L16,67303L16,67353L17,67353L17,67404L18,67404L18,67454L19,67454L19,67505L20,67505L20,67557L21,67557L21,67608L22,67608L22,67659L23,67659L23,67711L24,67711L24,67763L25,67763L25,67814L26,67814L26,67866L27,67866L27,67918L28,67918L28,67970L29,67970L29,68021L30,68021L30,68073L31,68073L31,68125L32,68125L32,68176L33,68176L33,68228L34,68228L34,68280L35,68280L35,68331L36,68331L36,68383L37,68383L37,68434L38,68434L38,68486L39,68486L39,68537L40,68537L40,68588L41,68588L41,68640L42,68640L42,68691L43,68691L43,68742L44,68742L44,68793L45,68793L45,68844L46,68844L46,68894L47,68894L47,68945L48,68945L48,68996L49,68996L49,69046L50,69046L50,69097L51,69097L51,69147L52,69147L52,69197L53,69197L53,69248L54,69248L54,69298L55,69298L55,69348L56,69348L56,69398L57,69398L57,69448L58,69448L58,69498L59,69498L59,69548L60,69548L60,69598L61,69598L61,69648L62,69648L62,69698L63,69698L63,69748L64,69748L64,69798L65,69798L65,69848L66,69848L66,73499L67,73499L67,73549L68,73549L68,73599L69,73599L69,73650L70,73650L70,73701L71,73701L71,73752L72,73752L72,73803L73,73803L73,73855L74,73855L74,73906L75,73906L75,73958L76,73958L76,74010L77,74010L77,74062L78,74062L78,74115L79,74115L79,74168L80,74168L80,74221L81,74221L81,74274L82,74274L82,74327L83,74327L83,74381L84,74381L84,74435L85,74435L85,74490L86,74490L86,74544L87,74544L87,74599L88,74599L88,74655L89,74655L89,74710L90,74710L90,74767L91,74767L91,74823L92,74823L92,74880L93,74880L93,74937L94,74937L94,74995L95,74995L95,75053L96,75053L96,75111L97,75111L97,75170L98,75170L98,75230L99,75230L99,75290L100,75290L100,75350L101,75350L101,75411L102,75411L102,75472L103,75472L103,75534L104,75534L104,75596L105,75596L105,75658L106,75658L106,75721L107,75721L107,75785L108,75785L108,75848L109,75848L109,75913L110,75913L110,75977L111,75977L111,76042L112,76042L112,76107L113,76107L113,76172L114,76172L114,76238L115,76238L115,76304L116,76304L116,76370L117,76370L117,76437L118,76437L118,76504L119,76504L119,76570L120,76570L120,76638L121,76638L121,76705L122,76705L122,76772L123,76772L123,76840L124,76840L124,76908L125,76908L125,76975L126,76975L126,77043L127,77043L127,77111L128,77111L128,77178L129,77178L129,77246L130,77246L130,77313L131,77313L131,77380L132,77380L132,77447L133,77447L133,77514L134,77514L134,77580L135,77580L135,77646L136,77646L136,77712L137,77712L137,77777L138,77777L138,77841L139,77841L139,77905L140,77905L140,77968L141,77968L141,78030L142,78030L142,78092L143,78092L143,78152L144,78152L144,78212L145,78212L145,78270L146,78270L146,78328L147,78328L147,78384L148,78384L148,78439L149,78439L149,78493L150,78493L150,78546L151,78546L151,78597L152,78597L152,78647L153,78647L153,78695L154,78695L154,78742L155,78742L155,78787L156,78787L156,78830L157,78830L157,78872L158,78872L158,78912L159,78912L159,78950L160,78950L160,78986L161,78986L161,79021L162,79021L162,79053L163,79053L163,79083L164,79083L164,79111L165,79111L165,79137L166,79137L166,79161L167,79161L167,79183L168,79183L168,79202L169,79202L169,79219L170,79219L170,79233L171,79233L171,79246L172,79246L172,79256L173,79256L173,79263L174,79263L174,79268L175,79268L175,79271L177,79271L177,79269L178,79269L178,79264L179,79264L179,79257L180,79257L180,79248L181,79248L181,79236L182,79236L182,79221L183,79221L183,79205L184,79205L184,79186L185,79186L185,79164L186,79164L186,79141L187,79141L187,79115L188,79115L188,79086L189,79086L189,79056L190,79056L190,79023L191,79023L191,78988L192,78988L192,78951L193,78951L193,78912L194,78912L194,78870L195,78870L195,78827L196,78827L196,78782L197,78782L197,78734L198,78734L198,78685L199,78685L199,78633L200,78633L200,78580L201,78580L201,78525L202,78525L202,78468L203,78468L203,78410L204,78410L204,78349L205,78349L205,78288L206,78288L206,78224L207,78224L207,78159L208,78159L208,78092L209,78092L209,78024L210,78024L210,77955L211,77955L211,77884L212,77884L212,77811L213,77811L213,77738L214,77738L214,77663L215,77663L215,77587L216,77587L216,77510L217,77510L217,77432L218,77432L218,77353L219,77353L219,77272L220,77272L220,77191L221,77191L221,77109L222,77109L222,77026L223,77026L223,76942L224,76942L224,76857L225,76857L225,76771L226,76771L226,76685L227,76685L227,76598L228,76598L228,76510L229,76510L229,76421L230,76421L230,76332L231,76332L231,76243L232,76243L232,76152L233,76152L233,76062L234,76062L234,75971L235,75971L235,75879L236,75879L236,75787L237,75787L237,75695L238,75695L238,75602L239,75602L239,75509L240,75509L240,75416L241,75416L241,75322L242,75322L242,75229L243,75229L243,75135L244,75135L244,75041L245,75041L245,74947L246,74947L246,74853L247,74853L247,74759L248,74759L248,74665L249,74665L249,74571L250,74571L250,74477L251,74477L251,74383L252,74383L252,74289L253,74289L253,74196L254,74196L254,74102L255,74102L255,74009L256,74009L256,73916L257,73916L257,73823L258,73823L258,73731L259,73731L259,73639L260,73639L260,73547L261,73547L261,73455L262,73455L262,73364L263,73364L263,73273L264,73273L264,73183L265,73183L265,73093L266,73093L266,73004L267,73004L267,72915L268,72915L268,72827L269,72827L269,72740L270,72740L270,72653L271,72653L271,72566L272,72566L272,72481L273,72481L273,72396L274,72396L274,72312L275,72312L275,72228L276,72228L276,72145L277,72145L277,72064L278,72064L278,71983L279,71983L279,71902L280,71902L280,71823L281,71823L281,71745L282,71745L282,71667L283,71667L283,71591L284,71591L284,71515L285,71515L285,71441L286,71441L286,71367L287,71367L287,71295L288,71295L288,71224L289,71224L289,71154L290,71154L290,71084L291,71084L291,71016L292,71016L292,70950L293,70950L293,70884L294,70884L294,70820L295,70820L295,70757L296,70757L296,70695L297,70695L297,70634L298,70634L298,70575L299,70575L299,70517L300,70517L300,70461L301,70461L301,70405L302,70405L302,70352L303,70352L303,70300L304,70300L304,66649L305,66649L305,66600L306,66600L306,66552L307,66552L307,66506L308,66506L308,66461L309,66461L309,66418L310,66418L310,66376L311,66376L311,66336L312,66336L312,66298L313,66298L313,66261L314,66261L314,66226L315,66226L315,66193L316,66193L316,66161L317,66161L317,66131L318,66131L318,66103L319,66103L319,66076L320,66076L320,66051L321,66051L321,66027L322,66027L322,66006L323,66006L323,65986L324,65986L324,65967L325,65967L325,65951L326,65951L326,65936L327,65936L327,65923L328,65923L328,65912L329,65912L329,65902L330,65902L330,65894L331,65894L331,65888L332,65888L332,65884L333,65884L333,65881L334,65881L334,65880L335,65880L335,65881L336,65881L336,65884L337,65884L337,65888L338,65888L338,65894L339,65894L339,65901L340,65901L340,65910L341,65910L341,65921L342,65921L342,65934L343,65934L343,65948L344,65948L344,65963L345,65963L345,65980L346,65980L346,65999L347,65999L347,66019L348,66019L348,66040L349,66040L349,66063L350,66063L350,66087L351,66087L351,66113L352,66113L352,66139L353,66139L353,66168L354,66168L354,66197L355,66197L355,66228L356,66228L356,66260L357,66260L357,66293L358,66293L358,66327L359,66327L359,66362L360,66362L360,66398L361,66398L361,66436L362,66436L362,66474L363,66474L363,66513L364,66513L364,66553L365,66553L365,20155L364,20155L364,20137L363,20137L363,20118L362,20118L362,20097L361,20097L361,20075L360,20075L360,20052L359,20052L359,20028L358,20028L358,20002L357,20002L357,19975L356,19975L356,19947L355,19947L355,19917L354,19917L354,19886L353,19886L353,19855L352,19855L352,19822L351,19822L351,19788L350,19788L350,19753L349,19753L349,19717L348,19717L348,19680L347,19680L347,19642L346,19642L346,19603L345,19603L345,19563L344,19563L344,19523L343,19523L343,19481L342,19481L342,19440L341,19440L341,19397L340,19397L340,19354L339,19354L339,19310L338,19310L338,19266L337,19266L337,19221L336,19221L336,19175L335,19175L335,19129L334,19129L334,19083L333,19083L333,19037L332,19037L332,18990L331,18990L331,18943L330,18943L330,18895L329,18895L329,18847L328,18847L328,18799L327,18799L327,18751L326,18751L326,18703L325,18703L325,18654L324,18654L324,18606L323,18606L323,18557L322,18557L322,18508L321,18508L321,18459L320,18459L320,18410L319,18410L319,18361L318,18361L318,18311L317,18311L317,18262L316,18262L316,18213L315,18213L315,18164L314,18164L314,18115L313,18115L313,18066L312,18066L312,18017L311,18017L311,17968L310,17968L310,17920L309,17920L309,17871L308,17871L308,17823L307,17823L307,17774L306,17774L306,17726L305,17726L305,17678L304,17678L304,21230L303,21230L303,21183L302,21183L302,21135L301,21135L301,21088L300,21088L300,21041L299,21041L299,20993L298,20993L298,20946L297,20946L297,20900L296,20900L296,20853L295,20853L295,20806L294,20806L294,20760L293,20760L293,20713L292,20713L292,20667L291,20667L291,20621L290,20621L290,20575L289,20575L289,20528L288,20528L288,20482L287,20482L287,20436L286,20436L286,20390L285,20390L285,20344L284,20344L284,20298L283,20298L283,20252L282,20252L282,20206L281,20206L281,20160L280,20160L280,20114L279,20114L279,20068L278,20068L278,20022L277,20022L277,19976L276,19976L276,19930L275,19930L275,19883L274,19883L274,19837L273,19837L273,19791L272,19791L272,19744L271,19744L271,19697L270,19697L270,19651L269,19651L269,19604L268,19604L268,19556L267,19556L267,19509L266,19509L266,19461L265,19461L265,19413L264,19413L264,19365L263,19365L263,19317L262,19317L262,19268L261,19268L261,19219L260,19219L260,19170L259,19170L259,19120L258,19120L258,19070L257,19070L257,19020L256,19020L256,18969L255,18969L255,18918L254,18918L254,18867L253,18867L253,18815L252,18815L252,18763L251,18763L251,18710L250,18710L250,18657L249,18657L249,18604L248,18604L248,18550L247,18550L247,18496L246,18496L246,18441L245,18441L245,18386L244,18386L244,18331L243,18331L243,18275L242,18275L242,18219L241,18219L241,18162L240,18162L240,18105L239,18105L239,18047L238,18047L238,17989L237,17989L237,17931L236,17931L236,17872L235,17872L235,17813L234,17813L234,17753L233,17753L233,17693L232,17693L232,17632L231,17632L231,17571L230,17571L230,17510L229,17510L229,17448L228,17448L228,17386L227,17386L227,17323L226,17323L226,17261L225,17261L225,17197L224,17197L224,17134L223,17134L223,17070L222,17070L222,17006L221,17006L221,16942L220,16942L220,16878L219,16878L219,16814L218,16814L218,16749L217,16749L217,16685L216,16685L216,16620L215,16620L215,16556L214,16556L214,16491L213,16491L213,16427L212,16427L212,16362L211,16362L211,16298L210,16298L210,16235L209,16235L209,16171L208,16171L208,16108L207,16108L207,16045L206,16045L206,15982L205,15982L205,15920L204,15920L204,15858L203,15858L203,15797L202,15797L202,15736L201,15736L201,15676L200,15676L200,15617L199,15617L199,15559L198,15559L198,15501L197,15501L197,15444L196,15444L196,15389L195,15389L195,15334L194,15334L194,15280L193,15280L193,15228L192,15228L192,15177L191,15177L191,15127L190,15127L190,15079L189,15079L189,15032L188,15032L188,14986L187,14986L187,14942L186,14942L186,14900L185,14900L185,14859L184,14859L184,14820L183,14820L183,14783L182,14783L182,14748L181,14748L181,14715L180,14715L180,14683L179,14683L179,14654L178,14654L178,14627L177,14627L177,14601L176,14601L176,14578L175,14578L175,14557L174,14557L174,14538L173,14538L173,14521L172,14521L172,14507L171,14507L171,14495L170,14495L170,14485L169,14485L169,14477L168,14477L168,14472L167,14472L167,14469L166,14469L166,14468L165,14468L165,14470L164,14470L164,14474L163,14474L163,14480L162,14480L162,14489L161,14489L161,14501L160,14501L160,14514L159,14514L159,14530L158,14530L158,14549L157,14549L157,14569L156,14569L156,14592L155,14592L155,14618L154,14618L154,14645L153,14645L153,14675L152,14675L152,14707L151,14707L151,14742L150,14742L150,14778L149,14778L149,14816L148,14816L148,14857L147,14857L147,14900L146,14900L146,14944L145,14944L145,14991L144,14991L144,15039L143,15039L143,15089L142,15089L142,15141L141,15141L141,15195L140,15195L140,15251L139,15251L139,15308L138,15308L138,15367L137,15367L137,15428L136,15428L136,15490L135,15490L135,15554L134,15554L134,15619L133,15619L133,15686L132,15686L132,15754L131,15754L131,15824L130,15824L130,15895L129,15895L129,15967L128,15967L128,16040L127,16040L127,16115L126,16115L126,16191L125,16191L125,16267L124,16267L124,16345L123,16345L123,16424L122,16424L122,16504L121,16504L121,16585L120,16585L120,16667L119,16667L119,16750L118,16750L118,16833L117,16833L117,16917L116,16917L116,17002L115,17002L115,17088L114,17088L114,17174L113,17174L113,17261L112,17261L112,17348L111,17348L111,17436L110,17436L110,17524L109,17524L109,17613L108,17613L108,17703L107,17703L107,17792L106,17792L106,17883L105,17883L105,17973L104,17973L104,18064L103,18064L103,18155L102,18155L102,18246L101,18246L101,18337L100,18337L100,18429L99,18429L99,18521L98,18521L98,18613L97,18613L97,18704L96,18704L96,18796L95,18796L95,18888L94,18888L94,18980L93,18980L93,19072L92,19072L92,19164L91,19164L91,19256L90,19256L90,19347L89,19347L89,19439L88,19439L88,19530L87,19530L87,19621L86,19621L86,19712L85,19712L85,19802L84,19802L84,19892L83,19892L83,19982L82,19982L82,20071L81,20071L81,20160L80,20160L80,20248L79,20248L79,20336L78,20336L78,20423L77,20423L77,20510L76,20510L76,20597L75,20597L75,20682L74,20682L74,20768L73,20768L73,20852L72,20852L72,20936L71,20936L71,21019L70,21019L70,21102L69,21102L69,21184L68,21184L68,21265L67,21265L67,21345L66,21345L66,17824L65,17824L65,17903L64,17903L64,17981L63,17981L63,18058L62,18058L62,18134L61,18134L61,18208L60,18208L60,18282L59,18282L59,18355L58,18355L58,18427L57,18427L57,18498L56,18498L56,18568L55,18568L55,18637L54,18637L54,18704L53,18704L53,18771L52,18771L52,18836L51,18836L51,18900L50,18900L50,18963L49,18963L49,19024L48,19024L48,19084L47,19084L47,19143L46,19143L46,19201L45,19201L45,19257L44,19257L44,19312L43,19312L43,19365L42,19365L42,19417L41,19417L41,19468L40,19468L40,19517L39,19517L39,19565L38,19565L38,19611L37,19611L37,19656L36,19656L36,19699L35,19699L35,19741L34,19741L34,19781L33,19781L33,19820L32,19820L32,19857L31,19857L31,19892L30,19892L30,19926L29,19926L29,19958L28,19958L28,19989L27,19989L27,20018L26,20018L26,20045L25,20045L25,20070L24,20070L24,20094L23,20094L23,20116L22,20116L22,20136L21,20136L21,20155L20,20155L20,20172L19,20172L19,20187L18,20187L18,20201L17,20201L17,20212L16,20212L16,20222L15,20222L15,20231L14,20231L14,20237L13,20237L13,20242L12,20242L12,20246L11,20246L11,20247L9,20247L9,20246L8,20246L8,20243L7,20243L7,20238L6,20238L6,20231L5,20231L5,20223L4,20223L4,20213L3,20213L3,20202L2,20202L2,20190L1,20190L1,20175Z"/>
<path fill="#004080" stroke="none" stroke-width="0" d="M0,22010L0,64771L1,64771L1,64814L2,64814L2,64858L3,64858L3,64903L4,64903L4,64948L5,64948L5,64995L6,64995L6,65042L7,65042L7,65090L8,65090L8,65138L9,65138L9,65187L10,65187L10,65237L11,65237L11,65287L12,65287L12,65338L13,65338L13,65389L14,65389L14,65441L15,65441L15,65493L16,65493L16,65545L17,65545L17,65598L18,65598L18,65651L19,65651L19,65704L20,65704L20,65757L21,65757L21,65811L22,65811L22,65864L23,65864L23,65918L24,65918L24,65972L25,65972L25,66026L26,66026L26,66080L27,66080L27,66133L28,66133L28,66187L29,66187L29,66241L30,66241L30,66295L31,66295L31,66349L32,66349L32,66402L33,66402L33,66456L34,66456L34,66509L35,66509L35,66563L36,66563L36,66616L37,66616L37,66669L38,66669L38,66722L39,66722L39,66775L40,66775L40,66828L41,66828L41,66881L42,66881L42,66933L43,66933L43,66986L44,66986L44,67038L45,67038L45,67090L46,67090L46,67142L47,67142L47,67194L48,67194L48,67245L49,67245L49,67297L50,67297L50,67348L51,67348L51,67399L52,67399L52,67450L53,67450L53,67500L54,67500L54,67551L55,67551L55,67601L56,67601L56,67651L57,67651L57,67701L58,67701L58,67751L59,67751L59,67800L60,67800L60,67850L61,67850L61,67899L62,67899L62,67948L63,67948L63,67998L64,67998L64,68047L65,68047L65,68096L66,68096L66,71745L67,71745L67,71794L68,71794L68,71843L69,71843L69,71892L70,71892L70,71941L71,71941L71,71991L72,71991L72,72040L73,72040L73,72089L74,72089L74,72138L75,72138L75,72187L76,72187L76,72237L77,72237L77,72286L78,72286L78,72336L79,72336L79,72386L80,72386L80,72435L81,72435L81,72485L82,72485L82,72535L83,72535L83,72585L84,72585L84,72635L85,72635L85,72686L86,72686L86,72736L87,72736L87,72787L88,72787L88,72838L89,72838L89,72889L90,72889L90,72940L91,72940L91,72992L92,72992L92,73043L93,73043L93,73095L94,73095L94,73147L95,73147L95,73200L96,73200L96,73253L97,73253L97,73306L98,73306L98,73359L99,73359L99,73413L100,73413L100,73467L101,73467L101,73521L102,73521L102,73575L103,73575L103,73630L104,73630L104,73685L105,73685L105,73741L106,73741L106,73796L107,73796L107,73852L108,73852L108,73908L109,73908L109,73964L110,73964L110,74021L111,74021L111,74078L112,74078L112,74135L113,74135L113,74192L114,74192L114,74249L115,74249L115,74307L116,74307L116,74364L117,74364L117,74422L118,74422L118,74480L119,74480L119,74538L120,74538L120,74596L121,74596L121,74654L122,74654L122,74712L123,74712L123,74770L124,74770L124,74828L125,74828L125,74887L126,74887L126,74945L127,74945L127,75003L128,75003L128,75061L129,75061L129,75119L130,75119L130,75177L131,75177L131,75234L132,75234L132,75291L133,75291L133,75348L134,75348L134,75405L135,75405L135,75461L136,75461L136,75517L137,75517L137,75573L138,75573L138,75628L139,75628L139,75682L140,75682L140,75736L141,75736L141,75789L142,75789L142,75841L143,75841L143,75893L144,75893L144,75944L145,75944L145,75994L146,75994L146,76043L147,76043L147,76091L148,76091L148,76138L149,76138L149,76184L150,76184L150,76229L151,76229L151,76273L152,76273L152,76316L153,76316L153,76357L154,76357L154,76398L155,76398L155,76437L156,76437L156,76475L157,76475L157,76511L158,76511L158,76546L159,76546L159,76579L160,76579L160,76611L161,76611L161,76641L162,76641L162,76670L163,76670L163,76697L164,76697L164,76722L165,76722L165,76746L166,76746L166,76768L167,76768L167,76788L168,76788L168,76806L169,76806L169,76822L170,76822L170,76837L171,76837L171,76849L172,76849L172,76860L173,76860L173,76868L174,76868L174,76875L175,76875L175,76880L176,76880L176,76882L177,76882L177,76883L178,76883L178,76881L179,76881L179,76878L180,76878L180,76872L181,76872L181,76864L182,76864L182,76855L183,76855L183,76843L184,76843L184,76830L185,76830L185,76814L186,76814L186,76796L187,76796L187,76777L188,76777L188,76755L189,76755L189,76731L190,76731L190,76706L191,76706L191,76678L192,76678L192,76649L193,76649L193,76618L194,76618L194,76584L195,76584L195,76549L196,76549L196,76512L197,76512L197,76474L198,76474L198,76433L199,76433L199,76391L200,76391L200,76347L201,76347L201,76301L202,76301L202,76253L203,76253L203,76204L204,76204L204,76153L205,76153L205,76101L206,76101L206,76047L207,76047L207,75991L208,75991L208,75934L209,75934L209,75876L210,75876L210,75816L211,75816L211,75754L212,75754L212,75692L213,75692L213,75628L214,75628L214,75563L215,75563L215,75496L216,75496L216,75428L217,75428L217,75360L218,75360L218,75290L219,75290L219,75218L220,75218L220,75146L221,75146L221,75073L222,75073L222,74999L223,74999L223,74924L224,74924L224,74848L225,74848L225,74771L226,74771L226,74693L227,74693L227,74614L228,74614L228,74535L229,74535L229,74454L230,74454L230,74373L231,74373L231,74291L232,74291L232,74209L233,74209L233,74126L234,74126L234,74042L235,74042L235,73958L236,73958L236,73873L237,73873L237,73788L238,73788L238,73702L239,73702L239,73616L240,73616L240,73529L241,73529L241,73442L242,73442L242,73355L243,73355L243,73267L244,73267L244,73179L245,73179L245,73091L246,73091L246,73003L247,73003L247,72914L248,72914L248,72826L249,72826L249,72737L250,72737L250,72648L251,72648L251,72559L252,72559L252,72470L253,72470L253,72381L254,72381L254,72292L255,72292L255,72203L256,72203L256,72114L257,72114L257,72025L258,72025L258,71937L259,71937L259,71848L260,71848L260,71760L261,71760L261,71672L262,71672L262,71584L263,71584L263,71496L264,71496L264,71409L265,71409L265,71322L266,71322L266,71235L267,71235L267,71149L268,71149L268,71063L269,71063L269,70978L270,70978L270,70893L271,70893L271,70809L272,70809L272,70725L273,70725L273,70641L274,70641L274,70559L275,70559L275,70477L276,70477L276,70395L277,70395L277,70315L278,70315L278,70234L279,70234L279,70155L280,70155L280,70077L281,70077L281,69999L282,69999L282,69922L283,69922L283,69846L284,69846L284,69771L285,69771L285,69696L286,69696L286,69623L287,69623L287,69550L288,69550L288,69479L289,69479L289,69408L290,69408L290,69339L291,69339L291,69270L292,69270L292,69203L293,69203L293,69137L294,69137L294,69071L295,69071L295,69007L296,69007L296,68945L297,68945L297,68883L298,68883L298,68822L299,68822L299,68763L300,68763L300,68706L301,68706L301,68649L302,68649L302,68594L303,68594L303,68540L304,68540L304,64888L305,64888L305,64837L306,64837L306,64787L307,64787L307,64739L308,64739L308,64693L309,64693L309,64648L310,64648L310,64604L311,64604L311,64562L312,64562L312,64522L313,64522L313,64483L314,64483L314,64446L315,64446L315,64411L316,64411L316,64377L317,64377L317,64344L318,64344L318,64314L319,64314L319,64285L320,64285L320,64258L321,64258L321,64232L322,64232L322,64208L323,64208L323,64186L324,64186L324,64166L325,64166L325,64147L326,64147L326,64130L327,64130L327,64115L328,64115L328,64101L329,64101L329,64090L330,64090L330,64080L331,64080L331,64072L332,64072L332,64066L333,64066L333,64061L334,64061L334,64059L335,64059L335,64058L337,64058L337,64061L338,64061L338,64065L339,64065L339,64072L340,64072L340,64079L341,64079L341,64089L342,64089L342,64100L343,64100L343,64113L344,64113L344,64127L345,64127L345,64143L346,64143L346,64161L347,64161L347,64180L348,64180L348,64201L349,64201L349,64223L350,64223L350,64247L351,64247L351,64272L352,64272L352,64299L353,64299L353,64327L354,64327L354,64356L355,64356L355,64387L356,64387L356,64419L357,64419L357,64452L358,64452L358,64487L359,64487L359,64522L360,64522L360,64559L361,64559L361,64597L362,64597L362,64636L363,64636L363,64676L364,64676L364,64718L365,64718L365,21990L364,21990L364,21974L363,21974L363,21955L362,21955L362,21936L361,21936L361,21914L360,21914L360,21892L359,21892L359,21868L358,21868L358,21842L357,21842L357,21815L356,21815L356,21787L355,21787L355,21758L354,21758L354,21727L353,21727L353,21695L352,21695L352,21662L351,21662L351,21628L350,21628L350,21592L349,21592L349,21555L348,21555L348,21518L347,21518L347,21479L346,21479L346,21439L345,21439L345,21399L344,21399L344,21357L343,21357L343,21315L342,21315L342,21272L341,21272L341,21228L340,21228L340,21183L339,21183L339,21138L338,21138L338,21092L337,21092L337,21046L336,21046L336,20999L335,20999L335,20951L334,20951L334,20903L333,20903L333,20855L332,20855L332,20806L331,20806L331,20757L330,20757L330,20708L329,20708L329,20658L328,20658L328,20608L327,20608L327,20558L326,20558L326,20507L325,20507L325,20456L324,20456L324,20406L323,20406L323,20355L322,20355L322,20304L321,20304L321,20252L320,20252L320,20201L319,20201L319,20150L318,20150L318,20099L317,20099L317,20047L316,20047L316,19996L315,19996L315,19945L314,19945L314,19894L313,19894L313,19843L312,19843L312,19792L311,19792L311,19741L310,19741L310,19691L309,19691L309,19640L308,19640L308,19590L307,19590L307,19540L306,19540L306,19490L305,19490L305,19440L304,19440L304,22991L303,22991L303,22942L302,22942L302,22893L301,22893L301,22844L300,22844L300,22796L299,22796L299,22747L298,22747L298,22699L297,22699L297,22651L296,22651L296,22604L295,22604L295,22556L294,22556L294,22509L293,22509L293,22462L292,22462L292,22415L291,22415L291,22368L290,22368L290,22322L289,22322L289,22275L288,22275L288,22229L287,22229L287,22183L286,22183L286,22137L285,22137L285,22091L284,22091L284,22046L283,22046L283,22000L282,22000L282,21955L281,21955L281,21909L280,21909L280,21864L279,21864L279,21819L278,21819L278,21774L277,21774L277,21729L276,21729L276,21684L275,21684L275,21640L274,21640L274,21595L273,21595L273,21550L272,21550L272,21506L271,21506L271,21461L270,21461L270,21416L269,21416L269,21372L268,21372L268,21327L267,21327L267,21282L266,21282L266,21237L265,21237L265,21192L264,21192L264,21147L263,21147L263,21102L262,21102L262,21057L261,21057L261,21011L260,21011L260,20965L259,20965L259,20920L258,20920L258,20873L257,20873L257,20827L256,20827L256,20781L255,20781L255,20734L254,20734L254,20687L253,20687L253,20640L252,20640L252,20593L251,20593L251,20545L250,20545L250,20497L249,20497L249,20449L248,20449L248,20401L247,20401L247,20353L246,20353L246,20304L245,20304L245,20255L244,20255L244,20205L243,20205L243,20156L242,20156L242,20106L241,20106L241,20056L240,20056L240,20006L239,20006L239,19955L238,19955L238,19904L237,19904L237,19853L236,19853L236,19801L235,19801L235,19749L234,19749L234,19697L233,19697L233,19645L232,19645L232,19592L231,19592L231,19539L230,19539L230,19486L229,19486L229,19432L228,19432L228,19378L227,19378L227,19324L226,19324L226,19270L225,19270L225,19216L224,19216L224,19161L223,19161L223,19106L222,19106L222,19051L221,19051L221,18996L220,18996L220,18941L219,18941L219,18886L218,18886L218,18831L217,18831L217,18776L216,18776L216,18721L215,18721L215,18666L214,18666L214,18611L213,18611L213,18556L212,18556L212,18501L211,18501L211,18447L210,18447L210,18393L209,18393L209,18339L208,18339L208,18285L207,18285L207,18231L206,18231L206,18178L205,18178L205,18125L204,18125L204,18073L203,18073L203,18021L202,18021L202,17970L201,17970L201,17919L200,17919L200,17869L199,17869L199,17819L198,17819L198,17770L197,17770L197,17722L196,17722L196,17675L195,17675L195,17628L194,17628L194,17582L193,17582L193,17538L192,17538L192,17494L191,17494L191,17451L190,17451L190,17410L189,17410L189,17369L188,17369L188,17330L187,17330L187,17292L186,17292L186,17256L185,17256L185,17221L184,17221L184,17187L183,17187L183,17154L182,17154L182,17124L181,17124L181,17094L180,17094L180,17066L179,17066L179,17040L178,17040L178,17015L177,17015L177,16992L176,16992L176,16971L175,16971L175,16952L174,16952L174,16934L173,16934L173,16918L172,16918L172,16903L171,16903L171,16891L170,16891L170,16880L169,16880L169,16872L168,16872L168,16865L167,16865L167,16860L166,16860L166,16857L165,16857L165,16856L164,16856L164,16857L163,16857L163,16860L162,16860L162,16865L161,16865L161,16872L160,16872L160,16881L159,16881L159,16892L158,16892L158,16904L157,16904L157,16919L156,16919L156,16936L155,16936L155,16955L154,16955L154,16976L153,16976L153,16999L152,16999L152,17024L151,17024L151,17051L150,17051L150,17079L149,17079L149,17110L148,17110L148,17142L147,17142L147,17176L146,17176L146,17212L145,17212L145,17250L144,17250L144,17289L143,17289L143,17331L142,17331L142,17374L141,17374L141,17418L140,17418L140,17465L139,17465L139,17513L138,17513L138,17562L137,17562L137,17613L136,17613L136,17666L135,17666L135,17720L134,17720L134,17775L133,17775L133,17832L132,17832L132,17891L131,17891L131,17951L130,17951L130,18012L129,18012L129,18074L128,18074L128,18138L127,18138L127,18203L126,18203L126,18269L125,18269L125,18337L124,18337L124,18405L123,18405L123,18475L122,18475L122,18546L121,18546L121,18618L120,18618L120,18690L119,18690L119,18764L118,18764L118,18839L117,18839L117,18914L116,18914L116,18991L115,18991L115,19068L114,19068L114,19146L113,19146L113,19224L112,19224L112,19304L111,19304L111,19384L110,19384L110,19464L109,19464L109,19545L108,19545L108,19627L107,19627L107,19710L106,19710L106,19793L105,19793L105,19876L104,19876L104,19960L103,19960L103,20044L102,20044L102,20129L101,20129L101,20213L100,20213L100,20299L99,20299L99,20384L98,20384L98,20470L97,20470L97,20556L96,20556L96,20643L95,20643L95,20729L94,20729L94,20816L93,20816L93,20903L92,20903L92,20989L91,20989L91,21076L90,21076L90,21163L89,21163L89,21250L88,21250L88,21337L87,21337L87,21424L86,21424L86,21510L85,21510L85,21597L84,21597L84,21683L83,21683L83,21769L82,21769L82,21855L81,21855L81,21940L80,21940L80,22025L79,22025L79,22110L78,22110L78,22195L77,22195L77,22279L76,22279L76,22363L75,22363L75,22446L74,22446L74,22529L73,22529L73,22612L72,22612L72,22694L71,22694L71,22775L70,22775L70,22856L69,22856L69,22936L68,22936L68,23016L67,23016L67,23095L66,23095L66,19573L65,19573L65,19651L64,19651L64,19728L63,19728L63,19804L62,19804L62,19879L61,19879L61,19954L60,19954L60,20027L59,20027L59,20100L58,20100L58,20172L57,20172L57,20243L56,20243L56,20313L55,20313L55,20382L54,20382L54,20450L53,20450L53,20517L52,20517L52,20582L51,20582L51,20647L50,20647L50,20710L49,20710L49,20773L48,20773L48,20834L47,20834L47,20894L46,20894L46,20953L45,20953L45,21010L44,21010L44,21066L43,21066L43,21121L42,21121L42,21175L41,21175L41,21227L40,21227L40,21278L39,21278L39,21327L38,21327L38,21375L37,21375L37,21422L36,21422L36,21467L35,21467L35,21510L34,21510L34,21553L33,21553L33,21593L32,21593L32,21632L31,21632L31,21670L30,21670L30,21706L29,21706L29,21740L28,21740L28,21773L27,21773L27,21804L26,21804L26,21833L25,21833L25,21861L24,21861L24,21887L23,21887L23,21911L22,21911L22,21933L21,21933L21,21954L20,21954L20,21973L19,21973L19,21991L18,21991L18,22006L17,22006L17,22020L16,22020L16,22032L15,22032L15,22043L14,22043L14,22051L13,22051L13,22058L12,22058L12,22064L11,22064L11,22067L10,22067L10,22069L8,22069L8,22067L7,22067L7,22064L6,22064L6,22059L5,22059L5,22053L4,22053L4,22044L3,22044L3,22034L2,22034L2,22023L1,22023L1,22010Z"/>
<path fill="#0060c0" stroke="none" stroke-width="0" d="M0,23890L0,62890L1,62890L1,62935L2,62935L2,62981L3,62981L3,63027L4,63027L4,63075L5,63075L5,63123L6,63123L6,63172L7,63172L7,63222L8,63222L8,63273L9,63273L9,63324L10,63324L10,63376L11,63376L11,63428L12,63428L12,63482L13,63482L13,63535L14,63535L14,63590L15,63590L15,63644L16,63644L16,63699L17,63699L17,63755L18,63755L18,63810L19,63810L19,63866L20,63866L20,63922L21,63922L21,63979L22,63979L22,64035L23,64035L23,64092L24,64092L24,64148L25,64148L25,64205L26,64205L26,64262L27,64262L27,64319L28,64319L28,64376L29,64376L29,64432L30,64432L30,64489L31,64489L31,64545L32,64545L32,64602L33,64602L33,64658L34,64658L34,64715L35,64715L35,64771L36,64771L36,64827L37,64827L37,64882L38,64882L38,64938L39,64938L39,64994L40,64994L40,65049L41,65049L41,65104L42,65104L42,65159L43,65159L43,65213L44,65213L44,65268L45,65268L45,65322L46,65322L46,65376L47,65376L47,65429L48,65429L48,65483L49,65483L49,65536L50,65536L50,65589L51,65589L51,65641L52,65641L52,65693L53,65693L53,65745L54,65745L54,65797L55,65797L55,65848L56,65848L56,65899L57,65899L57,65950L58,65950L58,66001L59,66001L59,66051L60,66051L60,66101L61,66101L61,66151L62,66151L62,66201L63,66201L63,66251L64,66251L64,66300L65,66300L65,66349L66,66349L66,69998L67,69998L67,70047L68,70047L68,70096L69,70096L69,70144L70,70144L70,70193L71,70193L71,70241L72,70241L72,70289L73,70289L73,70338L74,70338L74,70386L75,70386L75,70434L76,70434L76,70482L77,70482L77,70530L78,70530L78,70578L79,70578L79,70625L80,70625L80,70673L81,70673L81,70721L82,70721L82,70769L83,70769L83,70817L84,70817L84,70864L85,70864L85,70912L86,70912L86,70960L87,70960L87,71008L88,71008L88,71056L89,71056L89,71104L90,71104L90,71152L91,71152L91,71200L92,71200L92,71248L93,71248L93,71296L94,71296L94,71345L95,71345L95,71394L96,71394L96,71442L97,71442L97,71491L98,71491L98,71540L99,71540L99,71590L100,71590L100,71639L101,71639L101,71689L102,71689L102,71738L103,71738L103,71788L104,71788L104,71838L105,71838L105,71889L106,71889L106,71939L107,71939L107,71990L108,71990L108,72040L109,72040L109,72091L110,72091L110,72142L111,72142L111,72193L112,72193L112,72244L113,72244L113,72295L114,72295L114,72347L115,72347L115,72398L116,72398L116,72450L117,72450L117,72501L118,72501L118,72553L119,72553L119,72604L120,72604L120,72656L121,72656L121,72708L122,72708L122,72759L123,72759L123,72811L124,72811L124,72863L125,72863L125,72914L126,72914L126,72966L127,72966L127,73017L128,73017L128,73068L129,73068L129,73120L130,73120L130,73171L131,73171L131,73222L132,73222L132,73272L133,73272L133,73323L134,73323L134,73373L135,73373L135,73422L136,73422L136,73472L137,73472L137,73521L138,73521L138,73569L139,73569L139,73617L140,73617L140,73665L141,73665L141,73712L142,73712L142,73758L143,73758L143,73804L144,73804L144,73849L145,73849L145,73893L146,73893L146,73936L147,73936L147,73979L148,73979L148,74021L149,74021L149,74062L150,74062L150,74102L151,74102L151,74141L152,74141L152,74180L153,74180L153,74217L154,74217L154,74253L155,74253L155,74288L156,74288L156,74322L157,74322L157,74355L158,74355L158,74386L159,74386L159,74417L160,74417L160,74446L161,74446L161,74474L162,74474L162,74500L163,74500L163,74525L164,74525L164,74549L165,74549L165,74571L166,74571L166,74591L167,74591L167,74610L168,74610L168,74628L169,74628L169,74644L170,74644L170,74658L171,74658L171,74671L172,74671L172,74682L173,74682L173,74691L174,74691L174,74698L175,74698L175,74704L176,74704L176,74708L177,74708L177,74710L178,74710L178,74711L179,74711L179,74710L180,74710L180,74707L181,74707L181,74702L182,74702L182,74695L183,74695L183,74687L184,74687L184,74677L185,74677L185,74665L186,74665L186,74651L187,74651L187,74636L188,74636L188,74618L189,74618L189,74599L190,74599L190,74579L191,74579L191,74556L192,74556L192,74532L193,74532L193,74506L194,74506L194,74478L195,74478L195,74448L196,74448L196,74417L197,74417L197,74384L198,74384L198,74349L199,74349L199,74313L200,74313L200,74275L201,74275L201,74235L202,74235L202,74194L203,74194L203,74151L204,74151L204,74107L205,74107L205,74061L206,74061L206,74013L207,74013L207,73964L208,73964L208,73914L209,73914L209,73862L210,73862L210,73808L211,73808L211,73754L212,73754L212,73698L213,73698L213,73640L214,73640L214,73582L215,73582L215,73522L216,73522L216,73461L217,73461L217,73399L218,73399L218,73335L219,73335L219,73270L220,73270L220,73205L221,73205L221,73138L222,73138L222,73070L223,73070L223,73001L224,73001L224,72931L225,72931L225,72860L226,72860L226,72788L227,72788L227,72716L228,72716L228,72642L229,72642L229,72568L230,72568L230,72492L231,72492L231,72416L232,72416L232,72339L233,72339L233,72261L234,72261L234,72183L235,72183L235,72104L236,72104L236,72024L237,72024L237,71944L238,71944L238,71863L239,71863L239,71782L240,71782L240,71700L241,71700L241,71617L242,71617L242,71534L243,71534L243,71451L244,71451L244,71367L245,71367L245,71283L246,71283L246,71199L247,71199L247,71114L248,71114L248,71029L249,71029L249,70944L250,70944L250,70858L251,70858L251,70773L252,70773L252,70687L253,70687L253,70601L254,70601L254,70515L255,70515L255,70429L256,70429L256,70343L257,70343L257,70257L258,70257L258,70170L259,70170L259,70084L260,70084L260,69998L261,69998L261,69912L262,69912L262,69826L263,69826L263,69740L264,69740L264,69654L265,69654L265,69569L266,69569L266,69484L267,69484L267,69399L268,69399L268,69314L269,69314L269,69230L270,69230L270,69146L271,69146L271,69062L272,69062L272,68979L273,68979L273,68896L274,68896L274,68814L275,68814L275,68732L276,68732L276,68651L277,68651L277,68570L278,68570L278,68490L279,68490L279,68411L280,68411L280,68332L281,68332L281,68254L282,68254L282,68176L283,68176L283,68099L284,68099L284,68023L285,68023L285,67948L286,67948L286,67874L287,67874L287,67800L288,67800L288,67728L289,67728L289,67656L290,67656L290,67585L291,67585L291,67515L292,67515L292,67446L293,67446L293,67378L294,67378L294,67311L295,67311L295,67245L296,67245L296,67180L297,67180L297,67117L298,67117L298,67054L299,67054L299,66993L300,66993L300,66933L301,66933L301,66874L302,66874L302,66817L303,66817L303,66760L304,66760L304,63106L305,63106L305,63052L306,63052L306,63000L307,63000L307,62949L308,62949L308,62900L309,62900L309,62852L310,62852L310,62806L311,62806L311,62762L312,62762L312,62718L313,62718L313,62677L314,62677L314,62637L315,62637L315,62598L316,62598L316,62561L317,62561L317,62526L318,62526L318,62493L319,62493L319,62461L320,62461L320,62431L321,62431L321,62402L322,62402L322,62376L323,62376L323,62351L324,62351L324,62327L325,62327L325,62306L326,62306L326,62286L327,62286L327,62268L328,62268L328,62252L329,62252L329,62238L330,62238L330,62226L331,62226L331,62215L332,62215L332,62206L333,62206L333,62200L334,62200L334,62195L335,62195L335,62191L336,62191L336,62190L337,62190L337,62191L338,62191L338,62193L339,62193L339,62197L340,62197L340,62203L341,62203L341,62211L342,62211L342,62221L343,62221L343,62232L344,62232L344,62245L345,62245L345,62260L346,62260L346,62277L347,62277L347,62295L348,62295L348,62315L349,62315L349,62337L350,62337L350,62360L351,62360L351,62385L352,62385L352,62411L353,62411L353,62439L354,62439L354,62468L355,62468L355,62499L356,62499L356,62531L357,62531L357,62564L358,62564L358,62599L359,62599L359,62636L360,62636L360,62673L361,62673L361,62712L362,62712L362,62752L363,62752L363,62793L364,62793L364,62836L365,62836L365,23872L364,23872L364,23857L363,23857L363,23840L362,23840L362,23821L361,23821L361,23800L360,23800L360,23779L359,23779L359,23755L358,23755L358,23730L357,23730L357,23704L356,23704L356,23676L355,23676L355,23646L354,23646L354,23615L353,23615L353,23583L352,23583L352,23550L351,23550L351,23515L350,23515L350,23479L349,23479L349,23441L348,23441L348,23403L347,23403L347,23363L346,23363L346,23323L345,23323L345,23281L344,23281L344,23238L343,23238L343,23194L342,23194L342,23150L341,23150L341,23104L340,23104L340,23058L339,23058L339,23011L338,23011L338,22963L337,22963L337,22914L336,22914L336,22865L335,22865L335,22815L334,22815L334,22765L333,22765L333,22714L332,22714L332,22663L331,22663L331,22611L330,22611L330,22559L329,22559L329,22507L328,22507L328,22454L327,22454L327,22402L326,22402L326,22348L325,22348L325,22295L324,22295L324,22241L323,22241L323,22187L322,22187L322,22134L321,22134L321,22080L320,22080L320,22025L319,22025L319,21971L318,21971L318,21917L317,21917L317,21863L316,21863L316,21809L315,21809L315,21755L314,21755L314,21701L313,21701L313,21647L312,21647L312,21593L311,21593L311,21540L310,21540L310,21487L309,21487L309,21434L308,21434L308,21381L307,21381L307,21328L306,21328L306,21276L305,21276L305,21223L304,21223L304,24772L303,24772L303,24720L302,24720L302,24669L301,24669L301,24618L300,24618L300,24567L299,24567L299,24517L298,24517L298,24467L297,24467L297,24417L296,24417L296,24367L295,24367L295,24318L294,24318L294,24269L293,24269L293,24221L292,24221L292,24172L291,24172L291,24124L290,24124L290,24076L289,24076L289,24029L288,24029L288,23981L287,23981L287,23934L286,23934L286,23887L285,23887L285,23841L284,23841L284,23794L283,23794L283,23748L282,23748L282,23702L281,23702L281,23657L280,23657L280,23611L279,23611L279,23566L278,23566L278,23521L277,23521L277,23476L276,23476L276,23432L275,23432L275,23387L274,23387L274,23343L273,23343L273,23299L272,23299L272,23255L271,23255L271,23211L270,23211L270,23168L269,23168L269,23124L268,23124L268,23081L267,23081L267,23037L266,23037L266,22994L265,22994L265,22950L264,22950L264,22907L263,22907L263,22864L262,22864L262,22820L261,22820L261,22777L260,22777L260,22733L259,22733L259,22690L258,22690L258,22646L257,22646L257,22603L256,22603L256,22559L255,22559L255,22515L254,22515L254,22471L253,22471L253,22428L252,22428L252,22383L251,22383L251,22339L250,22339L250,22295L249,22295L249,22251L248,22251L248,22206L247,22206L247,22162L246,22162L246,22117L245,22117L245,22072L244,22072L244,22027L243,22027L243,21982L242,21982L242,21937L241,21937L241,21891L240,21891L240,21845L239,21845L239,21800L238,21800L238,21754L237,21754L237,21707L236,21707L236,21661L235,21661L235,21614L234,21614L234,21568L233,21568L233,21521L232,21521L232,21474L231,21474L231,21426L230,21426L230,21379L229,21379L229,21331L228,21331L228,21283L227,21283L227,21235L226,21235L226,21187L225,21187L225,21139L224,21139L224,21090L223,21090L223,21042L222,21042L222,20993L221,20993L221,20945L220,20945L220,20896L219,20896L219,20848L218,20848L218,20799L217,20799L217,20750L216,20750L216,20702L215,20702L215,20653L214,20653L214,20605L213,20605L213,20557L212,20557L212,20509L211,20509L211,20461L210,20461L210,20413L209,20413L209,20366L208,20366L208,20319L207,20319L207,20272L206,20272L206,20225L205,20225L205,20179L204,20179L204,20132L203,20132L203,20087L202,20087L202,20042L201,20042L201,19997L200,19997L200,19953L199,19953L199,19909L198,19909L198,19866L197,19866L197,19823L196,19823L196,19781L195,19781L195,19740L194,19740L194,19700L193,19700L193,19660L192,19660L192,19621L191,19621L191,19583L190,19583L190,19546L189,19546L189,19510L188,19510L188,19475L187,19475L187,19441L186,19441L186,19409L185,19409L185,19377L184,19377L184,19346L183,19346L183,19317L182,19317L182,19289L181,19289L181,19262L180,19262L180,19236L179,19236L179,19212L178,19212L178,19189L177,19189L177,19168L176,19168L176,19148L175,19148L175,19129L174,19129L174,19112L173,19112L173,19096L172,19096L172,19082L171,19082L171,19070L170,19070L170,19059L169,19059L169,19049L168,19049L168,19041L167,19041L167,19035L166,19035L166,19031L165,19031L165,19028L164,19028L164,19027L163,19027L163,19028L162,19028L162,19030L161,19030L161,19034L160,19034L160,19040L159,19040L159,19048L158,19048L158,19057L157,19057L157,19068L156,19068L156,19081L155,19081L155,19096L154,19096L154,19112L153,19112L153,19131L152,19131L152,19151L151,19151L151,19173L150,19173L150,19196L149,19196L149,19221L148,19221L148,19248L147,19248L147,19277L146,19277L146,19307L145,19307L145,19339L144,19339L144,19373L143,19373L143,19408L142,19408L142,19445L141,19445L141,19483L140,19483L140,19523L139,19523L139,19564L138,19564L138,19607L137,19607L137,19652L136,19652L136,19698L135,19698L135,19745L134,19745L134,19794L133,19794L133,19845L132,19845L132,19897L131,19897L131,19950L130,19950L130,20004L129,20004L129,20060L128,20060L128,20117L127,20117L127,20175L126,20175L126,20235L125,20235L125,20296L124,20296L124,20358L123,20358L123,20421L122,20421L122,20485L121,20485L121,20551L120,20551L120,20617L119,20617L119,20684L118,20684L118,20753L117,20753L117,20822L116,20822L116,20892L115,20892L115,20964L114,20964L114,21036L113,21036L113,21108L112,21108L112,21182L111,21182L111,21256L110,21256L110,21331L109,21331L109,21407L108,21407L108,21484L107,21484L107,21561L106,21561L106,21639L105,21639L105,21717L104,21717L104,21796L103,21796L103,21875L102,21875L102,21955L101,21955L101,22036L100,22036L100,22117L99,22117L99,22198L98,22198L98,22280L97,22280L97,22362L96,22362L96,22444L95,22444L95,22527L94,22527L94,22610L93,22610L93,22693L92,22693L92,22776L91,22776L91,22860L90,22860L90,22944L89,22944L89,23028L88,23028L88,23111L87,23111L87,23195L86,23195L86,23279L85,23279L85,23363L84,23363L84,23447L83,23447L83,23531L82,23531L82,23615L81,23615L81,23698L80,23698L80,23782L79,23782L79,23865L78,23865L78,23948L77,23948L77,24031L76,24031L76,24113L75,24113L75,24196L74,24196L74,24277L73,24277L73,24359L72,24359L72,24440L71,24440L71,24521L70,24521L70,24601L69,24601L69,24681L68,24681L68,24761L67,24761L67,24839L66,24839L66,21318L65,21318L65,21395L64,21395L64,21473L63,21473L63,21549L62,21549L62,21625L61,21625L61,21700L60,21700L60,21774L59,21774L59,21848L58,21848L58,21920L57,21920L57,21992L56,21992L56,22063L55,22063L55,22134L54,22134L54,22203L53,22203L53,22271L52,22271L52,22338L51,22338L51,22405L50,22405L50,22470L49,22470L49,22534L48,22534L48,22597L47,22597L47,22659L46,22659L46,22720L45,22720L45,22779L44,22779L44,22838L43,22838L43,22895L42,22895L42,22951L41,22951L41,23005L40,23005L40,23059L39,23059L39,23111L38,23111L38,23161L37,23161L37,23210L36,23210L36,23258L35,23258L35,23305L34,23305L34,23350L33,23350L33,23393L32,23393L32,23435L31,23435L31,23475L30,23475L30,23514L29,23514L29,23551L28,23551L28,23587L27,23587L27,23621L26,23621L26,23653L25,23653L25,23684L24,23684L24,23713L23,23713L23,23740L22,23740L22,23765L21,23765L21,23789L20,23789L20,23811L19,23811L19,23831L18,23831L18,23849L17,23849L17,23866L16,23866L16,23881L15,23881L15,23894L14,23894L14,23905L13,23905L13,23915L12,23915L12,23922L11,23922L11,23928L10,23928L10,23932L9,23932L9,23935L7,23935L7,23934L6,23934L6,23931L5,23931L5,23926L4,23926L4,23920L3,23920L3,23912L2,23912L2,23902L1,23902L1,23890Z"/>
<path fill="#80c0ff" stroke="none" stroke-width="0" d="M0,25559L0,61222L1,61222L1,61268L2,61268L2,61315L3,61315L3,61364L4,61364L4,61413L5,61413L5,61463L6,61463L6,61515L7,61515L7,61567L8,61567L8,61620L9,61620L9,61674L10,61674L10,61728L11,61728L11,61783L12,61783L12,61839L13,61839L13,61896L14,61896L14,61953L15,61953L15,62010L16,62010L16,62068L17,62068L17,62127L18,62127L18,62185L19,62185L19,62244L20,62244L20,62304L21,62304L21,62363L22,62363L22,62423L23,62423L23,62483L24,62483L24,62543L25,62543L25,62603L26,62603L26,62663L27,62663L27,62723L28,62723L28,62783L29,62783L29,62843L30,62843L30,62903L31,62903L31,62962L32,62962L32,63022L33,63022L33,63082L34,63082L34,63141L35,63141L35,63200L36,63200L36,63259L37,63259L37,63318L38,63318L38,63377L39,63377L39,63435L40,63435L40,63493L41,63493L41,63551L42,63551L42,63609L43,63609L43,63666L44,63666L44,63723L45,63723L45,63780L46,63780L46,63836L47,63836L47,63892L48,63892L48,63948L49,63948L49,64003L50,64003L50,64058L51,64058L51,64113L52,64113L52,64167L53,64167L53,64221L54,64221L54,64275L55,64275L55,64328L56,64328L56,64381L57,64381L57,64433L58,64433L58,64486L59,64486L59,64537L60,64537L60,64589L61,64589L61,64640L62,64640L62,64691L63,64691L63,64741L64,64741L64,64792L65,64792L65,64842L66,64842L66,68491L67,68491L67,68541L68,68541L68,68590L69,68590L69,68639L70,68639L70,68688L71,68688L71,68737L72,68737L72,68785L73,68785L73,68833L74,68833L74,68881L75,68881L75,68929L76,68929L76,68977L77,68977L77,69024L78,69024L78,69072L79,69072L79,69119L80,69119L80,69166L81,69166L81,69213L82,69213L82,69260L83,69260L83,69307L84,69307L84,69353L85,69353L85,69400L86,69400L86,69446L87,69446L87,69493L88,69493L88,69539L89,69539L89,69585L90,69585L90,69631L91,69631L91,69678L92,69678L92,69724L93,69724L93,69770L94,69770L94,69817L95,69817L95,69863L96,69863L96,69909L97,69909L97,69956L98,69956L98,70002L99,70002L99,70049L100,70049L100,70096L101,70096L101,70142L102,70142L102,70189L103,70189L103,70236L104,70236L104,70283L105,70283L105,70330L106,70330L106,70377L107,70377L107,70425L108,70425L108,70472L109,70472L109,70519L110,70519L110,70566L111,70566L111,70614L112,70614L112,70661L113,70661L113,70709L114,70709L114,70756L115,70756L115,70804L116,70804L116,70851L117,70851L117,70899L118,70899L118,70947L119,70947L119,70994L120,70994L120,71042L121,71042L121,71089L122,71089L122,71137L123,71137L123,71184L124,71184L124,71231L125,71231L125,71279L126,71279L126,71326L127,71326L127,71373L128,71373L128,71420L129,71420L129,71467L130,71467L130,71514L131,71514L131,71561L132,71561L132,71607L133,71607L133,71653L134,71653L134,71699L135,71699L135,71744L136,71744L136,71790L137,71790L137,71835L138,71835L138,71879L139,71879L139,71923L140,71923L140,71966L141,71966L141,72009L142,72009L142,72052L143,72052L143,72094L144,72094L144,72135L145,72135L145,72176L146,72176L146,72216L147,72216L147,72255L148,72255L148,72294L149,72294L149,72332L150,72332L150,72369L151,72369L151,72405L152,72405L152,72440L153,72440L153,72475L154,72475L154,72508L155,72508L155,72541L156,72541L156,72572L157,72572L157,72603L158,72603L158,72632L159,72632L159,72661L160,72661L160,72688L161,72688L161,72714L162,72714L162,72739L163,72739L163,72763L164,72763L164,72785L165,72785L165,72807L166,72807L166,72826L167,72826L167,72845L168,72845L168,72862L169,72862L169,72878L170,72878L170,72892L171,72892L171,72905L172,72905L172,72916L173,72916L173,72925L174,72925L174,72933L175,72933L175,72940L176,72940L176,72945L177,72945L177,72948L178,72948L178,72950L180,72950L180,72949L181,72949L181,72946L182,72946L182,72941L183,72941L183,72935L184,72935L184,72927L185,72927L185,72917L186,72917L186,72906L187,72906L187,72893L188,72893L188,72879L189,72879L189,72862L190,72862L190,72845L191,72845L191,72825L192,72825L192,72804L193,72804L193,72781L194,72781L194,72757L195,72757L195,72731L196,72731L196,72703L197,72703L197,72674L198,72674L198,72643L199,72643L199,72610L200,72610L200,72576L201,72576L201,72540L202,72540L202,72503L203,72503L203,72464L204,72464L204,72424L205,72424L205,72382L206,72382L206,72339L207,72339L207,72294L208,72294L208,72248L209,72248L209,72200L210,72200L210,72151L211,72151L211,72101L212,72101L212,72049L213,72049L213,71996L214,71996L214,71941L215,71941L215,71886L216,71886L216,71829L217,71829L217,71771L218,71771L218,71711L219,71711L219,71651L220,71651L220,71589L221,71589L221,71527L222,71527L222,71463L223,71463L223,71398L224,71398L224,71332L225,71332L225,71265L226,71265L226,71197L227,71197L227,71128L228,71128L228,71058L229,71058L229,70988L230,70988L230,70916L231,70916L231,70843L232,70843L232,70770L233,70770L233,70696L234,70696L234,70621L235,70621L235,70545L236,70545L236,70468L237,70468L237,70391L238,70391L238,70313L239,70313L239,70235L240,70235L240,70156L241,70156L241,70076L242,70076L242,69996L243,69996L243,69915L244,69915L244,69834L245,69834L245,69752L246,69752L246,69670L247,69670L247,69588L248,69588L248,69505L249,69505L249,69422L250,69422L250,69338L251,69338L251,69255L252,69255L252,69171L253,69171L253,69086L254,69086L254,69002L255,69002L255,68917L256,68917L256,68832L257,68832L257,68747L258,68747L258,68662L259,68662L259,68577L260,68577L260,68492L261,68492L261,68407L262,68407L262,68322L263,68322L263,68236L264,68236L264,68151L265,68151L265,68066L266,68066L266,67981L267,67981L267,67897L268,67897L268,67812L269,67812L269,67728L270,67728L270,67644L271,67644L271,67560L272,67560L272,67476L273,67476L273,67393L274,67393L274,67311L275,67311L275,67228L276,67228L276,67146L277,67146L277,67065L278,67065L278,66984L279,66984L279,66903L280,66903L280,66823L281,66823L281,66744L282,66744L282,66665L283,66665L283,66587L284,66587L284,66510L285,66510L285,66433L286,66433L286,66357L287,66357L287,66282L288,66282L288,66207L289,66207L289,66134L290,66134L290,66061L291,66061L291,65989L292,65989L292,65918L293,65918L293,65848L294,65848L294,65778L295,65778L295,65710L296,65710L296,65643L297,65643L297,65577L298,65577L298,65512L299,65512L299,65448L300,65448L300,65385L301,65385L301,65323L302,65323L302,65263L303,65263L303,65204L304,65204L304,61546L305,61546L305,61490L306,61490L306,61435L307,61435L307,61381L308,61381L308,61329L309,61329L309,61278L310,61278L310,61229L311,61229L311,61181L312,61181L312,61134L313,61134L313,61089L314,61089L314,61046L315,61046L315,61005L316,61005L316,60964L317,60964L317,60926L318,60926L318,60889L319,60889L319,60854L320,60854L320,60821L321,60821L321,60789L322,60789L322,60759L323,60759L323,60731L324,60731L324,60705L325,60705L325,60680L326,60680L326,60658L327,60658L327,60637L328,60637L328,60618L329,60618L329,60601L330,60601L330,60585L331,60585L331,60572L332,60572L332,60561L333,60561L333,60551L334,60551L334,60544L335,60544L335,60538L336,60538L336,60535L337,60535L337,60533L339,60533L339,60536L340,60536L340,60540L341,60540L341,60546L342,60546L342,60554L343,60554L343,60564L344,60564L344,60575L345,60575L345,60589L346,60589L346,60604L347,60604L347,60622L348,60622L348,60641L349,60641L349,60661L350,60661L350,60684L351,60684L351,60708L352,60708L352,60734L353,60734L353,60762L354,60762L354,60791L355,60791L355,60822L356,60822L356,60854L357,60854L357,60888L358,60888L358,60923L359,60923L359,60960L360,60960L360,60999L361,60999L361,61038L362,61038L362,61079L363,61079L363,61122L364,61122L364,61165L365,61165L365,25543L364,25543L364,25528L363,25528L363,25512L362,25512L362,25495L361,25495L361,25475L360,25475L360,25454L359,25454L359,25431L358,25431L358,25407L357,25407L357,25380L356,25380L356,25353L355,25353L355,25323L354,25323L354,25292L353,25292L353,25260L352,25260L352,25226L351,25226L351,25191L350,25191L350,25154L349,25154L349,25116L348,25116L348,25077L347,25077L347,25036L346,25036L346,24994L345,24994L345,24951L344,24951L344,24907L343,24907L343,24861L342,24861L342,24815L341,24815L341,24768L340,24768L340,24719L339,24719L339,24670L338,24670L338,24620L337,24620L337,24570L336,24570L336,24518L335,24518L335,24466L334,24466L334,24413L333,24413L333,24360L332,24360L332,24306L331,24306L331,24252L330,24252L330,24197L329,24197L329,24142L328,24142L328,24086L327,24086L327,24030L326,24030L326,23974L325,23974L325,23918L324,23918L324,23861L323,23861L323,23804L322,23804L322,23747L321,23747L321,23690L320,23690L320,23632L319,23632L319,23575L318,23575L318,23518L317,23518L317,23460L316,23460L316,23403L315,23403L315,23346L314,23346L314,23289L313,23289L313,23232L312,23232L312,23175L311,23175L311,23118L310,23118L310,23062L309,23062L309,23005L308,23005L308,22949L307,22949L307,22894L306,22894L306,22838L305,22838L305,22783L304,22783L304,26329L303,26329L303,26274L302,26274L302,26220L301,26220L301,26167L300,26167L300,26113L299,26113L299,26060L298,26060L298,26008L297,26008L297,25955L296,25955L296,25903L295,25903L295,25852L294,25852L294,25801L293,25801L293,25750L292,25750L292,25699L291,25699L291,25649L290,25649L290,25599L289,25599L289,25550L288,25550L288,25501L287,25501L287,25452L286,25452L286,25404L285,25404L285,25356L284,25356L284,25308L283,25308L283,25260L282,25260L282,25213L281,25213L281,25167L280,25167L280,25120L279,25120L279,25074L278,25074L278,25028L277,25028L277,24983L276,24983L276,24937L275,24937L275,24893L274,24893L274,24848L273,24848L273,24804L272,24804L272,24759L271,24759L271,24716L270,24716L270,24672L269,24672L269,24628L268,24628L268,24585L267,24585L267,24542L266,24542L266,24499L265,24499L265,24456L264,24456L264,24413L263,24413L263,24371L262,24371L262,24328L261,24328L261,24286L260,24286L260,24243L259,24243L259,24201L258,24201L258,24159L257,24159L257,24116L256,24116L256,24074L255,24074L255,24032L254,24032L254,23989L253,23989L253,23947L252,23947L252,23905L251,23905L251,23863L250,23863L250,23821L249,23821L249,23778L248,23778L248,23736L247,23736L247,23694L246,23694L246,23651L245,23651L245,23609L244,23609L244,23567L243,23567L243,23524L242,23524L242,23482L241,23482L241,23439L240,23439L240,23396L239,23396L239,23353L238,23353L238,23310L237,23310L237,23267L236,23267L236,23224L235,23224L235,23181L234,23181L234,23138L233,23138L233,23094L232,23094L232,23051L231,23051L231,23007L230,23007L230,22963L229,22963L229,22919L228,22919L228,22875L227,22875L227,22831L226,22831L226,22787L225,22787L225,22742L224,22742L224,22698L223,22698L223,22653L222,22653L222,22609L221,22609L221,22565L220,22565L220,22520L219,22520L219,22476L218,22476L218,22431L217,22431L217,22387L216,22387L216,22343L215,22343L215,22298L214,22298L214,22254L213,22254L213,22210L212,22210L212,22167L211,22167L211,22123L210,22123L210,22079L209,22079L209,22036L208,22036L208,21993L207,21993L207,21950L206,21950L206,21908L205,21908L205,21865L204,21865L204,21823L203,21823L203,21782L202,21782L202,21740L201,21740L201,21700L200,21700L200,21659L199,21659L199,21619L198,21619L198,21580L197,21580L197,21541L196,21541L196,21502L195,21502L195,21464L194,21464L194,21427L193,21427L193,21391L192,21391L192,21355L191,21355L191,21320L190,21320L190,21286L189,21286L189,21253L188,21253L188,21220L187,21220L187,21189L186,21189L186,21158L185,21158L185,21129L184,21129L184,21100L183,21100L183,21073L182,21073L182,21047L181,21047L181,21021L180,21021L180,20997L179,20997L179,20974L178,20974L178,20952L177,20952L177,20932L176,20932L176,20913L175,20913L175,20895L174,20895L174,20878L173,20878L173,20862L172,20862L172,20848L171,20848L171,20836L170,20836L170,20824L169,20824L169,20815L168,20815L168,20806L167,20806L167,20799L166,20799L166,20794L165,20794L165,20790L164,20790L164,20788L163,20788L163,20787L162,20787L162,20788L161,20788L161,20790L160,20790L160,20794L159,20794L159,20800L158,20800L158,20807L157,20807L157,20816L156,20816L156,20826L155,20826L155,20838L154,20838L154,20852L153,20852L153,20867L152,20867L152,20885L151,20885L151,20903L150,20903L150,20923L149,20923L149,20945L148,20945L148,20969L147,20969L147,20994L146,20994L146,21021L145,21021L145,21049L144,21049L144,21079L143,21079L143,21110L142,21110L142,21143L141,21143L141,21177L140,21177L140,21213L139,21213L139,21251L138,21251L138,21289L137,21289L137,21330L136,21330L136,21372L135,21372L135,21415L134,21415L134,21460L133,21460L133,21506L132,21506L132,21553L131,21553L131,21602L130,21602L130,21652L129,21652L129,21704L128,21704L128,21756L127,21756L127,21810L126,21810L126,21866L125,21866L125,21922L124,21922L124,21980L123,21980L123,22039L122,22039L122,22099L121,22099L121,22160L120,22160L120,22223L119,22223L119,22286L118,22286L118,22350L117,22350L117,22416L116,22416L116,22482L115,22482L115,22550L114,22550L114,22618L113,22618L113,22687L112,22687L112,22757L111,22757L111,22828L110,22828L110,22899L109,22899L109,22971L108,22971L108,23045L107,23045L107,23118L106,23118L106,23193L105,23193L105,23268L104,23268L104,23344L103,23344L103,23421L102,23421L102,23498L101,23498L101,23575L100,23575L100,23653L99,23653L99,23732L98,23732L98,23811L97,23811L97,23891L96,23891L96,23971L95,23971L95,24052L94,24052L94,24132L93,24132L93,24214L92,24214L92,24295L91,24295L91,24377L90,24377L90,24459L89,24459L89,24541L88,24541L88,24624L87,24624L87,24706L86,24706L86,24789L85,24789L85,24871L84,24871L84,24954L83,24954L83,25037L82,25037L82,25120L81,25120L81,25203L80,25203L80,25286L79,25286L79,25368L78,25368L78,25451L77,25451L77,25533L76,25533L76,25616L75,25616L75,25698L74,25698L74,25779L73,25779L73,25861L72,25861L72,25942L71,25942L71,26023L70,26023L70,26104L69,26104L69,26185L68,26185L68,26265L67,26265L67,26344L66,26344L66,22823L65,22823L65,22902L64,22902L64,22980L63,22980L63,23058L62,23058L62,23134L61,23134L61,23211L60,23211L60,23287L59,23287L59,23362L58,23362L58,23436L57,23436L57,23510L56,23510L56,23582L55,23582L55,23654L54,23654L54,23726L53,23726L53,23796L52,23796L52,23865L51,23865L51,23934L50,23934L50,24001L49,24001L49,24068L48,24068L48,24133L47,24133L47,24197L46,24197L46,24261L45,24261L45,24323L44,24323L44,24384L43,24384L43,24444L42,24444L42,24503L41,24503L41,24560L40,24560L40,24616L39,24616L39,24671L38,24671L38,24725L37,24725L37,24777L36,24777L36,24828L35,24828L35,24878L34,24878L34,24926L33,24926L33,24973L32,24973L32,25018L31,25018L31,25061L30,25061L30,25103L29,25103L29,25144L28,25144L28,25183L27,25183L27,25220L26,25220L26,25255L25,25255L25,25289L24,25289L24,25321L23,25321L23,25352L22,25352L22,25380L21,25380L21,25407L20,25407L20,25432L19,25432L19,25456L18,25456L18,25477L17,25477L17,25497L16,25497L16,25515L15,25515L15,25531L14,25531L14,25545L13,25545L13,25557L12,25557L12,25567L11,25567L11,25576L10,25576L10,25583L9,25583L9,25587L8,25587L8,25590L7,25590L7,25591L6,25591L6,25590L5,25590L5,25588L4,25588L4,25583L3,25583L3,25577L2,25577L2,25569L1,25569L1,25559Z"/>
<path fill="none" stroke="#0000ff" stroke-width="1" vector-effect="non-scaling-stroke" d="M0.5,173L1.5,201L2.5,228L3.5,256L4.5,282L5.5,309L6.5,335L9.5,410L10.5,434L12.5,480L14.5,524L15.5,544L16.5,565L18.5,603L19.5,621L20.5,638L22.5,670L23.5,685L24.5,699L26.5,725L28.5,747L29.5,757L31.5,775L33.5,789L34.5,795L35.5,800L37.5,808L39.5,812L41.5,814L42.5,814L43.5,812L44.5,811L46.5,805L47.5,801L49.5,791L50.5,785L52.5,771L53.5,763L55.5,745L57.5,725L59.5,703L60.5,691L63.5,652L65.5,624L66.5,609"/>
<path fill="none" stroke="#0000ff" stroke-width="1" vector-effect="non-scaling-stroke" d="M67.5,4195L68.5,4179L69.5,4164L71.5,4132L72.5,4115L73.5,4099L75.5,4065L76.5,4047L77.5,4030L78.5,4012L79.5,3995L86.5,3869L87.5,3850L90.5,3796L91.5,3779L93.5,3743L97.5,3675L98.5,3659L99.5,3642L100.5,3626L104.5,3566L106.5,3538L109.5,3499L112.5,3463L113.5,3452L116.5,3422L117.5,3413L120.5,3389L121.5,3382L124.5,3364L127.5,3352L128.5,3349L130.5,3345L132.5,3343L134.5,3343L135.5,3344L137.5,3348L139.5,3354L140.5,3358L141.5,3363L142.5,3367L145.5,3385L147.5,3399L150.5,3423L152.5,3441L154.5,3461L155.5,3472L156.5,3482L157.5,3493L162.5,3553L164.5,3579L165.5,3591L167.5,3617L168.5,3631L176.5,3735L181.5,3795L185.5,3839L187.5,3859L190.5,3886L193.5,3910L194.5,3917L196.5,3929L199.5,3944L202.5,3953L203.5,3955L205.5,3957L207.5,3957L208.5,3956L210.5,3952L211.5,3949L214.5,3937L215.5,3931L216.5,3926L218.5,3912L221.5,3888L224.5,3858L226.5,3836L227.5,3824L229.5,3798L232.5,3756L233.5,3741L236.5,3693L238.5,3659L241.5,3605L244.5,3548L245.5,3528L246.5,3509L247.5,3489L248.5,3468L249.5,3448L250.5,3427L251.5,3407L255.5,3323L256.5,3301L258.5,3259L259.5,3237L260.5,3216L261.5,3194L263.5,3152L264.5,3130L267.5,3067L268.5,3047L269.5,3026L270.5,3006L271.5,2985L272.5,2966L273.5,2946L276.5,2889L278.5,2853L281.5,2802L283.5,2770L285.5,2740L286.5,2726L289.5,2687L290.5,2675L292.5,2653L294.5,2633L297.5,2609L298.5,2602L299.5,2596L300.5,2591L302.5,2583L303.5,2580L304.5,2578"/>
<path fill="none" stroke="#0000ff" stroke-width="1" vector-effect="non-scaling-stroke" d="M304.5,85377L305.5,85376L307.5,85378L308.5,85380L309.5,85383L310.5,85387L312.5,85397L313.5,85403L316.5,85427L317.5,85437L319.5,85459L320.5,85471L321.5,85484L323.5,85512L325.5,85544L327.5,85578L329.5,85616L330.5,85636L332.5,85678L333.5,85700L335.5,85746L337.5,85794L338.5,85819L340.5,85871L343.5,85952L345.5,86008L350.5,86153L351.5,86183L352.5,86212L355.5,86302L356.5,86331L358.5,86391"/>
<path fill="none" stroke="#0000ff" stroke-width="1" vector-effect="non-scaling-stroke" d="M360.5,20L361.5,50L364.5,137"/>
<path fill="none" stroke="#ff0000" stroke-width="1" vector-effect="non-scaling-stroke" d="M0.5,43387L1.5,43414L2.5,43442L4.5,43496L6.5,43548L8.5,43598L9.5,43622L10.5,43645L11.5,43669L13.5,43713L15.5,43755L18.5,43812L20.5,43846L22.5,43878L24.5,43906L25.5,43919L26.5,43931L27.5,43942L29.5,43962L30.5,43971L31.5,43979L32.5,43986L33.5,43992L35.5,44002L36.5,44006L37.5,44009L39.5,44013L40.5,44014L41.5,44014L43.5,44012L44.5,44009L45.5,44007L47.5,43999L48.5,43994L50.5,43982L51.5,43975L53.5,43959L54.5,43950L57.5,43920L58.5,43909L60.5,43885L62.5,43859L65.5,43817"/>
<path fill="none" stroke="#ff0000" stroke-width="1" vector-effect="non-scaling-stroke" d="M66.5,47402L67.5,47387L68.5,47371L69.5,47356L70.5,47340L71.5,47323L72.5,47307L76.5,47239L77.5,47221L78.5,47204L85.5,47078L86.5,47059L90.5,46987L91.5,46970L92.5,46952L93.5,46935L94.5,46917L96.5,46883L97.5,46867L98.5,46850L99.5,46834L100.5,46819L101.5,46803L103.5,46773L106.5,46731L108.5,46705L111.5,46669L113.5,46647L115.5,46627L117.5,46609L119.5,46593L121.5,46579L123.5,46567L124.5,46562L127.5,46550L130.5,46544L131.5,46543L133.5,46543L135.5,46545L136.5,46547L139.5,46556L140.5,46560L142.5,46570L145.5,46588L146.5,46595L149.5,46619L152.5,46646L154.5,46666L157.5,46699L162.5,46759L169.5,46850L170.5,46864L174.5,46916L175.5,46928L176.5,46941L181.5,47001L184.5,47034L187.5,47064L189.5,47082L192.5,47106L194.5,47120L196.5,47132L197.5,47137L200.5,47149L201.5,47152L203.5,47156L204.5,47157L206.5,47157L208.5,47155L209.5,47153L211.5,47147L213.5,47139L215.5,47129L216.5,47122L217.5,47116L220.5,47092L221.5,47083L224.5,47053L225.5,47041L226.5,47030L227.5,47017L228.5,47005L231.5,46963L233.5,46933L235.5,46901L238.5,46850L240.5,46814L244.5,46738L245.5,46718L246.5,46699L247.5,46678L249.5,46638L256.5,46491L257.5,46469L259.5,46427L260.5,46405L261.5,46384L262.5,46362L268.5,46236L273.5,46136L275.5,46098L278.5,46044L280.5,46010L282.5,45978L285.5,45933L286.5,45919L288.5,45893L290.5,45869L291.5,45858L293.5,45838L294.5,45829L296.5,45813L298.5,45799L300.5,45789L301.5,45785L303.5,45779"/>
<path fill="none" stroke="#ff0000" stroke-width="1" vector-effect="non-scaling-stroke" d="M304.5,42177L307.5,42177L308.5,42179L310.5,42185L311.5,42189L312.5,42194L313.5,42200L315.5,42214L317.5,42232L318.5,42242L319.5,42253L321.5,42277L323.5,42305L324.5,42320L326.5,42352L327.5,42369L328.5,42388L329.5,42406L331.5,42446L332.5,42467L334.5,42511L335.5,42534L337.5,42582L339.5,42632L340.5,42658L341.5,42685L342.5,42711L343.5,42739L344.5,42766L345.5,42794L346.5,42823L347.5,42851L349.5,42909L350.5,42939L351.5,42968L352.5,42998L353.5,43027L356.5,43117L357.5,43146L358.5,43176L359.5,43205L360.5,43235L364.5,43351"/>
<line x1="78.5" y1="86400" x2="78.5" y2="0" stroke="#00c000" stroke-width="1" vector-effect="non-scaling-stroke"/>
<line x1="171.5" y1="86400" x2="171.5" y2="0" stroke="#00c000" stroke-width="1" vector-effect="non-scaling-stroke"/>
<line x1="264.5" y1="86400" x2="264.5" y2="0" stroke="#00c000" stroke-width="1" vector-effect="non-scaling-stroke"/>
<line x1="354.5" y1="86400" x2="354.5" y2="0" stroke="#00c000" stroke-width="1" vector-effect="non-scaling-stroke"/>
</g>
<text x="20" y="510" font-family="Arial" font-size="11pt" text-anchor="end" alignment-baseline="middle" fill="#000000">0</text>
<line x1="25" y1="510" x2="1025" y2="510" stroke="#808080" stroke-width="0.5"/>
<text x="20" y="468.33" font-family="Arial" font-size="11pt" text-anchor="end" alignment-baseline="middle" fill="#000000">2</text>
<line x1="25" y1="468.33" x2="1025" y2="468.33" stroke="#808080" stroke-width="0.5"/>
<text x="20" y="426.67" font-family="Arial" font-size="11pt" text-anchor="end" alignment-baseline="middle" fill="#000000">4</text>
<line x1="25" y1="426.67" x2="1025" y2="426.67" stroke="#808080" stroke-width="0.5"/>
<text x="20" y="385" font-family="Arial" font-size="11pt" text-anchor="end" alignment-baseline="middle" fill="#000000">6</text>
<line x1="25" y1="385" x2="1025" y2="385" stroke="#808080" stroke-width="0.5"/>
<text x="20" y="343.33" font-family="Arial" font-size="11pt" text-anchor="end" alignment-baseline="middle" fill="#000000">8</text>
<line x1="25" y1="343.33" x2="1025" y2="343.33" stroke="#808080" stroke-width="0.5"/>
<text x="20" y="301.67" font-family="Arial" font-size="11pt" text-anchor="end" alignment-baseline="middle" fill="#000000">10</text>
<line x1="25" y1="301.67" x2="1025" y2="301.67" stroke="#808080" stroke-width="0.5"/>
<text x="20" y="260" font-family="Arial" font-size="11pt" text-anchor="end" alignment-baseline="middle" fill="#000000">12</text>
<line x1="25" y1="260" x2="1025" y2="260" stroke="#808080" stroke-width="0.5"/>
<text x="20" y="218.33" font-family="Arial" font-size="11pt" text-anchor="end" alignment-baseline="middle" fill="#000000">14</text>
<line x1="25" y1="218.33" x2="1025" y2="218.33" stroke="#808080" stroke-width="0.5"/>
<text x="20" y="176.67" font-family="Arial" font-size="11pt" text-anchor="end" alignment-baseline="middle" fill="#000000">16</text>
<line x1="25" y1="176.67" x2="1025" y2="176.67" stroke="#808080" stroke-width="0.5"/>
<text x="20" y="135" font-family="Arial" font-size="11pt" text-anchor="end" alignment-baseline="middle" fill="#000000">18</text>
<line x1="25" y1="135" x2="1025" y2="135" stroke="#808080" stroke-width="0.5"/>
<text x="20" y="93.33" font-family="Arial" font-size="11pt" text-anchor="end" alignment-baseline="middle" fill="#000000">20</text>
<line x1="25" y1="93.33" x2="1025" y2="93.33" stroke="#808080" stroke-width="0.5"/>
<text x="20" y="51.67" font-family="Arial" font-size="11pt" text-anchor="end" alignment-baseline="middle" fill="#000000">22</text>
<line x1="25" y1="51.67" x2="1025" y2="51.67" stroke="#808080" stroke-width="0.5"/>
<text x="20" y="10" font-family="Arial" font-size="11pt" text-anchor="end" alignment-baseline="middle" fill="#000000">24</text>
<line x1="25" y1="10" x2="1025" y2="10" stroke="#808080" stroke-width="0.5"/>
<text x="67.47" y="522" font-family="Arial" font-size="11pt" text-anchor="middle" alignment-baseline="middle" fill="#000000">Jan</text>
<line x1="25" y1="10" x2="25" y2="510" stroke="#808080" stroke-width="0.5"/>
<text x="148.29" y="522" font-family="Arial" font-size="11pt" text-anchor="middle" alignment-baseline="middle" fill="#000000">Feb</text>
<line x1="109.93" y1="10" x2="109.93" y2="510" stroke="#808080" stroke-width="0.5"/>
<text x="229.11" y="522" font-family="Arial" font-size="11pt" text-anchor="middle" alignment-baseline="middle" fill="#000000">Mar</text>
<line x1="186.64" y1="10" x2="186.64" y2="510" stroke="#808080" stroke-width="0.5"/>
<text x="312.67" y="522" font-family="Arial" font-size="11pt" text-anchor="middle" alignment-baseline="middle" fill="#000000">Apr</text>
<line x1="271.58" y1="10" x2="271.58" y2="510" stroke="#808080" stroke-width="0.5"/>
<text x="396.23" y="522" font-family="Arial" font-size="11pt" text-anchor="middle" alignment-baseline="middle" fill="#000000">May</text>
<line x1="353.77" y1="10" x2="353.77" y2="510" stroke="#808080" stroke-width="0.5"/>
<text x="479.79" y="522" font-family="Arial" font-size="11pt" text-anchor="middle" alignment-baseline="middle" fill="#000000">Jun</text>
<line x1="438.7" y1="10" x2="438.7" y2="510" stroke="#808080" stroke-width="0.5"/>
<text x="563.36" y="522" font-family="Arial" font-size="11pt" text-anchor="middle" alignment-baseline="middle" fill="#000000">Jul</text>
<line x1="520.89" y1="10" x2="520.89" y2="510" stroke="#808080" stroke-width="0.5"/>
<text x="648.29" y="522" font-family="Arial" font-size="11pt" text-anchor="middle" alignment-baseline="middle" fill="#000000">Aug</text>
<line x1="605.82" y1="10" x2="605.82" y2="510" stroke="#808080" stroke-width="0.5"/>
<text x="731.85" y="522" font-family="Arial" font-size="11pt" text-anchor="middle" alignment-baseline="middle" fill="#000000">Sep</text>
<line x1="690.75" y1="10" x2="690.75" y2="510" stroke="#808080" stroke-width="0.5"/>
<text x="815.41" y="522" font-family="Arial" font-size="11pt" text-anchor="middle" alignment-baseline="middle" fill="#000000">Oct</text>
<line x1="772.95" y1="10" x2="772.95" y2="510" stroke="#808080" stroke-width="0.5"/>
<text x="898.97" y="522" font-family="Arial" font-size="11pt" text-anchor="middle" alignment-baseline="middle" fill="#000000">Nov</text>
<line x1="857.88" y1="10" x2="857.88" y2="510" stroke="#808080" stroke-width="0.5"/>
<text x="982.53" y="522" font-family="Arial" font-size="11pt" text-anchor="middle" alignment-baseline="middle" fill="#000000">Dec</text>
<line x1="940.07" y1="10" x2="940.07" y2="510" stroke="#808080" stroke-width="0.5"/>
<line x1="1025" y1="10" x2="1025" y2="510" stroke="#808080" stroke-width="0.5"/>
</svg>