<svg xmlns="http://www.w3.org/2000/svg" width="1035" height="535" viewBox="0 0 1035 535">
<rect x="0" y="0" width="1035" height="535" fill="#ffffff" stroke="none" stroke-width="0"/>
<g transform="translate(25, 510) scale(2.7397260, -0.0057870370)">
<path fill="#80c0ff" stroke="none" stroke-width="0" d="M0,31809L0,68276L1,68276L1,72429L2,72429L2,76521L3,76521L3,80550L4,80550L4,84565L5,84565L5,86400L19,86400L19,83185L18,83185L18,79835L17,79835L17,76439L16,76439L16,72926L15,72926L15,69238L14,69238L14,65353L13,65353L13,61322L12,61322L12,57297L11,57297L11,53508L10,53508L10,50158L9,50158L9,47323L8,47323L8,44954L7,44954L7,42936L6,42936L6,41143L5,41143L5,39463L4,39463L4,37792L3,37792L3,36028L2,36028L2,34069L1,34069L1,31809Z"/>
<path fill="#80c0ff" stroke="none" stroke-width="0" d="M6,0L6,2233L7,2233L7,6413L8,6413L8,10708L9,10708L9,15028L10,15028L10,19177L11,19177L11,22919L12,22919L12,26103L13,26103L13,28721L14,28721L14,30868L15,30868L15,32668L16,32668L16,34235L17,34235L17,35667L18,35667L18,37044L19,37044L19,38440L20,38440L20,39931L21,39931L21,41600L22,41600L22,43546L23,43546L23,45876L24,45876L24,48692L25,48692L25,52040L26,52040L26,55864L27,55864L27,60003L28,60003L28,64264L29,64264L29,68508L30,68508L30,72685L31,72685L31,76813L32,76813L32,80945L33,80945L33,85136L34,85136L34,86400L49,86400L49,85649L48,85649L48,82142L47,82142L47,78721L46,78721L46,75347L45,75347L45,71964L44,71964L44,68509L43,68509L43,64925L42,64925L42,61173L41,61173L41,57262L40,57262L40,53280L39,53280L39,49398L38,49398L38,45824L37,45824L37,42704L36,42704L36,40061L35,40061L35,37824L34,37824L34,35878L33,35878L33,34108L32,34108L32,32405L31,32405L31,30667L30,30667L30,28793L29,28793L29,26678L28,26678L28,24222L27,24222L27,21358L26,21358L26,18095L25,18095L25,14538L24,14538L24,10852L23,10852L23,7183L22,7183L22,3614L21,3614L21,158L20,158L20,0L7,0Z"/>
<path fill="#80c0ff" stroke="none" stroke-width="0" d="M35,0L35,3002L36,3002L36,7284L37,7284L37,11432L38,11432L38,15237L39,15237L39,18538L40,18538L40,21293L41,21293L41,23564L42,23564L42,25463L43,25463L43,27101L44,27101L44,28576L45,28576L45,29968L46,29968L46,31351L47,31351L47,32795L48,32795L48,34376L49,34376L49,36179L50,36179L50,38304L51,38304L51,40853L52,40853L52,43903L53,43903L53,47459L54,47459L54,51426L55,51426L55,55638L56,55638L56,59937L57,59937L57,64230L58,64230L58,68498L59,68498L59,72772L60,72772L60,77097L61,77097L61,81489L62,81489L62,85898L63,85898L63,86400L77,86400L77,85024L76,85024L76,81471L75,81471L75,77997L74,77997L74,74592L73,74592L73,71220L72,71220L72,67827L71,67827L71,64357L70,64357L70,60759L69,60759L69,57006L68,57006L68,53121L67,53121L67,45600L66,45600L66,41818L65,41818L65,38365L64,38365L64,35359L63,35359L63,32802L62,32802L62,30613L61,30613L61,28680L60,28680L60,26887L59,26887L59,25128L58,25128L58,23299L57,23299L57,21300L56,21300L56,19029L55,19029L55,16405L54,16405L54,13394L53,13394L53,10044L52,10044L52,6479L51,6479L51,2844L50,2844L50,0L36,0Z"/>
<path fill="#80c0ff" stroke="none" stroke-width="0" d="M64,0L64,3780L65,3780L65,7730L66,7730L66,11175L67,11175L67,17655L68,17655L68,20026L69,20026L69,21998L70,21998L70,23685L71,23685L71,25187L72,25187L72,26589L73,26589L73,27962L74,27962L74,29373L75,29373L75,30894L76,30894L76,32600L77,32600L77,34580L78,34580L78,36925L79,36925L79,39715L80,39715L80,42982L81,42982L81,46679L82,46679L82,50683L83,50683L83,54853L84,54853L84,59087L85,59087L85,63348L86,63348L86,67653L87,67653L87,72044L88,72044L88,76550L89,76550L89,81137L90,81137L90,85669L91,85669L91,86400L106,86400L106,84500L105,84500L105,80940L104,80940L104,77355L103,77355L103,73825L102,73825L102,70377L101,70377L101,66998L100,66998L100,63645L99,63645L99,60262L98,60262L98,56789L97,56789L97,53174L96,53174L96,49390L95,49390L95,45466L94,45466L94,41517L93,41517L93,37738L92,37738L92,34329L91,34329L91,31392L90,31392L90,28907L89,28907L89,26772L88,26772L88,24866L87,24866L87,23073L86,23073L86,21284L85,21284L85,19399L84,19399L84,17317L83,17317L83,14949L82,14949L82,12228L81,12228L81,9146L80,9146L80,5769L79,5769L79,2219L78,2219L78,0L65,0Z"/>
<path fill="#80c0ff" stroke="none" stroke-width="0" d="M92,0L92,3514L93,3514L93,7246L94,7246L94,10361L95,10361L95,12900L96,12900L96,14981L97,14981L97,16734L98,16734L98,18271L99,18271L99,19686L100,19686L100,21052L101,21052L101,22440L102,22440L102,23917L103,23917L103,25556L104,25556L104,27439L105,27439L105,29652L106,29652L106,32271L107,32271L107,35335L108,35335L108,38814L109,38814L109,42607L110,42607L110,46586L111,46586L111,50651L112,50651L112,54759L113,54759L113,58923L114,58923L114,63194L115,63194L115,67625L116,67625L116,72228L117,72228L117,76918L118,76918L118,81473L119,81473L119,85601L120,85601L120,86400L135,86400L135,83616L134,83616L134,80388L133,80388L133,76910L132,76910L132,73322L131,73322L131,69743L130,69743L130,66240L129,66240L129,62826L128,62826L128,59473L127,59473L127,56129L126,56129L126,52728L125,52728L125,49202L124,49202L124,45491L123,45491L123,41577L122,41577L122,37514L121,37514L121,33471L120,33471L120,29691L119,29691L119,26377L118,26377L118,23586L117,23586L117,21247L116,21247L116,19231L115,19231L115,17408L114,17408L114,15661L113,15661L113,13887L112,13887L112,11987L111,11987L111,9866L110,9866L110,7439L109,7439L109,4652L108,4652L108,1513L107,1513L107,0L93,0Z"/>
<path fill="#80c0ff" stroke="none" stroke-width="0" d="M121,0L121,2695L122,2695L122,5531L123,5531L123,7818L124,7818L124,9702L125,9702L125,11317L126,11317L126,12770L127,12770L127,14147L128,14147L128,15523L129,15523L129,16966L130,16966L130,18551L131,18551L131,20358L132,20358L132,22473L133,22473L133,24977L134,24977L134,27914L135,27914L135,31268L136,31268L136,34943L137,34943L137,38807L138,38807L138,42747L139,42747L139,46706L140,46706L140,50692L141,50692L141,54753L142,54753L142,58961L143,58961L143,63371L144,63371L144,67972L145,67972L145,72625L146,72625L146,77051L147,77051L147,80951L148,80951L148,84175L149,84175L149,86400L166,86400L166,86006L165,86006L165,84040L164,84040L164,81780L163,81780L163,79155L162,79155L162,76144L161,76144L161,72802L160,72802L160,69258L159,69258L159,65654L158,65654L158,62095L157,62095L157,58626L156,58626L156,55237L155,55237L155,51884L154,51884L154,48501L153,48501L153,45013L152,45013L152,41347L151,41347L151,37451L150,37451L150,33337L149,33337L149,29129L148,29129L148,25072L147,25072L147,21436L146,21436L146,18362L145,18362L145,15823L144,15823L144,13693L143,13693L143,11831L142,11831L142,10112L141,10112L141,8427L140,8427L140,6675L139,6675L139,4763L138,4763L138,2596L137,2596L137,94L136,94L136,0L122,0Z"/>
<path fill="#80c0ff" stroke="none" stroke-width="0" d="M150,0L150,364L151,364L151,2460L152,2460L152,4213L153,4213L153,5748L154,5748L154,7166L155,7166L155,8549L156,8549L156,9971L157,9971L157,11508L158,11508L158,13240L159,13240L159,15257L160,15257L160,17647L161,17647L161,20473L162,20473L162,23740L163,23740L163,27365L164,27365L164,31209L165,31209L165,35132L166,35132L166,39054L167,39054L167,42958L168,42958L168,46883L169,46883L169,50897L170,50897L170,55073L171,55073L171,59447L172,59447L172,63968L173,63968L173,68446L174,68446L174,72586L175,72586L175,76144L176,76144L176,79054L177,79054L177,81401L178,81401L178,83333L179,83333L179,84986L180,84986L180,86400L197,86400L197,85752L196,85752L196,84076L195,84076L195,82443L194,82443L194,80757L193,80757L193,78924L192,78924L192,76849L191,76849L191,74445L190,74445L190,71658L189,71658L189,68498L188,68498L188,65057L187,65057L187,61474L186,61474L186,57881L185,57881L185,54353L184,54353L184,50907L183,50907L183,47512L182,47512L182,44112L181,44112L181,40634L180,40634L180,36999L179,36999L179,33145L178,33145L178,29053L177,29053L177,24799L176,24799L176,20592L175,20592L175,16716L174,16716L174,13382L173,13382L173,10626L172,10626L172,8349L171,8349L171,6410L170,6410L170,4675L169,4675L169,3028L168,3028L168,1370L167,1370L167,0L151,0Z"/>
<path fill="#80c0ff" stroke="none" stroke-width="0" d="M181,0L181,74L182,74L182,1486L183,1486L183,2903L184,2903L184,4400L185,4400L185,6057L186,6057L186,7965L187,7965L187,10216L188,10216L188,12895L189,12895L189,16037L190,16037L190,19596L191,19596L191,23442L192,23442L192,27418L193,27418L193,31404L194,31404L194,35353L195,35353L195,39278L196,39278L196,43236L197,43236L197,47295L198,47295L198,51505L199,51505L199,55861L200,55861L200,60247L201,60247L201,64434L202,64434L202,68166L203,68166L203,71304L204,71304L204,73867L205,73867L205,75970L206,75970L206,77745L207,77745L207,79312L208,79312L208,80765L209,80765L209,82189L210,82189L210,83658L211,83658L211,85249L212,85249L212,86400L227,86400L227,84861L226,84861L226,82522L225,82522L225,80523L224,80523L224,78740L223,78740L223,77061L222,77061L222,75387L221,75387L221,73624L220,73624L220,71678L219,71678L219,69458L218,69458L218,66890L217,66890L217,63944L216,63944L216,60666L215,60666L215,57167L214,57167L214,53583L213,53583L213,50016L212,50016L212,46512L211,46512L211,43064L210,43064L210,39633L209,39633L209,36157L208,36157L208,32563L207,32563L207,28788L206,28788L206,24793L205,24793L205,20609L204,20609L204,16380L203,16380L203,12353L202,12353L202,8774L201,8774L201,5758L200,5758L200,3265L199,3265L199,1175L198,1175L198,0L182,0Z"/>
<path fill="#80c0ff" stroke="none" stroke-width="0" d="M213,0L213,648L214,648L214,2746L215,2746L215,5237L216,5237L216,8185L217,8185L217,11589L218,11589L218,15362L219,15362L219,19352L220,19352L220,23417L221,23417L221,27470L222,27470L222,31495L223,31495L223,35522L224,35522L224,39609L225,39609L225,43806L226,43806L226,48118L227,48118L227,52465L228,52465L228,56661L229,56661L229,60476L230,60476L230,63745L231,63745L231,66450L232,66450L232,68674L233,68674L233,70543L234,70543L234,72173L235,72173L235,73663L236,73663L236,75095L237,75095L237,76544L238,76544L238,78083L239,78083L239,79790L240,79790L240,81750L241,81750L241,84053L242,84053L242,86400L256,86400L256,83487L255,83487L255,80298L254,80298L254,77609L253,77609L253,75341L252,75341L252,73375L251,73375L251,71590L250,71590L250,69878L249,69878L249,68142L248,68142L248,66289L247,66289L247,64225L246,64225L246,61868L245,61868L245,59161L244,59161L244,56102L243,56102L243,52757L242,52757L242,49242L241,49242L241,45672L240,45672L240,42126L239,42126L239,38630L238,38630L238,35169L237,35169L237,31700L236,31700L236,28163L235,28163L235,24498L234,24498L234,20656L233,20656L233,16627L232,16627L232,12482L231,12482L231,8391L230,8391L230,4588L229,4588L229,1261L228,1261L228,0L214,0Z"/>
<path fill="#80c0ff" stroke="none" stroke-width="0" d="M243,0L243,375L244,375L244,3550L245,3550L245,7134L246,7134L246,11016L247,11016L247,15058L248,15058L248,19153L249,19153L249,23256L250,23256L250,27376L251,27376L251,31555L252,31555L252,35840L253,35840L253,40239L254,40239L254,44683L255,44683L255,49000L256,49000L256,52955L257,52955L257,56368L258,56368L258,59199L259,59199L259,61521L260,61521L260,63459L261,63459L261,65133L262,65133L262,66645L263,66645L263,68079L264,68079L264,69510L265,69510L265,71007L266,71007L266,72644L267,72644L267,74498L268,74498L268,76652L269,76652L269,79180L270,79180L270,82128L271,82128L271,85481L272,85481L272,86400L285,86400L285,83447L284,83447L284,79469L283,79469L283,75854L282,75854L282,72745L281,72745L281,70140L280,70140L280,67940L279,67940L279,66015L278,66015L278,64243L277,64243L277,62518L276,62518L276,60743L275,60743L275,58826L274,58826L274,56678L273,56678L273,54225L272,54225L272,51427L271,51427L271,48297L270,48297L270,44914L269,44914L269,41391L268,41391L268,37831L267,37831L267,34298L266,34298L266,30812L265,30812L265,27354L264,27354L264,23879L263,23879L263,20332L262,20332L262,16658L261,16658L261,12817L260,12817L260,8814L259,8814L259,4732L258,4732L258,750L257,750L257,0L244,0Z"/>
<path fill="#80c0ff" stroke="none" stroke-width="0" d="M273,0L273,2762L274,2762L274,6653L275,6653L275,10652L276,10652L276,14703L277,14703L277,18803L278,18803L278,22989L279,22989L279,27312L280,27312L280,31797L281,31797L281,36399L282,36399L282,40951L283,40951L283,45191L284,45191L284,48879L285,48879L285,51930L286,51930L286,54406L287,54406L287,56441L288,56441L288,58171L289,58171L289,59708L290,59708L290,61146L291,61146L291,62561L292,62561L292,64023L293,64023L293,65604L294,65604L294,67379L295,67379L295,69425L296,69425L296,71816L297,71816L297,74599L298,74599L298,77772L299,77772L299,81269L300,81269L300,84986L301,84986L301,86400L315,86400L315,84202L314,84202L314,80202L313,80202L313,76007L312,76007L312,71772L311,71772L311,67764L310,67764L310,64235L309,64235L309,61281L308,61281L308,58839L307,58839L307,56774L306,56774L306,54946L305,54946L305,56836L304,56836L304,55140L303,55140L303,53363L302,53363L302,51417L301,51417L301,49217L300,49217L300,46696L299,46696L299,43823L298,43823L298,40628L297,40628L297,37203L296,37203L296,33665L295,33665L295,30113L294,30113L294,26604L293,26604L293,23147L292,23147L292,19718L291,19718L291,16266L290,16266L290,12731L289,12731L289,9052L288,9052L288,5190L287,5190L287,1155L286,1155L286,0L274,0Z"/>
<path fill="#80c0ff" stroke="none" stroke-width="0" d="M302,0L302,2421L303,2421L303,6314L304,6314L304,10260L305,10260L305,10694L306,10694L306,14879L307,14879L307,19273L308,19273L308,23884L309,23884L309,28604L310,28604L310,33175L311,33175L311,37278L312,37278L312,40711L313,40711L313,43476L314,43476L314,45705L315,45705L315,47554L316,47554L316,49158L317,49158L317,50625L318,50625L318,52040L319,52040L319,53479L320,53479L320,55014L321,55014L321,56722L322,56722L322,58681L323,58681L323,60968L324,60968L324,63638L325,63638L325,66699L326,66699L326,70093L327,70093L327,73712L328,73712L328,77442L329,77442L329,81210L330,81210L330,84995L331,84995L331,86400L344,86400L344,83844L343,83844L343,80102L342,80102L342,76111L341,76111L341,71859L340,71859L340,67456L339,67456L339,63160L338,63160L338,59290L337,59290L337,56032L336,56032L336,53374L335,53374L335,51183L334,51183L334,49305L333,49305L333,47607L332,47607L332,45978L331,45978L331,44322L330,44322L330,42550L329,42550L329,40573L328,40573L328,38311L327,38311L327,35703L326,35703L326,32735L325,32735L325,29459L324,29459L324,25986L323,25986L323,22438L322,22438L322,18908L321,18908L321,15436L320,15436L320,12017L319,12017L319,8609L318,8609L318,5151L317,5151L317,1572L316,1572L316,0L303,0Z"/>
<path fill="#80c0ff" stroke="none" stroke-width="0" d="M332,0L332,2428L333,2428L333,6373L334,6373L334,10508L335,10508L335,14890L336,14890L336,19504L337,19504L337,24189L338,24189L338,28635L339,28635L339,32518L340,32518L340,35699L341,35699L341,38244L342,38244L342,40310L343,40310L343,42052L344,42052L344,43599L345,43599L345,45051L346,45051L346,46491L347,46491L347,47998L348,47998L348,49647L349,49647L349,51522L350,51522L350,53704L351,53704L351,56264L352,56264L352,59230L353,59230L353,62561L354,62561L354,66154L355,66154L355,69878L356,69878L356,73633L357,73633L357,77373L358,77373L358,81109L359,81109L359,84892L360,84892L360,86400L365,86400L365,50998L364,50998L364,48131L363,48131L363,45796L362,45796L362,43839L361,43839L361,42118L360,42118L360,40514L359,40514L359,38930L358,38930L358,37277L357,37277L357,35468L356,35468L356,33418L355,33418L355,31051L354,31051L354,28319L353,28319L353,25234L352,25234L352,21875L351,21875L351,18368L350,18368L350,14827L349,14827L349,11323L348,11323L348,7874L347,7874L347,4452L346,4452L346,1000L345,1000L345,0L333,0Z"/>
<path fill="#80c0ff" stroke="none" stroke-width="0" d="M361,0L361,2398L362,2398L362,6499L363,6499L363,10836L364,10836L364,15351L365,15351L365,0L362,0Z"/>
<line x1="28.5" y1="26678" x2="28.5" y2="64264" stroke="#ff0000" stroke-width="1" vector-effect="non-scaling-stroke"/>
<line x1="57.5" y1="23299" x2="57.5" y2="64230" stroke="#ff0000" stroke-width="1" vector-effect="non-scaling-stroke"/>
<line x1="87.5" y1="24866" x2="87.5" y2="72044" stroke="#ff0000" stroke-width="1" vector-effect="non-scaling-stroke"/>
<line x1="116.5" y1="21247" x2="116.5" y2="72228" stroke="#ff0000" stroke-width="1" vector-effect="non-scaling-stroke"/>
<line x1="145.5" y1="18362" x2="145.5" y2="72625" stroke="#ff0000" stroke-width="1" vector-effect="non-scaling-stroke"/>
<line x1="175.5" y1="20592" x2="175.5" y2="76144" stroke="#ff0000" stroke-width="1" vector-effect="non-scaling-stroke"/>
<line x1="204.5" y1="20609" x2="204.5" y2="73867" stroke="#ff0000" stroke-width="1" vector-effect="non-scaling-stroke"/>
<line x1="233.5" y1="20656" x2="233.5" y2="70543" stroke="#ff0000" stroke-width="1" vector-effect="non-scaling-stroke"/>
<line x1="263.5" y1="23879" x2="263.5" y2="68079" stroke="#ff0000" stroke-width="1" vector-effect="non-scaling-stroke"/>
<line x1="293.5" y1="26604" x2="293.5" y2="65604" stroke="#ff0000" stroke-width="1" vector-effect="non-scaling-stroke"/>
<line x1="322.5" y1="22438" x2="322.5" y2="58681" stroke="#ff0000" stroke-width="1" vector-effect="non-scaling-stroke"/>
<line x1="352.5" y1="25234" x2="352.5" y2="59230" stroke="#ff0000" stroke-width="1" vector-effect="non-scaling-stroke"/>
<line x1="12.5" y1="0" x2="12.5" y2="26103" stroke="#0000ff" stroke-width="1" vector-effect="non-scaling-stroke"/>
<line x1="12.5" y1="61322" x2="12.5" y2="86400" stroke="#0000ff" stroke-width="1" vector-effect="non-scaling-stroke"/>
<line x1="42.5" y1="0" x2="42.5" y2="25463" stroke="#0000ff" stroke-width="1" vector-effect="non-scaling-stroke"/>
<line x1="42.5" y1="64925" x2="42.5" y2="86400" stroke="#0000ff" stroke-width="1" vector-effect="non-scaling-stroke"/>
<line x1="71.5" y1="0" x2="71.5" y2="25187" stroke="#0000ff" stroke-width="1" vector-effect="non-scaling-stroke"/>
<line x1="71.5" y1="67827" x2="71.5" y2="86400" stroke="#0000ff" stroke-width="1" vector-effect="non-scaling-stroke"/>
<line x1="101.5" y1="0" x2="101.5" y2="22440" stroke="#0000ff" stroke-width="1" vector-effect="non-scaling-stroke"/>
<line x1="101.5" y1="70377" x2="101.5" y2="86400" stroke="#0000ff" stroke-width="1" vector-effect="non-scaling-stroke"/>
<line x1="131.5" y1="0" x2="131.5" y2="20358" stroke="#0000ff" stroke-width="1" vector-effect="non-scaling-stroke"/>
<line x1="131.5" y1="73322" x2="131.5" y2="86400" stroke="#0000ff" stroke-width="1" vector-effect="non-scaling-stroke"/>
<line x1="161.5" y1="0" x2="161.5" y2="20473" stroke="#0000ff" stroke-width="1" vector-effect="non-scaling-stroke"/>
<line x1="161.5" y1="76144" x2="161.5" y2="86400" stroke="#0000ff" stroke-width="1" vector-effect="non-scaling-stroke"/>
<line x1="190.5" y1="0" x2="190.5" y2="19596" stroke="#0000ff" stroke-width="1" vector-effect="non-scaling-stroke"/>
<line x1="190.5" y1="74445" x2="190.5" y2="86400" stroke="#0000ff" stroke-width="1" vector-effect="non-scaling-stroke"/>
<line x1="220.5" y1="0" x2="220.5" y2="23417" stroke="#0000ff" stroke-width="1" vector-effect="non-scaling-stroke"/>
<line x1="220.5" y1="73624" x2="220.5" y2="86400" stroke="#0000ff" stroke-width="1" vector-effect="non-scaling-stroke"/>
<line x1="249.5" y1="0" x2="249.5" y2="23256" stroke="#0000ff" stroke-width="1" vector-effect="non-scaling-stroke"/>
<line x1="249.5" y1="69878" x2="249.5" y2="86400" stroke="#0000ff" stroke-width="1" vector-effect="non-scaling-stroke"/>
<line x1="278.5" y1="0" x2="278.5" y2="22989" stroke="#0000ff" stroke-width="1" vector-effect="non-scaling-stroke"/>
<line x1="278.5" y1="66015" x2="278.5" y2="86400" stroke="#0000ff" stroke-width="1" vector-effect="non-scaling-stroke"/>
<line x1="308.5" y1="0" x2="308.5" y2="23884" stroke="#0000ff" stroke-width="1" vector-effect="non-scaling-stroke"/>
<line x1="308.5" y1="61281" x2="308.5" y2="86400" stroke="#0000ff" stroke-width="1" vector-effect="non-scaling-stroke"/>
<line x1="337.5" y1="0" x2="337.5" y2="24189" stroke="#0000ff" stroke-width="1" vector-effect="non-scaling-stroke"/>
<line x1="337.5" y1="59290" x2="337.5" y2="86400" stroke="#0000ff" stroke-width="1" vector-effect="non-scaling-stroke"/>
<path fill="rgba(0, 0, 0, 0.5)" stroke="none" stroke-width="0" d="M0,0L0,23893L1,23893L1,23905L2,23905L2,23914L3,23914L3,23922L4,23922L4,23928L5,23928L5,23933L6,23933L6,23935L7,23935L7,23936L8,23936L8,23935L9,23935L9,23932L10,23932L10,23928L11,23928L11,23921L12,23921L12,23913L13,23913L13,23903L14,23903L14,23891L15,23891L15,23878L16,23878L16,23862L17,23862L17,23845L18,23845L18,23826L19,23826L19,23805L20,23805L20,23783L21,23783L21,23759L22,23759L22,23733L23,23733L23,23705L24,23705L24,23676L25,23676L25,23645L26,23645L26,23613L27,23613L27,23578L28,23578L28,23542L29,23542L29,23505L30,23505L30,23466L31,23466L31,23425L32,23425L32,23383L33,23383L33,23340L34,23340L34,23294L35,23294L35,23248L36,23248L36,23200L37,23200L37,23150L38,23150L38,23099L39,23099L39,23047L40,23047L40,22993L41,22993L41,22938L42,22938L42,22882L43,22882L43,22824L44,22824L44,22765L45,22765L45,22705L46,22705L46,22644L47,22644L47,22582L48,22582L48,22518L49,22518L49,22454L50,22454L50,22388L51,22388L51,22322L52,22322L52,22254L53,22254L53,22186L54,22186L54,22117L55,22117L55,22046L56,22046L56,21975L57,21975L57,21903L58,21903L58,21830L59,21830L59,21757L60,21757L60,21682L61,21682L61,21607L62,21607L62,21531L63,21531L63,21455L64,21455L64,21377L65,21377L65,21300L66,21300L66,21221L67,21221L67,24742L68,24742L68,24663L69,24663L69,24583L70,24583L70,24502L71,24502L71,24421L72,24421L72,24340L73,24340L73,24258L74,24258L74,24176L75,24176L75,24093L76,24093L76,24011L77,24011L77,23928L78,23928L78,23845L79,23845L79,23761L80,23761L80,23678L81,23678L81,23594L82,23594L82,23510L83,23510L83,23427L84,23427L84,23343L85,23343L85,23259L86,23259L86,23175L87,23175L87,23091L88,23091L88,23007L89,23007L89,22924L90,22924L90,22840L91,22840L91,22757L92,22757L92,22673L93,22673L93,22590L94,22590L94,22507L95,22507L95,22425L96,22425L96,22342L97,22342L97,22260L98,22260L98,22179L99,22179L99,22097L100,22097L100,22017L101,22017L101,21936L102,21936L102,21856L103,21856L103,21777L104,21777L104,21698L105,21698L105,21620L106,21620L106,21542L107,21542L107,21465L108,21465L108,21388L109,21388L109,21313L110,21313L110,21238L111,21238L111,21164L112,21164L112,21090L113,21090L113,21018L114,21018L114,20946L115,20946L115,20875L116,20875L116,20805L117,20805L117,20736L118,20736L118,20668L119,20668L119,20601L120,20601L120,20535L121,20535L121,20470L122,20470L122,20406L123,20406L123,20343L124,20343L124,20282L125,20282L125,20221L126,20221L126,20162L127,20162L127,20104L128,20104L128,20047L129,20047L129,19991L130,19991L130,19937L131,19937L131,19884L132,19884L132,19833L133,19833L133,19782L134,19782L134,19734L135,19734L135,19686L136,19686L136,19641L137,19641L137,19596L138,19596L138,19554L139,19554L139,19512L140,19512L140,19473L141,19473L141,19435L142,19435L142,19399L143,19399L143,19364L144,19364L144,19331L145,19331L145,19299L146,19299L146,19270L147,19270L147,19241L148,19241L148,19215L149,19215L149,19190L150,19190L150,19168L151,19168L151,19146L152,19146L152,19127L153,19127L153,19109L154,19109L154,19093L155,19093L155,19079L156,19079L156,19066L157,19066L157,19055L158,19055L158,19046L159,19046L159,19039L160,19039L160,19033L161,19033L161,19029L162,19029L162,19027L164,19027L164,19028L165,19028L165,19031L166,19031L166,19036L167,19036L167,19042L168,19042L168,19051L169,19051L169,19060L170,19060L170,19072L171,19072L171,19085L172,19085L172,19099L173,19099L173,19115L174,19115L174,19133L175,19133L175,19152L176,19152L176,19173L177,19173L177,19195L178,19195L178,19218L179,19218L179,19243L180,19243L180,19269L181,19269L181,19296L182,19296L182,19325L183,19325L183,19355L184,19355L184,19385L185,19385L185,19417L186,19417L186,19451L187,19451L187,19485L188,19485L188,19520L189,19520L189,19556L190,19556L190,19593L191,19593L191,19631L192,19631L192,19670L193,19670L193,19709L194,19709L194,19750L195,19750L195,19791L196,19791L196,19833L197,19833L197,19875L198,19875L198,19919L199,19919L199,19962L200,19962L200,20007L201,20007L201,20052L202,20052L202,20097L203,20097L203,20143L204,20143L204,20189L205,20189L205,20236L206,20236L206,20283L207,20283L207,20330L208,20330L208,20378L209,20378L209,20425L210,20425L210,20473L211,20473L211,20521L212,20521L212,20570L213,20570L213,20618L214,20618L214,20666L215,20666L215,20715L216,20715L216,20763L217,20763L217,20812L218,20812L218,20860L219,20860L219,20908L220,20908L220,20957L221,20957L221,21005L222,21005L222,21054L223,21054L223,21102L224,21102L224,21150L225,21150L225,21198L226,21198L226,21246L227,21246L227,21294L228,21294L228,21342L229,21342L229,21389L230,21389L230,21437L231,21437L231,21484L232,21484L232,21531L233,21531L233,21578L234,21578L234,21625L235,21625L235,21672L236,21672L236,21719L237,21719L237,21765L238,21765L238,21811L239,21811L239,21857L240,21857L240,21903L241,21903L241,21948L242,21948L242,21994L243,21994L243,22039L244,22039L244,22084L245,22084L245,22129L246,22129L246,22173L247,22173L247,22218L248,22218L248,22262L249,22262L249,22306L250,22306L250,22350L251,22350L251,22394L252,22394L252,22438L253,22438L253,22482L254,22482L254,22525L255,22525L255,22569L256,22569L256,22613L257,22613L257,22656L258,22656L258,22700L259,22700L259,22743L260,22743L260,22787L261,22787L261,22830L262,22830L262,22873L263,22873L263,22917L264,22917L264,22961L265,22961L265,23004L266,23004L266,23048L267,23048L267,23091L268,23091L268,23135L269,23135L269,23179L270,23179L270,23223L271,23223L271,23267L272,23267L272,23311L273,23311L273,23355L274,23355L274,23399L275,23399L275,23443L276,23443L276,23488L277,23488L277,23533L278,23533L278,23577L279,23577L279,23623L280,23623L280,23668L281,23668L281,23713L282,23713L282,23759L283,23759L283,23805L284,23805L284,23851L285,23851L285,23898L286,23898L286,23945L287,23945L287,23992L288,23992L288,24039L289,24039L289,24087L290,24087L290,24135L291,24135L291,24183L292,24183L292,24232L293,24232L293,24281L294,24281L294,24330L295,24330L295,24379L296,24379L296,24429L297,24429L297,24479L298,24479L298,24530L299,24530L299,24580L300,24580L300,24631L301,24631L301,24682L302,24682L302,24734L303,24734L303,24785L304,24785L304,24837L305,24837L305,21289L306,21289L306,21342L307,21342L307,21394L308,21394L308,21447L309,21447L309,21500L310,21500L310,21553L311,21553L311,21606L312,21606L312,21660L313,21660L313,21714L314,21714L314,21767L315,21767L315,21821L316,21821L316,21875L317,21875L317,21930L318,21930L318,21984L319,21984L319,22038L320,22038L320,22092L321,22092L321,22146L322,22146L322,22200L323,22200L323,22254L324,22254L324,22308L325,22308L325,22361L326,22361L326,22415L327,22415L327,22468L328,22468L328,22521L329,22521L329,22573L330,22573L330,22625L331,22625L331,22677L332,22677L332,22728L333,22728L333,22778L334,22778L334,22828L335,22828L335,22878L336,22878L336,22927L337,22927L337,22975L338,22975L338,23022L339,23022L339,23069L340,23069L340,23115L341,23115L341,23160L342,23160L342,23205L343,23205L343,23248L344,23248L344,23290L345,23290L345,23332L346,23332L346,23372L347,23372L347,23412L348,23412L348,23450L349,23450L349,23487L350,23487L350,23523L351,23523L351,23557L352,23557L352,23591L353,23591L353,23623L354,23623L354,23653L355,23653L355,23683L356,23683L356,23711L357,23711L357,23737L358,23737L358,23762L359,23762L359,23785L360,23785L360,23806L361,23806L361,23827L362,23827L362,23845L363,23845L363,23862L364,23862L364,23877L365,23877L365,0L1,0Z"/>
<path fill="rgba(0, 0, 0, 0.5)" stroke="none" stroke-width="0" d="M0,62901L0,86400L365,86400L365,62847L364,62847L364,62804L363,62804L363,62763L362,62763L362,62722L361,62722L361,62683L360,62683L360,62645L359,62645L359,62609L358,62609L358,62573L357,62573L357,62539L356,62539L356,62506L355,62506L355,62475L354,62475L354,62445L353,62445L353,62417L352,62417L352,62390L351,62390L351,62365L350,62365L350,62341L349,62341L349,62319L348,62319L348,62299L347,62299L347,62280L346,62280L346,62263L345,62263L345,62248L344,62248L344,62235L343,62235L343,62223L342,62223L342,62213L341,62213L341,62205L340,62205L340,62199L339,62199L339,62194L338,62194L338,62192L337,62192L337,62191L336,62191L336,62192L335,62192L335,62194L334,62194L334,62199L333,62199L333,62205L332,62205L332,62214L331,62214L331,62224L330,62224L330,62236L329,62236L329,62249L328,62249L328,62265L327,62265L327,62282L326,62282L326,62301L325,62301L325,62322L324,62322L324,62345L323,62345L323,62369L322,62369L322,62395L321,62395L321,62423L320,62423L320,62453L319,62453L319,62484L318,62484L318,62517L317,62517L317,62552L316,62552L316,62589L315,62589L315,62627L314,62627L314,62667L313,62667L313,62708L312,62708L312,62751L311,62751L311,62795L310,62795L310,62841L309,62841L309,62889L308,62889L308,62938L307,62938L307,62988L306,62988L306,63040L305,63040L305,66693L304,66693L304,66748L303,66748L303,66804L302,66804L302,66861L301,66861L301,66919L300,66919L300,66979L299,66979L299,67040L298,67040L298,67102L297,67102L297,67165L296,67165L296,67230L295,67230L295,67295L294,67295L294,67362L293,67362L293,67429L292,67429L292,67498L291,67498L291,67567L290,67567L290,67638L289,67638L289,67710L288,67710L288,67782L287,67782L287,67856L286,67856L286,67930L285,67930L285,68005L284,68005L284,68081L283,68081L283,68157L282,68157L282,68235L281,68235L281,68313L280,68313L280,68392L279,68392L279,68471L278,68471L278,68551L277,68551L277,68632L276,68632L276,68713L275,68713L275,68795L274,68795L274,68877L273,68877L273,68959L272,68959L272,69043L271,69043L271,69126L270,69126L270,69210L269,69210L269,69294L268,69294L268,69379L267,69379L267,69463L266,69463L266,69548L265,69548L265,69634L264,69634L264,69719L263,69719L263,69805L262,69805L262,69891L261,69891L261,69977L260,69977L260,70063L259,70063L259,70149L258,70149L258,70235L257,70235L257,70322L256,70322L256,70408L255,70408L255,70494L254,70494L254,70580L253,70580L253,70666L252,70666L252,70752L251,70752L251,70838L250,70838L250,70924L249,70924L249,71009L248,71009L248,71094L247,71094L247,71179L246,71179L246,71263L245,71263L245,71348L244,71348L244,71432L243,71432L243,71515L242,71515L242,71598L241,71598L241,71680L240,71680L240,71762L239,71762L239,71844L238,71844L238,71925L237,71925L237,72005L236,72005L236,72085L235,72085L235,72164L234,72164L234,72242L233,72242L233,72320L232,72320L232,72397L231,72397L231,72474L230,72474L230,72549L229,72549L229,72624L228,72624L228,72698L227,72698L227,72771L226,72771L226,72843L225,72843L225,72914L224,72914L224,72984L223,72984L223,73054L222,73054L222,73122L221,73122L221,73189L220,73189L220,73255L219,73255L219,73320L218,73320L218,73384L217,73384L217,73447L216,73447L216,73508L215,73508L215,73568L214,73568L214,73627L213,73627L213,73685L212,73685L212,73741L211,73741L211,73796L210,73796L210,73850L209,73850L209,73902L208,73902L208,73952L207,73952L207,74002L206,74002L206,74049L205,74049L205,74096L204,74096L204,74140L203,74140L203,74183L202,74183L202,74225L201,74225L201,74265L200,74265L200,74303L199,74303L199,74340L198,74340L198,74375L197,74375L197,74409L196,74409L196,74441L195,74441L195,74471L194,74471L194,74499L193,74499L193,74526L192,74526L192,74550L191,74550L191,74574L190,74574L190,74595L189,74595L189,74615L188,74615L188,74632L187,74632L187,74648L186,74648L186,74663L185,74663L185,74675L184,74675L184,74686L183,74686L183,74694L182,74694L182,74701L181,74701L181,74706L180,74706L180,74710L179,74710L179,74711L177,74711L177,74709L176,74709L176,74705L175,74705L175,74700L174,74700L174,74692L173,74692L173,74683L172,74683L172,74673L171,74673L171,74661L170,74661L170,74647L169,74647L169,74631L168,74631L168,74614L167,74614L167,74596L166,74596L166,74575L165,74575L165,74554L164,74554L164,74531L163,74531L163,74506L162,74506L162,74480L161,74480L161,74453L160,74453L160,74425L159,74425L159,74395L158,74395L158,74363L157,74363L157,74331L156,74331L156,74297L155,74297L155,74263L154,74263L154,74227L153,74227L153,74190L152,74190L152,74152L151,74152L151,74112L150,74112L150,74072L149,74072L149,74031L148,74031L148,73989L147,73989L147,73947L146,73947L146,73903L145,73903L145,73859L144,73859L144,73814L143,73814L143,73768L142,73768L142,73722L141,73722L141,73675L140,73675L140,73628L139,73628L139,73580L138,73580L138,73532L137,73532L137,73483L136,73483L136,73434L135,73434L135,73384L134,73384L134,73335L133,73335L133,73284L132,73284L132,73234L131,73234L131,73183L130,73183L130,73133L129,73133L129,73082L128,73082L128,73030L127,73030L127,72979L126,72979L126,72928L125,72928L125,72876L124,72876L124,72824L123,72824L123,72772L122,72772L122,72721L121,72721L121,72669L120,72669L120,72617L119,72617L119,72565L118,72565L118,72513L117,72513L117,72462L116,72462L116,72410L115,72410L115,72358L114,72358L114,72307L113,72307L113,72256L112,72256L112,72204L111,72204L111,72153L110,72153L110,72102L109,72102L109,72052L108,72052L108,72001L107,72001L107,71951L106,71951L106,71900L105,71900L105,71850L104,71850L104,71800L103,71800L103,71751L102,71751L102,71701L101,71701L101,71651L100,71651L100,71602L99,71602L99,71553L98,71553L98,71504L97,71504L97,71455L96,71455L96,71406L95,71406L95,71358L94,71358L94,71309L93,71309L93,71261L92,71261L92,71212L91,71212L91,71164L90,71164L90,71116L89,71116L89,71067L88,71067L88,71019L87,71019L87,70971L86,70971L86,70923L85,70923L85,70875L84,70875L84,70827L83,70827L83,70780L82,70780L82,70732L81,70732L81,70684L80,70684L80,70636L79,70636L79,70589L78,70589L78,70541L77,70541L77,70493L76,70493L76,70445L75,70445L75,70397L74,70397L74,70349L73,70349L73,70301L72,70301L72,70253L71,70253L71,70205L70,70205L70,70157L69,70157L69,70108L68,70108L68,70060L67,70060L67,66411L66,66411L66,66362L65,66362L65,66313L64,66313L64,66263L63,66263L63,66214L62,66214L62,66164L61,66164L61,66114L60,66114L60,66064L59,66064L59,66013L58,66013L58,65963L57,65963L57,65912L56,65912L56,65860L55,65860L55,65809L54,65809L54,65757L53,65757L53,65705L52,65705L52,65653L51,65653L51,65601L50,65601L50,65548L49,65548L49,65495L48,65495L48,65442L47,65442L47,65389L46,65389L46,65335L45,65335L45,65281L44,65281L44,65227L43,65227L43,65173L42,65173L42,65118L41,65118L41,65063L40,65063L40,65008L39,65008L39,64953L38,64953L38,64897L37,64897L37,64841L36,64841L36,64785L35,64785L35,64729L34,64729L34,64673L33,64673L33,64616L32,64616L32,64560L31,64560L31,64503L30,64503L30,64446L29,64446L29,64389L28,64389L28,64332L27,64332L27,64275L26,64275L26,64218L25,64218L25,64162L24,64162L24,64105L23,64105L23,64048L22,64048L22,63992L21,63992L21,63935L20,63935L20,63879L19,63879L19,63823L18,63823L18,63768L17,63768L17,63712L16,63712L16,63657L15,63657L15,63603L14,63603L14,63549L13,63549L13,63495L12,63495L12,63442L11,63442L11,63389L10,63389L10,63337L9,63337L9,63286L8,63286L8,63235L7,63235L7,63185L6,63185L6,63136L5,63136L5,63087L4,63087L4,63039L3,63039L3,62992L2,62992L2,62946L1,62946L1,62901Z"/>
<path fill="rgba(0, 0, 0, 0.25)" stroke="none" stroke-width="0" d="M0,23893L0,25561L1,25561L1,25571L2,25571L2,25579L3,25579L3,25585L4,25585L4,25589L5,25589L5,25592L7,25592L7,25591L8,25591L8,25587L9,25587L9,25582L10,25582L10,25575L11,25575L11,25566L12,25566L12,25555L13,25555L13,25542L14,25542L14,25527L15,25527L15,25511L16,25511L16,25492L17,25492L17,25472L18,25472L18,25450L19,25450L19,25426L20,25426L20,25401L21,25401L21,25373L22,25373L22,25344L23,25344L23,25313L24,25313L24,25281L25,25281L25,25247L26,25247L26,25211L27,25211L27,25173L28,25173L28,25134L29,25134L29,25094L30,25094L30,25051L31,25051L31,25007L32,25007L32,24962L33,24962L33,24915L34,24915L34,24867L35,24867L35,24817L36,24817L36,24766L37,24766L37,24713L38,24713L38,24659L39,24659L39,24604L40,24604L40,24547L41,24547L41,24489L42,24489L42,24430L43,24430L43,24370L44,24370L44,24308L45,24308L45,24246L46,24246L46,24182L47,24182L47,24117L48,24117L48,24052L49,24052L49,23985L50,23985L50,23917L51,23917L51,23848L52,23848L52,23779L53,23779L53,23708L54,23708L54,23637L55,23637L55,23565L56,23565L56,23492L57,23492L57,23418L58,23418L58,23344L59,23344L59,23269L60,23269L60,23193L61,23193L61,23116L62,23116L62,23039L63,23039L63,22962L64,22962L64,22884L65,22884L65,22805L66,22805L66,22726L67,22726L67,21221L66,21221L66,21300L65,21300L65,21377L64,21377L64,21455L63,21455L63,21531L62,21531L62,21607L61,21607L61,21682L60,21682L60,21757L59,21757L59,21830L58,21830L58,21903L57,21903L57,21975L56,21975L56,22046L55,22046L55,22117L54,22117L54,22186L53,22186L53,22254L52,22254L52,22322L51,22322L51,22388L50,22388L50,22454L49,22454L49,22518L48,22518L48,22582L47,22582L47,22644L46,22644L46,22705L45,22705L45,22765L44,22765L44,22824L43,22824L43,22882L42,22882L42,22938L41,22938L41,22993L40,22993L40,23047L39,23047L39,23099L38,23099L38,23150L37,23150L37,23200L36,23200L36,23248L35,23248L35,23294L34,23294L34,23340L33,23340L33,23383L32,23383L32,23425L31,23425L31,23466L30,23466L30,23505L29,23505L29,23542L28,23542L28,23578L27,23578L27,23613L26,23613L26,23645L25,23645L25,23676L24,23676L24,23705L23,23705L23,23733L22,23733L22,23759L21,23759L21,23783L20,23783L20,23805L19,23805L19,23826L18,23826L18,23845L17,23845L17,23862L16,23862L16,23878L15,23878L15,23891L14,23891L14,23903L13,23903L13,23913L12,23913L12,23921L11,23921L11,23928L10,23928L10,23932L9,23932L9,23935L8,23935L8,23936L7,23936L7,23935L6,23935L6,23933L5,23933L5,23928L4,23928L4,23922L3,23922L3,23914L2,23914L2,23905L1,23905L1,23893Z"/>
<path fill="rgba(0, 0, 0, 0.25)" stroke="none" stroke-width="0" d="M0,61233L0,62901L1,62901L1,62946L2,62946L2,62992L3,62992L3,63039L4,63039L4,63087L5,63087L5,63136L6,63136L6,63185L7,63185L7,63235L8,63235L8,63286L9,63286L9,63337L10,63337L10,63389L11,63389L11,63442L12,63442L12,63495L13,63495L13,63549L14,63549L14,63603L15,63603L15,63657L16,63657L16,63712L17,63712L17,63768L18,63768L18,63823L19,63823L19,63879L20,63879L20,63935L21,63935L21,63992L22,63992L22,64048L23,64048L23,64105L24,64105L24,64162L25,64162L25,64218L26,64218L26,64275L27,64275L27,64332L28,64332L28,64389L29,64389L29,64446L30,64446L30,64503L31,64503L31,64560L32,64560L32,64616L33,64616L33,64673L34,64673L34,64729L35,64729L35,64785L36,64785L36,64841L37,64841L37,64897L38,64897L38,64953L39,64953L39,65008L40,65008L40,65063L41,65063L41,65118L42,65118L42,65173L43,65173L43,65227L44,65227L44,65281L45,65281L45,65335L46,65335L46,65389L47,65389L47,65442L48,65442L48,65495L49,65495L49,65548L50,65548L50,65601L51,65601L51,65653L52,65653L52,65705L53,65705L53,65757L54,65757L54,65809L55,65809L55,65860L56,65860L56,65912L57,65912L57,65963L58,65963L58,66013L59,66013L59,66064L60,66064L60,66114L61,66114L61,66164L62,66164L62,66214L63,66214L63,66263L64,66263L64,66313L65,66313L65,66362L66,66362L66,66411L67,66411L67,64905L66,64905L66,64855L65,64855L65,64805L64,64805L64,64755L63,64755L63,64704L62,64704L62,64653L61,64653L61,64602L60,64602L60,64550L59,64550L59,64498L58,64498L58,64446L57,64446L57,64393L56,64393L56,64341L55,64341L55,64287L54,64287L54,64234L53,64234L53,64180L52,64180L52,64126L51,64126L51,64071L50,64071L50,64016L49,64016L49,63961L48,63961L48,63906L47,63906L47,63850L46,63850L46,63794L45,63794L45,63737L44,63737L44,63680L43,63680L43,63623L42,63623L42,63566L41,63566L41,63508L40,63508L40,63450L39,63450L39,63392L38,63392L38,63333L37,63333L37,63275L36,63275L36,63216L35,63216L35,63156L34,63156L34,63097L33,63097L33,63037L32,63037L32,62977L31,62977L31,62917L30,62917L30,62857L29,62857L29,62797L28,62797L28,62737L27,62737L27,62677L26,62677L26,62617L25,62617L25,62557L24,62557L24,62496L23,62496L23,62437L22,62437L22,62377L21,62377L21,62317L20,62317L20,62258L19,62258L19,62199L18,62199L18,62140L17,62140L17,62082L16,62082L16,62024L15,62024L15,61967L14,61967L14,61910L13,61910L13,61853L12,61853L12,61798L11,61798L11,61742L10,61742L10,61688L9,61688L9,61634L8,61634L8,61581L7,61581L7,61528L6,61528L6,61477L5,61477L5,61426L4,61426L4,61376L3,61376L3,61327L2,61327L2,61280L1,61280L1,61233Z"/>
<path fill="rgba(0, 0, 0, 0.25)" stroke="none" stroke-width="0" d="M67,24742L67,26246L68,26246L68,26166L69,26166L69,26085L70,26085L70,26004L71,26004L71,25923L72,25923L72,25842L73,25842L73,25760L74,25760L74,25678L75,25678L75,25596L76,25596L76,25513L77,25513L77,25431L78,25431L78,25348L79,25348L79,25265L80,25265L80,25182L81,25182L81,25100L82,25100L82,25017L83,25017L83,24934L84,24934L84,24851L85,24851L85,24769L86,24769L86,24686L87,24686L87,24604L88,24604L88,24521L89,24521L89,24439L90,24439L90,24357L91,24357L91,24276L92,24276L92,24194L93,24194L93,24113L94,24113L94,24033L95,24033L95,23952L96,23952L96,23872L97,23872L97,23793L98,23793L98,23714L99,23714L99,23635L100,23635L100,23557L101,23557L101,23479L102,23479L102,23402L103,23402L103,23326L104,23326L104,23250L105,23250L105,23175L106,23175L106,23100L107,23100L107,23027L108,23027L108,22953L109,22953L109,22881L110,22881L110,22810L111,22810L111,22739L112,22739L112,22670L113,22670L113,22601L114,22601L114,22533L115,22533L115,22466L116,22466L116,22400L117,22400L117,22335L118,22335L118,22271L119,22271L119,22208L120,22208L120,22146L121,22146L121,22085L122,22085L122,22025L123,22025L123,21967L124,21967L124,21909L125,21909L125,21853L126,21853L126,21798L127,21798L127,21744L128,21744L128,21692L129,21692L129,21640L130,21640L130,21590L131,21590L131,21542L132,21542L132,21494L133,21494L133,21449L134,21449L134,21404L135,21404L135,21361L136,21361L136,21319L137,21319L137,21279L138,21279L138,21241L139,21241L139,21204L140,21204L140,21168L141,21168L141,21134L142,21134L142,21102L143,21102L143,21071L144,21071L144,21041L145,21041L145,21014L146,21014L146,20987L147,20987L147,20963L148,20963L148,20940L149,20940L149,20919L150,20919L150,20899L151,20899L151,20881L152,20881L152,20864L153,20864L153,20849L154,20849L154,20836L155,20836L155,20824L156,20824L156,20814L157,20814L157,20806L158,20806L158,20799L159,20799L159,20793L160,20793L160,20790L161,20790L161,20788L162,20788L162,20787L163,20787L163,20788L164,20788L164,20791L165,20791L165,20795L166,20795L166,20800L167,20800L167,20807L168,20807L168,20816L169,20816L169,20826L170,20826L170,20838L171,20838L171,20851L172,20851L172,20865L173,20865L173,20881L174,20881L174,20898L175,20898L175,20917L176,20917L176,20937L177,20937L177,20958L178,20958L178,20980L179,20980L179,21003L180,21003L180,21028L181,21028L181,21054L182,21054L182,21080L183,21080L183,21108L184,21108L184,21137L185,21137L185,21167L186,21167L186,21198L187,21198L187,21229L188,21229L188,21262L189,21262L189,21295L190,21295L190,21329L191,21329L191,21364L192,21364L192,21400L193,21400L193,21436L194,21436L194,21473L195,21473L195,21511L196,21511L196,21549L197,21549L197,21588L198,21588L198,21628L199,21628L199,21668L200,21668L200,21709L201,21709L201,21750L202,21750L202,21791L203,21791L203,21833L204,21833L204,21875L205,21875L205,21918L206,21918L206,21961L207,21961L207,22004L208,22004L208,22047L209,22047L209,22090L210,22090L210,22134L211,22134L211,22178L212,22178L212,22222L213,22222L213,22266L214,22266L214,22310L215,22310L215,22354L216,22354L216,22399L217,22399L217,22443L218,22443L218,22487L219,22487L219,22531L220,22531L220,22576L221,22576L221,22620L222,22620L222,22664L223,22664L223,22708L224,22708L224,22753L225,22753L225,22797L226,22797L226,22841L227,22841L227,22885L228,22885L228,22929L229,22929L229,22973L230,22973L230,23017L231,23017L231,23060L232,23060L232,23104L233,23104L233,23148L234,23148L234,23191L235,23191L235,23235L236,23235L236,23278L237,23278L237,23321L238,23321L238,23364L239,23364L239,23407L240,23407L240,23450L241,23450L241,23493L242,23493L242,23535L243,23535L243,23578L244,23578L244,23620L245,23620L245,23663L246,23663L246,23705L247,23705L247,23747L248,23747L248,23789L249,23789L249,23831L250,23831L250,23873L251,23873L251,23915L252,23915L252,23957L253,23957L253,23999L254,23999L254,24041L255,24041L255,24083L256,24083L256,24126L257,24126L257,24168L258,24168L258,24210L259,24210L259,24253L260,24253L260,24295L261,24295L261,24338L262,24338L262,24380L263,24380L263,24423L264,24423L264,24466L265,24466L265,24509L266,24509L266,24552L267,24552L267,24596L268,24596L268,24639L269,24639L269,24683L270,24683L270,24727L271,24727L271,24771L272,24771L272,24815L273,24815L273,24860L274,24860L274,24904L275,24904L275,24949L276,24949L276,24994L277,24994L277,25040L278,25040L278,25086L279,25086L279,25132L280,25132L280,25178L281,25178L281,25225L282,25225L282,25272L283,25272L283,25319L284,25319L284,25367L285,25367L285,25415L286,25415L286,25463L287,25463L287,25512L288,25512L288,25561L289,25561L289,25611L290,25611L290,25661L291,25661L291,25711L292,25711L292,25762L293,25762L293,25813L294,25813L294,25864L295,25864L295,25916L296,25916L296,25968L297,25968L297,26021L298,26021L298,26074L299,26074L299,26127L300,26127L300,26180L301,26180L301,26234L302,26234L302,26288L303,26288L303,26343L304,26343L304,26398L305,26398L305,24837L304,24837L304,24785L303,24785L303,24734L302,24734L302,24682L301,24682L301,24631L300,24631L300,24580L299,24580L299,24530L298,24530L298,24479L297,24479L297,24429L296,24429L296,24379L295,24379L295,24330L294,24330L294,24281L293,24281L293,24232L292,24232L292,24183L291,24183L291,24135L290,24135L290,24087L289,24087L289,24039L288,24039L288,23992L287,23992L287,23945L286,23945L286,23898L285,23898L285,23851L284,23851L284,23805L283,23805L283,23759L282,23759L282,23713L281,23713L281,23668L280,23668L280,23623L279,23623L279,23577L278,23577L278,23533L277,23533L277,23488L276,23488L276,23443L275,23443L275,23399L274,23399L274,23355L273,23355L273,23311L272,23311L272,23267L271,23267L271,23223L270,23223L270,23179L269,23179L269,23135L268,23135L268,23091L267,23091L267,23048L266,23048L266,23004L265,23004L265,22961L264,22961L264,22917L263,22917L263,22873L262,22873L262,22830L261,22830L261,22787L260,22787L260,22743L259,22743L259,22700L258,22700L258,22656L257,22656L257,22613L256,22613L256,22569L255,22569L255,22525L254,22525L254,22482L253,22482L253,22438L252,22438L252,22394L251,22394L251,22350L250,22350L250,22306L249,22306L249,22262L248,22262L248,22218L247,22218L247,22173L246,22173L246,22129L245,22129L245,22084L244,22084L244,22039L243,22039L243,21994L242,21994L242,21948L241,21948L241,21903L240,21903L240,21857L239,21857L239,21811L238,21811L238,21765L237,21765L237,21719L236,21719L236,21672L235,21672L235,21625L234,21625L234,21578L233,21578L233,21531L232,21531L232,21484L231,21484L231,21437L230,21437L230,21389L229,21389L229,21342L228,21342L228,21294L227,21294L227,21246L226,21246L226,21198L225,21198L225,21150L224,21150L224,21102L223,21102L223,21054L222,21054L222,21005L221,21005L221,20957L220,20957L220,20908L219,20908L219,20860L218,20860L218,20812L217,20812L217,20763L216,20763L216,20715L215,20715L215,20666L214,20666L214,20618L213,20618L213,20570L212,20570L212,20521L211,20521L211,20473L210,20473L210,20425L209,20425L209,20378L208,20378L208,20330L207,20330L207,20283L206,20283L206,20236L205,20236L205,20189L204,20189L204,20143L203,20143L203,20097L202,20097L202,20052L201,20052L201,20007L200,20007L200,19962L199,19962L199,19919L198,19919L198,19875L197,19875L197,19833L196,19833L196,19791L195,19791L195,19750L194,19750L194,19709L193,19709L193,19670L192,19670L192,19631L191,19631L191,19593L190,19593L190,19556L189,19556L189,19520L188,19520L188,19485L187,19485L187,19451L186,19451L186,19417L185,19417L185,19385L184,19385L184,19355L183,19355L183,19325L182,19325L182,19296L181,19296L181,19269L180,19269L180,19243L179,19243L179,19218L178,19218L178,19195L177,19195L177,19173L176,19173L176,19152L175,19152L175,19133L174,19133L174,19115L173,19115L173,19099L172,19099L172,19085L171,19085L171,19072L170,19072L170,19060L169,19060L169,19051L168,19051L168,19042L167,19042L167,19036L166,19036L166,19031L165,19031L165,19028L164,19028L164,19027L162,19027L162,19029L161,19029L161,19033L160,19033L160,19039L159,19039L159,19046L158,19046L158,19055L157,19055L157,19066L156,19066L156,19079L155,19079L155,19093L154,19093L154,19109L153,19109L153,19127L152,19127L152,19146L151,19146L151,19168L150,19168L150,19190L149,19190L149,19215L148,19215L148,19241L147,19241L147,19270L146,19270L146,19299L145,19299L145,19331L144,19331L144,19364L143,19364L143,19399L142,19399L142,19435L141,19435L141,19473L140,19473L140,19512L139,19512L139,19554L138,19554L138,19596L137,19596L137,19641L136,19641L136,19686L135,19686L135,19734L134,19734L134,19782L133,19782L133,19833L132,19833L132,19884L131,19884L131,19937L130,19937L130,19991L129,19991L129,20047L128,20047L128,20104L127,20104L127,20162L126,20162L126,20221L125,20221L125,20282L124,20282L124,20343L123,20343L123,20406L122,20406L122,20470L121,20470L121,20535L120,20535L120,20601L119,20601L119,20668L118,20668L118,20736L117,20736L117,20805L116,20805L116,20875L115,20875L115,20946L114,20946L114,21018L113,21018L113,21090L112,21090L112,21164L111,21164L111,21238L110,21238L110,21313L109,21313L109,21388L108,21388L108,21465L107,21465L107,21542L106,21542L106,21620L105,21620L105,21698L104,21698L104,21777L103,21777L103,21856L102,21856L102,21936L101,21936L101,22017L100,22017L100,22097L99,22097L99,22179L98,22179L98,22260L97,22260L97,22342L96,22342L96,22425L95,22425L95,22507L94,22507L94,22590L93,22590L93,22673L92,22673L92,22757L91,22757L91,22840L90,22840L90,22924L89,22924L89,23007L88,23007L88,23091L87,23091L87,23175L86,23175L86,23259L85,23259L85,23343L84,23343L84,23427L83,23427L83,23510L82,23510L82,23594L81,23594L81,23678L80,23678L80,23761L79,23761L79,23845L78,23845L78,23928L77,23928L77,24011L76,24011L76,24093L75,24093L75,24176L74,24176L74,24258L73,24258L73,24340L72,24340L72,24421L71,24421L71,24502L70,24502L70,24583L69,24583L69,24663L68,24663L68,24742Z"/>
<path fill="rgba(0, 0, 0, 0.25)" stroke="none" stroke-width="0" d="M67,68554L67,70060L68,70060L68,70108L69,70108L69,70157L70,70157L70,70205L71,70205L71,70253L72,70253L72,70301L73,70301L73,70349L74,70349L74,70397L75,70397L75,70445L76,70445L76,70493L77,70493L77,70541L78,70541L78,70589L79,70589L79,70636L80,70636L80,70684L81,70684L81,70732L82,70732L82,70780L83,70780L83,70827L84,70827L84,70875L85,70875L85,70923L86,70923L86,70971L87,70971L87,71019L88,71019L88,71067L89,71067L89,71116L90,71116L90,71164L91,71164L91,71212L92,71212L92,71261L93,71261L93,71309L94,71309L94,71358L95,71358L95,71406L96,71406L96,71455L97,71455L97,71504L98,71504L98,71553L99,71553L99,71602L100,71602L100,71651L101,71651L101,71701L102,71701L102,71751L103,71751L103,71800L104,71800L104,71850L105,71850L105,71900L106,71900L106,71951L107,71951L107,72001L108,72001L108,72052L109,72052L109,72102L110,72102L110,72153L111,72153L111,72204L112,72204L112,72256L113,72256L113,72307L114,72307L114,72358L115,72358L115,72410L116,72410L116,72462L117,72462L117,72513L118,72513L118,72565L119,72565L119,72617L120,72617L120,72669L121,72669L121,72721L122,72721L122,72772L123,72772L123,72824L124,72824L124,72876L125,72876L125,72928L126,72928L126,72979L127,72979L127,73030L128,73030L128,73082L129,73082L129,73133L130,73133L130,73183L131,73183L131,73234L132,73234L132,73284L133,73284L133,73335L134,73335L134,73384L135,73384L135,73434L136,73434L136,73483L137,73483L137,73532L138,73532L138,73580L139,73580L139,73628L140,73628L140,73675L141,73675L141,73722L142,73722L142,73768L143,73768L143,73814L144,73814L144,73859L145,73859L145,73903L146,73903L146,73947L147,73947L147,73989L148,73989L148,74031L149,74031L149,74072L150,74072L150,74112L151,74112L151,74152L152,74152L152,74190L153,74190L153,74227L154,74227L154,74263L155,74263L155,74297L156,74297L156,74331L157,74331L157,74363L158,74363L158,74395L159,74395L159,74425L160,74425L160,74453L161,74453L161,74480L162,74480L162,74506L163,74506L163,74531L164,74531L164,74554L165,74554L165,74575L166,74575L166,74596L167,74596L167,74614L168,74614L168,74631L169,74631L169,74647L170,74647L170,74661L171,74661L171,74673L172,74673L172,74683L173,74683L173,74692L174,74692L174,74700L175,74700L175,74705L176,74705L176,74709L177,74709L177,74711L179,74711L179,74710L180,74710L180,74706L181,74706L181,74701L182,74701L182,74694L183,74694L183,74686L184,74686L184,74675L185,74675L185,74663L186,74663L186,74648L187,74648L187,74632L188,74632L188,74615L189,74615L189,74595L190,74595L190,74574L191,74574L191,74550L192,74550L192,74526L193,74526L193,74499L194,74499L194,74471L195,74471L195,74441L196,74441L196,74409L197,74409L197,74375L198,74375L198,74340L199,74340L199,74303L200,74303L200,74265L201,74265L201,74225L202,74225L202,74183L203,74183L203,74140L204,74140L204,74096L205,74096L205,74049L206,74049L206,74002L207,74002L207,73952L208,73952L208,73902L209,73902L209,73850L210,73850L210,73796L211,73796L211,73741L212,73741L212,73685L213,73685L213,73627L214,73627L214,73568L215,73568L215,73508L216,73508L216,73447L217,73447L217,73384L218,73384L218,73320L219,73320L219,73255L220,73255L220,73189L221,73189L221,73122L222,73122L222,73054L223,73054L223,72984L224,72984L224,72914L225,72914L225,72843L226,72843L226,72771L227,72771L227,72698L228,72698L228,72624L229,72624L229,72549L230,72549L230,72474L231,72474L231,72397L232,72397L232,72320L233,72320L233,72242L234,72242L234,72164L235,72164L235,72085L236,72085L236,72005L237,72005L237,71925L238,71925L238,71844L239,71844L239,71762L240,71762L240,71680L241,71680L241,71598L242,71598L242,71515L243,71515L243,71432L244,71432L244,71348L245,71348L245,71263L246,71263L246,71179L247,71179L247,71094L248,71094L248,71009L249,71009L249,70924L250,70924L250,70838L251,70838L251,70752L252,70752L252,70666L253,70666L253,70580L254,70580L254,70494L255,70494L255,70408L256,70408L256,70322L257,70322L257,70235L258,70235L258,70149L259,70149L259,70063L260,70063L260,69977L261,69977L261,69891L262,69891L262,69805L263,69805L263,69719L264,69719L264,69634L265,69634L265,69548L266,69548L266,69463L267,69463L267,69379L268,69379L268,69294L269,69294L269,69210L270,69210L270,69126L271,69126L271,69043L272,69043L272,68959L273,68959L273,68877L274,68877L274,68795L275,68795L275,68713L276,68713L276,68632L277,68632L277,68551L278,68551L278,68471L279,68471L279,68392L280,68392L280,68313L281,68313L281,68235L282,68235L282,68157L283,68157L283,68081L284,68081L284,68005L285,68005L285,67930L286,67930L286,67856L287,67856L287,67782L288,67782L288,67710L289,67710L289,67638L290,67638L290,67567L291,67567L291,67498L292,67498L292,67429L293,67429L293,67362L294,67362L294,67295L295,67295L295,67230L296,67230L296,67165L297,67165L297,67102L298,67102L298,67040L299,67040L299,66979L300,66979L300,66919L301,66919L301,66861L302,66861L302,66804L303,66804L303,66748L304,66748L304,66693L305,66693L305,65133L304,65133L304,65191L303,65191L303,65249L302,65249L302,65309L301,65309L301,65371L300,65371L300,65433L299,65433L299,65497L298,65497L298,65561L297,65561L297,65627L296,65627L296,65694L295,65694L295,65762L294,65762L294,65831L293,65831L293,65900L292,65900L292,65971L291,65971L291,66043L290,66043L290,66116L289,66116L289,66189L288,66189L288,66263L287,66263L287,66338L286,66338L286,66414L285,66414L285,66491L284,66491L284,66568L283,66568L283,66646L282,66646L282,66725L281,66725L281,66804L280,66804L280,66884L279,66884L279,66965L278,66965L278,67046L277,67046L277,67127L276,67127L276,67209L275,67209L275,67291L274,67291L274,67374L273,67374L273,67457L272,67457L272,67540L271,67540L271,67624L270,67624L270,67708L269,67708L269,67792L268,67792L268,67877L267,67877L267,67961L266,67961L266,68046L265,68046L265,68131L264,68131L264,68216L263,68216L263,68301L262,68301L262,68386L261,68386L261,68471L260,68471L260,68556L259,68556L259,68641L258,68641L258,68726L257,68726L257,68811L256,68811L256,68896L255,68896L255,68981L254,68981L254,69066L253,69066L253,69150L252,69150L252,69234L251,69234L251,69318L250,69318L250,69402L249,69402L249,69485L248,69485L248,69568L247,69568L247,69651L246,69651L246,69733L245,69733L245,69815L244,69815L244,69896L243,69896L243,69977L242,69977L242,70057L241,70057L241,70137L240,70137L240,70216L239,70216L239,70295L238,70295L238,70373L237,70373L237,70450L236,70450L236,70526L235,70526L235,70602L234,70602L234,70677L233,70677L233,70752L232,70752L232,70825L231,70825L231,70898L230,70898L230,70970L229,70970L229,71041L228,71041L228,71111L227,71111L227,71180L226,71180L226,71249L225,71249L225,71316L224,71316L224,71382L223,71382L223,71447L222,71447L222,71512L221,71512L221,71575L220,71575L220,71637L219,71637L219,71697L218,71697L218,71757L217,71757L217,71816L216,71816L216,71873L215,71873L215,71929L214,71929L214,71984L213,71984L213,72037L212,72037L212,72089L211,72089L211,72140L210,72140L210,72189L209,72189L209,72237L208,72237L208,72283L207,72283L207,72328L206,72328L206,72372L205,72372L205,72414L204,72414L204,72454L203,72454L203,72494L202,72494L202,72531L201,72531L201,72567L200,72567L200,72602L199,72602L199,72635L198,72635L198,72666L197,72666L197,72696L196,72696L196,72724L195,72724L195,72750L194,72750L194,72775L193,72775L193,72799L192,72799L192,72820L191,72820L191,72840L190,72840L190,72859L189,72859L189,72876L188,72876L188,72891L187,72891L187,72904L186,72904L186,72916L185,72916L185,72926L184,72926L184,72934L183,72934L183,72941L182,72941L182,72946L181,72946L181,72949L180,72949L180,72951L178,72951L178,72949L177,72949L177,72946L176,72946L176,72941L175,72941L175,72935L174,72935L174,72927L173,72927L173,72918L172,72918L172,72907L171,72907L171,72894L170,72894L170,72881L169,72881L169,72865L168,72865L168,72849L167,72849L167,72831L166,72831L166,72811L165,72811L165,72790L164,72790L164,72768L163,72768L163,72745L162,72745L162,72721L161,72721L161,72695L160,72695L160,72668L159,72668L159,72640L158,72640L158,72611L157,72611L157,72581L156,72581L156,72549L155,72549L155,72517L154,72517L154,72484L153,72484L153,72449L152,72449L152,72414L151,72414L151,72378L150,72378L150,72341L149,72341L149,72303L148,72303L148,72265L147,72265L147,72225L146,72225L146,72185L145,72185L145,72145L144,72145L144,72103L143,72103L143,72061L142,72061L142,72019L141,72019L141,71976L140,71976L140,71933L139,71933L139,71889L138,71889L138,71844L137,71844L137,71800L136,71800L136,71755L135,71755L135,71710L134,71710L134,71664L133,71664L133,71618L132,71618L132,71572L131,71572L131,71526L130,71526L130,71479L129,71479L129,71432L128,71432L128,71385L127,71385L127,71338L126,71338L126,71291L125,71291L125,71244L124,71244L124,71196L123,71196L123,71149L122,71149L122,71101L121,71101L121,71054L120,71054L120,71006L119,71006L119,70958L118,70958L118,70910L117,70910L117,70863L116,70863L116,70815L115,70815L115,70767L114,70767L114,70719L113,70719L113,70672L112,70672L112,70624L111,70624L111,70577L110,70577L110,70530L109,70530L109,70482L108,70482L108,70435L107,70435L107,70388L106,70388L106,70341L105,70341L105,70294L104,70294L104,70247L103,70247L103,70201L102,70201L102,70154L101,70154L101,70107L100,70107L100,70061L99,70061L99,70014L98,70014L98,69968L97,69968L97,69921L96,69921L96,69875L95,69875L95,69829L94,69829L94,69782L93,69782L93,69736L92,69736L92,69690L91,69690L91,69643L90,69643L90,69597L89,69597L89,69550L88,69550L88,69504L87,69504L87,69457L86,69457L86,69411L85,69411L85,69364L84,69364L84,69317L83,69317L83,69270L82,69270L82,69224L81,69224L81,69177L80,69177L80,69130L79,69130L79,69083L78,69083L78,69035L77,69035L77,68988L76,68988L76,68941L75,68941L75,68893L74,68893L74,68845L73,68845L73,68797L72,68797L72,68749L71,68749L71,68701L70,68701L70,68652L69,68652L69,68603L68,68603L68,68554Z"/>
<path fill="rgba(0, 0, 0, 0.25)" stroke="none" stroke-width="0" d="M305,21289L305,22853L306,22853L306,22908L307,22908L307,22964L308,22964L308,23019L309,23019L309,23076L310,23076L310,23132L311,23132L311,23188L312,23188L312,23245L313,23245L313,23302L314,23302L314,23359L315,23359L315,23416L316,23416L316,23473L317,23473L317,23531L318,23531L318,23588L319,23588L319,23645L320,23645L320,23703L321,23703L321,23760L322,23760L322,23817L323,23817L323,23874L324,23874L324,23931L325,23931L325,23988L326,23988L326,24044L327,24044L327,24100L328,24100L328,24156L329,24156L329,24211L330,24211L330,24266L331,24266L331,24320L332,24320L332,24374L333,24374L333,24427L334,24427L334,24480L335,24480L335,24532L336,24532L336,24583L337,24583L337,24633L338,24633L338,24683L339,24683L339,24731L340,24731L340,24779L341,24779L341,24826L342,24826L342,24872L343,24872L343,24917L344,24917L344,24961L345,24961L345,25004L346,25004L346,25045L347,25045L347,25086L348,25086L348,25125L349,25125L349,25162L350,25162L350,25199L351,25199L351,25234L352,25234L352,25268L353,25268L353,25300L354,25300L354,25331L355,25331L355,25360L356,25360L356,25387L357,25387L357,25413L358,25413L358,25437L359,25437L359,25460L360,25460L360,25481L361,25481L361,25500L362,25500L362,25517L363,25517L363,25533L364,25533L364,25547L365,25547L365,23877L364,23877L364,23862L363,23862L363,23845L362,23845L362,23827L361,23827L361,23806L360,23806L360,23785L359,23785L359,23762L358,23762L358,23737L357,23737L357,23711L356,23711L356,23683L355,23683L355,23653L354,23653L354,23623L353,23623L353,23591L352,23591L352,23557L351,23557L351,23523L350,23523L350,23487L349,23487L349,23450L348,23450L348,23412L347,23412L347,23372L346,23372L346,23332L345,23332L345,23290L344,23290L344,23248L343,23248L343,23205L342,23205L342,23160L341,23160L341,23115L340,23115L340,23069L339,23069L339,23022L338,23022L338,22975L337,22975L337,22927L336,22927L336,22878L335,22878L335,22828L334,22828L334,22778L333,22778L333,22728L332,22728L332,22677L331,22677L331,22625L330,22625L330,22573L329,22573L329,22521L328,22521L328,22468L327,22468L327,22415L326,22415L326,22361L325,22361L325,22308L324,22308L324,22254L323,22254L323,22200L322,22200L322,22146L321,22146L321,22092L320,22092L320,22038L319,22038L319,21984L318,21984L318,21930L317,21930L317,21875L316,21875L316,21821L315,21821L315,21767L314,21767L314,21714L313,21714L313,21660L312,21660L312,21606L311,21606L311,21553L310,21553L310,21500L309,21500L309,21447L308,21447L308,21394L307,21394L307,21342L306,21342L306,21289Z"/>
<path fill="rgba(0, 0, 0, 0.25)" stroke="none" stroke-width="0" d="M305,61477L305,63040L306,63040L306,62988L307,62988L307,62938L308,62938L308,62889L309,62889L309,62841L310,62841L310,62795L311,62795L311,62751L312,62751L312,62708L313,62708L313,62667L314,62667L314,62627L315,62627L315,62589L316,62589L316,62552L317,62552L317,62517L318,62517L318,62484L319,62484L319,62453L320,62453L320,62423L321,62423L321,62395L322,62395L322,62369L323,62369L323,62345L324,62345L324,62322L325,62322L325,62301L326,62301L326,62282L327,62282L327,62265L328,62265L328,62249L329,62249L329,62236L330,62236L330,62224L331,62224L331,62214L332,62214L332,62205L333,62205L333,62199L334,62199L334,62194L335,62194L335,62192L336,62192L336,62191L337,62191L337,62192L338,62192L338,62194L339,62194L339,62199L340,62199L340,62205L341,62205L341,62213L342,62213L342,62223L343,62223L343,62235L344,62235L344,62248L345,62248L345,62263L346,62263L346,62280L347,62280L347,62299L348,62299L348,62319L349,62319L349,62341L350,62341L350,62365L351,62365L351,62390L352,62390L352,62417L353,62417L353,62445L354,62445L354,62475L355,62475L355,62506L356,62506L356,62539L357,62539L357,62573L358,62573L358,62609L359,62609L359,62645L360,62645L360,62683L361,62683L361,62722L362,62722L362,62763L363,62763L363,62804L364,62804L364,62847L365,62847L365,61177L364,61177L364,61133L363,61133L363,61090L362,61090L362,61049L361,61049L361,61009L360,61009L360,60970L359,60970L359,60933L358,60933L358,60897L357,60897L357,60862L356,60862L356,60829L355,60829L355,60798L354,60798L354,60768L353,60768L353,60740L352,60740L352,60714L351,60714L351,60689L350,60689L350,60666L349,60666L349,60645L348,60645L348,60625L347,60625L347,60608L346,60608L346,60592L345,60592L345,60578L344,60578L344,60566L343,60566L343,60556L342,60556L342,60547L341,60547L341,60541L340,60541L340,60536L339,60536L339,60534L338,60534L338,60533L337,60533L337,60535L336,60535L336,60538L335,60538L335,60543L334,60543L334,60550L333,60550L333,60559L332,60559L332,60570L331,60570L331,60583L330,60583L330,60597L329,60597L329,60614L328,60614L328,60632L327,60632L327,60653L326,60653L326,60675L325,60675L325,60699L324,60699L324,60725L323,60725L323,60752L322,60752L322,60781L321,60781L321,60813L320,60813L320,60845L319,60845L319,60880L318,60880L318,60916L317,60916L317,60954L316,60954L316,60994L315,60994L315,61036L314,61036L314,61079L313,61079L313,61123L312,61123L312,61169L311,61169L311,61217L310,61217L310,61266L309,61266L309,61317L308,61317L308,61369L307,61369L307,61422L306,61422L306,61477Z"/>
</g>
<text x="20" y="510" font-family="Arial" font-size="11pt" text-anchor="end" alignment-baseline="middle" fill="#000000">0</text>
<line x1="25" y1="510" x2="1025" y2="510" stroke="#000000" stroke-width="0.5"/>
<text x="20" y="468.33" font-family="Arial" font-size="11pt" text-anchor="end" alignment-baseline="middle" fill="#000000">2</text>
<line x1="25" y1="468.33" x2="1025" y2="468.33" stroke="#000000" stroke-width="0.5"/>
<text x="20" y="426.67" font-family="Arial" font-size="11pt" text-anchor="end" alignment-baseline="middle" fill="#000000">4</text>
<line x1="25" y1="426.67" x2="1025" y2="426.67" stroke="#000000" stroke-width="0.5"/>
<text x="20" y="385" font-family="Arial" font-size="11pt" text-anchor="end" alignment-baseline="middle" fill="#000000">6</text>
<line x1="25" y1="385" x2="1025" y2="385" stroke="#000000" stroke-width="0.5"/>
<text x="20" y="343.33" font-family="Arial" font-size="11pt" text-anchor="end" alignment-baseline="middle" fill="#000000">8</text>
<line x1="25" y1="343.33" x2="1025" y2="343.33" stroke="#000000" stroke-width="0.5"/>
<text x="20" y="301.67" font-family="Arial" font-size="11pt" text-anchor="end" alignment-baseline="middle" fill="#000000">10</text>
<line x1="25" y1="301.67" x2="1025" y2="301.67" stroke="#000000" stroke-width="0.5"/>
<text x="20" y="260" font-family="Arial" font-size="11pt" text-anchor="end" alignment-baseline="middle" fill="#000000">12</text>
<line x1="25" y1="260" x2="1025" y2="260" stroke="#000000" stroke-width="0.5"/>
<text x="20" y="218.33" font-family="Arial" font-size="11pt" text-anchor="end" alignment-baseline="middle" fill="#000000">14</text>
<line x1="25" y1="218.33" x2="1025" y2="218.33" stroke="#000000" stroke-width="0.5"/>
<text x="20" y="176.67" font-family="Arial" font-size="11pt" text-anchor="end" alignment-baseline="middle" fill="#000000">16</text>
<line x1="25" y1="176.67" x2="1025" y2="176.67" stroke="#000000" stroke-width="0.5"/>
<text x="20" y="135" font-family="Arial" font-size="11pt" text-anchor="end" alignment-baseline="middle" fill="#000000">18</text>
<line x1="25" y1="135" x2="1025" y2="135" stroke="#000000" stroke-width="0.5"/>
<text x="20" y="93.33" font-family="Arial" font-size="11pt" text-anchor="end" alignment-baseline="middle" fill="#000000">20</text>
<line x1="25" y1="93.33" x2="1025" y2="93.33" stroke="#000000" stroke-width="0.5"/>
<text x="20" y="51.67" font-family="Arial" font-size="11pt" text-anchor="end" alignment-baseline="middle" fill="#000000">22</text>
<line x1="25" y1="51.67" x2="1025" y2="51.67" stroke="#000000" stroke-width="0.5"/>
<text x="20" y="10" font-family="Arial" font-size="11pt" text-anchor="end" alignment-baseline="middle" fill="#000000">24</text>
<line x1="25" y1="10" x2="1025" y2="10" stroke="#000000" stroke-width="0.5"/>
<text x="67.47" y="522" font-family="Arial" font-size="11pt" text-anchor="middle" alignment-baseline="middle" fill="#000000">Jan</text>
<line x1="25" y1="10" x2="25" y2="510" stroke="#000000" stroke-width="0.5"/>
<text x="148.29" y="522" font-family="Arial" font-size="11pt" text-anchor="middle" alignment-baseline="middle" fill="#000000">Feb</text>
<line x1="109.93" y1="10" x2="109.93" y2="510" stroke="#000000" stroke-width="0.5"/>
<text x="229.11" y="522" font-family="Arial" font-size="11pt" text-anchor="middle" alignment-baseline="middle" fill="#000000">Mar</text>
<line x1="186.64" y1="10" x2="186.64" y2="510" stroke="#000000" stroke-width="0.5"/>
<text x="312.67" y="522" font-family="Arial" font-size="11pt" text-anchor="middle" alignment-baseline="middle" fill="#000000">Apr</text>
<line x1="271.58" y1="10" x2="271.58" y2="510" stroke="#000000" stroke-width="0.5"/>
<text x="396.23" y="522" font-family="Arial" font-size="11pt" text-anchor="middle" alignment-baseline="middle" fill="#000000">May</text>
<line x1="353.77" y1="10" x2="353.77" y2="510" stroke="#000000" stroke-width="0.5"/>
<text x="479.79" y="522" font-family="Arial" font-size="11pt" text-anchor="middle" alignment-baseline="middle" fill="#000000">Jun</text>
<line x1="438.7" y1="10" x2="438.7" y2="510" stroke="#000000" stroke-width="0.5"/>
<text x="563.36" y="522" font-family="Arial" font-size="11pt" text-anchor="middle" alignment-baseline="middle" fill="#000000">Jul</text>
<line x1="520.89" y1="10" x2="520.89" y2="510" stroke="#000000" stroke-width="0.5"/>
<text x="648.29" y="522" font-family="Arial" font-size="11pt" text-anchor="middle" alignment-baseline="middle" fill="#000000">Aug</text>
<line x1="605.82" y1="10" x2="605.82" y2="510" stroke="#000000" stroke-width="0.5"/>
<text x="731.85" y="522" font-family="Arial" font-size="11pt" text-anchor="middle" alignment-baseline="middle" fill="#000000">Sep</text>
<line x1="690.75" y1="10" x2="690.75" y2="510" stroke="#000000" stroke-width="0.5"/>
<text x="815.41" y="522" font-family="Arial" font-size="11pt" text-anchor="middle" alignment-baseline="middle" fill="#000000">Oct</text>
<line x1="772.95" y1="10" x2="772.95" y2="510" stroke="#000000" stroke-width="0.5"/>
<text x="898.97" y="522" font-family="Arial" font-size="11pt" text-anchor="middle" alignment-baseline="middle" fill="#000000">Nov</text>
<line x1="857.88" y1="10" x2="857.88" y2="510" stroke="#000000" stroke-width="0.5"/>
<text x="982.53" y="522" font-family="Arial" font-size="11pt" text-anchor="middle" alignment-baseline="middle" fill="#000000">Dec</text>
<line x1="940.07" y1="10" x2="940.07" y2="510" stroke="#000000" stroke-width="0.5"/>
<line x1="1025" y1="10" x2="1025" y2="510" stroke="#000000" stroke-width="0.5"/>
</svg>