<svg xmlns="http://www.w3.org/2000/svg" width="1035" height="535" viewBox="0 0 1035 535">
<rect x="0" y="0" width="1035" height="535" fill="#ffffff" stroke="none" stroke-width="0"/>
<g transform="translate(25, 510) scale(2.7397260, -0.0057870370)">
<rect x="0" y="0" width="365" height="86400" fill="#000000" stroke="none" stroke-width="0"/>
<path fill="#002040" stroke="none" stroke-width="0" d="M0,0L0,46429L1,46429L1,46457L2,46457L2,46487L3,46487L3,46520L4,46520L4,46554L5,46554L5,46591L6,46591L6,46630L7,46630L7,46672L8,46672L8,46715L9,46715L9,46761L10,46761L10,46809L11,46809L11,46859L12,46859L12,46911L13,46911L13,46965L14,46965L14,47022L15,47022L15,47080L16,47080L16,47140L17,47140L17,47203L18,47203L18,47267L19,47267L19,47333L20,47333L20,47401L21,47401L21,47471L22,47471L22,47543L23,47543L23,47616L24,47616L24,47692L25,47692L25,47769L26,47769L26,47848L27,47848L27,47928L28,47928L28,48011L29,48011L29,48095L30,48095L30,48180L31,48180L31,48267L32,48267L32,48356L33,48356L33,48446L34,48446L34,48538L35,48538L35,48631L36,48631L36,48726L37,48726L37,48823L38,48823L38,48920L39,48920L39,49019L40,49019L40,49120L41,49120L41,49222L42,49222L42,49325L43,49325L43,49429L44,49429L44,49535L45,49535L45,49642L46,49642L46,49751L47,49751L47,49860L48,49860L48,49971L49,49971L49,50083L50,50083L50,50196L51,50196L51,50311L52,50311L52,50426L53,50426L53,50543L54,50543L54,50660L55,50660L55,50779L56,50779L56,50899L57,50899L57,51020L58,51020L58,51142L59,51142L59,51265L60,51265L60,51389L61,51389L61,51514L62,51514L62,51640L63,51640L63,51767L64,51767L64,51894L65,51894L65,52023L66,52023L66,52153L67,52153L67,52284L68,52284L68,52415L69,52415L69,52548L70,52548L70,52681L71,52681L71,52816L72,52816L72,52951L73,52951L73,53087L74,53087L74,53223L75,53223L75,53361L76,53361L76,53499L77,53499L77,53638L78,53638L78,53778L79,53778L79,53919L80,53919L80,54060L81,54060L81,54202L82,54202L82,54345L83,54345L83,54489L84,54489L84,54633L85,54633L85,54778L86,54778L86,54923L87,54923L87,55069L88,55069L88,55215L89,55215L89,55362L90,55362L90,55510L91,55510L91,55658L92,55658L92,55807L93,55807L93,55956L94,55956L94,56106L95,56106L95,56256L96,56256L96,56407L97,56407L97,56557L98,56557L98,56709L99,56709L99,56860L100,56860L100,57012L101,57012L101,57165L102,57165L102,57317L103,57317L103,57470L104,57470L104,57623L105,57623L105,57775L106,57775L106,57928L107,57928L107,58082L108,58082L108,58235L109,58235L109,58388L110,58388L110,58540L111,58540L111,58693L112,58693L112,58846L113,58846L113,58998L114,58998L114,59150L115,59150L115,59302L116,59302L116,59453L117,59453L117,59603L118,59603L118,59754L119,59754L119,59903L120,59903L120,60052L121,60052L121,60200L122,60200L122,60348L123,60348L123,60494L124,60494L124,60640L125,60640L125,60784L126,60784L126,60928L127,60928L127,61070L128,61070L128,61211L129,61211L129,61351L130,61351L130,61489L131,61489L131,61626L132,61626L132,61761L133,61761L133,61894L134,61894L134,62026L135,62026L135,62156L136,62156L136,62283L137,62283L137,62409L138,62409L138,62532L139,62532L139,62653L140,62653L140,62772L141,62772L141,62888L142,62888L142,63002L143,63002L143,63113L144,63113L144,63221L145,63221L145,63326L146,63326L146,63428L147,63428L147,63527L148,63527L148,63622L149,63622L149,63715L150,63715L150,63804L151,63804L151,63889L152,63889L152,63971L153,63971L153,64049L154,64049L154,64123L155,64123L155,64194L156,64194L156,64260L157,64260L157,64323L158,64323L158,64381L159,64381L159,64435L160,64435L160,64485L161,64485L161,64531L162,64531L162,64572L163,64572L163,64609L164,64609L164,64641L165,64641L165,64669L166,64669L166,64692L167,64692L167,64710L168,64710L168,64724L169,64724L169,64734L170,64734L170,64738L172,64738L172,64734L173,64734L173,64725L174,64725L174,64711L175,64711L175,64692L176,64692L176,64669L177,64669L177,64642L178,64642L178,64610L179,64610L179,64573L180,64573L180,64532L181,64532L181,64487L182,64487L182,64438L183,64438L183,64384L184,64384L184,64326L185,64326L185,64264L186,64264L186,64198L187,64198L187,64128L188,64128L188,64054L189,64054L189,63977L190,63977L190,63896L191,63896L191,63811L192,63811L192,63722L193,63722L193,63631L194,63631L194,63536L195,63536L195,63438L196,63438L196,63337L197,63337L197,63233L198,63233L198,63126L199,63126L199,63016L200,63016L200,62903L201,62903L201,62788L202,62788L202,62671L203,62671L203,62551L204,62551L204,62429L205,62429L205,62305L206,62305L206,62179L207,62179L207,62051L208,62051L208,61921L209,61921L209,61789L210,61789L210,61656L211,61656L211,61521L212,61521L212,61384L213,61384L213,61246L214,61246L214,61107L215,61107L215,60967L216,60967L216,60825L217,60825L217,60682L218,60682L218,60538L219,60538L219,60394L220,60394L220,60248L221,60248L221,60102L222,60102L222,59955L223,59955L223,59807L224,59807L224,59659L225,59659L225,59510L226,59510L226,59361L227,59361L227,59211L228,59211L228,59061L229,59061L229,58911L230,58911L230,58760L231,58760L231,58610L232,58610L232,58459L233,58459L233,58308L234,58308L234,58157L235,58157L235,58006L236,58006L236,57855L237,57855L237,57705L238,57705L238,57554L239,57554L239,57403L240,57403L240,57253L241,57253L241,57103L242,57103L242,56953L243,56953L243,56804L244,56804L244,56654L245,56654L245,56505L246,56505L246,56357L247,56357L247,56209L248,56209L248,56061L249,56061L249,55913L250,55913L250,55766L251,55766L251,55620L252,55620L252,55474L253,55474L253,55329L254,55329L254,55184L255,55184L255,55039L256,55039L256,54896L257,54896L257,54753L258,54753L258,54610L259,54610L259,54468L260,54468L260,54327L261,54327L261,54186L262,54186L262,54047L263,54047L263,53908L264,53908L264,53769L265,53769L265,53632L266,53632L266,53495L267,53495L267,53359L268,53359L268,53223L269,53223L269,53089L270,53089L270,52955L271,52955L271,52822L272,52822L272,52690L273,52690L273,52558L274,52558L274,52428L275,52428L275,52298L276,52298L276,52169L277,52169L277,52041L278,52041L278,51914L279,51914L279,51788L280,51788L280,51663L281,51663L281,51538L282,51538L282,51415L283,51415L283,51292L284,51292L284,51171L285,51171L285,51050L286,51050L286,50931L287,50931L287,50812L288,50812L288,50695L289,50695L289,50578L290,50578L290,50463L291,50463L291,50349L292,50349L292,50236L293,50236L293,50124L294,50124L294,50013L295,50013L295,49903L296,49903L296,49795L297,49795L297,49687L298,49687L298,49581L299,49581L299,49476L300,49476L300,49372L301,49372L301,49270L302,49270L302,49169L303,49169L303,49069L304,49069L304,48970L305,48970L305,48873L306,48873L306,48777L307,48777L307,48682L308,48682L308,48589L309,48589L309,48498L310,48498L310,48407L311,48407L311,48319L312,48319L312,48232L313,48232L313,48146L314,48146L314,48062L315,48062L315,47979L316,47979L316,47898L317,47898L317,47819L318,47819L318,47741L319,47741L319,47666L320,47666L320,47591L321,47591L321,47519L322,47519L322,47448L323,47448L323,47380L324,47380L324,47313L325,47313L325,47248L326,47248L326,47184L327,47184L327,47123L328,47123L328,47064L329,47064L329,47007L330,47007L330,46951L331,46951L331,46898L332,46898L332,46847L333,46847L333,46797L334,46797L334,46750L335,46750L335,46705L336,46705L336,46662L337,46662L337,46622L338,46622L338,46583L339,46583L339,46547L340,46547L340,46513L341,46513L341,46481L342,46481L342,46452L343,46452L343,46424L344,46424L344,46399L345,46399L345,46377L346,46377L346,46357L347,46357L347,46339L348,46339L348,46323L349,46323L349,46310L350,46310L350,46299L351,46299L351,46291L352,46291L352,46284L353,46284L353,46281L354,46281L354,46280L355,46280L355,46281L356,46281L356,46284L357,46284L357,46290L358,46290L358,46298L359,46298L359,46309L360,46309L360,46322L361,46322L361,46338L362,46338L362,46356L363,46356L363,46376L364,46376L364,46398L365,46398L365,0Z"/>
<path fill="#004080" stroke="none" stroke-width="0" d="M0,0L0,42760L1,42760L1,42790L2,42790L2,42823L3,42823L3,42858L4,42858L4,42895L5,42895L5,42935L6,42935L6,42977L7,42977L7,43022L8,43022L8,43069L9,43069L9,43118L10,43118L10,43170L11,43170L11,43223L12,43223L12,43279L13,43279L13,43337L14,43337L14,43398L15,43398L15,43460L16,43460L16,43525L17,43525L17,43591L18,43591L18,43660L19,43660L19,43730L20,43730L20,43803L21,43803L21,43877L22,43877L22,43953L23,43953L23,44031L24,44031L24,44111L25,44111L25,44192L26,44192L26,44275L27,44275L27,44360L28,44360L28,44447L29,44447L29,44535L30,44535L30,44625L31,44625L31,44716L32,44716L32,44809L33,44809L33,44903L34,44903L34,44999L35,44999L35,45096L36,45096L36,45194L37,45194L37,45294L38,45294L38,45395L39,45395L39,45497L40,45497L40,45601L41,45601L41,45706L42,45706L42,45812L43,45812L43,45919L44,45919L44,46028L45,46028L45,46137L46,46137L46,46248L47,46248L47,46359L48,46359L48,46472L49,46472L49,46586L50,46586L50,46700L51,46700L51,46816L52,46816L52,46932L53,46932L53,47050L54,47050L54,47168L55,47168L55,47287L56,47287L56,47407L57,47407L57,47528L58,47528L58,47650L59,47650L59,47772L60,47772L60,47895L61,47895L61,48019L62,48019L62,48144L63,48144L63,48269L64,48269L64,48396L65,48396L65,48522L66,48522L66,48650L67,48650L67,48778L68,48778L68,48907L69,48907L69,49036L70,49036L70,49166L71,49166L71,49296L72,49296L72,49427L73,49427L73,49559L74,49559L74,49691L75,49691L75,49824L76,49824L76,49957L77,49957L77,50091L78,50091L78,50225L79,50225L79,50360L80,50360L80,50495L81,50495L81,50630L82,50630L82,50766L83,50766L83,50902L84,50902L84,51038L85,51038L85,51175L86,51175L86,51312L87,51312L87,51450L88,51450L88,51587L89,51587L89,51725L90,51725L90,51863L91,51863L91,52002L92,52002L92,52140L93,52140L93,52279L94,52279L94,52418L95,52418L95,52557L96,52557L96,52696L97,52696L97,52835L98,52835L98,52974L99,52974L99,53113L100,53113L100,53253L101,53253L101,53392L102,53392L102,53531L103,53531L103,53670L104,53670L104,53809L105,53809L105,53948L106,53948L106,54086L107,54086L107,54224L108,54224L108,54362L109,54362L109,54500L110,54500L110,54637L111,54637L111,54774L112,54774L112,54910L113,54910L113,55046L114,55046L114,55181L115,55181L115,55315L116,55315L116,55449L117,55449L117,55583L118,55583L118,55715L119,55715L119,55847L120,55847L120,55978L121,55978L121,56107L122,56107L122,56236L123,56236L123,56364L124,56364L124,56491L125,56491L125,56617L126,56617L126,56741L127,56741L127,56864L128,56864L128,56986L129,56986L129,57106L130,57106L130,57225L131,57225L131,57343L132,57343L132,57458L133,57458L133,57573L134,57573L134,57685L135,57685L135,57795L136,57795L136,57904L137,57904L137,58010L138,58010L138,58115L139,58115L139,58217L140,58217L140,58317L141,58317L141,58415L142,58415L142,58510L143,58510L143,58603L144,58603L144,58693L145,58693L145,58781L146,58781L146,58866L147,58866L147,58948L148,58948L148,59028L149,59028L149,59104L150,59104L150,59178L151,59178L151,59249L152,59249L152,59316L153,59316L153,59381L154,59381L154,59442L155,59442L155,59500L156,59500L156,59555L157,59555L157,59606L158,59606L158,59654L159,59654L159,59698L160,59698L160,59739L161,59739L161,59776L162,59776L162,59810L163,59810L163,59840L164,59840L164,59866L165,59866L165,59889L166,59889L166,59908L167,59908L167,59923L168,59923L168,59934L169,59934L169,59942L170,59942L170,59945L171,59945L171,59946L172,59946L172,59942L173,59942L173,59934L174,59934L174,59923L175,59923L175,59908L176,59908L176,59889L177,59889L177,59867L178,59867L178,59841L179,59841L179,59811L180,59811L180,59777L181,59777L181,59740L182,59740L182,59700L183,59700L183,59656L184,59656L184,59608L185,59608L185,59558L186,59558L186,59503L187,59503L187,59446L188,59446L188,59385L189,59385L189,59321L190,59321L190,59254L191,59254L191,59184L192,59184L192,59111L193,59111L193,59035L194,59035L194,58956L195,58956L195,58874L196,58874L196,58790L197,58790L197,58703L198,58703L198,58614L199,58614L199,58522L200,58522L200,58427L201,58427L201,58330L202,58330L202,58232L203,58232L203,58130L204,58130L204,58027L205,58027L205,57922L206,57922L206,57815L207,57815L207,57706L208,57706L208,57595L209,57595L209,57482L210,57482L210,57368L211,57368L211,57252L212,57252L212,57135L213,57135L213,57016L214,57016L214,56896L215,56896L215,56775L216,56775L216,56652L217,56652L217,56528L218,56528L218,56403L219,56403L219,56277L220,56277L220,56149L221,56149L221,56021L222,56021L222,55892L223,55892L223,55762L224,55762L224,55632L225,55632L225,55500L226,55500L226,55368L227,55368L227,55235L228,55235L228,55102L229,55102L229,54968L230,54968L230,54834L231,54834L231,54699L232,54699L232,54564L233,54564L233,54428L234,54428L234,54292L235,54292L235,54156L236,54156L236,54020L237,54020L237,53883L238,53883L238,53747L239,53747L239,53610L240,53610L240,53473L241,53473L241,53336L242,53336L242,53198L243,53198L243,53061L244,53061L244,52924L245,52924L245,52787L246,52787L246,52650L247,52650L247,52513L248,52513L248,52376L249,52376L249,52239L250,52239L250,52102L251,52102L251,51966L252,51966L252,51829L253,51829L253,51693L254,51693L254,51557L255,51557L255,51422L256,51422L256,51286L257,51286L257,51151L258,51151L258,51017L259,51017L259,50882L260,50882L260,50748L261,50748L261,50615L262,50615L262,50481L263,50481L263,50349L264,50349L264,50216L265,50216L265,50084L266,50084L266,49953L267,49953L267,49822L268,49822L268,49691L269,49691L269,49561L270,49561L270,49432L271,49432L271,49302L272,49302L272,49174L273,49174L273,49046L274,49046L274,48919L275,48919L275,48792L276,48792L276,48666L277,48666L277,48540L278,48540L278,48415L279,48415L279,48291L280,48291L280,48167L281,48167L281,48044L282,48044L282,47921L283,47921L283,47800L284,47800L284,47679L285,47679L285,47559L286,47559L286,47439L287,47439L287,47321L288,47321L288,47203L289,47203L289,47086L290,47086L290,46970L291,46970L291,46855L292,46855L292,46740L293,46740L293,46627L294,46627L294,46515L295,46515L295,46403L296,46403L296,46293L297,46293L297,46183L298,46183L298,46075L299,46075L299,45967L300,45967L300,45861L301,45861L301,45756L302,45756L302,45651L303,45651L303,45548L304,45548L304,45447L305,45447L305,45346L306,45346L306,45247L307,45247L307,45149L308,45149L308,45052L309,45052L309,44957L310,44957L310,44862L311,44862L311,44770L312,44770L312,44679L313,44679L313,44589L314,44589L314,44501L315,44501L315,44414L316,44414L316,44329L317,44329L317,44245L318,44245L318,44163L319,44163L319,44083L320,44083L320,44005L321,44005L321,43928L322,43928L322,43853L323,43853L323,43780L324,43780L324,43709L325,43709L325,43639L326,43639L326,43572L327,43572L327,43507L328,43507L328,43443L329,43443L329,43382L330,43382L330,43323L331,43323L331,43265L332,43265L332,43210L333,43210L333,43157L334,43157L334,43107L335,43107L335,43058L336,43058L336,43012L337,43012L337,42968L338,42968L338,42927L339,42927L339,42888L340,42888L340,42851L341,42851L341,42816L342,42816L342,42784L343,42784L343,42755L344,42755L344,42728L345,42728L345,42703L346,42703L346,42681L347,42681L347,42662L348,42662L348,42645L349,42645L349,42631L350,42631L350,42619L351,42619L351,42610L352,42610L352,42603L353,42603L353,42599L354,42599L354,42598L355,42598L355,42599L356,42599L356,42603L357,42603L357,42609L358,42609L358,42618L359,42618L359,42630L360,42630L360,42644L361,42644L361,42661L362,42661L362,42680L363,42680L363,42702L364,42702L364,42727L365,42727L365,0Z"/>
<path fill="#0060c0" stroke="none" stroke-width="0" d="M0,0L0,39000L1,39000L1,39033L2,39033L2,39068L3,39068L3,39107L4,39107L4,39148L5,39148L5,39191L6,39191L6,39237L7,39237L7,39286L8,39286L8,39337L9,39337L9,39391L10,39391L10,39447L11,39447L11,39506L12,39506L12,39567L13,39567L13,39630L14,39630L14,39695L15,39695L15,39763L16,39763L16,39833L17,39833L17,39905L18,39905L18,39979L19,39979L19,40055L20,40055L20,40133L21,40133L21,40213L22,40213L22,40295L23,40295L23,40379L24,40379L24,40464L25,40464L25,40552L26,40552L26,40641L27,40641L27,40731L28,40731L28,40824L29,40824L29,40918L30,40918L30,41013L31,41013L31,41110L32,41110L32,41209L33,41209L33,41308L34,41308L34,41409L35,41409L35,41512L36,41512L36,41616L37,41616L37,41721L38,41721L38,41827L39,41827L39,41935L40,41935L40,42043L41,42043L41,42153L42,42153L42,42264L43,42264L43,42375L44,42375L44,42488L45,42488L45,42602L46,42602L46,42716L47,42716L47,42832L48,42832L48,42948L49,42948L49,43066L50,43066L50,43184L51,43184L51,43302L52,43302L52,43422L53,43422L53,43542L54,43542L54,43663L55,43663L55,43784L56,43784L56,43907L57,43907L57,44029L58,44029L58,44153L59,44153L59,44277L60,44277L60,44401L61,44401L61,44526L62,44526L62,44652L63,44652L63,44778L64,44778L64,44904L65,44904L65,45031L66,45031L66,45158L67,45158L67,45286L68,45286L68,45414L69,45414L69,45542L70,45542L70,45671L71,45671L71,45800L72,45800L72,45930L73,45930L73,46060L74,46060L74,46190L75,46190L75,46320L76,46320L76,46450L77,46450L77,46581L78,46581L78,46712L79,46712L79,46843L80,46843L80,46974L81,46974L81,47106L82,47106L82,47237L83,47237L83,47369L84,47369L84,47501L85,47501L85,47632L86,47632L86,47764L87,47764L87,47896L88,47896L88,48028L89,48028L89,48159L90,48159L90,48291L91,48291L91,48423L92,48423L92,48555L93,48555L93,48686L94,48686L94,48818L95,48818L95,48949L96,48949L96,49080L97,49080L97,49211L98,49211L98,49342L99,49342L99,49472L100,49472L100,49603L101,49603L101,49733L102,49733L102,49863L103,49863L103,49992L104,49992L104,50121L105,50121L105,50250L106,50250L106,50378L107,50378L107,50505L108,50505L108,50632L109,50632L109,50759L110,50759L110,50885L111,50885L111,51011L112,51011L112,51135L113,51135L113,51259L114,51259L114,51383L115,51383L115,51505L116,51505L116,51627L117,51627L117,51748L118,51748L118,51868L119,51868L119,51987L120,51987L120,52105L121,52105L121,52222L122,52222L122,52338L123,52338L123,52452L124,52452L124,52566L125,52566L125,52679L126,52679L126,52790L127,52790L127,52900L128,52900L128,53008L129,53008L129,53115L130,53115L130,53221L131,53221L131,53325L132,53325L132,53427L133,53427L133,53528L134,53528L134,53627L135,53627L135,53724L136,53724L136,53819L137,53819L137,53913L138,53913L138,54004L139,54004L139,54094L140,54094L140,54181L141,54181L141,54267L142,54267L142,54350L143,54350L143,54431L144,54431L144,54509L145,54509L145,54585L146,54585L146,54659L147,54659L147,54730L148,54730L148,54799L149,54799L149,54866L150,54866L150,54929L151,54929L151,54990L152,54990L152,55048L153,55048L153,55104L154,55104L154,55157L155,55157L155,55206L156,55206L156,55253L157,55253L157,55297L158,55297L158,55338L159,55338L159,55376L160,55376L160,55411L161,55411L161,55443L162,55443L162,55472L163,55472L163,55498L164,55498L164,55520L165,55520L165,55539L166,55539L166,55556L167,55556L167,55568L168,55568L168,55578L169,55578L169,55585L170,55585L170,55588L172,55588L172,55585L173,55585L173,55578L174,55578L174,55569L175,55569L175,55556L176,55556L176,55540L177,55540L177,55521L178,55521L178,55498L179,55498L179,55473L180,55473L180,55444L181,55444L181,55413L182,55413L182,55378L183,55378L183,55340L184,55340L184,55299L185,55299L185,55256L186,55256L186,55209L187,55209L187,55160L188,55160L188,55107L189,55107L189,55052L190,55052L190,54995L191,54995L191,54934L192,54934L192,54871L193,54871L193,54805L194,54805L194,54737L195,54737L195,54666L196,54666L196,54593L197,54593L197,54518L198,54518L198,54440L199,54440L199,54360L200,54360L200,54278L201,54278L201,54193L202,54193L202,54107L203,54107L203,54018L204,54018L204,53928L205,53928L205,53835L206,53835L206,53741L207,53741L207,53645L208,53645L208,53547L209,53547L209,53448L210,53448L210,53347L211,53347L211,53244L212,53244L212,53140L213,53140L213,53035L214,53035L214,52928L215,52928L215,52820L216,52820L216,52710L217,52710L217,52599L218,52599L218,52487L219,52487L219,52374L220,52374L220,52259L221,52259L221,52144L222,52144L222,52028L223,52028L223,51910L224,51910L224,51792L225,51792L225,51673L226,51673L226,51553L227,51553L227,51432L228,51432L228,51311L229,51311L229,51188L230,51188L230,51065L231,51065L231,50942L232,50942L232,50818L233,50818L233,50693L234,50693L234,50568L235,50568L235,50443L236,50443L236,50316L237,50316L237,50190L238,50190L238,50063L239,50063L239,49936L240,49936L240,49808L241,49808L241,49680L242,49680L242,49552L243,49552L243,49424L244,49424L244,49295L245,49295L245,49166L246,49166L246,49037L247,49037L247,48907L248,48907L248,48778L249,48778L249,48648L250,48648L250,48519L251,48519L251,48389L252,48389L252,48259L253,48259L253,48129L254,48129L254,47999L255,47999L255,47869L256,47869L256,47739L257,47739L257,47610L258,47610L258,47480L259,47480L259,47350L260,47350L260,47221L261,47221L261,47091L262,47091L262,46962L263,46962L263,46833L264,46833L264,46704L265,46704L265,46575L266,46575L266,46446L267,46446L267,46318L268,46318L268,46190L269,46190L269,46062L270,46062L270,45934L271,45934L271,45807L272,45807L272,45679L273,45679L273,45553L274,45553L274,45426L275,45426L275,45300L276,45300L276,45174L277,45174L277,45049L278,45049L278,44923L279,44923L279,44799L280,44799L280,44675L281,44675L281,44551L282,44551L282,44427L283,44427L283,44305L284,44305L284,44182L285,44182L285,44060L286,44060L286,43939L287,43939L287,43819L288,43819L288,43698L289,43698L289,43579L290,43579L290,43460L291,43460L291,43342L292,43342L292,43225L293,43225L293,43108L294,43108L294,42992L295,42992L295,42877L296,42877L296,42763L297,42763L297,42650L298,42650L298,42537L299,42537L299,42425L300,42425L300,42315L301,42315L301,42205L302,42205L302,42096L303,42096L303,41988L304,41988L304,41882L305,41882L305,41776L306,41776L306,41672L307,41672L307,41568L308,41568L308,41466L309,41466L309,41365L310,41365L310,41266L311,41266L311,41168L312,41168L312,41071L313,41071L313,40975L314,40975L314,40881L315,40881L315,40789L316,40789L316,40698L317,40698L317,40609L318,40609L318,40521L319,40521L319,40435L320,40435L320,40351L321,40351L321,40268L322,40268L322,40188L323,40188L323,40109L324,40109L324,40032L325,40032L325,39957L326,39957L326,39884L327,39884L327,39813L328,39813L328,39745L329,39745L329,39678L330,39678L330,39614L331,39614L331,39551L332,39551L332,39492L333,39492L333,39434L334,39434L334,39379L335,39379L335,39326L336,39326L336,39275L337,39275L337,39228L338,39228L338,39182L339,39182L339,39139L340,39139L340,39099L341,39099L341,39061L342,39061L342,39026L343,39026L343,38994L344,38994L344,38964L345,38964L345,38937L346,38937L346,38913L347,38913L347,38892L348,38892L348,38873L349,38873L349,38857L350,38857L350,38845L351,38845L351,38834L352,38834L352,38827L353,38827L353,38823L354,38823L354,38821L355,38821L355,38823L356,38823L356,38827L357,38827L357,38834L358,38834L358,38844L359,38844L359,38857L360,38857L360,38872L361,38872L361,38891L362,38891L362,38912L363,38912L363,38936L364,38936L364,38963L365,38963L365,0Z"/>
<path fill="#80c0ff" stroke="none" stroke-width="0" d="M0,0L0,35663L1,35663L1,35699L2,35699L2,35738L3,35738L3,35780L4,35780L4,35825L5,35825L5,35873L6,35873L6,35923L7,35923L7,35976L8,35976L8,36032L9,36032L9,36091L10,36091L10,36152L11,36152L11,36216L12,36216L12,36282L13,36282L13,36351L14,36351L14,36422L15,36422L15,36495L16,36495L16,36571L17,36571L17,36649L18,36649L18,36729L19,36729L19,36811L20,36811L20,36896L21,36896L21,36982L22,36982L22,37071L23,37071L23,37161L24,37161L24,37253L25,37253L25,37347L26,37347L26,37442L27,37442L27,37540L28,37540L28,37638L29,37638L29,37739L30,37739L30,37841L31,37841L31,37944L32,37944L32,38049L33,38049L33,38155L34,38155L34,38263L35,38263L35,38371L36,38371L36,38481L37,38481L37,38592L38,38592L38,38705L39,38705L39,38818L40,38818L40,38933L41,38933L41,39048L42,39048L42,39164L43,39164L43,39282L44,39282L44,39400L45,39400L45,39519L46,39519L46,39638L47,39638L47,39759L48,39759L48,39880L49,39880L49,40002L50,40002L50,40124L51,40124L51,40247L52,40247L52,40371L53,40371L53,40495L54,40495L54,40620L55,40620L55,40745L56,40745L56,40871L57,40871L57,40997L58,40997L58,41123L59,41123L59,41250L60,41250L60,41377L61,41377L61,41505L62,41505L62,41633L63,41633L63,41761L64,41761L64,41889L65,41889L65,42018L66,42018L66,42147L67,42147L67,42276L68,42276L68,42405L69,42405L69,42534L70,42534L70,42664L71,42664L71,42794L72,42794L72,42923L73,42923L73,43053L74,43053L74,43183L75,43183L75,43313L76,43313L76,43443L77,43443L77,43573L78,43573L78,43703L79,43703L79,43833L80,43833L80,43963L81,43963L81,44093L82,44093L82,44222L83,44222L83,44352L84,44352L84,44481L85,44481L85,44611L86,44611L86,44740L87,44740L87,44869L88,44869L88,44997L89,44997L89,45126L90,45126L90,45254L91,45254L91,45382L92,45382L92,45510L93,45510L93,45637L94,45637L94,45764L95,45764L95,45891L96,45891L96,46018L97,46018L97,46144L98,46144L98,46270L99,46270L99,46395L100,46395L100,46520L101,46520L101,46644L102,46644L102,46768L103,46768L103,46892L104,46892L104,47014L105,47014L105,47137L106,47137L106,47258L107,47258L107,47379L108,47379L108,47500L109,47500L109,47619L110,47619L110,47738L111,47738L111,47857L112,47857L112,47974L113,47974L113,48091L114,48091L114,48206L115,48206L115,48321L116,48321L116,48435L117,48435L117,48548L118,48548L118,48660L119,48660L119,48771L120,48771L120,48881L121,48881L121,48989L122,48989L122,49097L123,49097L123,49203L124,49203L124,49309L125,49309L125,49412L126,49412L126,49515L127,49515L127,49616L128,49616L128,49716L129,49716L129,49815L130,49815L130,49912L131,49912L131,50007L132,50007L132,50101L133,50101L133,50193L134,50193L134,50284L135,50284L135,50372L136,50372L136,50459L137,50459L137,50545L138,50545L138,50628L139,50628L139,50709L140,50709L140,50789L141,50789L141,50866L142,50866L142,50942L143,50942L143,51015L144,51015L144,51086L145,51086L145,51155L146,51155L146,51221L147,51221L147,51286L148,51286L148,51348L149,51348L149,51408L150,51408L150,51465L151,51465L151,51520L152,51520L152,51572L153,51572L153,51622L154,51622L154,51669L155,51669L155,51714L156,51714L156,51756L157,51756L157,51796L158,51796L158,51832L159,51832L159,51866L160,51866L160,51898L161,51898L161,51926L162,51926L162,51952L163,51952L163,51975L164,51975L164,51995L165,51995L165,52012L166,52012L166,52027L167,52027L167,52038L168,52038L168,52047L169,52047L169,52053L170,52053L170,52056L172,52056L172,52053L173,52053L173,52047L174,52047L174,52038L175,52038L175,52027L176,52027L176,52013L177,52013L177,51995L178,51995L178,51975L179,51975L179,51953L180,51953L180,51927L181,51927L181,51899L182,51899L182,51868L183,51868L183,51834L184,51834L184,51797L185,51797L185,51758L186,51758L186,51717L187,51717L187,51672L188,51672L188,51625L189,51625L189,51576L190,51576L190,51524L191,51524L191,51469L192,51469L192,51412L193,51412L193,51353L194,51353L194,51292L195,51292L195,51228L196,51228L196,51162L197,51162L197,51094L198,51094L198,51023L199,51023L199,50951L200,50951L200,50876L201,50876L201,50799L202,50799L202,50721L203,50721L203,50640L204,50640L204,50558L205,50558L205,50474L206,50474L206,50388L207,50388L207,50300L208,50300L208,50211L209,50211L209,50120L210,50120L210,50028L211,50028L211,49934L212,49934L212,49838L213,49838L213,49741L214,49741L214,49642L215,49642L215,49543L216,49543L216,49441L217,49441L217,49339L218,49339L218,49235L219,49235L219,49130L220,49130L220,49024L221,49024L221,48917L222,48917L222,48809L223,48809L223,48700L224,48700L224,48589L225,48589L225,48478L226,48478L226,48366L227,48366L227,48253L228,48253L228,48139L229,48139L229,48024L230,48024L230,47908L231,47908L231,47792L232,47792L232,47675L233,47675L233,47557L234,47557L234,47439L235,47439L235,47320L236,47320L236,47200L237,47200L237,47080L238,47080L238,46959L239,46959L239,46838L240,46838L240,46716L241,46716L241,46594L242,46594L242,46471L243,46471L243,46348L244,46348L244,46224L245,46224L245,46100L246,46100L246,45976L247,45976L247,45851L248,45851L248,45726L249,45726L249,45601L250,45601L250,45475L251,45475L251,45349L252,45349L252,45223L253,45223L253,45096L254,45096L254,44970L255,44970L255,44843L256,44843L256,44716L257,44716L257,44588L258,44588L258,44461L259,44461L259,44334L260,44334L260,44206L261,44206L261,44078L262,44078L262,43950L263,43950L263,43823L264,43823L264,43695L265,43695L265,43567L266,43567L266,43439L267,43439L267,43311L268,43311L268,43183L269,43183L269,43055L270,43055L270,42928L271,42928L271,42800L272,42800L272,42672L273,42672L273,42545L274,42545L274,42417L275,42417L275,42290L276,42290L276,42163L277,42163L277,42036L278,42036L278,41909L279,41909L279,41783L280,41783L280,41656L281,41656L281,41530L282,41530L282,41404L283,41404L283,41279L284,41279L284,41154L285,41154L285,41029L286,41029L286,40905L287,40905L287,40781L288,40781L288,40657L289,40657L289,40534L290,40534L290,40411L291,40411L291,40289L292,40289L292,40167L293,40167L293,40046L294,40046L294,39926L295,39926L295,39806L296,39806L296,39687L297,39687L297,39569L298,39569L298,39451L299,39451L299,39334L300,39334L300,39218L301,39218L301,39103L302,39103L302,38988L303,38988L303,38875L304,38875L304,38762L305,38762L305,38651L306,38651L306,38541L307,38541L307,38431L308,38431L308,38323L309,38323L309,38216L310,38216L310,38110L311,38110L311,38005L312,38005L312,37902L313,37902L313,37800L314,37800L314,37700L315,37700L315,37601L316,37601L316,37504L317,37504L317,37408L318,37408L318,37314L319,37314L319,37221L320,37221L320,37131L321,37131L321,37042L322,37042L322,36955L323,36955L323,36870L324,36870L324,36787L325,36787L325,36706L326,36706L326,36627L327,36627L327,36550L328,36550L328,36476L329,36476L329,36403L330,36403L330,36333L331,36333L331,36266L332,36266L332,36200L333,36200L333,36138L334,36138L334,36077L335,36077L335,36020L336,36020L336,35965L337,35965L337,35912L338,35912L338,35863L339,35863L339,35816L340,35816L340,35772L341,35772L341,35730L342,35730L342,35692L343,35692L343,35656L344,35656L344,35624L345,35624L345,35594L346,35594L346,35568L347,35568L347,35544L348,35544L348,35524L349,35524L349,35507L350,35507L350,35493L351,35493L351,35481L352,35481L352,35473L353,35473L353,35469L354,35469L354,35467L355,35467L355,35468L356,35468L356,35473L357,35473L357,35481L358,35481L358,35492L359,35492L359,35506L360,35506L360,35523L361,35523L361,35543L362,35543L362,35566L363,35566L363,35593L364,35593L364,35622L365,35622L365,0Z"/>
<line x1="78.5" y1="86400" x2="78.5" y2="0" stroke="#00c000" stroke-width="1" vector-effect="non-scaling-stroke"/>
<line x1="171.5" y1="86400" x2="171.5" y2="0" stroke="#00c000" stroke-width="1" vector-effect="non-scaling-stroke"/>
<line x1="264.5" y1="86400" x2="264.5" y2="0" stroke="#00c000" stroke-width="1" vector-effect="non-scaling-stroke"/>
<line x1="354.5" y1="86400" x2="354.5" y2="0" stroke="#00c000" stroke-width="1" vector-effect="non-scaling-stroke"/>
</g>
<text x="20" y="510" font-family="Arial" font-size="11pt" text-anchor="end" alignment-baseline="middle" fill="#000000">0</text>
<line x1="25" y1="510" x2="1025" y2="510" stroke="#808080" stroke-width="0.5"/>
<text x="20" y="468.33" font-family="Arial" font-size="11pt" text-anchor="end" alignment-baseline="middle" fill="#000000">2</text>
<line x1="25" y1="468.33" x2="1025" y2="468.33" stroke="#808080" stroke-width="0.5"/>
<text x="20" y="426.67" font-family="Arial" font-size="11pt" text-anchor="end" alignment-baseline="middle" fill="#000000">4</text>
<line x1="25" y1="426.67" x2="1025" y2="426.67" stroke="#808080" stroke-width="0.5"/>
<text x="20" y="385" font-family="Arial" font-size="11pt" text-anchor="end" alignment-baseline="middle" fill="#000000">6</text>
<line x1="25" y1="385" x2="1025" y2="385" stroke="#808080" stroke-width="0.5"/>
<text x="20" y="343.33" font-family="Arial" font-size="11pt" text-anchor="end" alignment-baseline="middle" fill="#000000">8</text>
<line x1="25" y1="343.33" x2="1025" y2="343.33" stroke="#808080" stroke-width="0.5"/>
<text x="20" y="301.67" font-family="Arial" font-size="11pt" text-anchor="end" alignment-baseline="middle" fill="#000000">10</text>
<line x1="25" y1="301.67" x2="1025" y2="301.67" stroke="#808080" stroke-width="0.5"/>
<text x="20" y="260" font-family="Arial" font-size="11pt" text-anchor="end" alignment-baseline="middle" fill="#000000">12</text>
<line x1="25" y1="260" x2="1025" y2="260" stroke="#808080" stroke-width="0.5"/>
<text x="20" y="218.33" font-family="Arial" font-size="11pt" text-anchor="end" alignment-baseline="middle" fill="#000000">14</text>
<line x1="25" y1="218.33" x2="1025" y2="218.33" stroke="#808080" stroke-width="0.5"/>
<text x="20" y="176.67" font-family="Arial" font-size="11pt" text-anchor="end" alignment-baseline="middle" fill="#000000">16</text>
<line x1="25" y1="176.67" x2="1025" y2="176.67" stroke="#808080" stroke-width="0.5"/>
<text x="20" y="135" font-family="Arial" font-size="11pt" text-anchor="end" alignment-baseline="middle" fill="#000000">18</text>
<line x1="25" y1="135" x2="1025" y2="135" stroke="#808080" stroke-width="0.5"/>
<text x="20" y="93.33" font-family="Arial" font-size="11pt" text-anchor="end" alignment-baseline="middle" fill="#000000">20</text>
<line x1="25" y1="93.33" x2="1025" y2="93.33" stroke="#808080" stroke-width="0.5"/>
<text x="20" y="51.67" font-family="Arial" font-size="11pt" text-anchor="end" alignment-baseline="middle" fill="#000000">22</text>
<line x1="25" y1="51.67" x2="1025" y2="51.67" stroke="#808080" stroke-width="0.5"/>
<text x="20" y="10" font-family="Arial" font-size="11pt" text-anchor="end" alignment-baseline="middle" fill="#000000">24</text>
<line x1="25" y1="10" x2="1025" y2="10" stroke="#808080" stroke-width="0.5"/>
<text x="67.47" y="522" font-family="Arial" font-size="11pt" text-anchor="middle" alignment-baseline="middle" fill="#000000">Jan</text>
<line x1="25" y1="10" x2="25" y2="510" stroke="#808080" stroke-width="0.5"/>
<text x="148.29" y="522" font-family="Arial" font-size="11pt" text-anchor="middle" alignment-baseline="middle" fill="#000000">Feb</text>
<line x1="109.93" y1="10" x2="109.93" y2="510" stroke="#808080" stroke-width="0.5"/>
<text x="229.11" y="522" font-family="Arial" font-size="11pt" text-anchor="middle" alignment-baseline="middle" fill="#000000">Mar</text>
<line x1="186.64" y1="10" x2="186.64" y2="510" stroke="#808080" stroke-width="0.5"/>
<text x="312.67" y="522" font-family="Arial" font-size="11pt" text-anchor="middle" alignment-baseline="middle" fill="#000000">Apr</text>
<line x1="271.58" y1="10" x2="271.58" y2="510" stroke="#808080" stroke-width="0.5"/>
<text x="396.23" y="522" font-family="Arial" font-size="11pt" text-anchor="middle" alignment-baseline="middle" fill="#000000">May</text>
<line x1="353.77" y1="10" x2="353.77" y2="510" stroke="#808080" stroke-width="0.5"/>
<text x="479.79" y="522" font-family="Arial" font-size="11pt" text-anchor="middle" alignment-baseline="middle" fill="#000000">Jun</text>
<line x1="438.7" y1="10" x2="438.7" y2="510" stroke="#808080" stroke-width="0.5"/>
<text x="563.36" y="522" font-family="Arial" font-size="11pt" text-anchor="middle" alignment-baseline="middle" fill="#000000">Jul</text>
<line x1="520.89" y1="10" x2="520.89" y2="510" stroke="#808080" stroke-width="0.5"/>
<text x="648.29" y="522" font-family="Arial" font-size="11pt" text-anchor="middle" alignment-baseline="middle" fill="#000000">Aug</text>
<line x1="605.82" y1="10" x2="605.82" y2="510" stroke="#808080" stroke-width="0.5"/>
<text x="731.85" y="522" font-family="Arial" font-size="11pt" text-anchor="middle" alignment-baseline="middle" fill="#000000">Sep</text>
<line x1="690.75" y1="10" x2="690.75" y2="510" stroke="#808080" stroke-width="0.5"/>
<text x="815.41" y="522" font-family="Arial" font-size="11pt" text-anchor="middle" alignment-baseline="middle" fill="#000000">Oct</text>
<line x1="772.95" y1="10" x2="772.95" y2="510" stroke="#808080" stroke-width="0.5"/>
<text x="898.97" y="522" font-family="Arial" font-size="11pt" text-anchor="middle" alignment-baseline="middle" fill="#000000">Nov</text>
<line x1="857.88" y1="10" x2="857.88" y2="510" stroke="#808080" stroke-width="0.5"/>
<text x="982.53" y="522" font-family="Arial" font-size="11pt" text-anchor="middle" alignment-baseline="middle" fill="#000000">Dec</text>
<line x1="940.07" y1="10" x2="940.07" y2="510" stroke="#808080" stroke-width="0.5"/>
<line x1="1025" y1="10" x2="1025" y2="510" stroke="#808080" stroke-width="0.5"/>
</svg>