<svg xmlns="http://www.w3.org/2000/svg" width="1035" height="535" viewBox="0 0 1035 535">
<rect x="0" y="0" width="1035" height="535" fill="#ffffff" stroke="none" stroke-width="0"/>
<rect x="25" y="10" width="1000" height="500" fill="#000000" stroke="none" stroke-width="0"/>
<polygon points="25,393.22 25,124.49 27.74,124.49 27.74,124.25 30.48,124.25 30.48,124 33.22,124 33.22,123.74 35.96,123.74 35.96,123.48 38.7,123.48 38.7,123.22 41.44,123.22 41.44,122.96 44.18,122.96 44.18,122.69 46.92,122.69 46.92,122.42 49.66,122.42 49.66,122.14 52.4,122.14 52.4,121.86 55.14,121.86 55.14,121.58 57.88,121.58 57.88,121.3 60.62,121.3 60.62,121.02 63.36,121.02 63.36,120.73 66.1,120.73 66.1,120.44 68.84,120.44 68.84,120.15 71.58,120.15 71.58,119.86 74.32,119.86 74.32,119.57 77.05,119.57 77.05,119.27 79.79,119.27 79.79,118.98 82.53,118.98 82.53,118.68 85.27,118.68 85.27,118.38 88.01,118.38 88.01,118.08 90.75,118.08 90.75,117.78 93.49,117.78 93.49,117.48 96.23,117.48 96.23,117.18 98.97,117.18 98.97,116.88 101.71,116.88 101.71,116.58 104.45,116.58 104.45,116.28 107.19,116.28 107.19,115.98 109.93,115.98 109.93,115.68 112.67,115.68 112.67,115.38 115.41,115.38 115.41,115.08 118.15,115.08 118.15,114.78 120.89,114.78 120.89,114.48 123.63,114.48 123.63,114.18 126.37,114.18 126.37,113.89 129.11,113.89 129.11,113.59 131.85,113.59 131.85,113.29 134.59,113.29 134.59,113 137.33,113 137.33,112.7 140.07,112.7 140.07,112.41 142.81,112.41 142.81,112.11 145.55,112.11 145.55,111.82 148.29,111.82 148.29,111.53 151.03,111.53 151.03,111.23 153.77,111.23 153.77,110.94 156.51,110.94 156.51,110.65 159.25,110.65 159.25,110.36 161.99,110.36 161.99,110.06 164.73,110.06 164.73,109.77 167.47,109.77 167.47,109.48 170.21,109.48 170.21,109.19 172.95,109.19 172.95,108.9 175.68,108.9 175.68,108.61 178.42,108.61 178.42,108.32 181.16,108.32 181.16,108.03 183.9,108.03 183.9,107.74 186.64,107.74 186.64,107.45 189.38,107.45 189.38,107.16 192.12,107.16 192.12,106.87 194.86,106.87 194.86,106.58 197.6,106.58 197.6,106.29 200.34,106.29 200.34,106 203.08,106 203.08,105.71 205.82,105.71 205.82,105.41 208.56,105.41 208.56,84.29 211.3,84.29 211.3,84 214.04,84 214.04,83.7 216.78,83.7 216.78,83.41 219.52,83.41 219.52,83.12 222.26,83.12 222.26,82.82 225,82.82 225,82.52 227.74,82.52 227.74,82.23 230.48,82.23 230.48,81.93 233.22,81.93 233.22,81.63 235.96,81.63 235.96,81.33 238.7,81.33 238.7,81.02 241.44,81.02 241.44,80.72 244.18,80.72 244.18,80.41 246.92,80.41 246.92,80.1 249.66,80.1 249.66,79.79 252.4,79.79 252.4,79.48 255.14,79.48 255.14,79.17 257.88,79.17 257.88,78.85 260.62,78.85 260.62,78.53 263.36,78.53 263.36,78.21 266.1,78.21 266.1,77.89 268.84,77.89 268.84,77.57 271.58,77.57 271.58,77.24 274.32,77.24 274.32,76.91 277.05,76.91 277.05,76.58 279.79,76.58 279.79,76.25 282.53,76.25 282.53,75.91 285.27,75.91 285.27,75.58 288.01,75.58 288.01,75.24 290.75,75.24 290.75,74.89 293.49,74.89 293.49,74.55 296.23,74.55 296.23,74.2 298.97,74.2 298.97,73.85 301.71,73.85 301.71,73.5 304.45,73.5 304.45,73.15 307.19,73.15 307.19,72.79 309.93,72.79 309.93,72.43 312.67,72.43 312.67,72.07 315.41,72.07 315.41,71.71 318.15,71.71 318.15,71.34 320.89,71.34 320.89,70.98 323.63,70.98 323.63,70.6 326.37,70.6 326.37,70.23 329.11,70.23 329.11,69.86 331.85,69.86 331.85,69.48 334.59,69.48 334.59,69.1 337.33,69.1 337.33,68.72 340.07,68.72 340.07,68.33 342.81,68.33 342.81,67.95 345.55,67.95 345.55,67.56 348.29,67.56 348.29,67.17 351.03,67.17 351.03,66.79 353.77,66.79 353.77,66.4 356.51,66.4 356.51,66 359.25,66 359.25,65.61 361.99,65.61 361.99,65.22 364.73,65.22 364.73,64.83 367.47,64.83 367.47,64.44 370.21,64.44 370.21,64.05 372.95,64.05 372.95,63.66 375.68,63.66 375.68,63.26 378.42,63.26 378.42,62.87 381.16,62.87 381.16,62.49 383.9,62.49 383.9,62.1 386.64,62.1 386.64,61.71 389.38,61.71 389.38,61.33 392.12,61.33 392.12,60.95 394.86,60.95 394.86,60.57 397.6,60.57 397.6,60.19 400.34,60.19 400.34,59.81 403.08,59.81 403.08,59.44 405.82,59.44 405.82,59.08 408.56,59.08 408.56,58.71 411.3,58.71 411.3,58.35 414.04,58.35 414.04,58 416.78,58 416.78,57.65 419.52,57.65 419.52,57.3 422.26,57.3 422.26,56.97 425,56.97 425,56.63 427.74,56.63 427.74,56.31 430.48,56.31 430.48,55.99 433.22,55.99 433.22,55.68 435.96,55.68 435.96,55.37 438.7,55.37 438.7,55.08 441.44,55.08 441.44,54.79 444.18,54.79 444.18,54.51 446.92,54.51 446.92,54.25 449.66,54.25 449.66,53.99 452.4,53.99 452.4,53.74 455.14,53.74 455.14,53.5 457.88,53.5 457.88,53.27 460.62,53.27 460.62,53.05 463.36,53.05 463.36,52.85 466.1,52.85 466.1,52.65 468.84,52.65 468.84,52.47 471.58,52.47 471.58,52.3 474.32,52.3 474.32,52.14 477.05,52.14 477.05,51.99 479.79,51.99 479.79,51.86 482.53,51.86 482.53,51.74 485.27,51.74 485.27,51.63 488.01,51.63 488.01,51.54 490.75,51.54 490.75,51.46 493.49,51.46 493.49,51.39 496.23,51.39 496.23,51.33 498.97,51.33 498.97,51.29 501.71,51.29 501.71,51.27 504.45,51.27 504.45,51.25 507.19,51.25 507.19,51.25 509.93,51.25 509.93,51.27 512.67,51.27 512.67,51.3 515.41,51.3 515.41,51.34 518.15,51.34 518.15,51.4 520.89,51.4 520.89,51.47 523.63,51.47 523.63,51.56 526.37,51.56 526.37,51.66 529.11,51.66 529.11,51.77 531.85,51.77 531.85,51.9 534.59,51.9 534.59,52.04 537.33,52.04 537.33,52.19 540.07,52.19 540.07,52.36 542.81,52.36 542.81,52.54 545.55,52.54 545.55,52.73 548.29,52.73 548.29,52.94 551.03,52.94 551.03,53.16 553.77,53.16 553.77,53.39 556.51,53.39 556.51,53.63 559.25,53.63 559.25,53.89 561.99,53.89 561.99,54.15 564.73,54.15 564.73,54.43 567.47,54.43 567.47,54.72 570.21,54.72 570.21,55.02 572.95,55.02 572.95,55.33 575.68,55.33 575.68,55.65 578.42,55.65 578.42,55.98 581.16,55.98 581.16,56.32 583.9,56.32 583.9,56.67 586.64,56.67 586.64,57.03 589.38,57.03 589.38,57.4 592.12,57.4 592.12,57.78 594.86,57.78 594.86,58.17 597.6,58.17 597.6,58.56 600.34,58.56 600.34,58.97 603.08,58.97 603.08,59.38 605.82,59.38 605.82,59.8 608.56,59.8 608.56,60.22 611.3,60.22 611.3,60.66 614.04,60.66 614.04,61.1 616.78,61.1 616.78,61.55 619.52,61.55 619.52,62 622.26,62 622.26,62.46 625,62.46 625,62.93 627.74,62.93 627.74,63.4 630.48,63.4 630.48,63.88 633.22,63.88 633.22,64.36 635.96,64.36 635.96,64.85 638.7,64.85 638.7,65.34 641.44,65.34 641.44,65.84 644.18,65.84 644.18,66.34 646.92,66.34 646.92,66.85 649.66,66.85 649.66,67.36 652.4,67.36 652.4,67.87 655.14,67.87 655.14,68.39 657.88,68.39 657.88,68.91 660.62,68.91 660.62,69.43 663.36,69.43 663.36,69.95 666.1,69.95 666.1,70.48 668.84,70.48 668.84,71.01 671.58,71.01 671.58,71.54 674.32,71.54 674.32,72.08 677.05,72.08 677.05,72.61 679.79,72.61 679.79,73.15 682.53,73.15 682.53,73.69 685.27,73.69 685.27,74.23 688.01,74.23 688.01,74.77 690.75,74.77 690.75,75.32 693.49,75.32 693.49,75.86 696.23,75.86 696.23,76.4 698.97,76.4 698.97,76.95 701.71,76.95 701.71,77.49 704.45,77.49 704.45,78.04 707.19,78.04 707.19,78.58 709.93,78.58 709.93,79.13 712.67,79.13 712.67,79.67 715.41,79.67 715.41,80.21 718.15,80.21 718.15,80.76 720.89,80.76 720.89,81.3 723.63,81.3 723.63,81.84 726.37,81.84 726.37,82.37 729.11,82.37 729.11,82.91 731.85,82.91 731.85,83.45 734.59,83.45 734.59,83.98 737.33,83.98 737.33,84.51 740.07,84.51 740.07,85.04 742.81,85.04 742.81,85.56 745.55,85.56 745.55,86.09 748.29,86.09 748.29,86.61 751.03,86.61 751.03,87.13 753.77,87.13 753.77,87.64 756.51,87.64 756.51,88.15 759.25,88.15 759.25,88.66 761.99,88.66 761.99,89.17 764.73,89.17 764.73,89.67 767.47,89.67 767.47,90.17 770.21,90.17 770.21,90.66 772.95,90.66 772.95,91.16 775.68,91.16 775.68,91.64 778.42,91.64 778.42,92.12 781.16,92.12 781.16,92.6 783.9,92.6 783.9,93.07 786.64,93.07 786.64,93.54 789.38,93.54 789.38,94.01 792.12,94.01 792.12,94.46 794.86,94.46 794.86,94.92 797.6,94.92 797.6,95.36 800.34,95.36 800.34,95.81 803.08,95.81 803.08,96.24 805.82,96.24 805.82,96.67 808.56,96.67 808.56,97.1 811.3,97.1 811.3,97.51 814.04,97.51 814.04,97.92 816.78,97.92 816.78,98.33 819.52,98.33 819.52,98.73 822.26,98.73 822.26,99.12 825,99.12 825,99.5 827.74,99.5 827.74,99.88 830.48,99.88 830.48,100.25 833.22,100.25 833.22,100.61 835.96,100.61 835.96,100.97 838.7,100.97 838.7,101.32 841.44,101.32 841.44,101.66 844.18,101.66 844.18,101.99 846.92,101.99 846.92,102.31 849.66,102.31 849.66,102.63 852.4,102.63 852.4,102.94 855.14,102.94 855.14,103.24 857.88,103.24 857.88,103.53 860.62,103.53 860.62,124.65 863.36,124.65 863.36,124.92 866.1,124.92 866.1,125.19 868.84,125.19 868.84,125.44 871.58,125.44 871.58,125.69 874.32,125.69 874.32,125.93 877.05,125.93 877.05,126.16 879.79,126.16 879.79,126.38 882.53,126.38 882.53,126.59 885.27,126.59 885.27,126.79 888.01,126.79 888.01,126.98 890.75,126.98 890.75,127.17 893.49,127.17 893.49,127.34 896.23,127.34 896.23,127.5 898.97,127.5 898.97,127.65 901.71,127.65 901.71,127.8 904.45,127.8 904.45,127.93 907.19,127.93 907.19,128.05 909.93,128.05 909.93,128.16 912.67,128.16 912.67,128.26 915.41,128.26 915.41,128.36 918.15,128.36 918.15,128.44 920.89,128.44 920.89,128.51 923.63,128.51 923.63,128.57 926.37,128.57 926.37,128.63 929.11,128.63 929.11,128.67 931.85,128.67 931.85,128.7 934.59,128.7 934.59,128.72 937.33,128.72 937.33,128.74 940.07,128.74 940.07,128.74 942.81,128.74 942.81,128.73 945.55,128.73 945.55,128.72 948.29,128.72 948.29,128.69 951.03,128.69 951.03,128.66 953.77,128.66 953.77,128.61 956.51,128.61 956.51,128.56 959.25,128.56 959.25,128.49 961.99,128.49 961.99,128.42 964.73,128.42 964.73,128.34 967.47,128.34 967.47,128.25 970.21,128.25 970.21,128.15 972.95,128.15 972.95,128.04 975.68,128.04 975.68,127.92 978.42,127.92 978.42,127.79 981.16,127.79 981.16,127.66 983.9,127.66 983.9,127.52 986.64,127.52 986.64,127.37 989.38,127.37 989.38,127.21 992.12,127.21 992.12,127.04 994.86,127.04 994.86,126.87 997.6,126.87 997.6,126.69 1000.34,126.69 1000.34,126.5 1003.08,126.5 1003.08,126.31 1005.82,126.31 1005.82,126.11 1008.56,126.11 1008.56,125.9 1011.3,125.9 1011.3,125.69 1014.04,125.69 1014.04,125.47 1016.78,125.47 1016.78,125.25 1019.52,125.25 1019.52,125.02 1022.26,125.02 1022.26,124.79 1025,124.79 1025,393.33 1022.26,393.33 1022.26,393.43 1019.52,393.43 1019.52,393.54 1016.78,393.54 1016.78,393.66 1014.04,393.66 1014.04,393.78 1011.3,393.78 1011.3,393.92 1008.56,393.92 1008.56,394.06 1005.82,394.06 1005.82,394.21 1003.08,394.21 1003.08,394.36 1000.34,394.36 1000.34,394.52 997.6,394.52 997.6,394.69 994.86,394.69 994.86,394.87 992.12,394.87 992.12,395.05 989.38,395.05 989.38,395.24 986.64,395.24 986.64,395.44 983.9,395.44 983.9,395.64 981.16,395.64 981.16,395.85 978.42,395.85 978.42,396.06 975.68,396.06 975.68,396.28 972.95,396.28 972.95,396.5 970.21,396.5 970.21,396.73 967.47,396.73 967.47,396.96 964.73,396.96 964.73,397.2 961.99,397.2 961.99,397.44 959.25,397.44 959.25,397.69 956.51,397.69 956.51,397.93 953.77,397.93 953.77,398.19 951.03,398.19 951.03,398.44 948.29,398.44 948.29,398.7 945.55,398.7 945.55,398.96 942.81,398.96 942.81,399.22 940.07,399.22 940.07,399.49 937.33,399.49 937.33,399.76 934.59,399.76 934.59,400.03 931.85,400.03 931.85,400.3 929.11,400.3 929.11,400.58 926.37,400.58 926.37,400.86 923.63,400.86 923.63,401.13 920.89,401.13 920.89,401.41 918.15,401.41 918.15,401.69 915.41,401.69 915.41,401.98 912.67,401.98 912.67,402.26 909.93,402.26 909.93,402.54 907.19,402.54 907.19,402.83 904.45,402.83 904.45,403.11 901.71,403.11 901.71,403.39 898.97,403.39 898.97,403.68 896.23,403.68 896.23,403.96 893.49,403.96 893.49,404.25 890.75,404.25 890.75,404.53 888.01,404.53 888.01,404.82 885.27,404.82 885.27,405.1 882.53,405.1 882.53,405.38 879.79,405.38 879.79,405.66 877.05,405.66 877.05,405.94 874.32,405.94 874.32,406.23 871.58,406.23 871.58,406.51 868.84,406.51 868.84,406.78 866.1,406.78 866.1,407.06 863.36,407.06 863.36,407.34 860.62,407.34 860.62,386.79 857.88,386.79 857.88,387.06 855.14,387.06 855.14,387.34 852.4,387.34 852.4,387.62 849.66,387.62 849.66,387.89 846.92,387.89 846.92,388.16 844.18,388.16 844.18,388.44 841.44,388.44 841.44,388.71 838.7,388.71 838.7,388.98 835.96,388.98 835.96,389.25 833.22,389.25 833.22,389.53 830.48,389.53 830.48,389.8 827.74,389.8 827.74,390.07 825,390.07 825,390.34 822.26,390.34 822.26,390.6 819.52,390.6 819.52,390.87 816.78,390.87 816.78,391.14 814.04,391.14 814.04,391.41 811.3,391.41 811.3,391.67 808.56,391.67 808.56,391.94 805.82,391.94 805.82,392.2 803.08,392.2 803.08,392.47 800.34,392.47 800.34,392.73 797.6,392.73 797.6,393 794.86,393 794.86,393.26 792.12,393.26 792.12,393.53 789.38,393.53 789.38,393.8 786.64,393.8 786.64,394.06 783.9,394.06 783.9,394.33 781.16,394.33 781.16,394.59 778.42,394.59 778.42,394.86 775.68,394.86 775.68,395.13 772.95,395.13 772.95,395.4 770.21,395.4 770.21,395.67 767.47,395.67 767.47,395.94 764.73,395.94 764.73,396.21 761.99,396.21 761.99,396.48 759.25,396.48 759.25,396.76 756.51,396.76 756.51,397.03 753.77,397.03 753.77,397.31 751.03,397.31 751.03,397.59 748.29,397.59 748.29,397.86 745.55,397.86 745.55,398.15 742.81,398.15 742.81,398.43 740.07,398.43 740.07,398.71 737.33,398.71 737.33,399 734.59,399 734.59,399.28 731.85,399.28 731.85,399.57 729.11,399.57 729.11,399.86 726.37,399.86 726.37,400.15 723.63,400.15 723.63,400.45 720.89,400.45 720.89,400.75 718.15,400.75 718.15,401.04 715.41,401.04 715.41,401.34 712.67,401.34 712.67,401.65 709.93,401.65 709.93,401.95 707.19,401.95 707.19,402.26 704.45,402.26 704.45,402.57 701.71,402.57 701.71,402.88 698.97,402.88 698.97,403.2 696.23,403.2 696.23,403.51 693.49,403.51 693.49,403.83 690.75,403.83 690.75,404.16 688.01,404.16 688.01,404.48 685.27,404.48 685.27,404.81 682.53,404.81 682.53,405.14 679.79,405.14 679.79,405.47 677.05,405.47 677.05,405.81 674.32,405.81 674.32,406.15 671.58,406.15 671.58,406.49 668.84,406.49 668.84,406.83 666.1,406.83 666.1,407.18 663.36,407.18 663.36,407.53 660.62,407.53 660.62,407.88 657.88,407.88 657.88,408.23 655.14,408.23 655.14,408.59 652.4,408.59 652.4,408.94 649.66,408.94 649.66,409.3 646.92,409.3 646.92,409.66 644.18,409.66 644.18,410.03 641.44,410.03 641.44,410.39 638.7,410.39 638.7,410.75 635.96,410.75 635.96,411.12 633.22,411.12 633.22,411.49 630.48,411.49 630.48,411.86 627.74,411.86 627.74,412.23 625,412.23 625,412.6 622.26,412.6 622.26,412.97 619.52,412.97 619.52,413.35 616.78,413.35 616.78,413.72 614.04,413.72 614.04,414.09 611.3,414.09 611.3,414.47 608.56,414.47 608.56,414.84 605.82,414.84 605.82,415.21 603.08,415.21 603.08,415.58 600.34,415.58 600.34,415.95 597.6,415.95 597.6,416.32 594.86,416.32 594.86,416.69 592.12,416.69 592.12,417.06 589.38,417.06 589.38,417.42 586.64,417.42 586.64,417.79 583.9,417.79 583.9,418.14 581.16,418.14 581.16,418.5 578.42,418.5 578.42,418.85 575.68,418.85 575.68,419.2 572.95,419.2 572.95,419.54 570.21,419.54 570.21,419.88 567.47,419.88 567.47,420.22 564.73,420.22 564.73,420.55 561.99,420.55 561.99,420.87 559.25,420.87 559.25,421.19 556.51,421.19 556.51,421.5 553.77,421.5 553.77,421.8 551.03,421.8 551.03,422.1 548.29,422.1 548.29,422.39 545.55,422.39 545.55,422.67 542.81,422.67 542.81,422.94 540.07,422.94 540.07,423.2 537.33,423.2 537.33,423.46 534.59,423.46 534.59,423.71 531.85,423.71 531.85,423.94 529.11,423.94 529.11,424.17 526.37,424.17 526.37,424.39 523.63,424.39 523.63,424.6 520.89,424.6 520.89,424.79 518.15,424.79 518.15,424.98 515.41,424.98 515.41,425.15 512.67,425.15 512.67,425.32 509.93,425.32 509.93,425.47 507.19,425.47 507.19,425.6 504.45,425.6 504.45,425.73 501.71,425.73 501.71,425.84 498.97,425.84 498.97,425.94 496.23,425.94 496.23,426.03 493.49,426.03 493.49,426.11 490.75,426.11 490.75,426.17 488.01,426.17 488.01,426.21 485.27,426.21 485.27,426.25 482.53,426.25 482.53,426.27 479.79,426.27 479.79,426.27 477.05,426.27 477.05,426.27 474.32,426.27 474.32,426.24 471.58,426.24 471.58,426.21 468.84,426.21 468.84,426.16 466.1,426.16 466.1,426.1 463.36,426.1 463.36,426.02 460.62,426.02 460.62,425.93 457.88,425.93 457.88,425.83 455.14,425.83 455.14,425.71 452.4,425.71 452.4,425.58 449.66,425.58 449.66,425.44 446.92,425.44 446.92,425.28 444.18,425.28 444.18,425.11 441.44,425.11 441.44,424.93 438.7,424.93 438.7,424.73 435.96,424.73 435.96,424.53 433.22,424.53 433.22,424.31 430.48,424.31 430.48,424.08 427.74,424.08 427.74,423.84 425,423.84 425,423.58 422.26,423.58 422.26,423.31 419.52,423.31 419.52,423.04 416.78,423.04 416.78,422.75 414.04,422.75 414.04,422.45 411.3,422.45 411.3,422.14 408.56,422.14 408.56,421.82 405.82,421.82 405.82,421.49 403.08,421.49 403.08,421.15 400.34,421.15 400.34,420.8 397.6,420.8 397.6,420.44 394.86,420.44 394.86,420.08 392.12,420.08 392.12,419.7 389.38,419.7 389.38,419.31 386.64,419.31 386.64,418.92 383.9,418.92 383.9,418.52 381.16,418.52 381.16,418.11 378.42,418.11 378.42,417.7 375.68,417.7 375.68,417.27 372.95,417.27 372.95,416.84 370.21,416.84 370.21,416.41 367.47,416.41 367.47,415.96 364.73,415.96 364.73,415.51 361.99,415.51 361.99,415.06 359.25,415.06 359.25,414.6 356.51,414.6 356.51,414.13 353.77,414.13 353.77,413.66 351.03,413.66 351.03,413.18 348.29,413.18 348.29,412.7 345.55,412.7 345.55,412.22 342.81,412.22 342.81,411.73 340.07,411.73 340.07,411.23 337.33,411.23 337.33,410.73 334.59,410.73 334.59,410.23 331.85,410.23 331.85,409.73 329.11,409.73 329.11,409.22 326.37,409.22 326.37,408.71 323.63,408.71 323.63,408.19 320.89,408.19 320.89,407.68 318.15,407.68 318.15,407.16 315.41,407.16 315.41,406.64 312.67,406.64 312.67,406.11 309.93,406.11 309.93,405.59 307.19,405.59 307.19,405.06 304.45,405.06 304.45,404.53 301.71,404.53 301.71,404 298.97,404 298.97,403.47 296.23,403.47 296.23,402.94 293.49,402.94 293.49,402.41 290.75,402.41 290.75,401.88 288.01,401.88 288.01,401.35 285.27,401.35 285.27,400.81 282.53,400.81 282.53,400.28 279.79,400.28 279.79,399.75 277.05,399.75 277.05,399.22 274.32,399.22 274.32,398.69 271.58,398.69 271.58,398.16 268.84,398.16 268.84,397.63 266.1,397.63 266.1,397.1 263.36,397.1 263.36,396.58 260.62,396.58 260.62,396.05 257.88,396.05 257.88,395.53 255.14,395.53 255.14,395.01 252.4,395.01 252.4,394.49 249.66,394.49 249.66,393.97 246.92,393.97 246.92,393.46 244.18,393.46 244.18,392.95 241.44,392.95 241.44,392.44 238.7,392.44 238.7,391.93 235.96,391.93 235.96,391.42 233.22,391.42 233.22,390.92 230.48,390.92 230.48,390.43 227.74,390.43 227.74,389.93 225,389.93 225,389.44 222.26,389.44 222.26,388.95 219.52,388.95 219.52,388.47 216.78,388.47 216.78,387.99 214.04,387.99 214.04,387.52 211.3,387.52 211.3,387.05 208.56,387.05 208.56,407.41 205.82,407.41 205.82,406.95 203.08,406.95 203.08,406.5 200.34,406.5 200.34,406.05 197.6,406.05 197.6,405.6 194.86,405.6 194.86,405.16 192.12,405.16 192.12,404.73 189.38,404.73 189.38,404.3 186.64,404.3 186.64,403.87 183.9,403.87 183.9,403.46 181.16,403.46 181.16,403.05 178.42,403.05 178.42,402.64 175.68,402.64 175.68,402.24 172.95,402.24 172.95,401.85 170.21,401.85 170.21,401.46 167.47,401.46 167.47,401.09 164.73,401.09 164.73,400.71 161.99,400.71 161.99,400.35 159.25,400.35 159.25,399.99 156.51,399.99 156.51,399.64 153.77,399.64 153.77,399.3 151.03,399.3 151.03,398.96 148.29,398.96 148.29,398.63 145.55,398.63 145.55,398.31 142.81,398.31 142.81,398 140.07,398 140.07,397.7 137.33,397.7 137.33,397.4 134.59,397.4 134.59,397.11 131.85,397.11 131.85,396.83 129.11,396.83 129.11,396.56 126.37,396.56 126.37,396.3 123.63,396.3 123.63,396.05 120.89,396.05 120.89,395.81 118.15,395.81 118.15,395.57 115.41,395.57 115.41,395.35 112.67,395.35 112.67,395.13 109.93,395.13 109.93,394.93 107.19,394.93 107.19,394.73 104.45,394.73 104.45,394.54 101.71,394.54 101.71,394.36 98.97,394.36 98.97,394.19 96.23,394.19 96.23,394.04 93.49,394.04 93.49,393.89 90.75,393.89 90.75,393.75 88.01,393.75 88.01,393.62 85.27,393.62 85.27,393.5 82.53,393.5 82.53,393.39 79.79,393.39 79.79,393.29 77.05,393.29 77.05,393.19 74.32,393.19 74.32,393.11 71.58,393.11 71.58,393.04 68.84,393.04 68.84,392.98 66.1,392.98 66.1,392.93 63.36,392.93 63.36,392.89 60.62,392.89 60.62,392.86 57.88,392.86 57.88,392.83 55.14,392.83 55.14,392.82 52.4,392.82 52.4,392.82 49.66,392.82 49.66,392.83 46.92,392.83 46.92,392.84 44.18,392.84 44.18,392.87 41.44,392.87 41.44,392.9 38.7,392.9 38.7,392.95 35.96,392.95 35.96,393 33.22,393 33.22,393.07 30.48,393.07 30.48,393.14 27.74,393.14 27.74,393.22" fill="#002040" stroke="none" stroke-width="0"/>
<polygon points="25,382.61 25,135.11 27.74,135.11 27.74,134.85 30.48,134.85 30.48,134.6 33.22,134.6 33.22,134.34 35.96,134.34 35.96,134.07 38.7,134.07 38.7,133.8 41.44,133.8 41.44,133.52 44.18,133.52 44.18,133.25 46.92,133.25 46.92,132.96 49.66,132.96 49.66,132.68 52.4,132.68 52.4,132.39 55.14,132.39 55.14,132.1 57.88,132.1 57.88,131.81 60.62,131.81 60.62,131.51 63.36,131.51 63.36,131.21 66.1,131.21 66.1,130.91 68.84,130.91 68.84,130.61 71.58,130.61 71.58,130.31 74.32,130.31 74.32,130 77.05,130 77.05,129.7 79.79,129.7 79.79,129.39 82.53,129.39 82.53,129.08 85.27,129.08 85.27,128.77 88.01,128.77 88.01,128.46 90.75,128.46 90.75,128.14 93.49,128.14 93.49,127.83 96.23,127.83 96.23,127.52 98.97,127.52 98.97,127.21 101.71,127.21 101.71,126.89 104.45,126.89 104.45,126.58 107.19,126.58 107.19,126.27 109.93,126.27 109.93,125.96 112.67,125.96 112.67,125.64 115.41,125.64 115.41,125.33 118.15,125.33 118.15,125.02 120.89,125.02 120.89,124.71 123.63,124.71 123.63,124.41 126.37,124.41 126.37,124.1 129.11,124.1 129.11,123.79 131.85,123.79 131.85,123.48 134.59,123.48 134.59,123.18 137.33,123.18 137.33,122.88 140.07,122.88 140.07,122.57 142.81,122.57 142.81,122.27 145.55,122.27 145.55,121.97 148.29,121.97 148.29,121.67 151.03,121.67 151.03,121.37 153.77,121.37 153.77,121.07 156.51,121.07 156.51,120.78 159.25,120.78 159.25,120.48 161.99,120.48 161.99,120.19 164.73,120.19 164.73,119.89 167.47,119.89 167.47,119.6 170.21,119.6 170.21,119.3 172.95,119.3 172.95,119.01 175.68,119.01 175.68,118.72 178.42,118.72 178.42,118.43 181.16,118.43 181.16,118.14 183.9,118.14 183.9,117.85 186.64,117.85 186.64,117.56 189.38,117.56 189.38,117.28 192.12,117.28 192.12,116.99 194.86,116.99 194.86,116.7 197.6,116.7 197.6,116.42 200.34,116.42 200.34,116.13 203.08,116.13 203.08,115.85 205.82,115.85 205.82,115.56 208.56,115.56 208.56,94.45 211.3,94.45 211.3,94.16 214.04,94.16 214.04,93.88 216.78,93.88 216.78,93.6 219.52,93.6 219.52,93.31 222.26,93.31 222.26,93.03 225,93.03 225,92.75 227.74,92.75 227.74,92.46 230.48,92.46 230.48,92.18 233.22,92.18 233.22,91.89 235.96,91.89 235.96,91.61 238.7,91.61 238.7,91.32 241.44,91.32 241.44,91.03 244.18,91.03 244.18,90.75 246.92,90.75 246.92,90.46 249.66,90.46 249.66,90.17 252.4,90.17 252.4,89.88 255.14,89.88 255.14,89.59 257.88,89.59 257.88,89.29 260.62,89.29 260.62,89 263.36,89 263.36,88.71 266.1,88.71 266.1,88.41 268.84,88.41 268.84,88.11 271.58,88.11 271.58,87.82 274.32,87.82 274.32,87.52 277.05,87.52 277.05,87.22 279.79,87.22 279.79,86.91 282.53,86.91 282.53,86.61 285.27,86.61 285.27,86.31 288.01,86.31 288.01,86 290.75,86 290.75,85.69 293.49,85.69 293.49,85.39 296.23,85.39 296.23,85.08 298.97,85.08 298.97,84.76 301.71,84.76 301.71,84.45 304.45,84.45 304.45,84.14 307.19,84.14 307.19,83.82 309.93,83.82 309.93,83.5 312.67,83.5 312.67,83.18 315.41,83.18 315.41,82.86 318.15,82.86 318.15,82.54 320.89,82.54 320.89,82.21 323.63,82.21 323.63,81.89 326.37,81.89 326.37,81.56 329.11,81.56 329.11,81.23 331.85,81.23 331.85,80.9 334.59,80.9 334.59,80.57 337.33,80.57 337.33,80.24 340.07,80.24 340.07,79.91 342.81,79.91 342.81,79.57 345.55,79.57 345.55,79.23 348.29,79.23 348.29,78.9 351.03,78.9 351.03,78.56 353.77,78.56 353.77,78.23 356.51,78.23 356.51,77.89 359.25,77.89 359.25,77.55 361.99,77.55 361.99,77.21 364.73,77.21 364.73,76.88 367.47,76.88 367.47,76.54 370.21,76.54 370.21,76.2 372.95,76.2 372.95,75.87 375.68,75.87 375.68,75.53 378.42,75.53 378.42,75.2 381.16,75.2 381.16,74.86 383.9,74.86 383.9,74.53 386.64,74.53 386.64,74.2 389.38,74.2 389.38,73.87 392.12,73.87 392.12,73.55 394.86,73.55 394.86,73.22 397.6,73.22 397.6,72.9 400.34,72.9 400.34,72.58 403.08,72.58 403.08,72.27 405.82,72.27 405.82,71.95 408.56,71.95 408.56,71.64 411.3,71.64 411.3,71.34 414.04,71.34 414.04,71.03 416.78,71.03 416.78,70.73 419.52,70.73 419.52,70.44 422.26,70.44 422.26,70.15 425,70.15 425,69.87 427.74,69.87 427.74,69.59 430.48,69.59 430.48,69.32 433.22,69.32 433.22,69.05 435.96,69.05 435.96,68.79 438.7,68.79 438.7,68.54 441.44,68.54 441.44,68.29 444.18,68.29 444.18,68.05 446.92,68.05 446.92,67.82 449.66,67.82 449.66,67.59 452.4,67.59 452.4,67.38 455.14,67.38 455.14,67.17 457.88,67.17 457.88,66.97 460.62,66.97 460.62,66.78 463.36,66.78 463.36,66.6 466.1,66.6 466.1,66.43 468.84,66.43 468.84,66.27 471.58,66.27 471.58,66.11 474.32,66.11 474.32,65.97 477.05,65.97 477.05,65.84 479.79,65.84 479.79,65.71 482.53,65.71 482.53,65.6 485.27,65.6 485.27,65.5 488.01,65.5 488.01,65.41 490.75,65.41 490.75,65.32 493.49,65.32 493.49,65.25 496.23,65.25 496.23,65.2 498.97,65.2 498.97,65.15 501.71,65.15 501.71,65.11 504.45,65.11 504.45,65.09 507.19,65.09 507.19,65.08 509.93,65.08 509.93,65.07 512.67,65.07 512.67,65.08 515.41,65.08 515.41,65.11 518.15,65.11 518.15,65.14 520.89,65.14 520.89,65.19 523.63,65.19 523.63,65.24 526.37,65.24 526.37,65.31 529.11,65.31 529.11,65.4 531.85,65.4 531.85,65.49 534.59,65.49 534.59,65.6 537.33,65.6 537.33,65.71 540.07,65.71 540.07,65.84 542.81,65.84 542.81,65.98 545.55,65.98 545.55,66.13 548.29,66.13 548.29,66.29 551.03,66.29 551.03,66.47 553.77,66.47 553.77,66.65 556.51,66.65 556.51,66.85 559.25,66.85 559.25,67.05 561.99,67.05 561.99,67.27 564.73,67.27 564.73,67.5 567.47,67.5 567.47,67.74 570.21,67.74 570.21,67.98 572.95,67.98 572.95,68.24 575.68,68.24 575.68,68.51 578.42,68.51 578.42,68.79 581.16,68.79 581.16,69.07 583.9,69.07 583.9,69.37 586.64,69.37 586.64,69.67 589.38,69.67 589.38,69.99 592.12,69.99 592.12,70.31 594.86,70.31 594.86,70.64 597.6,70.64 597.6,70.98 600.34,70.98 600.34,71.33 603.08,71.33 603.08,71.69 605.82,71.69 605.82,72.05 608.56,72.05 608.56,72.42 611.3,72.42 611.3,72.8 614.04,72.8 614.04,73.19 616.78,73.19 616.78,73.58 619.52,73.58 619.52,73.98 622.26,73.98 622.26,74.39 625,74.39 625,74.8 627.74,74.8 627.74,75.22 630.48,75.22 630.48,75.65 633.22,75.65 633.22,76.08 635.96,76.08 635.96,76.52 638.7,76.52 638.7,76.96 641.44,76.96 641.44,77.41 644.18,77.41 644.18,77.86 646.92,77.86 646.92,78.32 649.66,78.32 649.66,78.78 652.4,78.78 652.4,79.24 655.14,79.24 655.14,79.71 657.88,79.71 657.88,80.19 660.62,80.19 660.62,80.66 663.36,80.66 663.36,81.15 666.1,81.15 666.1,81.63 668.84,81.63 668.84,82.12 671.58,82.12 671.58,82.61 674.32,82.61 674.32,83.1 677.05,83.1 677.05,83.6 679.79,83.6 679.79,84.1 682.53,84.1 682.53,84.6 685.27,84.6 685.27,85.1 688.01,85.1 688.01,85.61 690.75,85.61 690.75,86.12 693.49,86.12 693.49,86.63 696.23,86.63 696.23,87.14 698.97,87.14 698.97,87.65 701.71,87.65 701.71,88.16 704.45,88.16 704.45,88.67 707.19,88.67 707.19,89.19 709.93,89.19 709.93,89.7 712.67,89.7 712.67,90.22 715.41,90.22 715.41,90.74 718.15,90.74 718.15,91.25 720.89,91.25 720.89,91.77 723.63,91.77 723.63,92.28 726.37,92.28 726.37,92.8 729.11,92.8 729.11,93.31 731.85,93.31 731.85,93.82 734.59,93.82 734.59,94.33 737.33,94.33 737.33,94.85 740.07,94.85 740.07,95.35 742.81,95.35 742.81,95.86 745.55,95.86 745.55,96.37 748.29,96.37 748.29,96.87 751.03,96.87 751.03,97.37 753.77,97.37 753.77,97.87 756.51,97.87 756.51,98.37 759.25,98.37 759.25,98.87 761.99,98.87 761.99,99.36 764.73,99.36 764.73,99.85 767.47,99.85 767.47,100.34 770.21,100.34 770.21,100.82 772.95,100.82 772.95,101.31 775.68,101.31 775.68,101.78 778.42,101.78 778.42,102.26 781.16,102.26 781.16,102.73 783.9,102.73 783.9,103.19 786.64,103.19 786.64,103.66 789.38,103.66 789.38,104.12 792.12,104.12 792.12,104.57 794.86,104.57 794.86,105.02 797.6,105.02 797.6,105.46 800.34,105.46 800.34,105.9 803.08,105.9 803.08,106.34 805.82,106.34 805.82,106.77 808.56,106.77 808.56,107.19 811.3,107.19 811.3,107.61 814.04,107.61 814.04,108.02 816.78,108.02 816.78,108.43 819.52,108.43 819.52,108.83 822.26,108.83 822.26,109.22 825,109.22 825,109.61 827.74,109.61 827.74,109.99 830.48,109.99 830.48,110.37 833.22,110.37 833.22,110.74 835.96,110.74 835.96,111.1 838.7,111.1 838.7,111.45 841.44,111.45 841.44,111.8 844.18,111.8 844.18,112.14 846.92,112.14 846.92,112.47 849.66,112.47 849.66,112.8 852.4,112.8 852.4,113.11 855.14,113.11 855.14,113.42 857.88,113.42 857.88,113.72 860.62,113.72 860.62,134.85 863.36,134.85 863.36,135.14 866.1,135.14 866.1,135.41 868.84,135.41 868.84,135.68 871.58,135.68 871.58,135.94 874.32,135.94 874.32,136.19 877.05,136.19 877.05,136.43 879.79,136.43 879.79,136.66 882.53,136.66 882.53,136.89 885.27,136.89 885.27,137.1 888.01,137.1 888.01,137.3 890.75,137.3 890.75,137.5 893.49,137.5 893.49,137.68 896.23,137.68 896.23,137.86 898.97,137.86 898.97,138.02 901.71,138.02 901.71,138.18 904.45,138.18 904.45,138.32 907.19,138.32 907.19,138.46 909.93,138.46 909.93,138.58 912.67,138.58 912.67,138.7 915.41,138.7 915.41,138.8 918.15,138.8 918.15,138.89 920.89,138.89 920.89,138.98 923.63,138.98 923.63,139.05 926.37,139.05 926.37,139.12 929.11,139.12 929.11,139.17 931.85,139.17 931.85,139.22 934.59,139.22 934.59,139.25 937.33,139.25 937.33,139.27 940.07,139.27 940.07,139.29 942.81,139.29 942.81,139.29 945.55,139.29 945.55,139.28 948.29,139.28 948.29,139.27 951.03,139.27 951.03,139.24 953.77,139.24 953.77,139.2 956.51,139.2 956.51,139.16 959.25,139.16 959.25,139.1 961.99,139.1 961.99,139.03 964.73,139.03 964.73,138.96 967.47,138.96 967.47,138.87 970.21,138.87 970.21,138.78 972.95,138.78 972.95,138.67 975.68,138.67 975.68,138.56 978.42,138.56 978.42,138.44 981.16,138.44 981.16,138.31 983.9,138.31 983.9,138.17 986.64,138.17 986.64,138.02 989.38,138.02 989.38,137.86 992.12,137.86 992.12,137.7 994.86,137.7 994.86,137.52 997.6,137.52 997.6,137.34 1000.34,137.34 1000.34,137.15 1003.08,137.15 1003.08,136.96 1005.82,136.96 1005.82,136.76 1008.56,136.76 1008.56,136.55 1011.3,136.55 1011.3,136.33 1014.04,136.33 1014.04,136.11 1016.78,136.11 1016.78,135.88 1019.52,135.88 1019.52,135.65 1022.26,135.65 1022.26,135.41 1025,135.41 1025,382.71 1022.26,382.71 1022.26,382.81 1019.52,382.81 1019.52,382.91 1016.78,382.91 1016.78,383.02 1014.04,383.02 1014.04,383.14 1011.3,383.14 1011.3,383.27 1008.56,383.27 1008.56,383.41 1005.82,383.41 1005.82,383.56 1003.08,383.56 1003.08,383.71 1000.34,383.71 1000.34,383.87 997.6,383.87 997.6,384.04 994.86,384.04 994.86,384.22 992.12,384.22 992.12,384.4 989.38,384.4 989.38,384.59 986.64,384.59 986.64,384.79 983.9,384.79 983.9,385 981.16,385 981.16,385.21 978.42,385.21 978.42,385.42 975.68,385.42 975.68,385.65 972.95,385.65 972.95,385.87 970.21,385.87 970.21,386.11 967.47,386.11 967.47,386.34 964.73,386.34 964.73,386.59 961.99,386.59 961.99,386.84 959.25,386.84 959.25,387.09 956.51,387.09 956.51,387.34 953.77,387.34 953.77,387.6 951.03,387.6 951.03,387.87 948.29,387.87 948.29,388.13 945.55,388.13 945.55,388.4 942.81,388.4 942.81,388.68 940.07,388.68 940.07,388.95 937.33,388.95 937.33,389.23 934.59,389.23 934.59,389.52 931.85,389.52 931.85,389.8 929.11,389.8 929.11,390.09 926.37,390.09 926.37,390.38 923.63,390.38 923.63,390.67 920.89,390.67 920.89,390.96 918.15,390.96 918.15,391.25 915.41,391.25 915.41,391.54 912.67,391.54 912.67,391.84 909.93,391.84 909.93,392.13 907.19,392.13 907.19,392.43 904.45,392.43 904.45,392.73 901.71,392.73 901.71,393.02 898.97,393.02 898.97,393.32 896.23,393.32 896.23,393.62 893.49,393.62 893.49,393.91 890.75,393.91 890.75,394.21 888.01,394.21 888.01,394.51 885.27,394.51 885.27,394.8 882.53,394.8 882.53,395.1 879.79,395.1 879.79,395.39 877.05,395.39 877.05,395.68 874.32,395.68 874.32,395.97 871.58,395.97 871.58,396.26 868.84,396.26 868.84,396.55 866.1,396.55 866.1,396.84 863.36,396.84 863.36,397.13 860.62,397.13 860.62,376.59 857.88,376.59 857.88,376.87 855.14,376.87 855.14,377.16 852.4,377.16 852.4,377.44 849.66,377.44 849.66,377.72 846.92,377.72 846.92,378.01 844.18,378.01 844.18,378.29 841.44,378.29 841.44,378.57 838.7,378.57 838.7,378.84 835.96,378.84 835.96,379.12 833.22,379.12 833.22,379.4 830.48,379.4 830.48,379.67 827.74,379.67 827.74,379.95 825,379.95 825,380.22 822.26,380.22 822.26,380.49 819.52,380.49 819.52,380.76 816.78,380.76 816.78,381.03 814.04,381.03 814.04,381.3 811.3,381.3 811.3,381.56 808.56,381.56 808.56,381.83 805.82,381.83 805.82,382.09 803.08,382.09 803.08,382.36 800.34,382.36 800.34,382.62 797.6,382.62 797.6,382.88 794.86,382.88 794.86,383.14 792.12,383.14 792.12,383.4 789.38,383.4 789.38,383.66 786.64,383.66 786.64,383.92 783.9,383.92 783.9,384.18 781.16,384.18 781.16,384.44 778.42,384.44 778.42,384.7 775.68,384.7 775.68,384.96 772.95,384.96 772.95,385.22 770.21,385.22 770.21,385.48 767.47,385.48 767.47,385.73 764.73,385.73 764.73,385.99 761.99,385.99 761.99,386.25 759.25,386.25 759.25,386.51 756.51,386.51 756.51,386.77 753.77,386.77 753.77,387.03 751.03,387.03 751.03,387.3 748.29,387.3 748.29,387.56 745.55,387.56 745.55,387.82 742.81,387.82 742.81,388.08 740.07,388.08 740.07,388.35 737.33,388.35 737.33,388.61 734.59,388.61 734.59,388.88 731.85,388.88 731.85,389.14 729.11,389.14 729.11,389.41 726.37,389.41 726.37,389.68 723.63,389.68 723.63,389.95 720.89,389.95 720.89,390.22 718.15,390.22 718.15,390.49 715.41,390.49 715.41,390.76 712.67,390.76 712.67,391.03 709.93,391.03 709.93,391.31 707.19,391.31 707.19,391.59 704.45,391.59 704.45,391.86 701.71,391.86 701.71,392.14 698.97,392.14 698.97,392.42 696.23,392.42 696.23,392.71 693.49,392.71 693.49,392.99 690.75,392.99 690.75,393.28 688.01,393.28 688.01,393.57 685.27,393.57 685.27,393.86 682.53,393.86 682.53,394.15 679.79,394.15 679.79,394.44 677.05,394.44 677.05,394.74 674.32,394.74 674.32,395.04 671.58,395.04 671.58,395.34 668.84,395.34 668.84,395.64 666.1,395.64 666.1,395.94 663.36,395.94 663.36,396.24 660.62,396.24 660.62,396.55 657.88,396.55 657.88,396.86 655.14,396.86 655.14,397.16 652.4,397.16 652.4,397.47 649.66,397.47 649.66,397.78 646.92,397.78 646.92,398.1 644.18,398.1 644.18,398.41 641.44,398.41 641.44,398.72 638.7,398.72 638.7,399.04 635.96,399.04 635.96,399.35 633.22,399.35 633.22,399.67 630.48,399.67 630.48,399.99 627.74,399.99 627.74,400.3 625,400.3 625,400.62 622.26,400.62 622.26,400.94 619.52,400.94 619.52,401.26 616.78,401.26 616.78,401.58 614.04,401.58 614.04,401.89 611.3,401.89 611.3,402.21 608.56,402.21 608.56,402.53 605.82,402.53 605.82,402.85 603.08,402.85 603.08,403.16 600.34,403.16 600.34,403.48 597.6,403.48 597.6,403.79 594.86,403.79 594.86,404.11 592.12,404.11 592.12,404.42 589.38,404.42 589.38,404.73 586.64,404.73 586.64,405.03 583.9,405.03 583.9,405.34 581.16,405.34 581.16,405.64 578.42,405.64 578.42,405.94 575.68,405.94 575.68,406.23 572.95,406.23 572.95,406.53 570.21,406.53 570.21,406.81 567.47,406.81 567.47,407.1 564.73,407.1 564.73,407.38 561.99,407.38 561.99,407.65 559.25,407.65 559.25,407.92 556.51,407.92 556.51,408.18 553.77,408.18 553.77,408.44 551.03,408.44 551.03,408.7 548.29,408.7 548.29,408.94 545.55,408.94 545.55,409.18 542.81,409.18 542.81,409.42 540.07,409.42 540.07,409.65 537.33,409.65 537.33,409.87 534.59,409.87 534.59,410.08 531.85,410.08 531.85,410.29 529.11,410.29 529.11,410.48 526.37,410.48 526.37,410.67 523.63,410.67 523.63,410.86 520.89,410.86 520.89,411.03 518.15,411.03 518.15,411.19 515.41,411.19 515.41,411.35 512.67,411.35 512.67,411.49 509.93,411.49 509.93,411.63 507.19,411.63 507.19,411.76 504.45,411.76 504.45,411.87 501.71,411.87 501.71,411.98 498.97,411.98 498.97,412.08 496.23,412.08 496.23,412.16 493.49,412.16 493.49,412.24 490.75,412.24 490.75,412.3 488.01,412.3 488.01,412.35 485.27,412.35 485.27,412.4 482.53,412.4 482.53,412.43 479.79,412.43 479.79,412.45 477.05,412.45 477.05,412.45 474.32,412.45 474.32,412.45 471.58,412.45 471.58,412.43 468.84,412.43 468.84,412.41 466.1,412.41 466.1,412.37 463.36,412.37 463.36,412.32 460.62,412.32 460.62,412.26 457.88,412.26 457.88,412.19 455.14,412.19 455.14,412.1 452.4,412.1 452.4,412.01 449.66,412.01 449.66,411.9 446.92,411.9 446.92,411.78 444.18,411.78 444.18,411.65 441.44,411.65 441.44,411.51 438.7,411.51 438.7,411.36 435.96,411.36 435.96,411.2 433.22,411.2 433.22,411.03 430.48,411.03 430.48,410.84 427.74,410.84 427.74,410.65 425,410.65 425,410.44 422.26,410.44 422.26,410.23 419.52,410.23 419.52,410 416.78,410 416.78,409.77 414.04,409.77 414.04,409.52 411.3,409.52 411.3,409.26 408.56,409.26 408.56,409 405.82,409 405.82,408.72 403.08,408.72 403.08,408.44 400.34,408.44 400.34,408.14 397.6,408.14 397.6,407.84 394.86,407.84 394.86,407.53 392.12,407.53 392.12,407.21 389.38,407.21 389.38,406.88 386.64,406.88 386.64,406.54 383.9,406.54 383.9,406.2 381.16,406.2 381.16,405.85 378.42,405.85 378.42,405.49 375.68,405.49 375.68,405.12 372.95,405.12 372.95,404.74 370.21,404.74 370.21,404.36 367.47,404.36 367.47,403.97 364.73,403.97 364.73,403.58 361.99,403.58 361.99,403.18 359.25,403.18 359.25,402.77 356.51,402.77 356.51,402.36 353.77,402.36 353.77,401.94 351.03,401.94 351.03,401.51 348.29,401.51 348.29,401.08 345.55,401.08 345.55,400.65 342.81,400.65 342.81,400.21 340.07,400.21 340.07,399.76 337.33,399.76 337.33,399.31 334.59,399.31 334.59,398.86 331.85,398.86 331.85,398.4 329.11,398.4 329.11,397.94 326.37,397.94 326.37,397.47 323.63,397.47 323.63,397 320.89,397 320.89,396.53 318.15,396.53 318.15,396.05 315.41,396.05 315.41,395.57 312.67,395.57 312.67,395.09 309.93,395.09 309.93,394.61 307.19,394.61 307.19,394.12 304.45,394.12 304.45,393.63 301.71,393.63 301.71,393.14 298.97,393.14 298.97,392.64 296.23,392.64 296.23,392.15 293.49,392.15 293.49,391.65 290.75,391.65 290.75,391.15 288.01,391.15 288.01,390.65 285.27,390.65 285.27,390.15 282.53,390.15 282.53,389.65 279.79,389.65 279.79,389.15 277.05,389.15 277.05,388.65 274.32,388.65 274.32,388.15 271.58,388.15 271.58,387.65 268.84,387.65 268.84,387.14 266.1,387.14 266.1,386.64 263.36,386.64 263.36,386.14 260.62,386.14 260.62,385.64 257.88,385.64 257.88,385.14 255.14,385.14 255.14,384.64 252.4,384.64 252.4,384.14 249.66,384.14 249.66,383.65 246.92,383.65 246.92,383.15 244.18,383.15 244.18,382.66 241.44,382.66 241.44,382.16 238.7,382.16 238.7,381.67 235.96,381.67 235.96,381.18 233.22,381.18 233.22,380.7 230.48,380.7 230.48,380.21 227.74,380.21 227.74,379.73 225,379.73 225,379.25 222.26,379.25 222.26,378.78 219.52,378.78 219.52,378.31 216.78,378.31 216.78,377.84 214.04,377.84 214.04,377.37 211.3,377.37 211.3,376.91 208.56,376.91 208.56,397.29 205.82,397.29 205.82,396.83 203.08,396.83 203.08,396.38 200.34,396.38 200.34,395.94 197.6,395.94 197.6,395.49 194.86,395.49 194.86,395.06 192.12,395.06 192.12,394.63 189.38,394.63 189.38,394.2 186.64,394.2 186.64,393.78 183.9,393.78 183.9,393.36 181.16,393.36 181.16,392.95 178.42,392.95 178.42,392.54 175.68,392.54 175.68,392.14 172.95,392.14 172.95,391.75 170.21,391.75 170.21,391.36 167.47,391.36 167.47,390.98 164.73,390.98 164.73,390.6 161.99,390.6 161.99,390.23 159.25,390.23 159.25,389.87 156.51,389.87 156.51,389.52 153.77,389.52 153.77,389.17 151.03,389.17 151.03,388.82 148.29,388.82 148.29,388.49 145.55,388.49 145.55,388.16 142.81,388.16 142.81,387.84 140.07,387.84 140.07,387.53 137.33,387.53 137.33,387.22 134.59,387.22 134.59,386.93 131.85,386.93 131.85,386.64 129.11,386.64 129.11,386.36 126.37,386.36 126.37,386.09 123.63,386.09 123.63,385.83 120.89,385.83 120.89,385.57 118.15,385.57 118.15,385.33 115.41,385.33 115.41,385.09 112.67,385.09 112.67,384.86 109.93,384.86 109.93,384.64 107.19,384.64 107.19,384.43 104.45,384.43 104.45,384.23 101.71,384.23 101.71,384.04 98.97,384.04 98.97,383.86 96.23,383.86 96.23,383.69 93.49,383.69 93.49,383.53 90.75,383.53 90.75,383.38 88.01,383.38 88.01,383.23 85.27,383.23 85.27,383.1 82.53,383.1 82.53,382.98 79.79,382.98 79.79,382.86 77.05,382.86 77.05,382.76 74.32,382.76 74.32,382.67 71.58,382.67 71.58,382.58 68.84,382.58 68.84,382.51 66.1,382.51 66.1,382.45 63.36,382.45 63.36,382.39 60.62,382.39 60.62,382.35 57.88,382.35 57.88,382.32 55.14,382.32 55.14,382.29 52.4,382.29 52.4,382.28 49.66,382.28 49.66,382.28 46.92,382.28 46.92,382.28 44.18,382.28 44.18,382.3 41.44,382.3 41.44,382.33 38.7,382.33 38.7,382.36 35.96,382.36 35.96,382.41 33.22,382.41 33.22,382.47 30.48,382.47 30.48,382.53 27.74,382.53 27.74,382.61" fill="#004080" stroke="none" stroke-width="0"/>
<polygon points="25,371.73 25,145.99 27.74,145.99 27.74,145.73 30.48,145.73 30.48,145.46 33.22,145.46 33.22,145.19 35.96,145.19 35.96,144.91 38.7,144.91 38.7,144.63 41.44,144.63 41.44,144.34 44.18,144.34 44.18,144.05 46.92,144.05 46.92,143.76 49.66,143.76 49.66,143.46 52.4,143.46 52.4,143.16 55.14,143.16 55.14,142.86 57.88,142.86 57.88,142.55 60.62,142.55 60.62,142.24 63.36,142.24 63.36,141.92 66.1,141.92 66.1,141.61 68.84,141.61 68.84,141.29 71.58,141.29 71.58,140.97 74.32,140.97 74.32,140.65 77.05,140.65 77.05,140.33 79.79,140.33 79.79,140 82.53,140 82.53,139.68 85.27,139.68 85.27,139.35 88.01,139.35 88.01,139.02 90.75,139.02 90.75,138.69 93.49,138.69 93.49,138.36 96.23,138.36 96.23,138.03 98.97,138.03 98.97,137.7 101.71,137.7 101.71,137.37 104.45,137.37 104.45,137.04 107.19,137.04 107.19,136.72 109.93,136.72 109.93,136.39 112.67,136.39 112.67,136.06 115.41,136.06 115.41,135.73 118.15,135.73 118.15,135.41 120.89,135.41 120.89,135.08 123.63,135.08 123.63,134.76 126.37,134.76 126.37,134.43 129.11,134.43 129.11,134.11 131.85,134.11 131.85,133.79 134.59,133.79 134.59,133.47 137.33,133.47 137.33,133.16 140.07,133.16 140.07,132.84 142.81,132.84 142.81,132.53 145.55,132.53 145.55,132.21 148.29,132.21 148.29,131.9 151.03,131.9 151.03,131.59 153.77,131.59 153.77,131.28 156.51,131.28 156.51,130.97 159.25,130.97 159.25,130.67 161.99,130.67 161.99,130.36 164.73,130.36 164.73,130.06 167.47,130.06 167.47,129.76 170.21,129.76 170.21,129.46 172.95,129.46 172.95,129.16 175.68,129.16 175.68,128.86 178.42,128.86 178.42,128.56 181.16,128.56 181.16,128.27 183.9,128.27 183.9,127.98 186.64,127.98 186.64,127.68 189.38,127.68 189.38,127.39 192.12,127.39 192.12,127.1 194.86,127.1 194.86,126.81 197.6,126.81 197.6,126.53 200.34,126.53 200.34,126.24 203.08,126.24 203.08,125.96 205.82,125.96 205.82,125.67 208.56,125.67 208.56,104.56 211.3,104.56 211.3,104.28 214.04,104.28 214.04,104 216.78,104 216.78,103.72 219.52,103.72 219.52,103.44 222.26,103.44 222.26,103.16 225,103.16 225,102.88 227.74,102.88 227.74,102.61 230.48,102.61 230.48,102.33 233.22,102.33 233.22,102.05 235.96,102.05 235.96,101.78 238.7,101.78 238.7,101.5 241.44,101.5 241.44,101.22 244.18,101.22 244.18,100.95 246.92,100.95 246.92,100.67 249.66,100.67 249.66,100.39 252.4,100.39 252.4,100.12 255.14,100.12 255.14,99.84 257.88,99.84 257.88,99.56 260.62,99.56 260.62,99.28 263.36,99.28 263.36,99.01 266.1,99.01 266.1,98.73 268.84,98.73 268.84,98.45 271.58,98.45 271.58,98.17 274.32,98.17 274.32,97.89 277.05,97.89 277.05,97.61 279.79,97.61 279.79,97.33 282.53,97.33 282.53,97.05 285.27,97.05 285.27,96.77 288.01,96.77 288.01,96.48 290.75,96.48 290.75,96.2 293.49,96.2 293.49,95.92 296.23,95.92 296.23,95.63 298.97,95.63 298.97,95.35 301.71,95.35 301.71,95.06 304.45,95.06 304.45,94.77 307.19,94.77 307.19,94.49 309.93,94.49 309.93,94.2 312.67,94.2 312.67,93.91 315.41,93.91 315.41,93.62 318.15,93.62 318.15,93.32 320.89,93.32 320.89,93.03 323.63,93.03 323.63,92.74 326.37,92.74 326.37,92.44 329.11,92.44 329.11,92.15 331.85,92.15 331.85,91.85 334.59,91.85 334.59,91.55 337.33,91.55 337.33,91.26 340.07,91.26 340.07,90.96 342.81,90.96 342.81,90.66 345.55,90.66 345.55,90.36 348.29,90.36 348.29,90.06 351.03,90.06 351.03,89.76 353.77,89.76 353.77,89.46 356.51,89.46 356.51,89.16 359.25,89.16 359.25,88.86 361.99,88.86 361.99,88.56 364.73,88.56 364.73,88.26 367.47,88.26 367.47,87.96 370.21,87.96 370.21,87.66 372.95,87.66 372.95,87.37 375.68,87.37 375.68,87.07 378.42,87.07 378.42,86.78 381.16,86.78 381.16,86.48 383.9,86.48 383.9,86.19 386.64,86.19 386.64,85.9 389.38,85.9 389.38,85.61 392.12,85.61 392.12,85.32 394.86,85.32 394.86,85.03 397.6,85.03 397.6,84.75 400.34,84.75 400.34,84.47 403.08,84.47 403.08,84.19 405.82,84.19 405.82,83.91 408.56,83.91 408.56,83.64 411.3,83.64 411.3,83.36 414.04,83.36 414.04,83.1 416.78,83.1 416.78,82.83 419.52,82.83 419.52,82.57 422.26,82.57 422.26,82.32 425,82.32 425,82.06 427.74,82.06 427.74,81.82 430.48,81.82 430.48,81.57 433.22,81.57 433.22,81.34 435.96,81.34 435.96,81.11 438.7,81.11 438.7,80.88 441.44,80.88 441.44,80.66 444.18,80.66 444.18,80.44 446.92,80.44 446.92,80.24 449.66,80.24 449.66,80.04 452.4,80.04 452.4,79.84 455.14,79.84 455.14,79.65 457.88,79.65 457.88,79.47 460.62,79.47 460.62,79.3 463.36,79.3 463.36,79.13 466.1,79.13 466.1,78.98 468.84,78.98 468.84,78.83 471.58,78.83 471.58,78.68 474.32,78.68 474.32,78.55 477.05,78.55 477.05,78.43 479.79,78.43 479.79,78.31 482.53,78.31 482.53,78.2 485.27,78.2 485.27,78.1 488.01,78.1 488.01,78.01 490.75,78.01 490.75,77.93 493.49,77.93 493.49,77.86 496.23,77.86 496.23,77.8 498.97,77.8 498.97,77.75 501.71,77.75 501.71,77.71 504.45,77.71 504.45,77.68 507.19,77.68 507.19,77.65 509.93,77.65 509.93,77.64 512.67,77.64 512.67,77.64 515.41,77.64 515.41,77.65 518.15,77.65 518.15,77.67 520.89,77.67 520.89,77.7 523.63,77.7 523.63,77.74 526.37,77.74 526.37,77.79 529.11,77.79 529.11,77.85 531.85,77.85 531.85,77.92 534.59,77.92 534.59,78 537.33,78 537.33,78.1 540.07,78.1 540.07,78.2 542.81,78.2 542.81,78.31 545.55,78.31 545.55,78.44 548.29,78.44 548.29,78.57 551.03,78.57 551.03,78.71 553.77,78.71 553.77,78.87 556.51,78.87 556.51,79.03 559.25,79.03 559.25,79.21 561.99,79.21 561.99,79.39 564.73,79.39 564.73,79.58 567.47,79.58 567.47,79.79 570.21,79.79 570.21,80 572.95,80 572.95,80.22 575.68,80.22 575.68,80.45 578.42,80.45 578.42,80.69 581.16,80.69 581.16,80.94 583.9,80.94 583.9,81.2 586.64,81.2 586.64,81.47 589.38,81.47 589.38,81.75 592.12,81.75 592.12,82.03 594.86,82.03 594.86,82.32 597.6,82.32 597.6,82.63 600.34,82.63 600.34,82.94 603.08,82.94 603.08,83.25 605.82,83.25 605.82,83.58 608.56,83.58 608.56,83.91 611.3,83.91 611.3,84.25 614.04,84.25 614.04,84.6 616.78,84.6 616.78,84.96 619.52,84.96 619.52,85.32 622.26,85.32 622.26,85.69 625,85.69 625,86.07 627.74,86.07 627.74,86.45 630.48,86.45 630.48,86.84 633.22,86.84 633.22,87.23 635.96,87.23 635.96,87.63 638.7,87.63 638.7,88.04 641.44,88.04 641.44,88.45 644.18,88.45 644.18,88.87 646.92,88.87 646.92,89.29 649.66,89.29 649.66,89.72 652.4,89.72 652.4,90.15 655.14,90.15 655.14,90.59 657.88,90.59 657.88,91.03 660.62,91.03 660.62,91.48 663.36,91.48 663.36,91.93 666.1,91.93 666.1,92.38 668.84,92.38 668.84,92.84 671.58,92.84 671.58,93.3 674.32,93.3 674.32,93.77 677.05,93.77 677.05,94.23 679.79,94.23 679.79,94.71 682.53,94.71 682.53,95.18 685.27,95.18 685.27,95.66 688.01,95.66 688.01,96.14 690.75,96.14 690.75,96.62 693.49,96.62 693.49,97.11 696.23,97.11 696.23,97.59 698.97,97.59 698.97,98.08 701.71,98.08 701.71,98.57 704.45,98.57 704.45,99.07 707.19,99.07 707.19,99.56 709.93,99.56 709.93,100.05 712.67,100.05 712.67,100.55 715.41,100.55 715.41,101.05 718.15,101.05 718.15,101.55 720.89,101.55 720.89,102.05 723.63,102.05 723.63,102.54 726.37,102.54 726.37,103.04 729.11,103.04 729.11,103.54 731.85,103.54 731.85,104.04 734.59,104.04 734.59,104.54 737.33,104.54 737.33,105.04 740.07,105.04 740.07,105.54 742.81,105.54 742.81,106.03 745.55,106.03 745.55,106.53 748.29,106.53 748.29,107.02 751.03,107.02 751.03,107.52 753.77,107.52 753.77,108.01 756.51,108.01 756.51,108.5 759.25,108.5 759.25,108.99 761.99,108.99 761.99,109.48 764.73,109.48 764.73,109.96 767.47,109.96 767.47,110.45 770.21,110.45 770.21,110.93 772.95,110.93 772.95,111.4 775.68,111.4 775.68,111.88 778.42,111.88 778.42,112.35 781.16,112.35 781.16,112.82 783.9,112.82 783.9,113.29 786.64,113.29 786.64,113.75 789.38,113.75 789.38,114.21 792.12,114.21 792.12,114.67 794.86,114.67 794.86,115.12 797.6,115.12 797.6,115.57 800.34,115.57 800.34,116.01 803.08,116.01 803.08,116.45 805.82,116.45 805.82,116.89 808.56,116.89 808.56,117.31 811.3,117.31 811.3,117.74 814.04,117.74 814.04,118.16 816.78,118.16 816.78,118.57 819.52,118.57 819.52,118.98 822.26,118.98 822.26,119.38 825,119.38 825,119.78 827.74,119.78 827.74,120.17 830.48,120.17 830.48,120.56 833.22,120.56 833.22,120.94 835.96,120.94 835.96,121.31 838.7,121.31 838.7,121.68 841.44,121.68 841.44,122.04 844.18,122.04 844.18,122.39 846.92,122.39 846.92,122.73 849.66,122.73 849.66,123.07 852.4,123.07 852.4,123.4 855.14,123.4 855.14,123.73 857.88,123.73 857.88,124.04 860.62,124.04 860.62,145.18 863.36,145.18 863.36,145.48 866.1,145.48 866.1,145.77 868.84,145.77 868.84,146.06 871.58,146.06 871.58,146.33 874.32,146.33 874.32,146.6 877.05,146.6 877.05,146.86 879.79,146.86 879.79,147.1 882.53,147.1 882.53,147.34 885.27,147.34 885.27,147.57 888.01,147.57 888.01,147.79 890.75,147.79 890.75,148.01 893.49,148.01 893.49,148.21 896.23,148.21 896.23,148.4 898.97,148.4 898.97,148.58 901.71,148.58 901.71,148.75 904.45,148.75 904.45,148.91 907.19,148.91 907.19,149.06 909.93,149.06 909.93,149.21 912.67,149.21 912.67,149.34 915.41,149.34 915.41,149.46 918.15,149.46 918.15,149.57 920.89,149.57 920.89,149.67 923.63,149.67 923.63,149.76 926.37,149.76 926.37,149.84 929.11,149.84 929.11,149.91 931.85,149.91 931.85,149.96 934.59,149.96 934.59,150.01 937.33,150.01 937.33,150.05 940.07,150.05 940.07,150.08 942.81,150.08 942.81,150.09 945.55,150.09 945.55,150.1 948.29,150.1 948.29,150.09 951.03,150.09 951.03,150.08 953.77,150.08 953.77,150.05 956.51,150.05 956.51,150.01 959.25,150.01 959.25,149.97 961.99,149.97 961.99,149.91 964.73,149.91 964.73,149.84 967.47,149.84 967.47,149.76 970.21,149.76 970.21,149.68 972.95,149.68 972.95,149.58 975.68,149.58 975.68,149.47 978.42,149.47 978.42,149.35 981.16,149.35 981.16,149.22 983.9,149.22 983.9,149.09 986.64,149.09 986.64,148.94 989.38,148.94 989.38,148.79 992.12,148.79 992.12,148.62 994.86,148.62 994.86,148.45 997.6,148.45 997.6,148.27 1000.34,148.27 1000.34,148.08 1003.08,148.08 1003.08,147.88 1005.82,147.88 1005.82,147.68 1008.56,147.68 1008.56,147.47 1011.3,147.47 1011.3,147.25 1014.04,147.25 1014.04,147.02 1016.78,147.02 1016.78,146.79 1019.52,146.79 1019.52,146.55 1022.26,146.55 1022.26,146.3 1025,146.3 1025,371.82 1022.26,371.82 1022.26,371.91 1019.52,371.91 1019.52,372.01 1016.78,372.01 1016.78,372.11 1014.04,372.11 1014.04,372.23 1011.3,372.23 1011.3,372.35 1008.56,372.35 1008.56,372.49 1005.82,372.49 1005.82,372.63 1003.08,372.63 1003.08,372.78 1000.34,372.78 1000.34,372.94 997.6,372.94 997.6,373.11 994.86,373.11 994.86,373.29 992.12,373.29 992.12,373.48 989.38,373.48 989.38,373.67 986.64,373.67 986.64,373.87 983.9,373.87 983.9,374.08 981.16,374.08 981.16,374.29 978.42,374.29 978.42,374.51 975.68,374.51 975.68,374.74 972.95,374.74 972.95,374.97 970.21,374.97 970.21,375.21 967.47,375.21 967.47,375.46 964.73,375.46 964.73,375.71 961.99,375.71 961.99,375.97 959.25,375.97 959.25,376.23 956.51,376.23 956.51,376.49 953.77,376.49 953.77,376.77 951.03,376.77 951.03,377.04 948.29,377.04 948.29,377.32 945.55,377.32 945.55,377.6 942.81,377.6 942.81,377.89 940.07,377.89 940.07,378.18 937.33,378.18 937.33,378.47 934.59,378.47 934.59,378.77 931.85,378.77 931.85,379.06 929.11,379.06 929.11,379.37 926.37,379.37 926.37,379.67 923.63,379.67 923.63,379.97 920.89,379.97 920.89,380.28 918.15,380.28 918.15,380.59 915.41,380.59 915.41,380.9 912.67,380.9 912.67,381.21 909.93,381.21 909.93,381.52 907.19,381.52 907.19,381.84 904.45,381.84 904.45,382.15 901.71,382.15 901.71,382.46 898.97,382.46 898.97,382.78 896.23,382.78 896.23,383.09 893.49,383.09 893.49,383.4 890.75,383.4 890.75,383.72 888.01,383.72 888.01,384.03 885.27,384.03 885.27,384.34 882.53,384.34 882.53,384.65 879.79,384.65 879.79,384.96 877.05,384.96 877.05,385.27 874.32,385.27 874.32,385.58 871.58,385.58 871.58,385.88 868.84,385.88 868.84,386.19 866.1,386.19 866.1,386.49 863.36,386.49 863.36,386.8 860.62,386.8 860.62,366.26 857.88,366.26 857.88,366.56 855.14,366.56 855.14,366.86 852.4,366.86 852.4,367.16 849.66,367.16 849.66,367.46 846.92,367.46 846.92,367.75 844.18,367.75 844.18,368.04 841.44,368.04 841.44,368.33 838.7,368.33 838.7,368.62 835.96,368.62 835.96,368.91 833.22,368.91 833.22,369.2 830.48,369.2 830.48,369.48 827.74,369.48 827.74,369.77 825,369.77 825,370.05 822.26,370.05 822.26,370.33 819.52,370.33 819.52,370.61 816.78,370.61 816.78,370.88 814.04,370.88 814.04,371.16 811.3,371.16 811.3,371.43 808.56,371.43 808.56,371.7 805.82,371.7 805.82,371.97 803.08,371.97 803.08,372.24 800.34,372.24 800.34,372.5 797.6,372.5 797.6,372.77 794.86,372.77 794.86,373.03 792.12,373.03 792.12,373.29 789.38,373.29 789.38,373.55 786.64,373.55 786.64,373.81 783.9,373.81 783.9,374.07 781.16,374.07 781.16,374.33 778.42,374.33 778.42,374.59 775.68,374.59 775.68,374.84 772.95,374.84 772.95,375.1 770.21,375.1 770.21,375.35 767.47,375.35 767.47,375.61 764.73,375.61 764.73,375.86 761.99,375.86 761.99,376.11 759.25,376.11 759.25,376.37 756.51,376.37 756.51,376.62 753.77,376.62 753.77,376.87 751.03,376.87 751.03,377.12 748.29,377.12 748.29,377.38 745.55,377.38 745.55,377.63 742.81,377.63 742.81,377.88 740.07,377.88 740.07,378.13 737.33,378.13 737.33,378.38 734.59,378.38 734.59,378.63 731.85,378.63 731.85,378.89 729.11,378.89 729.11,379.14 726.37,379.14 726.37,379.39 723.63,379.39 723.63,379.64 720.89,379.64 720.89,379.89 718.15,379.89 718.15,380.15 715.41,380.15 715.41,380.4 712.67,380.4 712.67,380.66 709.93,380.66 709.93,380.91 707.19,380.91 707.19,381.17 704.45,381.17 704.45,381.42 701.71,381.42 701.71,381.68 698.97,381.68 698.97,381.94 696.23,381.94 696.23,382.2 693.49,382.2 693.49,382.46 690.75,382.46 690.75,382.72 688.01,382.72 688.01,382.98 685.27,382.98 685.27,383.24 682.53,383.24 682.53,383.51 679.79,383.51 679.79,383.78 677.05,383.78 677.05,384.04 674.32,384.04 674.32,384.31 671.58,384.31 671.58,384.58 668.84,384.58 668.84,384.85 666.1,384.85 666.1,385.12 663.36,385.12 663.36,385.39 660.62,385.39 660.62,385.67 657.88,385.67 657.88,385.94 655.14,385.94 655.14,386.22 652.4,386.22 652.4,386.49 649.66,386.49 649.66,386.77 646.92,386.77 646.92,387.05 644.18,387.05 644.18,387.32 641.44,387.32 641.44,387.6 638.7,387.6 638.7,387.88 635.96,387.88 635.96,388.16 633.22,388.16 633.22,388.44 630.48,388.44 630.48,388.72 627.74,388.72 627.74,389 625,389 625,389.28 622.26,389.28 622.26,389.56 619.52,389.56 619.52,389.84 616.78,389.84 616.78,390.12 614.04,390.12 614.04,390.4 611.3,390.4 611.3,390.68 608.56,390.68 608.56,390.96 605.82,390.96 605.82,391.24 603.08,391.24 603.08,391.52 600.34,391.52 600.34,391.79 597.6,391.79 597.6,392.07 594.86,392.07 594.86,392.35 592.12,392.35 592.12,392.62 589.38,392.62 589.38,392.89 586.64,392.89 586.64,393.16 583.9,393.16 583.9,393.43 581.16,393.43 581.16,393.69 578.42,393.69 578.42,393.96 575.68,393.96 575.68,394.22 572.95,394.22 572.95,394.47 570.21,394.47 570.21,394.73 567.47,394.73 567.47,394.98 564.73,394.98 564.73,395.22 561.99,395.22 561.99,395.47 559.25,395.47 559.25,395.7 556.51,395.7 556.51,395.94 553.77,395.94 553.77,396.17 551.03,396.17 551.03,396.39 548.29,396.39 548.29,396.61 545.55,396.61 545.55,396.83 542.81,396.83 542.81,397.04 540.07,397.04 540.07,397.24 537.33,397.24 537.33,397.44 534.59,397.44 534.59,397.63 531.85,397.63 531.85,397.81 529.11,397.81 529.11,397.99 526.37,397.99 526.37,398.16 523.63,398.16 523.63,398.33 520.89,398.33 520.89,398.49 518.15,398.49 518.15,398.64 515.41,398.64 515.41,398.78 512.67,398.78 512.67,398.92 509.93,398.92 509.93,399.04 507.19,399.04 507.19,399.16 504.45,399.16 504.45,399.27 501.71,399.27 501.71,399.38 498.97,399.38 498.97,399.47 496.23,399.47 496.23,399.55 493.49,399.55 493.49,399.63 490.75,399.63 490.75,399.69 488.01,399.69 488.01,399.75 485.27,399.75 485.27,399.8 482.53,399.8 482.53,399.84 479.79,399.84 479.79,399.86 477.05,399.86 477.05,399.88 474.32,399.88 474.32,399.89 471.58,399.89 471.58,399.89 468.84,399.89 468.84,399.87 466.1,399.87 466.1,399.85 463.36,399.85 463.36,399.82 460.62,399.82 460.62,399.78 457.88,399.78 457.88,399.72 455.14,399.72 455.14,399.66 452.4,399.66 452.4,399.59 449.66,399.59 449.66,399.51 446.92,399.51 446.92,399.41 444.18,399.41 444.18,399.31 441.44,399.31 441.44,399.2 438.7,399.2 438.7,399.07 435.96,399.07 435.96,398.94 433.22,398.94 433.22,398.8 430.48,398.8 430.48,398.65 427.74,398.65 427.74,398.48 425,398.48 425,398.31 422.26,398.31 422.26,398.13 419.52,398.13 419.52,397.94 416.78,397.94 416.78,397.74 414.04,397.74 414.04,397.53 411.3,397.53 411.3,397.31 408.56,397.31 408.56,397.08 405.82,397.08 405.82,396.84 403.08,396.84 403.08,396.59 400.34,396.59 400.34,396.34 397.6,396.34 397.6,396.07 394.86,396.07 394.86,395.8 392.12,395.8 392.12,395.52 389.38,395.52 389.38,395.23 386.64,395.23 386.64,394.93 383.9,394.93 383.9,394.62 381.16,394.62 381.16,394.31 378.42,394.31 378.42,393.99 375.68,393.99 375.68,393.66 372.95,393.66 372.95,393.32 370.21,393.32 370.21,392.98 367.47,392.98 367.47,392.63 364.73,392.63 364.73,392.27 361.99,392.27 361.99,391.91 359.25,391.91 359.25,391.54 356.51,391.54 356.51,391.16 353.77,391.16 353.77,390.78 351.03,390.78 351.03,390.39 348.29,390.39 348.29,390 345.55,390 345.55,389.6 342.81,389.6 342.81,389.19 340.07,389.19 340.07,388.78 337.33,388.78 337.33,388.37 334.59,388.37 334.59,387.95 331.85,387.95 331.85,387.52 329.11,387.52 329.11,387.09 326.37,387.09 326.37,386.66 323.63,386.66 323.63,386.22 320.89,386.22 320.89,385.78 318.15,385.78 318.15,385.33 315.41,385.33 315.41,384.88 312.67,384.88 312.67,384.43 309.93,384.43 309.93,383.97 307.19,383.97 307.19,383.51 304.45,383.51 304.45,383.05 301.71,383.05 301.71,382.59 298.97,382.59 298.97,382.12 296.23,382.12 296.23,381.65 293.49,381.65 293.49,381.18 290.75,381.18 290.75,380.7 288.01,380.7 288.01,380.22 285.27,380.22 285.27,379.75 282.53,379.75 282.53,379.27 279.79,379.27 279.79,378.79 277.05,378.79 277.05,378.3 274.32,378.3 274.32,377.82 271.58,377.82 271.58,377.34 268.84,377.34 268.84,376.85 266.1,376.85 266.1,376.37 263.36,376.37 263.36,375.88 260.62,375.88 260.62,375.4 257.88,375.4 257.88,374.91 255.14,374.91 255.14,374.43 252.4,374.43 252.4,373.94 249.66,373.94 249.66,373.46 246.92,373.46 246.92,372.97 244.18,372.97 244.18,372.49 241.44,372.49 241.44,372.01 238.7,372.01 238.7,371.53 235.96,371.53 235.96,371.05 233.22,371.05 233.22,370.57 230.48,370.57 230.48,370.09 227.74,370.09 227.74,369.62 225,369.62 225,369.14 222.26,369.14 222.26,368.67 219.52,368.67 219.52,368.2 216.78,368.2 216.78,367.74 214.04,367.74 214.04,367.27 211.3,367.27 211.3,366.81 208.56,366.81 208.56,387.19 205.82,387.19 205.82,386.74 203.08,386.74 203.08,386.29 200.34,386.29 200.34,385.84 197.6,385.84 197.6,385.4 194.86,385.4 194.86,384.96 192.12,384.96 192.12,384.52 189.38,384.52 189.38,384.09 186.64,384.09 186.64,383.66 183.9,383.66 183.9,383.24 181.16,383.24 181.16,382.83 178.42,382.83 178.42,382.41 175.68,382.41 175.68,382.01 172.95,382.01 172.95,381.61 170.21,381.61 170.21,381.21 167.47,381.21 167.47,380.82 164.73,380.82 164.73,380.43 161.99,380.43 161.99,380.06 159.25,380.06 159.25,379.68 156.51,379.68 156.51,379.32 153.77,379.32 153.77,378.95 151.03,378.95 151.03,378.6 148.29,378.6 148.29,378.25 145.55,378.25 145.55,377.91 142.81,377.91 142.81,377.58 140.07,377.58 140.07,377.25 137.33,377.25 137.33,376.94 134.59,376.94 134.59,376.63 131.85,376.63 131.85,376.32 129.11,376.32 129.11,376.03 126.37,376.03 126.37,375.74 123.63,375.74 123.63,375.46 120.89,375.46 120.89,375.19 118.15,375.19 118.15,374.93 115.41,374.93 115.41,374.68 112.67,374.68 112.67,374.43 109.93,374.43 109.93,374.2 107.19,374.2 107.19,373.97 104.45,373.97 104.45,373.76 101.71,373.76 101.71,373.55 98.97,373.55 98.97,373.35 96.23,373.35 96.23,373.16 93.49,373.16 93.49,372.98 90.75,372.98 90.75,372.81 88.01,372.81 88.01,372.65 85.27,372.65 85.27,372.5 82.53,372.5 82.53,372.36 79.79,372.36 79.79,372.23 77.05,372.23 77.05,372.12 74.32,372.12 74.32,372.01 71.58,372.01 71.58,371.91 68.84,371.91 68.84,371.82 66.1,371.82 66.1,371.74 63.36,371.74 63.36,371.67 60.62,371.67 60.62,371.61 57.88,371.61 57.88,371.56 55.14,371.56 55.14,371.53 52.4,371.53 52.4,371.5 49.66,371.5 49.66,371.48 46.92,371.48 46.92,371.48 44.18,371.48 44.18,371.48 41.44,371.48 41.44,371.5 38.7,371.5 38.7,371.52 35.96,371.52 35.96,371.56 33.22,371.56 33.22,371.6 30.48,371.6 30.48,371.66 27.74,371.66 27.74,371.73" fill="#0060c0" stroke="none" stroke-width="0"/>
<polygon points="25,362.07 25,155.64 27.74,155.64 27.74,155.37 30.48,155.37 30.48,155.09 33.22,155.09 33.22,154.81 35.96,154.81 35.96,154.52 38.7,154.52 38.7,154.23 41.44,154.23 41.44,153.93 44.18,153.93 44.18,153.63 46.92,153.63 46.92,153.32 49.66,153.32 49.66,153.01 52.4,153.01 52.4,152.69 55.14,152.69 55.14,152.37 57.88,152.37 57.88,152.05 60.62,152.05 60.62,151.72 63.36,151.72 63.36,151.39 66.1,151.39 66.1,151.06 68.84,151.06 68.84,150.73 71.58,150.73 71.58,150.39 74.32,150.39 74.32,150.05 77.05,150.05 77.05,149.71 79.79,149.71 79.79,149.36 82.53,149.36 82.53,149.02 85.27,149.02 85.27,148.67 88.01,148.67 88.01,148.33 90.75,148.33 90.75,147.98 93.49,147.98 93.49,147.63 96.23,147.63 96.23,147.28 98.97,147.28 98.97,146.94 101.71,146.94 101.71,146.59 104.45,146.59 104.45,146.24 107.19,146.24 107.19,145.89 109.93,145.89 109.93,145.54 112.67,145.54 112.67,145.2 115.41,145.2 115.41,144.85 118.15,144.85 118.15,144.51 120.89,144.51 120.89,144.17 123.63,144.17 123.63,143.82 126.37,143.82 126.37,143.48 129.11,143.48 129.11,143.15 131.85,143.15 131.85,142.81 134.59,142.81 134.59,142.47 137.33,142.47 137.33,142.14 140.07,142.14 140.07,141.81 142.81,141.81 142.81,141.48 145.55,141.48 145.55,141.15 148.29,141.15 148.29,140.82 151.03,140.82 151.03,140.5 153.77,140.5 153.77,140.17 156.51,140.17 156.51,139.85 159.25,139.85 159.25,139.53 161.99,139.53 161.99,139.22 164.73,139.22 164.73,138.9 167.47,138.9 167.47,138.59 170.21,138.59 170.21,138.27 172.95,138.27 172.95,137.96 175.68,137.96 175.68,137.66 178.42,137.66 178.42,137.35 181.16,137.35 181.16,137.05 183.9,137.05 183.9,136.74 186.64,136.74 186.64,136.44 189.38,136.44 189.38,136.14 192.12,136.14 192.12,135.85 194.86,135.85 194.86,135.55 197.6,135.55 197.6,135.26 200.34,135.26 200.34,134.97 203.08,134.97 203.08,134.68 205.82,134.68 205.82,134.39 208.56,134.39 208.56,113.27 211.3,113.27 211.3,112.99 214.04,112.99 214.04,112.71 216.78,112.71 216.78,112.42 219.52,112.42 219.52,112.14 222.26,112.14 222.26,111.87 225,111.87 225,111.59 227.74,111.59 227.74,111.31 230.48,111.31 230.48,111.04 233.22,111.04 233.22,110.76 235.96,110.76 235.96,110.49 238.7,110.49 238.7,110.21 241.44,110.21 241.44,109.94 244.18,109.94 244.18,109.67 246.92,109.67 246.92,109.4 249.66,109.4 249.66,109.13 252.4,109.13 252.4,108.86 255.14,108.86 255.14,108.59 257.88,108.59 257.88,108.32 260.62,108.32 260.62,108.05 263.36,108.05 263.36,107.78 266.1,107.78 266.1,107.51 268.84,107.51 268.84,107.24 271.58,107.24 271.58,106.97 274.32,106.97 274.32,106.7 277.05,106.7 277.05,106.43 279.79,106.43 279.79,106.16 282.53,106.16 282.53,105.9 285.27,105.9 285.27,105.63 288.01,105.63 288.01,105.36 290.75,105.36 290.75,105.09 293.49,105.09 293.49,104.82 296.23,104.82 296.23,104.55 298.97,104.55 298.97,104.28 301.71,104.28 301.71,104.01 304.45,104.01 304.45,103.74 307.19,103.74 307.19,103.47 309.93,103.47 309.93,103.2 312.67,103.2 312.67,102.93 315.41,102.93 315.41,102.66 318.15,102.66 318.15,102.39 320.89,102.39 320.89,102.11 323.63,102.11 323.63,101.84 326.37,101.84 326.37,101.57 329.11,101.57 329.11,101.29 331.85,101.29 331.85,101.02 334.59,101.02 334.59,100.74 337.33,100.74 337.33,100.47 340.07,100.47 340.07,100.19 342.81,100.19 342.81,99.91 345.55,99.91 345.55,99.64 348.29,99.64 348.29,99.36 351.03,99.36 351.03,99.08 353.77,99.08 353.77,98.81 356.51,98.81 356.51,98.53 359.25,98.53 359.25,98.26 361.99,98.26 361.99,97.98 364.73,97.98 364.73,97.71 367.47,97.71 367.47,97.43 370.21,97.43 370.21,97.16 372.95,97.16 372.95,96.89 375.68,96.89 375.68,96.62 378.42,96.62 378.42,96.34 381.16,96.34 381.16,96.08 383.9,96.08 383.9,95.81 386.64,95.81 386.64,95.54 389.38,95.54 389.38,95.27 392.12,95.27 392.12,95.01 394.86,95.01 394.86,94.75 397.6,94.75 397.6,94.49 400.34,94.49 400.34,94.23 403.08,94.23 403.08,93.97 405.82,93.97 405.82,93.72 408.56,93.72 408.56,93.47 411.3,93.47 411.3,93.22 414.04,93.22 414.04,92.98 416.78,92.98 416.78,92.73 419.52,92.73 419.52,92.49 422.26,92.49 422.26,92.26 425,92.26 425,92.03 427.74,92.03 427.74,91.8 430.48,91.8 430.48,91.58 433.22,91.58 433.22,91.36 435.96,91.36 435.96,91.14 438.7,91.14 438.7,90.93 441.44,90.93 441.44,90.73 444.18,90.73 444.18,90.53 446.92,90.53 446.92,90.34 449.66,90.34 449.66,90.15 452.4,90.15 452.4,89.97 455.14,89.97 455.14,89.79 457.88,89.79 457.88,89.63 460.62,89.63 460.62,89.46 463.36,89.46 463.36,89.31 466.1,89.31 466.1,89.16 468.84,89.16 468.84,89.02 471.58,89.02 471.58,88.88 474.32,88.88 474.32,88.76 477.05,88.76 477.05,88.64 479.79,88.64 479.79,88.52 482.53,88.52 482.53,88.42 485.27,88.42 485.27,88.32 488.01,88.32 488.01,88.23 490.75,88.23 490.75,88.15 493.49,88.15 493.49,88.08 496.23,88.08 496.23,88.02 498.97,88.02 498.97,87.97 501.71,87.97 501.71,87.92 504.45,87.92 504.45,87.88 507.19,87.88 507.19,87.86 509.93,87.86 509.93,87.84 512.67,87.84 512.67,87.83 515.41,87.83 515.41,87.83 518.15,87.83 518.15,87.84 520.89,87.84 520.89,87.86 523.63,87.86 523.63,87.89 526.37,87.89 526.37,87.92 529.11,87.92 529.11,87.97 531.85,87.97 531.85,88.03 534.59,88.03 534.59,88.1 537.33,88.1 537.33,88.18 540.07,88.18 540.07,88.26 542.81,88.26 542.81,88.36 545.55,88.36 545.55,88.47 548.29,88.47 548.29,88.58 551.03,88.58 551.03,88.71 553.77,88.71 553.77,88.84 556.51,88.84 556.51,88.99 559.25,88.99 559.25,89.14 561.99,89.14 561.99,89.3 564.73,89.3 564.73,89.48 567.47,89.48 567.47,89.66 570.21,89.66 570.21,89.85 572.95,89.85 572.95,90.05 575.68,90.05 575.68,90.26 578.42,90.26 578.42,90.47 581.16,90.47 581.16,90.7 583.9,90.7 583.9,90.94 586.64,90.94 586.64,91.18 589.38,91.18 589.38,91.43 592.12,91.43 592.12,91.69 594.86,91.69 594.86,91.96 597.6,91.96 597.6,92.24 600.34,92.24 600.34,92.52 603.08,92.52 603.08,92.82 605.82,92.82 605.82,93.12 608.56,93.12 608.56,93.43 611.3,93.43 611.3,93.74 614.04,93.74 614.04,94.07 616.78,94.07 616.78,94.4 619.52,94.4 619.52,94.74 622.26,94.74 622.26,95.08 625,95.08 625,95.43 627.74,95.43 627.74,95.79 630.48,95.79 630.48,96.16 633.22,96.16 633.22,96.53 635.96,96.53 635.96,96.91 638.7,96.91 638.7,97.29 641.44,97.29 641.44,97.68 644.18,97.68 644.18,98.07 646.92,98.07 646.92,98.47 649.66,98.47 649.66,98.88 652.4,98.88 652.4,99.29 655.14,99.29 655.14,99.71 657.88,99.71 657.88,100.13 660.62,100.13 660.62,100.55 663.36,100.55 663.36,100.98 666.1,100.98 666.1,101.42 668.84,101.42 668.84,101.86 671.58,101.86 671.58,102.3 674.32,102.3 674.32,102.75 677.05,102.75 677.05,103.2 679.79,103.2 679.79,103.65 682.53,103.65 682.53,104.11 685.27,104.11 685.27,104.57 688.01,104.57 688.01,105.04 690.75,105.04 690.75,105.51 693.49,105.51 693.49,105.98 696.23,105.98 696.23,106.45 698.97,106.45 698.97,106.92 701.71,106.92 701.71,107.4 704.45,107.4 704.45,107.88 707.19,107.88 707.19,108.37 709.93,108.37 709.93,108.85 712.67,108.85 712.67,109.34 715.41,109.34 715.41,109.82 718.15,109.82 718.15,110.31 720.89,110.31 720.89,110.8 723.63,110.8 723.63,111.29 726.37,111.29 726.37,111.78 729.11,111.78 729.11,112.27 731.85,112.27 731.85,112.77 734.59,112.77 734.59,113.26 737.33,113.26 737.33,113.75 740.07,113.75 740.07,114.25 742.81,114.25 742.81,114.74 745.55,114.74 745.55,115.23 748.29,115.23 748.29,115.72 751.03,115.72 751.03,116.21 753.77,116.21 753.77,116.7 756.51,116.7 756.51,117.19 759.25,117.19 759.25,117.68 761.99,117.68 761.99,118.17 764.73,118.17 764.73,118.65 767.47,118.65 767.47,119.14 770.21,119.14 770.21,119.62 772.95,119.62 772.95,120.1 775.68,120.1 775.68,120.58 778.42,120.58 778.42,121.06 781.16,121.06 781.16,121.53 783.9,121.53 783.9,122 786.64,122 786.64,122.47 789.38,122.47 789.38,122.94 792.12,122.94 792.12,123.4 794.86,123.4 794.86,123.86 797.6,123.86 797.6,124.31 800.34,124.31 800.34,124.76 803.08,124.76 803.08,125.21 805.82,125.21 805.82,125.65 808.56,125.65 808.56,126.09 811.3,126.09 811.3,126.53 814.04,126.53 814.04,126.96 816.78,126.96 816.78,127.38 819.52,127.38 819.52,127.8 822.26,127.8 822.26,128.22 825,128.22 825,128.63 827.74,128.63 827.74,129.03 830.48,129.03 830.48,129.43 833.22,129.43 833.22,129.82 835.96,129.82 835.96,130.21 838.7,130.21 838.7,130.59 841.44,130.59 841.44,130.97 844.18,130.97 844.18,131.33 846.92,131.33 846.92,131.69 849.66,131.69 849.66,132.05 852.4,132.05 852.4,132.4 855.14,132.4 855.14,132.74 857.88,132.74 857.88,133.07 860.62,133.07 860.62,154.23 863.36,154.23 863.36,154.54 866.1,154.54 866.1,154.85 868.84,154.85 868.84,155.16 871.58,155.16 871.58,155.45 874.32,155.45 874.32,155.73 877.05,155.73 877.05,156.01 879.79,156.01 879.79,156.28 882.53,156.28 882.53,156.53 885.27,156.53 885.27,156.78 888.01,156.78 888.01,157.02 890.75,157.02 890.75,157.25 893.49,157.25 893.49,157.47 896.23,157.47 896.23,157.68 898.97,157.68 898.97,157.88 901.71,157.88 901.71,158.07 904.45,158.07 904.45,158.25 907.19,158.25 907.19,158.42 909.93,158.42 909.93,158.58 912.67,158.58 912.67,158.73 915.41,158.73 915.41,158.87 918.15,158.87 918.15,159 920.89,159 920.89,159.11 923.63,159.11 923.63,159.22 926.37,159.22 926.37,159.32 929.11,159.32 929.11,159.4 931.85,159.4 931.85,159.48 934.59,159.48 934.59,159.54 937.33,159.54 937.33,159.59 940.07,159.59 940.07,159.63 942.81,159.63 942.81,159.66 945.55,159.66 945.55,159.68 948.29,159.68 948.29,159.69 951.03,159.69 951.03,159.68 953.77,159.68 953.77,159.67 956.51,159.67 956.51,159.64 959.25,159.64 959.25,159.61 961.99,159.61 961.99,159.56 964.73,159.56 964.73,159.5 967.47,159.5 967.47,159.43 970.21,159.43 970.21,159.35 972.95,159.35 972.95,159.26 975.68,159.26 975.68,159.16 978.42,159.16 978.42,159.04 981.16,159.04 981.16,158.92 983.9,158.92 983.9,158.79 986.64,158.79 986.64,158.64 989.38,158.64 989.38,158.49 992.12,158.49 992.12,158.33 994.86,158.33 994.86,158.16 997.6,158.16 997.6,157.97 1000.34,157.97 1000.34,157.78 1003.08,157.78 1003.08,157.59 1005.82,157.59 1005.82,157.38 1008.56,157.38 1008.56,157.16 1011.3,157.16 1011.3,156.94 1014.04,156.94 1014.04,156.7 1016.78,156.7 1016.78,156.47 1019.52,156.47 1019.52,156.22 1022.26,156.22 1022.26,155.96 1025,155.96 1025,362.16 1022.26,362.16 1022.26,362.24 1019.52,362.24 1019.52,362.33 1016.78,362.33 1016.78,362.43 1014.04,362.43 1014.04,362.54 1011.3,362.54 1011.3,362.66 1008.56,362.66 1008.56,362.79 1005.82,362.79 1005.82,362.93 1003.08,362.93 1003.08,363.08 1000.34,363.08 1000.34,363.24 997.6,363.24 997.6,363.41 994.86,363.41 994.86,363.59 992.12,363.59 992.12,363.77 989.38,363.77 989.38,363.97 986.64,363.97 986.64,364.17 983.9,364.17 983.9,364.38 981.16,364.38 981.16,364.6 978.42,364.6 978.42,364.83 975.68,364.83 975.68,365.06 972.95,365.06 972.95,365.3 970.21,365.3 970.21,365.55 967.47,365.55 967.47,365.8 964.73,365.8 964.73,366.06 961.99,366.06 961.99,366.33 959.25,366.33 959.25,366.6 956.51,366.6 956.51,366.88 953.77,366.88 953.77,367.16 951.03,367.16 951.03,367.44 948.29,367.44 948.29,367.74 945.55,367.74 945.55,368.03 942.81,368.03 942.81,368.33 940.07,368.33 940.07,368.64 937.33,368.64 937.33,368.94 934.59,368.94 934.59,369.25 931.85,369.25 931.85,369.57 929.11,369.57 929.11,369.89 926.37,369.89 926.37,370.21 923.63,370.21 923.63,370.53 920.89,370.53 920.89,370.85 918.15,370.85 918.15,371.18 915.41,371.18 915.41,371.51 912.67,371.51 912.67,371.84 909.93,371.84 909.93,372.17 907.19,372.17 907.19,372.5 904.45,372.5 904.45,372.83 901.71,372.83 901.71,373.16 898.97,373.16 898.97,373.49 896.23,373.49 896.23,373.82 893.49,373.82 893.49,374.16 890.75,374.16 890.75,374.49 888.01,374.49 888.01,374.82 885.27,374.82 885.27,375.15 882.53,375.15 882.53,375.48 879.79,375.48 879.79,375.81 877.05,375.81 877.05,376.13 874.32,376.13 874.32,376.46 871.58,376.46 871.58,376.78 868.84,376.78 868.84,377.11 866.1,377.11 866.1,377.43 863.36,377.43 863.36,377.75 860.62,377.75 860.62,357.23 857.88,357.23 857.88,357.55 855.14,357.55 855.14,357.87 852.4,357.87 852.4,358.18 849.66,358.18 849.66,358.49 846.92,358.49 846.92,358.8 844.18,358.8 844.18,359.11 841.44,359.11 841.44,359.41 838.7,359.41 838.7,359.72 835.96,359.72 835.96,360.02 833.22,360.02 833.22,360.32 830.48,360.32 830.48,360.62 827.74,360.62 827.74,360.91 825,360.91 825,361.21 822.26,361.21 822.26,361.5 819.52,361.5 819.52,361.79 816.78,361.79 816.78,362.07 814.04,362.07 814.04,362.36 811.3,362.36 811.3,362.64 808.56,362.64 808.56,362.92 805.82,362.92 805.82,363.2 803.08,363.2 803.08,363.48 800.34,363.48 800.34,363.75 797.6,363.75 797.6,364.02 794.86,364.02 794.86,364.29 792.12,364.29 792.12,364.56 789.38,364.56 789.38,364.83 786.64,364.83 786.64,365.09 783.9,365.09 783.9,365.35 781.16,365.35 781.16,365.61 778.42,365.61 778.42,365.87 775.68,365.87 775.68,366.13 772.95,366.13 772.95,366.39 770.21,366.39 770.21,366.65 767.47,366.65 767.47,366.9 764.73,366.9 764.73,367.16 761.99,367.16 761.99,367.41 759.25,367.41 759.25,367.66 756.51,367.66 756.51,367.91 753.77,367.91 753.77,368.16 751.03,368.16 751.03,368.41 748.29,368.41 748.29,368.66 745.55,368.66 745.55,368.91 742.81,368.91 742.81,369.15 740.07,369.15 740.07,369.4 737.33,369.4 737.33,369.65 734.59,369.65 734.59,369.89 731.85,369.89 731.85,370.14 729.11,370.14 729.11,370.38 726.37,370.38 726.37,370.63 723.63,370.63 723.63,370.87 720.89,370.87 720.89,371.11 718.15,371.11 718.15,371.36 715.41,371.36 715.41,371.6 712.67,371.6 712.67,371.84 709.93,371.84 709.93,372.09 707.19,372.09 707.19,372.33 704.45,372.33 704.45,372.57 701.71,372.57 701.71,372.82 698.97,372.82 698.97,373.06 696.23,373.06 696.23,373.31 693.49,373.31 693.49,373.55 690.75,373.55 690.75,373.8 688.01,373.8 688.01,374.04 685.27,374.04 685.27,374.29 682.53,374.29 682.53,374.54 679.79,374.54 679.79,374.79 677.05,374.79 677.05,375.04 674.32,375.04 674.32,375.29 671.58,375.29 671.58,375.54 668.84,375.54 668.84,375.79 666.1,375.79 666.1,376.04 663.36,376.04 663.36,376.29 660.62,376.29 660.62,376.55 657.88,376.55 657.88,376.8 655.14,376.8 655.14,377.05 652.4,377.05 652.4,377.31 649.66,377.31 649.66,377.56 646.92,377.56 646.92,377.82 644.18,377.82 644.18,378.07 641.44,378.07 641.44,378.33 638.7,378.33 638.7,378.58 635.96,378.58 635.96,378.84 633.22,378.84 633.22,379.09 630.48,379.09 630.48,379.35 627.74,379.35 627.74,379.61 625,379.61 625,379.86 622.26,379.86 622.26,380.12 619.52,380.12 619.52,380.38 616.78,380.38 616.78,380.63 614.04,380.63 614.04,380.89 611.3,380.89 611.3,381.14 608.56,381.14 608.56,381.4 605.82,381.4 605.82,381.65 603.08,381.65 603.08,381.91 600.34,381.91 600.34,382.16 597.6,382.16 597.6,382.41 594.86,382.41 594.86,382.66 592.12,382.66 592.12,382.91 589.38,382.91 589.38,383.16 586.64,383.16 586.64,383.4 583.9,383.4 583.9,383.65 581.16,383.65 581.16,383.89 578.42,383.89 578.42,384.13 575.68,384.13 575.68,384.37 572.95,384.37 572.95,384.6 570.21,384.6 570.21,384.84 567.47,384.84 567.47,385.06 564.73,385.06 564.73,385.29 561.99,385.29 561.99,385.51 559.25,385.51 559.25,385.73 556.51,385.73 556.51,385.95 553.77,385.95 553.77,386.16 551.03,386.16 551.03,386.36 548.29,386.36 548.29,386.56 545.55,386.56 545.55,386.76 542.81,386.76 542.81,386.96 540.07,386.96 540.07,387.14 537.33,387.14 537.33,387.33 534.59,387.33 534.59,387.5 531.85,387.5 531.85,387.68 529.11,387.68 529.11,387.84 526.37,387.84 526.37,388 523.63,388 523.63,388.16 520.89,388.16 520.89,388.31 518.15,388.31 518.15,388.45 515.41,388.45 515.41,388.59 512.67,388.59 512.67,388.71 509.93,388.71 509.93,388.84 507.19,388.84 507.19,388.95 504.45,388.95 504.45,389.06 501.71,389.06 501.71,389.16 498.97,389.16 498.97,389.25 496.23,389.25 496.23,389.33 493.49,389.33 493.49,389.41 490.75,389.41 490.75,389.47 488.01,389.47 488.01,389.53 485.27,389.53 485.27,389.58 482.53,389.58 482.53,389.63 479.79,389.63 479.79,389.66 477.05,389.66 477.05,389.68 474.32,389.68 474.32,389.7 471.58,389.7 471.58,389.7 468.84,389.7 468.84,389.7 466.1,389.7 466.1,389.69 463.36,389.69 463.36,389.66 460.62,389.66 460.62,389.63 457.88,389.63 457.88,389.59 455.14,389.59 455.14,389.54 452.4,389.54 452.4,389.49 449.66,389.49 449.66,389.42 446.92,389.42 446.92,389.34 444.18,389.34 444.18,389.26 441.44,389.26 441.44,389.16 438.7,389.16 438.7,389.05 435.96,389.05 435.96,388.94 433.22,388.94 433.22,388.82 430.48,388.82 430.48,388.68 427.74,388.68 427.74,388.54 425,388.54 425,388.39 422.26,388.39 422.26,388.23 419.52,388.23 419.52,388.06 416.78,388.06 416.78,387.88 414.04,387.88 414.04,387.69 411.3,387.69 411.3,387.5 408.56,387.5 408.56,387.29 405.82,387.29 405.82,387.08 403.08,387.08 403.08,386.85 400.34,386.85 400.34,386.62 397.6,386.62 397.6,386.38 394.86,386.38 394.86,386.13 392.12,386.13 392.12,385.87 389.38,385.87 389.38,385.61 386.64,385.61 386.64,385.33 383.9,385.33 383.9,385.05 381.16,385.05 381.16,384.76 378.42,384.76 378.42,384.47 375.68,384.47 375.68,384.16 372.95,384.16 372.95,383.85 370.21,383.85 370.21,383.53 367.47,383.53 367.47,383.21 364.73,383.21 364.73,382.88 361.99,382.88 361.99,382.54 359.25,382.54 359.25,382.19 356.51,382.19 356.51,381.84 353.77,381.84 353.77,381.48 351.03,381.48 351.03,381.12 348.29,381.12 348.29,380.75 345.55,380.75 345.55,380.37 342.81,380.37 342.81,379.99 340.07,379.99 340.07,379.6 337.33,379.6 337.33,379.21 334.59,379.21 334.59,378.81 331.85,378.81 331.85,378.4 329.11,378.4 329.11,378 326.37,378 326.37,377.58 323.63,377.58 323.63,377.16 320.89,377.16 320.89,376.74 318.15,376.74 318.15,376.32 315.41,376.32 315.41,375.88 312.67,375.88 312.67,375.45 309.93,375.45 309.93,375.01 307.19,375.01 307.19,374.57 304.45,374.57 304.45,374.12 301.71,374.12 301.71,373.67 298.97,373.67 298.97,373.22 296.23,373.22 296.23,372.77 293.49,372.77 293.49,372.31 290.75,372.31 290.75,371.85 288.01,371.85 288.01,371.38 285.27,371.38 285.27,370.92 282.53,370.92 282.53,370.45 279.79,370.45 279.79,369.98 277.05,369.98 277.05,369.51 274.32,369.51 274.32,369.04 271.58,369.04 271.58,368.57 268.84,368.57 268.84,368.09 266.1,368.09 266.1,367.62 263.36,367.62 263.36,367.14 260.62,367.14 260.62,366.66 257.88,366.66 257.88,366.18 255.14,366.18 255.14,365.7 252.4,365.7 252.4,365.22 249.66,365.22 249.66,364.74 246.92,364.74 246.92,364.27 244.18,364.27 244.18,363.79 241.44,363.79 241.44,363.31 238.7,363.31 238.7,362.83 235.96,362.83 235.96,362.35 233.22,362.35 233.22,361.87 230.48,361.87 230.48,361.4 227.74,361.4 227.74,360.92 225,360.92 225,360.45 222.26,360.45 222.26,359.98 219.52,359.98 219.52,359.51 216.78,359.51 216.78,359.04 214.04,359.04 214.04,358.57 211.3,358.57 211.3,358.11 208.56,358.11 208.56,378.48 205.82,378.48 205.82,378.02 203.08,378.02 203.08,377.57 200.34,377.57 200.34,377.12 197.6,377.12 197.6,376.67 194.86,376.67 194.86,376.22 192.12,376.22 192.12,375.78 189.38,375.78 189.38,375.34 186.64,375.34 186.64,374.91 183.9,374.91 183.9,374.48 181.16,374.48 181.16,374.05 178.42,374.05 178.42,373.63 175.68,373.63 175.68,373.21 172.95,373.21 172.95,372.8 170.21,372.8 170.21,372.39 167.47,372.39 167.47,371.99 164.73,371.99 164.73,371.59 161.99,371.59 161.99,371.2 159.25,371.2 159.25,370.81 156.51,370.81 156.51,370.43 153.77,370.43 153.77,370.05 151.03,370.05 151.03,369.69 148.29,369.69 148.29,369.32 145.55,369.32 145.55,368.97 142.81,368.97 142.81,368.62 140.07,368.62 140.07,368.28 137.33,368.28 137.33,367.94 134.59,367.94 134.59,367.61 131.85,367.61 131.85,367.29 129.11,367.29 129.11,366.98 126.37,366.98 126.37,366.68 123.63,366.68 123.63,366.38 120.89,366.38 120.89,366.09 118.15,366.09 118.15,365.81 115.41,365.81 115.41,365.54 112.67,365.54 112.67,365.28 109.93,365.28 109.93,365.02 107.19,365.02 107.19,364.78 104.45,364.78 104.45,364.54 101.71,364.54 101.71,364.32 98.97,364.32 98.97,364.1 96.23,364.1 96.23,363.89 93.49,363.89 93.49,363.7 90.75,363.7 90.75,363.51 88.01,363.51 88.01,363.33 85.27,363.33 85.27,363.16 82.53,363.16 82.53,363 79.79,363 79.79,362.85 77.05,362.85 77.05,362.72 74.32,362.72 74.32,362.59 71.58,362.59 71.58,362.47 68.84,362.47 68.84,362.37 66.1,362.37 66.1,362.27 63.36,362.27 63.36,362.19 60.62,362.19 60.62,362.11 57.88,362.11 57.88,362.05 55.14,362.05 55.14,361.99 52.4,361.99 52.4,361.95 49.66,361.95 49.66,361.92 46.92,361.92 46.92,361.9 44.18,361.9 44.18,361.89 41.44,361.89 41.44,361.9 38.7,361.9 38.7,361.91 35.96,361.91 35.96,361.93 33.22,361.93 33.22,361.97 30.48,361.97 30.48,362.02 27.74,362.02 27.74,362.07" fill="#80c0ff" stroke="none" stroke-width="0"/>
<polyline points="26.37,508.96 29.11,508.8 31.85,508.64 34.59,508.48 37.33,508.32 40.07,508.17 42.81,508.02 45.55,507.87 48.29,507.73 51.03,507.59 53.77,507.45 56.51,507.32 59.25,507.19 61.99,507.06 64.73,506.94 67.47,506.82 70.21,506.7 72.95,506.59 75.68,506.49 78.42,506.38 81.16,506.28 83.9,506.19 86.64,506.1 89.38,506.02 92.12,505.93 94.86,505.86 97.6,505.79 100.34,505.72 103.08,505.66 105.82,505.6 108.56,505.55 111.3,505.5 114.04,505.46 116.78,505.42 119.52,505.38 122.26,505.36 125,505.33 127.74,505.31 130.48,505.3 133.22,505.29 135.96,505.28 138.7,505.28 141.44,505.29 144.18,505.29 146.92,505.31 149.66,505.32 152.4,505.34 155.14,505.37 157.88,505.4 160.62,505.43 163.36,505.47 166.1,505.51 168.84,505.55 171.58,505.6 174.32,505.65 177.05,505.7 179.79,505.76 182.53,505.82 185.27,505.88 188.01,505.95 190.75,506.01 193.49,506.09 196.23,506.16 198.97,506.24 201.71,506.32 204.45,506.4 207.19,506.49 209.93,506.57" fill="none" stroke="#0000ff" stroke-width="1"/>
<polyline points="212.67,485.83 215.41,485.92 218.15,486.01 220.89,486.11 223.63,486.2 226.37,486.3 229.11,486.4 231.85,486.5 234.59,486.6 237.33,486.7 240.07,486.8 242.81,486.91 245.55,487.01 248.29,487.11 251.03,487.22 253.77,487.32 256.51,487.43 259.25,487.53 261.99,487.64 264.73,487.74 267.47,487.84 270.21,487.95 272.95,488.05 275.68,488.15 278.42,488.25 281.16,488.36 283.9,488.46 286.64,488.55 289.38,488.65 292.12,488.75 294.86,488.84 297.6,488.94 300.34,489.03 303.08,489.12 305.82,489.21 308.56,489.3 311.3,489.38 314.04,489.46 316.78,489.54 319.52,489.62 322.26,489.7 325,489.77 327.74,489.84 330.48,489.91 333.22,489.97 335.96,490.04 338.7,490.1 341.44,490.15 344.18,490.21 346.92,490.26 349.66,490.31 352.4,490.35 355.14,490.39 357.88,490.43 360.62,490.47 363.36,490.5 366.1,490.53 368.84,490.56 371.58,490.58 374.32,490.6 377.05,490.62 379.79,490.63 382.53,490.64 385.27,490.65 388.01,490.65 390.75,490.65 393.49,490.65 396.23,490.64 398.97,490.63 401.71,490.62 404.45,490.6 407.19,490.58 409.93,490.56 412.67,490.54 415.41,490.51 418.15,490.47 420.89,490.44 423.63,490.4 426.37,490.36 429.11,490.32 431.85,490.27 434.59,490.22 437.33,490.17 440.07,490.12 442.81,490.06 445.55,490.01 448.29,489.95 451.03,489.89 453.77,489.82 456.51,489.76 459.25,489.69 461.99,489.63 464.73,489.56 467.47,489.49 470.21,489.42 472.95,489.34 475.68,489.27 478.42,489.2 481.16,489.12 483.9,489.05 486.64,488.97 489.38,488.9 492.12,488.82 494.86,488.74 497.6,488.67 500.34,488.59 503.08,488.52 505.82,488.44 508.56,488.37 511.3,488.3 514.04,488.22 516.78,488.15 519.52,488.08 522.26,488.02 525,487.95 527.74,487.88 530.48,487.82 533.22,487.76 535.96,487.7 538.7,487.65 541.44,487.59 544.18,487.54 546.92,487.49 549.66,487.45 552.4,487.4 555.14,487.36 557.88,487.32 560.62,487.29 563.36,487.25 566.1,487.22 568.84,487.2 571.58,487.17 574.32,487.15 577.05,487.14 579.79,487.12 582.53,487.11 585.27,487.1 588.01,487.1 590.75,487.1 593.49,487.1 596.23,487.11 598.97,487.11 601.71,487.13 604.45,487.14 607.19,487.17 609.93,487.19 612.67,487.22 615.41,487.25 618.15,487.28 620.89,487.32 623.63,487.36 626.37,487.41 629.11,487.46 631.85,487.51 634.59,487.57 637.33,487.62 640.07,487.69 642.81,487.75 645.55,487.82 648.29,487.89 651.03,487.96 653.77,488.04 656.51,488.12 659.25,488.2 661.99,488.29 664.73,488.37 667.47,488.46 670.21,488.56 672.95,488.65 675.68,488.75 678.42,488.85 681.16,488.95 683.9,489.05 686.64,489.16 689.38,489.27 692.12,489.38 694.86,489.49 697.6,489.6 700.34,489.72 703.08,489.83 705.82,489.95 708.56,490.07 711.3,490.19 714.04,490.31 716.78,490.43 719.52,490.55 722.26,490.68 725,490.8 727.74,490.92 730.48,491.05 733.22,491.17 735.96,491.3 738.7,491.42 741.44,491.54 744.18,491.67 746.92,491.79 749.66,491.91 752.4,492.03 755.14,492.15 757.88,492.27 760.62,492.39 763.36,492.51 766.1,492.63 768.84,492.74 771.58,492.86 774.32,492.97 777.05,493.08 779.79,493.19 782.53,493.3 785.27,493.4 788.01,493.51 790.75,493.61 793.49,493.71 796.23,493.8 798.97,493.9 801.71,493.99 804.45,494.08 807.19,494.16 809.93,494.24 812.67,494.32 815.41,494.4 818.15,494.47 820.89,494.54 823.63,494.6 826.37,494.66 829.11,494.72 831.85,494.77 834.59,494.82 837.33,494.86 840.07,494.91 842.81,494.94 845.55,494.98 848.29,495 851.03,495.03 853.77,495.05 856.51,495.06 859.25,495.07 861.99,495.08" fill="none" stroke="#0000ff" stroke-width="1"/>
<polyline points="861.99,15.92 864.73,15.91 867.47,15.91 870.21,15.89 872.95,15.88 875.68,15.85 878.42,15.83 881.16,15.79 883.9,15.76 886.64,15.72 889.38,15.67 892.12,15.62 894.86,15.56 897.6,15.5 900.34,15.43 903.08,15.36 905.82,15.28 908.56,15.2 911.3,15.11 914.04,15.02 916.78,14.93 919.52,14.83 922.26,14.72 925,14.61 927.74,14.5 930.48,14.39 933.22,14.26 935.96,14.14 938.7,14.01 941.44,13.88 944.18,13.75 946.92,13.61 949.66,13.46 952.4,13.32 955.14,13.17 957.88,13.02 960.62,12.87 963.36,12.71 966.1,12.55 968.84,12.39 971.58,12.23 974.32,12.06 977.05,11.9 979.79,11.73 982.53,11.56 985.27,11.39 988.01,11.21 990.75,11.04 993.49,10.87 996.23,10.7 998.97,10.52 1001.71,10.35 1004.45,10.18 1007.19,10.01" fill="none" stroke="#0000ff" stroke-width="1"/>
<polyline points="1012.67,509.83 1015.41,509.66 1018.15,509.5 1020.89,509.33 1023.63,509.16" fill="none" stroke="#0000ff" stroke-width="1"/>
<polyline points="26.37,258.88 29.11,258.72 31.85,258.56 34.59,258.4 37.33,258.24 40.07,258.09 42.81,257.94 45.55,257.8 48.29,257.66 51.03,257.52 53.77,257.38 56.51,257.25 59.25,257.12 61.99,257 64.73,256.88 67.47,256.76 70.21,256.65 72.95,256.54 75.68,256.43 78.42,256.33 81.16,256.24 83.9,256.14 86.64,256.06 89.38,255.97 92.12,255.9 94.86,255.82 97.6,255.75 100.34,255.69 103.08,255.63 105.82,255.57 108.56,255.52 111.3,255.48 114.04,255.44 116.78,255.4 119.52,255.37 122.26,255.34 125,255.32 127.74,255.31 130.48,255.29 133.22,255.29 135.96,255.28 138.7,255.28 141.44,255.29 144.18,255.3 146.92,255.31 149.66,255.33 152.4,255.36 155.14,255.38 157.88,255.41 160.62,255.45 163.36,255.48 166.1,255.53 168.84,255.57 171.58,255.62 174.32,255.67 177.05,255.73 179.79,255.79 182.53,255.85 185.27,255.91 188.01,255.98 190.75,256.05 193.49,256.12 196.23,256.2 198.97,256.28 201.71,256.36 204.45,256.44 207.19,256.53" fill="none" stroke="#ff0000" stroke-width="1"/>
<polyline points="209.93,235.78 212.67,235.87 215.41,235.97 218.15,236.06 220.89,236.15 223.63,236.25 226.37,236.35 229.11,236.45 231.85,236.55 234.59,236.65 237.33,236.75 240.07,236.86 242.81,236.96 245.55,237.06 248.29,237.17 251.03,237.27 253.77,237.38 256.51,237.48 259.25,237.58 261.99,237.69 264.73,237.79 267.47,237.9 270.21,238 272.95,238.1 275.68,238.2 278.42,238.31 281.16,238.41 283.9,238.5 286.64,238.6 289.38,238.7 292.12,238.8 294.86,238.89 297.6,238.98 300.34,239.07 303.08,239.16 305.82,239.25 308.56,239.34 311.3,239.42 314.04,239.5 316.78,239.58 319.52,239.66 322.26,239.73 325,239.81 327.74,239.88 330.48,239.94 333.22,240.01 335.96,240.07 338.7,240.13 341.44,240.18 344.18,240.23 346.92,240.28 349.66,240.33 352.4,240.37 355.14,240.41 357.88,240.45 360.62,240.48 363.36,240.52 366.1,240.54 368.84,240.57 371.58,240.59 374.32,240.61 377.05,240.62 379.79,240.64 382.53,240.64 385.27,240.65 388.01,240.65 390.75,240.65 393.49,240.65 396.23,240.64 398.97,240.63 401.71,240.61 404.45,240.59 407.19,240.57 409.93,240.55 412.67,240.52 415.41,240.49 418.15,240.46 420.89,240.42 423.63,240.38 426.37,240.34 429.11,240.3 431.85,240.25 434.59,240.2 437.33,240.15 440.07,240.09 442.81,240.04 445.55,239.98 448.29,239.92 451.03,239.86 453.77,239.79 456.51,239.73 459.25,239.66 461.99,239.59 464.73,239.52 467.47,239.45 470.21,239.38 472.95,239.31 475.68,239.23 478.42,239.16 481.16,239.09 483.9,239.01 486.64,238.93 489.38,238.86 492.12,238.78 494.86,238.71 497.6,238.63 500.34,238.55 503.08,238.48 505.82,238.41 508.56,238.33 511.3,238.26 514.04,238.19 516.78,238.12 519.52,238.05 522.26,237.98 525,237.92 527.74,237.85 530.48,237.79 533.22,237.73 535.96,237.67 538.7,237.62 541.44,237.57 544.18,237.52 546.92,237.47 549.66,237.42 552.4,237.38 555.14,237.34 557.88,237.3 560.62,237.27 563.36,237.24 566.1,237.21 568.84,237.19 571.58,237.16 574.32,237.14 577.05,237.13 579.79,237.11 582.53,237.11 585.27,237.1 588.01,237.1 590.75,237.1 593.49,237.1 596.23,237.11 598.97,237.12 601.71,237.14 604.45,237.15 607.19,237.18 609.93,237.2 612.67,237.23 615.41,237.27 618.15,237.3 620.89,237.34 623.63,237.39 626.37,237.43 629.11,237.48 631.85,237.54 634.59,237.59 637.33,237.65 640.07,237.72 642.81,237.78 645.55,237.85 648.29,237.93 651.03,238 653.77,238.08 656.51,238.16 659.25,238.24 661.99,238.33 664.73,238.42 667.47,238.51 670.21,238.6 672.95,238.7 675.68,238.8 678.42,238.9 681.16,239 683.9,239.11 686.64,239.21 689.38,239.32 692.12,239.43 694.86,239.55 697.6,239.66 700.34,239.77 703.08,239.89 705.82,240.01 708.56,240.13 711.3,240.25 714.04,240.37 716.78,240.49 719.52,240.62 722.26,240.74 725,240.86 727.74,240.99 730.48,241.11 733.22,241.23 735.96,241.36 738.7,241.48 741.44,241.61 744.18,241.73 746.92,241.85 749.66,241.97 752.4,242.09 755.14,242.21 757.88,242.33 760.62,242.45 763.36,242.57 766.1,242.69 768.84,242.8 771.58,242.91 774.32,243.03 777.05,243.14 779.79,243.25 782.53,243.35 785.27,243.46 788.01,243.56 790.75,243.66 793.49,243.76 796.23,243.85 798.97,243.94 801.71,244.03 804.45,244.12 807.19,244.2 809.93,244.28 812.67,244.36 815.41,244.43 818.15,244.5 820.89,244.57 823.63,244.63 826.37,244.69 829.11,244.74 831.85,244.8 834.59,244.84 837.33,244.89 840.07,244.92 842.81,244.96 845.55,244.99 848.29,245.02 851.03,245.04 853.77,245.06 856.51,245.07 859.25,245.08" fill="none" stroke="#ff0000" stroke-width="1"/>
<polyline points="861.99,265.92 864.73,265.92 867.47,265.91 870.21,265.9 872.95,265.89 875.68,265.87 878.42,265.84 881.16,265.81 883.9,265.78 886.64,265.74 889.38,265.69 892.12,265.64 894.86,265.59 897.6,265.53 900.34,265.46 903.08,265.39 905.82,265.32 908.56,265.24 911.3,265.16 914.04,265.07 916.78,264.98 919.52,264.88 922.26,264.78 925,264.67 927.74,264.56 930.48,264.44 933.22,264.33 935.96,264.2 938.7,264.08 941.44,263.95 944.18,263.81 946.92,263.68 949.66,263.54 952.4,263.39 955.14,263.25 957.88,263.1 960.62,262.94 963.36,262.79 966.1,262.63 968.84,262.47 971.58,262.31 974.32,262.14 977.05,261.98 979.79,261.81 982.53,261.64 985.27,261.47 988.01,261.3 990.75,261.13 993.49,260.96 996.23,260.78 998.97,260.61 1001.71,260.44 1004.45,260.26 1007.19,260.09 1009.93,259.92 1012.67,259.75 1015.41,259.58 1018.15,259.41 1020.89,259.24 1023.63,259.08" fill="none" stroke="#ff0000" stroke-width="1"/>
<line x1="240.07" y1="10" x2="240.07" y2="510" stroke="#00c000" stroke-width="1"/>
<line x1="492.12" y1="10" x2="492.12" y2="510" stroke="#00c000" stroke-width="1"/>
<line x1="749.66" y1="10" x2="749.66" y2="510" stroke="#00c000" stroke-width="1"/>
<line x1="996.23" y1="10" x2="996.23" y2="510" stroke="#00c000" stroke-width="1"/>
<text x="20" y="510" font-family="Arial" font-size="11pt" text-anchor="end" alignment-baseline="middle" fill="#000000">0</text>
<line x1="25" y1="510" x2="1025" y2="510" stroke="#808080" stroke-width="0.5"/>
<text x="20" y="468.33" font-family="Arial" font-size="11pt" text-anchor="end" alignment-baseline="middle" fill="#000000">2</text>
<line x1="25" y1="468.33" x2="1025" y2="468.33" stroke="#808080" stroke-width="0.5"/>
<text x="20" y="426.67" font-family="Arial" font-size="11pt" text-anchor="end" alignment-baseline="middle" fill="#000000">4</text>
<line x1="25" y1="426.67" x2="1025" y2="426.67" stroke="#808080" stroke-width="0.5"/>
<text x="20" y="385" font-family="Arial" font-size="11pt" text-anchor="end" alignment-baseline="middle" fill="#000000">6</text>
<line x1="25" y1="385" x2="1025" y2="385" stroke="#808080" stroke-width="0.5"/>
<text x="20" y="343.33" font-family="Arial" font-size="11pt" text-anchor="end" alignment-baseline="middle" fill="#000000">8</text>
<line x1="25" y1="343.33" x2="1025" y2="343.33" stroke="#808080" stroke-width="0.5"/>
<text x="20" y="301.67" font-family="Arial" font-size="11pt" text-anchor="end" alignment-baseline="middle" fill="#000000">10</text>
<line x1="25" y1="301.67" x2="1025" y2="301.67" stroke="#808080" stroke-width="0.5"/>
<text x="20" y="260" font-family="Arial" font-size="11pt" text-anchor="end" alignment-baseline="middle" fill="#000000">12</text>
<line x1="25" y1="260" x2="1025" y2="260" stroke="#808080" stroke-width="0.5"/>
<text x="20" y="218.33" font-family="Arial" font-size="11pt" text-anchor="end" alignment-baseline="middle" fill="#000000">14</text>
<line x1="25" y1="218.33" x2="1025" y2="218.33" stroke="#808080" stroke-width="0.5"/>
<text x="20" y="176.67" font-family="Arial" font-size="11pt" text-anchor="end" alignment-baseline="middle" fill="#000000">16</text>
<line x1="25" y1="176.67" x2="1025" y2="176.67" stroke="#808080" stroke-width="0.5"/>
<text x="20" y="135" font-family="Arial" font-size="11pt" text-anchor="end" alignment-baseline="middle" fill="#000000">18</text>
<line x1="25" y1="135" x2="1025" y2="135" stroke="#808080" stroke-width="0.5"/>
<text x="20" y="93.33" font-family="Arial" font-size="11pt" text-anchor="end" alignment-baseline="middle" fill="#000000">20</text>
<line x1="25" y1="93.33" x2="1025" y2="93.33" stroke="#808080" stroke-width="0.5"/>
<text x="20" y="51.67" font-family="Arial" font-size="11pt" text-anchor="end" alignment-baseline="middle" fill="#000000">22</text>
<line x1="25" y1="51.67" x2="1025" y2="51.67" stroke="#808080" stroke-width="0.5"/>
<text x="20" y="10" font-family="Arial" font-size="11pt" text-anchor="end" alignment-baseline="middle" fill="#000000">24</text>
<line x1="25" y1="10" x2="1025" y2="10" stroke="#808080" stroke-width="0.5"/>
<text x="67.47" y="522" font-family="Arial" font-size="11pt" text-anchor="middle" alignment-baseline="middle" fill="#000000">Jan</text>
<line x1="25" y1="10" x2="25" y2="510" stroke="#808080" stroke-width="0.5"/>
<text x="148.29" y="522" font-family="Arial" font-size="11pt" text-anchor="middle" alignment-baseline="middle" fill="#000000">Feb</text>
<line x1="109.93" y1="10" x2="109.93" y2="510" stroke="#808080" stroke-width="0.5"/>
<text x="229.11" y="522" font-family="Arial" font-size="11pt" text-anchor="middle" alignment-baseline="middle" fill="#000000">Mar</text>
<line x1="186.64" y1="10" x2="186.64" y2="510" stroke="#808080" stroke-width="0.5"/>
<text x="312.67" y="522" font-family="Arial" font-size="11pt" text-anchor="middle" alignment-baseline="middle" fill="#000000">Apr</text>
<line x1="271.58" y1="10" x2="271.58" y2="510" stroke="#808080" stroke-width="0.5"/>
<text x="396.23" y="522" font-family="Arial" font-size="11pt" text-anchor="middle" alignment-baseline="middle" fill="#000000">May</text>
<line x1="353.77" y1="10" x2="353.77" y2="510" stroke="#808080" stroke-width="0.5"/>
<text x="479.79" y="522" font-family="Arial" font-size="11pt" text-anchor="middle" alignment-baseline="middle" fill="#000000">Jun</text>
<line x1="438.7" y1="10" x2="438.7" y2="510" stroke="#808080" stroke-width="0.5"/>
<text x="563.36" y="522" font-family="Arial" font-size="11pt" text-anchor="middle" alignment-baseline="middle" fill="#000000">Jul</text>
<line x1="520.89" y1="10" x2="520.89" y2="510" stroke="#808080" stroke-width="0.5"/>
<text x="648.29" y="522" font-family="Arial" font-size="11pt" text-anchor="middle" alignment-baseline="middle" fill="#000000">Aug</text>
<line x1="605.82" y1="10" x2="605.82" y2="510" stroke="#808080" stroke-width="0.5"/>
<text x="731.85" y="522" font-family="Arial" font-size="11pt" text-anchor="middle" alignment-baseline="middle" fill="#000000">Sep</text>
<line x1="690.75" y1="10" x2="690.75" y2="510" stroke="#808080" stroke-width="0.5"/>
<text x="815.41" y="522" font-family="Arial" font-size="11pt" text-anchor="middle" alignment-baseline="middle" fill="#000000">Oct</text>
<line x1="772.95" y1="10" x2="772.95" y2="510" stroke="#808080" stroke-width="0.5"/>
<text x="898.97" y="522" font-family="Arial" font-size="11pt" text-anchor="middle" alignment-baseline="middle" fill="#000000">Nov</text>
<line x1="857.88" y1="10" x2="857.88" y2="510" stroke="#808080" stroke-width="0.5"/>
<text x="982.53" y="522" font-family="Arial" font-size="11pt" text-anchor="middle" alignment-baseline="middle" fill="#000000">Dec</text>
<line x1="940.07" y1="10" x2="940.07" y2="510" stroke="#808080" stroke-width="0.5"/>
<line x1="1025" y1="10" x2="1025" y2="510" stroke="#808080" stroke-width="0.5"/>
</svg>