<svg xmlns="http://www.w3.org/2000/svg" width="1035" height="535" viewBox="0 0 1035 535">
<rect x="0" y="0" width="1035" height="535" fill="#ffffff" stroke="none" stroke-width="0"/>
<rect x="25" y="10" width="1000" height="500" fill="#000000" stroke="none" stroke-width="0"/>
<polygon points="25,510 25,241.27 27.74,241.27 27.74,241.11 30.48,241.11 30.48,240.93 33.22,240.93 33.22,240.74 35.96,240.74 35.96,240.54 38.7,240.54 38.7,240.32 41.44,240.32 41.44,240.09 44.18,240.09 44.18,239.85 46.92,239.85 46.92,239.59 49.66,239.59 49.66,239.32 52.4,239.32 52.4,239.04 55.14,239.04 55.14,238.75 57.88,238.75 57.88,238.45 60.62,238.45 60.62,238.13 63.36,238.13 63.36,237.8 66.1,237.8 66.1,237.46 68.84,237.46 68.84,237.11 71.58,237.11 71.58,236.75 74.32,236.75 74.32,236.37 77.05,236.37 77.05,235.99 79.79,235.99 79.79,235.59 82.53,235.59 82.53,235.18 85.27,235.18 85.27,234.76 88.01,234.76 88.01,234.34 90.75,234.34 90.75,233.9 93.49,233.9 93.49,233.45 96.23,233.45 96.23,232.99 98.97,232.99 98.97,232.52 101.71,232.52 101.71,232.04 104.45,232.04 104.45,231.55 107.19,231.55 107.19,231.05 109.93,231.05 109.93,230.55 112.67,230.55 112.67,230.03 115.41,230.03 115.41,229.51 118.15,229.51 118.15,228.97 120.89,228.97 120.89,228.43 123.63,228.43 123.63,227.88 126.37,227.88 126.37,227.32 129.11,227.32 129.11,226.75 131.85,226.75 131.85,226.18 134.59,226.18 134.59,225.6 137.33,225.6 137.33,225.01 140.07,225.01 140.07,224.41 142.81,224.41 142.81,223.8 145.55,223.8 145.55,223.19 148.29,223.19 148.29,222.56 151.03,222.56 151.03,221.94 153.77,221.94 153.77,221.3 156.51,221.3 156.51,220.66 159.25,220.66 159.25,220.01 161.99,220.01 161.99,219.35 164.73,219.35 164.73,218.69 167.47,218.69 167.47,218.02 170.21,218.02 170.21,217.34 172.95,217.34 172.95,216.66 175.68,216.66 175.68,215.97 178.42,215.97 178.42,215.27 181.16,215.27 181.16,214.57 183.9,214.57 183.9,213.87 186.64,213.87 186.64,213.15 189.38,213.15 189.38,212.43 192.12,212.43 192.12,211.71 194.86,211.71 194.86,210.98 197.6,210.98 197.6,210.24 200.34,210.24 200.34,209.5 203.08,209.5 203.08,208.75 205.82,208.75 205.82,208 208.56,208 208.56,207.24 211.3,207.24 211.3,206.48 214.04,206.48 214.04,205.71 216.78,205.71 216.78,204.94 219.52,204.94 219.52,204.16 222.26,204.16 222.26,203.38 225,203.38 225,202.59 227.74,202.59 227.74,201.8 230.48,201.8 230.48,201 233.22,201 233.22,200.2 235.96,200.2 235.96,199.4 238.7,199.4 238.7,198.59 241.44,198.59 241.44,197.77 244.18,197.77 244.18,196.95 246.92,196.95 246.92,196.13 249.66,196.13 249.66,195.3 252.4,195.3 252.4,194.47 255.14,194.47 255.14,193.64 257.88,193.64 257.88,192.8 260.62,192.8 260.62,191.95 263.36,191.95 263.36,191.11 266.1,191.11 266.1,190.26 268.84,190.26 268.84,189.41 271.58,189.41 271.58,188.55 274.32,188.55 274.32,187.69 277.05,187.69 277.05,186.83 279.79,186.83 279.79,185.96 282.53,185.96 282.53,185.1 285.27,185.1 285.27,184.23 288.01,184.23 288.01,183.36 290.75,183.36 290.75,182.48 293.49,182.48 293.49,181.61 296.23,181.61 296.23,180.73 298.97,180.73 298.97,179.85 301.71,179.85 301.71,178.97 304.45,178.97 304.45,178.09 307.19,178.09 307.19,177.21 309.93,177.21 309.93,176.32 312.67,176.32 312.67,175.44 315.41,175.44 315.41,174.55 318.15,174.55 318.15,173.67 320.89,173.67 320.89,172.78 323.63,172.78 323.63,171.9 326.37,171.9 326.37,171.01 329.11,171.01 329.11,170.13 331.85,170.13 331.85,169.24 334.59,169.24 334.59,168.36 337.33,168.36 337.33,167.48 340.07,167.48 340.07,166.61 342.81,166.61 342.81,165.73 345.55,165.73 345.55,164.86 348.29,164.86 348.29,163.99 351.03,163.99 351.03,163.13 353.77,163.13 353.77,162.26 356.51,162.26 356.51,161.41 359.25,161.41 359.25,160.56 361.99,160.56 361.99,159.71 364.73,159.71 364.73,158.87 367.47,158.87 367.47,158.03 370.21,158.03 370.21,157.2 372.95,157.2 372.95,156.38 375.68,156.38 375.68,155.57 378.42,155.57 378.42,154.76 381.16,154.76 381.16,153.97 383.9,153.97 383.9,153.18 386.64,153.18 386.64,152.4 389.38,152.4 389.38,151.63 392.12,151.63 392.12,150.87 394.86,150.87 394.86,150.12 397.6,150.12 397.6,149.39 400.34,149.39 400.34,148.66 403.08,148.66 403.08,147.95 405.82,147.95 405.82,147.25 408.56,147.25 408.56,146.57 411.3,146.57 411.3,145.9 414.04,145.9 414.04,145.25 416.78,145.25 416.78,144.61 419.52,144.61 419.52,143.99 422.26,143.99 422.26,143.38 425,143.38 425,142.8 427.74,142.8 427.74,142.23 430.48,142.23 430.48,141.68 433.22,141.68 433.22,141.15 435.96,141.15 435.96,140.64 438.7,140.64 438.7,140.15 441.44,140.15 441.44,139.68 444.18,139.68 444.18,139.23 446.92,139.23 446.92,138.81 449.66,138.81 449.66,138.41 452.4,138.41 452.4,138.03 455.14,138.03 455.14,137.67 457.88,137.67 457.88,137.34 460.62,137.34 460.62,137.03 463.36,137.03 463.36,136.75 466.1,136.75 466.1,136.49 468.84,136.49 468.84,136.26 471.58,136.26 471.58,136.06 474.32,136.06 474.32,135.88 477.05,135.88 477.05,135.72 479.79,135.72 479.79,135.59 482.53,135.59 482.53,135.49 485.27,135.49 485.27,135.42 488.01,135.42 488.01,135.37 490.75,135.37 490.75,135.35 493.49,135.35 493.49,135.36 496.23,135.36 496.23,135.39 498.97,135.39 498.97,135.45 501.71,135.45 501.71,135.53 504.45,135.53 504.45,135.65 507.19,135.65 507.19,135.79 509.93,135.79 509.93,135.95 512.67,135.95 512.67,136.14 515.41,136.14 515.41,136.36 518.15,136.36 518.15,136.61 520.89,136.61 520.89,136.87 523.63,136.87 523.63,137.17 526.37,137.17 526.37,137.48 529.11,137.48 529.11,137.82 531.85,137.82 531.85,138.19 534.59,138.19 534.59,138.58 537.33,138.58 537.33,138.99 540.07,138.99 540.07,139.42 542.81,139.42 542.81,139.87 545.55,139.87 545.55,140.35 548.29,140.35 548.29,140.84 551.03,140.84 551.03,141.36 553.77,141.36 553.77,141.89 556.51,141.89 556.51,142.45 559.25,142.45 559.25,143.02 561.99,143.02 561.99,143.61 564.73,143.61 564.73,144.21 567.47,144.21 567.47,144.84 570.21,144.84 570.21,145.47 572.95,145.47 572.95,146.13 575.68,146.13 575.68,146.8 578.42,146.8 578.42,147.48 581.16,147.48 581.16,148.18 583.9,148.18 583.9,148.89 586.64,148.89 586.64,149.61 589.38,149.61 589.38,150.34 592.12,150.34 592.12,151.09 594.86,151.09 594.86,151.84 597.6,151.84 597.6,152.61 600.34,152.61 600.34,153.38 603.08,153.38 603.08,154.17 605.82,154.17 605.82,154.96 608.56,154.96 608.56,155.76 611.3,155.76 611.3,156.57 614.04,156.57 614.04,157.38 616.78,157.38 616.78,158.2 619.52,158.2 619.52,159.03 622.26,159.03 622.26,159.86 625,159.86 625,160.7 627.74,160.7 627.74,161.54 630.48,161.54 630.48,162.39 633.22,162.39 633.22,163.24 635.96,163.24 635.96,164.1 638.7,164.1 638.7,164.95 641.44,164.95 641.44,165.82 644.18,165.82 644.18,166.68 646.92,166.68 646.92,167.55 649.66,167.55 649.66,168.41 652.4,168.41 652.4,169.28 655.14,169.28 655.14,170.16 657.88,170.16 657.88,171.03 660.62,171.03 660.62,171.9 663.36,171.9 663.36,172.77 666.1,172.77 666.1,173.65 668.84,173.65 668.84,174.52 671.58,174.52 671.58,175.4 674.32,175.4 674.32,176.27 677.05,176.27 677.05,177.14 679.79,177.14 679.79,178.01 682.53,178.01 682.53,178.88 685.27,178.88 685.27,179.75 688.01,179.75 688.01,180.62 690.75,180.62 690.75,181.48 693.49,181.48 693.49,182.35 696.23,182.35 696.23,183.21 698.97,183.21 698.97,184.07 701.71,184.07 701.71,184.93 704.45,184.93 704.45,185.78 707.19,185.78 707.19,186.63 709.93,186.63 709.93,187.48 712.67,187.48 712.67,188.33 715.41,188.33 715.41,189.17 718.15,189.17 718.15,190.01 720.89,190.01 720.89,190.85 723.63,190.85 723.63,191.68 726.37,191.68 726.37,192.51 729.11,192.51 729.11,193.34 731.85,193.34 731.85,194.16 734.59,194.16 734.59,194.98 737.33,194.98 737.33,195.8 740.07,195.8 740.07,196.61 742.81,196.61 742.81,197.42 745.55,197.42 745.55,198.22 748.29,198.22 748.29,199.02 751.03,199.02 751.03,199.82 753.77,199.82 753.77,200.61 756.51,200.61 756.51,201.4 759.25,201.4 759.25,202.18 761.99,202.18 761.99,202.96 764.73,202.96 764.73,203.73 767.47,203.73 767.47,204.5 770.21,204.5 770.21,205.27 772.95,205.27 772.95,206.03 775.68,206.03 775.68,206.78 778.42,206.78 778.42,207.53 781.16,207.53 781.16,208.27 783.9,208.27 783.9,209.01 786.64,209.01 786.64,209.75 789.38,209.75 789.38,210.48 792.12,210.48 792.12,211.2 794.86,211.2 794.86,211.92 797.6,211.92 797.6,212.63 800.34,212.63 800.34,213.34 803.08,213.34 803.08,214.04 805.82,214.04 805.82,214.73 808.56,214.73 808.56,215.42 811.3,215.42 811.3,216.11 814.04,216.11 814.04,216.79 816.78,216.79 816.78,217.46 819.52,217.46 819.52,218.12 822.26,218.12 822.26,218.78 825,218.78 825,219.44 827.74,219.44 827.74,220.08 830.48,220.08 830.48,220.72 833.22,220.72 833.22,221.36 835.96,221.36 835.96,221.99 838.7,221.99 838.7,222.61 841.44,222.61 841.44,223.22 844.18,223.22 844.18,223.82 846.92,223.82 846.92,224.42 849.66,224.42 849.66,225.02 852.4,225.02 852.4,225.6 855.14,225.6 855.14,226.18 857.88,226.18 857.88,226.74 860.62,226.74 860.62,227.31 863.36,227.31 863.36,227.86 866.1,227.86 866.1,228.4 868.84,228.4 868.84,228.94 871.58,228.94 871.58,229.47 874.32,229.47 874.32,229.99 877.05,229.99 877.05,230.5 879.79,230.5 879.79,231 882.53,231 882.53,231.49 885.27,231.49 885.27,231.98 888.01,231.98 888.01,232.45 890.75,232.45 890.75,232.92 893.49,232.92 893.49,233.38 896.23,233.38 896.23,233.82 898.97,233.82 898.97,234.26 901.71,234.26 901.71,234.68 904.45,234.68 904.45,235.1 907.19,235.1 907.19,235.51 909.93,235.51 909.93,235.9 912.67,235.9 912.67,236.29 915.41,236.29 915.41,236.66 918.15,236.66 918.15,237.03 920.89,237.03 920.89,237.38 923.63,237.38 923.63,237.72 926.37,237.72 926.37,238.05 929.11,238.05 929.11,238.37 931.85,238.37 931.85,238.67 934.59,238.67 934.59,238.97 937.33,238.97 937.33,239.25 940.07,239.25 940.07,239.52 942.81,239.52 942.81,239.77 945.55,239.77 945.55,240.02 948.29,240.02 948.29,240.25 951.03,240.25 951.03,240.47 953.77,240.47 953.77,240.68 956.51,240.68 956.51,240.87 959.25,240.87 959.25,241.05 961.99,241.05 961.99,241.22 964.73,241.22 964.73,241.37 967.47,241.37 967.47,241.52 970.21,241.52 970.21,241.64 972.95,241.64 972.95,241.76 975.68,241.76 975.68,241.86 978.42,241.86 978.42,241.94 981.16,241.94 981.16,242.02 983.9,242.02 983.9,242.08 986.64,242.08 986.64,242.12 989.38,242.12 989.38,242.15 992.12,242.15 992.12,242.17 994.86,242.17 994.86,242.18 997.6,242.18 997.6,242.17 1000.34,242.17 1000.34,242.14 1003.08,242.14 1003.08,242.1 1005.82,242.1 1005.82,242.05 1008.56,242.05 1008.56,241.99 1011.3,241.99 1011.3,241.91 1014.04,241.91 1014.04,241.82 1016.78,241.82 1016.78,241.71 1019.52,241.71 1019.52,241.59 1022.26,241.59 1022.26,241.46 1025,241.46 1025,510" fill="#002040" stroke="none" stroke-width="0"/>
<polygon points="25,510 25,262.5 27.74,262.5 27.74,262.32 30.48,262.32 30.48,262.13 33.22,262.13 33.22,261.93 35.96,261.93 35.96,261.71 38.7,261.71 38.7,261.47 41.44,261.47 41.44,261.22 44.18,261.22 44.18,260.96 46.92,260.96 46.92,260.69 49.66,260.69 49.66,260.4 52.4,260.4 52.4,260.1 55.14,260.1 55.14,259.78 57.88,259.78 57.88,259.46 60.62,259.46 60.62,259.12 63.36,259.12 63.36,258.77 66.1,258.77 66.1,258.4 68.84,258.4 68.84,258.03 71.58,258.03 71.58,257.64 74.32,257.64 74.32,257.24 77.05,257.24 77.05,256.83 79.79,256.83 79.79,256.41 82.53,256.41 82.53,255.98 85.27,255.98 85.27,255.53 88.01,255.53 88.01,255.08 90.75,255.08 90.75,254.62 93.49,254.62 93.49,254.14 96.23,254.14 96.23,253.66 98.97,253.66 98.97,253.16 101.71,253.16 101.71,252.66 104.45,252.66 104.45,252.15 107.19,252.15 107.19,251.63 109.93,251.63 109.93,251.09 112.67,251.09 112.67,250.56 115.41,250.56 115.41,250.01 118.15,250.01 118.15,249.45 120.89,249.45 120.89,248.89 123.63,248.89 123.63,248.32 126.37,248.32 126.37,247.74 129.11,247.74 129.11,247.15 131.85,247.15 131.85,246.56 134.59,246.56 134.59,245.96 137.33,245.96 137.33,245.35 140.07,245.35 140.07,244.73 142.81,244.73 142.81,244.11 145.55,244.11 145.55,243.48 148.29,243.48 148.29,242.85 151.03,242.85 151.03,242.21 153.77,242.21 153.77,241.56 156.51,241.56 156.51,240.91 159.25,240.91 159.25,240.25 161.99,240.25 161.99,239.58 164.73,239.58 164.73,238.91 167.47,238.91 167.47,238.24 170.21,238.24 170.21,237.55 172.95,237.55 172.95,236.87 175.68,236.87 175.68,236.18 178.42,236.18 178.42,235.48 181.16,235.48 181.16,234.78 183.9,234.78 183.9,234.07 186.64,234.07 186.64,233.36 189.38,233.36 189.38,232.65 192.12,232.65 192.12,231.93 194.86,231.93 194.86,231.21 197.6,231.21 197.6,230.48 200.34,230.48 200.34,229.75 203.08,229.75 203.08,229.02 205.82,229.02 205.82,228.28 208.56,228.28 208.56,227.54 211.3,227.54 211.3,226.79 214.04,226.79 214.04,226.04 216.78,226.04 216.78,225.29 219.52,225.29 219.52,224.53 222.26,224.53 222.26,223.77 225,223.77 225,223.01 227.74,223.01 227.74,222.25 230.48,222.25 230.48,221.48 233.22,221.48 233.22,220.71 235.96,220.71 235.96,219.93 238.7,219.93 238.7,219.16 241.44,219.16 241.44,218.38 244.18,218.38 244.18,217.6 246.92,217.6 246.92,216.81 249.66,216.81 249.66,216.03 252.4,216.03 252.4,215.24 255.14,215.24 255.14,214.45 257.88,214.45 257.88,213.66 260.62,213.66 260.62,212.86 263.36,212.86 263.36,212.06 266.1,212.06 266.1,211.27 268.84,211.27 268.84,210.47 271.58,210.47 271.58,209.67 274.32,209.67 274.32,208.87 277.05,208.87 277.05,208.06 279.79,208.06 279.79,207.26 282.53,207.26 282.53,206.46 285.27,206.46 285.27,205.65 288.01,205.65 288.01,204.85 290.75,204.85 290.75,204.04 293.49,204.04 293.49,203.24 296.23,203.24 296.23,202.43 298.97,202.43 298.97,201.63 301.71,201.63 301.71,200.82 304.45,200.82 304.45,200.02 307.19,200.02 307.19,199.21 309.93,199.21 309.93,198.41 312.67,198.41 312.67,197.61 315.41,197.61 315.41,196.81 318.15,196.81 318.15,196.01 320.89,196.01 320.89,195.21 323.63,195.21 323.63,194.42 326.37,194.42 326.37,193.62 329.11,193.62 329.11,192.83 331.85,192.83 331.85,192.04 334.59,192.04 334.59,191.26 337.33,191.26 337.33,190.48 340.07,190.48 340.07,189.7 342.81,189.7 342.81,188.92 345.55,188.92 345.55,188.15 348.29,188.15 348.29,187.39 351.03,187.39 351.03,186.63 353.77,186.63 353.77,185.87 356.51,185.87 356.51,185.12 359.25,185.12 359.25,184.37 361.99,184.37 361.99,183.64 364.73,183.64 364.73,182.9 367.47,182.9 367.47,182.18 370.21,182.18 370.21,181.46 372.95,181.46 372.95,180.75 375.68,180.75 375.68,180.05 378.42,180.05 378.42,179.35 381.16,179.35 381.16,178.67 383.9,178.67 383.9,177.99 386.64,177.99 386.64,177.32 389.38,177.32 389.38,176.67 392.12,176.67 392.12,176.02 394.86,176.02 394.86,175.38 397.6,175.38 397.6,174.76 400.34,174.76 400.34,174.14 403.08,174.14 403.08,173.54 405.82,173.54 405.82,172.95 408.56,172.95 408.56,172.38 411.3,172.38 411.3,171.82 414.04,171.82 414.04,171.27 416.78,171.27 416.78,170.73 419.52,170.73 419.52,170.21 422.26,170.21 422.26,169.71 425,169.71 425,169.22 427.74,169.22 427.74,168.75 430.48,168.75 430.48,168.29 433.22,168.29 433.22,167.85 435.96,167.85 435.96,167.43 438.7,167.43 438.7,167.02 441.44,167.02 441.44,166.64 444.18,166.64 444.18,166.27 446.92,166.27 446.92,165.92 449.66,165.92 449.66,165.59 452.4,165.59 452.4,165.28 455.14,165.28 455.14,164.99 457.88,164.99 457.88,164.71 460.62,164.71 460.62,164.46 463.36,164.46 463.36,164.23 466.1,164.23 466.1,164.02 468.84,164.02 468.84,163.83 471.58,163.83 471.58,163.66 474.32,163.66 474.32,163.52 477.05,163.52 477.05,163.39 479.79,163.39 479.79,163.29 482.53,163.29 482.53,163.2 485.27,163.2 485.27,163.14 488.01,163.14 488.01,163.1 490.75,163.1 490.75,163.09 493.49,163.09 493.49,163.09 496.23,163.09 496.23,163.12 498.97,163.12 498.97,163.17 501.71,163.17 501.71,163.24 504.45,163.24 504.45,163.33 507.19,163.33 507.19,163.44 509.93,163.44 509.93,163.58 512.67,163.58 512.67,163.74 515.41,163.74 515.41,163.91 518.15,163.91 518.15,164.11 520.89,164.11 520.89,164.33 523.63,164.33 523.63,164.57 526.37,164.57 526.37,164.83 529.11,164.83 529.11,165.11 531.85,165.11 531.85,165.41 534.59,165.41 534.59,165.73 537.33,165.73 537.33,166.07 540.07,166.07 540.07,166.42 542.81,166.42 542.81,166.8 545.55,166.8 545.55,167.19 548.29,167.19 548.29,167.6 551.03,167.6 551.03,168.02 553.77,168.02 553.77,168.47 556.51,168.47 556.51,168.93 559.25,168.93 559.25,169.4 561.99,169.4 561.99,169.9 564.73,169.9 564.73,170.4 567.47,170.4 567.47,170.92 570.21,170.92 570.21,171.46 572.95,171.46 572.95,172.01 575.68,172.01 575.68,172.57 578.42,172.57 578.42,173.15 581.16,173.15 581.16,173.73 583.9,173.73 583.9,174.33 586.64,174.33 586.64,174.95 589.38,174.95 589.38,175.57 592.12,175.57 592.12,176.2 594.86,176.2 594.86,176.85 597.6,176.85 597.6,177.5 600.34,177.5 600.34,178.17 603.08,178.17 603.08,178.84 605.82,178.84 605.82,179.52 608.56,179.52 608.56,180.21 611.3,180.21 611.3,180.91 614.04,180.91 614.04,181.61 616.78,181.61 616.78,182.33 619.52,182.33 619.52,183.04 622.26,183.04 622.26,183.77 625,183.77 625,184.5 627.74,184.5 627.74,185.24 630.48,185.24 630.48,185.98 633.22,185.98 633.22,186.73 635.96,186.73 635.96,187.48 638.7,187.48 638.7,188.24 641.44,188.24 641.44,189 644.18,189 644.18,189.76 646.92,189.76 646.92,190.53 649.66,190.53 649.66,191.3 652.4,191.3 652.4,192.08 655.14,192.08 655.14,192.86 657.88,192.86 657.88,193.64 660.62,193.64 660.62,194.42 663.36,194.42 663.36,195.21 666.1,195.21 666.1,195.99 668.84,195.99 668.84,196.78 671.58,196.78 671.58,197.57 674.32,197.57 674.32,198.36 677.05,198.36 677.05,199.16 679.79,199.16 679.79,199.95 682.53,199.95 682.53,200.74 685.27,200.74 685.27,201.54 688.01,201.54 688.01,202.33 690.75,202.33 690.75,203.12 693.49,203.12 693.49,203.92 696.23,203.92 696.23,204.71 698.97,204.71 698.97,205.5 701.71,205.5 701.71,206.3 704.45,206.3 704.45,207.09 707.19,207.09 707.19,207.88 709.93,207.88 709.93,208.67 712.67,208.67 712.67,209.46 715.41,209.46 715.41,210.25 718.15,210.25 718.15,211.03 720.89,211.03 720.89,211.82 723.63,211.82 723.63,212.6 726.37,212.6 726.37,213.39 729.11,213.39 729.11,214.17 731.85,214.17 731.85,214.95 734.59,214.95 734.59,215.72 737.33,215.72 737.33,216.5 740.07,216.5 740.07,217.27 742.81,217.27 742.81,218.04 745.55,218.04 745.55,218.81 748.29,218.81 748.29,219.58 751.03,219.58 751.03,220.34 753.77,220.34 753.77,221.1 756.51,221.1 756.51,221.86 759.25,221.86 759.25,222.62 761.99,222.62 761.99,223.37 764.73,223.37 764.73,224.12 767.47,224.12 767.47,224.86 770.21,224.86 770.21,225.61 772.95,225.61 772.95,226.35 775.68,226.35 775.68,227.08 778.42,227.08 778.42,227.82 781.16,227.82 781.16,228.55 783.9,228.55 783.9,229.27 786.64,229.27 786.64,229.99 789.38,229.99 789.38,230.71 792.12,230.71 792.12,231.43 794.86,231.43 794.86,232.14 797.6,232.14 797.6,232.84 800.34,232.84 800.34,233.55 803.08,233.55 803.08,234.24 805.82,234.24 805.82,234.94 808.56,234.94 808.56,235.63 811.3,235.63 811.3,236.31 814.04,236.31 814.04,236.99 816.78,236.99 816.78,237.67 819.52,237.67 819.52,238.34 822.26,238.34 822.26,239.01 825,239.01 825,239.67 827.74,239.67 827.74,240.32 830.48,240.32 830.48,240.97 833.22,240.97 833.22,241.62 835.96,241.62 835.96,242.25 838.7,242.25 838.7,242.89 841.44,242.89 841.44,243.51 844.18,243.51 844.18,244.13 846.92,244.13 846.92,244.75 849.66,244.75 849.66,245.36 852.4,245.36 852.4,245.96 855.14,245.96 855.14,246.55 857.88,246.55 857.88,247.14 860.62,247.14 860.62,247.72 863.36,247.72 863.36,248.29 866.1,248.29 866.1,248.86 868.84,248.86 868.84,249.42 871.58,249.42 871.58,249.97 874.32,249.97 874.32,250.51 877.05,250.51 877.05,251.04 879.79,251.04 879.79,251.57 882.53,251.57 882.53,252.08 885.27,252.08 885.27,252.59 888.01,252.59 888.01,253.09 890.75,253.09 890.75,253.58 893.49,253.58 893.49,254.06 896.23,254.06 896.23,254.53 898.97,254.53 898.97,255 901.71,255 901.71,255.45 904.45,255.45 904.45,255.89 907.19,255.89 907.19,256.32 909.93,256.32 909.93,256.74 912.67,256.74 912.67,257.15 915.41,257.15 915.41,257.55 918.15,257.55 918.15,257.94 920.89,257.94 920.89,258.31 923.63,258.31 923.63,258.68 926.37,258.68 926.37,259.03 929.11,259.03 929.11,259.37 931.85,259.37 931.85,259.7 934.59,259.7 934.59,260.01 937.33,260.01 937.33,260.32 940.07,260.32 940.07,260.61 942.81,260.61 942.81,260.88 945.55,260.88 945.55,261.15 948.29,261.15 948.29,261.4 951.03,261.4 951.03,261.64 953.77,261.64 953.77,261.86 956.51,261.86 956.51,262.07 959.25,262.07 959.25,262.26 961.99,262.26 961.99,262.45 964.73,262.45 964.73,262.61 967.47,262.61 967.47,262.77 970.21,262.77 970.21,262.9 972.95,262.9 972.95,263.03 975.68,263.03 975.68,263.14 978.42,263.14 978.42,263.23 981.16,263.23 981.16,263.31 983.9,263.31 983.9,263.37 986.64,263.37 986.64,263.42 989.38,263.42 989.38,263.46 992.12,263.46 992.12,263.48 994.86,263.48 994.86,263.48 997.6,263.48 997.6,263.47 1000.34,263.47 1000.34,263.45 1003.08,263.45 1003.08,263.4 1005.82,263.4 1005.82,263.35 1008.56,263.35 1008.56,263.28 1011.3,263.28 1011.3,263.19 1014.04,263.19 1014.04,263.09 1016.78,263.09 1016.78,262.98 1019.52,262.98 1019.52,262.85 1022.26,262.85 1022.26,262.7 1025,262.7 1025,510" fill="#004080" stroke="none" stroke-width="0"/>
<polygon points="25,510 25,284.26 27.74,284.26 27.74,284.06 30.48,284.06 30.48,283.85 33.22,283.85 33.22,283.63 35.96,283.63 35.96,283.39 38.7,283.39 38.7,283.13 41.44,283.13 41.44,282.86 44.18,282.86 44.18,282.58 46.92,282.58 46.92,282.28 49.66,282.28 49.66,281.96 52.4,281.96 52.4,281.63 55.14,281.63 55.14,281.29 57.88,281.29 57.88,280.94 60.62,280.94 60.62,280.57 63.36,280.57 63.36,280.19 66.1,280.19 66.1,279.79 68.84,279.79 68.84,279.39 71.58,279.39 71.58,278.97 74.32,278.97 74.32,278.53 77.05,278.53 77.05,278.09 79.79,278.09 79.79,277.64 82.53,277.64 82.53,277.17 85.27,277.17 85.27,276.69 88.01,276.69 88.01,276.21 90.75,276.21 90.75,275.71 93.49,275.71 93.49,275.2 96.23,275.2 96.23,274.68 98.97,274.68 98.97,274.15 101.71,274.15 101.71,273.62 104.45,273.62 104.45,273.07 107.19,273.07 107.19,272.52 109.93,272.52 109.93,271.95 112.67,271.95 112.67,271.38 115.41,271.38 115.41,270.8 118.15,270.8 118.15,270.21 120.89,270.21 120.89,269.62 123.63,269.62 123.63,269.02 126.37,269.02 126.37,268.41 129.11,268.41 129.11,267.79 131.85,267.79 131.85,267.17 134.59,267.17 134.59,266.54 137.33,266.54 137.33,265.9 140.07,265.9 140.07,265.26 142.81,265.26 142.81,264.61 145.55,264.61 145.55,263.96 148.29,263.96 148.29,263.3 151.03,263.3 151.03,262.64 153.77,262.64 153.77,261.97 156.51,261.97 156.51,261.29 159.25,261.29 159.25,260.61 161.99,260.61 161.99,259.93 164.73,259.93 164.73,259.24 167.47,259.24 167.47,258.55 170.21,258.55 170.21,257.85 172.95,257.85 172.95,257.15 175.68,257.15 175.68,256.45 178.42,256.45 178.42,255.74 181.16,255.74 181.16,255.03 183.9,255.03 183.9,254.31 186.64,254.31 186.64,253.59 189.38,253.59 189.38,252.87 192.12,252.87 192.12,252.15 194.86,252.15 194.86,251.42 197.6,251.42 197.6,250.69 200.34,250.69 200.34,249.96 203.08,249.96 203.08,249.22 205.82,249.22 205.82,248.48 208.56,248.48 208.56,247.75 211.3,247.75 211.3,247 214.04,247 214.04,246.26 216.78,246.26 216.78,245.51 219.52,245.51 219.52,244.77 222.26,244.77 222.26,244.02 225,244.02 225,243.27 227.74,243.27 227.74,242.51 230.48,242.51 230.48,241.76 233.22,241.76 233.22,241.01 235.96,241.01 235.96,240.25 238.7,240.25 238.7,239.49 241.44,239.49 241.44,238.73 244.18,238.73 244.18,237.97 246.92,237.97 246.92,237.21 249.66,237.21 249.66,236.45 252.4,236.45 252.4,235.69 255.14,235.69 255.14,234.93 257.88,234.93 257.88,234.16 260.62,234.16 260.62,233.4 263.36,233.4 263.36,232.64 266.1,232.64 266.1,231.87 268.84,231.87 268.84,231.11 271.58,231.11 271.58,230.35 274.32,230.35 274.32,229.59 277.05,229.59 277.05,228.82 279.79,228.82 279.79,228.06 282.53,228.06 282.53,227.3 285.27,227.3 285.27,226.54 288.01,226.54 288.01,225.78 290.75,225.78 290.75,225.03 293.49,225.03 293.49,224.27 296.23,224.27 296.23,223.51 298.97,223.51 298.97,222.76 301.71,222.76 301.71,222.01 304.45,222.01 304.45,221.26 307.19,221.26 307.19,220.51 309.93,220.51 309.93,219.77 312.67,219.77 312.67,219.02 315.41,219.02 315.41,218.28 318.15,218.28 318.15,217.55 320.89,217.55 320.89,216.81 323.63,216.81 323.63,216.08 326.37,216.08 326.37,215.35 329.11,215.35 329.11,214.63 331.85,214.63 331.85,213.9 334.59,213.9 334.59,213.19 337.33,213.19 337.33,212.47 340.07,212.47 340.07,211.77 342.81,211.77 342.81,211.06 345.55,211.06 345.55,210.36 348.29,210.36 348.29,209.67 351.03,209.67 351.03,208.98 353.77,208.98 353.77,208.3 356.51,208.3 356.51,207.62 359.25,207.62 359.25,206.95 361.99,206.95 361.99,206.29 364.73,206.29 364.73,205.63 367.47,205.63 367.47,204.99 370.21,204.99 370.21,204.34 372.95,204.34 372.95,203.71 375.68,203.71 375.68,203.09 378.42,203.09 378.42,202.47 381.16,202.47 381.16,201.86 383.9,201.86 383.9,201.26 386.64,201.26 386.64,200.67 389.38,200.67 389.38,200.09 392.12,200.09 392.12,199.52 394.86,199.52 394.86,198.96 397.6,198.96 397.6,198.41 400.34,198.41 400.34,197.87 403.08,197.87 403.08,197.35 405.82,197.35 405.82,196.83 408.56,196.83 408.56,196.33 411.3,196.33 411.3,195.84 414.04,195.84 414.04,195.36 416.78,195.36 416.78,194.89 419.52,194.89 419.52,194.44 422.26,194.44 422.26,194 425,194 425,193.58 427.74,193.58 427.74,193.17 430.48,193.17 430.48,192.78 433.22,192.78 433.22,192.4 435.96,192.4 435.96,192.03 438.7,192.03 438.7,191.68 441.44,191.68 441.44,191.35 444.18,191.35 444.18,191.03 446.92,191.03 446.92,190.73 449.66,190.73 449.66,190.45 452.4,190.45 452.4,190.18 455.14,190.18 455.14,189.93 457.88,189.93 457.88,189.7 460.62,189.7 460.62,189.48 463.36,189.48 463.36,189.28 466.1,189.28 466.1,189.1 468.84,189.1 468.84,188.94 471.58,188.94 471.58,188.8 474.32,188.8 474.32,188.67 477.05,188.67 477.05,188.56 479.79,188.56 479.79,188.47 482.53,188.47 482.53,188.4 485.27,188.4 485.27,188.35 488.01,188.35 488.01,188.32 490.75,188.32 490.75,188.31 493.49,188.31 493.49,188.31 496.23,188.31 496.23,188.33 498.97,188.33 498.97,188.37 501.71,188.37 501.71,188.43 504.45,188.43 504.45,188.51 507.19,188.51 507.19,188.61 509.93,188.61 509.93,188.73 512.67,188.73 512.67,188.86 515.41,188.86 515.41,189.01 518.15,189.01 518.15,189.18 520.89,189.18 520.89,189.37 523.63,189.37 523.63,189.57 526.37,189.57 526.37,189.8 529.11,189.8 529.11,190.04 531.85,190.04 531.85,190.29 534.59,190.29 534.59,190.57 537.33,190.57 537.33,190.86 540.07,190.86 540.07,191.16 542.81,191.16 542.81,191.49 545.55,191.49 545.55,191.82 548.29,191.82 548.29,192.18 551.03,192.18 551.03,192.55 553.77,192.55 553.77,192.93 556.51,192.93 556.51,193.33 559.25,193.33 559.25,193.74 561.99,193.74 561.99,194.17 564.73,194.17 564.73,194.61 567.47,194.61 567.47,195.06 570.21,195.06 570.21,195.53 572.95,195.53 572.95,196.01 575.68,196.01 575.68,196.5 578.42,196.5 578.42,197 581.16,197 581.16,197.52 583.9,197.52 583.9,198.04 586.64,198.04 586.64,198.58 589.38,198.58 589.38,199.13 592.12,199.13 592.12,199.69 594.86,199.69 594.86,200.25 597.6,200.25 597.6,200.83 600.34,200.83 600.34,201.42 603.08,201.42 603.08,202.01 605.82,202.01 605.82,202.62 608.56,202.62 608.56,203.23 611.3,203.23 611.3,203.85 614.04,203.85 614.04,204.48 616.78,204.48 616.78,205.12 619.52,205.12 619.52,205.76 622.26,205.76 622.26,206.41 625,206.41 625,207.07 627.74,207.07 627.74,207.73 630.48,207.73 630.48,208.4 633.22,208.4 633.22,209.07 635.96,209.07 635.96,209.75 638.7,209.75 638.7,210.44 641.44,210.44 641.44,211.13 644.18,211.13 644.18,211.82 646.92,211.82 646.92,212.52 649.66,212.52 649.66,213.23 652.4,213.23 652.4,213.94 655.14,213.94 655.14,214.65 657.88,214.65 657.88,215.36 660.62,215.36 660.62,216.08 663.36,216.08 663.36,216.81 666.1,216.81 666.1,217.53 668.84,217.53 668.84,218.26 671.58,218.26 671.58,218.99 674.32,218.99 674.32,219.72 677.05,219.72 677.05,220.46 679.79,220.46 679.79,221.2 682.53,221.2 682.53,221.94 685.27,221.94 685.27,222.68 688.01,222.68 688.01,223.42 690.75,223.42 690.75,224.16 693.49,224.16 693.49,224.91 696.23,224.91 696.23,225.65 698.97,225.65 698.97,226.4 701.71,226.4 701.71,227.15 704.45,227.15 704.45,227.9 707.19,227.9 707.19,228.65 709.93,228.65 709.93,229.4 712.67,229.4 712.67,230.15 715.41,230.15 715.41,230.9 718.15,230.9 718.15,231.65 720.89,231.65 720.89,232.4 723.63,232.4 723.63,233.15 726.37,233.15 726.37,233.91 729.11,233.91 729.11,234.66 731.85,234.66 731.85,235.41 734.59,235.41 734.59,236.16 737.33,236.16 737.33,236.91 740.07,236.91 740.07,237.66 742.81,237.66 742.81,238.41 745.55,238.41 745.55,239.15 748.29,239.15 748.29,239.9 751.03,239.9 751.03,240.65 753.77,240.65 753.77,241.39 756.51,241.39 756.51,242.13 759.25,242.13 759.25,242.88 761.99,242.88 761.99,243.62 764.73,243.62 764.73,244.36 767.47,244.36 767.47,245.09 770.21,245.09 770.21,245.83 772.95,245.83 772.95,246.56 775.68,246.56 775.68,247.29 778.42,247.29 778.42,248.02 781.16,248.02 781.16,248.75 783.9,248.75 783.9,249.48 786.64,249.48 786.64,250.2 789.38,250.2 789.38,250.92 792.12,250.92 792.12,251.64 794.86,251.64 794.86,252.35 797.6,252.35 797.6,253.07 800.34,253.07 800.34,253.78 803.08,253.78 803.08,254.48 805.82,254.48 805.82,255.19 808.56,255.19 808.56,255.89 811.3,255.89 811.3,256.58 814.04,256.58 814.04,257.28 816.78,257.28 816.78,257.97 819.52,257.97 819.52,258.65 822.26,258.65 822.26,259.34 825,259.34 825,260.02 827.74,260.02 827.74,260.69 830.48,260.69 830.48,261.36 833.22,261.36 833.22,262.02 835.96,262.02 835.96,262.69 838.7,262.69 838.7,263.34 841.44,263.34 841.44,263.99 844.18,263.99 844.18,264.64 846.92,264.64 846.92,265.28 849.66,265.28 849.66,265.91 852.4,265.91 852.4,266.54 855.14,266.54 855.14,267.16 857.88,267.16 857.88,267.78 860.62,267.78 860.62,268.39 863.36,268.39 863.36,268.99 866.1,268.99 866.1,269.59 868.84,269.59 868.84,270.17 871.58,270.17 871.58,270.76 874.32,270.76 874.32,271.33 877.05,271.33 877.05,271.9 879.79,271.9 879.79,272.45 882.53,272.45 882.53,273 885.27,273 885.27,273.55 888.01,273.55 888.01,274.08 890.75,274.08 890.75,274.6 893.49,274.6 893.49,275.12 896.23,275.12 896.23,275.62 898.97,275.62 898.97,276.12 901.71,276.12 901.71,276.6 904.45,276.6 904.45,277.08 907.19,277.08 907.19,277.54 909.93,277.54 909.93,277.99 912.67,277.99 912.67,278.44 915.41,278.44 915.41,278.87 918.15,278.87 918.15,279.29 920.89,279.29 920.89,279.69 923.63,279.69 923.63,280.09 926.37,280.09 926.37,280.47 929.11,280.47 929.11,280.84 931.85,280.84 931.85,281.2 934.59,281.2 934.59,281.54 937.33,281.54 937.33,281.87 940.07,281.87 940.07,282.19 942.81,282.19 942.81,282.49 945.55,282.49 945.55,282.78 948.29,282.78 948.29,283.05 951.03,283.05 951.03,283.31 953.77,283.31 953.77,283.56 956.51,283.56 956.51,283.79 959.25,283.79 959.25,284 961.99,284 961.99,284.2 964.73,284.2 964.73,284.38 967.47,284.38 967.47,284.55 970.21,284.55 970.21,284.7 972.95,284.7 972.95,284.84 975.68,284.84 975.68,284.96 978.42,284.96 978.42,285.06 981.16,285.06 981.16,285.15 983.9,285.15 983.9,285.22 986.64,285.22 986.64,285.27 989.38,285.27 989.38,285.31 992.12,285.31 992.12,285.33 994.86,285.33 994.86,285.34 997.6,285.34 997.6,285.33 1000.34,285.33 1000.34,285.3 1003.08,285.3 1003.08,285.25 1005.82,285.25 1005.82,285.19 1008.56,285.19 1008.56,285.11 1011.3,285.11 1011.3,285.02 1014.04,285.02 1014.04,284.91 1016.78,284.91 1016.78,284.78 1019.52,284.78 1019.52,284.64 1022.26,284.64 1022.26,284.48 1025,284.48 1025,510" fill="#0060c0" stroke="none" stroke-width="0"/>
<polygon points="25,510 25,303.57 27.74,303.57 27.74,303.35 30.48,303.35 30.48,303.12 33.22,303.12 33.22,302.88 35.96,302.88 35.96,302.61 38.7,302.61 38.7,302.33 41.44,302.33 41.44,302.04 44.18,302.04 44.18,301.72 46.92,301.72 46.92,301.4 49.66,301.4 49.66,301.05 52.4,301.05 52.4,300.7 55.14,300.7 55.14,300.32 57.88,300.32 57.88,299.94 60.62,299.94 60.62,299.54 63.36,299.54 63.36,299.12 66.1,299.12 66.1,298.69 68.84,298.69 68.84,298.25 71.58,298.25 71.58,297.8 74.32,297.8 74.32,297.33 77.05,297.33 77.05,296.85 79.79,296.85 79.79,296.36 82.53,296.36 82.53,295.86 85.27,295.86 85.27,295.35 88.01,295.35 88.01,294.82 90.75,294.82 90.75,294.28 93.49,294.28 93.49,293.74 96.23,293.74 96.23,293.18 98.97,293.18 98.97,292.62 101.71,292.62 101.71,292.04 104.45,292.04 104.45,291.46 107.19,291.46 107.19,290.87 109.93,290.87 109.93,290.27 112.67,290.27 112.67,289.66 115.41,289.66 115.41,289.04 118.15,289.04 118.15,288.42 120.89,288.42 120.89,287.79 123.63,287.79 123.63,287.15 126.37,287.15 126.37,286.5 129.11,286.5 129.11,285.85 131.85,285.85 131.85,285.19 134.59,285.19 134.59,284.53 137.33,284.53 137.33,283.86 140.07,283.86 140.07,283.19 142.81,283.19 142.81,282.51 145.55,282.51 145.55,281.82 148.29,281.82 148.29,281.14 151.03,281.14 151.03,280.44 153.77,280.44 153.77,279.74 156.51,279.74 156.51,279.04 159.25,279.04 159.25,278.34 161.99,278.34 161.99,277.63 164.73,277.63 164.73,276.91 167.47,276.91 167.47,276.2 170.21,276.2 170.21,275.48 172.95,275.48 172.95,274.75 175.68,274.75 175.68,274.03 178.42,274.03 178.42,273.3 181.16,273.3 181.16,272.57 183.9,272.57 183.9,271.84 186.64,271.84 186.64,271.1 189.38,271.1 189.38,270.36 192.12,270.36 192.12,269.63 194.86,269.63 194.86,268.89 197.6,268.89 197.6,268.14 200.34,268.14 200.34,267.4 203.08,267.4 203.08,266.66 205.82,266.66 205.82,265.91 208.56,265.91 208.56,265.16 211.3,265.16 211.3,264.41 214.04,264.41 214.04,263.67 216.78,263.67 216.78,262.92 219.52,262.92 219.52,262.17 222.26,262.17 222.26,261.42 225,261.42 225,260.66 227.74,260.66 227.74,259.91 230.48,259.91 230.48,259.16 233.22,259.16 233.22,258.41 235.96,258.41 235.96,257.66 238.7,257.66 238.7,256.91 241.44,256.91 241.44,256.16 244.18,256.16 244.18,255.4 246.92,255.4 246.92,254.65 249.66,254.65 249.66,253.9 252.4,253.9 252.4,253.15 255.14,253.15 255.14,252.4 257.88,252.4 257.88,251.66 260.62,251.66 260.62,250.91 263.36,250.91 263.36,250.16 266.1,250.16 266.1,249.42 268.84,249.42 268.84,248.67 271.58,248.67 271.58,247.93 274.32,247.93 274.32,247.19 277.05,247.19 277.05,246.45 279.79,246.45 279.79,245.71 282.53,245.71 282.53,244.98 285.27,244.98 285.27,244.24 288.01,244.24 288.01,243.51 290.75,243.51 290.75,242.78 293.49,242.78 293.49,242.06 296.23,242.06 296.23,241.33 298.97,241.33 298.97,240.61 301.71,240.61 301.71,239.89 304.45,239.89 304.45,239.18 307.19,239.18 307.19,238.46 309.93,238.46 309.93,237.75 312.67,237.75 312.67,237.05 315.41,237.05 315.41,236.34 318.15,236.34 318.15,235.64 320.89,235.64 320.89,234.95 323.63,234.95 323.63,234.26 326.37,234.26 326.37,233.57 329.11,233.57 329.11,232.89 331.85,232.89 331.85,232.21 334.59,232.21 334.59,231.53 337.33,231.53 337.33,230.87 340.07,230.87 340.07,230.2 342.81,230.2 342.81,229.54 345.55,229.54 345.55,228.89 348.29,228.89 348.29,228.24 351.03,228.24 351.03,227.6 353.77,227.6 353.77,226.97 356.51,226.97 356.51,226.34 359.25,226.34 359.25,225.72 361.99,225.72 361.99,225.11 364.73,225.11 364.73,224.5 367.47,224.5 367.47,223.9 370.21,223.9 370.21,223.31 372.95,223.31 372.95,222.72 375.68,222.72 375.68,222.15 378.42,222.15 378.42,221.58 381.16,221.58 381.16,221.02 383.9,221.02 383.9,220.47 386.64,220.47 386.64,219.93 389.38,219.93 389.38,219.4 392.12,219.4 392.12,218.88 394.86,218.88 394.86,218.37 397.6,218.37 397.6,217.87 400.34,217.87 400.34,217.38 403.08,217.38 403.08,216.9 405.82,216.9 405.82,216.43 408.56,216.43 408.56,215.97 411.3,215.97 411.3,215.53 414.04,215.53 414.04,215.09 416.78,215.09 416.78,214.67 419.52,214.67 419.52,214.26 422.26,214.26 422.26,213.87 425,213.87 425,213.48 427.74,213.48 427.74,213.12 430.48,213.12 430.48,212.76 433.22,212.76 433.22,212.42 435.96,212.42 435.96,212.09 438.7,212.09 438.7,211.77 441.44,211.77 441.44,211.47 444.18,211.47 444.18,211.19 446.92,211.19 446.92,210.92 449.66,210.92 449.66,210.66 452.4,210.66 452.4,210.42 455.14,210.42 455.14,210.2 457.88,210.2 457.88,209.99 460.62,209.99 460.62,209.8 463.36,209.8 463.36,209.62 466.1,209.62 466.1,209.46 468.84,209.46 468.84,209.32 471.58,209.32 471.58,209.19 474.32,209.19 474.32,209.07 477.05,209.07 477.05,208.98 479.79,208.98 479.79,208.9 482.53,208.9 482.53,208.84 485.27,208.84 485.27,208.79 488.01,208.79 488.01,208.76 490.75,208.76 490.75,208.75 493.49,208.75 493.49,208.75 496.23,208.75 496.23,208.77 498.97,208.77 498.97,208.81 501.71,208.81 501.71,208.86 504.45,208.86 504.45,208.93 507.19,208.93 507.19,209.02 509.93,209.02 509.93,209.12 512.67,209.12 512.67,209.24 515.41,209.24 515.41,209.38 518.15,209.38 518.15,209.53 520.89,209.53 520.89,209.7 523.63,209.7 523.63,209.88 526.37,209.88 526.37,210.08 529.11,210.08 529.11,210.3 531.85,210.3 531.85,210.53 534.59,210.53 534.59,210.77 537.33,210.77 537.33,211.03 540.07,211.03 540.07,211.31 542.81,211.31 542.81,211.6 545.55,211.6 545.55,211.9 548.29,211.9 548.29,212.22 551.03,212.22 551.03,212.55 553.77,212.55 553.77,212.9 556.51,212.9 556.51,213.26 559.25,213.26 559.25,213.63 561.99,213.63 561.99,214.01 564.73,214.01 564.73,214.41 567.47,214.41 567.47,214.82 570.21,214.82 570.21,215.25 572.95,215.25 572.95,215.68 575.68,215.68 575.68,216.13 578.42,216.13 578.42,216.58 581.16,216.58 581.16,217.05 583.9,217.05 583.9,217.53 586.64,217.53 586.64,218.02 589.38,218.02 589.38,218.52 592.12,218.52 592.12,219.03 594.86,219.03 594.86,219.55 597.6,219.55 597.6,220.08 600.34,220.08 600.34,220.62 603.08,220.62 603.08,221.16 605.82,221.16 605.82,221.72 608.56,221.72 608.56,222.28 611.3,222.28 611.3,222.85 614.04,222.85 614.04,223.43 616.78,223.43 616.78,224.02 619.52,224.02 619.52,224.62 622.26,224.62 622.26,225.22 625,225.22 625,225.83 627.74,225.83 627.74,226.44 630.48,226.44 630.48,227.06 633.22,227.06 633.22,227.69 635.96,227.69 635.96,228.32 638.7,228.32 638.7,228.96 641.44,228.96 641.44,229.61 644.18,229.61 644.18,230.26 646.92,230.26 646.92,230.91 649.66,230.91 649.66,231.57 652.4,231.57 652.4,232.24 655.14,232.24 655.14,232.91 657.88,232.91 657.88,233.58 660.62,233.58 660.62,234.26 663.36,234.26 663.36,234.94 666.1,234.94 666.1,235.63 668.84,235.63 668.84,236.32 671.58,236.32 671.58,237.01 674.32,237.01 674.32,237.71 677.05,237.71 677.05,238.41 679.79,238.41 679.79,239.11 682.53,239.11 682.53,239.82 685.27,239.82 685.27,240.53 688.01,240.53 688.01,241.24 690.75,241.24 690.75,241.95 693.49,241.95 693.49,242.67 696.23,242.67 696.23,243.39 698.97,243.39 698.97,244.11 701.71,244.11 701.71,244.83 704.45,244.83 704.45,245.55 707.19,245.55 707.19,246.28 709.93,246.28 709.93,247.01 712.67,247.01 712.67,247.74 715.41,247.74 715.41,248.47 718.15,248.47 718.15,249.2 720.89,249.2 720.89,249.93 723.63,249.93 723.63,250.67 726.37,250.67 726.37,251.4 729.11,251.4 729.11,252.14 731.85,252.14 731.85,252.87 734.59,252.87 734.59,253.61 737.33,253.61 737.33,254.35 740.07,254.35 740.07,255.09 742.81,255.09 742.81,255.83 745.55,255.83 745.55,256.57 748.29,256.57 748.29,257.31 751.03,257.31 751.03,258.05 753.77,258.05 753.77,258.79 756.51,258.79 756.51,259.53 759.25,259.53 759.25,260.27 761.99,260.27 761.99,261.01 764.73,261.01 764.73,261.75 767.47,261.75 767.47,262.49 770.21,262.49 770.21,263.23 772.95,263.23 772.95,263.97 775.68,263.97 775.68,264.71 778.42,264.71 778.42,265.44 781.16,265.44 781.16,266.18 783.9,266.18 783.9,266.91 786.64,266.91 786.64,267.64 789.38,267.64 789.38,268.38 792.12,268.38 792.12,269.11 794.86,269.11 794.86,269.84 797.6,269.84 797.6,270.56 800.34,270.56 800.34,271.29 803.08,271.29 803.08,272.01 805.82,272.01 805.82,272.73 808.56,272.73 808.56,273.45 811.3,273.45 811.3,274.17 814.04,274.17 814.04,274.88 816.78,274.88 816.78,275.6 819.52,275.6 819.52,276.31 822.26,276.31 822.26,277.01 825,277.01 825,277.72 827.74,277.72 827.74,278.41 830.48,278.41 830.48,279.11 833.22,279.11 833.22,279.8 835.96,279.8 835.96,280.49 838.7,280.49 838.7,281.18 841.44,281.18 841.44,281.86 844.18,281.86 844.18,282.53 846.92,282.53 846.92,283.2 849.66,283.2 849.66,283.87 852.4,283.87 852.4,284.53 855.14,284.53 855.14,285.19 857.88,285.19 857.88,285.84 860.62,285.84 860.62,286.48 863.36,286.48 863.36,287.12 866.1,287.12 866.1,287.75 868.84,287.75 868.84,288.37 871.58,288.37 871.58,288.99 874.32,288.99 874.32,289.6 877.05,289.6 877.05,290.2 879.79,290.2 879.79,290.8 882.53,290.8 882.53,291.39 885.27,291.39 885.27,291.96 888.01,291.96 888.01,292.53 890.75,292.53 890.75,293.1 893.49,293.1 893.49,293.65 896.23,293.65 896.23,294.19 898.97,294.19 898.97,294.72 901.71,294.72 901.71,295.24 904.45,295.24 904.45,295.76 907.19,295.76 907.19,296.26 909.93,296.26 909.93,296.75 912.67,296.75 912.67,297.22 915.41,297.22 915.41,297.69 918.15,297.69 918.15,298.15 920.89,298.15 920.89,298.59 923.63,298.59 923.63,299.02 926.37,299.02 926.37,299.43 929.11,299.43 929.11,299.83 931.85,299.83 931.85,300.22 934.59,300.22 934.59,300.6 937.33,300.6 937.33,300.96 940.07,300.96 940.07,301.3 942.81,301.3 942.81,301.63 945.55,301.63 945.55,301.95 948.29,301.95 948.29,302.24 951.03,302.24 951.03,302.53 953.77,302.53 953.77,302.8 956.51,302.8 956.51,303.05 959.25,303.05 959.25,303.28 961.99,303.28 961.99,303.5 964.73,303.5 964.73,303.7 967.47,303.7 967.47,303.88 970.21,303.88 970.21,304.05 972.95,304.05 972.95,304.2 975.68,304.2 975.68,304.33 978.42,304.33 978.42,304.44 981.16,304.44 981.16,304.54 983.9,304.54 983.9,304.62 986.64,304.62 986.64,304.68 989.38,304.68 989.38,304.72 992.12,304.72 992.12,304.74 994.86,304.74 994.86,304.75 997.6,304.75 997.6,304.74 1000.34,304.74 1000.34,304.7 1003.08,304.7 1003.08,304.66 1005.82,304.66 1005.82,304.59 1008.56,304.59 1008.56,304.5 1011.3,304.5 1011.3,304.4 1014.04,304.4 1014.04,304.28 1016.78,304.28 1016.78,304.14 1019.52,304.14 1019.52,303.98 1022.26,303.98 1022.26,303.81 1025,303.81 1025,510" fill="#80c0ff" stroke="none" stroke-width="0"/>
<line x1="240.07" y1="10" x2="240.07" y2="510" stroke="#00c000" stroke-width="1"/>
<line x1="492.12" y1="10" x2="492.12" y2="510" stroke="#00c000" stroke-width="1"/>
<line x1="749.66" y1="10" x2="749.66" y2="510" stroke="#00c000" stroke-width="1"/>
<line x1="996.23" y1="10" x2="996.23" y2="510" stroke="#00c000" stroke-width="1"/>
<text x="20" y="510" font-family="Arial" font-size="11pt" text-anchor="end" alignment-baseline="middle" fill="#000000">0</text>
<line x1="25" y1="510" x2="1025" y2="510" stroke="#808080" stroke-width="0.5"/>
<text x="20" y="468.33" font-family="Arial" font-size="11pt" text-anchor="end" alignment-baseline="middle" fill="#000000">2</text>
<line x1="25" y1="468.33" x2="1025" y2="468.33" stroke="#808080" stroke-width="0.5"/>
<text x="20" y="426.67" font-family="Arial" font-size="11pt" text-anchor="end" alignment-baseline="middle" fill="#000000">4</text>
<line x1="25" y1="426.67" x2="1025" y2="426.67" stroke="#808080" stroke-width="0.5"/>
<text x="20" y="385" font-family="Arial" font-size="11pt" text-anchor="end" alignment-baseline="middle" fill="#000000">6</text>
<line x1="25" y1="385" x2="1025" y2="385" stroke="#808080" stroke-width="0.5"/>
<text x="20" y="343.33" font-family="Arial" font-size="11pt" text-anchor="end" alignment-baseline="middle" fill="#000000">8</text>
<line x1="25" y1="343.33" x2="1025" y2="343.33" stroke="#808080" stroke-width="0.5"/>
<text x="20" y="301.67" font-family="Arial" font-size="11pt" text-anchor="end" alignment-baseline="middle" fill="#000000">10</text>
<line x1="25" y1="301.67" x2="1025" y2="301.67" stroke="#808080" stroke-width="0.5"/>
<text x="20" y="260" font-family="Arial" font-size="11pt" text-anchor="end" alignment-baseline="middle" fill="#000000">12</text>
<line x1="25" y1="260" x2="1025" y2="260" stroke="#808080" stroke-width="0.5"/>
<text x="20" y="218.33" font-family="Arial" font-size="11pt" text-anchor="end" alignment-baseline="middle" fill="#000000">14</text>
<line x1="25" y1="218.33" x2="1025" y2="218.33" stroke="#808080" stroke-width="0.5"/>
<text x="20" y="176.67" font-family="Arial" font-size="11pt" text-anchor="end" alignment-baseline="middle" fill="#000000">16</text>
<line x1="25" y1="176.67" x2="1025" y2="176.67" stroke="#808080" stroke-width="0.5"/>
<text x="20" y="135" font-family="Arial" font-size="11pt" text-anchor="end" alignment-baseline="middle" fill="#000000">18</text>
<line x1="25" y1="135" x2="1025" y2="135" stroke="#808080" stroke-width="0.5"/>
<text x="20" y="93.33" font-family="Arial" font-size="11pt" text-anchor="end" alignment-baseline="middle" fill="#000000">20</text>
<line x1="25" y1="93.33" x2="1025" y2="93.33" stroke="#808080" stroke-width="0.5"/>
<text x="20" y="51.67" font-family="Arial" font-size="11pt" text-anchor="end" alignment-baseline="middle" fill="#000000">22</text>
<line x1="25" y1="51.67" x2="1025" y2="51.67" stroke="#808080" stroke-width="0.5"/>
<text x="20" y="10" font-family="Arial" font-size="11pt" text-anchor="end" alignment-baseline="middle" fill="#000000">24</text>
<line x1="25" y1="10" x2="1025" y2="10" stroke="#808080" stroke-width="0.5"/>
<text x="67.47" y="522" font-family="Arial" font-size="11pt" text-anchor="middle" alignment-baseline="middle" fill="#000000">Jan</text>
<line x1="25" y1="10" x2="25" y2="510" stroke="#808080" stroke-width="0.5"/>
<text x="148.29" y="522" font-family="Arial" font-size="11pt" text-anchor="middle" alignment-baseline="middle" fill="#000000">Feb</text>
<line x1="109.93" y1="10" x2="109.93" y2="510" stroke="#808080" stroke-width="0.5"/>
<text x="229.11" y="522" font-family="Arial" font-size="11pt" text-anchor="middle" alignment-baseline="middle" fill="#000000">Mar</text>
<line x1="186.64" y1="10" x2="186.64" y2="510" stroke="#808080" stroke-width="0.5"/>
<text x="312.67" y="522" font-family="Arial" font-size="11pt" text-anchor="middle" alignment-baseline="middle" fill="#000000">Apr</text>
<line x1="271.58" y1="10" x2="271.58" y2="510" stroke="#808080" stroke-width="0.5"/>
<text x="396.23" y="522" font-family="Arial" font-size="11pt" text-anchor="middle" alignment-baseline="middle" fill="#000000">May</text>
<line x1="353.77" y1="10" x2="353.77" y2="510" stroke="#808080" stroke-width="0.5"/>
<text x="479.79" y="522" font-family="Arial" font-size="11pt" text-anchor="middle" alignment-baseline="middle" fill="#000000">Jun</text>
<line x1="438.7" y1="10" x2="438.7" y2="510" stroke="#808080" stroke-width="0.5"/>
<text x="563.36" y="522" font-family="Arial" font-size="11pt" text-anchor="middle" alignment-baseline="middle" fill="#000000">Jul</text>
<line x1="520.89" y1="10" x2="520.89" y2="510" stroke="#808080" stroke-width="0.5"/>
<text x="648.29" y="522" font-family="Arial" font-size="11pt" text-anchor="middle" alignment-baseline="middle" fill="#000000">Aug</text>
<line x1="605.82" y1="10" x2="605.82" y2="510" stroke="#808080" stroke-width="0.5"/>
<text x="731.85" y="522" font-family="Arial" font-size="11pt" text-anchor="middle" alignment-baseline="middle" fill="#000000">Sep</text>
<line x1="690.75" y1="10" x2="690.75" y2="510" stroke="#808080" stroke-width="0.5"/>
<text x="815.41" y="522" font-family="Arial" font-size="11pt" text-anchor="middle" alignment-baseline="middle" fill="#000000">Oct</text>
<line x1="772.95" y1="10" x2="772.95" y2="510" stroke="#808080" stroke-width="0.5"/>
<text x="898.97" y="522" font-family="Arial" font-size="11pt" text-anchor="middle" alignment-baseline="middle" fill="#000000">Nov</text>
<line x1="857.88" y1="10" x2="857.88" y2="510" stroke="#808080" stroke-width="0.5"/>
<text x="982.53" y="522" font-family="Arial" font-size="11pt" text-anchor="middle" alignment-baseline="middle" fill="#000000">Dec</text>
<line x1="940.07" y1="10" x2="940.07" y2="510" stroke="#808080" stroke-width="0.5"/>
<line x1="1025" y1="10" x2="1025" y2="510" stroke="#808080" stroke-width="0.5"/>
</svg>