<svg xmlns="http://www.w3.org/2000/svg" width="1035" height="535" viewBox="0 0 1035 535">
<rect x="0" y="0" width="1035" height="535" fill="#ffffff" stroke="none" stroke-width="0"/>
<g transform="translate(25, 510) scale(2.7397260, -0.0057870370)">
<rect x="0" y="0" width="365" height="86400" fill="#000000" stroke="none" stroke-width="0"/>
<path fill="#002040" stroke="none" stroke-width="0" d="M0,0L0,46436L1,46436L1,46464L2,46464L2,46495L3,46495L3,46528L4,46528L4,46563L5,46563L5,46600L6,46600L6,46640L7,46640L7,46682L8,46682L8,46726L9,46726L9,46772L10,46772L10,46821L11,46821L11,46871L12,46871L12,46924L13,46924L13,46979L14,46979L14,47035L15,47035L15,47094L16,47094L16,47155L17,47155L17,47218L18,47218L18,47282L19,47282L19,47349L20,47349L20,47418L21,47418L21,47488L22,47488L22,47560L23,47560L23,47634L24,47634L24,47710L25,47710L25,47788L26,47788L26,47867L27,47867L27,47948L28,47948L28,48031L29,48031L29,48115L30,48115L30,48201L31,48201L31,48289L32,48289L32,48378L33,48378L33,48469L34,48469L34,48561L35,48561L35,48655L36,48655L36,48750L37,48750L37,48846L38,48846L38,48944L39,48944L39,49044L40,49044L40,49144L41,49144L41,49247L42,49247L42,49350L43,49350L43,49455L44,49455L44,49561L45,49561L45,49668L46,49668L46,49777L47,49777L47,49887L48,49887L48,49998L49,49998L49,50110L50,50110L50,50224L51,50224L51,50338L52,50338L52,50454L53,50454L53,50571L54,50571L54,50689L55,50689L55,50808L56,50808L56,50928L57,50928L57,51049L58,51049L58,51172L59,51172L59,51295L60,51295L60,51419L61,51419L61,51544L62,51544L62,51671L63,51671L63,51798L64,51798L64,51926L65,51926L65,52055L66,52055L66,52185L67,52185L67,52316L68,52316L68,52448L69,52448L69,52580L70,52580L70,52714L71,52714L71,52848L72,52848L72,52983L73,52983L73,53120L74,53120L74,53256L75,53256L75,53394L76,53394L76,53533L77,53533L77,53672L78,53672L78,53812L79,53812L79,53953L80,53953L80,54094L81,54094L81,54236L82,54236L82,54379L83,54379L83,54523L84,54523L84,54667L85,54667L85,54812L86,54812L86,54958L87,54958L87,55104L88,55104L88,55251L89,55251L89,55398L90,55398L90,55546L91,55546L91,55695L92,55695L92,55843L93,55843L93,55993L94,55993L94,56143L95,56143L95,56293L96,56293L96,56443L97,56443L97,56594L98,56594L98,56746L99,56746L99,56897L100,56897L100,57049L101,57049L101,57201L102,57201L102,57354L103,57354L103,57506L104,57506L104,57659L105,57659L105,57812L106,57812L106,57965L107,57965L107,58118L108,58118L108,58271L109,58271L109,58424L110,58424L110,58577L111,58577L111,58730L112,58730L112,58882L113,58882L113,59034L114,59034L114,59186L115,59186L115,59338L116,59338L116,59489L117,59489L117,59640L118,59640L118,59790L119,59790L119,59939L120,59939L120,60088L121,60088L121,60236L122,60236L122,60383L123,60383L123,60530L124,60530L124,60675L125,60675L125,60819L126,60819L126,60963L127,60963L127,61105L128,61105L128,61245L129,61245L129,61385L130,61385L130,61522L131,61522L131,61659L132,61659L132,61793L133,61793L133,61926L134,61926L134,62057L135,62057L135,62186L136,62186L136,62314L137,62314L137,62439L138,62439L138,62561L139,62561L139,62682L140,62682L140,62800L141,62800L141,62916L142,62916L142,63029L143,63029L143,63139L144,63139L144,63246L145,63246L145,63351L146,63351L146,63452L147,63452L147,63550L148,63550L148,63645L149,63645L149,63737L150,63737L150,63825L151,63825L151,63910L152,63910L152,63991L153,63991L153,64068L154,64068L154,64141L155,64141L155,64211L156,64211L156,64276L157,64276L157,64338L158,64338L158,64395L159,64395L159,64448L160,64448L160,64497L161,64497L161,64541L162,64541L162,64581L163,64581L163,64617L164,64617L164,64648L165,64648L165,64675L166,64675L166,64697L167,64697L167,64714L168,64714L168,64727L169,64727L169,64736L170,64736L170,64739L171,64739L171,64738L172,64738L172,64732L173,64732L173,64722L174,64722L174,64707L175,64707L175,64688L176,64688L176,64663L177,64663L177,64635L178,64635L178,64602L179,64602L179,64564L180,64564L180,64522L181,64522L181,64476L182,64476L182,64425L183,64425L183,64370L184,64370L184,64311L185,64311L185,64248L186,64248L186,64181L187,64181L187,64110L188,64110L188,64036L189,64036L189,63957L190,63957L190,63875L191,63875L191,63790L192,63790L192,63701L193,63701L193,63608L194,63608L194,63513L195,63513L195,63414L196,63414L196,63312L197,63312L197,63207L198,63207L198,63100L199,63100L199,62989L200,62989L200,62876L201,62876L201,62761L202,62761L202,62643L203,62643L203,62522L204,62522L204,62400L205,62400L205,62275L206,62275L206,62148L207,62148L207,62020L208,62020L208,61889L209,61889L209,61757L210,61757L210,61623L211,61623L211,61488L212,61488L212,61351L213,61351L213,61212L214,61212L214,61073L215,61073L215,60932L216,60932L216,60790L217,60790L217,60647L218,60647L218,60503L219,60503L219,60359L220,60359L220,60213L221,60213L221,60066L222,60066L222,59919L223,59919L223,59772L224,59772L224,59623L225,59623L225,59475L226,59475L226,59325L227,59325L227,59176L228,59176L228,59026L229,59026L229,58875L230,58875L230,58725L231,58725L231,58574L232,58574L232,58423L233,58423L233,58272L234,58272L234,58121L235,58121L235,57970L236,57970L236,57819L237,57819L237,57668L238,57668L238,57518L239,57518L239,57367L240,57367L240,57217L241,57217L241,57067L242,57067L242,56917L243,56917L243,56767L244,56767L244,56618L245,56618L245,56469L246,56469L246,56321L247,56321L247,56172L248,56172L248,56025L249,56025L249,55878L250,55878L250,55731L251,55731L251,55585L252,55585L252,55439L253,55439L253,55294L254,55294L254,55149L255,55149L255,55005L256,55005L256,54861L257,54861L257,54719L258,54719L258,54576L259,54576L259,54435L260,54435L260,54294L261,54294L261,54153L262,54153L262,54013L263,54013L263,53874L264,53874L264,53736L265,53736L265,53599L266,53599L266,53462L267,53462L267,53326L268,53326L268,53190L269,53190L269,53056L270,53056L270,52922L271,52922L271,52789L272,52789L272,52657L273,52657L273,52526L274,52526L274,52396L275,52396L275,52266L276,52266L276,52138L277,52138L277,52010L278,52010L278,51883L279,51883L279,51757L280,51757L280,51632L281,51632L281,51508L282,51508L282,51385L283,51385L283,51263L284,51263L284,51142L285,51142L285,51022L286,51022L286,50902L287,50902L287,50784L288,50784L288,50667L289,50667L289,50551L290,50551L290,50436L291,50436L291,50322L292,50322L292,50209L293,50209L293,50097L294,50097L294,49986L295,49986L295,49877L296,49877L296,49768L297,49768L297,49661L298,49661L298,49555L299,49555L299,49451L300,49451L300,49347L301,49347L301,49245L302,49245L302,49144L303,49144L303,49044L304,49044L304,48946L305,48946L305,48849L306,48849L306,48754L307,48754L307,48660L308,48660L308,48567L309,48567L309,48476L310,48476L310,48386L311,48386L311,48297L312,48297L312,48211L313,48211L313,48125L314,48125L314,48042L315,48042L315,47960L316,47960L316,47879L317,47879L317,47800L318,47800L318,47723L319,47723L319,47648L320,47648L320,47574L321,47574L321,47502L322,47502L322,47432L323,47432L323,47363L324,47363L324,47297L325,47297L325,47232L326,47232L326,47169L327,47169L327,47109L328,47109L328,47050L329,47050L329,46993L330,46993L330,46938L331,46938L331,46885L332,46885L332,46834L333,46834L333,46785L334,46785L334,46739L335,46739L335,46694L336,46694L336,46652L337,46652L337,46612L338,46612L338,46574L339,46574L339,46538L340,46538L340,46505L341,46505L341,46474L342,46474L342,46445L343,46445L343,46418L344,46418L344,46394L345,46394L345,46372L346,46372L346,46352L347,46352L347,46335L348,46335L348,46320L349,46320L349,46307L350,46307L350,46297L351,46297L351,46289L352,46289L352,46283L353,46283L353,46280L355,46280L355,46281L356,46281L356,46285L357,46285L357,46292L358,46292L358,46301L359,46301L359,46312L360,46312L360,46326L361,46326L361,46342L362,46342L362,46360L363,46360L363,46381L364,46381L364,46404L365,46404L365,0Z"/>
<path fill="#004080" stroke="none" stroke-width="0" d="M0,0L0,42767L1,42767L1,42798L2,42798L2,42831L3,42831L3,42867L4,42867L4,42905L5,42905L5,42945L6,42945L6,42988L7,42988L7,43033L8,43033L8,43081L9,43081L9,43130L10,43130L10,43182L11,43182L11,43237L12,43237L12,43293L13,43293L13,43352L14,43352L14,43413L15,43413L15,43475L16,43475L16,43540L17,43540L17,43607L18,43607L18,43676L19,43676L19,43747L20,43747L20,43820L21,43820L21,43895L22,43895L22,43971L23,43971L23,44050L24,44050L24,44130L25,44130L25,44212L26,44212L26,44296L27,44296L27,44381L28,44381L28,44468L29,44468L29,44557L30,44557L30,44647L31,44647L31,44738L32,44738L32,44831L33,44831L33,44926L34,44926L34,45022L35,45022L35,45120L36,45120L36,45218L37,45218L37,45318L38,45318L38,45420L39,45420L39,45523L40,45523L40,45626L41,45626L41,45732L42,45732L42,45838L43,45838L43,45945L44,45945L44,46054L45,46054L45,46164L46,46164L46,46274L47,46274L47,46386L48,46386L48,46499L49,46499L49,46613L50,46613L50,46728L51,46728L51,46844L52,46844L52,46960L53,46960L53,47078L54,47078L54,47197L55,47197L55,47316L56,47316L56,47436L57,47436L57,47557L58,47557L58,47679L59,47679L59,47802L60,47802L60,47926L61,47926L61,48050L62,48050L62,48175L63,48175L63,48300L64,48300L64,48426L65,48426L65,48553L66,48553L66,48681L67,48681L67,48809L68,48809L68,48938L69,48938L69,49068L70,49068L70,49198L71,49198L71,49328L72,49328L72,49459L73,49459L73,49591L74,49591L74,49723L75,49723L75,49856L76,49856L76,49989L77,49989L77,50123L78,50123L78,50257L79,50257L79,50392L80,50392L80,50527L81,50527L81,50662L82,50662L82,50798L83,50798L83,50934L84,50934L84,51071L85,51071L85,51208L86,51208L86,51345L87,51345L87,51483L88,51483L88,51621L89,51621L89,51759L90,51759L90,51897L91,51897L91,52035L92,52035L92,52174L93,52174L93,52313L94,52313L94,52452L95,52452L95,52591L96,52591L96,52730L97,52730L97,52869L98,52869L98,53008L99,53008L99,53147L100,53147L100,53286L101,53286L101,53426L102,53426L102,53565L103,53565L103,53703L104,53703L104,53842L105,53842L105,53981L106,53981L106,54119L107,54119L107,54257L108,54257L108,54395L109,54395L109,54532L110,54532L110,54669L111,54669L111,54806L112,54806L112,54942L113,54942L113,55078L114,55078L114,55213L115,55213L115,55348L116,55348L116,55482L117,55482L117,55615L118,55615L118,55747L119,55747L119,55879L120,55879L120,56009L121,56009L121,56139L122,56139L122,56268L123,56268L123,56395L124,56395L124,56522L125,56522L125,56647L126,56647L126,56771L127,56771L127,56894L128,56894L128,57016L129,57016L129,57136L130,57136L130,57254L131,57254L131,57371L132,57371L132,57486L133,57486L133,57600L134,57600L134,57711L135,57711L135,57821L136,57821L136,57929L137,57929L137,58035L138,58035L138,58139L139,58139L139,58241L140,58241L140,58340L141,58340L141,58438L142,58438L142,58532L143,58532L143,58625L144,58625L144,58715L145,58715L145,58802L146,58802L146,58886L147,58886L147,58968L148,58968L148,59047L149,59047L149,59123L150,59123L150,59196L151,59196L151,59266L152,59266L152,59333L153,59333L153,59396L154,59396L154,59457L155,59457L155,59514L156,59514L156,59568L157,59568L157,59618L158,59618L158,59665L159,59665L159,59708L160,59708L160,59748L161,59748L161,59785L162,59785L162,59817L163,59817L163,59847L164,59847L164,59872L165,59872L165,59894L166,59894L166,59912L167,59912L167,59926L168,59926L168,59936L169,59936L169,59943L170,59943L170,59946L171,59946L171,59945L172,59945L172,59941L173,59941L173,59932L174,59932L174,59920L175,59920L175,59904L176,59904L176,59884L177,59884L177,59861L178,59861L178,59834L179,59834L179,59803L180,59803L180,59769L181,59769L181,59731L182,59731L182,59690L183,59690L183,59645L184,59645L184,59596L185,59596L185,59545L186,59545L186,59490L187,59490L187,59431L188,59431L188,59370L189,59370L189,59305L190,59305L190,59237L191,59237L191,59167L192,59167L192,59093L193,59093L193,59016L194,59016L194,58937L195,58937L195,58855L196,58855L196,58770L197,58770L197,58682L198,58682L198,58592L199,58592L199,58499L200,58499L200,58405L201,58405L201,58307L202,58307L202,58208L203,58208L203,58106L204,58106L204,58002L205,58002L205,57897L206,57897L206,57789L207,57789L207,57679L208,57679L208,57568L209,57568L209,57455L210,57455L210,57340L211,57340L211,57224L212,57224L212,57106L213,57106L213,56987L214,56987L214,56867L215,56867L215,56745L216,56745L216,56622L217,56622L217,56498L218,56498L218,56372L219,56372L219,56246L220,56246L220,56118L221,56118L221,55990L222,55990L222,55861L223,55861L223,55731L224,55731L224,55600L225,55600L225,55469L226,55469L226,55336L227,55336L227,55204L228,55204L228,55070L229,55070L229,54936L230,54936L230,54802L231,54802L231,54667L232,54667L232,54532L233,54532L233,54396L234,54396L234,54260L235,54260L235,54124L236,54124L236,53987L237,53987L237,53850L238,53850L238,53713L239,53713L239,53576L240,53576L240,53439L241,53439L241,53302L242,53302L242,53165L243,53165L243,53028L244,53028L244,52891L245,52891L245,52753L246,52753L246,52616L247,52616L247,52479L248,52479L248,52342L249,52342L249,52206L250,52206L250,52069L251,52069L251,51933L252,51933L252,51797L253,51797L253,51661L254,51661L254,51525L255,51525L255,51389L256,51389L256,51254L257,51254L257,51119L258,51119L258,50985L259,50985L259,50850L260,50850L260,50717L261,50717L261,50583L262,50583L262,50450L263,50450L263,50317L264,50317L264,50185L265,50185L265,50053L266,50053L266,49921L267,49921L267,49790L268,49790L268,49660L269,49660L269,49530L270,49530L270,49400L271,49400L271,49271L272,49271L272,49143L273,49143L273,49015L274,49015L274,48888L275,48888L275,48761L276,48761L276,48635L277,48635L277,48509L278,48509L278,48385L279,48385L279,48260L280,48260L280,48137L281,48137L281,48014L282,48014L282,47892L283,47892L283,47771L284,47771L284,47650L285,47650L285,47530L286,47530L286,47411L287,47411L287,47293L288,47293L288,47175L289,47175L289,47058L290,47058L290,46942L291,46942L291,46827L292,46827L292,46713L293,46713L293,46600L294,46600L294,46488L295,46488L295,46376L296,46376L296,46266L297,46266L297,46157L298,46157L298,46048L299,46048L299,45941L300,45941L300,45835L301,45835L301,45730L302,45730L302,45626L303,45626L303,45523L304,45523L304,45422L305,45422L305,45322L306,45322L306,45223L307,45223L307,45125L308,45125L308,45029L309,45029L309,44933L310,44933L310,44840L311,44840L311,44748L312,44748L312,44657L313,44657L313,44567L314,44567L314,44480L315,44480L315,44393L316,44393L316,44309L317,44309L317,44225L318,44225L318,44144L319,44144L319,44064L320,44064L320,43986L321,43986L321,43910L322,43910L322,43835L323,43835L323,43763L324,43763L324,43692L325,43692L325,43623L326,43623L326,43556L327,43556L327,43491L328,43491L328,43428L329,43428L329,43367L330,43367L330,43308L331,43308L331,43252L332,43252L332,43197L333,43197L333,43145L334,43145L334,43094L335,43094L335,43047L336,43047L336,43001L337,43001L337,42958L338,42958L338,42917L339,42917L339,42878L340,42878L340,42842L341,42842L341,42808L342,42808L342,42777L343,42777L343,42748L344,42748L344,42722L345,42722L345,42698L346,42698L346,42676L347,42676L347,42658L348,42658L348,42641L349,42641L349,42628L350,42628L350,42616L351,42616L351,42608L352,42608L352,42602L353,42602L353,42599L354,42599L354,42598L355,42598L355,42600L356,42600L356,42604L357,42604L357,42611L358,42611L358,42621L359,42621L359,42633L360,42633L360,42648L361,42648L361,42665L362,42665L362,42685L363,42685L363,42708L364,42708L364,42733L365,42733L365,0Z"/>
<path fill="#0060c0" stroke="none" stroke-width="0" d="M0,0L0,39007L1,39007L1,39041L2,39041L2,39077L3,39077L3,39116L4,39116L4,39158L5,39158L5,39202L6,39202L6,39249L7,39249L7,39298L8,39298L8,39350L9,39350L9,39404L10,39404L10,39461L11,39461L11,39520L12,39520L12,39582L13,39582L13,39645L14,39645L14,39711L15,39711L15,39779L16,39779L16,39850L17,39850L17,39922L18,39922L18,39997L19,39997L19,40073L20,40073L20,40152L21,40152L21,40232L22,40232L22,40315L23,40315L23,40399L24,40399L24,40485L25,40485L25,40573L26,40573L26,40662L27,40662L27,40754L28,40754L28,40846L29,40846L29,40941L30,40941L30,41037L31,41037L31,41134L32,41134L32,41233L33,41233L33,41333L34,41333L34,41434L35,41434L35,41537L36,41537L36,41641L37,41641L37,41747L38,41747L38,41853L39,41853L39,41961L40,41961L40,42070L41,42070L41,42180L42,42180L42,42291L43,42291L43,42402L44,42402L44,42515L45,42515L45,42629L46,42629L46,42744L47,42744L47,42860L48,42860L48,42976L49,42976L49,43094L50,43094L50,43212L51,43212L51,43331L52,43331L52,43450L53,43450L53,43571L54,43571L54,43692L55,43692L55,43814L56,43814L56,43936L57,43936L57,44059L58,44059L58,44183L59,44183L59,44307L60,44307L60,44431L61,44431L61,44557L62,44557L62,44682L63,44682L63,44808L64,44808L64,44935L65,44935L65,45062L66,45062L66,45189L67,45189L67,45317L68,45317L68,45445L69,45445L69,45574L70,45574L70,45703L71,45703L71,45832L72,45832L72,45961L73,45961L73,46091L74,46091L74,46221L75,46221L75,46351L76,46351L76,46482L77,46482L77,46612L78,46612L78,46743L79,46743L79,46874L80,46874L80,47006L81,47006L81,47137L82,47137L82,47269L83,47269L83,47400L84,47400L84,47532L85,47532L85,47664L86,47664L86,47796L87,47796L87,47928L88,47928L88,48060L89,48060L89,48191L90,48191L90,48323L91,48323L91,48455L92,48455L92,48587L93,48587L93,48718L94,48718L94,48850L95,48850L95,48981L96,48981L96,49112L97,49112L97,49243L98,49243L98,49374L99,49374L99,49504L100,49504L100,49634L101,49634L101,49764L102,49764L102,49894L103,49894L103,50023L104,50023L104,50152L105,50152L105,50280L106,50280L106,50408L107,50408L107,50536L108,50536L108,50663L109,50663L109,50789L110,50789L110,50915L111,50915L111,51040L112,51040L112,51165L113,51165L113,51289L114,51289L114,51412L115,51412L115,51534L116,51534L116,51656L117,51656L117,51777L118,51777L118,51897L119,51897L119,52015L120,52015L120,52133L121,52133L121,52250L122,52250L122,52366L123,52366L123,52480L124,52480L124,52594L125,52594L125,52706L126,52706L126,52817L127,52817L127,52926L128,52926L128,53034L129,53034L129,53141L130,53141L130,53246L131,53246L131,53349L132,53349L132,53451L133,53451L133,53552L134,53552L134,53650L135,53650L135,53747L136,53747L136,53842L137,53842L137,53935L138,53935L138,54026L139,54026L139,54115L140,54115L140,54202L141,54202L141,54287L142,54287L142,54369L143,54369L143,54450L144,54450L144,54528L145,54528L145,54603L146,54603L146,54677L147,54677L147,54748L148,54748L148,54816L149,54816L149,54881L150,54881L150,54944L151,54944L151,55005L152,55005L152,55062L153,55062L153,55117L154,55117L154,55169L155,55169L155,55218L156,55218L156,55264L157,55264L157,55308L158,55308L158,55348L159,55348L159,55385L160,55385L160,55419L161,55419L161,55450L162,55450L162,55478L163,55478L163,55503L164,55503L164,55525L165,55525L165,55544L166,55544L166,55559L167,55559L167,55571L168,55571L168,55580L169,55580L169,55586L170,55586L170,55588L172,55588L172,55584L173,55584L173,55577L174,55577L174,55566L175,55566L175,55553L176,55553L176,55536L177,55536L177,55516L178,55516L178,55493L179,55493L179,55466L180,55466L180,55437L181,55437L181,55405L182,55405L182,55369L183,55369L183,55331L184,55331L184,55289L185,55289L185,55245L186,55245L186,55197L187,55197L187,55147L188,55147L188,55094L189,55094L189,55039L190,55039L190,54980L191,54980L191,54919L192,54919L192,54855L193,54855L193,54789L194,54789L194,54720L195,54720L195,54649L196,54649L196,54575L197,54575L197,54499L198,54499L198,54421L199,54421L199,54341L200,54341L200,54258L201,54258L201,54173L202,54173L202,54086L203,54086L203,53997L204,53997L204,53906L205,53906L205,53813L206,53813L206,53718L207,53718L207,53622L208,53622L208,53524L209,53524L209,53424L210,53424L210,53322L211,53322L211,53219L212,53219L212,53115L213,53115L213,53009L214,53009L214,52902L215,52902L215,52793L216,52793L216,52683L217,52683L217,52572L218,52572L218,52460L219,52460L219,52346L220,52346L220,52232L221,52232L221,52116L222,52116L222,52000L223,52000L223,51882L224,51882L224,51764L225,51764L225,51644L226,51644L226,51524L227,51524L227,51403L228,51403L228,51282L229,51282L229,51159L230,51159L230,51036L231,51036L231,50913L232,50913L232,50788L233,50788L233,50664L234,50664L234,50538L235,50538L235,50412L236,50412L236,50286L237,50286L237,50159L238,50159L238,50032L239,50032L239,49905L240,49905L240,49777L241,49777L241,49649L242,49649L242,49521L243,49521L243,49392L244,49392L244,49263L245,49263L245,49134L246,49134L246,49005L247,49005L247,48876L248,48876L248,48746L249,48746L249,48617L250,48617L250,48487L251,48487L251,48358L252,48358L252,48228L253,48228L253,48098L254,48098L254,47968L255,47968L255,47838L256,47838L256,47709L257,47709L257,47579L258,47579L258,47449L259,47449L259,47319L260,47319L260,47190L261,47190L261,47060L262,47060L262,46931L263,46931L263,46802L264,46802L264,46673L265,46673L265,46544L266,46544L266,46415L267,46415L267,46287L268,46287L268,46159L269,46159L269,46031L270,46031L270,45903L271,45903L271,45775L272,45775L272,45648L273,45648L273,45522L274,45522L274,45395L275,45395L275,45269L276,45269L276,45143L277,45143L277,45018L278,45018L278,44893L279,44893L279,44769L280,44769L280,44645L281,44645L281,44521L282,44521L282,44398L283,44398L283,44275L284,44275L284,44153L285,44153L285,44031L286,44031L286,43910L287,43910L287,43790L288,43790L288,43670L289,43670L289,43551L290,43551L290,43432L291,43432L291,43314L292,43314L292,43197L293,43197L293,43080L294,43080L294,42965L295,42965L295,42850L296,42850L296,42735L297,42735L297,42622L298,42622L298,42510L299,42510L299,42398L300,42398L300,42288L301,42288L301,42178L302,42178L302,42070L303,42070L303,41962L304,41962L304,41856L305,41856L305,41750L306,41750L306,41646L307,41646L307,41543L308,41543L308,41441L309,41441L309,41341L310,41341L310,41242L311,41242L311,41144L312,41144L312,41047L313,41047L313,40952L314,40952L314,40859L315,40859L315,40767L316,40767L316,40676L317,40676L317,40587L318,40587L318,40500L319,40500L319,40415L320,40415L320,40331L321,40331L321,40249L322,40249L322,40168L323,40168L323,40090L324,40090L324,40014L325,40014L325,39939L326,39939L326,39867L327,39867L327,39796L328,39796L328,39728L329,39728L329,39662L330,39662L330,39598L331,39598L331,39536L332,39536L332,39477L333,39477L333,39420L334,39420L334,39365L335,39365L335,39313L336,39313L336,39263L337,39263L337,39216L338,39216L338,39171L339,39171L339,39129L340,39129L340,39089L341,39089L341,39052L342,39052L342,39018L343,39018L343,38986L344,38986L344,38957L345,38957L345,38931L346,38931L346,38908L347,38908L347,38887L348,38887L348,38869L349,38869L349,38854L350,38854L350,38842L351,38842L351,38832L352,38832L352,38826L353,38826L353,38822L354,38822L354,38821L355,38821L355,38823L356,38823L356,38828L357,38828L357,38836L358,38836L358,38847L359,38847L359,38860L360,38860L360,38876L361,38876L361,38895L362,38895L362,38917L363,38917L363,38942L364,38942L364,38970L365,38970L365,0Z"/>
<path fill="#80c0ff" stroke="none" stroke-width="0" d="M0,0L0,35671L1,35671L1,35708L2,35708L2,35748L3,35748L3,35791L4,35791L4,35836L5,35836L5,35885L6,35885L6,35936L7,35936L7,35990L8,35990L8,36046L9,36046L9,36105L10,36105L10,36167L11,36167L11,36231L12,36231L12,36298L13,36298L13,36367L14,36367L14,36439L15,36439L15,36513L16,36513L16,36589L17,36589L17,36668L18,36668L18,36749L19,36749L19,36831L20,36831L20,36916L21,36916L21,37003L22,37003L22,37092L23,37092L23,37183L24,37183L24,37275L25,37275L25,37369L26,37369L26,37465L27,37465L27,37563L28,37563L28,37662L29,37662L29,37763L30,37763L30,37866L31,37866L31,37970L32,37970L32,38075L33,38075L33,38181L34,38181L34,38289L35,38289L35,38398L36,38398L36,38508L37,38508L37,38620L38,38620L38,38732L39,38732L39,38846L40,38846L40,38961L41,38961L41,39076L42,39076L42,39193L43,39193L43,39310L44,39310L44,39428L45,39428L45,39547L46,39547L46,39667L47,39667L47,39788L48,39788L48,39909L49,39909L49,40031L50,40031L50,40154L51,40154L51,40277L52,40277L52,40401L53,40401L53,40525L54,40525L54,40650L55,40650L55,40775L56,40775L56,40901L57,40901L57,41027L58,41027L58,41154L59,41154L59,41281L60,41281L60,41408L61,41408L61,41536L62,41536L62,41664L63,41664L63,41792L64,41792L64,41921L65,41921L65,42049L66,42049L66,42178L67,42178L67,42307L68,42307L68,42437L69,42437L69,42566L70,42566L70,42696L71,42696L71,42825L72,42825L72,42955L73,42955L73,43085L74,43085L74,43214L75,43214L75,43344L76,43344L76,43474L77,43474L77,43604L78,43604L78,43734L79,43734L79,43864L80,43864L80,43994L81,43994L81,44123L82,44123L82,44253L83,44253L83,44383L84,44383L84,44512L85,44512L85,44642L86,44642L86,44771L87,44771L87,44900L88,44900L88,45028L89,45028L89,45157L90,45157L90,45285L91,45285L91,45413L92,45413L92,45541L93,45541L93,45668L94,45668L94,45796L95,45796L95,45922L96,45922L96,46049L97,46049L97,46175L98,46175L98,46300L99,46300L99,46425L100,46425L100,46550L101,46550L101,46674L102,46674L102,46798L103,46798L103,46921L104,46921L104,47044L105,47044L105,47166L106,47166L106,47287L107,47287L107,47408L108,47408L108,47528L109,47528L109,47648L110,47648L110,47767L111,47767L111,47885L112,47885L112,48002L113,48002L113,48118L114,48118L114,48234L115,48234L115,48349L116,48349L116,48462L117,48462L117,48575L118,48575L118,48687L119,48687L119,48798L120,48798L120,48907L121,48907L121,49016L122,49016L122,49123L123,49123L123,49229L124,49229L124,49334L125,49334L125,49438L126,49438L126,49540L127,49540L127,49641L128,49641L128,49740L129,49740L129,49838L130,49838L130,49935L131,49935L131,50030L132,50030L132,50123L133,50123L133,50215L134,50215L134,50305L135,50305L135,50393L136,50393L136,50480L137,50480L137,50565L138,50565L138,50647L139,50647L139,50728L140,50728L140,50807L141,50807L141,50884L142,50884L142,50959L143,50959L143,51032L144,51032L144,51103L145,51103L145,51171L146,51171L146,51237L147,51237L147,51301L148,51301L148,51363L149,51363L149,51422L150,51422L150,51479L151,51479L151,51533L152,51533L152,51585L153,51585L153,51634L154,51634L154,51681L155,51681L155,51725L156,51725L156,51766L157,51766L157,51805L158,51805L158,51841L159,51841L159,51874L160,51874L160,51905L161,51905L161,51933L162,51933L162,51958L163,51958L163,51980L164,51980L164,51999L165,51999L165,52016L166,52016L166,52030L167,52030L167,52041L168,52041L168,52049L169,52049L169,52054L170,52054L170,52056L171,52056L171,52055L172,52055L172,52052L173,52052L173,52045L174,52045L174,52036L175,52036L175,52024L176,52024L176,52009L177,52009L177,51991L178,51991L178,51970L179,51970L179,51947L180,51947L180,51921L181,51921L181,51892L182,51892L182,51860L183,51860L183,51825L184,51825L184,51788L185,51788L185,51748L186,51748L186,51706L187,51706L187,51661L188,51661L188,51613L189,51613L189,51563L190,51563L190,51511L191,51511L191,51456L192,51456L192,51398L193,51398L193,51339L194,51339L194,51277L195,51277L195,51212L196,51212L196,51146L197,51146L197,51077L198,51077L198,51006L199,51006L199,50933L200,50933L200,50858L201,50858L201,50781L202,50781L202,50702L203,50702L203,50621L204,50621L204,50538L205,50538L205,50454L206,50454L206,50367L207,50367L207,50279L208,50279L208,50189L209,50189L209,50098L210,50098L210,50005L211,50005L211,49910L212,49910L212,49814L213,49814L213,49717L214,49717L214,49618L215,49618L215,49518L216,49518L216,49417L217,49417L217,49314L218,49314L218,49210L219,49210L219,49105L220,49105L220,48999L221,48999L221,48891L222,48891L222,48783L223,48783L223,48673L224,48673L224,48563L225,48563L225,48451L226,48451L226,48339L227,48339L227,48226L228,48226L228,48112L229,48112L229,47997L230,47997L230,47881L231,47881L231,47764L232,47764L232,47647L233,47647L233,47529L234,47529L234,47411L235,47411L235,47291L236,47291L236,47171L237,47171L237,47051L238,47051L238,46930L239,46930L239,46809L240,46809L240,46687L241,46687L241,46564L242,46564L242,46441L243,46441L243,46318L244,46318L244,46194L245,46194L245,46070L246,46070L246,45946L247,45946L247,45821L248,45821L248,45696L249,45696L249,45570L250,45570L250,45445L251,45445L251,45319L252,45319L252,45192L253,45192L253,45066L254,45066L254,44939L255,44939L255,44812L256,44812L256,44685L257,44685L257,44558L258,44558L258,44431L259,44431L259,44303L260,44303L260,44176L261,44176L261,44048L262,44048L262,43920L263,43920L263,43792L264,43792L264,43664L265,43664L265,43536L266,43536L266,43408L267,43408L267,43280L268,43280L268,43152L269,43152L269,43024L270,43024L270,42897L271,42897L271,42769L272,42769L272,42641L273,42641L273,42514L274,42514L274,42386L275,42386L275,42259L276,42259L276,42132L277,42132L277,42005L278,42005L278,41878L279,41878L279,41752L280,41752L280,41626L281,41626L281,41500L282,41500L282,41374L283,41374L283,41249L284,41249L284,41124L285,41124L285,40999L286,40999L286,40875L287,40875L287,40751L288,40751L288,40627L289,40627L289,40504L290,40504L290,40382L291,40382L291,40260L292,40260L292,40138L293,40138L293,40017L294,40017L294,39897L295,39897L295,39777L296,39777L296,39658L297,39658L297,39540L298,39540L298,39422L299,39422L299,39306L300,39306L300,39190L301,39190L301,39075L302,39075L302,38960L303,38960L303,38847L304,38847L304,38735L305,38735L305,38624L306,38624L306,38514L307,38514L307,38405L308,38405L308,38297L309,38297L309,38190L310,38190L310,38084L311,38084L311,37980L312,37980L312,37878L313,37878L313,37776L314,37776L314,37676L315,37676L315,37578L316,37578L316,37481L317,37481L317,37385L318,37385L318,37292L319,37292L319,37199L320,37199L320,37109L321,37109L321,37021L322,37021L322,36934L323,36934L323,36850L324,36850L324,36767L325,36767L325,36686L326,36686L326,36608L327,36608L327,36532L328,36532L328,36458L329,36458L329,36386L330,36386L330,36316L331,36316L331,36249L332,36249L332,36185L333,36185L333,36122L334,36122L334,36063L335,36063L335,36006L336,36006L336,35951L337,35951L337,35900L338,35900L338,35851L339,35851L339,35805L340,35805L340,35761L341,35761L341,35721L342,35721L342,35683L343,35683L343,35648L344,35648L344,35616L345,35616L345,35588L346,35588L346,35562L347,35562L347,35539L348,35539L348,35519L349,35519L349,35503L350,35503L350,35489L351,35489L351,35479L352,35479L352,35472L353,35472L353,35468L354,35468L354,35467L355,35467L355,35469L356,35469L356,35475L357,35475L357,35483L358,35483L358,35495L359,35495L359,35510L360,35510L360,35527L361,35527L361,35548L362,35548L362,35572L363,35572L363,35600L364,35600L364,35630L365,35630L365,0Z"/>
<line x1="78.5" y1="86400" x2="78.5" y2="0" stroke="#00c000" stroke-width="1" vector-effect="non-scaling-stroke"/>
<line x1="170.5" y1="86400" x2="170.5" y2="0" stroke="#00c000" stroke-width="1" vector-effect="non-scaling-stroke"/>
<line x1="264.5" y1="86400" x2="264.5" y2="0" stroke="#00c000" stroke-width="1" vector-effect="non-scaling-stroke"/>
<line x1="354.5" y1="86400" x2="354.5" y2="0" stroke="#00c000" stroke-width="1" vector-effect="non-scaling-stroke"/>
</g>
<text x="20" y="510" font-family="Arial" font-size="11pt" text-anchor="end" alignment-baseline="middle" fill="#000000">0</text>
<line x1="25" y1="510" x2="1025" y2="510" stroke="#808080" stroke-width="0.5"/>
<text x="20" y="468.33" font-family="Arial" font-size="11pt" text-anchor="end" alignment-baseline="middle" fill="#000000">2</text>
<line x1="25" y1="468.33" x2="1025" y2="468.33" stroke="#808080" stroke-width="0.5"/>
<text x="20" y="426.67" font-family="Arial" font-size="11pt" text-anchor="end" alignment-baseline="middle" fill="#000000">4</text>
<line x1="25" y1="426.67" x2="1025" y2="426.67" stroke="#808080" stroke-width="0.5"/>
<text x="20" y="385" font-family="Arial" font-size="11pt" text-anchor="end" alignment-baseline="middle" fill="#000000">6</text>
<line x1="25" y1="385" x2="1025" y2="385" stroke="#808080" stroke-width="0.5"/>
<text x="20" y="343.33" font-family="Arial" font-size="11pt" text-anchor="end" alignment-baseline="middle" fill="#000000">8</text>
<line x1="25" y1="343.33" x2="1025" y2="343.33" stroke="#808080" stroke-width="0.5"/>
<text x="20" y="301.67" font-family="Arial" font-size="11pt" text-anchor="end" alignment-baseline="middle" fill="#000000">10</text>
<line x1="25" y1="301.67" x2="1025" y2="301.67" stroke="#808080" stroke-width="0.5"/>
<text x="20" y="260" font-family="Arial" font-size="11pt" text-anchor="end" alignment-baseline="middle" fill="#000000">12</text>
<line x1="25" y1="260" x2="1025" y2="260" stroke="#808080" stroke-width="0.5"/>
<text x="20" y="218.33" font-family="Arial" font-size="11pt" text-anchor="end" alignment-baseline="middle" fill="#000000">14</text>
<line x1="25" y1="218.33" x2="1025" y2="218.33" stroke="#808080" stroke-width="0.5"/>
<text x="20" y="176.67" font-family="Arial" font-size="11pt" text-anchor="end" alignment-baseline="middle" fill="#000000">16</text>
<line x1="25" y1="176.67" x2="1025" y2="176.67" stroke="#808080" stroke-width="0.5"/>
<text x="20" y="135" font-family="Arial" font-size="11pt" text-anchor="end" alignment-baseline="middle" fill="#000000">18</text>
<line x1="25" y1="135" x2="1025" y2="135" stroke="#808080" stroke-width="0.5"/>
<text x="20" y="93.33" font-family="Arial" font-size="11pt" text-anchor="end" alignment-baseline="middle" fill="#000000">20</text>
<line x1="25" y1="93.33" x2="1025" y2="93.33" stroke="#808080" stroke-width="0.5"/>
<text x="20" y="51.67" font-family="Arial" font-size="11pt" text-anchor="end" alignment-baseline="middle" fill="#000000">22</text>
<line x1="25" y1="51.67" x2="1025" y2="51.67" stroke="#808080" stroke-width="0.5"/>
<text x="20" y="10" font-family="Arial" font-size="11pt" text-anchor="end" alignment-baseline="middle" fill="#000000">24</text>
<line x1="25" y1="10" x2="1025" y2="10" stroke="#808080" stroke-width="0.5"/>
<text x="67.47" y="522" font-family="Arial" font-size="11pt" text-anchor="middle" alignment-baseline="middle" fill="#000000">Jan</text>
<line x1="25" y1="10" x2="25" y2="510" stroke="#808080" stroke-width="0.5"/>
<text x="148.29" y="522" font-family="Arial" font-size="11pt" text-anchor="middle" alignment-baseline="middle" fill="#000000">Feb</text>
<line x1="109.93" y1="10" x2="109.93" y2="510" stroke="#808080" stroke-width="0.5"/>
<text x="229.11" y="522" font-family="Arial" font-size="11pt" text-anchor="middle" alignment-baseline="middle" fill="#000000">Mar</text>
<line x1="186.64" y1="10" x2="186.64" y2="510" stroke="#808080" stroke-width="0.5"/>
<text x="312.67" y="522" font-family="Arial" font-size="11pt" text-anchor="middle" alignment-baseline="middle" fill="#000000">Apr</text>
<line x1="271.58" y1="10" x2="271.58" y2="510" stroke="#808080" stroke-width="0.5"/>
<text x="396.23" y="522" font-family="Arial" font-size="11pt" text-anchor="middle" alignment-baseline="middle" fill="#000000">May</text>
<line x1="353.77" y1="10" x2="353.77" y2="510" stroke="#808080" stroke-width="0.5"/>
<text x="479.79" y="522" font-family="Arial" font-size="11pt" text-anchor="middle" alignment-baseline="middle" fill="#000000">Jun</text>
<line x1="438.7" y1="10" x2="438.7" y2="510" stroke="#808080" stroke-width="0.5"/>
<text x="563.36" y="522" font-family="Arial" font-size="11pt" text-anchor="middle" alignment-baseline="middle" fill="#000000">Jul</text>
<line x1="520.89" y1="10" x2="520.89" y2="510" stroke="#808080" stroke-width="0.5"/>
<text x="648.29" y="522" font-family="Arial" font-size="11pt" text-anchor="middle" alignment-baseline="middle" fill="#000000">Aug</text>
<line x1="605.82" y1="10" x2="605.82" y2="510" stroke="#808080" stroke-width="0.5"/>
<text x="731.85" y="522" font-family="Arial" font-size="11pt" text-anchor="middle" alignment-baseline="middle" fill="#000000">Sep</text>
<line x1="690.75" y1="10" x2="690.75" y2="510" stroke="#808080" stroke-width="0.5"/>
<text x="815.41" y="522" font-family="Arial" font-size="11pt" text-anchor="middle" alignment-baseline="middle" fill="#000000">Oct</text>
<line x1="772.95" y1="10" x2="772.95" y2="510" stroke="#808080" stroke-width="0.5"/>
<text x="898.97" y="522" font-family="Arial" font-size="11pt" text-anchor="middle" alignment-baseline="middle" fill="#000000">Nov</text>
<line x1="857.88" y1="10" x2="857.88" y2="510" stroke="#808080" stroke-width="0.5"/>
<text x="982.53" y="522" font-family="Arial" font-size="11pt" text-anchor="middle" alignment-baseline="middle" fill="#000000">Dec</text>
<line x1="940.07" y1="10" x2="940.07" y2="510" stroke="#808080" stroke-width="0.5"/>
<line x1="1025" y1="10" x2="1025" y2="510" stroke="#808080" stroke-width="0.5"/>
</svg>