<svg xmlns="http://www.w3.org/2000/svg" width="1035" height="535" viewBox="0 0 1035 535">
<rect x="0" y="0" width="1035" height="535" fill="#ffffff" stroke="none" stroke-width="0"/>
<g transform="translate(25, 510) scale(2.7397260, -0.0057870370)">
<rect x="0" y="0" width="365" height="86400" fill="#000000" stroke="none" stroke-width="0"/>
<path fill="#002040" stroke="none" stroke-width="0" d="M0,20179L0,66615L1,66615L1,66658L2,66658L2,66701L3,66701L3,66745L4,66745L4,66790L5,66790L5,66835L6,66835L6,66881L7,66881L7,66927L8,66927L8,66974L9,66974L9,67021L10,67021L10,67069L11,67069L11,67118L12,67118L12,67166L13,67166L13,67216L14,67216L14,67265L15,67265L15,67315L16,67315L16,67365L17,67365L17,67416L18,67416L18,67466L19,67466L19,67517L20,67517L20,67568L21,67568L21,67620L22,67620L22,67671L23,67671L23,67723L24,67723L24,67775L25,67775L25,67826L26,67826L26,67878L27,67878L27,67930L28,67930L28,67982L29,67982L29,68034L30,68034L30,68086L31,68086L31,68138L32,68138L32,68190L33,68190L33,68242L34,68242L34,68293L35,68293L35,68345L36,68345L36,68396L37,68396L37,68448L38,68448L38,68499L39,68499L39,68550L40,68550L40,68602L41,68602L41,68653L42,68653L42,68704L43,68704L43,68754L44,68754L44,68805L45,68805L45,68856L46,68856L46,68907L47,68907L47,68957L48,68957L48,69008L49,69008L49,69058L50,69058L50,69108L51,69108L51,69159L52,69159L52,69209L53,69209L53,69259L54,69259L54,69309L55,69309L55,69360L56,69360L56,69410L57,69410L57,69460L58,69460L58,69510L59,69510L59,69560L60,69560L60,69610L61,69610L61,69661L62,69661L62,69711L63,69711L63,69761L64,69761L64,69811L65,69811L65,69861L66,69861L66,69912L67,69912L67,73562L68,73562L68,73613L69,73613L69,73663L70,73663L70,73714L71,73714L71,73765L72,73765L72,73816L73,73816L73,73867L74,73867L74,73919L75,73919L75,73970L76,73970L76,74022L77,74022L77,74075L78,74075L78,74127L79,74127L79,74180L80,74180L80,74233L81,74233L81,74286L82,74286L82,74339L83,74339L83,74393L84,74393L84,74448L85,74448L85,74502L86,74502L86,74557L87,74557L87,74613L88,74613L88,74668L89,74668L89,74724L90,74724L90,74781L91,74781L91,74837L92,74837L92,74894L93,74894L93,74952L94,74952L94,75010L95,75010L95,75068L96,75068L96,75127L97,75127L97,75186L98,75186L98,75245L99,75245L99,75305L100,75305L100,75365L101,75365L101,75426L102,75426L102,75487L103,75487L103,75549L104,75549L104,75611L105,75611L105,75673L106,75673L106,75736L107,75736L107,75799L108,75799L108,75863L109,75863L109,75927L110,75927L110,75992L111,75992L111,76056L112,76056L112,76122L113,76122L113,76187L114,76187L114,76253L115,76253L115,76319L116,76319L116,76386L117,76386L117,76453L118,76453L118,76520L119,76520L119,76587L120,76587L120,76654L121,76654L121,76722L122,76722L122,76789L123,76789L123,76857L124,76857L124,76925L125,76925L125,76993L126,76993L126,77060L127,77060L127,77128L128,77128L128,77195L129,77195L129,77263L130,77263L130,77330L131,77330L131,77397L132,77397L132,77464L133,77464L133,77530L134,77530L134,77596L135,77596L135,77662L136,77662L136,77727L137,77727L137,77792L138,77792L138,77856L139,77856L139,77919L140,77919L140,77982L141,77982L141,78044L142,78044L142,78106L143,78106L143,78166L144,78166L144,78225L145,78225L145,78284L146,78284L146,78341L147,78341L147,78398L148,78398L148,78453L149,78453L149,78506L150,78506L150,78559L151,78559L151,78610L152,78610L152,78659L153,78659L153,78707L154,78707L154,78754L155,78754L155,78799L156,78799L156,78842L157,78842L157,78883L158,78883L158,78922L159,78922L159,78960L160,78960L160,78995L161,78995L161,79029L162,79029L162,79061L163,79061L163,79090L164,79090L164,79118L165,79118L165,79143L166,79143L166,79166L167,79166L167,79187L168,79187L168,79206L169,79206L169,79222L170,79222L170,79236L171,79236L171,79248L172,79248L172,79257L173,79257L173,79264L174,79264L174,79269L175,79269L175,79271L177,79271L177,79268L178,79268L178,79263L179,79263L179,79256L180,79256L180,79246L181,79246L181,79233L182,79233L182,79219L183,79219L183,79201L184,79201L184,79182L185,79182L185,79160L186,79160L186,79135L187,79135L187,79109L188,79109L188,79080L189,79080L189,79049L190,79049L190,79015L191,79015L191,78980L192,78980L192,78942L193,78942L193,78902L194,78902L194,78860L195,78860L195,78816L196,78816L196,78770L197,78770L197,78722L198,78722L198,78672L199,78672L199,78620L200,78620L200,78567L201,78567L201,78511L202,78511L202,78454L203,78454L203,78395L204,78395L204,78335L205,78335L205,78272L206,78272L206,78209L207,78209L207,78143L208,78143L208,78076L209,78076L209,78008L210,78008L210,77938L211,77938L211,77867L212,77867L212,77795L213,77795L213,77721L214,77721L214,77646L215,77646L215,77569L216,77569L216,77492L217,77492L217,77413L218,77413L218,77334L219,77334L219,77253L220,77253L220,77172L221,77172L221,77089L222,77089L222,77006L223,77006L223,76921L224,76921L224,76836L225,76836L225,76750L226,76750L226,76664L227,76664L227,76576L228,76576L228,76488L229,76488L229,76400L230,76400L230,76310L231,76310L231,76221L232,76221L232,76130L233,76130L233,76040L234,76040L234,75948L235,75948L235,75857L236,75857L236,75765L237,75765L237,75673L238,75673L238,75580L239,75580L239,75487L240,75487L240,75394L241,75394L241,75300L242,75300L242,75207L243,75207L243,75113L244,75113L244,75019L245,75019L245,74925L246,74925L246,74831L247,74831L247,74737L248,74737L248,74643L249,74643L249,74548L250,74548L250,74454L251,74454L251,74360L252,74360L252,74267L253,74267L253,74173L254,74173L254,74080L255,74080L255,73986L256,73986L256,73893L257,73893L257,73801L258,73801L258,73708L259,73708L259,73616L260,73616L260,73524L261,73524L261,73433L262,73433L262,73342L263,73342L263,73252L264,73252L264,73161L265,73161L265,73072L266,73072L266,72983L267,72983L267,72894L268,72894L268,72806L269,72806L269,72719L270,72719L270,72632L271,72632L271,72546L272,72546L272,72461L273,72461L273,72376L274,72376L274,72292L275,72292L275,72209L276,72209L276,72126L277,72126L277,72044L278,72044L278,71963L279,71963L279,71883L280,71883L280,71804L281,71804L281,71726L282,71726L282,71649L283,71649L283,71572L284,71572L284,71497L285,71497L285,71423L286,71423L286,71349L287,71349L287,71277L288,71277L288,71206L289,71206L289,71136L290,71136L290,71067L291,71067L291,71000L292,71000L292,70933L293,70933L293,70868L294,70868L294,70804L295,70804L295,70742L296,70742L296,70680L297,70680L297,70620L298,70620L298,70561L299,70561L299,70504L300,70504L300,70448L301,70448L301,70393L302,70393L302,70340L303,70340L303,70288L304,70288L304,70237L305,70237L305,66588L306,66588L306,66541L307,66541L307,66495L308,66495L308,66451L309,66451L309,66408L310,66408L310,66367L311,66367L311,66327L312,66327L312,66289L313,66289L313,66252L314,66252L314,66218L315,66218L315,66185L316,66185L316,66153L317,66153L317,66123L318,66123L318,66095L319,66095L319,66069L320,66069L320,66045L321,66045L321,66022L322,66022L322,66000L323,66000L323,65981L324,65981L324,65963L325,65963L325,65947L326,65947L326,65933L327,65933L327,65921L328,65921L328,65910L329,65910L329,65901L330,65901L330,65893L331,65893L331,65888L332,65888L332,65884L333,65884L333,65882L334,65882L334,65881L335,65881L335,65882L336,65882L336,65885L337,65885L337,65889L338,65889L338,65896L339,65896L339,65903L340,65903L340,65913L341,65913L341,65924L342,65924L342,65936L343,65936L343,65951L344,65951L344,65966L345,65966L345,65984L346,65984L346,66003L347,66003L347,66023L348,66023L348,66045L349,66045L349,66068L350,66068L350,66093L351,66093L351,66119L352,66119L352,66146L353,66146L353,66174L354,66174L354,66204L355,66204L355,66235L356,66235L356,66268L357,66268L357,66301L358,66301L358,66336L359,66336L359,66371L360,66371L360,66408L361,66408L361,66446L362,66446L362,66484L363,66484L363,66524L364,66524L364,66564L365,66564L365,20160L364,20160L364,20142L363,20142L363,20124L362,20124L362,20103L361,20103L361,20082L360,20082L360,20059L359,20059L359,20035L358,20035L358,20009L357,20009L357,19982L356,19982L356,19954L355,19954L355,19924L354,19924L354,19894L353,19894L353,19862L352,19862L352,19829L351,19829L351,19795L350,19795L350,19761L349,19761L349,19725L348,19725L348,19688L347,19688L347,19650L346,19650L346,19612L345,19612L345,19572L344,19572L344,19532L343,19532L343,19491L342,19491L342,19450L341,19450L341,19407L340,19407L340,19365L339,19365L339,19321L338,19321L338,19277L337,19277L337,19232L336,19232L336,19187L335,19187L335,19142L334,19142L334,19096L333,19096L333,19049L332,19049L332,19002L331,19002L331,18955L330,18955L330,18908L329,18908L329,18860L328,18860L328,18812L327,18812L327,18763L326,18763L326,18715L325,18715L325,18666L324,18666L324,18617L323,18617L323,18568L322,18568L322,18519L321,18519L321,18470L320,18470L320,18421L319,18421L319,18372L318,18372L318,18323L317,18323L317,18273L316,18273L316,18224L315,18224L315,18175L314,18175L314,18127L313,18127L313,18078L312,18078L312,18029L311,18029L311,17980L310,17980L310,17932L309,17932L309,17883L308,17883L308,17835L307,17835L307,17787L306,17787L306,17739L305,17739L305,21291L304,21291L304,21243L303,21243L303,21195L302,21195L302,21148L301,21148L301,21100L300,21100L300,21053L299,21053L299,21005L298,21005L298,20958L297,20958L297,20911L296,20911L296,20864L295,20864L295,20817L294,20817L294,20771L293,20771L293,20724L292,20724L292,20678L291,20678L291,20631L290,20631L290,20585L289,20585L289,20539L288,20539L288,20493L287,20493L287,20446L286,20446L286,20401L285,20401L285,20355L284,20355L284,20309L283,20309L283,20263L282,20263L282,20217L281,20217L281,20171L280,20171L280,20125L279,20125L279,20080L278,20080L278,20034L277,20034L277,19988L276,19988L276,19942L275,19942L275,19896L274,19896L274,19849L273,19849L273,19803L272,19803L272,19756L271,19756L271,19709L270,19709L270,19663L269,19663L269,19615L268,19615L268,19568L267,19568L267,19521L266,19521L266,19473L265,19473L265,19425L264,19425L264,19377L263,19377L263,19328L262,19328L262,19279L261,19279L261,19230L260,19230L260,19181L259,19181L259,19131L258,19131L258,19081L257,19081L257,19031L256,19031L256,18981L255,18981L255,18930L254,18930L254,18879L253,18879L253,18827L252,18827L252,18775L251,18775L251,18723L250,18723L250,18670L249,18670L249,18617L248,18617L248,18564L247,18564L247,18510L246,18510L246,18455L245,18455L245,18401L244,18401L244,18345L243,18345L243,18289L242,18289L242,18233L241,18233L241,18177L240,18177L240,18119L239,18119L239,18062L238,18062L238,18004L237,18004L237,17945L236,17945L236,17886L235,17886L235,17827L234,17827L234,17767L233,17767L233,17707L232,17707L232,17646L231,17646L231,17585L230,17585L230,17524L229,17524L229,17462L228,17462L228,17400L227,17400L227,17338L226,17338L226,17275L225,17275L225,17212L224,17212L224,17149L223,17149L223,17086L222,17086L222,17022L221,17022L221,16958L220,16958L220,16894L219,16894L219,16830L218,16830L218,16766L217,16766L217,16701L216,16701L216,16637L215,16637L215,16572L214,16572L214,16508L213,16508L213,16443L212,16443L212,16379L211,16379L211,16315L210,16315L210,16251L209,16251L209,16187L208,16187L208,16123L207,16123L207,16060L206,16060L206,15997L205,15997L205,15934L204,15934L204,15872L203,15872L203,15811L202,15811L202,15750L201,15750L201,15690L200,15690L200,15630L199,15630L199,15572L198,15572L198,15514L197,15514L197,15457L196,15457L196,15401L195,15401L195,15347L194,15347L194,15293L193,15293L193,15241L192,15241L192,15189L191,15189L191,15139L190,15139L190,15091L189,15091L189,15044L188,15044L188,14998L187,14998L187,14954L186,14954L186,14911L185,14911L185,14870L184,14870L184,14830L183,14830L183,14793L182,14793L182,14757L181,14757L181,14723L180,14723L180,14691L179,14691L179,14661L178,14661L178,14633L177,14633L177,14607L176,14607L176,14583L175,14583L175,14561L174,14561L174,14542L173,14542L173,14524L172,14524L172,14509L171,14509L171,14496L170,14496L170,14486L169,14486L169,14478L168,14478L168,14472L167,14472L167,14469L166,14469L166,14468L165,14468L165,14469L164,14469L164,14473L163,14473L163,14479L162,14479L162,14487L161,14487L161,14498L160,14498L160,14511L159,14511L159,14527L158,14527L158,14545L157,14545L157,14565L156,14565L156,14587L155,14587L155,14612L154,14612L154,14639L153,14639L153,14668L152,14668L152,14700L151,14700L151,14733L150,14733L150,14769L149,14769L149,14807L148,14807L148,14847L147,14847L147,14889L146,14889L146,14933L145,14933L145,14979L144,14979L144,15027L143,15027L143,15076L142,15076L142,15128L141,15128L141,15182L140,15182L140,15237L139,15237L139,15294L138,15294L138,15352L137,15352L137,15413L136,15413L136,15475L135,15475L135,15538L134,15538L134,15603L133,15603L133,15670L132,15670L132,15738L131,15738L131,15807L130,15807L130,15878L129,15878L129,15950L128,15950L128,16023L127,16023L127,16097L126,16097L126,16173L125,16173L125,16249L124,16249L124,16327L123,16327L123,16406L122,16406L122,16485L121,16485L121,16566L120,16566L120,16647L119,16647L119,16729L118,16729L118,16813L117,16813L117,16896L116,16896L116,16981L115,16981L115,17066L114,17066L114,17153L113,17153L113,17239L112,17239L112,17326L111,17326L111,17414L110,17414L110,17503L109,17503L109,17591L108,17591L108,17681L107,17681L107,17770L106,17770L106,17861L105,17861L105,17951L104,17951L104,18042L103,18042L103,18133L102,18133L102,18224L101,18224L101,18316L100,18316L100,18407L99,18407L99,18499L98,18499L98,18591L97,18591L97,18683L96,18683L96,18775L95,18775L95,18867L94,18867L94,18959L93,18959L93,19051L92,19051L92,19142L91,19142L91,19234L90,19234L90,19325L89,19325L89,19417L88,19417L88,19508L87,19508L87,19599L86,19599L86,19689L85,19689L85,19780L84,19780L84,19870L83,19870L83,19960L82,19960L82,20049L81,20049L81,20138L80,20138L80,20226L79,20226L79,20315L78,20315L78,20402L77,20402L77,20489L76,20489L76,20576L75,20576L75,20662L74,20662L74,20747L73,20747L73,20832L72,20832L72,20916L71,20916L71,21000L70,21000L70,21083L69,21083L69,21165L68,21165L68,21246L67,21246L67,17726L66,17726L66,17806L65,17806L65,17885L64,17885L64,17963L63,17963L63,18040L62,18040L62,18116L61,18116L61,18191L60,18191L60,18265L59,18265L59,18338L58,18338L58,18410L57,18410L57,18481L56,18481L56,18551L55,18551L55,18620L54,18620L54,18688L53,18688L53,18755L52,18755L52,18820L51,18820L51,18884L50,18884L50,18947L49,18947L49,19009L48,19009L48,19070L47,19070L47,19129L46,19129L46,19187L45,19187L45,19244L44,19244L44,19299L43,19299L43,19353L42,19353L42,19406L41,19406L41,19457L40,19457L40,19506L39,19506L39,19554L38,19554L38,19601L37,19601L37,19646L36,19646L36,19690L35,19690L35,19732L34,19732L34,19772L33,19772L33,19811L32,19811L32,19849L31,19849L31,19884L30,19884L30,19918L29,19918L29,19951L28,19951L28,19982L27,19982L27,20011L26,20011L26,20038L25,20038L25,20064L24,20064L24,20088L23,20088L23,20110L22,20110L22,20131L21,20131L21,20150L20,20150L20,20168L19,20168L19,20183L18,20183L18,20197L17,20197L17,20210L16,20210L16,20220L15,20220L15,20229L14,20229L14,20236L13,20236L13,20242L12,20242L12,20246L11,20246L11,20248L10,20248L10,20249L9,20249L9,20247L8,20247L8,20244L7,20244L7,20240L6,20240L6,20234L5,20234L5,20226L4,20226L4,20217L3,20217L3,20206L2,20206L2,20193L1,20193L1,20179Z"/>
<path fill="#004080" stroke="none" stroke-width="0" d="M0,22013L0,64781L1,64781L1,64825L2,64825L2,64869L3,64869L3,64914L4,64914L4,64960L5,64960L5,65007L6,65007L6,65054L7,65054L7,65103L8,65103L8,65151L9,65151L9,65200L10,65200L10,65250L11,65250L11,65300L12,65300L12,65351L13,65351L13,65402L14,65402L14,65454L15,65454L15,65505L16,65505L16,65558L17,65558L17,65610L18,65610L18,65663L19,65663L19,65716L20,65716L20,65769L21,65769L21,65823L22,65823L22,65877L23,65877L23,65930L24,65930L24,65984L25,65984L25,66038L26,66038L26,66092L27,66092L27,66146L28,66146L28,66200L29,66200L29,66254L30,66254L30,66308L31,66308L31,66362L32,66362L32,66416L33,66416L33,66470L34,66470L34,66524L35,66524L35,66577L36,66577L36,66630L37,66630L37,66683L38,66683L38,66736L39,66736L39,66789L40,66789L40,66842L41,66842L41,66894L42,66894L42,66947L43,66947L43,66999L44,66999L44,67051L45,67051L45,67103L46,67103L46,67154L47,67154L47,67206L48,67206L48,67257L49,67257L49,67308L50,67308L50,67360L51,67360L51,67410L52,67410L52,67461L53,67461L53,67512L54,67512L54,67562L55,67562L55,67613L56,67613L56,67663L57,67663L57,67713L58,67713L58,67763L59,67763L59,67813L60,67813L60,67862L61,67862L61,67912L62,67912L62,67961L63,67961L63,68011L64,68011L64,68060L65,68060L65,68109L66,68109L66,68158L67,68158L67,71807L68,71807L68,71856L69,71856L69,71905L70,71905L70,71954L71,71954L71,72003L72,72003L72,72052L73,72052L73,72101L74,72101L74,72150L75,72150L75,72199L76,72199L76,72248L77,72248L77,72298L78,72298L78,72347L79,72347L79,72397L80,72397L80,72446L81,72446L81,72496L82,72496L82,72546L83,72546L83,72596L84,72596L84,72647L85,72647L85,72697L86,72697L86,72748L87,72748L87,72799L88,72799L88,72850L89,72850L89,72901L90,72901L90,72953L91,72953L91,73005L92,73005L92,73057L93,73057L93,73109L94,73109L94,73161L95,73161L95,73214L96,73214L96,73266L97,73266L97,73320L98,73320L98,73373L99,73373L99,73426L100,73426L100,73480L101,73480L101,73534L102,73534L102,73589L103,73589L103,73643L104,73643L104,73698L105,73698L105,73754L106,73754L106,73809L107,73809L107,73865L108,73865L108,73921L109,73921L109,73977L110,73977L110,74034L111,74034L111,74090L112,74090L112,74148L113,74148L113,74205L114,74205L114,74262L115,74262L115,74320L116,74320L116,74378L117,74378L117,74436L118,74436L118,74494L119,74494L119,74552L120,74552L120,74610L121,74610L121,74669L122,74669L122,74727L123,74727L123,74785L124,74785L124,74843L125,74843L125,74902L126,74902L126,74960L127,74960L127,75018L128,75018L128,75076L129,75076L129,75133L130,75133L130,75191L131,75191L131,75248L132,75248L132,75305L133,75305L133,75362L134,75362L134,75418L135,75418L135,75474L136,75474L136,75530L137,75530L137,75585L138,75585L138,75640L139,75640L139,75694L140,75694L140,75748L141,75748L141,75801L142,75801L142,75853L143,75853L143,75904L144,75904L144,75955L145,75955L145,76005L146,76005L146,76054L147,76054L147,76102L148,76102L148,76150L149,76150L149,76196L150,76196L150,76241L151,76241L151,76284L152,76284L152,76327L153,76327L153,76368L154,76368L154,76408L155,76408L155,76447L156,76447L156,76484L157,76484L157,76520L158,76520L158,76555L159,76555L159,76588L160,76588L160,76619L161,76619L161,76649L162,76649L162,76677L163,76677L163,76703L164,76703L164,76728L165,76728L165,76751L166,76751L166,76772L167,76772L167,76792L168,76792L168,76810L169,76810L169,76825L170,76825L170,76839L171,76839L171,76852L172,76852L172,76862L173,76862L173,76870L174,76870L174,76876L175,76876L175,76880L176,76880L176,76883L178,76883L178,76881L179,76881L179,76877L180,76877L180,76871L181,76871L181,76863L182,76863L182,76853L183,76853L183,76841L184,76841L184,76827L185,76827L185,76811L186,76811L186,76793L187,76793L187,76772L188,76772L188,76750L189,76750L189,76726L190,76726L190,76700L191,76700L191,76672L192,76672L192,76642L193,76642L193,76610L194,76610L194,76576L195,76576L195,76540L196,76540L196,76503L197,76503L197,76464L198,76464L198,76423L199,76423L199,76380L200,76380L200,76335L201,76335L201,76289L202,76289L202,76241L203,76241L203,76192L204,76192L204,76141L205,76141L205,76088L206,76088L206,76034L207,76034L207,75978L208,75978L208,75921L209,75921L209,75862L210,75862L210,75802L211,75802L211,75740L212,75740L212,75677L213,75677L213,75613L214,75613L214,75547L215,75547L215,75481L216,75481L216,75413L217,75413L217,75343L218,75343L218,75273L219,75273L219,75202L220,75202L220,75129L221,75129L221,75055L222,75055L222,74981L223,74981L223,74905L224,74905L224,74829L225,74829L225,74752L226,74752L226,74674L227,74674L227,74595L228,74595L228,74515L229,74515L229,74434L230,74434L230,74353L231,74353L231,74271L232,74271L232,74189L233,74189L233,74106L234,74106L234,74022L235,74022L235,73938L236,73938L236,73853L237,73853L237,73767L238,73767L238,73682L239,73682L239,73595L240,73595L240,73509L241,73509L241,73422L242,73422L242,73334L243,73334L243,73247L244,73247L244,73159L245,73159L245,73070L246,73070L246,72982L247,72982L247,72893L248,72893L248,72805L249,72805L249,72716L250,72716L250,72627L251,72627L251,72538L252,72538L252,72448L253,72448L253,72359L254,72359L254,72270L255,72270L255,72181L256,72181L256,72092L257,72092L257,72004L258,72004L258,71915L259,71915L259,71827L260,71827L260,71738L261,71738L261,71650L262,71650L262,71563L263,71563L263,71475L264,71475L264,71388L265,71388L265,71301L266,71301L266,71215L267,71215L267,71129L268,71129L268,71043L269,71043L269,70958L270,70958L270,70873L271,70873L271,70789L272,70789L272,70705L273,70705L273,70622L274,70622L274,70539L275,70539L275,70457L276,70457L276,70376L277,70376L277,70296L278,70296L278,70216L279,70216L279,70136L280,70136L280,70058L281,70058L281,69980L282,69980L282,69903L283,69903L283,69827L284,69827L284,69752L285,69752L285,69678L286,69678L286,69605L287,69605L287,69533L288,69533L288,69461L289,69461L289,69391L290,69391L290,69322L291,69322L291,69254L292,69254L292,69187L293,69187L293,69121L294,69121L294,69056L295,69056L295,68992L296,68992L296,68930L297,68930L297,68869L298,68869L298,68809L299,68809L299,68750L300,68750L300,68692L301,68692L301,68636L302,68636L302,68581L303,68581L303,68528L304,68528L304,68476L305,68476L305,64825L306,64825L306,64776L307,64776L307,64728L308,64728L308,64682L309,64682L309,64637L310,64637L310,64594L311,64594L311,64552L312,64552L312,64512L313,64512L313,64474L314,64474L314,64437L315,64437L315,64402L316,64402L316,64368L317,64368L317,64336L318,64336L318,64306L319,64306L319,64278L320,64278L320,64251L321,64251L321,64226L322,64226L322,64202L323,64202L323,64181L324,64181L324,64161L325,64161L325,64143L326,64143L326,64127L327,64127L327,64112L328,64112L328,64099L329,64099L329,64088L330,64088L330,64079L331,64079L331,64071L332,64071L332,64065L333,64065L333,64061L334,64061L334,64059L335,64059L335,64058L336,64058L336,64059L337,64059L337,64062L338,64062L338,64067L339,64067L339,64073L340,64073L340,64081L341,64081L341,64091L342,64091L342,64103L343,64103L343,64116L344,64116L344,64130L345,64130L345,64147L346,64147L346,64165L347,64165L347,64184L348,64184L348,64206L349,64206L349,64228L350,64228L350,64252L351,64252L351,64278L352,64278L352,64305L353,64305L353,64334L354,64334L354,64364L355,64364L355,64395L356,64395L356,64427L357,64427L357,64461L358,64461L358,64496L359,64496L359,64532L360,64532L360,64569L361,64569L361,64607L362,64607L362,64647L363,64647L363,64687L364,64687L364,64728L365,64728L365,21995L364,21995L364,21979L363,21979L363,21961L362,21961L362,21942L361,21942L361,21921L360,21921L360,21898L359,21898L359,21874L358,21874L358,21849L357,21849L357,21823L356,21823L356,21794L355,21794L355,21765L354,21765L354,21735L353,21735L353,21703L352,21703L352,21670L351,21670L351,21635L350,21635L350,21600L349,21600L349,21564L348,21564L348,21526L347,21526L347,21488L346,21488L346,21449L345,21449L345,21408L344,21408L344,21367L343,21367L343,21325L342,21325L342,21282L341,21282L341,21239L340,21239L340,21195L339,21195L339,21150L338,21150L338,21104L337,21104L337,21058L336,21058L336,21011L335,21011L335,20964L334,20964L334,20916L333,20916L333,20868L332,20868L332,20819L331,20819L331,20770L330,20770L330,20720L329,20720L329,20671L328,20671L328,20621L327,20621L327,20570L326,20570L326,20520L325,20520L325,20469L324,20469L324,20418L323,20418L323,20367L322,20367L322,20315L321,20315L321,20264L320,20264L320,20213L319,20213L319,20162L318,20162L318,20110L317,20110L317,20059L316,20059L316,20008L315,20008L315,19957L314,19957L314,19906L313,19906L313,19855L312,19855L312,19804L311,19804L311,19754L310,19754L310,19703L309,19703L309,19653L308,19653L308,19603L307,19603L307,19553L306,19553L306,19503L305,19503L305,23053L304,23053L304,23004L303,23004L303,22955L302,22955L302,22906L301,22906L301,22857L300,22857L300,22808L299,22808L299,22760L298,22760L298,22711L297,22711L297,22663L296,22663L296,22615L295,22615L295,22568L294,22568L294,22520L293,22520L293,22473L292,22473L292,22426L291,22426L291,22379L290,22379L290,22332L289,22332L289,22286L288,22286L288,22240L287,22240L287,22193L286,22193L286,22148L285,22148L285,22102L284,22102L284,22056L283,22056L283,22011L282,22011L282,21966L281,21966L281,21921L280,21921L280,21875L279,21875L279,21831L278,21831L278,21786L277,21786L277,21741L276,21741L276,21696L275,21696L275,21651L274,21651L274,21607L273,21607L273,21562L272,21562L272,21517L271,21517L271,21473L270,21473L270,21428L269,21428L269,21383L268,21383L268,21338L267,21338L267,21293L266,21293L266,21248L265,21248L265,21203L264,21203L264,21158L263,21158L263,21112L262,21112L262,21067L261,21067L261,21021L260,21021L260,20976L259,20976L259,20930L258,20930L258,20884L257,20884L257,20838L256,20838L256,20791L255,20791L255,20745L254,20745L254,20698L253,20698L253,20651L252,20651L252,20604L251,20604L251,20557L250,20557L250,20509L249,20509L249,20462L248,20462L248,20413L247,20413L247,20365L246,20365L246,20317L245,20317L245,20268L244,20268L244,20218L243,20218L243,20169L242,20169L242,20119L241,20119L241,20069L240,20069L240,20018L239,20018L239,19968L238,19968L238,19917L237,19917L237,19865L236,19865L236,19813L235,19813L235,19762L234,19762L234,19709L233,19709L233,19657L232,19657L232,19604L231,19604L231,19551L230,19551L230,19498L229,19498L229,19444L228,19444L228,19391L227,19391L227,19337L226,19337L226,19283L225,19283L225,19228L224,19228L224,19174L223,19174L223,19119L222,19119L222,19065L221,19065L221,19010L220,19010L220,18955L219,18955L219,18900L218,18900L218,18845L217,18845L217,18790L216,18790L216,18735L215,18735L215,18680L214,18680L214,18625L213,18625L213,18570L212,18570L212,18516L211,18516L211,18461L210,18461L210,18406L209,18406L209,18352L208,18352L208,18298L207,18298L207,18244L206,18244L206,18191L205,18191L205,18138L204,18138L204,18085L203,18085L203,18033L202,18033L202,17981L201,17981L201,17930L200,17930L200,17880L199,17880L199,17830L198,17830L198,17781L197,17781L197,17733L196,17733L196,17685L195,17685L195,17639L194,17639L194,17593L193,17593L193,17548L192,17548L192,17505L191,17505L191,17462L190,17462L190,17420L189,17420L189,17380L188,17380L188,17341L187,17341L187,17302L186,17302L186,17266L185,17266L185,17230L184,17230L184,17196L183,17196L183,17163L182,17163L182,17132L181,17132L181,17102L180,17102L180,17073L179,17073L179,17046L178,17046L178,17021L177,17021L177,16998L176,16998L176,16976L175,16976L175,16956L174,16956L174,16937L173,16937L173,16921L172,16921L172,16906L171,16906L171,16893L170,16893L170,16882L169,16882L169,16873L168,16873L168,16866L167,16866L167,16860L166,16860L166,16857L165,16857L165,16856L163,16856L163,16859L162,16859L162,16864L161,16864L161,16870L160,16870L160,16879L159,16879L159,16889L158,16889L158,16902L157,16902L157,16916L156,16916L156,16933L155,16933L155,16951L154,16951L154,16972L153,16972L153,16994L152,16994L152,17018L151,17018L151,17044L150,17044L150,17072L149,17072L149,17102L148,17102L148,17134L147,17134L147,17168L146,17168L146,17203L145,17203L145,17240L144,17240L144,17279L143,17279L143,17320L142,17320L142,17362L141,17362L141,17407L140,17407L140,17453L139,17453L139,17500L138,17500L138,17549L137,17549L137,17600L136,17600L136,17653L135,17653L135,17706L134,17706L134,17762L133,17762L133,17819L132,17819L132,17877L131,17877L131,17936L130,17936L130,17997L129,17997L129,18060L128,18060L128,18123L127,18123L127,18188L126,18188L126,18254L125,18254L125,18321L124,18321L124,18389L123,18389L123,18459L122,18459L122,18529L121,18529L121,18600L120,18600L120,18673L119,18673L119,18746L118,18746L118,18821L117,18821L117,18896L116,18896L116,18972L115,18972L115,19049L114,19049L114,19126L113,19126L113,19205L112,19205L112,19284L111,19284L111,19364L110,19364L110,19444L109,19444L109,19525L108,19525L108,19607L107,19607L107,19689L106,19689L106,19772L105,19772L105,19856L104,19856L104,19939L103,19939L103,20024L102,20024L102,20108L101,20108L101,20193L100,20193L100,20279L99,20279L99,20364L98,20364L98,20450L97,20450L97,20536L96,20536L96,20622L95,20622L95,20709L94,20709L94,20795L93,20795L93,20882L92,20882L92,20969L91,20969L91,21056L90,21056L90,21142L89,21142L89,21229L88,21229L88,21316L87,21316L87,21402L86,21402L86,21489L85,21489L85,21575L84,21575L84,21662L83,21662L83,21748L82,21748L82,21834L81,21834L81,21919L80,21919L80,22005L79,22005L79,22090L78,22090L78,22174L77,22174L77,22259L76,22259L76,22343L75,22343L75,22426L74,22426L74,22510L73,22510L73,22592L72,22592L72,22674L71,22674L71,22756L70,22756L70,22837L69,22837L69,22918L68,22918L68,22997L67,22997L67,19477L66,19477L66,19555L65,19555L65,19633L64,19633L64,19710L63,19710L63,19786L62,19786L62,19862L61,19862L61,19936L60,19936L60,20010L59,20010L59,20083L58,20083L58,20155L57,20155L57,20226L56,20226L56,20296L55,20296L55,20365L54,20365L54,20433L53,20433L53,20500L52,20500L52,20566L51,20566L51,20631L50,20631L50,20695L49,20695L49,20758L48,20758L48,20819L47,20819L47,20880L46,20880L46,20939L45,20939L45,20997L44,20997L44,21053L43,21053L43,21108L42,21108L42,21162L41,21162L41,21215L40,21215L40,21266L39,21266L39,21316L38,21316L38,21365L37,21365L37,21411L36,21411L36,21457L35,21457L35,21501L34,21501L34,21543L33,21543L33,21584L32,21584L32,21623L31,21623L31,21661L30,21661L30,21697L29,21697L29,21732L28,21732L28,21765L27,21765L27,21796L26,21796L26,21826L25,21826L25,21854L24,21854L24,21880L23,21880L23,21905L22,21905L22,21928L21,21928L21,21949L20,21949L20,21968L19,21968L19,21986L18,21986L18,22002L17,22002L17,22017L16,22017L16,22030L15,22030L15,22041L14,22041L14,22050L13,22050L13,22057L12,22057L12,22063L11,22063L11,22067L10,22067L10,22069L9,22069L9,22070L8,22070L8,22069L7,22069L7,22066L6,22066L6,22061L5,22061L5,22055L4,22055L4,22047L3,22047L3,22037L2,22037L2,22026L1,22026L1,22013Z"/>
<path fill="#0060c0" stroke="none" stroke-width="0" d="M0,23893L0,62901L1,62901L1,62946L2,62946L2,62992L3,62992L3,63039L4,63039L4,63087L5,63087L5,63136L6,63136L6,63185L7,63185L7,63235L8,63235L8,63286L9,63286L9,63337L10,63337L10,63389L11,63389L11,63442L12,63442L12,63495L13,63495L13,63549L14,63549L14,63603L15,63603L15,63657L16,63657L16,63712L17,63712L17,63768L18,63768L18,63823L19,63823L19,63879L20,63879L20,63935L21,63935L21,63992L22,63992L22,64048L23,64048L23,64105L24,64105L24,64162L25,64162L25,64218L26,64218L26,64275L27,64275L27,64332L28,64332L28,64389L29,64389L29,64446L30,64446L30,64503L31,64503L31,64560L32,64560L32,64616L33,64616L33,64673L34,64673L34,64729L35,64729L35,64785L36,64785L36,64841L37,64841L37,64897L38,64897L38,64953L39,64953L39,65008L40,65008L40,65063L41,65063L41,65118L42,65118L42,65173L43,65173L43,65227L44,65227L44,65281L45,65281L45,65335L46,65335L46,65389L47,65389L47,65442L48,65442L48,65495L49,65495L49,65548L50,65548L50,65601L51,65601L51,65653L52,65653L52,65705L53,65705L53,65757L54,65757L54,65809L55,65809L55,65860L56,65860L56,65912L57,65912L57,65963L58,65963L58,66013L59,66013L59,66064L60,66064L60,66114L61,66114L61,66164L62,66164L62,66214L63,66214L63,66263L64,66263L64,66313L65,66313L65,66362L66,66362L66,66411L67,66411L67,70060L68,70060L68,70108L69,70108L69,70157L70,70157L70,70205L71,70205L71,70253L72,70253L72,70301L73,70301L73,70349L74,70349L74,70397L75,70397L75,70445L76,70445L76,70493L77,70493L77,70541L78,70541L78,70589L79,70589L79,70636L80,70636L80,70684L81,70684L81,70732L82,70732L82,70780L83,70780L83,70827L84,70827L84,70875L85,70875L85,70923L86,70923L86,70971L87,70971L87,71019L88,71019L88,71067L89,71067L89,71116L90,71116L90,71164L91,71164L91,71212L92,71212L92,71261L93,71261L93,71309L94,71309L94,71358L95,71358L95,71406L96,71406L96,71455L97,71455L97,71504L98,71504L98,71553L99,71553L99,71602L100,71602L100,71651L101,71651L101,71701L102,71701L102,71751L103,71751L103,71800L104,71800L104,71850L105,71850L105,71900L106,71900L106,71951L107,71951L107,72001L108,72001L108,72052L109,72052L109,72102L110,72102L110,72153L111,72153L111,72204L112,72204L112,72256L113,72256L113,72307L114,72307L114,72358L115,72358L115,72410L116,72410L116,72462L117,72462L117,72513L118,72513L118,72565L119,72565L119,72617L120,72617L120,72669L121,72669L121,72721L122,72721L122,72772L123,72772L123,72824L124,72824L124,72876L125,72876L125,72928L126,72928L126,72979L127,72979L127,73030L128,73030L128,73082L129,73082L129,73133L130,73133L130,73183L131,73183L131,73234L132,73234L132,73284L133,73284L133,73335L134,73335L134,73384L135,73384L135,73434L136,73434L136,73483L137,73483L137,73532L138,73532L138,73580L139,73580L139,73628L140,73628L140,73675L141,73675L141,73722L142,73722L142,73768L143,73768L143,73814L144,73814L144,73859L145,73859L145,73903L146,73903L146,73947L147,73947L147,73989L148,73989L148,74031L149,74031L149,74072L150,74072L150,74112L151,74112L151,74152L152,74152L152,74190L153,74190L153,74227L154,74227L154,74263L155,74263L155,74297L156,74297L156,74331L157,74331L157,74363L158,74363L158,74395L159,74395L159,74425L160,74425L160,74453L161,74453L161,74480L162,74480L162,74506L163,74506L163,74531L164,74531L164,74554L165,74554L165,74575L166,74575L166,74596L167,74596L167,74614L168,74614L168,74631L169,74631L169,74647L170,74647L170,74661L171,74661L171,74673L172,74673L172,74683L173,74683L173,74692L174,74692L174,74700L175,74700L175,74705L176,74705L176,74709L177,74709L177,74711L179,74711L179,74710L180,74710L180,74706L181,74706L181,74701L182,74701L182,74694L183,74694L183,74686L184,74686L184,74675L185,74675L185,74663L186,74663L186,74648L187,74648L187,74632L188,74632L188,74615L189,74615L189,74595L190,74595L190,74574L191,74574L191,74550L192,74550L192,74526L193,74526L193,74499L194,74499L194,74471L195,74471L195,74441L196,74441L196,74409L197,74409L197,74375L198,74375L198,74340L199,74340L199,74303L200,74303L200,74265L201,74265L201,74225L202,74225L202,74183L203,74183L203,74140L204,74140L204,74096L205,74096L205,74049L206,74049L206,74002L207,74002L207,73952L208,73952L208,73902L209,73902L209,73850L210,73850L210,73796L211,73796L211,73741L212,73741L212,73685L213,73685L213,73627L214,73627L214,73568L215,73568L215,73508L216,73508L216,73447L217,73447L217,73384L218,73384L218,73320L219,73320L219,73255L220,73255L220,73189L221,73189L221,73122L222,73122L222,73054L223,73054L223,72984L224,72984L224,72914L225,72914L225,72843L226,72843L226,72771L227,72771L227,72698L228,72698L228,72624L229,72624L229,72549L230,72549L230,72474L231,72474L231,72397L232,72397L232,72320L233,72320L233,72242L234,72242L234,72164L235,72164L235,72085L236,72085L236,72005L237,72005L237,71925L238,71925L238,71844L239,71844L239,71762L240,71762L240,71680L241,71680L241,71598L242,71598L242,71515L243,71515L243,71432L244,71432L244,71348L245,71348L245,71263L246,71263L246,71179L247,71179L247,71094L248,71094L248,71009L249,71009L249,70924L250,70924L250,70838L251,70838L251,70752L252,70752L252,70666L253,70666L253,70580L254,70580L254,70494L255,70494L255,70408L256,70408L256,70322L257,70322L257,70235L258,70235L258,70149L259,70149L259,70063L260,70063L260,69977L261,69977L261,69891L262,69891L262,69805L263,69805L263,69719L264,69719L264,69634L265,69634L265,69548L266,69548L266,69463L267,69463L267,69379L268,69379L268,69294L269,69294L269,69210L270,69210L270,69126L271,69126L271,69043L272,69043L272,68959L273,68959L273,68877L274,68877L274,68795L275,68795L275,68713L276,68713L276,68632L277,68632L277,68551L278,68551L278,68471L279,68471L279,68392L280,68392L280,68313L281,68313L281,68235L282,68235L282,68157L283,68157L283,68081L284,68081L284,68005L285,68005L285,67930L286,67930L286,67855L287,67855L287,67782L288,67782L288,67710L289,67710L289,67638L290,67638L290,67567L291,67567L291,67498L292,67498L292,67429L293,67429L293,67362L294,67362L294,67295L295,67295L295,67230L296,67230L296,67165L297,67165L297,67102L298,67102L298,67040L299,67040L299,66979L300,66979L300,66919L301,66919L301,66861L302,66861L302,66804L303,66804L303,66748L304,66748L304,66693L305,66693L305,63040L306,63040L306,62988L307,62988L307,62938L308,62938L308,62889L309,62889L309,62841L310,62841L310,62795L311,62795L311,62751L312,62751L312,62708L313,62708L313,62667L314,62667L314,62627L315,62627L315,62589L316,62589L316,62552L317,62552L317,62517L318,62517L318,62484L319,62484L319,62453L320,62453L320,62423L321,62423L321,62395L322,62395L322,62369L323,62369L323,62345L324,62345L324,62322L325,62322L325,62301L326,62301L326,62282L327,62282L327,62265L328,62265L328,62249L329,62249L329,62236L330,62236L330,62224L331,62224L331,62214L332,62214L332,62205L333,62205L333,62199L334,62199L334,62194L335,62194L335,62192L336,62192L336,62191L337,62191L337,62192L338,62192L338,62194L339,62194L339,62199L340,62199L340,62205L341,62205L341,62213L342,62213L342,62223L343,62223L343,62235L344,62235L344,62248L345,62248L345,62263L346,62263L346,62280L347,62280L347,62299L348,62299L348,62319L349,62319L349,62341L350,62341L350,62365L351,62365L351,62390L352,62390L352,62417L353,62417L353,62445L354,62445L354,62475L355,62475L355,62506L356,62506L356,62539L357,62539L357,62573L358,62573L358,62609L359,62609L359,62645L360,62645L360,62683L361,62683L361,62722L362,62722L362,62763L363,62763L363,62804L364,62804L364,62847L365,62847L365,23877L364,23877L364,23862L363,23862L363,23845L362,23845L362,23827L361,23827L361,23806L360,23806L360,23785L359,23785L359,23762L358,23762L358,23737L357,23737L357,23711L356,23711L356,23683L355,23683L355,23653L354,23653L354,23623L353,23623L353,23591L352,23591L352,23557L351,23557L351,23523L350,23523L350,23487L349,23487L349,23450L348,23450L348,23412L347,23412L347,23372L346,23372L346,23332L345,23332L345,23290L344,23290L344,23248L343,23248L343,23205L342,23205L342,23160L341,23160L341,23115L340,23115L340,23069L339,23069L339,23022L338,23022L338,22975L337,22975L337,22927L336,22927L336,22878L335,22878L335,22828L334,22828L334,22778L333,22778L333,22728L332,22728L332,22677L331,22677L331,22625L330,22625L330,22573L329,22573L329,22521L328,22521L328,22468L327,22468L327,22415L326,22415L326,22361L325,22361L325,22308L324,22308L324,22254L323,22254L323,22200L322,22200L322,22146L321,22146L321,22092L320,22092L320,22038L319,22038L319,21984L318,21984L318,21930L317,21930L317,21875L316,21875L316,21821L315,21821L315,21767L314,21767L314,21714L313,21714L313,21660L312,21660L312,21606L311,21606L311,21553L310,21553L310,21500L309,21500L309,21447L308,21447L308,21394L307,21394L307,21342L306,21342L306,21289L305,21289L305,24837L304,24837L304,24785L303,24785L303,24734L302,24734L302,24682L301,24682L301,24631L300,24631L300,24580L299,24580L299,24530L298,24530L298,24479L297,24479L297,24429L296,24429L296,24379L295,24379L295,24330L294,24330L294,24281L293,24281L293,24232L292,24232L292,24183L291,24183L291,24135L290,24135L290,24087L289,24087L289,24039L288,24039L288,23992L287,23992L287,23945L286,23945L286,23898L285,23898L285,23851L284,23851L284,23805L283,23805L283,23759L282,23759L282,23713L281,23713L281,23668L280,23668L280,23623L279,23623L279,23577L278,23577L278,23533L277,23533L277,23488L276,23488L276,23443L275,23443L275,23399L274,23399L274,23355L273,23355L273,23311L272,23311L272,23267L271,23267L271,23223L270,23223L270,23179L269,23179L269,23135L268,23135L268,23091L267,23091L267,23048L266,23048L266,23004L265,23004L265,22961L264,22961L264,22917L263,22917L263,22873L262,22873L262,22830L261,22830L261,22787L260,22787L260,22743L259,22743L259,22700L258,22700L258,22656L257,22656L257,22613L256,22613L256,22569L255,22569L255,22525L254,22525L254,22482L253,22482L253,22438L252,22438L252,22394L251,22394L251,22350L250,22350L250,22306L249,22306L249,22262L248,22262L248,22218L247,22218L247,22173L246,22173L246,22129L245,22129L245,22084L244,22084L244,22039L243,22039L243,21994L242,21994L242,21948L241,21948L241,21903L240,21903L240,21857L239,21857L239,21811L238,21811L238,21765L237,21765L237,21719L236,21719L236,21672L235,21672L235,21625L234,21625L234,21578L233,21578L233,21531L232,21531L232,21484L231,21484L231,21437L230,21437L230,21389L229,21389L229,21342L228,21342L228,21294L227,21294L227,21246L226,21246L226,21198L225,21198L225,21150L224,21150L224,21102L223,21102L223,21054L222,21054L222,21005L221,21005L221,20957L220,20957L220,20908L219,20908L219,20860L218,20860L218,20812L217,20812L217,20763L216,20763L216,20715L215,20715L215,20666L214,20666L214,20618L213,20618L213,20570L212,20570L212,20521L211,20521L211,20473L210,20473L210,20425L209,20425L209,20378L208,20378L208,20330L207,20330L207,20283L206,20283L206,20236L205,20236L205,20189L204,20189L204,20143L203,20143L203,20097L202,20097L202,20052L201,20052L201,20007L200,20007L200,19962L199,19962L199,19919L198,19919L198,19875L197,19875L197,19833L196,19833L196,19791L195,19791L195,19750L194,19750L194,19709L193,19709L193,19670L192,19670L192,19631L191,19631L191,19593L190,19593L190,19556L189,19556L189,19520L188,19520L188,19485L187,19485L187,19451L186,19451L186,19417L185,19417L185,19385L184,19385L184,19355L183,19355L183,19325L182,19325L182,19296L181,19296L181,19269L180,19269L180,19243L179,19243L179,19218L178,19218L178,19195L177,19195L177,19173L176,19173L176,19152L175,19152L175,19133L174,19133L174,19115L173,19115L173,19099L172,19099L172,19085L171,19085L171,19072L170,19072L170,19060L169,19060L169,19051L168,19051L168,19042L167,19042L167,19036L166,19036L166,19031L165,19031L165,19028L164,19028L164,19027L162,19027L162,19029L161,19029L161,19033L160,19033L160,19039L159,19039L159,19046L158,19046L158,19055L157,19055L157,19066L156,19066L156,19079L155,19079L155,19093L154,19093L154,19109L153,19109L153,19127L152,19127L152,19146L151,19146L151,19167L150,19167L150,19190L149,19190L149,19215L148,19215L148,19241L147,19241L147,19270L146,19270L146,19299L145,19299L145,19331L144,19331L144,19364L143,19364L143,19399L142,19399L142,19435L141,19435L141,19473L140,19473L140,19512L139,19512L139,19554L138,19554L138,19596L137,19596L137,19641L136,19641L136,19686L135,19686L135,19734L134,19734L134,19782L133,19782L133,19833L132,19833L132,19884L131,19884L131,19937L130,19937L130,19991L129,19991L129,20047L128,20047L128,20104L127,20104L127,20162L126,20162L126,20221L125,20221L125,20282L124,20282L124,20343L123,20343L123,20406L122,20406L122,20470L121,20470L121,20535L120,20535L120,20601L119,20601L119,20668L118,20668L118,20736L117,20736L117,20805L116,20805L116,20875L115,20875L115,20946L114,20946L114,21018L113,21018L113,21090L112,21090L112,21164L111,21164L111,21238L110,21238L110,21313L109,21313L109,21388L108,21388L108,21465L107,21465L107,21542L106,21542L106,21620L105,21620L105,21698L104,21698L104,21777L103,21777L103,21856L102,21856L102,21936L101,21936L101,22017L100,22017L100,22097L99,22097L99,22179L98,22179L98,22260L97,22260L97,22342L96,22342L96,22425L95,22425L95,22507L94,22507L94,22590L93,22590L93,22673L92,22673L92,22757L91,22757L91,22840L90,22840L90,22924L89,22924L89,23007L88,23007L88,23091L87,23091L87,23175L86,23175L86,23259L85,23259L85,23343L84,23343L84,23427L83,23427L83,23510L82,23510L82,23594L81,23594L81,23678L80,23678L80,23761L79,23761L79,23845L78,23845L78,23928L77,23928L77,24011L76,24011L76,24093L75,24093L75,24176L74,24176L74,24258L73,24258L73,24340L72,24340L72,24421L71,24421L71,24502L70,24502L70,24583L69,24583L69,24663L68,24663L68,24742L67,24742L67,21221L66,21221L66,21300L65,21300L65,21377L64,21377L64,21455L63,21455L63,21531L62,21531L62,21607L61,21607L61,21682L60,21682L60,21757L59,21757L59,21830L58,21830L58,21903L57,21903L57,21975L56,21975L56,22046L55,22046L55,22117L54,22117L54,22186L53,22186L53,22254L52,22254L52,22322L51,22322L51,22388L50,22388L50,22454L49,22454L49,22518L48,22518L48,22582L47,22582L47,22644L46,22644L46,22705L45,22705L45,22765L44,22765L44,22824L43,22824L43,22882L42,22882L42,22938L41,22938L41,22993L40,22993L40,23047L39,23047L39,23099L38,23099L38,23150L37,23150L37,23200L36,23200L36,23248L35,23248L35,23294L34,23294L34,23340L33,23340L33,23383L32,23383L32,23425L31,23425L31,23466L30,23466L30,23505L29,23505L29,23542L28,23542L28,23578L27,23578L27,23613L26,23613L26,23645L25,23645L25,23676L24,23676L24,23705L23,23705L23,23733L22,23733L22,23759L21,23759L21,23783L20,23783L20,23805L19,23805L19,23826L18,23826L18,23845L17,23845L17,23862L16,23862L16,23878L15,23878L15,23891L14,23891L14,23903L13,23903L13,23913L12,23913L12,23921L11,23921L11,23928L10,23928L10,23932L9,23932L9,23935L8,23935L8,23936L7,23936L7,23935L6,23935L6,23933L5,23933L5,23928L4,23928L4,23922L3,23922L3,23914L2,23914L2,23905L1,23905L1,23893Z"/>
<path fill="#80c0ff" stroke="none" stroke-width="0" d="M0,25561L0,61233L1,61233L1,61280L2,61280L2,61327L3,61327L3,61376L4,61376L4,61426L5,61426L5,61477L6,61477L6,61528L7,61528L7,61581L8,61581L8,61634L9,61634L9,61688L10,61688L10,61742L11,61742L11,61798L12,61798L12,61853L13,61853L13,61910L14,61910L14,61967L15,61967L15,62024L16,62024L16,62082L17,62082L17,62140L18,62140L18,62199L19,62199L19,62258L20,62258L20,62317L21,62317L21,62377L22,62377L22,62437L23,62437L23,62496L24,62496L24,62557L25,62557L25,62617L26,62617L26,62677L27,62677L27,62737L28,62737L28,62797L29,62797L29,62857L30,62857L30,62917L31,62917L31,62977L32,62977L32,63037L33,63037L33,63097L34,63097L34,63156L35,63156L35,63216L36,63216L36,63275L37,63275L37,63333L38,63333L38,63392L39,63392L39,63450L40,63450L40,63508L41,63508L41,63566L42,63566L42,63623L43,63623L43,63680L44,63680L44,63737L45,63737L45,63794L46,63794L46,63850L47,63850L47,63906L48,63906L48,63961L49,63961L49,64016L50,64016L50,64071L51,64071L51,64126L52,64126L52,64180L53,64180L53,64234L54,64234L54,64287L55,64287L55,64341L56,64341L56,64393L57,64393L57,64446L58,64446L58,64498L59,64498L59,64550L60,64550L60,64602L61,64602L61,64653L62,64653L62,64704L63,64704L63,64755L64,64755L64,64805L65,64805L65,64855L66,64855L66,64905L67,64905L67,68554L68,68554L68,68603L69,68603L69,68652L70,68652L70,68701L71,68701L71,68749L72,68749L72,68797L73,68797L73,68845L74,68845L74,68893L75,68893L75,68941L76,68941L76,68988L77,68988L77,69035L78,69035L78,69083L79,69083L79,69130L80,69130L80,69177L81,69177L81,69224L82,69224L82,69270L83,69270L83,69317L84,69317L84,69364L85,69364L85,69411L86,69411L86,69457L87,69457L87,69504L88,69504L88,69550L89,69550L89,69597L90,69597L90,69643L91,69643L91,69690L92,69690L92,69736L93,69736L93,69782L94,69782L94,69829L95,69829L95,69875L96,69875L96,69922L97,69922L97,69968L98,69968L98,70014L99,70014L99,70061L100,70061L100,70107L101,70107L101,70154L102,70154L102,70201L103,70201L103,70247L104,70247L104,70294L105,70294L105,70341L106,70341L106,70388L107,70388L107,70435L108,70435L108,70482L109,70482L109,70530L110,70530L110,70577L111,70577L111,70624L112,70624L112,70672L113,70672L113,70719L114,70719L114,70767L115,70767L115,70815L116,70815L116,70863L117,70863L117,70910L118,70910L118,70958L119,70958L119,71006L120,71006L120,71054L121,71054L121,71101L122,71101L122,71149L123,71149L123,71196L124,71196L124,71244L125,71244L125,71291L126,71291L126,71338L127,71338L127,71385L128,71385L128,71432L129,71432L129,71479L130,71479L130,71526L131,71526L131,71572L132,71572L132,71618L133,71618L133,71664L134,71664L134,71710L135,71710L135,71755L136,71755L136,71800L137,71800L137,71844L138,71844L138,71889L139,71889L139,71933L140,71933L140,71976L141,71976L141,72019L142,72019L142,72061L143,72061L143,72103L144,72103L144,72145L145,72145L145,72185L146,72185L146,72225L147,72225L147,72265L148,72265L148,72303L149,72303L149,72341L150,72341L150,72378L151,72378L151,72414L152,72414L152,72449L153,72449L153,72484L154,72484L154,72517L155,72517L155,72549L156,72549L156,72581L157,72581L157,72611L158,72611L158,72640L159,72640L159,72668L160,72668L160,72695L161,72695L161,72721L162,72721L162,72745L163,72745L163,72768L164,72768L164,72790L165,72790L165,72811L166,72811L166,72831L167,72831L167,72849L168,72849L168,72865L169,72865L169,72881L170,72881L170,72894L171,72894L171,72907L172,72907L172,72918L173,72918L173,72927L174,72927L174,72935L175,72935L175,72941L176,72941L176,72946L177,72946L177,72949L178,72949L178,72951L180,72951L180,72949L181,72949L181,72946L182,72946L182,72941L183,72941L183,72934L184,72934L184,72926L185,72926L185,72916L186,72916L186,72904L187,72904L187,72891L188,72891L188,72876L189,72876L189,72859L190,72859L190,72840L191,72840L191,72820L192,72820L192,72799L193,72799L193,72775L194,72775L194,72750L195,72750L195,72724L196,72724L196,72696L197,72696L197,72666L198,72666L198,72635L199,72635L199,72602L200,72602L200,72567L201,72567L201,72531L202,72531L202,72494L203,72494L203,72454L204,72454L204,72414L205,72414L205,72372L206,72372L206,72328L207,72328L207,72283L208,72283L208,72237L209,72237L209,72189L210,72189L210,72140L211,72140L211,72089L212,72089L212,72037L213,72037L213,71984L214,71984L214,71929L215,71929L215,71873L216,71873L216,71816L217,71816L217,71757L218,71757L218,71697L219,71697L219,71637L220,71637L220,71575L221,71575L221,71512L222,71512L222,71447L223,71447L223,71382L224,71382L224,71316L225,71316L225,71249L226,71249L226,71180L227,71180L227,71111L228,71111L228,71041L229,71041L229,70970L230,70970L230,70898L231,70898L231,70825L232,70825L232,70752L233,70752L233,70677L234,70677L234,70602L235,70602L235,70526L236,70526L236,70450L237,70450L237,70373L238,70373L238,70295L239,70295L239,70216L240,70216L240,70137L241,70137L241,70057L242,70057L242,69977L243,69977L243,69896L244,69896L244,69815L245,69815L245,69733L246,69733L246,69651L247,69651L247,69568L248,69568L248,69485L249,69485L249,69402L250,69402L250,69318L251,69318L251,69234L252,69234L252,69150L253,69150L253,69066L254,69066L254,68981L255,68981L255,68896L256,68896L256,68811L257,68811L257,68726L258,68726L258,68641L259,68641L259,68556L260,68556L260,68471L261,68471L261,68386L262,68386L262,68301L263,68301L263,68216L264,68216L264,68131L265,68131L265,68046L266,68046L266,67961L267,67961L267,67877L268,67877L268,67792L269,67792L269,67708L270,67708L270,67624L271,67624L271,67540L272,67540L272,67457L273,67457L273,67374L274,67374L274,67291L275,67291L275,67209L276,67209L276,67127L277,67127L277,67046L278,67046L278,66965L279,66965L279,66884L280,66884L280,66804L281,66804L281,66725L282,66725L282,66646L283,66646L283,66568L284,66568L284,66491L285,66491L285,66414L286,66414L286,66338L287,66338L287,66263L288,66263L288,66189L289,66189L289,66116L290,66116L290,66043L291,66043L291,65971L292,65971L292,65900L293,65900L293,65831L294,65831L294,65762L295,65762L295,65694L296,65694L296,65627L297,65627L297,65561L298,65561L298,65497L299,65497L299,65433L300,65433L300,65371L301,65371L301,65309L302,65309L302,65249L303,65249L303,65191L304,65191L304,65133L305,65133L305,61477L306,61477L306,61422L307,61422L307,61369L308,61369L308,61317L309,61317L309,61266L310,61266L310,61217L311,61217L311,61169L312,61169L312,61123L313,61123L313,61079L314,61079L314,61036L315,61036L315,60994L316,60994L316,60954L317,60954L317,60916L318,60916L318,60880L319,60880L319,60845L320,60845L320,60813L321,60813L321,60781L322,60781L322,60752L323,60752L323,60725L324,60725L324,60699L325,60699L325,60675L326,60675L326,60653L327,60653L327,60632L328,60632L328,60614L329,60614L329,60597L330,60597L330,60583L331,60583L331,60570L332,60570L332,60559L333,60559L333,60550L334,60550L334,60543L335,60543L335,60538L336,60538L336,60535L337,60535L337,60533L338,60533L338,60534L339,60534L339,60536L340,60536L340,60541L341,60541L341,60547L342,60547L342,60556L343,60556L343,60566L344,60566L344,60578L345,60578L345,60592L346,60592L346,60608L347,60608L347,60625L348,60625L348,60645L349,60645L349,60666L350,60666L350,60689L351,60689L351,60714L352,60714L352,60740L353,60740L353,60768L354,60768L354,60798L355,60798L355,60829L356,60829L356,60862L357,60862L357,60897L358,60897L358,60933L359,60933L359,60970L360,60970L360,61009L361,61009L361,61049L362,61049L362,61090L363,61090L363,61133L364,61133L364,61177L365,61177L365,25547L364,25547L364,25533L363,25533L363,25517L362,25517L362,25500L361,25500L361,25481L360,25481L360,25460L359,25460L359,25437L358,25437L358,25413L357,25413L357,25387L356,25387L356,25360L355,25360L355,25331L354,25331L354,25300L353,25300L353,25268L352,25268L352,25234L351,25234L351,25199L350,25199L350,25163L349,25163L349,25125L348,25125L348,25086L347,25086L347,25045L346,25045L346,25004L345,25004L345,24961L344,24961L344,24917L343,24917L343,24872L342,24872L342,24826L341,24826L341,24779L340,24779L340,24731L339,24731L339,24683L338,24683L338,24633L337,24633L337,24583L336,24583L336,24532L335,24532L335,24480L334,24480L334,24427L333,24427L333,24374L332,24374L332,24320L331,24320L331,24266L330,24266L330,24211L329,24211L329,24156L328,24156L328,24100L327,24100L327,24044L326,24044L326,23988L325,23988L325,23931L324,23931L324,23874L323,23874L323,23817L322,23817L322,23760L321,23760L321,23703L320,23703L320,23645L319,23645L319,23588L318,23588L318,23531L317,23531L317,23473L316,23473L316,23416L315,23416L315,23359L314,23359L314,23302L313,23302L313,23245L312,23245L312,23188L311,23188L311,23132L310,23132L310,23076L309,23076L309,23019L308,23019L308,22964L307,22964L307,22908L306,22908L306,22853L305,22853L305,26398L304,26398L304,26343L303,26343L303,26288L302,26288L302,26234L301,26234L301,26180L300,26180L300,26127L299,26127L299,26074L298,26074L298,26021L297,26021L297,25968L296,25968L296,25916L295,25916L295,25864L294,25864L294,25813L293,25813L293,25762L292,25762L292,25711L291,25711L291,25661L290,25661L290,25611L289,25611L289,25561L288,25561L288,25512L287,25512L287,25463L286,25463L286,25415L285,25415L285,25367L284,25367L284,25319L283,25319L283,25272L282,25272L282,25225L281,25225L281,25178L280,25178L280,25132L279,25132L279,25086L278,25086L278,25040L277,25040L277,24994L276,24994L276,24949L275,24949L275,24904L274,24904L274,24860L273,24860L273,24815L272,24815L272,24771L271,24771L271,24727L270,24727L270,24683L269,24683L269,24639L268,24639L268,24596L267,24596L267,24552L266,24552L266,24509L265,24509L265,24466L264,24466L264,24423L263,24423L263,24380L262,24380L262,24338L261,24338L261,24295L260,24295L260,24253L259,24253L259,24210L258,24210L258,24168L257,24168L257,24126L256,24126L256,24083L255,24083L255,24041L254,24041L254,23999L253,23999L253,23957L252,23957L252,23915L251,23915L251,23873L250,23873L250,23831L249,23831L249,23789L248,23789L248,23747L247,23747L247,23705L246,23705L246,23663L245,23663L245,23620L244,23620L244,23578L243,23578L243,23535L242,23535L242,23493L241,23493L241,23450L240,23450L240,23407L239,23407L239,23364L238,23364L238,23321L237,23321L237,23278L236,23278L236,23235L235,23235L235,23191L234,23191L234,23148L233,23148L233,23104L232,23104L232,23060L231,23060L231,23017L230,23017L230,22973L229,22973L229,22929L228,22929L228,22885L227,22885L227,22841L226,22841L226,22797L225,22797L225,22753L224,22753L224,22708L223,22708L223,22664L222,22664L222,22620L221,22620L221,22576L220,22576L220,22531L219,22531L219,22487L218,22487L218,22443L217,22443L217,22399L216,22399L216,22354L215,22354L215,22310L214,22310L214,22266L213,22266L213,22222L212,22222L212,22178L211,22178L211,22134L210,22134L210,22090L209,22090L209,22047L208,22047L208,22004L207,22004L207,21961L206,21961L206,21918L205,21918L205,21875L204,21875L204,21833L203,21833L203,21791L202,21791L202,21750L201,21750L201,21709L200,21709L200,21668L199,21668L199,21628L198,21628L198,21588L197,21588L197,21549L196,21549L196,21511L195,21511L195,21473L194,21473L194,21436L193,21436L193,21400L192,21400L192,21364L191,21364L191,21329L190,21329L190,21295L189,21295L189,21262L188,21262L188,21229L187,21229L187,21198L186,21198L186,21167L185,21167L185,21137L184,21137L184,21108L183,21108L183,21080L182,21080L182,21054L181,21054L181,21028L180,21028L180,21003L179,21003L179,20980L178,20980L178,20958L177,20958L177,20937L176,20937L176,20917L175,20917L175,20898L174,20898L174,20881L173,20881L173,20865L172,20865L172,20851L171,20851L171,20838L170,20838L170,20826L169,20826L169,20816L168,20816L168,20807L167,20807L167,20800L166,20800L166,20795L165,20795L165,20791L164,20791L164,20788L163,20788L163,20787L162,20787L162,20788L161,20788L161,20790L160,20790L160,20793L159,20793L159,20799L158,20799L158,20806L157,20806L157,20814L156,20814L156,20824L155,20824L155,20836L154,20836L154,20849L153,20849L153,20864L152,20864L152,20881L151,20881L151,20899L150,20899L150,20919L149,20919L149,20940L148,20940L148,20963L147,20963L147,20987L146,20987L146,21014L145,21014L145,21041L144,21041L144,21071L143,21071L143,21102L142,21102L142,21134L141,21134L141,21168L140,21168L140,21204L139,21204L139,21241L138,21241L138,21279L137,21279L137,21319L136,21319L136,21361L135,21361L135,21404L134,21404L134,21449L133,21449L133,21494L132,21494L132,21542L131,21542L131,21590L130,21590L130,21640L129,21640L129,21692L128,21692L128,21744L127,21744L127,21798L126,21798L126,21853L125,21853L125,21909L124,21909L124,21967L123,21967L123,22025L122,22025L122,22085L121,22085L121,22146L120,22146L120,22208L119,22208L119,22271L118,22271L118,22335L117,22335L117,22400L116,22400L116,22466L115,22466L115,22533L114,22533L114,22601L113,22601L113,22670L112,22670L112,22739L111,22739L111,22810L110,22810L110,22881L109,22881L109,22953L108,22953L108,23026L107,23026L107,23100L106,23100L106,23175L105,23175L105,23250L104,23250L104,23326L103,23326L103,23402L102,23402L102,23479L101,23479L101,23557L100,23557L100,23635L99,23635L99,23714L98,23714L98,23793L97,23793L97,23872L96,23872L96,23952L95,23952L95,24033L94,24033L94,24113L93,24113L93,24194L92,24194L92,24276L91,24276L91,24357L90,24357L90,24439L89,24439L89,24521L88,24521L88,24604L87,24604L87,24686L86,24686L86,24769L85,24769L85,24851L84,24851L84,24934L83,24934L83,25017L82,25017L82,25100L81,25100L81,25182L80,25182L80,25265L79,25265L79,25348L78,25348L78,25431L77,25431L77,25513L76,25513L76,25596L75,25596L75,25678L74,25678L74,25760L73,25760L73,25842L72,25842L72,25923L71,25923L71,26004L70,26004L70,26085L69,26085L69,26166L68,26166L68,26246L67,26246L67,22726L66,22726L66,22805L65,22805L65,22884L64,22884L64,22962L63,22962L63,23039L62,23039L62,23116L61,23116L61,23193L60,23193L60,23269L59,23269L59,23344L58,23344L58,23418L57,23418L57,23492L56,23492L56,23565L55,23565L55,23637L54,23637L54,23708L53,23708L53,23779L52,23779L52,23848L51,23848L51,23917L50,23917L50,23985L49,23985L49,24052L48,24052L48,24117L47,24117L47,24182L46,24182L46,24246L45,24246L45,24308L44,24308L44,24370L43,24370L43,24430L42,24430L42,24489L41,24489L41,24547L40,24547L40,24604L39,24604L39,24659L38,24659L38,24713L37,24713L37,24766L36,24766L36,24817L35,24817L35,24867L34,24867L34,24915L33,24915L33,24962L32,24962L32,25007L31,25007L31,25051L30,25051L30,25094L29,25094L29,25134L28,25134L28,25173L27,25173L27,25211L26,25211L26,25247L25,25247L25,25281L24,25281L24,25313L23,25313L23,25344L22,25344L22,25373L21,25373L21,25401L20,25401L20,25426L19,25426L19,25450L18,25450L18,25472L17,25472L17,25492L16,25492L16,25511L15,25511L15,25527L14,25527L14,25542L13,25542L13,25555L12,25555L12,25566L11,25566L11,25575L10,25575L10,25582L9,25582L9,25587L8,25587L8,25591L7,25591L7,25592L5,25592L5,25589L4,25589L4,25585L3,25585L3,25579L2,25579L2,25571L1,25571L1,25561Z"/>
<path fill="none" stroke="#0000ff" stroke-width="1" vector-effect="non-scaling-stroke" d="M0.5,179L3.5,263L4.5,290L6.5,342L9.5,417L12.5,486L13.5,508L14.5,529L16.5,569L18.5,607L19.5,625L20.5,642L21.5,658L23.5,688L24.5,702L25.5,715L27.5,739L28.5,750L29.5,760L30.5,769L32.5,785L34.5,797L35.5,802L36.5,806L38.5,812L39.5,814L40.5,815L41.5,815L43.5,813L44.5,810L45.5,808L47.5,800L48.5,795L50.5,783L52.5,769L53.5,761L55.5,743L56.5,733L57.5,722L58.5,712L61.5,676L62.5,663L63.5,649L64.5,636L65.5,621L66.5,607L67.5,592"/>
<path fill="none" stroke="#0000ff" stroke-width="1" vector-effect="non-scaling-stroke" d="M68.5,4176L69.5,4161L70.5,4145L71.5,4128L72.5,4112L75.5,4061L76.5,4043L77.5,4026L90.5,3792L91.5,3775L92.5,3757L93.5,3740L94.5,3722L96.5,3688L97.5,3672L98.5,3655L100.5,3623L101.5,3608L102.5,3592L103.5,3577L104.5,3563L105.5,3548L106.5,3534L109.5,3495L111.5,3471L113.5,3449L115.5,3429L117.5,3411L119.5,3395L121.5,3381L123.5,3369L125.5,3359L126.5,3355L128.5,3349L130.5,3345L132.5,3343L134.5,3343L135.5,3344L137.5,3348L138.5,3351L139.5,3355L140.5,3358L143.5,3373L144.5,3380L145.5,3386L146.5,3393L149.5,3417L152.5,3444L153.5,3454L154.5,3465L155.5,3475L158.5,3508L162.5,3556L163.5,3569L164.5,3581L170.5,3659L171.5,3673L175.5,3725L176.5,3737L178.5,3763L180.5,3787L181.5,3798L182.5,3810L184.5,3832L187.5,3862L190.5,3889L191.5,3897L194.5,3918L196.5,3930L198.5,3940L199.5,3944L200.5,3947L201.5,3951L203.5,3955L205.5,3957L207.5,3957L208.5,3956L210.5,3952L211.5,3949L213.5,3941L215.5,3931L216.5,3925L218.5,3911L220.5,3895L221.5,3886L223.5,3866L225.5,3844L227.5,3820L229.5,3794L232.5,3752L233.5,3737L236.5,3689L238.5,3655L241.5,3601L244.5,3544L248.5,3464L249.5,3443L250.5,3423L253.5,3360L254.5,3338L256.5,3296L257.5,3274L258.5,3253L259.5,3231L261.5,3189L262.5,3167L267.5,3062L269.5,3022L270.5,3001L271.5,2981L272.5,2962L273.5,2942L276.5,2885L278.5,2849L281.5,2798L283.5,2766L285.5,2736L286.5,2722L289.5,2683L292.5,2650L293.5,2640L294.5,2631L296.5,2615L298.5,2601L300.5,2591L302.5,2583L304.5,2579L305.5,2578"/>
<path fill="none" stroke="#0000ff" stroke-width="1" vector-effect="non-scaling-stroke" d="M305.5,85377L307.5,85379L308.5,85381L309.5,85384L310.5,85388L312.5,85398L314.5,85412L315.5,85420L316.5,85429L317.5,85439L319.5,85461L321.5,85487L322.5,85501L323.5,85516L325.5,85548L326.5,85565L327.5,85583L328.5,85602L330.5,85642L332.5,85684L333.5,85706L335.5,85752L336.5,85776L339.5,85851L340.5,85878L341.5,85904L342.5,85931L343.5,85959L344.5,85986L345.5,86015L346.5,86043L349.5,86130L351.5,86190L352.5,86219L358.5,86399"/>
<path fill="none" stroke="#0000ff" stroke-width="1" vector-effect="non-scaling-stroke" d="M360.5,28L361.5,58L363.5,116L364.5,144"/>
<path fill="none" stroke="#ff0000" stroke-width="1" vector-effect="non-scaling-stroke" d="M0.5,43393L2.5,43449L4.5,43503L6.5,43555L8.5,43605L9.5,43629L11.5,43675L12.5,43697L14.5,43739L16.5,43779L17.5,43798L18.5,43816L20.5,43850L21.5,43866L22.5,43881L24.5,43909L26.5,43933L28.5,43955L30.5,43973L31.5,43981L32.5,43988L34.5,44000L36.5,44008L37.5,44011L38.5,44013L40.5,44015L43.5,44012L45.5,44006L46.5,44002L48.5,43992L50.5,43980L51.5,43973L52.5,43965L55.5,43938L56.5,43928L58.5,43906L60.5,43882L63.5,43843L64.5,43829L66.5,43799"/>
<path fill="none" stroke="#ff0000" stroke-width="1" vector-effect="non-scaling-stroke" d="M67.5,47384L68.5,47369L70.5,47337L75.5,47252L76.5,47234L77.5,47217L90.5,46983L91.5,46966L92.5,46948L96.5,46880L97.5,46864L98.5,46847L100.5,46815L104.5,46755L105.5,46741L106.5,46728L107.5,46714L108.5,46701L110.5,46677L111.5,46666L112.5,46654L115.5,46624L116.5,46615L119.5,46591L120.5,46584L123.5,46566L124.5,46562L125.5,46557L126.5,46554L127.5,46550L130.5,46544L131.5,46543L133.5,46543L135.5,46545L136.5,46547L139.5,46556L140.5,46561L141.5,46565L142.5,46571L143.5,46576L147.5,46604L148.5,46613L149.5,46621L150.5,46630L151.5,46640L152.5,46649L153.5,46659L154.5,46670L155.5,46680L156.5,46691L157.5,46703L158.5,46714L161.5,46750L162.5,46763L163.5,46775L176.5,46944L177.5,46956L178.5,46969L180.5,46993L181.5,47004L182.5,47016L183.5,47026L184.5,47037L187.5,47067L189.5,47085L191.5,47101L193.5,47115L196.5,47133L197.5,47137L198.5,47142L199.5,47146L201.5,47152L203.5,47156L204.5,47157L206.5,47157L208.5,47155L209.5,47153L211.5,47147L213.5,47139L214.5,47134L216.5,47122L217.5,47115L219.5,47099L221.5,47081L223.5,47061L224.5,47050L227.5,47014L228.5,47001L231.5,46959L233.5,46929L235.5,46897L238.5,46846L241.5,46792L243.5,46754L248.5,46654L254.5,46528L255.5,46506L257.5,46464L258.5,46442L259.5,46421L260.5,46399L267.5,46252L268.5,46232L269.5,46211L271.5,46171L272.5,46152L273.5,46132L274.5,46113L275.5,46095L276.5,46076L278.5,46040L280.5,46006L282.5,45974L285.5,45929L286.5,45915L287.5,45902L288.5,45890L289.5,45877L291.5,45855L292.5,45845L294.5,45827L296.5,45811L297.5,45805L298.5,45798L299.5,45793L301.5,45785L303.5,45779L304.5,45778"/>
<path fill="none" stroke="#ff0000" stroke-width="1" vector-effect="non-scaling-stroke" d="M305.5,42177L306.5,42177L307.5,42178L308.5,42180L310.5,42186L311.5,42190L312.5,42195L313.5,42201L314.5,42208L316.5,42224L318.5,42244L319.5,42255L320.5,42267L321.5,42280L323.5,42308L325.5,42340L327.5,42374L329.5,42412L331.5,42452L332.5,42473L333.5,42495L336.5,42564L337.5,42588L338.5,42613L339.5,42639L340.5,42664L344.5,42772L345.5,42800L350.5,42945L352.5,43005L353.5,43034L358.5,43184L359.5,43213L360.5,43243L363.5,43330L364.5,43358"/>
<line x1="78.5" y1="86400" x2="78.5" y2="0" stroke="#00c000" stroke-width="1" vector-effect="non-scaling-stroke"/>
<line x1="170.5" y1="86400" x2="170.5" y2="0" stroke="#00c000" stroke-width="1" vector-effect="non-scaling-stroke"/>
<line x1="264.5" y1="86400" x2="264.5" y2="0" stroke="#00c000" stroke-width="1" vector-effect="non-scaling-stroke"/>
<line x1="354.5" y1="86400" x2="354.5" y2="0" stroke="#00c000" stroke-width="1" vector-effect="non-scaling-stroke"/>
</g>
<text x="20" y="510" font-family="Arial" font-size="11pt" text-anchor="end" alignment-baseline="middle" fill="#000000">0</text>
<line x1="25" y1="510" x2="1025" y2="510" stroke="#808080" stroke-width="0.5" />
<text x="20" y="468.33" font-family="Arial" font-size="11pt" text-anchor="end" alignment-baseline="middle" fill="#000000">2</text>
<line x1="25" y1="468.33" x2="1025" y2="468.33" stroke="#808080" stroke-width="0.5" />
<text x="20" y="426.67" font-family="Arial" font-size="11pt" text-anchor="end" alignment-baseline="middle" fill="#000000">4</text>
<line x1="25" y1="426.67" x2="1025" y2="426.67" stroke="#808080" stroke-width="0.5" />
<text x="20" y="385" font-family="Arial" font-size="11pt" text-anchor="end" alignment-baseline="middle" fill="#000000">6</text>
<line x1="25" y1="385" x2="1025" y2="385" stroke="#808080" stroke-width="0.5" />
<text x="20" y="343.33" font-family="Arial" font-size="11pt" text-anchor="end" alignment-baseline="middle" fill="#000000">8</text>
<line x1="25" y1="343.33" x2="1025" y2="343.33" stroke="#808080" stroke-width="0.5" />
<text x="20" y="301.67" font-family="Arial" font-size="11pt" text-anchor="end" alignment-baseline="middle" fill="#000000">10</text>
<line x1="25" y1="301.67" x2="1025" y2="301.67" stroke="#808080" stroke-width="0.5" />
<text x="20" y="260" font-family="Arial" font-size="11pt" text-anchor="end" alignment-baseline="middle" fill="#000000">12</text>
<line x1="25" y1="260" x2="1025" y2="260" stroke="#808080" stroke-width="0.5" />
<text x="20" y="218.33" font-family="Arial" font-size="11pt" text-anchor="end" alignment-baseline="middle" fill="#000000">14</text>
<line x1="25" y1="218.33" x2="1025" y2="218.33" stroke="#808080" stroke-width="0.5" />
<text x="20" y="176.67" font-family="Arial" font-size="11pt" text-anchor="end" alignment-baseline="middle" fill="#000000">16</text>
<line x1="25" y1="176.67" x2="1025" y2="176.67" stroke="#808080" stroke-width="0.5" />
<text x="20" y="135" font-family="Arial" font-size="11pt" text-anchor="end" alignment-baseline="middle" fill="#000000">18</text>
<line x1="25" y1="135" x2="1025" y2="135" stroke="#808080" stroke-width="0.5" />
<text x="20" y="93.33" font-family="Arial" font-size="11pt" text-anchor="end" alignment-baseline="middle" fill="#000000">20</text>
<line x1="25" y1="93.33" x2="1025" y2="93.33" stroke="#808080" stroke-width="0.5" />
<text x="20" y="51.67" font-family="Arial" font-size="11pt" text-anchor="end" alignment-baseline="middle" fill="#000000">22</text>
<line x1="25" y1="51.67" x2="1025" y2="51.67" stroke="#808080" stroke-width="0.5" />
<text x="20" y="10" font-family="Arial" font-size="11pt" text-anchor="end" alignment-baseline="middle" fill="#000000">24</text>
<line x1="25" y1="10" x2="1025" y2="10" stroke="#808080" stroke-width="0.5" />
<text x="67.47" y="522" font-family="Arial" font-size="11pt" text-anchor="middle" alignment-baseline="middle" fill="#000000">Jan</text>
<line x1="25" y1="10" x2="25" y2="510" stroke="#808080" stroke-width="0.5" />
<text x="148.29" y="522" font-family="Arial" font-size="11pt" text-anchor="middle" alignment-baseline="middle" fill="#000000">Feb</text>
<line x1="109.93" y1="10" x2="109.93" y2="510" stroke="#808080" stroke-width="0.5" />
<text x="229.11" y="522" font-family="Arial" font-size="11pt" text-anchor="middle" alignment-baseline="middle" fill="#000000">Mar</text>
<line x1="186.64" y1="10" x2="186.64" y2="510" stroke="#808080" stroke-width="0.5" />
<text x="312.67" y="522" font-family="Arial" font-size="11pt" text-anchor="middle" alignment-baseline="middle" fill="#000000">Apr</text>
<line x1="271.58" y1="10" x2="271.58" y2="510" stroke="#808080" stroke-width="0.5" />
<text x="396.23" y="522" font-family="Arial" font-size="11pt" text-anchor="middle" alignment-baseline="middle" fill="#000000">May</text>
<line x1="353.77" y1="10" x2="353.77" y2="510" stroke="#808080" stroke-width="0.5" />
<text x="479.79" y="522" font-family="Arial" font-size="11pt" text-anchor="middle" alignment-baseline="middle" fill="#000000">Jun</text>
<line x1="438.7" y1="10" x2="438.7" y2="510" stroke="#808080" stroke-width="0.5" />
<text x="563.36" y="522" font-family="Arial" font-size="11pt" text-anchor="middle" alignment-baseline="middle" fill="#000000">Jul</text>
<line x1="520.89" y1="10" x2="520.89" y2="510" stroke="#808080" stroke-width="0.5" />
<text x="648.29" y="522" font-family="Arial" font-size="11pt" text-anchor="middle" alignment-baseline="middle" fill="#000000">Aug</text>
<line x1="605.82" y1="10" x2="605.82" y2="510" stroke="#808080" stroke-width="0.5" />
<text x="731.85" y="522" font-family="Arial" font-size="11pt" text-anchor="middle" alignment-baseline="middle" fill="#000000">Sep</text>
<line x1="690.75" y1="10" x2="690.75" y2="510" stroke="#808080" stroke-width="0.5" />
<text x="815.41" y="522" font-family="Arial" font-size="11pt" text-anchor="middle" alignment-baseline="middle" fill="#000000">Oct</text>
<line x1="772.95" y1="10" x2="772.95" y2="510" stroke="#808080" stroke-width="0.5" />
<text x="898.97" y="522" font-family="Arial" font-size="11pt" text-anchor="middle" alignment-baseline="middle" fill="#000000">Nov</text>
<line x1="857.88" y1="10" x2="857.88" y2="510" stroke="#808080" stroke-width="0.5" />
<text x="982.53" y="522" font-family="Arial" font-size="11pt" text-anchor="middle" alignment-baseline="middle" fill="#000000">Dec</text>
<line x1="940.07" y1="10" x2="940.07" y2="510" stroke="#808080" stroke-width="0.5" />
<line x1="1025" y1="10" x2="1025" y2="510" stroke="#808080" stroke-width="0.5" />
</svg>